<svg width="56" height="58" viewBox="0 0 56 58" fill="none" xmlns="http://www.w3.org/2000/svg">
<path d="M39.0225 46.6782C43.3158 44.7963 53.4332 33.7597 54.3062 31.171C55.1792 28.5823 57.2728 20.9514 52.8069 14.3972C48.3411 7.84293 47.8845 5.72014 38.5459 2.68069C29.2072 -0.358757 20.6424 -0.834529 16.2527 1.36117C11.8631 3.55688 6.59559 5.56106 3.40359 10.8721C0.207198 16.1973 -1.0687 28.2319 1.02265 32.4022C3.114 36.5725 6.3723 38.0101 9.04034 43.4034C11.7084 48.7968 11.6655 54.5284 12.9292 56.0561C14.1929 57.5837 15.5248 57.4151 17.5611 55.3085C19.5831 53.1975 19.5476 50.5171 24.2977 49.3844C29.0479 48.2516 30.262 47.5005 32.8482 47.8732C35.4345 48.2459 39.0269 46.664 39.0269 46.664L39.0225 46.6782Z" fill="#FFC3A3"/>
</svg>
