<svg width="285" height="283" viewBox="0 0 285 283" fill="none" xmlns="http://www.w3.org/2000/svg">
<g clip-path="url(#clip0_53_1259)">
<path d="M235.31 241.41C235.65 241.28 235.61 241.29 236.08 241.32C236.29 241.33 236.52 241.53 236.8 241.56C237.02 241.58 237.31 241.23 237.57 241.26C237.8 241.28 237.95 242.09 238.21 242.12C238.44 242.15 238.76 241.61 239.01 241.65C239.24 241.68 239.52 241.55 239.76 241.59C240 241.63 240.17 242.1 240.41 242.14C240.65 242.18 240.98 241.76 241.22 241.81C241.46 241.86 241.67 242.08 241.91 242.13C242.15 242.18 242.22 242.93 242.46 242.99C242.7 243.05 243 242.82 243.24 242.89C243.48 242.96 243.64 243.24 243.87 243.31C244.1 243.38 244.29 243.55 244.52 243.63C244.75 243.71 245.13 243.36 245.36 243.45C245.59 243.54 245.67 243.97 245.89 244.07C246.11 244.17 246.58 243.73 246.8 243.84C247.02 243.95 247.04 244.44 247.25 244.56C247.46 244.68 247.63 244.84 247.84 244.97C248.05 245.1 248.66 244.64 248.86 244.78C249.06 244.92 249.37 244.99 249.55 245.15C249.75 245.33 249.41 246.05 249.55 246.23C249.73 246.44 249.75 246.64 249.85 246.84C249.97 247.08 250.47 247.18 250.49 247.41C250.51 247.64 249.95 247.79 249.87 248.03C249.79 248.25 250.13 248.68 249.97 248.89C249.83 249.07 249.58 249.2 249.38 249.38C249.21 249.54 249.12 249.85 248.9 250C248.71 250.14 248.26 249.91 248.04 250.04C247.83 250.16 247.79 250.61 247.56 250.73C247.34 250.84 246.87 250.38 246.63 250.48C246.41 250.58 246.21 250.71 245.97 250.8C245.74 250.89 245.56 251.08 245.32 251.16C245.08 251.24 244.9 251.43 244.65 251.5C244.4 251.57 244.18 251.63 243.93 251.7C243.68 251.77 243.53 252.11 243.28 252.18C243.03 252.25 242.73 252.02 242.49 252.08C242.25 252.14 242.01 252.18 241.76 252.23C241.51 252.28 241.35 252.68 241.1 252.73C240.85 252.78 240.57 252.6 240.32 252.64C240.07 252.68 239.75 252.25 239.5 252.29C239.25 252.33 239.16 253.28 238.91 253.32C238.66 253.36 238.42 253.43 238.17 253.46C237.92 253.49 237.67 253.49 237.42 253.52C237.17 253.55 236.9 253.37 236.65 253.4C236.4 253.43 236.18 253.74 235.93 253.76C235.68 253.78 235.43 253.77 235.18 253.8C234.93 253.83 234.65 253.43 234.4 253.45C234.15 253.47 233.93 253.93 233.68 253.95C233.43 253.97 233.16 253.61 232.91 253.63C232.66 253.65 232.41 253.67 232.16 253.68C231.91 253.69 231.65 253.55 231.4 253.56C231.15 253.57 230.88 253.25 230.62 253.26C230.36 253.27 230.11 253.23 229.86 253.24C229.61 253.25 229.37 253.62 229.12 253.63C228.87 253.64 228.61 253.61 228.36 253.63C228.11 253.65 227.9 254.16 227.65 254.19C227.4 254.22 227.16 254.32 226.91 254.34C226.66 254.36 226.36 253.93 226.11 253.95C225.86 253.97 225.58 253.78 225.33 253.81C225.08 253.84 224.87 254.18 224.62 254.22C224.37 254.26 224.04 253.71 223.79 253.75C223.54 253.79 223.35 254.28 223.11 254.32C222.87 254.36 222.62 254.47 222.37 254.51C222.12 254.55 221.83 254.34 221.58 254.39C221.33 254.44 221.13 254.74 220.88 254.79C220.63 254.84 220.39 254.92 220.14 254.97C219.89 255.02 219.63 254.98 219.38 255.03C219.13 255.08 219 255.67 218.76 255.73C218.52 255.79 218.12 255.19 217.88 255.25C217.64 255.31 217.42 255.5 217.18 255.56C216.94 255.62 216.67 255.59 216.42 255.65C216.17 255.71 216.03 256.14 215.78 256.2C215.53 256.26 215.29 256.31 215.05 256.38C214.81 256.45 214.58 256.57 214.34 256.64C214.1 256.71 213.65 256.1 213.41 256.18C213.17 256.26 213.13 256.95 212.89 257.03C212.65 257.11 212.22 256.61 211.98 256.69C211.74 256.77 211.61 257.18 211.37 257.26C211.13 257.34 211.08 257.92 210.84 258.01C210.6 258.1 210.16 257.64 209.93 257.73C209.7 257.82 209.66 258.42 209.42 258.51C209.18 258.6 208.77 258.24 208.54 258.34C208.31 258.44 208.14 258.7 207.91 258.8C207.68 258.9 207.51 259.15 207.28 259.25C207.05 259.35 206.79 259.39 206.56 259.5C206.33 259.61 206.03 259.55 205.8 259.65C205.57 259.75 205.23 259.62 205 259.73C204.77 259.84 204.59 260.04 204.36 260.15C204.13 260.26 203.8 260.15 203.57 260.27C203.34 260.39 203.26 260.77 203.04 260.89C202.82 261.01 202.72 261.35 202.49 261.47C202.26 261.59 201.76 261.2 201.54 261.32C201.32 261.44 201.56 262.36 201.34 262.49C201.12 262.62 200.73 262.44 200.51 262.57C200.29 262.7 200 262.7 199.78 262.83C199.56 262.96 199.53 263.38 199.32 263.51C199.11 263.64 198.94 263.85 198.73 263.99C198.52 264.13 198.29 264.23 198.08 264.37C197.87 264.51 197.72 264.72 197.51 264.87C197.3 265.02 196.75 264.65 196.54 264.8C196.33 264.95 196.26 265.28 196.06 265.43C195.86 265.58 195.55 265.6 195.36 265.76C195.16 265.92 195.08 266.21 194.91 266.38C194.72 266.56 194.43 266.62 194.27 266.81C194.1 267.01 194.32 267.47 194.18 267.67C194.03 267.88 193.67 267.93 193.56 268.14C193.45 268.35 193.01 268.46 192.92 268.7C192.83 268.94 192.88 269.25 192.83 269.49C192.78 269.73 192.88 270.01 192.87 270.26C192.86 270.51 192.48 270.8 192.51 271.05C192.54 271.3 193.06 271.48 193.12 271.73C193.18 271.98 193.47 272.11 193.57 272.35C193.67 272.59 193.91 272.69 194.03 272.91C194.15 273.13 193.56 273.76 193.71 273.98C193.86 274.2 194.33 274.15 194.49 274.35C194.65 274.55 194.45 275.06 194.63 275.24C194.81 275.42 195.17 275.43 195.35 275.61C195.53 275.79 196.01 275.61 196.21 275.77C196.41 275.93 196.55 276.12 196.76 276.27C196.97 276.42 196.88 276.97 197.09 277.11C197.3 277.25 197.66 277.15 197.88 277.29C198.1 277.43 198.36 277.45 198.58 277.58C198.8 277.71 198.89 278.05 199.12 278.17C199.35 278.29 199.63 278.27 199.86 278.38C200.09 278.49 200.21 278.82 200.44 278.93C200.67 279.04 200.89 279.18 201.12 279.27C201.35 279.36 201.77 278.97 202.01 279.06C202.25 279.15 202.31 279.69 202.55 279.78C202.79 279.87 203.04 279.92 203.28 280C203.52 280.08 203.81 280 204.05 280.06C204.29 280.12 204.67 279.7 204.91 279.77C205.15 279.84 205.29 280.27 205.53 280.34C205.77 280.41 206 280.53 206.24 280.59C206.48 280.65 206.76 280.54 207.01 280.59C207.26 280.64 207.4 281.16 207.65 281.21C207.9 281.26 208.22 280.92 208.47 280.97C208.72 281.02 209.02 280.68 209.27 280.72C209.52 280.76 209.72 281.01 209.97 281.05C210.22 281.09 210.48 280.99 210.73 281.02C210.98 281.05 211.17 281.51 211.42 281.54C211.67 281.57 211.92 281.61 212.17 281.63C212.42 281.65 212.71 281.23 212.96 281.25C213.21 281.27 213.41 281.81 213.66 281.83C213.91 281.85 214.14 282.21 214.39 282.23C214.64 282.25 214.92 281.76 215.17 281.78C215.42 281.8 215.67 281.69 215.92 281.7C216.17 281.71 216.42 281.6 216.67 281.61C216.92 281.62 217.17 281.39 217.42 281.4C217.67 281.41 217.91 281.75 218.16 281.75C218.41 281.75 218.66 282.33 218.91 282.33C219.16 282.33 219.41 281.76 219.66 281.76C219.91 281.76 220.15 281.4 220.41 281.4C220.67 281.4 220.93 282.32 221.18 282.31C221.43 282.3 221.67 281.83 221.92 281.82C222.17 281.81 222.4 281.35 222.65 281.33C222.9 281.31 223.16 281.51 223.41 281.49C223.66 281.47 223.89 281.23 224.15 281.21C224.41 281.19 224.68 281.72 224.93 281.71C225.18 281.7 225.43 281.73 225.68 281.71C225.93 281.69 226.13 281.07 226.38 281.05C226.63 281.03 226.94 281.67 227.19 281.64C227.44 281.61 227.65 281.2 227.9 281.17C228.15 281.14 228.43 281.45 228.68 281.42C228.93 281.39 229.22 281.67 229.47 281.64C229.72 281.61 229.86 280.74 230.11 280.71C230.36 280.68 230.73 281.58 230.98 281.55C231.23 281.52 231.47 281.42 231.72 281.39C231.97 281.36 232.11 280.62 232.36 280.58C232.61 280.54 232.89 280.74 233.14 280.7C233.39 280.66 233.58 280.26 233.83 280.22C234.08 280.18 234.36 280.38 234.61 280.34C234.86 280.3 235.16 280.57 235.41 280.53C235.66 280.49 235.8 279.89 236.05 279.84C236.3 279.79 236.63 280.16 236.88 280.12C237.13 280.08 237.46 280.48 237.7 280.43C237.94 280.38 238.16 280.18 238.41 280.13C238.66 280.08 238.87 279.86 239.11 279.82C239.35 279.78 239.67 280.06 239.92 280.01C240.17 279.96 240.22 278.99 240.47 278.93C240.72 278.87 240.98 278.91 241.22 278.86C241.46 278.81 241.71 278.76 241.96 278.71C242.21 278.66 242.52 278.93 242.76 278.88C243 278.83 243.16 278.37 243.4 278.31C243.64 278.25 244.03 278.82 244.27 278.76C244.51 278.7 244.8 278.83 245.04 278.78C245.28 278.73 245.51 278.6 245.76 278.54C246.01 278.48 246.19 278.17 246.43 278.11C246.67 278.05 246.84 277.65 247.08 277.6C247.32 277.55 247.52 277.3 247.76 277.25C248 277.2 248.28 277.28 248.52 277.22C248.76 277.16 249 277.06 249.24 277C249.48 276.94 249.75 276.98 249.99 276.92C250.23 276.86 250.66 277.51 250.9 277.45C251.14 277.39 251.19 276.58 251.43 276.51C251.67 276.44 251.88 276.25 252.12 276.18C252.36 276.11 252.72 276.49 252.96 276.42C253.2 276.35 253.46 276.33 253.7 276.27C253.94 276.21 254.14 276 254.38 275.93C254.62 275.86 255.02 276.35 255.26 276.28C255.5 276.21 255.49 275.28 255.73 275.21C255.97 275.14 256.33 275.49 256.57 275.42C256.81 275.35 257.1 275.42 257.33 275.35C257.56 275.28 257.65 274.71 257.89 274.63C258.13 274.55 258.55 275.04 258.78 274.97C259.01 274.9 259.22 274.71 259.46 274.63C259.7 274.55 259.8 274.06 260.03 273.98C260.26 273.9 260.71 274.44 260.95 274.36C261.19 274.28 261.31 273.86 261.54 273.78C261.77 273.7 262.07 273.77 262.3 273.68C262.53 273.59 262.88 273.8 263.11 273.71C263.34 273.62 263.55 273.45 263.78 273.37C264.01 273.29 263.95 272.42 264.18 272.33C264.41 272.24 264.73 272.38 264.96 272.29C265.19 272.2 265.33 271.89 265.56 271.8C265.79 271.71 266.33 272.34 266.56 272.24C266.79 272.14 267 271.99 267.23 271.89C267.46 271.79 267.39 271.03 267.61 270.92C267.83 270.81 268.44 271.52 268.67 271.42C268.9 271.32 269.1 271.14 269.32 271.03C269.54 270.92 269.34 269.95 269.56 269.84C269.78 269.73 270.28 270.15 270.5 270.03C270.72 269.91 270.94 269.78 271.15 269.66C271.36 269.54 271.33 268.96 271.55 268.84C271.77 268.72 272.28 269.11 272.49 268.98C272.7 268.85 273 268.85 273.21 268.72C273.42 268.59 273.22 267.8 273.43 267.66C273.64 267.52 274.35 268.16 274.56 268.02C274.77 267.88 274.65 267.26 274.85 267.12C275.05 266.98 275.6 267.31 275.8 267.16C276 267.01 276.19 266.83 276.39 266.68C276.59 266.53 276.51 266.01 276.7 265.86C276.89 265.71 276.83 265.24 277.02 265.08C277.21 264.92 277.71 265.12 277.9 264.96C278.09 264.8 278.15 264.5 278.33 264.33C278.51 264.16 278.62 263.92 278.8 263.75C278.98 263.58 278.95 263.22 279.12 263.04C279.29 262.86 279.47 262.7 279.63 262.52C279.79 262.34 280.35 262.48 280.51 262.29C280.67 262.1 281.14 262.14 281.29 261.94C281.44 261.74 281.34 261.35 281.48 261.14C281.62 260.93 281.76 260.72 281.89 260.51C282.02 260.3 281.78 259.87 281.91 259.65C282.04 259.43 282.2 259.25 282.32 259.03C282.44 258.81 282.27 258.47 282.37 258.24C282.47 258.01 283.09 258.03 283.19 257.8C283.29 257.57 282.86 257.14 282.94 256.91C283.02 256.68 283.37 256.55 283.45 256.31C283.53 256.07 283.67 255.86 283.74 255.62C283.81 255.38 283.98 255.17 284.03 254.93C284.08 254.69 283.89 254.4 283.94 254.15C283.99 253.9 284.45 253.74 284.48 253.49C284.51 253.24 284.42 252.98 284.45 252.73C284.48 252.48 284.83 252.26 284.86 252.02C284.89 251.78 284.58 251.5 284.59 251.25C284.6 251 284.73 250.76 284.73 250.51C284.73 250.26 284.26 250.02 284.26 249.76C284.26 249.5 284.29 249.27 284.28 249.02C284.27 248.77 285.04 248.48 285.02 248.23C285 247.98 284.04 247.81 284.01 247.56C283.98 247.31 284.69 246.97 284.65 246.73C284.61 246.49 284.37 246.26 284.32 246.02C284.27 245.78 284.24 245.52 284.17 245.28C284.1 245.04 283.49 244.98 283.41 244.74C283.33 244.5 284.13 243.94 284.03 243.71C283.93 243.48 283.55 243.35 283.45 243.13C283.35 242.91 282.77 242.91 282.66 242.69C282.55 242.47 282.24 242.37 282.11 242.16C281.98 241.95 281.99 241.68 281.85 241.46C281.71 241.24 282.24 240.6 282.09 240.39C281.94 240.18 281.87 239.91 281.72 239.71C281.57 239.51 280.75 239.83 280.6 239.64C280.45 239.45 280.7 238.91 280.54 238.72C280.38 238.53 280.21 238.34 280.04 238.16C279.87 237.98 279.44 238.04 279.27 237.86C279.1 237.68 279.21 237.21 279.03 237.04C278.85 236.87 278.45 236.93 278.26 236.76C278.07 236.59 277.59 236.76 277.4 236.6C277.21 236.44 277.39 235.86 277.2 235.7C277.01 235.54 276.6 235.65 276.41 235.49C276.22 235.33 275.97 235.25 275.77 235.1C275.57 234.95 275.67 234.41 275.47 234.26C275.27 234.11 274.94 234.15 274.73 234C274.52 233.85 274.66 233.24 274.45 233.1C274.24 232.96 273.47 233.65 273.27 233.51C273.07 233.37 273.15 232.79 272.95 232.65C272.75 232.51 272.3 232.75 272.09 232.61C271.88 232.47 271.85 232.06 271.63 231.93C271.41 231.8 271.46 231.25 271.24 231.12C271.02 230.99 270.59 231.24 270.37 231.12C270.15 231 270.16 230.48 269.94 230.35C269.72 230.22 269.26 230.55 269.04 230.43C268.82 230.31 268.65 230.1 268.43 229.98C268.21 229.86 268.02 229.69 267.8 229.57C267.58 229.45 267.11 229.82 266.89 229.71C266.67 229.6 266.83 228.72 266.6 228.61C266.37 228.5 266.02 228.66 265.79 228.55C265.56 228.44 265.19 228.65 264.96 228.55C264.73 228.45 264.76 227.79 264.54 227.69C264.32 227.59 263.9 227.87 263.68 227.77C263.46 227.67 263.45 227.05 263.23 226.95C263.01 226.85 262.37 227.67 262.14 227.57C261.91 227.47 261.69 227.37 261.46 227.27C261.23 227.17 261.29 226.39 261.06 226.29C260.83 226.19 260.7 225.84 260.47 225.74C260.24 225.64 259.98 225.61 259.75 225.52C259.52 225.43 259.11 225.76 258.88 225.67C258.65 225.58 258.38 225.58 258.14 225.5C257.9 225.42 257.64 225.41 257.41 225.32C257.18 225.23 256.98 225.03 256.75 224.94C256.52 224.85 256.16 225.09 255.93 225.01C255.7 224.93 255.68 224.23 255.44 224.14C255.2 224.05 254.99 223.9 254.75 223.82C254.51 223.74 254.07 224.24 253.84 224.17C253.61 224.1 253.57 223.38 253.34 223.3C253.1 223.22 252.82 223.25 252.59 223.17C252.34 223.09 251.88 223.73 251.65 223.66C251.4 223.58 251.39 222.79 251.16 222.72C250.91 222.64 250.54 223.01 250.31 222.94C250.06 222.86 249.75 223.01 249.53 222.94C249.27 222.86 249.11 222.53 248.89 222.47C248.61 222.39 248.41 222.19 248.21 222.13C247.74 222 247.17 221.84 247.17 221.84C247.25 221.48 247.4 221.63 247.51 221.16C247.55 220.96 247.85 220.77 247.91 220.48C247.96 220.26 247.63 219.94 247.69 219.67C247.74 219.44 248.25 219.29 248.3 219.04C248.35 218.81 248.68 218.62 248.73 218.37C248.78 218.14 248.3 217.79 248.35 217.53C248.4 217.29 248.37 217.04 248.42 216.79C248.47 216.55 248.54 216.32 248.59 216.07C248.64 215.83 248.59 215.57 248.63 215.32C248.67 215.07 249.16 214.92 249.21 214.67C249.26 214.42 249.38 214.2 249.43 213.95C249.48 213.7 248.94 213.36 248.98 213.11C249.02 212.86 249.69 212.74 249.73 212.49C249.77 212.24 249.57 211.96 249.61 211.71C249.65 211.46 249.38 211.17 249.43 210.92C249.48 210.67 249.5 210.43 249.54 210.18C249.58 209.93 249.33 209.65 249.37 209.4C249.41 209.15 250.24 209.04 250.28 208.8C250.32 208.56 250.45 208.33 250.49 208.08C250.53 207.83 249.87 207.48 249.91 207.23C249.95 206.98 249.81 206.71 249.85 206.47C249.89 206.23 250.7 206.1 250.73 205.85C250.76 205.6 250.97 205.39 251.01 205.14C251.05 204.89 250.69 204.59 250.72 204.34C250.75 204.09 250.89 203.86 250.93 203.62C250.97 203.38 250.86 203.11 250.9 202.86C250.94 202.61 250.56 202.31 250.59 202.06C250.62 201.81 250.85 201.6 250.88 201.35C250.91 201.1 251.27 200.9 251.3 200.65C251.33 200.4 250.91 200.1 250.94 199.85C250.97 199.6 251.13 199.37 251.16 199.13C251.19 198.89 251.84 198.72 251.87 198.47C251.9 198.22 251.12 197.88 251.15 197.63C251.18 197.38 251.5 197.17 251.53 196.93C251.56 196.69 251.59 196.44 251.62 196.19C251.65 195.94 252.27 195.76 252.3 195.52C252.33 195.28 252.04 194.99 252.07 194.74C252.1 194.49 252.39 194.27 252.42 194.03C252.45 193.79 251.67 193.45 251.69 193.21C251.71 192.97 252.32 192.77 252.35 192.53C252.38 192.29 251.81 191.98 251.83 191.73C251.85 191.48 251.78 191.23 251.81 190.98C251.84 190.73 251.92 190.49 251.94 190.24C251.96 189.99 252.27 189.77 252.29 189.52C252.31 189.27 252.04 189 252.06 188.75C252.08 188.5 252.56 188.29 252.58 188.04C252.6 187.79 252.94 187.57 252.96 187.32C252.98 187.07 252.17 186.77 252.19 186.52C252.21 186.27 252.33 186.03 252.34 185.78C252.35 185.53 252.6 185.3 252.61 185.05C252.62 184.8 253.18 184.58 253.19 184.34C253.2 184.1 252.7 183.81 252.71 183.56C252.72 183.31 252.96 183.07 252.97 182.82C252.98 182.57 252.72 182.31 252.74 182.06C252.76 181.81 252.75 181.56 252.76 181.31C252.77 181.06 252.51 180.8 252.52 180.55C252.53 180.3 252.46 180.05 252.47 179.8C252.48 179.55 253.23 179.32 253.23 179.07C253.23 178.82 253.26 178.57 253.27 178.32C253.28 178.07 252.86 177.81 252.86 177.56C252.86 177.31 252.65 177.06 252.65 176.81C252.65 176.56 253.31 176.32 253.31 176.07C253.31 175.82 253.44 175.57 253.44 175.32C253.44 175.07 253.09 174.82 253.09 174.57C253.09 174.32 253.09 174.07 253.09 173.82C253.09 173.57 253.15 173.32 253.14 173.07C253.13 172.82 252.88 172.58 252.88 172.33C252.88 172.08 253.08 171.83 253.07 171.58C253.06 171.33 253.1 171.08 253.09 170.83C253.08 170.58 252.68 170.35 252.67 170.1C252.66 169.85 253.12 169.58 253.11 169.33C253.1 169.08 252.46 168.87 252.45 168.62C252.44 168.37 252.47 168.12 252.45 167.87C252.43 167.62 253.17 167.31 253.15 167.06C253.13 166.81 252.46 166.62 252.44 166.37C252.42 166.12 252.37 165.88 252.34 165.63C252.31 165.38 252.38 165.13 252.35 164.88C252.32 164.63 252.65 164.35 252.62 164.1C252.59 163.85 252.45 163.62 252.42 163.37C252.39 163.12 252.59 162.84 252.56 162.6C252.53 162.36 251.85 162.19 251.81 161.94C251.77 161.69 251.66 161.46 251.63 161.21C251.6 160.96 252.12 160.64 252.09 160.39C252.06 160.14 251.84 159.92 251.81 159.67C251.78 159.42 251.49 159.22 251.45 158.97C251.41 158.72 251.96 158.38 251.92 158.13C251.88 157.88 251.13 157.76 251.09 157.51C251.05 157.26 251.61 156.91 251.56 156.67C251.51 156.43 251.78 156.12 251.73 155.88C251.68 155.64 250.92 155.52 250.88 155.28C250.84 155.04 250.66 154.82 250.61 154.57C250.56 154.32 251.15 153.95 251.1 153.71C251.05 153.47 250.26 153.37 250.21 153.13C250.16 152.89 250.4 152.58 250.35 152.34C250.3 152.1 250.09 151.89 250.04 151.64C249.99 151.39 250.15 151.1 250.1 150.86C250.05 150.62 249.91 150.39 249.86 150.15C249.81 149.91 249.76 149.66 249.71 149.42C249.66 149.18 249.22 149.03 249.16 148.78C249.1 148.53 249.34 148.22 249.28 147.98C249.22 147.74 249.52 147.41 249.46 147.16C249.4 146.91 249.24 146.7 249.18 146.46C249.12 146.22 248.59 146.1 248.52 145.86C248.45 145.62 248.93 145.24 248.87 144.99C248.81 144.74 248.41 144.6 248.34 144.35C248.27 144.1 248.41 143.81 248.34 143.57C248.27 143.33 247.75 143.22 247.68 142.97C247.61 142.72 248.22 142.3 248.15 142.06C248.08 141.82 247.77 141.65 247.7 141.41C247.63 141.17 247.7 140.89 247.63 140.65C247.56 140.41 247.2 140.25 247.13 140.01C247.06 139.77 247.53 139.37 247.46 139.13C247.39 138.89 247.4 138.62 247.32 138.39C247.24 138.16 246.3 138.18 246.23 137.94C246.16 137.7 246.55 137.32 246.47 137.08C246.39 136.84 245.89 136.74 245.82 136.5C245.75 136.26 246.31 135.82 246.23 135.58C246.15 135.34 245.34 135.34 245.26 135.1C245.18 134.86 245.83 134.39 245.75 134.15C245.67 133.91 244.93 133.89 244.85 133.66C244.77 133.43 244.9 133.12 244.82 132.88C244.74 132.64 244.55 132.44 244.47 132.21C244.39 131.98 244.57 131.65 244.49 131.41C244.41 131.17 243.97 131.06 243.89 130.82C243.81 130.58 243.69 130.36 243.61 130.12C243.53 129.88 243.49 129.63 243.41 129.4C243.33 129.17 243.38 128.88 243.29 128.64C243.2 128.4 243.21 128.14 243.12 127.9C243.03 127.66 243.5 127.23 243.41 126.99C243.32 126.75 242.46 126.81 242.37 126.57C242.28 126.33 242.65 125.93 242.57 125.7C242.49 125.47 242.8 125.08 242.71 124.84C242.62 124.6 242.37 124.43 242.28 124.2C242.19 123.97 242.07 123.74 241.98 123.51C241.89 123.28 241.44 123.18 241.35 122.95C241.26 122.72 241.57 122.33 241.48 122.09C241.39 121.85 240.72 121.85 240.62 121.62C240.52 121.39 240.73 121.04 240.64 120.8C240.55 120.56 240.64 120.26 240.54 120.03C240.44 119.8 240.4 119.55 240.31 119.31C240.22 119.07 240.12 118.85 240.03 118.61C239.94 118.37 239.98 118.09 239.88 117.86C239.78 117.63 238.9 117.73 238.8 117.5C238.7 117.27 238.95 116.9 238.85 116.67C238.75 116.44 238.46 116.29 238.37 116.06C238.28 115.83 237.93 115.71 237.83 115.48C237.73 115.25 238.29 114.73 238.19 114.51C238.09 114.29 237.63 114.21 237.53 113.98C237.43 113.75 237.39 113.5 237.29 113.27C237.19 113.04 237.64 112.57 237.54 112.34C237.44 112.11 237.17 111.96 237.07 111.73C236.97 111.5 236.74 111.33 236.64 111.1C236.54 110.87 236.26 110.72 236.16 110.49C236.06 110.26 236.14 109.95 236.03 109.72C235.92 109.49 236.14 109.11 236.03 108.89C235.92 108.67 235.57 108.55 235.46 108.33C235.35 108.11 235.34 107.83 235.24 107.61C235.14 107.39 235.05 107.15 234.94 106.92C234.83 106.69 234.65 106.5 234.54 106.28C234.43 106.06 234.13 105.92 234.02 105.7C233.91 105.48 233.38 105.46 233.27 105.24C233.16 105.02 233.39 104.62 233.27 104.4C233.15 104.18 233.25 103.85 233.13 103.63C233.01 103.41 232.68 103.3 232.56 103.08C232.44 102.86 232.15 102.73 232.04 102.51C231.93 102.29 232.14 101.89 232.02 101.67C231.9 101.45 231.76 101.24 231.65 101.02C231.54 100.8 231.61 100.47 231.5 100.25C231.39 100.03 230.77 100.07 230.66 99.85C230.55 99.63 231.03 99.07 230.91 98.86C230.79 98.65 230.7 98.4 230.58 98.18C230.46 97.96 229.88 97.99 229.76 97.78C229.64 97.57 229.64 97.27 229.52 97.05C229.4 96.83 229.52 96.46 229.41 96.25C229.3 96.04 228.99 95.91 228.87 95.69C228.75 95.47 228.13 95.54 228.01 95.33C227.89 95.12 228.03 94.73 227.9 94.52C227.77 94.31 227.87 93.95 227.75 93.74C227.63 93.53 227.24 93.46 227.12 93.25C227 93.04 227.3 92.55 227.17 92.34C227.04 92.13 226.41 92.22 226.28 92.01C226.15 91.8 225.84 91.69 225.71 91.48C225.58 91.27 225.87 90.79 225.74 90.58C225.61 90.37 225.16 90.35 225.03 90.14C224.9 89.93 225.15 89.48 225.02 89.27C224.89 89.06 224.44 89.03 224.31 88.82C224.18 88.61 224.44 88.16 224.32 87.95C224.2 87.74 223.66 87.75 223.54 87.54C223.42 87.33 223.4 87.04 223.29 86.82C223.18 86.6 223.02 86.4 222.91 86.18C222.8 85.96 222.98 85.59 222.87 85.37C222.76 85.15 222.13 85.15 222.03 84.93C221.93 84.71 222.59 84.17 222.5 83.94C222.41 83.71 222.08 83.58 222.01 83.34C221.94 83.1 221.84 82.88 221.77 82.64C221.7 82.4 221.81 82.13 221.75 81.89C221.69 81.65 221.36 81.48 221.31 81.23C221.26 80.98 221.41 80.72 221.37 80.47C221.33 80.22 221.19 80.01 221.16 79.75C221.13 79.49 220.81 79.29 220.79 79.04C220.77 78.79 220.96 78.54 220.95 78.28C220.94 78.02 220.36 77.81 220.35 77.56C220.34 77.31 220.31 77.06 220.31 76.8C220.31 76.54 220.32 76.3 220.32 76.04C220.32 75.78 221.03 75.56 221.04 75.3C221.05 75.04 221.16 74.81 221.17 74.56C221.18 74.31 220.39 74.03 220.4 73.78C220.41 73.53 220.79 73.3 220.8 73.05C220.81 72.8 221.28 72.56 221.28 72.31C221.28 72.06 221.05 71.8 221.05 71.55C221.05 71.3 221.34 71.05 221.34 70.79C221.34 70.53 220.59 70.3 220.59 70.05C220.59 69.8 220.89 69.55 220.88 69.29C220.87 69.03 220.78 68.79 220.77 68.54C220.76 68.29 221.33 68.01 221.32 67.76C221.31 67.51 221.02 67.27 221.01 67.02C221 66.77 220.33 66.57 220.31 66.32C220.29 66.07 220.57 65.8 220.55 65.55C220.53 65.3 220.48 65.05 220.46 64.8C220.44 64.55 220.84 64.26 220.81 64.01C220.78 63.76 220.28 63.56 220.26 63.31C220.24 63.06 220.43 62.79 220.4 62.54C220.37 62.29 219.78 62.12 219.75 61.87C219.72 61.62 220.53 61.26 220.49 61.01C220.45 60.76 220.5 60.5 220.46 60.25C220.42 60 219.69 59.86 219.65 59.61C219.61 59.36 219.56 59.12 219.51 58.87C219.46 58.62 219.51 58.36 219.46 58.11C219.41 57.86 219.53 57.59 219.48 57.34C219.43 57.09 219.63 56.8 219.58 56.55C219.53 56.3 219.38 56.08 219.33 55.83C219.28 55.58 219.57 55.26 219.52 55.01C219.47 54.76 219.46 54.5 219.4 54.26C219.34 54.02 218.87 53.87 218.81 53.62C218.75 53.37 218.71 53.13 218.65 52.88C218.59 52.63 218.71 52.34 218.65 52.1C218.59 51.86 218.7 51.56 218.63 51.32C218.56 51.08 218.27 50.89 218.2 50.65C218.13 50.41 218.3 50.09 218.23 49.85C218.16 49.61 218.1 49.35 218.03 49.12C217.96 48.89 217.07 48.9 216.99 48.66C216.91 48.42 216.91 48.16 216.83 47.92C216.75 47.68 216.75 47.42 216.66 47.18C216.57 46.94 216.32 46.77 216.24 46.53C216.16 46.29 216.29 45.98 216.19 45.74C216.09 45.5 216.51 45.07 216.41 44.83C216.31 44.59 215.36 44.72 215.27 44.49C215.18 44.26 215.93 43.65 215.83 43.42C215.73 43.19 214.9 43.29 214.8 43.06C214.7 42.83 215.32 42.25 215.21 42.03C215.1 41.81 214.54 41.8 214.43 41.57C214.32 41.34 214.38 41.03 214.26 40.81C214.14 40.59 214.08 40.33 213.96 40.11C213.84 39.89 213.5 39.79 213.37 39.58C213.24 39.37 212.89 39.28 212.76 39.07C212.63 38.86 212.69 38.51 212.55 38.31C212.41 38.11 211.9 38.15 211.75 37.95C211.6 37.75 212.05 37.1 211.9 36.91C211.75 36.72 211.24 36.78 211.08 36.59C210.92 36.4 211.23 35.8 211.07 35.61C210.91 35.42 210.56 35.37 210.39 35.19C210.22 35.01 209.97 34.88 209.79 34.71C209.61 34.54 209.14 34.66 208.95 34.49C208.76 34.32 208.64 34.09 208.45 33.93C208.26 33.77 208.55 33.2 208.35 33.05C208.13 32.75 207.83 33.1 207.66 32.64C207.59 32.44 207.77 32.11 207.67 31.84C207.59 31.63 207.72 31.31 207.62 31.06C207.54 30.84 206.85 30.84 206.76 30.59C206.67 30.37 206.71 30.09 206.61 29.85C206.52 29.63 206.12 29.52 206.03 29.28C205.94 29.06 206.03 28.75 205.95 28.51C205.86 28.28 205.49 28.16 205.4 27.92C205.31 27.68 205.74 27.25 205.65 27.02C205.56 26.79 205.54 26.53 205.44 26.3C205.34 26.07 204.73 26.05 204.64 25.82C204.55 25.59 204.47 25.36 204.37 25.12C204.27 24.88 204.95 24.35 204.86 24.11C204.77 23.87 204.06 23.9 203.96 23.67C203.86 23.44 204.17 23.04 204.08 22.81C203.99 22.58 203.57 22.49 203.47 22.26C203.37 22.03 203.65 21.65 203.55 21.42C203.45 21.19 203.17 21.04 203.07 20.81C202.97 20.58 202.35 20.58 202.25 20.35C202.15 20.12 202.51 19.7 202.41 19.47C202.31 19.24 202.46 18.91 202.36 18.68C202.26 18.45 201.79 18.38 201.69 18.16C201.59 17.94 201.22 17.83 201.12 17.6C201.02 17.37 201.33 16.96 201.23 16.73C201.13 16.5 201.03 16.27 200.93 16.04C200.83 15.81 200.94 15.48 200.84 15.26C200.74 15.04 200.01 15.09 199.9 14.86C199.79 14.63 200.13 14.2 200.02 13.98C199.91 13.76 200.02 13.42 199.92 13.2C199.82 12.98 199.44 12.87 199.33 12.65C199.22 12.43 198.76 12.37 198.65 12.14C198.54 11.91 198.98 11.42 198.87 11.2C198.76 10.98 197.98 11.08 197.87 10.85C197.76 10.62 197.66 10.4 197.55 10.18C197.44 9.96002 197.34 9.73002 197.22 9.51002C197.1 9.29002 197.17 8.97002 197.06 8.75002C196.95 8.53002 197.35 8.03002 197.23 7.81002C197.11 7.59002 196.63 7.56002 196.51 7.35002C196.39 7.14002 196.41 6.83002 196.29 6.61002C196.17 6.39002 196.26 6.05002 196.13 5.83002C196 5.61002 196.01 5.31002 195.89 5.10002C195.77 4.89002 194.97 5.07002 194.84 4.86002C194.71 4.65002 194.78 4.31002 194.64 4.10002C194.5 3.88002 194.82 3.34002 194.68 3.14002C194.53 2.93002 193.99 3.00002 193.84 2.81002C193.67 2.61002 193.19 2.72002 193.02 2.54002C192.84 2.35002 192.88 1.97002 192.7 1.81002C192.5 1.64002 192.56 1.12002 192.36 0.980021C192.14 0.830021 191.9 0.640021 191.69 0.530021C191.46 0.410021 191.03 0.690021 190.8 0.610021C190.56 0.530021 190.38 0.0500207 190.14 0.0100207C189.9 -0.0299793 189.57 0.320021 189.32 0.320021C189.07 0.320021 188.83 0.450021 188.58 0.490021C188.33 0.530021 188.2 0.950021 187.96 1.02002C187.72 1.09002 187.17 0.270021 186.93 0.370021C186.69 0.470021 186.46 0.650021 186.23 0.770021C186 0.890021 185.71 0.950021 185.49 1.08002C185.27 1.21002 185.34 1.79002 185.13 1.94002C184.92 2.09002 184.9 2.45002 184.7 2.62002C184.5 2.79002 184.26 2.86002 184.07 3.03002C183.88 3.20002 183.83 3.49002 183.65 3.67002C183.47 3.85002 183.2 3.92002 183.02 4.10002C182.84 4.28002 182.49 4.29002 182.32 4.48002C182.15 4.67002 182.13 4.99002 181.97 5.18002C181.81 5.37002 181.89 5.76002 181.73 5.96002C181.57 6.16002 180.92 5.96002 180.77 6.16002C180.62 6.36002 180.43 6.55002 180.28 6.75002C180.13 6.95002 180.38 7.46002 180.23 7.66002C180.08 7.86002 179.83 7.99002 179.68 8.20002C179.53 8.41002 179.26 8.53002 179.12 8.73002C178.98 8.93002 178.95 9.23002 178.81 9.44002C178.67 9.65002 178.44 9.79002 178.3 10C178.16 10.21 177.52 10.09 177.39 10.3C177.26 10.51 177.26 10.82 177.13 11.03C177 11.24 177.11 11.61 176.98 11.82C176.85 12.03 176.9 12.36 176.77 12.57C176.64 12.78 176.23 12.84 176.11 13.05C175.99 13.26 175.68 13.39 175.56 13.6C175.44 13.81 175.22 13.99 175.1 14.21C174.98 14.43 175.43 14.97 175.31 15.18C175.19 15.39 174.82 15.49 174.7 15.7C174.58 15.91 174.61 16.23 174.5 16.44C174.39 16.65 174.48 17 174.37 17.22C174.25 17.45 173.52 17.36 173.41 17.58C173.29 17.81 173.6 18.25 173.49 18.46C173.37 18.7 172.78 18.69 172.67 18.9C172.55 19.14 172.43 19.37 172.33 19.57C172.21 19.83 172.53 20.26 172.44 20.45C172.24 20.88 172.24 20.57 171.92 20.76C171.6 20.95 171.86 21.55 171.37 21.53C171.16 21.53 170.93 20.79 170.63 20.78C170.4 20.78 170.14 21.01 169.86 21.01C169.62 21.01 169.37 21.01 169.1 21.01C168.86 21.01 168.61 21.21 168.34 21.21C168.1 21.21 167.85 21.41 167.59 21.41C167.34 21.41 167.09 21.13 166.83 21.14C166.57 21.15 166.33 21.09 166.07 21.09C165.81 21.09 165.59 21.62 165.33 21.63C165.07 21.64 164.81 21.26 164.56 21.27C164.31 21.28 164.03 20.76 163.77 20.78C163.51 20.8 163.3 21.33 163.04 21.35C162.78 21.37 162.49 20.79 162.24 20.81C161.99 20.83 161.74 21 161.49 21.03C161.24 21.06 161 21.25 160.75 21.28C160.5 21.31 160.24 21.31 159.99 21.34C159.74 21.37 159.48 21.34 159.22 21.37C158.96 21.4 158.67 21.17 158.42 21.2C158.17 21.23 157.92 21.32 157.67 21.36C157.42 21.4 157.33 22.38 157.08 22.42C156.83 22.46 156.44 21.75 156.19 21.8C155.94 21.85 155.67 21.83 155.42 21.88C155.17 21.93 155.02 22.41 154.77 22.47C154.52 22.53 154.21 22.35 153.97 22.41C153.73 22.47 153.6 22.95 153.36 23.02C153.12 23.09 152.88 23.16 152.64 23.25C152.4 23.34 151.91 22.77 151.67 22.87C151.43 22.97 151.29 23.33 151.06 23.43C150.83 23.53 150.72 23.56 150.5 23.67C150.13 23.65 150.39 23.63 149.99 23.37C149.81 23.26 149.49 23.3 149.25 23.14C149.06 23.02 148.84 22.9 148.61 22.76C148.41 22.63 148.24 22.45 148.01 22.31C147.81 22.18 147.47 22.27 147.25 22.13C147.05 22 146.67 22.14 146.45 22.01C146.25 21.88 146.38 21.2 146.16 21.07C145.94 20.94 145.67 20.93 145.46 20.79C145.25 20.65 144.98 20.63 144.76 20.5C144.54 20.37 144.36 20.22 144.14 20.09C143.92 19.96 143.91 19.52 143.7 19.39C143.49 19.26 142.96 19.66 142.74 19.53C142.52 19.4 142.74 18.57 142.53 18.44C142.32 18.31 141.75 18.77 141.54 18.65C141.33 18.53 141.12 18.39 140.91 18.26C140.7 18.13 140.62 17.78 140.4 17.65C140.18 17.52 140.15 17.1 139.93 16.97C139.71 16.84 139.52 16.68 139.3 16.56C139.08 16.44 138.55 16.86 138.34 16.73C138.13 16.6 138.09 16.17 137.87 16.05C137.65 15.93 137.27 16.1 137.06 15.97C136.85 15.84 136.75 15.5 136.53 15.38C136.31 15.26 135.93 15.44 135.71 15.32C135.49 15.2 135.21 15.2 134.99 15.08C134.77 14.96 134.58 14.8 134.36 14.68C134.14 14.56 134.03 14.25 133.81 14.13C133.59 14.01 133.24 14.13 133.02 14.02C132.8 13.91 132.62 13.71 132.4 13.59C132.18 13.47 132.04 13.2 131.82 13.09C131.6 12.98 131.35 12.91 131.13 12.8C130.91 12.69 130.94 12.05 130.72 11.94C130.5 11.83 129.93 12.42 129.7 12.31C129.47 12.2 129.32 11.94 129.1 11.83C128.88 11.72 128.82 11.24 128.6 11.14C128.38 11.04 127.94 11.38 127.72 11.28C127.5 11.18 127.31 10.97 127.09 10.87C126.87 10.77 126.7 10.51 126.47 10.42C126.23 10.32 126.05 10.04 125.82 9.97002C125.57 9.89002 125.36 9.61002 125.13 9.55002C124.88 9.49002 124.51 9.90002 124.28 9.86002C124.02 9.82002 123.76 10.21 123.52 10.2C123.26 10.2 123.02 9.88002 122.79 9.92002C122.53 9.96002 122.24 9.85002 122.02 9.93002C121.78 10.01 121.5 10.09 121.29 10.22C121.08 10.35 121.15 10.83 120.97 11.01C120.79 11.19 120.29 11.07 120.14 11.28C120 11.48 120.27 11.93 120.15 12.16C120.04 12.38 119.23 12.31 119.14 12.55C119.06 12.78 119.9 13.31 119.83 13.56C119.77 13.79 119.24 13.92 119.19 14.17C119.14 14.41 118.87 14.63 118.84 14.88C118.81 15.13 118.57 15.37 118.55 15.62C118.53 15.87 119.01 16.15 119 16.41C118.99 16.67 118.94 16.9 118.94 17.16C118.94 17.42 118.6 17.67 118.6 17.92C118.6 18.17 119.23 18.39 119.24 18.64C119.25 18.89 118.77 19.17 118.79 19.42C118.81 19.67 119.37 19.87 119.4 20.12C119.43 20.37 119.26 20.63 119.29 20.88C119.32 21.13 119.79 21.31 119.82 21.56C119.85 21.81 118.94 22.2 118.98 22.44C119.02 22.68 119.13 22.93 119.17 23.17C119.21 23.41 119.54 23.61 119.59 23.86C119.64 24.11 119.49 24.39 119.54 24.64C119.59 24.89 119.83 25.09 119.89 25.33C119.95 25.57 119.89 25.85 119.94 26.09C119.99 26.33 120.68 26.42 120.74 26.67C120.8 26.92 120.39 27.27 120.46 27.51C120.53 27.75 120.85 27.92 120.92 28.16C120.99 28.4 121.37 28.55 121.44 28.79C121.51 29.03 120.65 29.54 120.72 29.78C120.79 30.02 121.67 30.03 121.74 30.26C121.81 30.49 121.1 30.98 121.17 31.22C121.24 31.46 121.88 31.53 121.96 31.76C122.04 31.99 122.39 32.15 122.46 32.38C122.53 32.61 122.33 32.95 122.41 33.18C122.49 33.41 122.74 33.6 122.82 33.83C122.9 34.07 122.77 34.38 122.85 34.61C122.93 34.85 123.31 34.98 123.39 35.21C123.48 35.45 122.93 35.92 123.01 36.15C123.1 36.39 123.61 36.47 123.7 36.69C123.79 36.93 123.92 37.15 124.01 37.37C124.11 37.61 123.61 38.09 123.7 38.31C123.8 38.55 124.57 38.49 124.67 38.71C124.78 38.95 124.94 39.14 125.04 39.36C125.15 39.6 125.37 39.77 125.47 39.97C125.59 40.22 125.67 40.44 125.77 40.64C125.91 40.9 125.73 41.26 125.83 41.44C126.09 41.88 125.76 41.77 125.75 42.14C125.74 42.51 125.79 42.27 125.54 42.69C125.43 42.87 125.69 43.3 125.54 43.55C125.43 43.75 124.8 43.69 124.67 43.93C124.56 44.14 124.91 44.59 124.79 44.83C124.69 45.04 124.42 45.19 124.31 45.42C124.21 45.64 124.46 46.02 124.35 46.25C124.25 46.47 124.13 46.68 124.03 46.91C123.94 47.13 123.21 47.1 123.11 47.34C123.02 47.56 123.03 47.84 122.94 48.08C122.85 48.32 123.28 48.73 123.19 48.97C123.1 49.21 122.74 49.33 122.66 49.57C122.58 49.81 122.59 50.06 122.51 50.3C122.43 50.54 122.59 50.84 122.51 51.08C122.43 51.32 121.85 51.4 121.78 51.64C121.71 51.88 121.31 52.03 121.24 52.27C121.17 52.51 121.35 52.82 121.28 53.06C121.21 53.3 121.26 53.57 121.2 53.81C121.14 54.05 121.2 54.32 121.14 54.56C121.08 54.8 120.91 55.02 120.86 55.26C120.81 55.5 120.7 55.74 120.65 55.98C120.6 56.22 121.28 56.6 121.24 56.85C121.2 57.1 120.49 57.22 120.45 57.47C120.41 57.72 120.64 58 120.6 58.25C120.56 58.5 120.69 58.76 120.66 59.01C120.63 59.26 120.02 59.43 119.99 59.68C119.96 59.93 120.67 60.26 120.64 60.51C120.61 60.76 120.11 60.95 120.08 61.2C120.05 61.45 120.4 61.73 120.38 61.98C120.36 62.23 119.93 62.44 119.91 62.69C119.89 62.94 119.48 63.16 119.47 63.41C119.46 63.66 119.9 63.93 119.89 64.18C119.88 64.43 120.17 64.69 120.16 64.94C120.15 65.19 120.36 65.44 120.35 65.69C120.34 65.94 119.67 66.17 119.67 66.43C119.67 66.69 120.16 66.93 120.16 67.18C120.16 67.43 120.24 67.67 120.25 67.92C120.26 68.17 119.94 68.42 119.95 68.67C119.96 68.92 119.68 69.18 119.69 69.43C119.7 69.68 119.58 69.94 119.59 70.19C119.6 70.44 119.59 70.69 119.61 70.94C119.63 71.19 119.85 71.43 119.87 71.68C119.89 71.93 120.56 72.12 120.59 72.37C120.62 72.62 119.62 72.97 119.65 73.21C119.68 73.45 119.94 73.69 119.97 73.93C120 74.17 119.9 74.45 119.94 74.7C119.98 74.95 120.66 75.09 120.7 75.33C120.74 75.57 120.24 75.93 120.29 76.17C120.34 76.41 120.78 76.58 120.84 76.82C120.9 77.06 120.69 77.37 120.75 77.61C120.81 77.85 120.74 78.14 120.81 78.37C120.88 78.6 121.28 78.76 121.35 78.99C121.42 79.22 121.98 79.3 122.06 79.53C122.14 79.76 121.8 80.15 121.89 80.38C121.98 80.61 121.95 80.9 122.04 81.12C122.13 81.34 122.3 81.55 122.4 81.78C122.5 82.01 123.01 82.03 123.12 82.25C123.23 82.47 123.04 82.84 123.16 83.06C123.28 83.28 123.69 83.33 123.81 83.54C123.93 83.75 123.59 84.26 123.72 84.46C123.85 84.66 123.92 84.93 124.06 85.13C124.2 85.33 124.94 85.11 125.09 85.31C125.24 85.51 124.91 86.06 125.06 86.25C125.21 86.44 125.06 86.9 125.22 87.09C125.38 87.28 125.88 87.19 126.04 87.38C126.2 87.57 126.38 87.75 126.54 87.93C126.7 88.11 127.19 87.99 127.36 88.17C127.53 88.35 127.53 88.7 127.7 88.87C127.87 89.04 128.3 88.96 128.48 89.13C128.66 89.3 128.75 89.56 128.93 89.73C129.11 89.9 129.13 90.25 129.31 90.42C129.49 90.59 129.74 90.69 129.92 90.85C130.1 91.01 130.34 91.13 130.52 91.29C130.7 91.45 130.89 91.62 131.08 91.78C131.27 91.94 131.28 92.32 131.46 92.48C131.64 92.64 131.88 92.76 132.07 92.92C132.26 93.08 132.43 93.26 132.62 93.42C132.81 93.58 133.29 93.42 133.47 93.58C133.65 93.74 133.43 94.37 133.61 94.54C133.79 94.71 134.32 94.52 134.5 94.69C134.68 94.86 134.87 95.04 135.04 95.22C135.21 95.4 135.2 95.76 135.37 95.94C135.54 96.12 135.24 96.68 135.39 96.88C135.54 97.08 136.35 96.77 136.49 96.97C136.63 97.17 136.7 97.44 136.83 97.65C136.96 97.86 136.68 98.3 136.79 98.52C136.9 98.74 137.37 98.79 137.46 99.02C137.55 99.25 137.4 99.57 137.48 99.81C137.56 100.05 137.53 100.29 137.6 100.54C137.67 100.79 138.19 100.92 138.24 101.17C138.29 101.42 137.49 101.76 137.52 102.01C137.55 102.26 138.02 102.46 138.04 102.72C138.06 102.98 137.84 103.23 137.86 103.49C137.88 103.75 138.38 103.96 138.39 104.22C138.4 104.48 137.97 104.74 137.98 104.99C137.99 105.24 137.95 105.49 137.96 105.74C137.97 105.99 137.94 106.24 137.94 106.49C137.94 106.74 138.78 107 138.78 107.25C138.78 107.5 138.36 107.75 138.35 108C138.34 108.25 137.84 108.48 137.83 108.74C137.82 109 137.89 109.24 137.88 109.49C137.87 109.74 138.32 110.02 138.3 110.27C138.28 110.52 138.49 110.79 138.47 111.05C138.45 111.31 138.41 111.56 138.39 111.81C138.37 112.06 138.31 112.31 138.28 112.56C138.25 112.81 137.35 112.95 137.32 113.21C137.29 113.47 137.29 113.71 137.25 113.96C137.21 114.21 137.35 114.48 137.31 114.73C137.27 114.98 137.26 115.23 137.22 115.48C137.18 115.73 137.04 115.95 136.99 116.2C136.94 116.45 137.19 116.75 137.14 116.99C137.09 117.23 136.84 117.44 136.79 117.69C136.74 117.94 136.52 118.14 136.47 118.39C136.42 118.64 136.71 118.96 136.65 119.2C136.59 119.44 136.68 119.73 136.61 119.97C136.54 120.21 136.36 120.43 136.3 120.67C136.24 120.91 135.94 121.09 135.87 121.33C135.8 121.57 136.44 122.02 136.36 122.26C136.28 122.5 136.03 122.69 135.95 122.93C135.87 123.17 136 123.48 135.93 123.72C135.86 123.96 135.46 124.1 135.38 124.33C135.3 124.56 134.65 124.6 134.57 124.84C134.49 125.08 135.19 125.61 135.1 125.84C135.01 126.07 134.18 126.02 134.09 126.26C134 126.5 134.18 126.84 134.08 127.07C133.98 127.3 133.8 127.5 133.7 127.73C133.6 127.96 134.07 128.45 133.97 128.68C133.87 128.91 133.79 129.16 133.68 129.39C133.57 129.62 132.85 129.55 132.74 129.78C132.63 130.01 133.14 130.55 133.02 130.77C132.9 130.99 132.27 130.95 132.15 131.17C132.03 131.39 131.76 131.53 131.64 131.75C131.52 131.97 131.88 132.47 131.75 132.69C131.62 132.91 130.91 132.77 130.78 132.99C130.65 133.21 130.73 133.55 130.59 133.76C130.45 133.97 130.24 134.13 130.1 134.34C129.96 134.55 130.24 135.04 130.1 135.25C129.96 135.46 129.22 135.25 129.07 135.45C128.92 135.65 128.84 135.89 128.7 136.09C128.56 136.29 128.95 136.9 128.8 137.09C128.65 137.28 128.01 137.09 127.85 137.29C127.69 137.49 127.78 137.87 127.63 138.06C127.48 138.25 127.25 138.39 127.09 138.57C126.93 138.75 127.16 139.28 127 139.47C126.84 139.66 126.66 139.84 126.5 140.02C126.34 140.2 125.77 140.03 125.61 140.22C125.45 140.41 125.74 141.01 125.57 141.19C125.4 141.37 124.56 140.92 124.39 141.09C124.22 141.26 124.02 141.41 123.85 141.59C123.68 141.77 124.15 142.58 123.98 142.75C123.81 142.92 123.28 142.75 123.11 142.92C122.94 143.09 122.86 143.37 122.68 143.54C122.5 143.71 122.47 144.04 122.29 144.2C122.11 144.36 122.01 144.63 121.83 144.8C121.65 144.97 121.31 144.97 121.13 145.13C120.95 145.29 120.53 145.21 120.35 145.37C120.17 145.53 120.09 145.82 119.9 145.98C119.71 146.14 119.47 146.24 119.28 146.4C119.09 146.56 119.16 147.04 118.97 147.19C118.78 147.34 118.11 146.91 117.92 147.06C117.73 147.21 117.77 147.68 117.58 147.82C117.38 147.98 116.92 147.77 116.73 147.92C116.53 148.07 116.81 148.87 116.62 149.01C116.41 149.16 115.98 148.98 115.78 149.12C115.57 149.27 115.53 149.64 115.34 149.78C115.13 149.93 114.6 149.6 114.41 149.73C114.19 149.88 114.18 150.3 113.99 150.42C113.75 150.58 113.55 150.72 113.38 150.83C112.98 151.09 112.44 150.83 112.43 151.2C112.42 151.57 112.41 151.69 112.52 152.04C112.63 152.39 113.43 152.16 113.53 152.51C113.63 152.86 113.28 152.97 113.38 153.32C113.48 153.67 113.04 153.8 113.14 154.16C113.24 154.52 113.6 154.41 113.71 154.76C113.82 155.11 114.26 154.99 114.36 155.34C114.46 155.69 113.84 155.88 113.94 156.23C114.04 156.58 113.94 156.62 114.04 156.97C114.14 157.32 114.29 157.28 114.4 157.64C114.51 158 114.31 158.05 114.41 158.4C114.51 158.75 114.41 158.79 114.5 159.14C114.59 159.49 115.34 159.28 115.45 159.63C115.56 159.98 115.37 160.04 115.47 160.39C115.57 160.74 115.8 160.68 115.9 161.04C116 161.4 116.18 161.34 116.28 161.7C116.38 162.06 115.62 162.28 115.72 162.63C115.82 162.98 115.69 163.02 115.8 163.38C115.91 163.74 116.22 163.64 116.33 164C116.44 164.36 116.73 164.27 116.83 164.63C116.93 164.99 116.46 165.12 116.56 165.48C116.66 165.84 116.89 165.77 116.99 166.13C117.09 166.49 117.35 166.41 117.46 166.77C117.57 167.13 117.61 167.11 117.71 167.47C117.81 167.83 117.97 167.78 118.07 168.14C118.17 168.5 117.57 168.67 117.68 169.03C117.79 169.39 117.53 169.46 117.63 169.82C117.73 170.18 118.43 169.98 118.53 170.33C118.63 170.68 118.87 170.62 118.97 170.97C119.07 171.32 118.52 171.49 118.62 171.84C118.72 172.19 119.1 172.09 119.2 172.44C119.3 172.79 118.63 172.99 118.73 173.35C118.83 173.71 118.97 173.67 119.07 174.02C119.17 174.37 119.33 174.33 119.43 174.69C119.53 175.05 120.04 174.9 120.14 175.26C120.24 175.62 119.46 175.85 119.56 176.2C119.66 176.55 119.96 176.47 120.06 176.83C120.16 177.19 119.88 177.4 120.1 177.7C120.32 178 120.58 177.39 121 177.21C121.19 177.13 121.29 176.74 121.55 176.63C121.76 176.54 122.22 177 122.46 176.89C122.67 176.8 122.86 176.61 123.09 176.5C123.3 176.4 123.42 176.08 123.65 175.97C123.88 175.86 124.36 176.31 124.58 176.2C124.8 176.09 124.66 175.29 124.88 175.18C125.1 175.07 125.18 174.73 125.39 174.61C125.6 174.49 125.83 174.43 126.04 174.31C126.25 174.19 126.57 174.26 126.78 174.13C126.99 174 127.16 173.83 127.36 173.7C127.56 173.57 127.78 173.45 127.97 173.31C128.17 173.16 128.44 173.12 128.62 172.97C128.81 172.81 129.33 172.98 129.49 172.81C129.67 172.63 129.96 172.47 130.1 172.29C130.26 172.08 130.02 171.59 130.11 171.38C130.21 171.16 130.45 171.02 130.59 170.79C130.72 170.58 130.43 170.05 130.6 169.84C130.76 169.64 131.53 169.97 131.71 169.77C131.89 169.57 131.39 168.75 131.57 168.57C131.75 168.39 131.94 168.18 132.13 168.01C132.32 167.84 132.73 167.89 132.92 167.72C133.11 167.55 133.48 167.58 133.68 167.42C133.88 167.26 134.13 167.15 134.33 167C134.53 166.85 134.97 167 135.18 166.84C135.4 166.68 135.09 165.82 135.29 165.68C135.51 165.52 135.93 165.66 136.13 165.53C136.37 165.36 136.39 164.91 136.57 164.79C136.97 164.52 137.14 164.33 137.49 164.47C137.84 164.61 138 164.88 138.08 165.36C138.12 165.58 137.89 165.91 137.91 166.21C137.93 166.45 138.09 166.74 138.08 167.02C138.08 167.27 137.44 167.5 137.42 167.77C137.39 168.02 137.2 168.23 137.15 168.5C137.1 168.75 137.89 169.2 137.81 169.47C137.74 169.72 137.63 170 137.54 170.25C137.45 170.49 136.95 170.59 136.83 170.84C136.72 171.07 136.5 171.44 136.37 171.68C136.68 171.9 136.78 171.83 137.15 171.92C137.52 172.01 137.69 171.36 138.05 171.45C138.41 171.54 138.19 172.41 138.56 172.51C138.93 172.61 139.01 172.27 139.38 172.36C139.75 172.45 139.78 172.32 140.15 172.41C140.52 172.5 140.39 172.98 140.76 173.08C141.13 173.18 141.21 172.84 141.58 172.94C141.95 173.04 141.89 173.23 142.26 173.33C142.63 173.43 142.65 173.33 143.02 173.43C143.39 173.53 143.4 173.49 143.76 173.58C144.12 173.67 144.2 173.41 144.56 173.5C144.92 173.59 144.87 173.83 145.23 173.92C145.59 174.01 145.75 173.44 146.11 173.53C146.47 173.62 146.36 174.06 146.73 174.16C147.1 174.26 146.97 174.74 147.34 174.83C147.71 174.92 147.78 174.65 148.15 174.74C148.52 174.83 148.88 174.19 149.19 174.42C149.5 174.65 148.51 174.86 148.3 175.29C148.2 175.48 147.84 175.67 147.75 175.94C147.68 176.16 147.84 176.52 147.79 176.79C147.75 177.02 148.29 177.35 148.27 177.62C148.25 177.86 147.76 178.1 147.77 178.37C147.78 178.61 147.77 178.89 147.82 179.15C147.86 179.39 148.48 179.51 148.55 179.77C148.61 180 148.18 180.4 148.27 180.65C148.35 180.88 148.3 181.2 148.41 181.44C148.51 181.66 148.6 181.93 148.73 182.16C148.85 182.38 149.49 182.3 149.63 182.52C149.76 182.73 149.58 183.16 149.73 183.37C149.87 183.57 150.32 183.55 150.48 183.76C150.63 183.95 150.85 184.1 151.02 184.3C151.18 184.49 151.46 184.56 151.64 184.76C151.82 184.96 151.87 185.22 152.03 185.39C152.19 185.56 151.93 186.19 152.1 186.36C152.27 186.53 152.96 186.19 153.14 186.36C153.32 186.53 153.53 186.66 153.71 186.82C153.89 186.98 153.71 187.58 153.89 187.73C154.07 187.88 154.66 187.57 154.85 187.72C155.04 187.87 155.18 188.08 155.38 188.22C155.58 188.36 155.35 189.14 155.55 189.27C155.75 189.4 156.18 189.21 156.39 189.33C156.6 189.45 157.02 189.19 157.23 189.3C157.44 189.41 157.59 189.65 157.81 189.74C158.03 189.83 158.17 190.15 158.4 190.23C158.63 190.31 158.97 190 159.2 190.06C159.43 190.12 159.64 190.19 159.88 190.23C160.12 190.27 160.3 190.71 160.54 190.73C160.78 190.75 161.03 190.98 161.27 190.98C161.51 190.98 161.8 191.26 162.05 191.24C162.3 191.22 162.57 191.15 162.81 191.11C163.05 191.07 163.15 190.26 163.39 190.2C163.63 190.14 164.06 190.83 164.3 190.76C164.54 190.69 164.65 190.2 164.88 190.12C165.11 190.04 165.48 190.29 165.71 190.2C165.94 190.11 166.08 189.79 166.3 189.69C166.52 189.59 166.88 189.74 167.1 189.63C167.32 189.52 167.31 188.97 167.53 188.85C167.75 188.73 167.88 188.42 168.1 188.3C168.32 188.18 168.77 188.47 168.99 188.34C169.21 188.21 169.54 188.28 169.76 188.15C169.98 188.02 169.76 187.1 169.98 186.98C170.2 186.86 170.62 187.08 170.84 186.95C171.06 186.82 171.18 186.52 171.4 186.4C171.62 186.28 171.73 185.94 171.94 185.82C172.15 185.7 172.83 186.34 173.04 186.22C173.25 186.1 173.04 185.2 173.26 185.08C173.48 184.96 173.85 185.08 174.07 184.96C174.3 184.83 174.5 184.67 174.71 184.55C174.94 184.42 175.5 184.88 175.71 184.76C175.94 184.63 176.17 184.52 176.38 184.4C176.61 184.26 176.68 183.88 176.88 183.76C177.12 183.62 177.3 183.44 177.5 183.33C177.75 183.18 177.78 182.74 177.96 182.63C178.38 182.38 178.51 182.16 178.77 182.44C179.03 182.72 178.99 182.99 178.69 183.38C178.56 183.55 177.85 183.31 177.67 183.54C177.53 183.72 177.67 184.15 177.5 184.37C177.35 184.56 176.74 184.39 176.57 184.6C176.42 184.79 176.26 184.98 176.09 185.19C175.94 185.38 176.29 185.98 176.12 186.18C175.97 186.37 175.57 186.37 175.4 186.58C175.25 186.77 175.27 187.11 175.11 187.32C174.95 187.53 174.77 187.69 174.61 187.89C174.45 188.09 173.86 187.93 173.7 188.13C173.54 188.33 173.59 188.68 173.43 188.88C173.27 189.08 173.55 189.62 173.39 189.82C173.23 190.02 172.61 189.83 172.45 190.03C172.29 190.23 172.41 190.65 172.25 190.84C172.09 191.03 171.88 191.19 171.72 191.38C171.56 191.57 171.72 192.03 171.55 192.22C171.38 192.41 170.56 192.06 170.4 192.25C170.24 192.44 170.79 193.22 170.62 193.41C170.45 193.6 170.18 193.69 170.01 193.89C169.84 194.09 169.76 194.34 169.6 194.53C169.44 194.72 169.15 194.81 168.99 195C168.83 195.19 168.51 195.25 168.35 195.45C168.19 195.65 168.04 195.84 167.87 196.04C167.7 196.24 167.57 196.45 167.41 196.64C167.25 196.83 166.95 196.91 166.79 197.1C166.63 197.29 166.69 197.68 166.53 197.87C166.37 198.06 165.79 197.9 165.62 198.09C165.45 198.28 165.69 198.82 165.52 199.01C165.35 199.2 164.71 198.98 164.55 199.16C164.39 199.34 164.3 199.61 164.13 199.8C163.96 199.99 163.79 200.17 163.62 200.36C163.45 200.55 163.51 200.94 163.34 201.13C163.17 201.32 163.15 201.65 162.99 201.83C162.83 202.01 162.78 202.33 162.61 202.51C162.44 202.69 161.9 202.55 161.73 202.73C161.56 202.91 161.54 203.24 161.36 203.43C161.18 203.62 160.81 203.61 160.64 203.79C160.47 203.97 160.19 204.06 160.02 204.24C159.85 204.42 159.91 204.84 159.73 205.02C159.55 205.2 159.34 205.36 159.17 205.53C159 205.7 158.96 206.05 158.78 206.22C158.6 206.39 158.59 206.77 158.4 206.94C158.21 207.12 157.62 206.85 157.44 207.02C157.25 207.19 156.95 207.23 156.76 207.39C156.56 207.56 156.24 207.55 156.06 207.7C155.85 207.86 156.15 208.69 155.96 208.82C155.74 208.98 155.29 208.77 155.09 208.89C154.88 209.02 154.91 209.56 154.69 209.69C154.47 209.82 153.83 209.21 153.61 209.33C153.39 209.45 153.64 210.37 153.41 210.5C153.18 210.63 152.62 210.11 152.4 210.24C152.18 210.37 151.92 210.39 151.69 210.51C151.46 210.63 151.41 211.04 151.18 211.16C150.95 211.28 150.51 210.94 150.28 211.06C150.05 211.18 150.28 212.18 150.05 212.29C149.82 212.4 149.17 211.61 148.94 211.72C148.71 211.83 148.49 211.92 148.26 212.02C148.03 212.12 148.09 212.87 147.86 212.97C147.63 213.07 147.37 213.11 147.14 213.2C146.91 213.29 146.58 213.16 146.35 213.25C146.12 213.34 145.76 213.1 145.52 213.19C145.28 213.28 145.16 213.63 144.92 213.72C144.68 213.81 144.34 213.58 144.1 213.66C143.86 213.74 143.94 214.74 143.7 214.82C143.46 214.9 143.11 214.62 142.86 214.7C142.61 214.78 142.33 214.7 142.09 214.77C141.85 214.84 141.71 215.24 141.46 215.31C141.21 215.38 140.79 214.76 140.55 214.83C140.31 214.9 140.16 215.31 139.92 215.37C139.68 215.43 139.35 215.15 139.11 215.21C138.87 215.27 138.81 216.13 138.57 216.19C138.33 216.25 137.91 215.52 137.66 215.57C137.41 215.62 137.3 216.3 137.05 216.35C136.8 216.4 136.54 216.35 136.29 216.39C136.04 216.43 135.75 216.22 135.5 216.26C135.25 216.3 135.04 216.53 134.79 216.57C134.54 216.61 134.28 216.52 134.02 216.56C133.76 216.6 133.57 217 133.32 217.03C133.07 217.06 132.76 216.58 132.51 216.61C132.26 216.64 132.05 217.02 131.8 217.05C131.55 217.08 132.47 215.81 132.22 215.83C131.97 215.85 131.7 215.7 131.45 215.72C131.2 215.74 130.9 215.08 130.65 215.1C130.4 215.12 130.16 215.25 129.91 215.26C129.66 215.27 129.42 215.55 129.17 215.57C128.92 215.59 128.66 215.47 128.41 215.48C128.16 215.49 127.91 215.32 127.65 215.33C127.39 215.34 127.15 215.13 126.9 215.14C126.65 215.15 126.41 215.67 126.15 215.68C125.89 215.69 125.65 215.56 125.39 215.56C125.13 215.56 124.89 215.7 124.63 215.7C124.37 215.7 124.12 215.99 123.86 215.98C123.6 215.97 123.36 215.74 123.11 215.73C122.86 215.72 122.59 216 122.34 215.99C122.09 215.98 121.88 215.08 121.63 215.07C121.38 215.06 121.09 215.58 120.84 215.56C120.59 215.54 120.36 215.23 120.11 215.21C119.86 215.19 119.63 214.98 119.37 214.96C119.11 214.94 118.82 215.43 118.57 215.41C118.32 215.39 118.09 215.18 117.83 215.15C117.57 215.12 117.38 214.69 117.13 214.66C116.88 214.63 116.5 215.58 116.25 215.55C116 215.52 115.79 215.14 115.54 215.1C115.29 215.06 115.05 214.91 114.81 214.87C114.57 214.83 114.37 214.43 114.12 214.39C113.87 214.35 113.52 214.94 113.27 214.9C113.02 214.86 112.9 214.08 112.65 214.04C112.4 214 112.16 213.93 111.91 213.88C111.66 213.83 111.29 214.41 111.05 214.36C110.81 214.31 110.51 214.46 110.26 214.41C110.01 214.36 109.74 214.39 109.5 214.34C109.26 214.29 109.04 214.06 108.79 214C108.54 213.94 108.37 213.54 108.13 213.48C107.89 213.42 107.72 213 107.48 212.95C107.24 212.9 106.88 213.3 106.63 213.24C106.38 213.18 106.24 212.72 105.99 212.66C105.74 212.6 105.32 213.23 105.08 213.17C104.84 213.11 104.79 212.27 104.55 212.21C104.31 212.15 104.07 212.04 103.83 211.97C103.59 211.9 103.34 211.86 103.1 211.8C102.86 211.74 102.6 211.72 102.36 211.65C102.12 211.58 101.7 212.1 101.46 212.03C101.22 211.96 101 211.79 100.76 211.72C100.52 211.65 100.45 211 100.21 210.92C99.97 210.84 99.43 211.69 99.2 211.62C98.97 211.55 98.81 211.16 98.57 211.08C98.33 211 98.24 210.45 98.01 210.37C97.78 210.29 97.59 210.03 97.35 209.95C97.11 209.87 96.62 210.5 96.39 210.41C96.16 210.32 96.11 209.67 95.88 209.59C95.65 209.51 95.32 209.63 95.09 209.55C94.85 209.46 94.41 209.92 94.18 209.83C93.94 209.74 93.77 209.45 93.54 209.36C93.29 209.27 93.26 208.65 93.03 208.56C92.78 208.46 92.57 208.32 92.35 208.24C92.1 208.14 91.63 208.65 91.41 208.56C91.16 208.46 90.82 208.6 90.61 208.51C90.34 208.4 90.36 207.71 90.16 207.63C89.71 207.44 89.96 207.74 89.61 207.9C89.26 208.06 89.13 207.71 88.85 207.95C88.57 208.19 88.74 208.39 88.45 208.63C88.16 208.87 87.71 208.32 87.42 208.56C87.13 208.8 87.22 208.89 86.93 209.13C86.64 209.37 87.08 209.88 86.79 210.12C86.5 210.36 86.3 210.12 86.02 210.36C85.74 210.6 84.66 212.3 84.38 212.54C84.1 212.78 83.71 212.32 83.43 212.56C83.15 212.8 83.29 212.97 83.01 213.21C82.73 213.45 82.73 213.45 82.44 213.69C82.15 213.93 82.07 213.83 81.79 214.07C81.51 214.31 81.49 214.28 81.2 214.52C80.91 214.76 81.18 215.07 80.9 215.31C80.62 215.55 80.44 215.34 80.16 215.58C79.88 215.82 80.02 215.99 79.74 216.23C79.46 216.47 79.75 216.82 79.47 217.06C79.19 217.3 78.83 216.88 78.55 217.12C78.27 217.36 78.62 217.79 78.34 218.02C78.06 218.25 78.07 218.28 77.79 218.52C77.51 218.76 77.01 218.17 76.73 218.41C76.45 218.65 76.78 219.04 76.49 219.28C76.2 219.52 76.39 219.74 76.1 219.98C75.81 220.22 75.72 220.11 75.43 220.35C75.14 220.59 75.11 220.8 74.76 220.91C74.41 221.02 74.99 220.1 74.78 219.66C74.69 219.47 74.13 219.45 74 219.2C73.89 218.99 73.81 218.75 73.68 218.51C73.56 218.3 73.49 218.05 73.36 217.82C73.24 217.61 73.12 217.38 72.98 217.16C72.85 216.95 73.04 216.52 72.9 216.3C72.76 216.08 72.43 216 72.29 215.79C72.15 215.58 71.57 215.68 71.42 215.48C71.27 215.28 71.04 215.15 70.88 214.95C70.72 214.75 70.95 214.25 70.79 214.05C70.63 213.85 70.72 213.43 70.55 213.24C70.38 213.05 69.59 213.44 69.42 213.25C69.25 213.06 69.61 212.34 69.42 212.16C69.23 211.98 68.83 212.04 68.63 211.88C68.43 211.72 68.38 211.37 68.18 211.21C67.98 211.05 67.43 211.37 67.22 211.23C67.01 211.09 67.05 210.56 66.83 210.43C66.61 210.3 66.38 210.17 66.15 210.05C65.92 209.93 65.72 209.71 65.48 209.62C65.24 209.53 65.01 209.31 64.77 209.23C64.53 209.15 64.15 209.5 63.91 209.45C63.67 209.4 63.4 209.37 63.15 209.34C62.9 209.31 62.64 209.46 62.38 209.46C62.12 209.46 61.91 209.77 61.66 209.8C61.41 209.83 61.11 209.39 60.86 209.44C60.61 209.49 60.5 210.06 60.26 210.13C60.02 210.2 59.66 209.86 59.42 209.95C59.18 210.04 59.08 210.4 58.85 210.51C58.62 210.62 58.41 210.71 58.19 210.84C57.97 210.97 57.44 210.63 57.23 210.78C57.02 210.93 56.95 211.26 56.75 211.43C56.55 211.6 56.23 211.64 56.06 211.82C55.89 212 56.01 212.46 55.84 212.66C55.67 212.86 55.16 212.78 55.01 212.99C54.86 213.2 54.69 213.42 54.56 213.63C54.43 213.84 54.63 214.26 54.51 214.49C54.39 214.72 54.75 215.15 54.65 215.38C54.55 215.61 53.93 215.61 53.84 215.85C53.75 216.09 53.5 216.27 53.42 216.52C53.34 216.77 53.56 217.09 53.5 217.33C53.44 217.57 53.07 217.75 53.02 218C52.97 218.25 53.46 218.59 53.42 218.84C53.38 219.09 53.36 219.32 53.33 219.58C53.3 219.84 52.92 220.05 52.9 220.3C52.88 220.55 53.08 220.81 53.08 221.07C53.08 221.33 52.73 221.57 52.73 221.83C52.73 222.09 53.01 222.33 53.02 222.58C53.03 222.83 53.44 223.05 53.46 223.3C53.48 223.55 52.67 223.89 52.7 224.15C52.73 224.41 53.62 224.53 53.66 224.78C53.7 225.03 52.98 225.4 53.03 225.66C53.08 225.92 53.2 226.15 53.25 226.4C53.3 226.65 53.84 226.78 53.9 227.03C53.96 227.28 53.68 227.61 53.74 227.85C53.8 228.09 53.49 228.45 53.56 228.7C53.63 228.95 54.12 229.06 54.2 229.31C54.28 229.56 54.01 229.9 54.08 230.14C54.15 230.38 54.31 230.59 54.38 230.83C54.45 231.07 55.14 231.12 55.22 231.36C55.3 231.6 55.1 231.92 55.17 232.16C55.24 232.4 54.97 232.75 55.04 232.99C55.11 233.23 55.87 233.26 55.95 233.5C56.03 233.74 55.47 234.17 55.55 234.41C55.63 234.65 55.59 234.92 55.67 235.16C55.75 235.4 56.4 235.46 56.48 235.7C56.56 235.94 56.09 236.35 56.17 236.58C56.25 236.81 56.28 237.07 56.36 237.31C56.44 237.55 56.79 237.7 56.87 237.94C56.95 238.18 57.47 238.27 57.54 238.51C57.61 238.75 57.45 239.07 57.52 239.3C57.59 239.53 57.61 239.8 57.69 240.03C57.77 240.26 57.41 240.66 57.49 240.89C57.57 241.12 57.94 241.27 58.03 241.5C58.12 241.73 58.8 241.75 58.89 241.98C58.98 242.21 59.04 242.45 59.13 242.68C59.22 242.91 58.94 243.29 59.03 243.52C59.12 243.75 58.92 244.11 59.02 244.34C59.12 244.57 59.64 244.62 59.74 244.85C59.84 245.08 59.82 245.36 59.92 245.59C60.02 245.82 60 246.11 60.11 246.33C60.22 246.55 59.91 247 60.02 247.22C60.13 247.44 61.16 247.18 61.28 247.39C61.4 247.6 61.45 247.86 61.57 248.07C61.69 248.28 61.22 248.88 61.36 249.08C61.5 249.28 61.52 249.59 61.66 249.8C61.8 250.01 62.74 249.63 62.89 249.82C63.04 250.01 62.97 250.37 63.13 250.56C63.29 250.75 63.53 250.85 63.7 251.03C63.87 251.21 63.8 251.62 63.98 251.8C64.16 251.98 64.27 252.23 64.46 252.39C64.65 252.55 64.96 252.57 65.16 252.72C65.36 252.87 65.73 252.75 65.94 252.88C66.15 253.01 66.22 253.34 66.44 253.46C66.66 253.58 66.74 253.96 66.97 254.06C67.2 254.16 67.53 254.01 67.77 254.11C68.01 254.21 68.2 254.37 68.44 254.45C68.68 254.53 68.95 254.45 69.19 254.52C69.43 254.59 69.63 254.77 69.88 254.83C70.13 254.89 70.4 254.7 70.65 254.74C70.9 254.78 71.15 254.65 71.4 254.68C71.65 254.71 71.88 254.66 72.14 254.68C72.4 254.7 72.62 254.84 72.87 254.85C73.12 254.86 73.36 254.79 73.61 254.79C73.86 254.79 74.13 255.48 74.38 255.47C74.63 255.46 74.84 254.73 75.1 254.71C75.36 254.69 75.63 255.08 75.88 255.06C76.13 255.04 76.36 254.88 76.62 254.85C76.88 254.82 77.11 254.78 77.36 254.74C77.61 254.7 77.86 254.71 78.11 254.68C78.36 254.65 78.68 255.06 78.93 255.02C79.18 254.98 79.44 255.02 79.69 254.97C79.94 254.92 80.11 254.46 80.36 254.42C80.61 254.38 80.88 254.44 81.13 254.39C81.38 254.34 81.54 253.89 81.79 253.84C82.04 253.79 82.38 254.18 82.63 254.12C82.88 254.06 83.18 254.23 83.42 254.18C83.66 254.13 83.73 253.31 83.98 253.25C84.23 253.19 84.64 253.8 84.88 253.74C85.12 253.68 85.24 253.11 85.49 253.05C85.74 252.99 85.96 252.85 86.2 252.78C86.44 252.71 86.87 253.3 87.11 253.23C87.35 253.16 87.63 253.19 87.87 253.12C88.11 253.05 88.29 252.72 88.53 252.65C88.77 252.58 89.04 252.58 89.28 252.5C89.52 252.42 89.63 251.9 89.87 251.82C90.11 251.74 90.43 251.9 90.67 251.82C90.91 251.74 90.98 251.14 91.22 251.06C91.46 250.98 91.73 251.01 91.97 250.93C92.21 250.85 92.69 251.48 92.93 251.4C93.17 251.32 93.46 251.38 93.7 251.3C93.94 251.22 93.87 250.21 94.1 250.13C94.33 250.05 94.64 250.14 94.88 250.06C95.12 249.98 95.56 250.46 95.8 250.38C96.04 250.3 96.07 249.62 96.3 249.53C96.53 249.44 96.91 249.71 97.14 249.63C97.38 249.54 97.62 249.44 97.85 249.35C98.09 249.26 98.49 249.6 98.72 249.51C98.97 249.42 98.92 248.59 99.15 248.5C99.4 248.41 99.69 248.46 99.91 248.37C100.16 248.27 100.59 248.68 100.81 248.59C101.06 248.49 101.29 248.35 101.5 248.27C101.77 248.16 101.84 247.66 102.03 247.58C102.48 247.39 102.22 247.55 102.56 247.73C102.9 247.91 103.11 247.54 103.24 248.01C103.29 248.21 102.73 248.63 102.81 248.91C102.87 249.13 103.27 249.28 103.35 249.53C103.42 249.75 103.35 250.04 103.43 250.29C103.5 250.52 103.55 250.77 103.63 251.02C103.71 251.25 103.88 251.45 103.97 251.7C104.05 251.93 104.03 252.21 104.12 252.45C104.21 252.69 104.03 253.03 104.12 253.26C104.21 253.49 104.68 253.57 104.78 253.8C104.88 254.03 105.32 254.1 105.43 254.33C105.54 254.56 105.18 254.99 105.28 255.22C105.38 255.45 106.15 255.35 106.27 255.57C106.39 255.79 106.5 256 106.61 256.23C106.72 256.46 106.53 256.83 106.65 257.05C106.77 257.27 107.22 257.29 107.35 257.51C107.48 257.73 107.37 258.07 107.5 258.28C107.63 258.49 107.99 258.55 108.13 258.76C108.27 258.97 107.65 259.69 107.79 259.89C107.93 260.09 108.01 260.37 108.16 260.57C108.31 260.77 108.59 260.89 108.75 261.08C108.91 261.27 109.46 261.15 109.63 261.34C109.8 261.53 109.57 262.07 109.74 262.25C109.91 262.43 110.12 262.6 110.3 262.77C110.48 262.94 110.64 263.16 110.83 263.33C111.02 263.5 111.43 263.42 111.62 263.58C111.81 263.74 111.7 264.29 111.9 264.45C112.1 264.61 112.65 264.3 112.85 264.44C113.05 264.58 113.51 264.32 113.72 264.44C113.93 264.56 113.68 265.52 113.9 265.64C114.1 265.75 114.7 265.01 114.95 265.1C115.17 265.18 115.29 265.53 115.55 265.6C115.78 265.66 115.95 265.99 116.21 266.04C116.44 266.09 116.66 266.32 116.92 266.36C117.16 266.4 117.42 266.36 117.68 266.39C117.92 266.42 118.22 265.99 118.47 266.02C118.71 266.04 118.97 265.79 119.23 265.81C119.49 265.83 119.7 266.1 119.95 266.12C120.2 266.14 120.43 266.31 120.69 266.32C120.95 266.33 121.18 266.47 121.43 266.48C121.68 266.49 121.93 266.3 122.18 266.31C122.43 266.32 122.67 266.9 122.92 266.9C123.17 266.9 123.42 266.74 123.67 266.74C123.92 266.74 124.16 266.23 124.41 266.23C124.66 266.23 124.9 266 125.15 266C125.4 266 125.67 266.77 125.92 266.76C126.17 266.75 126.41 266.43 126.66 266.43C126.91 266.43 127.14 265.99 127.39 265.98C127.64 265.97 127.91 266.61 128.16 266.59C128.41 266.57 128.67 266.79 128.92 266.78C129.17 266.77 129.38 266.06 129.63 266.05C129.88 266.04 130.13 266.18 130.38 266.17C130.63 266.16 130.89 266.32 131.14 266.31C131.39 266.3 131.66 266.57 131.91 266.55C132.16 266.53 132.4 266.38 132.65 266.36C132.9 266.34 133.09 265.55 133.34 265.53C133.59 265.51 133.9 266.33 134.15 266.31C134.4 266.29 134.61 265.87 134.86 265.85C135.11 265.83 135.35 265.79 135.6 265.77C135.85 265.75 136.1 265.8 136.35 265.77C136.6 265.74 136.84 265.68 137.09 265.66C137.34 265.64 137.56 265.31 137.81 265.29C138.06 265.27 138.39 266.06 138.64 266.03C138.89 266 139.08 265.38 139.33 265.35C139.58 265.32 139.89 265.93 140.14 265.9C140.39 265.87 140.61 265.55 140.85 265.52C141.09 265.49 141.36 265.61 141.61 265.58C141.86 265.55 142.02 264.73 142.26 264.71C142.5 264.69 142.85 265.54 143.1 265.51C143.35 265.48 143.54 265 143.79 264.97C144.04 264.94 144.31 265.16 144.56 265.13C144.81 265.1 145.06 265.08 145.3 265.05C145.54 265.02 145.74 264.5 145.98 264.47C146.22 264.44 146.46 264.28 146.71 264.25C146.96 264.22 147.32 265.09 147.57 265.06C147.82 265.03 147.95 264.06 148.19 264.03C148.43 264 148.77 264.6 149.02 264.57C149.27 264.54 149.54 264.71 149.79 264.67C150.04 264.63 150.28 264.53 150.52 264.5C150.76 264.47 150.99 264.24 151.24 264.21C151.49 264.18 151.77 264.38 152.02 264.35C152.27 264.32 152.42 263.61 152.67 263.57C152.92 263.53 153.21 263.84 153.46 263.8C153.71 263.76 153.97 263.84 154.22 263.8C154.47 263.76 154.75 263.97 155 263.93C155.25 263.89 155.42 263.33 155.67 263.3C155.92 263.27 156.16 263.22 156.41 263.18C156.66 263.14 156.97 263.57 157.22 263.54C157.47 263.51 157.65 263.04 157.9 263C158.15 262.96 158.44 263.24 158.69 263.2C158.94 263.16 159.13 262.78 159.38 262.75C159.63 262.72 159.84 262.44 160.08 262.4C160.32 262.36 160.63 262.66 160.87 262.62C161.11 262.58 161.39 262.73 161.64 262.69C161.89 262.65 162.16 262.8 162.41 262.76C162.66 262.72 162.83 262.2 163.08 262.16C163.33 262.12 163.52 261.76 163.77 261.72C164.02 261.68 164.28 261.74 164.53 261.7C164.78 261.66 165.1 262.09 165.35 262.04C165.6 261.99 165.9 262.3 166.15 262.26C166.4 262.22 166.5 261.31 166.75 261.27C167 261.23 167.31 261.57 167.56 261.53C167.81 261.49 168.14 261.97 168.39 261.93C168.64 261.89 168.83 261.5 169.08 261.46C169.33 261.42 169.57 261.32 169.81 261.28C170.05 261.24 170.38 261.63 170.63 261.59C170.88 261.55 171.02 260.9 171.27 260.85C171.52 260.8 171.72 260.51 171.97 260.47C172.22 260.43 172.52 260.68 172.76 260.63C173 260.58 173.23 260.4 173.48 260.36C173.73 260.32 174.05 260.67 174.29 260.63C174.53 260.59 174.72 260.14 174.96 260.1C175.2 260.06 175.44 259.91 175.68 259.86C175.92 259.81 176.3 260.46 176.54 260.41C176.78 260.36 177.05 260.38 177.29 260.33C177.53 260.28 177.67 259.58 177.92 259.54C178.17 259.5 178.48 259.79 178.72 259.75C178.96 259.71 179.19 259.52 179.44 259.48C179.69 259.44 179.99 259.68 180.23 259.63C180.47 259.58 180.77 259.79 181.01 259.74C181.25 259.69 181.42 259.14 181.66 259.1C181.9 259.06 182.12 258.83 182.37 258.78C182.62 258.73 182.93 259.04 183.17 258.99C183.41 258.94 183.64 258.78 183.89 258.74C184.14 258.7 184.33 258.37 184.58 258.32C184.83 258.27 185.09 258.34 185.34 258.29C185.59 258.24 185.8 258 186.04 257.95C186.28 257.9 186.68 258.66 186.92 258.62C187.16 258.58 187.4 258.45 187.64 258.4C187.88 258.35 188.15 258.39 188.39 258.34C188.63 258.29 188.73 257.41 188.97 257.36C189.21 257.31 189.47 257.29 189.71 257.25C189.95 257.21 190.33 257.83 190.57 257.78C190.81 257.73 190.99 257.28 191.23 257.24C191.47 257.2 191.81 257.6 192.06 257.55C192.31 257.5 192.49 257.11 192.74 257.07C192.99 257.03 193.17 256.64 193.41 256.59C193.65 256.54 194.03 257.14 194.27 257.09C194.51 257.04 194.64 256.37 194.89 256.32C195.14 256.27 195.5 256.82 195.75 256.77C196 256.72 196.13 256.13 196.38 256.08C196.63 256.03 196.85 255.88 197.1 255.83C197.35 255.78 197.71 256.33 197.96 256.28C198.21 256.23 198.44 256.13 198.69 256.08C198.94 256.03 199.08 255.51 199.33 255.45C199.58 255.39 199.86 255.53 200.1 255.48C200.34 255.43 200.58 255.31 200.82 255.26C201.06 255.21 201.3 255.12 201.54 255.06C201.78 255 202.01 254.86 202.25 254.8C202.49 254.74 202.89 255.37 203.13 255.31C203.37 255.25 203.45 254.42 203.69 254.37C203.93 254.32 204.18 254.25 204.42 254.2C204.66 254.15 205.09 254.86 205.34 254.81C205.59 254.76 205.82 254.65 206.06 254.59C206.3 254.53 206.52 254.36 206.76 254.3C207 254.24 207.08 253.51 207.32 253.45C207.56 253.39 207.91 253.75 208.15 253.68C208.39 253.61 208.62 253.49 208.86 253.43C209.1 253.37 209.41 253.53 209.65 253.47C209.89 253.41 210.1 253.21 210.34 253.14C210.58 253.07 210.75 252.76 210.99 252.69C211.23 252.62 211.49 252.63 211.73 252.56C211.97 252.49 212.16 252.27 212.4 252.2C212.64 252.13 212.94 252.25 213.18 252.18C213.42 252.11 213.73 252.27 213.97 252.2C214.21 252.13 214.42 251.98 214.66 251.9C214.9 251.82 215.02 251.38 215.25 251.3C215.48 251.22 215.79 251.34 216.02 251.26C216.25 251.18 216.66 251.62 216.9 251.54C217.14 251.46 217.21 250.9 217.45 250.83C217.69 250.76 217.85 250.47 218.09 250.39C218.33 250.31 218.67 250.56 218.91 250.47C219.15 250.38 219.37 250.28 219.61 250.19C219.85 250.1 220.1 250.08 220.34 249.99C220.58 249.9 220.87 249.96 221.1 249.87C221.33 249.78 221.34 249.12 221.57 249.02C221.8 248.92 222.12 249.05 222.35 248.95C222.58 248.85 223.09 249.39 223.31 249.29C223.53 249.19 223.56 248.61 223.79 248.51C224.02 248.41 224.05 247.88 224.28 247.78C224.51 247.68 224.98 248.09 225.2 247.98C225.42 247.87 225.56 247.56 225.78 247.45C226 247.34 226.52 247.79 226.74 247.68C226.96 247.57 227.06 247.18 227.27 247.07C227.48 246.96 227.54 246.5 227.75 246.38C227.96 246.26 228.22 246.2 228.44 246.07C228.66 245.94 229.09 246.19 229.3 246.07C229.51 245.95 229.59 245.57 229.8 245.44C230.02 245.31 230.06 244.91 230.27 244.78C230.49 244.64 230.56 244.3 230.76 244.17C230.98 244.03 231.26 244.01 231.46 243.88C231.68 243.73 232.03 243.82 232.23 243.68C232.44 243.53 232.53 243.23 232.72 243.09C232.93 242.93 233.2 242.88 233.38 242.74C233.6 242.57 233.78 242.42 233.96 242.28C234.19 242.1 234.58 242.18 234.73 242.05C235.1 241.73 234.84 241.54 235.18 241.4L235.31 241.41Z" fill="black"/>
<path d="M28.6499 188.66C28.6499 188.66 25.1599 185.85 22.3499 177.63C19.5399 169.43 0.179928 113.51 0.179928 113.51C0.179928 113.51 -1.83007 106.07 7.38993 107.58C16.6099 109.09 98.1799 122.5 101.27 123.19C104.36 123.88 106.29 126.49 109.18 136.19C112.07 145.89 120.6 175.05 120.6 175.05L130.09 169.82C130.09 169.82 200.17 185.85 201.76 186.26C203.35 186.67 204.79 191.9 197.01 195.2C189.23 198.5 135.52 217.76 132.7 219C129.88 220.24 97.8999 211.23 82.3499 207.65C66.7999 204.07 38.9499 197.81 35.0999 196.99C31.2499 196.16 27.6099 192.24 28.6399 188.67L28.6499 188.66Z" fill="black"/>
<path d="M199.12 188.42C199.12 188.42 200.02 191.21 196.28 192.74C192.54 194.27 135.82 214.89 133.18 215.68C130.54 216.47 119.88 214.57 114.67 213.23C109.46 211.89 38.8601 196.41 34.9901 194.51C31.1201 192.61 30.8501 188.82 30.8501 188.82C30.8501 188.82 123.28 210.11 125.92 210.33C128.56 210.55 133.17 208.81 133.17 208.81C133.17 208.81 198.14 186.45 198.54 186.7C198.94 186.95 199.12 188.42 199.12 188.42Z" fill="white"/>
<path d="M129.88 209.16L196.81 186.37L129.31 171.51L121.09 176.57L129.01 205.91L129.88 209.16Z" fill="white"/>
<path d="M127.57 211.09C129.21 210.53 130.53 209.14 130.51 206.91C130.49 204.68 128.29 198.87 126.98 194.9C125.67 190.93 120.59 175.04 120.59 175.04L118.98 175.82L126.72 200.76C126.72 200.76 128.07 204.88 128.07 206.12C128.07 207.36 127.11 207.99 126.64 208.37C126.17 208.75 116.53 204.11 111.54 202.12C106.55 200.13 48.5101 187.26 41.6101 186.53C34.7101 185.8 28.0001 188.48 28.6501 188.65C29.3001 188.82 40.5201 192.02 46.1701 193.38C51.8201 194.74 120.72 210.52 123.74 211.08C126.76 211.64 127.58 211.08 127.58 211.08L127.57 211.09Z" fill="black"/>
<path d="M105.08 131.4C105.08 131.4 127.03 201.28 127.84 204.5C128.65 207.72 127.57 209.13 123.28 208.33C118.99 207.53 36.6798 189.13 32.7198 187.99C28.7598 186.85 27.8198 185.44 25.8098 179.06C23.7998 172.68 4.45985 117.23 3.38985 114.08C2.31985 110.93 4.12985 109.65 8.75985 110.39C13.3898 111.13 95.4898 124.35 98.1098 124.69C100.73 125.03 103.38 125.95 105.09 131.4H105.08Z" fill="white"/>
<path d="M146.43 186.36C146.36 186.36 146.3 186.36 146.23 186.33L127.88 181.57C127.54 181.48 127.3 181.19 127.28 180.84C127.26 180.49 127.47 180.17 127.8 180.05L139.85 175.52C140.01 175.46 140.17 175.45 140.33 175.5L156.01 179.65C156.33 179.73 156.56 180 156.6 180.32C156.64 180.64 156.48 180.96 156.19 181.12L146.81 186.25C146.69 186.31 146.56 186.35 146.43 186.35V186.36ZM130.72 180.67L146.33 184.72L153.68 180.7L140.18 177.12L130.73 180.67H130.72Z" fill="black"/>
<path d="M136.77 204.79C136.68 204.79 136.6 204.78 136.51 204.75L127.82 201.76C127.4 201.62 127.18 201.16 127.33 200.75C127.47 200.33 127.93 200.11 128.34 200.26L136.76 203.15L161.16 193.98L122.35 184.29C121.92 184.18 121.66 183.75 121.77 183.32C121.88 182.89 122.31 182.63 122.74 182.74L164.03 193.05C164.37 193.13 164.61 193.43 164.63 193.78C164.65 194.13 164.44 194.45 164.11 194.57L137.05 204.74C136.96 204.77 136.86 204.79 136.77 204.79Z" fill="black"/>
<path d="M129.6 202.32C129.29 202.32 129 202.14 128.87 201.84C128.7 201.44 128.89 200.97 129.29 200.79L153.31 190.53C153.71 190.36 154.18 190.55 154.36 190.95C154.53 191.35 154.34 191.82 153.94 192L129.92 202.26C129.82 202.3 129.71 202.32 129.61 202.32H129.6Z" fill="black"/>
<path d="M126.67 198.07C126.36 198.07 126.07 197.89 125.94 197.59C125.77 197.19 125.96 196.72 126.36 196.54L144.8 188.67C145.2 188.5 145.67 188.69 145.85 189.09C146.02 189.49 145.83 189.96 145.43 190.14L126.99 198.01C126.89 198.05 126.78 198.07 126.68 198.07H126.67Z" fill="black"/>
<path d="M125.34 193.13C125.03 193.13 124.74 192.95 124.61 192.65C124.44 192.25 124.63 191.78 125.03 191.6L136.79 186.58C137.19 186.41 137.66 186.59 137.84 187C138.01 187.4 137.82 187.87 137.42 188.05L125.66 193.07C125.56 193.11 125.45 193.13 125.35 193.13H125.34Z" fill="black"/>
<path d="M149.59 208.46C149.26 208.46 148.96 208.26 148.84 207.94C148.69 207.53 148.9 207.07 149.32 206.92L154.13 205.17C154.54 205.02 155 205.23 155.15 205.65C155.3 206.07 155.09 206.52 154.67 206.67L149.86 208.42C149.77 208.45 149.68 208.47 149.59 208.47V208.46Z" fill="black"/>
<path d="M140.2 211.51C139.87 211.51 139.56 211.3 139.45 210.97C139.31 210.55 139.53 210.1 139.94 209.96L145.46 208.06C145.88 207.92 146.33 208.14 146.47 208.55C146.61 208.97 146.39 209.42 145.98 209.56L140.46 211.46C140.37 211.49 140.29 211.5 140.2 211.5V211.51Z" fill="black"/>
<path d="M154.65 198.07C154.58 198.07 154.5 198.06 154.42 198.04L123.56 188.9C123.14 188.77 122.9 188.33 123.02 187.91C123.15 187.49 123.59 187.25 124.01 187.37L154.87 196.51C155.29 196.64 155.53 197.08 155.41 197.5C155.31 197.85 154.99 198.07 154.65 198.07Z" fill="black"/>
<path d="M146.52 201.13C146.44 201.13 146.37 201.12 146.29 201.1L125.55 194.86C125.13 194.73 124.89 194.29 125.02 193.87C125.15 193.45 125.59 193.21 126.01 193.34L146.75 199.58C147.17 199.71 147.41 200.15 147.28 200.57C147.18 200.91 146.86 201.14 146.52 201.14V201.13Z" fill="black"/>
<path d="M185.15 179.36C184.96 179.41 184.86 179.8 184.68 179.85C184.5 179.9 184.34 180.08 184.15 180.14C183.96 180.2 183.77 180.23 183.58 180.29C183.39 180.35 183.13 180.18 182.95 180.24C182.77 180.3 182.61 180.48 182.43 180.54C182.25 180.6 181.88 180.17 181.7 180.23C181.52 180.29 181.47 180.78 181.29 180.85C181.11 180.92 181 181.21 180.82 181.28C180.64 181.35 180.25 180.93 180.08 181C179.89 181.08 179.75 181.26 179.58 181.33C179.39 181.41 179.15 181.34 178.97 181.42C178.79 181.5 178.57 181.53 178.4 181.61C178.22 181.7 178.23 182.17 178.06 182.26C177.88 182.35 177.57 182.19 177.4 182.28C177.22 182.38 177.25 182.82 177.09 182.92C176.92 183.02 176.79 183.18 176.63 183.28C176.47 183.38 175.97 182.99 175.81 183.1C175.65 183.21 175.85 183.86 175.7 183.97C175.55 184.08 175.37 184.18 175.22 184.3C175.07 184.42 174.62 184.16 174.47 184.28C174.32 184.4 174.09 184.44 173.94 184.56C173.79 184.68 173.61 184.77 173.45 184.89C173.29 185.01 173.49 185.57 173.34 185.7C173.19 185.83 173 185.9 172.84 186.02C172.68 186.14 172.41 186.09 172.25 186.21C172.09 186.33 171.79 186.23 171.63 186.35C171.47 186.47 171.34 186.61 171.18 186.72C171.02 186.83 170.93 187.04 170.76 187.15C170.59 187.26 170.49 187.46 170.32 187.56C170.15 187.66 169.86 187.54 169.69 187.64C169.52 187.74 169.55 188.19 169.38 188.28C169.21 188.37 168.89 188.19 168.71 188.28C168.53 188.37 168.28 188.28 168.09 188.36C167.9 188.44 167.79 188.62 167.61 188.7C167.43 188.78 167.38 189.12 167.19 189.2C167 189.28 166.79 189.26 166.6 189.34C166.41 189.42 166.27 189.6 166.08 189.67C165.89 189.74 165.6 189.5 165.41 189.56C165.22 189.62 165.07 189.83 164.88 189.88C164.69 189.93 164.54 190.24 164.35 190.28C164.16 190.32 163.95 190.41 163.75 190.44C163.55 190.47 163.3 190.08 163.1 190.1C162.9 190.12 162.7 189.99 162.5 190C162.3 190.01 162.11 190.4 161.91 190.4C161.71 190.4 161.52 190.07 161.32 190.06C161.12 190.05 160.89 190.46 160.69 190.44C160.49 190.42 160.34 190.01 160.14 189.98C159.94 189.95 159.73 190.04 159.53 190C159.33 189.96 159.13 189.98 158.93 189.93C158.73 189.88 158.48 190.06 158.28 190.01C158.08 189.96 157.92 189.79 157.73 189.73C157.54 189.67 157.43 189.38 157.24 189.31C157.05 189.24 156.82 189.29 156.63 189.21C156.44 189.13 156.31 188.95 156.13 188.86C155.95 188.77 155.66 188.91 155.48 188.82C155.3 188.73 155.17 188.54 155 188.44C154.83 188.34 154.58 188.36 154.41 188.25C154.24 188.14 153.99 188.14 153.83 188.03C153.67 187.92 153.73 187.47 153.57 187.35C153.41 187.23 153.1 187.31 152.94 187.18C152.78 187.05 152.88 186.62 152.73 186.49C152.58 186.36 152.3 186.38 152.15 186.24C152 186.1 152.04 185.78 151.9 185.64C151.76 185.5 151.44 185.53 151.31 185.38C151.18 185.23 150.85 185.24 150.73 185.08C150.61 184.92 150.9 184.44 150.78 184.28C150.66 184.12 150.54 183.97 150.43 183.81C150.32 183.65 149.66 183.81 149.56 183.65C149.46 183.49 149.67 183.12 149.58 182.94C149.49 182.76 149.58 182.5 149.51 182.32C149.44 182.14 149.44 181.94 149.37 181.75C149.3 181.56 149.24 181.39 149.19 181.2C149.14 181.01 148.58 180.92 148.55 180.72C148.52 180.52 148.72 180.28 148.71 180.09C148.7 179.9 148.55 179.68 148.56 179.48C148.57 179.28 148.42 179.06 148.44 178.87C148.46 178.68 148.71 178.5 148.75 178.31C148.79 178.12 149.12 177.99 149.17 177.8C149.22 177.61 148.8 177.3 148.86 177.11C148.92 176.92 149.14 176.78 149.2 176.59C149.26 176.4 149.24 176.18 149.3 176C149.36 175.82 149.69 175.73 149.76 175.55C149.83 175.37 149.88 175.18 149.97 175C150.06 174.82 150.4 174.78 150.49 174.61C150.58 174.44 150.25 174.03 150.34 173.87C150.43 173.71 150.62 173.57 150.72 173.41C150.82 173.25 151.21 173.26 151.32 173.1C151.43 172.94 151.29 172.61 151.4 172.45C151.51 172.29 151.81 172.26 151.92 172.1C152.04 171.94 151.94 171.62 152.06 171.47C152.19 171.31 152.53 171.34 152.65 171.2C152.78 171.04 152.52 170.56 152.65 170.42C152.79 170.26 153 170.18 153.12 170.05C153.27 169.89 153.48 169.8 153.6 169.69C153.86 169.43 153.99 169.69 154.21 169.49" fill="black"/>
<path d="M161.26 190.19C160.9 190.19 160.58 189.95 160.49 189.59C160.46 189.45 159.7 186.22 162.4 182.63C162.66 182.28 163.16 182.21 163.52 182.47C163.87 182.73 163.94 183.23 163.68 183.59C161.46 186.54 162.02 189.1 162.04 189.21C162.14 189.64 161.88 190.07 161.45 190.17C161.39 190.19 161.32 190.19 161.26 190.19Z" fill="#F0F0F0"/>
<path d="M152.07 187.05C152.07 187.05 152.05 187.05 152.04 187.05C151.6 187.03 151.26 186.66 151.28 186.22C151.28 186.03 151.49 181.5 152.58 179.39C152.78 179 153.26 178.84 153.65 179.05C154.04 179.25 154.19 179.73 153.99 180.12C153.22 181.61 152.92 185.07 152.87 186.28C152.85 186.71 152.5 187.04 152.07 187.04V187.05Z" fill="#F0F0F0"/>
<path d="M138.39 166.09C138.22 166.09 138.05 166.04 137.91 165.93C137.56 165.66 137.5 165.16 137.76 164.81C137.8 164.76 141.43 159.95 141.15 154.31C141.13 153.87 141.47 153.5 141.91 153.47C142.35 153.44 142.72 153.79 142.75 154.23C143.06 160.46 139.2 165.56 139.03 165.78C138.87 165.98 138.64 166.09 138.4 166.09H138.39Z" fill="#F0F0F0"/>
<path d="M152.07 187.05C151.9 187.05 151.72 186.99 151.58 186.88C149.54 185.28 148.44 183.17 148.29 180.61C148.06 176.63 150.24 172.92 150.89 172.22C151.41 171.58 158.85 162.8 172.74 157.29C188.06 151.22 194.83 144.71 194.7 136.17C194.7 135.73 195.04 135.37 195.48 135.36H195.49C195.92 135.36 196.28 135.71 196.29 136.14C196.48 148.06 184.12 154.49 173.33 158.77C159.62 164.2 152.18 173.16 152.1 173.25C152.08 173.27 152.06 173.29 152.04 173.31C151.68 173.67 149.67 177.06 149.87 180.52C149.99 182.61 150.9 184.33 152.56 185.63C152.91 185.9 152.97 186.4 152.7 186.75C152.54 186.95 152.31 187.06 152.07 187.06V187.05Z" fill="#F0F0F0"/>
<path d="M185.18 181.72C184.83 181.72 184.51 181.49 184.41 181.14C184.29 180.72 184.54 180.28 184.96 180.16C189.13 178.99 192.46 178.88 196.33 178.74C201.41 178.56 207.73 178.34 218.5 175.51C236.48 170.78 234.93 152.3 234.86 151.51C234.82 151.07 235.14 150.68 235.58 150.64C236.02 150.6 236.41 150.92 236.45 151.36C236.47 151.57 238.21 171.98 218.91 177.05C207.97 179.93 201.55 180.15 196.4 180.33C192.64 180.46 189.39 180.57 185.41 181.69C185.34 181.71 185.27 181.72 185.19 181.72H185.18Z" fill="#F0F0F0"/>
<path d="M102.9 248.11C102.52 248.11 102.19 247.84 102.12 247.46C101.98 246.67 98.6599 228.04 103.44 221.57C105.26 219.1 108.6 218.12 112.37 218.96C118.11 220.22 125.66 225.92 128.09 237.82C128.18 238.25 127.9 238.67 127.47 238.76C127.04 238.85 126.62 238.57 126.53 238.14C125 230.62 119.91 222.26 112.02 220.52C108.88 219.83 106.15 220.58 104.72 222.52C100.35 228.44 103.65 246.99 103.69 247.18C103.77 247.61 103.48 248.03 103.05 248.11C103 248.11 102.95 248.12 102.91 248.12L102.9 248.11Z" fill="#F0F0F0"/>
<path d="M126 234.18C125.69 234.18 125.4 234 125.27 233.7C125.09 233.3 125.27 232.83 125.68 232.65C125.78 232.61 135.66 228.25 139.68 224.77C143.8 221.21 149.66 216.38 149.72 216.33C150.06 216.05 150.56 216.1 150.84 216.44C151.12 216.78 151.07 217.28 150.73 217.56C150.67 217.61 144.82 222.43 140.72 225.98C136.52 229.61 126.73 233.93 126.32 234.11C126.22 234.16 126.11 234.18 126 234.18Z" fill="#F0F0F0"/>
<path d="M78.3798 228.95C78.0198 228.95 77.6998 228.71 77.6098 228.35C76.8298 225.23 74.1498 220.97 74.1298 220.92C73.8898 220.55 74.0098 220.06 74.3798 219.82C74.7498 219.58 75.2398 219.7 75.4798 220.07C75.5998 220.25 78.3198 224.59 79.1598 227.96C79.2698 228.39 79.0098 228.82 78.5798 228.93C78.5198 228.95 78.4498 228.95 78.3898 228.95H78.3798Z" fill="#F0F0F0"/>
<path d="M173.22 69.85C178.627 69.85 183.01 65.4669 183.01 60.06C183.01 54.6532 178.627 50.27 173.22 50.27C167.813 50.27 163.43 54.6532 163.43 60.06C163.43 65.4669 167.813 69.85 173.22 69.85Z" fill="white"/>
<path d="M172.29 68.3298C175.957 68.3298 178.93 65.357 178.93 61.6898C178.93 58.0226 175.957 55.0498 172.29 55.0498C168.623 55.0498 165.65 58.0226 165.65 61.6898C165.65 65.357 168.623 68.3298 172.29 68.3298Z" fill="black"/>
<path d="M169.97 65.97C170.853 65.97 171.57 65.2537 171.57 64.37C171.57 63.4864 170.853 62.77 169.97 62.77C169.086 62.77 168.37 63.4864 168.37 64.37C168.37 65.2537 169.086 65.97 169.97 65.97Z" fill="white"/>
<path d="M152.2 63.1802C152.23 58.9602 155.47 58.1002 156.29 65.2102C157.11 72.3202 160.35 75.0902 165.81 76.1302C171.27 77.1702 178.87 77.4102 176.87 86.9102C174.88 96.4002 166.37 100.59 155.23 98.8402C144.09 97.0902 140.88 85.5802 145.51 79.3002C150.14 73.0202 152.15 69.7602 152.2 63.1902V63.1802Z" fill="#F9F9F9"/>
<path d="M135.65 76.9301C141.057 76.9301 145.44 72.547 145.44 67.1401C145.44 61.7332 141.057 57.3501 135.65 57.3501C130.243 57.3501 125.86 61.7332 125.86 67.1401C125.86 72.547 130.243 76.9301 135.65 76.9301Z" fill="white"/>
<path d="M134.72 75.4099C138.387 75.4099 141.36 72.437 141.36 68.7699C141.36 65.1027 138.387 62.1299 134.72 62.1299C131.053 62.1299 128.08 65.1027 128.08 68.7699C128.08 72.437 131.053 75.4099 134.72 75.4099Z" fill="black"/>
<path d="M132.4 73.0501C133.283 73.0501 134 72.3338 134 71.4501C134 70.5664 133.283 69.8501 132.4 69.8501C131.516 69.8501 130.8 70.5664 130.8 71.4501C130.8 72.3338 131.516 73.0501 132.4 73.0501Z" fill="white"/>
<path d="M155.974 86.0272C158.757 85.5556 160.816 84.0167 160.575 82.5901C160.333 81.1635 157.881 80.3893 155.099 80.8609C152.316 81.3325 150.257 82.8714 150.498 84.298C150.74 85.7246 153.192 86.4988 155.974 86.0272Z" fill="black"/>
<path d="M160.77 92.3098C159.45 92.5198 158.12 92.1998 157.03 91.4298C155.92 90.6398 155.18 89.4598 154.95 88.1198C154.82 87.3698 155.33 86.6698 156.07 86.5398C156.07 86.5398 156.08 86.5398 156.09 86.5398C156.83 86.4298 157.53 86.9298 157.65 87.6698C157.87 88.9598 159.03 89.7898 160.38 89.6098C161.67 89.3898 162.54 88.1598 162.32 86.8798C162.19 86.1298 162.7 85.4298 163.44 85.2998C163.44 85.2998 163.45 85.2998 163.46 85.2998C164.2 85.1898 164.9 85.6898 165.02 86.4298C165.49 89.2098 163.61 91.8598 160.83 92.3298C160.81 92.3298 160.78 92.3298 160.76 92.3398L160.77 92.3098Z" fill="black"/>
<path d="M153.39 93.5601C150.64 93.9901 148.04 92.1201 147.57 89.3601C147.44 88.6101 147.95 87.9001 148.69 87.7801C148.69 87.7801 148.7 87.7801 148.71 87.7801C149.45 87.6701 150.15 88.1701 150.27 88.9101C150.49 90.2001 151.71 91.0601 153 90.8501C154.29 90.6301 155.16 89.4101 154.94 88.1201C154.81 87.3701 155.32 86.6701 156.06 86.5401C156.06 86.5401 156.07 86.5401 156.08 86.5401C156.82 86.4301 157.52 86.9301 157.64 87.6701C157.87 89.0201 157.56 90.3701 156.77 91.4801C155.98 92.5901 154.8 93.3301 153.46 93.5601C153.44 93.5601 153.41 93.5601 153.39 93.5701V93.5601Z" fill="black"/>
<path d="M128.08 211C127.75 211 127.44 210.79 127.33 210.46C127.19 210.04 127.41 209.59 127.82 209.45L198.95 184.91C199.37 184.77 199.82 184.99 199.96 185.4C200.1 185.82 199.88 186.27 199.47 186.41L128.34 210.95C128.25 210.98 128.17 210.99 128.08 210.99V211Z" fill="black"/>
<path d="M60.4199 146.83C53.3099 146.48 48.4899 151.51 49.2599 158.29C49.6199 161.43 51.0899 164.49 53.2599 167.05L51.7499 168.63C50.9899 169.42 51.2299 170.89 52.2999 171.88C52.3199 171.9 52.3399 171.92 52.3699 171.94C53.4199 172.91 54.8699 173.06 55.6199 172.28L57.2199 170.63C59.5499 172.24 62.2099 173.36 64.9799 173.75C72.9099 174.86 78.5899 169.54 77.4099 161.89C76.2199 154.1 68.4099 147.23 60.4099 146.83H60.4199ZM64.4699 170.32C62.3099 170.03 60.2199 169.14 58.4099 167.85C55.4099 165.71 53.1899 162.48 52.6899 159.08C52.3999 157.12 52.7299 155.37 53.5199 153.94C54.9299 151.4 57.8299 149.9 61.4799 150.24C67.2999 150.79 72.8199 155.82 73.6799 161.46C74.5399 167.12 70.3499 171.1 64.4699 170.32Z" fill="#DD198E"/>
<path d="M74.5001 169.01C74.5701 169.46 74.4501 169.88 74.1301 170.17C73.5601 170.68 72.5401 170.59 71.7501 169.96L69.2101 167.93L69.0001 167.77L67.4201 166.51L68.8101 167.84C68.3101 168.02 67.7501 168.17 67.1201 168.27L69.0301 170.5C69.6701 171.25 69.7401 172.2 69.1801 172.71C68.6201 173.22 67.6201 173.12 66.8501 172.49L61.6501 168.27L59.8901 166.84L61.3501 168.23L58.4201 167.85C55.4201 165.71 53.2001 162.48 52.7001 159.08C52.4101 157.12 52.7401 155.37 53.5301 153.94L58.4201 154.41C58.4301 154.62 58.4501 154.84 58.4801 155.05C58.9501 158.24 61.5701 161.27 65.0001 162.95C66.3301 163.61 67.7901 164.06 69.2901 164.24C69.8201 164.3 70.3401 164.33 70.8401 164.32C71.4301 164.32 71.9901 164.26 72.5301 164.16C72.4701 164.39 72.3801 164.66 72.2401 164.96C72.1501 165.15 72.0401 165.35 71.9101 165.55L73.9801 167.93C74.2701 168.27 74.4501 168.64 74.5001 169.01Z" fill="black"/>
<path d="M74.29 151.41L71.35 146.44C70.56 145.1 68.61 145.03 68.35 146.31L67.93 148.4C67.61 148.35 67.3 148.3 66.98 148.28C66.66 148.26 66.35 148.24 66.04 148.24L64.98 146.04C64.33 144.69 62.4 144.45 62.01 145.66L60.59 150.14C59.29 151.37 58.64 153.11 58.94 155.12C59.57 159.36 64.18 163.29 69.34 163.91C74.6 164.54 78.4 161.48 77.72 157.07C77.4 154.98 76.12 152.98 74.31 151.42L74.29 151.41Z" fill="black"/>
<path d="M64.4398 148.34C63.8398 148.43 63.2798 148.58 62.7598 148.78C63.0598 147.85 63.4998 146.78 63.4998 146.78L64.4398 148.35V148.34Z" fill="white"/>
<path d="M71.5396 149.58C70.9296 149.27 70.2896 149.02 69.6396 148.81L70.1396 147.35C70.1396 147.35 70.9797 148.6 71.5497 149.58H71.5396Z" fill="white"/>
<path d="M69.72 153.65C69.41 152.87 68.74 152.78 69.1 154.12C69.46 155.46 69.06 156.05 68.12 156.36C67.18 156.67 65.8 156.88 66.85 158.6C67.9 160.32 69.78 160.93 71.74 160.38C73.7 159.83 73.48 157.58 72.14 156.5C70.8 155.42 70.2 154.86 69.72 153.64V153.65Z" fill="#F9F9F9"/>
<path d="M71.1801 157C71.2601 157.29 70.8501 157.52 70.2701 157.52C69.6901 157.52 69.1701 157.28 69.0901 157C69.0101 156.72 69.4201 156.48 69.9901 156.48C70.5601 156.48 71.0901 156.71 71.1701 157H71.1801Z" fill="black"/>
<path d="M72.1299 157.89C72.0999 157.77 71.9699 157.67 71.8499 157.67C71.7199 157.67 71.6499 157.77 71.6799 157.89C71.7199 158.03 71.6999 158.16 71.6199 158.26C71.5399 158.36 71.4199 158.41 71.2799 158.41C71.1399 158.41 70.9899 158.35 70.8599 158.26C70.7299 158.16 70.6399 158.03 70.5999 157.89C70.5699 157.77 70.4399 157.67 70.3199 157.67C70.1999 157.67 70.1199 157.77 70.1499 157.89C70.2299 158.18 70.0499 158.41 69.7499 158.41C69.4499 158.41 69.1499 158.17 69.0799 157.89C69.0499 157.77 68.9199 157.67 68.7999 157.67C68.6799 157.67 68.5999 157.77 68.6299 157.89C68.7599 158.38 69.2499 158.79 69.7599 158.85C69.7999 158.85 69.8299 158.85 69.8699 158.85C70.1799 158.85 70.4099 158.71 70.5399 158.5C70.5699 158.53 70.5899 158.55 70.6199 158.58C70.8199 158.74 71.0499 158.83 71.2799 158.86C71.3199 158.86 71.3499 158.86 71.3899 158.86C71.6599 158.86 71.8799 158.76 72.0199 158.58C72.1599 158.4 72.1999 158.16 72.1299 157.9V157.89Z" fill="black"/>
<path d="M73.9399 153.99C74.0199 154.8 73.3698 155.35 72.4898 155.22C71.6098 155.09 70.8498 154.33 70.7698 153.52C70.6898 152.71 71.3398 152.16 72.2098 152.29C73.0798 152.42 73.8599 153.18 73.9399 153.99Z" fill="white"/>
<path d="M73.4298 153.91C73.4798 154.46 73.0397 154.83 72.4497 154.75C71.8597 154.67 71.3298 154.14 71.2798 153.6C71.2298 153.06 71.6698 152.68 72.2598 152.76C72.8498 152.84 73.3798 153.36 73.4298 153.91Z" fill="black"/>
<path d="M73.09 153.68C73.1 153.81 73 153.9 72.85 153.88C72.7 153.86 72.58 153.73 72.57 153.6C72.56 153.47 72.66 153.38 72.81 153.4C72.96 153.42 73.08 153.55 73.09 153.68Z" fill="white"/>
<path d="M68.06 154.57C68.14 155.37 67.5 155.92 66.64 155.79C65.78 155.66 65.03 154.91 64.96 154.11C64.89 153.31 65.51 152.77 66.37 152.89C67.23 153.01 67.98 153.77 68.06 154.57Z" fill="white"/>
<path d="M67.56 154.5C67.61 155.04 67.18 155.41 66.6 155.33C66.02 155.25 65.51 154.73 65.46 154.19C65.41 153.65 65.84 153.28 66.42 153.36C67 153.44 67.51 153.96 67.57 154.5H67.56Z" fill="black"/>
<path d="M67.2199 154.26C67.2299 154.39 67.1299 154.48 66.9899 154.46C66.8499 154.44 66.7299 154.32 66.7099 154.19C66.6899 154.06 66.7999 153.97 66.9399 153.99C67.0799 154.01 67.1999 154.13 67.2199 154.26Z" fill="white"/>
<path d="M66.0998 82.9701C65.7698 83.3201 65.6898 83.9401 65.5898 84.3801C65.4898 84.8201 66.0598 85.1901 66.1898 85.6301C66.3198 86.0701 66.2198 86.4701 66.5698 86.8001C67.0198 87.2301 66.9898 87.2601 67.4498 87.6901C67.9098 88.1201 67.6098 88.4301 68.0598 88.8601C68.5098 89.2901 68.9598 88.8201 69.4198 89.2501C69.8798 89.6801 69.6498 89.9201 70.1098 90.3501C70.5698 90.7801 70.4098 90.9501 70.8598 91.3801C71.3198 91.8101 71.5098 91.6101 71.9598 92.0401C72.4098 92.4701 72.0698 92.8401 72.5298 93.2701C72.9898 93.7001 73.5698 93.0901 74.0198 93.5201C74.4698 93.9501 73.8998 94.5601 74.3598 94.9901C74.8198 95.4201 75.1898 95.0301 75.6398 95.4601C76.0898 95.8901 76.0598 95.9301 76.5198 96.3701C76.9798 96.8001 77.1398 96.6401 77.5998 97.0701C78.0598 97.5001 77.8898 97.6901 78.3498 98.1201C78.8098 98.5501 78.9198 98.4401 79.3798 98.8801C79.7298 99.2101 80.0498 99.4501 80.4798 99.5501C80.9098 99.6501 81.4998 100.16 81.9398 100.03C82.3798 99.9001 82.8598 99.4501 83.1798 99.1001C83.3198 98.9501 82.7998 98.3501 82.8998 98.1801C83.1098 97.8301 83.7598 97.7101 83.7898 97.3201C83.8198 96.9301 83.7098 96.5101 83.5698 96.1301C83.4298 95.7501 83.4298 95.1901 83.1298 94.9001C82.6798 94.4701 82.2298 94.9501 81.7698 94.5201C81.3098 94.0901 81.2298 94.1801 80.7698 93.7501C80.3098 93.3201 80.5098 93.1101 80.0598 92.6801C79.5998 92.2501 79.8098 92.0301 79.3598 91.5901C78.9098 91.1501 78.6998 91.3701 78.2498 90.9401C77.7998 90.5101 78.1498 90.1301 77.6898 89.7001C77.2298 89.2701 77.2598 89.2401 76.7998 88.8001C76.3398 88.3701 75.9998 88.7301 75.5398 88.3001C75.0798 87.8701 74.7898 88.1801 74.3298 87.7501C73.8698 87.3201 74.4898 86.6601 74.0398 86.2301C73.5898 85.8001 73.2398 86.1501 72.7898 85.7201C72.3398 85.2901 72.4598 85.1501 71.9998 84.7201C71.5398 84.2901 71.1398 84.7101 70.6798 84.2701C70.2198 83.8401 70.8398 83.1801 70.3798 82.7401C70.0298 82.4101 69.2798 82.6601 68.8398 82.5601C68.3998 82.4601 67.8898 82.1001 67.4498 82.2301C67.0098 82.3601 66.4398 82.5801 66.1098 82.9301L66.0998 82.9701Z" fill="black"/>
<path d="M88.9102 80.1201C88.4502 80.2601 88.2202 80.6401 87.9102 80.9701C87.6002 81.3001 87.0602 81.5401 86.9502 81.9901C86.8402 82.4401 86.8602 82.9801 87.0102 83.4301C87.1902 84.0101 86.9302 84.0901 87.1102 84.6701C87.2902 85.2501 87.6602 85.1401 87.8302 85.7101C88.0002 86.2801 88.2702 86.2101 88.4502 86.7901C88.6302 87.3701 88.1502 87.5201 88.3302 88.1001C88.5102 88.6801 89.1902 88.4701 89.3702 89.0401C89.5502 89.6101 88.7102 89.8801 88.8902 90.4601C89.0702 91.0401 89.1902 91.0001 89.3702 91.5801C89.5502 92.1601 90.0402 92.0101 90.2202 92.5901C90.4002 93.1701 90.6702 93.0901 90.8502 93.6701C91.0302 94.2501 90.3002 94.4801 90.4802 95.0601C90.6602 95.6401 90.8802 95.5801 91.0602 96.1601C91.2002 96.6201 91.2402 97.2701 91.5702 97.5801C91.9002 97.8901 92.6302 97.6001 93.0802 97.7001C93.5302 97.8001 94.0102 98.3001 94.4702 98.1501C94.7902 98.0501 94.8302 97.4201 95.0702 97.2201C95.3102 97.0201 96.0302 97.1801 96.1902 96.9001C96.3802 96.5901 96.1902 96.0501 96.2402 95.6801C96.2902 95.3101 95.9702 95.0401 95.8602 94.6701C95.6802 94.0901 96.1302 93.9501 95.9502 93.3701C95.7702 92.7901 95.8402 92.7701 95.6602 92.1901C95.4802 91.6101 95.3002 91.6701 95.1302 91.0901C94.9602 90.5101 95.3002 90.4001 95.1302 89.8201C94.9502 89.2401 94.6702 89.3301 94.4902 88.7501C94.3102 88.1701 94.4502 88.1301 94.2702 87.5501C94.0902 86.9701 94.1502 86.9501 93.9802 86.3701C93.8102 85.7901 93.8302 85.7801 93.6602 85.2001C93.4902 84.6201 92.8302 84.8201 92.6502 84.2301C92.4702 83.6401 92.7902 83.5501 92.6102 82.9601C92.4302 82.3701 91.9202 82.5301 91.7402 81.9501C91.6002 81.4901 92.1402 80.5901 91.8102 80.2901C91.4702 79.9801 90.6702 80.3101 90.2202 80.2001C89.7702 80.0901 89.3702 79.9501 88.9102 80.1001V80.1201Z" fill="black"/>
</g>
<defs>
<clipPath id="clip0_53_1259">
<rect width="284.99" height="282.35" fill="white"/>
</clipPath>
</defs>
</svg>
