<svg width="350" height="131" viewBox="0 0 350 131" fill="none" xmlns="http://www.w3.org/2000/svg">
<path d="M122.597 48.5284C122.597 39.691 118.928 31.2668 112.252 24.7541L103.885 5.45608C102.425 2.09406 99.2358 0 95.576 0C91.5896 0 88.2084 2.43987 86.9596 6.23415L84.6639 13.2464C84.0395 13.2175 83.4247 13.2079 82.8195 13.2079C82.2144 13.2079 81.59 13.2079 80.9752 13.2464L78.6699 6.23415C77.4211 2.44947 74.0399 0 70.0535 0C66.3937 0 63.2142 2.09406 61.7541 5.45608L59.9962 9.50971C59.7657 9.50971 59.5256 9.50971 59.295 9.50971C58.4977 9.50971 57.7101 9.52892 56.9032 9.55774C25.963 10.7873 0.987983 35.9928 0.0274054 66.933C-0.366431 79.8432 3.49509 92.5708 10.93 103.06L5.05122 109.189C2.70742 111.629 1.45866 114.856 1.56433 118.257C1.66039 121.599 3.06283 124.683 5.49309 126.94L5.75244 127.18C8.03862 129.284 11.0164 130.437 14.1383 130.437C17.5387 130.437 20.8431 129.034 23.1965 126.575L29.4787 120.005C38.5369 125.298 48.7863 128.083 59.2854 128.083C91.9835 128.083 118.582 101.485 118.582 68.7869C118.582 67.2596 118.524 65.7515 118.409 64.253C121.089 59.5174 122.587 54.1765 122.587 48.5284H122.597Z" fill="white"/>
<path d="M115.873 68.1433C111.916 73.3881 106.412 77.6434 99.9661 80.3811C97.4398 89.2184 92.0989 96.8934 84.9811 102.34L88.8426 105.443C89.9088 106.297 91.148 106.797 92.4352 106.941C90.7349 107.056 88.9867 106.557 87.565 105.404L84.3471 102.82C77.3349 108.007 68.6609 111.072 59.3048 111.072C58.8246 111.072 58.3443 111.072 57.8736 111.043L67.6811 118.939C68.7473 119.794 69.9865 120.293 71.2736 120.437C69.5734 120.552 67.8252 120.053 66.4035 118.9L56.5576 110.975C48.9018 110.486 41.8031 107.95 35.7899 103.896C24.4935 96.2978 17.0491 83.3973 17.0491 68.7869C17.0491 60.3723 19.5177 52.5243 23.7731 45.9348C29.8632 36.5019 39.613 29.6242 50.9959 27.3476C51.7547 26.4543 52.552 25.5898 53.4165 24.7637L58.8534 12.2089C58.2482 12.2089 57.643 12.2377 57.0283 12.257C27.5097 13.4289 3.66822 37.4817 2.75567 67.0195C2.33302 80.6789 6.78049 93.2912 14.4939 103.281L7.03984 111.052C3.27438 114.981 3.38004 121.263 7.37604 124.961C7.45289 125.038 7.53934 125.106 7.61619 125.182C11.5257 128.765 17.5966 128.525 21.2756 124.693L29.0659 116.566C37.8359 122.128 48.2006 125.375 59.3241 125.375C90.5332 125.375 115.912 99.9961 115.912 68.7773C115.912 68.5564 115.912 68.3547 115.912 68.1337L115.873 68.1433ZM79.7459 16.0224C79.4866 15.9168 79.2272 15.8111 78.9486 15.715C73.5598 13.717 67.7867 12.5163 61.7543 12.2473L55.6451 26.3294C55.5202 26.4447 55.3953 26.5696 55.2704 26.6944C56.596 26.5696 57.9408 26.5023 59.2952 26.5023C82.6084 26.5023 101.58 45.4737 101.58 68.7773C101.58 71.611 101.301 74.3775 100.763 77.0479C107.094 73.9644 112.281 69.296 115.643 63.667C113.683 41.8908 99.3417 23.6398 79.7363 16.0224H79.7459Z" fill="black"/>
<path d="M100.274 99.9862C100.274 101.83 99.5437 103.656 98.1316 105.029C96.5755 106.547 94.4622 107.19 92.4354 106.95C91.1579 106.806 89.9091 106.307 88.8429 105.452L82.8104 100.601L79.9287 98.2955L79.1987 97.7096L73.6273 93.2141L78.1708 97.8729L78.3918 98.0938C76.2977 99.112 73.9443 100.044 71.3315 100.841L74.6551 105.25L77.6713 109.237C79.8038 112.07 79.4964 116.037 76.9509 118.506C75.3948 120.024 73.2815 120.667 71.2547 120.427C69.9771 120.283 68.7284 119.784 67.6621 118.929L54.0892 108.007L48.9597 103.886L42.543 98.7182L47.6725 103.848L47.7206 103.886H41.0349C41.0349 103.886 40.9869 103.867 40.9677 103.848C39.6997 103.185 38.4702 102.445 37.2695 101.638C26.2709 94.2515 19.7197 81.9561 19.7197 68.777C19.7197 61.1692 21.8906 53.7728 26.0115 47.3849C26.3381 46.8758 26.6743 46.3859 27.0201 45.8961L42.7544 45.7712H44.0319C43.9455 46.6741 43.8975 47.5963 43.8975 48.5184C43.8975 62.0818 52.9077 73.8392 65.9235 79.3145C70.3037 81.1684 75.1546 82.3115 80.2649 82.5613C80.3321 82.5613 80.3802 82.5613 80.4474 82.5613C81.1198 82.5901 81.7922 82.6093 82.4742 82.6093C84.5683 82.6093 86.6143 82.4652 88.6123 82.177C90.4278 81.9177 92.2145 81.5431 93.9435 81.0724C94.443 80.9379 94.9233 80.7938 95.4132 80.6401C95.0386 81.6391 94.5007 82.8302 93.7706 84.1462C93.2999 84.9819 92.7524 85.8753 92.0896 86.807L93.4824 88.6513L98.8329 95.7404C99.7838 96.9988 100.245 98.478 100.245 99.9669L100.274 99.9862Z" fill="black"/>
<path d="M119.889 48.5281C119.889 52.2935 119.159 55.9149 117.824 59.2769C117.218 60.8043 116.488 62.2643 115.653 63.6668C112.291 69.3054 107.104 73.9642 100.773 77.0476C99.7743 77.5375 98.7561 77.989 97.6995 78.3924C93.1559 80.1503 88.1225 81.1205 82.8297 81.1205C62.3502 81.1205 45.7515 66.5197 45.7515 48.5185C45.7515 41.5543 48.2298 35.0992 52.4659 29.8064C53.3208 28.7114 54.2718 27.6739 55.2804 26.6942C55.4053 26.5693 55.5301 26.4444 55.655 26.3291L61.7643 12.2471L62.9074 9.60549L64.2426 6.52203C66.5672 1.16201 74.2806 1.51743 76.1057 7.06956L77.8924 12.468L78.9586 15.7052L79.0739 16.0702C79.2948 16.051 79.5254 16.0317 79.7463 16.0125C80.7549 15.9357 81.7827 15.9069 82.8201 15.9069C84.0305 15.9069 85.2312 15.9549 86.4127 16.0606C86.4703 16.0606 86.5184 16.0606 86.576 16.0606L89.5346 7.05996C91.3597 1.50782 99.0731 1.15241 101.398 6.51243L109.985 26.3195C116.133 32.1406 119.898 39.9405 119.898 48.5185L119.889 48.5281Z" fill="black"/>
<path d="M72.5606 17.1845C70.0823 17.8089 67.7001 18.6542 65.4619 19.7109C67.2486 15.6188 69.7077 10.8447 69.7077 10.8447L72.5606 17.1941V17.1845Z" fill="white"/>
<path d="M100.245 19.74C98.0163 18.6834 95.6341 17.8381 93.1558 17.2041L96.0183 10.8354C96.0183 10.8354 98.583 15.8016 100.245 19.7304V19.74Z" fill="white"/>
<path d="M90.5724 37.6451C89.8039 34.456 87.2007 34.3695 87.8347 39.9024C88.4687 45.4258 86.4995 48.0962 82.5516 49.8348C78.6036 51.5735 72.8978 53.1008 76.0677 59.9305C79.2472 66.7698 86.4131 68.4412 94.5395 65.1656C102.666 61.8901 103.069 52.6109 98.4683 48.6629C93.8672 44.7149 91.7635 42.6017 90.582 37.6355L90.5724 37.6451Z" fill="#F9F9F9"/>
<path d="M90.472 53.7211C92.7608 53.4712 94.5122 52.3153 94.3838 51.1392C94.2554 49.9632 92.2959 49.2123 90.0071 49.4622C87.7182 49.7121 85.9669 50.868 86.0953 52.0441C86.2236 53.2201 88.1832 53.9709 90.472 53.7211Z" fill="black"/>
<path d="M97.6028 54.4935C97.5452 53.994 97.0937 53.6386 96.6038 53.6963C96.1043 53.7539 95.7489 54.1958 95.8065 54.6953C95.8738 55.262 95.7009 55.8287 95.3454 56.2706C94.99 56.7125 94.4713 57.0006 93.9046 57.0583C92.7231 57.1928 91.6664 56.3282 91.5319 55.1563C91.4743 54.6568 91.0228 54.3014 90.5329 54.359C90.0334 54.4167 89.678 54.8585 89.7357 55.358C89.8605 56.5396 89.0056 57.5962 87.8337 57.7307C87.267 57.7883 86.7002 57.625 86.2488 57.2696C85.7973 56.9142 85.5187 56.3955 85.4611 55.8287C85.4035 55.3292 84.952 54.9738 84.4621 55.0315C83.9626 55.0891 83.6072 55.531 83.6648 56.0305C83.7801 57.0775 84.2988 58.0188 85.1153 58.6816C85.8261 59.2484 86.6906 59.5558 87.584 59.5558C87.7281 59.5558 87.8721 59.5558 88.0162 59.5366C89.0633 59.4213 90.0046 58.9026 90.6674 58.0861C90.7539 57.9804 90.8115 57.8652 90.8884 57.7499C91.6088 58.4607 92.5886 58.9026 93.6548 58.9026C93.7989 58.9026 93.943 58.9026 94.0871 58.8834C96.258 58.6432 97.8237 56.6933 97.5932 54.5223L97.6028 54.4935Z" fill="black"/>
<path d="M100.947 43.0915C104.326 43.0915 107.065 40.352 107.065 36.9726C107.065 33.5933 104.326 30.8538 100.947 30.8538C97.5672 30.8538 94.8276 33.5933 94.8276 36.9726C94.8276 40.352 97.5672 43.0915 100.947 43.0915Z" fill="white"/>
<path d="M100.947 41.1224C103.238 41.1224 105.096 39.2645 105.096 36.9727C105.096 34.6809 103.238 32.823 100.947 32.823C98.6548 32.823 96.7969 34.6809 96.7969 36.9727C96.7969 39.2645 98.6548 41.1224 100.947 41.1224Z" fill="black"/>
<path d="M102.896 37.2894C103.448 37.2894 103.895 36.8421 103.895 36.2904C103.895 35.7387 103.448 35.2914 102.896 35.2914C102.345 35.2914 101.897 35.7387 101.897 36.2904C101.897 36.8421 102.345 37.2894 102.896 37.2894Z" fill="white"/>
<path d="M77.2776 48.0385C80.6569 48.0385 83.3964 45.299 83.3964 41.9196C83.3964 38.5402 80.6569 35.8007 77.2776 35.8007C73.8982 35.8007 71.1587 38.5402 71.1587 41.9196C71.1587 45.299 73.8982 48.0385 77.2776 48.0385Z" fill="white"/>
<path d="M77.2776 46.0694C79.5694 46.0694 81.4273 44.2115 81.4273 41.9197C81.4273 39.6279 79.5694 37.77 77.2776 37.77C74.9858 37.77 73.1279 39.6279 73.1279 41.9197C73.1279 44.2115 74.9858 46.0694 77.2776 46.0694Z" fill="black"/>
<path d="M79.2275 42.2368C79.7793 42.2368 80.2265 41.7895 80.2265 41.2378C80.2265 40.686 79.7793 40.2388 79.2275 40.2388C78.6758 40.2388 78.2285 40.686 78.2285 41.2378C78.2285 41.7895 78.6758 42.2368 79.2275 42.2368Z" fill="white"/>
<path d="M168.329 52.8218H159.012V62.4179H147.168V31.0359H172.133L171.663 38.903H159.021V45.3197H168.339V52.8122L168.329 52.8218Z" fill="white"/>
<path d="M187.148 62.4179H175.304V31.0359H187.148V62.4179Z" fill="white"/>
<path d="M211.316 42.3227L214.544 47.7115H214.688L214.313 41.6695V31.0359H224.245V62.4179H212.68L204.765 51.1792L201.537 45.7423H201.355L201.73 52.255V62.4179H191.845V31.0359H203.228L211.326 42.3227H211.316Z" fill="white"/>
<path d="M242.698 30.4786C254.503 30.4786 260.776 37.7406 260.776 46.5875C260.776 56.7504 253.235 62.975 242.093 62.975C236.521 62.975 231.651 62.6484 228.885 62.2737V31.2279C233.236 30.7572 237.357 30.4786 242.698 30.4786ZM240.729 38.6724V54.7332C241.478 54.7812 242.227 54.8293 243.024 54.8293C244.379 54.8293 245.368 54.4066 246.069 53.8015C247.616 52.5815 248.461 50.1513 248.461 46.8277C248.461 41.5829 246.444 38.6339 242.746 38.6339C241.997 38.6339 241.343 38.682 240.729 38.682V38.6724Z" fill="white"/>
<path d="M191.182 101.158C191.461 103.127 191.739 105.096 191.739 107.056H181.058L179.742 96.3744L179.223 86.9127H179.031L175.189 107.046L162.259 107.094L159.781 96.3744L158.33 86.9127H158.148L156.371 107.046H145.881C145.881 104.751 146.256 102.407 146.535 100.111L149.81 75.6643H164.469L167.936 88.4976L169.243 94.5396H169.473L173.075 75.6643H187.734L191.153 101.139L191.182 101.158Z" fill="white"/>
<path d="M224.245 81.3508L215.35 96.9506V107.065H203.506V96.9506L194.611 81.3508C193.343 79.055 192.594 77.374 192.594 75.6834H204.957L207.954 82.8493L209.683 87.5754H210.01L214.553 75.6834H226.359C226.359 77.3644 225.609 79.007 224.255 81.3508H224.245Z" fill="white"/>
<path d="M281.284 101.158C281.562 103.127 281.841 105.096 281.841 107.056H271.159L269.843 96.3744L269.325 86.9127H269.132L265.29 107.046L252.361 107.094L249.882 96.3744L248.432 86.9127H248.249L246.472 107.046H235.983C235.983 104.751 236.358 102.407 236.636 100.111L239.912 75.6643H254.57L258.038 88.4976L259.344 94.5396H259.575L263.177 75.6643H277.835L281.255 101.139L281.284 101.158Z" fill="white"/>
<path d="M297.067 107.065H285.223V75.6834H297.067V107.065Z" fill="white"/>
<path d="M317.392 85.9909H317.67L321.983 75.6839H333.827C333.827 77.509 332.886 78.873 331.531 81.2553L325.768 90.9475L332.367 101.485C333.866 103.877 334.759 105.231 334.759 107.056H322.118L316.825 96.9895H316.498L311.859 107.056H299.679C299.679 105.231 300.707 103.733 302.071 101.485L308.295 91.178L302.858 81.2457C301.552 78.8058 300.61 77.4994 300.61 75.6743H313.117L317.382 85.9813L317.392 85.9909Z" fill="white"/>
<path d="M349.091 107.065H337.247V75.6834H349.091V107.065Z" fill="white"/>
</svg>
