<svg width="257" height="282" viewBox="0 0 257 282" fill="none" xmlns="http://www.w3.org/2000/svg">
<g clip-path="url(#clip0_53_1211)">
<path d="M256.578 161.811C256.535 161.398 256.069 161.019 255.991 160.571C255.913 160.158 256.405 159.606 256.293 159.159C256.189 158.719 255.982 158.297 255.844 157.893C255.698 157.471 254.852 157.35 254.68 156.963C254.49 156.558 254.973 155.826 254.749 155.464C254.516 155.085 253.714 155.12 253.446 154.784C253.17 154.439 253.127 153.931 252.825 153.63C252.506 153.32 252.118 153.139 251.773 152.88C251.419 152.622 251.324 151.95 250.945 151.744C250.565 151.537 249.927 151.856 249.521 151.701C249.116 151.546 248.84 150.994 248.417 150.882C247.995 150.779 247.581 150.478 247.141 150.417C246.718 150.357 246.226 150.71 245.786 150.693C245.355 150.676 244.924 150.762 244.484 150.788C244.052 150.814 243.612 150.736 243.173 150.796C242.75 150.857 242.388 151.279 241.956 151.373C241.534 151.468 241.051 151.287 240.628 151.416C240.214 151.537 239.662 151.313 239.248 151.459C238.842 151.606 238.583 152.148 238.178 152.329C237.781 152.501 237.35 152.605 236.953 152.812C236.574 153.01 236.358 153.509 235.978 153.742C235.607 153.966 235.211 154.129 234.84 154.37C234.477 154.611 234.288 155.068 233.934 155.326C233.589 155.585 233.244 155.817 232.899 156.093C232.562 156.368 232.2 156.584 231.872 156.876C231.553 157.169 231.363 157.574 231.053 157.884C230.751 158.194 229.776 157.867 229.483 158.194C229.19 158.513 229.06 158.995 228.784 159.339C228.508 159.675 228.543 160.261 228.284 160.614C228.025 160.958 227.533 161.139 227.283 161.51C227.042 161.863 227.085 162.414 226.852 162.784C226.619 163.155 226.403 163.516 226.188 163.895C225.972 164.274 225.428 164.472 225.221 164.86C225.023 165.247 225.411 165.91 225.221 166.315C225.04 166.711 224.859 167.082 224.687 167.495C224.523 167.891 224.126 168.193 223.971 168.606C223.815 169.011 223.66 169.407 223.522 169.829C223.384 170.242 223.462 170.707 223.341 171.129C223.22 171.543 222.478 171.792 222.366 172.223C222.263 172.645 221.944 173.033 221.857 173.463C221.771 173.885 222.151 174.41 222.073 174.85C221.995 175.28 222.271 175.763 222.211 176.202C222.151 176.632 221.253 176.968 221.21 177.407C221.159 177.847 221.435 178.32 221.391 178.751C221.357 179.199 221.883 179.681 221.857 180.112C221.831 180.559 221.857 180.99 221.849 181.429C221.831 181.877 221.573 182.299 221.573 182.738C221.573 183.186 221.719 183.617 221.719 184.056C221.719 184.504 221.452 184.943 221.46 185.373C221.478 185.821 221.021 186.278 221.046 186.717C221.072 187.165 221.124 187.604 221.159 188.035C221.193 188.474 221.486 188.896 221.529 189.326C221.581 189.766 222.013 190.153 222.064 190.584C222.125 191.023 221.573 191.548 221.65 191.979C221.719 192.418 222.332 192.754 222.418 193.176C222.504 193.607 222.185 194.123 222.28 194.545C222.375 194.976 222.763 195.338 222.867 195.76C222.97 196.19 223.099 196.604 223.212 197.026C223.332 197.456 223.833 197.758 223.962 198.18C224.091 198.602 223.746 199.161 223.884 199.583C224.022 200.005 223.643 200.6 223.79 201.013C223.936 201.426 224.713 201.624 224.868 202.029C225.023 202.442 224.79 202.994 224.954 203.407C225.109 203.82 225.894 203.975 226.058 204.38C226.222 204.785 226.308 205.224 226.472 205.629C226.645 206.034 226.714 206.482 226.886 206.886C227.059 207.291 226.843 207.859 227.016 208.264C227.188 208.669 227.275 209.108 227.447 209.513C227.62 209.918 227.611 210.391 227.783 210.796C227.956 211.201 228.543 211.425 228.706 211.83C228.879 212.234 229.069 212.622 229.233 213.027C229.397 213.431 229.293 213.94 229.448 214.344C229.604 214.749 229.897 215.102 230.044 215.516C230.19 215.92 230.932 216.127 231.07 216.54C231.208 216.954 230.785 217.557 230.915 217.97C231.044 218.383 231.57 218.685 231.691 219.107C231.812 219.529 231.484 220.063 231.596 220.485C231.7 220.907 231.777 221.329 231.872 221.759C231.959 222.181 232.718 222.483 232.795 222.922C232.873 223.344 232.726 223.826 232.778 224.257C232.838 224.687 232.692 225.144 232.735 225.583C232.778 226.014 232.329 226.479 232.355 226.918C232.381 227.348 232.925 227.762 232.933 228.201C232.933 228.632 232.528 229.062 232.519 229.501C232.511 229.932 233.235 230.406 233.209 230.845C233.183 231.275 232.209 231.637 232.166 232.076C232.122 232.516 232.269 232.955 232.217 233.377C232.166 233.816 232.381 234.281 232.321 234.694C232.26 235.134 231.907 235.513 231.838 235.926C231.76 236.357 231.872 236.813 231.786 237.226C231.7 237.657 231.795 238.122 231.7 238.527C231.596 238.957 231.079 239.267 230.967 239.672C230.854 240.103 230.949 240.568 230.828 240.964C230.699 241.386 230.768 241.868 230.63 242.256C230.483 242.678 229.845 242.884 229.681 243.272C229.517 243.685 229.491 244.125 229.319 244.504C229.129 244.908 229.302 245.468 229.103 245.838C228.896 246.235 228.292 246.381 228.077 246.734C227.844 247.113 227.999 247.724 227.758 248.06C227.499 248.431 227.076 248.654 226.809 248.973C226.524 249.326 225.946 249.361 225.653 249.653C225.334 249.981 225.273 250.506 224.971 250.773C224.626 251.074 224.497 251.634 224.169 251.858C223.781 252.125 223.16 251.944 222.815 252.125C222.375 252.358 222.125 252.84 221.788 252.969C221.038 253.245 221.331 253.365 220.969 252.857C220.598 252.332 220.693 252.737 221.021 251.97C221.167 251.634 221.383 251.255 221.564 250.79C221.702 250.429 221.426 249.877 221.581 249.43C221.711 249.051 222.59 248.887 222.729 248.456C222.849 248.069 222.496 247.509 222.616 247.078C222.729 246.682 223.255 246.372 223.367 245.942C223.47 245.537 223.341 245.063 223.444 244.624C223.539 244.219 224.022 243.875 224.109 243.444C224.195 243.031 223.419 242.445 223.496 242.015C223.565 241.601 224.592 241.326 224.661 240.895C224.721 240.473 224.566 240.008 224.618 239.577C224.669 239.155 224.825 238.733 224.868 238.303C224.911 237.881 224.307 237.399 224.333 236.968C224.359 236.546 224.557 236.133 224.575 235.693C224.592 235.271 224.497 234.841 224.497 234.402C224.497 233.98 224.997 233.54 224.997 233.11C224.997 232.679 224.557 232.257 224.54 231.827C224.523 231.396 224.989 230.94 224.963 230.5C224.937 230.07 224.462 229.674 224.419 229.243C224.376 228.821 224.618 228.356 224.566 227.925C224.514 227.503 223.833 227.159 223.772 226.728C223.712 226.306 224.48 225.738 224.402 225.307C224.324 224.885 223.919 224.515 223.833 224.084C223.746 223.662 223.168 223.352 223.065 222.93C222.961 222.517 222.841 222.112 222.729 221.69C222.616 221.277 222.711 220.812 222.582 220.39C222.461 219.977 221.961 219.692 221.831 219.279C221.702 218.874 222.03 218.306 221.883 217.901C221.736 217.496 221.383 217.169 221.228 216.764C221.072 216.368 221.357 215.782 221.193 215.386C221.029 214.99 221.021 214.517 220.839 214.12C220.667 213.733 220.046 213.535 219.856 213.147C219.666 212.76 219.606 212.312 219.407 211.916C219.209 211.537 218.562 211.39 218.355 211.011C218.148 210.633 217.958 210.254 217.743 209.875C217.527 209.504 217.285 209.151 217.061 208.781C216.837 208.411 217.147 207.713 216.906 207.343C216.673 206.981 215.974 206.929 215.733 206.568C215.491 206.215 215.871 205.422 215.621 205.061C215.37 204.707 214.749 204.621 214.49 204.268C214.232 203.924 213.878 203.648 213.611 203.304C213.343 202.959 212.791 202.856 212.515 202.52C212.239 202.184 212.041 201.797 211.756 201.461C211.471 201.125 211.894 200.212 211.618 199.885C211.342 199.549 210.945 199.316 210.678 198.98C210.402 198.645 210.16 198.283 209.893 197.947C209.617 197.603 209.134 197.439 208.875 197.103C208.607 196.759 208.642 196.19 208.383 195.846C208.116 195.501 207.917 195.114 207.659 194.769C207.4 194.416 207.003 194.175 206.753 193.83C206.494 193.469 206.14 193.193 205.899 192.84C205.649 192.478 205.321 192.177 205.079 191.815C204.838 191.454 204.139 191.385 203.906 191.023C203.665 190.653 203.363 190.325 203.13 189.955C202.897 189.585 203.466 188.724 203.242 188.353C203.018 187.974 202.845 187.587 202.629 187.208C202.414 186.829 202.086 186.519 201.879 186.14C201.663 185.752 200.671 185.804 200.464 185.425C200.257 185.038 200.956 184.194 200.758 183.806C200.559 183.419 200.007 183.212 199.817 182.824C199.628 182.428 199.86 181.851 199.679 181.464C199.498 181.068 198.705 180.947 198.532 180.551C198.36 180.146 198.558 179.595 198.403 179.199C198.239 178.794 197.954 178.441 197.807 178.045C197.652 177.631 197.6 177.201 197.462 176.796C197.324 176.383 197.152 175.986 197.022 175.582C196.893 175.168 196.358 174.875 196.246 174.462C196.125 174.04 196.151 173.584 196.048 173.17C195.936 172.748 196.091 172.266 195.996 171.853C195.901 171.422 196.099 170.681 195.685 170.595C195.176 170.492 194.176 170.423 194.866 169.407C195.116 169.045 195.366 174.238 195.314 173.816C195.263 173.386 195.142 173.196 195.099 172.774C195.056 172.344 195.116 174.488 195.099 174.066C195.073 173.627 195.116 173.205 195.099 172.774C195.09 172.335 195.056 171.913 195.064 171.491C195.064 171.052 194.659 170.613 194.676 170.182C194.693 169.751 194.883 169.321 194.918 168.89C194.952 168.46 194.745 167.994 194.797 167.572C194.849 167.142 195.263 166.754 195.332 166.332C195.401 165.902 195.582 165.497 195.66 165.075C195.737 164.644 195.961 164.265 196.056 163.843C196.151 163.422 195.703 162.862 195.815 162.448C195.927 162.026 196.315 161.682 196.436 161.277C196.565 160.864 196.583 160.407 196.721 160.003C196.859 159.589 197.428 159.339 197.583 158.943C197.738 158.538 197.437 157.953 197.6 157.565C197.773 157.161 197.799 156.696 197.98 156.308C198.161 155.912 198.782 155.731 198.972 155.352C199.162 154.965 198.92 154.353 199.127 153.974C199.326 153.604 199.55 153.234 199.757 152.837C199.955 152.467 200.456 152.243 200.671 151.856C200.87 151.485 201.448 151.296 201.655 150.908C201.853 150.538 201.775 150.004 201.983 149.616C202.181 149.246 202.552 148.953 202.759 148.557C202.957 148.178 202.75 147.593 202.949 147.196C203.138 146.818 203.018 146.275 203.216 145.887C203.406 145.509 204.191 145.414 204.381 145.018C204.57 144.63 204.89 144.303 205.079 143.907C205.26 143.519 205.338 143.071 205.519 142.675C205.7 142.288 205.994 141.943 206.175 141.547C206.347 141.159 206.114 140.574 206.287 140.178C206.46 139.782 207.037 139.566 207.21 139.161C207.383 138.765 206.822 138.059 206.986 137.663C207.15 137.267 207.331 136.879 207.495 136.475C207.659 136.078 208.167 135.82 208.331 135.407C208.487 135.002 209.09 134.769 209.246 134.365C209.392 133.96 209.358 133.486 209.505 133.073C209.651 132.668 209.789 132.255 209.936 131.841C210.074 131.437 209.867 130.903 209.996 130.489C210.134 130.076 210.083 129.611 210.212 129.197C210.341 128.784 211.126 128.569 211.247 128.155C211.368 127.742 211.031 127.191 211.144 126.769C211.264 126.355 211.67 126.011 211.782 125.598C211.894 125.184 212.101 124.779 212.205 124.357C212.308 123.935 212.61 123.557 212.705 123.135C212.808 122.713 212.506 122.196 212.601 121.774C212.696 121.352 212.498 120.87 212.584 120.439C212.67 120.017 212.834 119.612 212.912 119.182C212.99 118.76 213.352 118.381 213.421 117.95C213.49 117.52 213.231 117.037 213.291 116.607C213.36 116.176 213.533 115.771 213.593 115.332C213.654 114.901 214.361 114.548 214.413 114.118C214.465 113.687 214.49 113.248 214.534 112.809C214.577 112.378 214.059 111.896 214.102 111.457C214.137 111.026 214.49 110.613 214.516 110.182C214.542 109.752 213.93 109.286 213.947 108.847C213.964 108.417 214.102 107.995 214.12 107.555C214.137 107.125 214.318 106.694 214.327 106.264C214.327 105.833 214.439 105.402 214.439 104.963C214.439 104.533 214.689 104.093 214.672 103.654C214.663 103.224 213.887 102.819 213.869 102.38C213.852 101.949 214.577 101.475 214.551 101.045C214.525 100.614 214.025 100.209 213.99 99.7788C213.956 99.3482 213.723 98.9348 213.68 98.5042C213.637 98.0736 213.964 97.6 213.913 97.1694C213.861 96.7388 213.283 96.3857 213.222 95.9551C213.162 95.5245 214.025 94.9561 213.956 94.5255C213.887 94.0949 213.662 93.6901 213.585 93.2595C213.507 92.8375 213.455 92.3983 213.369 91.9677C213.283 91.5457 213.421 91.0635 213.326 90.6329C213.231 90.2109 212.187 90.0042 212.084 89.5822C211.98 89.1602 212.55 88.566 212.437 88.144C212.325 87.722 212.023 87.3517 211.903 86.9297C211.782 86.5163 211.765 86.0599 211.635 85.6465C211.506 85.2331 210.98 84.9403 210.85 84.527C210.712 84.1136 210.902 83.5969 210.755 83.1835C210.609 82.7701 210.41 82.3826 210.264 81.9692C210.117 81.5644 209.591 81.3061 209.427 80.8927C209.272 80.4879 209.893 79.7731 209.729 79.3684C209.565 78.9722 209.047 78.7053 208.875 78.3091C208.702 77.9129 208.495 77.5254 208.314 77.1293C208.133 76.7331 207.477 76.5609 207.288 76.1647C207.098 75.7772 206.943 75.3724 206.744 74.9849C206.554 74.5973 206.572 74.0978 206.373 73.7103C206.175 73.3227 206.434 72.6941 206.227 72.3065C206.02 71.9276 205.191 71.8932 204.976 71.5056C204.76 71.1267 204.864 70.5669 204.648 70.1966C204.432 69.8263 203.941 69.611 203.708 69.232C203.483 68.8617 203.458 68.3708 203.225 67.9919C202.992 67.6302 202.448 67.4666 202.207 67.0963C201.965 66.7346 202.155 66.0887 201.905 65.727C201.663 65.3653 200.913 65.3567 200.663 64.9949C200.413 64.6332 200.637 63.5912 200.378 63.2381C199.731 63.152 200.154 64.1596 199.498 64.6763C199.205 64.9002 198.532 64.7624 198.144 65.0725C197.833 65.3222 197.618 65.7356 197.255 66.037C196.945 66.304 196.652 66.6226 196.306 66.924C195.996 67.1996 195.565 67.3805 195.228 67.6819C194.918 67.9661 194.711 68.3881 194.383 68.6981C194.072 68.9909 193.908 69.4387 193.589 69.7488C193.279 70.0502 192.476 69.8521 192.166 70.1708C191.864 70.4722 192.062 71.2817 191.76 71.6003C191.467 71.9104 190.846 71.9276 190.553 72.2549C190.26 72.5735 190.122 73.0299 189.828 73.3658C189.544 73.6931 189.354 74.1064 189.078 74.4423C188.802 74.7782 188.267 74.9074 187.991 75.2518C187.723 75.5963 187.568 76.0355 187.309 76.38C187.051 76.7245 187.145 77.3359 186.895 77.689C186.645 78.0421 186.222 78.2747 185.981 78.645C185.739 79.0067 185.774 79.532 185.541 79.9109C185.308 80.2812 184.342 80.2124 184.126 80.5913C183.911 80.9702 184.325 81.6936 184.126 82.0812C183.928 82.4687 183.712 82.839 183.531 83.2352C183.35 83.6313 182.703 83.4677 182.539 83.8725C181.944 84.0878 182.358 83.8208 181.607 83.5624C181.271 83.4419 180.633 84.0016 180.176 83.8638C179.805 83.7519 179.425 83.5624 178.985 83.4419C178.597 83.3385 178.321 82.7098 177.89 82.6151C177.493 82.5204 176.958 83.0199 176.527 82.9337C176.121 82.8562 175.828 82.107 175.397 82.0381C174.983 81.9778 174.56 81.8486 174.129 81.8056C173.714 81.7625 173.283 81.5386 172.852 81.5128C172.429 81.4869 171.972 82.4515 171.549 82.4515C171.127 82.4515 170.721 82.3137 170.299 82.3481C169.876 82.374 169.427 82.0984 169.005 82.1587C168.582 82.219 168.315 82.0467 167.9 82.1501C167.314 81.8659 167.115 82.2706 166.701 81.5644C166.512 81.2458 166.71 80.6257 166.46 80.2037C166.253 79.8679 166.322 79.3081 166.08 78.9119C165.865 78.5588 165.718 78.1369 165.476 77.7579C165.252 77.4048 164.579 77.3187 164.338 76.9398C164.114 76.5867 163.544 76.4317 163.303 76.0614C163.07 75.7083 162.915 75.2949 162.673 74.9246C162.431 74.5715 162.509 74.0031 162.259 73.6414C162.017 73.2883 161.612 73.0386 161.362 72.6855C161.112 72.3324 160.706 72.0912 160.447 71.7468C160.189 71.3937 160.059 70.9544 159.8 70.61C159.533 70.2569 159.783 69.5162 159.516 69.1804C159.24 68.8359 158.196 69.1287 157.92 68.8014C157.635 68.4656 157.592 67.9402 157.316 67.6216C157.014 67.2857 156.678 67.0274 156.384 66.7173C156.065 66.3901 156.16 65.6753 155.858 65.3911C155.522 65.0811 154.789 65.2878 154.461 65.038C154.09 64.7538 153.823 64.4438 153.477 64.2543C153.055 64.0304 152.96 64.0046 152.58 63.9529C152.02 64.2802 152.554 64.2199 152.166 64.9691C152.002 65.2964 151.269 65.4083 151.045 65.8561C150.864 66.2092 150.467 66.4934 150.26 66.9154C150.079 67.2771 150.553 67.9919 150.346 68.4053C150.165 68.7756 149.682 69.0254 149.484 69.4301C149.302 69.8091 149.509 70.3861 149.32 70.7908C149.138 71.1697 148.397 71.3075 148.207 71.7123C148.026 72.0998 147.681 72.4185 147.5 72.8233C147.327 73.2108 147.569 73.7964 147.387 74.2012C147.215 74.5887 147.267 75.0882 147.085 75.493C146.913 75.8891 146.128 76.0183 145.955 76.4317C145.792 76.8192 145.714 77.2584 145.541 77.6632C145.377 78.0594 145.61 78.6191 145.446 79.0239C145.283 79.42 144.886 79.7301 144.722 80.1348C144.558 80.531 144.86 81.1166 144.705 81.5214C144.549 81.9261 144.316 82.2965 144.153 82.7012C143.997 83.106 143.359 83.3213 143.204 83.7347C143.048 84.1394 143.385 84.725 143.238 85.1384C143.092 85.5432 142.315 85.7326 142.169 86.146C142.022 86.5508 141.72 86.9125 141.573 87.3259C141.435 87.7306 141.254 88.1354 141.108 88.5488C140.969 88.9621 140.788 89.3669 140.659 89.7803C140.521 90.1937 141.409 90.9343 141.28 91.3477C141.151 91.761 140.685 92.0711 140.564 92.4931C140.435 92.9064 140.003 93.2337 139.883 93.6557C139.762 94.0777 139.908 94.5686 139.796 94.9905C139.676 95.4125 138.96 95.6709 138.847 96.0929C138.735 96.5149 139.106 97.066 138.994 97.488C138.891 97.91 139.175 98.4267 139.072 98.8573C138.968 99.2793 138.183 99.5549 138.088 99.9769C137.993 100.407 138.183 100.89 138.088 101.32C138.002 101.751 137.605 102.121 137.528 102.552C137.45 102.982 137.648 103.465 137.571 103.895C137.493 104.326 137.027 104.696 136.967 105.127C136.898 105.557 136.794 105.997 136.734 106.427C136.674 106.866 137.45 107.4 137.398 107.831C137.346 108.27 137.252 108.692 137.217 109.123C137.183 109.562 137.001 109.975 136.976 110.406C136.95 110.845 137.122 111.284 137.105 111.715C137.088 112.154 136.605 112.576 136.596 113.007C136.596 113.446 137.019 113.877 137.027 114.307C137.036 114.746 136.372 115.212 136.398 115.634C136.423 116.073 136.458 116.521 136.501 116.943C136.544 117.382 137.441 117.718 137.502 118.14C137.562 118.579 137.277 119.052 137.364 119.474C137.441 119.905 137.459 120.344 137.562 120.758C137.666 121.188 137.89 121.576 138.002 121.981C138.123 122.403 138.019 122.885 138.149 123.29C138.287 123.712 138.166 124.22 138.313 124.616C138.468 125.029 138.804 125.374 138.977 125.761C139.149 126.166 139.503 126.485 139.684 126.872C139.874 127.268 140.064 127.656 140.254 128.043C140.452 128.431 140.538 128.887 140.745 129.258C140.952 129.645 141.099 130.067 141.315 130.438C141.53 130.816 142.108 130.989 142.324 131.35C142.548 131.729 142.298 132.375 142.514 132.746C142.738 133.124 143.35 133.262 143.566 133.633C143.79 134.012 144.325 134.21 144.532 134.58C144.748 134.959 144.411 135.639 144.61 136.018C144.808 136.406 145.205 136.69 145.386 137.077C145.567 137.474 145.291 138.051 145.455 138.447C145.61 138.851 145.895 139.179 146.024 139.592C146.154 140.005 146.326 140.384 146.421 140.806C146.516 141.22 147.137 141.556 147.198 141.986C147.258 142.408 146.766 142.89 146.784 143.33C146.801 143.752 146.801 144.165 146.784 144.613C146.766 145.035 146.861 145.465 146.809 145.905C146.758 146.318 146.525 146.714 146.438 147.153C146.361 147.567 146.404 148.006 146.292 148.437C146.188 148.841 146.309 149.332 146.171 149.754C146.042 150.15 145.334 150.357 145.179 150.77C145.032 151.167 145.731 151.907 145.559 152.321C145.395 152.708 144.308 152.691 144.118 153.096C143.937 153.475 144.558 154.258 144.351 154.654C144.161 155.033 143.635 155.249 143.419 155.636C143.221 156.007 142.833 156.282 142.608 156.67C142.393 157.04 141.901 157.238 141.668 157.617C141.444 157.979 141.366 158.435 141.133 158.814C140.9 159.176 140.581 159.494 140.34 159.873C140.115 160.235 139.77 160.545 139.538 160.924C139.313 161.294 139.745 162.069 139.512 162.448C139.287 162.819 139.244 163.301 139.02 163.68C138.796 164.05 138.321 164.274 138.097 164.653C137.881 165.023 137.493 165.308 137.269 165.686C137.053 166.057 136.665 166.341 136.449 166.729C136.234 167.107 136.648 167.839 136.432 168.227C136.216 168.606 135.302 168.597 135.095 168.976C134.888 169.355 134.526 169.657 134.319 170.044C134.112 170.423 134.362 171.06 134.155 171.448C133.948 171.827 133.68 172.171 133.482 172.559C133.284 172.938 132.869 173.213 132.662 173.601C132.464 173.98 132.438 174.462 132.24 174.85C132.041 175.229 131.593 175.496 131.394 175.883C131.196 176.271 131.558 174.807 131.36 175.194C131.222 175.461 131.144 176.064 130.92 175.521C130.092 176.279 130.894 177.916 129.704 178.286C129.678 178.372 129.661 178.458 129.617 178.544C129.436 178.94 128.738 179.07 128.556 179.466C128.375 179.862 127.849 180.112 127.677 180.516C127.504 180.912 127.375 181.334 127.202 181.739C127.03 182.135 126.201 182.213 126.029 182.618C125.856 183.014 126.141 183.522 125.969 183.927C125.796 184.331 124.355 183.694 124.192 184.099C124.028 184.504 123.726 184.848 123.553 185.253C123.389 185.658 122.984 185.959 122.82 186.372C122.656 186.777 122.501 187.191 122.346 187.595C122.182 188 122.346 188.534 122.19 188.939C122.035 189.344 121.354 189.55 121.198 189.964C121.043 190.377 121.63 191.057 121.474 191.471C121.319 191.884 120.983 192.22 120.836 192.633C120.689 193.047 120.707 193.512 120.56 193.925C120.413 194.339 119.654 194.528 119.508 194.95C119.361 195.363 119.577 195.897 119.43 196.311C119.292 196.724 119.542 197.267 119.404 197.689C119.266 198.102 118.783 198.403 118.645 198.817C118.507 199.23 118.265 199.609 118.127 200.031C117.998 200.445 117.817 200.849 117.687 201.271C117.558 201.693 117.938 202.262 117.817 202.684C117.687 203.106 117.196 203.416 117.075 203.829C116.954 204.251 116.713 204.639 116.592 205.061C116.471 205.483 116.109 205.836 115.988 206.258C115.876 206.68 116.169 207.214 116.057 207.636C115.945 208.058 115.608 208.428 115.496 208.85C115.393 209.272 115.479 209.745 115.376 210.176C115.272 210.598 115.315 211.063 115.22 211.485C115.117 211.916 114.72 212.269 114.625 212.699C114.53 213.13 114.237 213.509 114.142 213.94C114.047 214.37 114.685 214.947 114.599 215.378C114.513 215.808 113.728 216.101 113.642 216.532C113.555 216.962 113.348 217.376 113.271 217.806C113.193 218.237 113.685 218.771 113.616 219.201C113.538 219.632 113.616 220.088 113.547 220.519C113.478 220.95 113.228 221.354 113.159 221.785C113.098 222.216 112.693 222.603 112.632 223.042C112.572 223.473 112.21 223.878 112.158 224.308C112.106 224.748 112.313 225.213 112.262 225.652C112.21 226.091 112.408 226.547 112.365 226.987C112.322 227.426 111.916 227.831 111.882 228.261C111.847 228.7 111.77 229.14 111.744 229.57C111.709 230.01 112.193 230.483 112.167 230.914C112.141 231.353 112.322 231.792 112.305 232.231C112.287 232.671 112.184 233.101 112.175 233.54C112.167 233.98 111.891 234.41 111.882 234.849C111.882 235.289 112.356 235.728 112.356 236.158C112.356 236.598 111.399 237.046 111.408 237.485C111.416 237.924 112.443 238.329 112.46 238.768C112.477 239.207 112.193 239.655 112.218 240.086C112.244 240.525 111.632 241.007 111.666 241.438C111.701 241.877 111.761 242.316 111.804 242.755C111.847 243.194 111.916 243.634 111.968 244.064C112.02 244.503 112.408 244.9 112.46 245.33C112.52 245.761 113.021 246.131 113.09 246.562C113.159 246.992 112.753 247.5 112.831 247.931C112.909 248.362 113.21 248.749 113.297 249.18C113.383 249.61 113.417 250.05 113.512 250.472C113.607 250.902 113.512 251.367 113.616 251.798C113.719 252.22 114.177 252.556 114.289 252.978C114.401 253.4 114.349 253.865 114.478 254.287C114.599 254.709 114.591 255.165 114.729 255.587C114.867 256.001 114.849 256.474 114.996 256.888C115.143 257.301 116.023 257.439 116.178 257.843C116.333 258.248 116.333 258.705 116.506 259.109C116.678 259.514 116.488 260.065 116.661 260.462C116.842 260.858 116.721 261.4 116.911 261.796C117.101 262.193 117.541 262.468 117.739 262.856C117.938 263.243 118.317 263.536 118.524 263.924C118.731 264.302 118.628 264.647 118.852 265.026C118.585 265.629 118.403 264.957 117.687 265.37C117.36 265.56 117.351 266.361 116.937 266.654C116.609 266.886 116.23 267.093 115.876 267.403C115.565 267.678 114.936 267.661 114.616 268.006C114.323 268.316 114.306 268.884 114.03 269.246C113.771 269.582 113.176 269.711 112.934 270.098C112.71 270.46 112.494 270.873 112.287 271.278C112.098 271.657 111.787 272.036 111.623 272.458C111.468 272.854 111.606 273.388 111.468 273.827C111.347 274.241 111.166 274.654 111.071 275.102C110.985 275.524 110.648 275.937 110.597 276.385C110.545 276.816 111.287 277.324 111.261 277.78C111.235 278.211 110.467 279.003 110.467 279.46C110.924 279.916 111.295 278.59 112.141 278.59C112.503 278.59 112.943 279.494 113.443 279.494C113.831 279.494 114.271 278.71 114.737 278.71C115.143 278.71 115.574 278.59 116.031 278.59C116.445 278.59 116.877 279.623 117.334 279.623C117.748 279.623 118.188 279.296 118.636 279.296C119.059 279.296 119.49 278.908 119.939 278.908C120.362 278.908 120.793 278.702 121.241 278.702C121.69 278.702 122.104 279.184 122.544 279.184C122.984 279.184 123.407 278.633 123.847 278.633C124.286 278.633 124.709 278.616 125.149 278.616C125.589 278.616 126.012 279.012 126.452 279.012C126.892 279.012 127.314 279.537 127.754 279.537C128.194 279.537 128.617 279.218 129.057 279.218C129.497 279.218 129.919 279.141 130.359 279.141C130.799 279.141 131.222 278.693 131.662 278.693C132.102 278.693 132.524 278.977 132.956 278.977C133.387 278.977 133.818 279.425 134.25 279.425C134.681 279.425 135.112 278.719 135.544 278.719C135.975 278.719 136.406 279.055 136.838 279.055C137.269 279.055 137.7 278.581 138.14 278.581C138.58 278.581 139.003 278.865 139.443 278.865C139.883 278.865 140.305 279.003 140.745 279.003C141.185 279.003 141.608 278.59 142.048 278.59C142.488 278.59 142.91 279.262 143.35 279.262C143.79 279.262 144.213 279.262 144.653 279.262C145.093 279.262 145.524 279.529 145.955 279.529C146.387 279.529 146.827 279.554 147.258 279.554C147.689 279.554 148.129 278.986 148.561 278.986C148.992 278.986 149.423 278.598 149.863 278.598C150.303 278.598 150.726 279.158 151.166 279.158C151.606 279.158 152.037 279.606 152.468 279.606C152.9 279.606 153.339 279.193 153.771 279.193C154.202 279.193 154.642 278.995 155.073 278.995C155.505 278.995 155.945 279.262 156.376 279.262C156.807 279.262 157.247 278.667 157.687 278.667C158.127 278.667 158.558 278.616 158.998 278.616C159.438 278.616 159.869 279.175 160.309 279.175C160.749 279.175 161.181 278.59 161.621 278.59C162.061 278.59 162.492 279.167 162.932 279.167C163.372 279.167 163.803 278.779 164.243 278.779C164.683 278.779 165.114 278.65 165.554 278.65C165.994 278.65 166.434 279.468 166.865 279.468C167.297 279.468 167.745 279.373 168.176 279.373C168.608 279.373 169.056 279.615 169.488 279.615C169.919 279.615 170.368 278.538 170.799 278.538C171.23 278.538 171.679 278.9 172.11 278.9C172.541 278.9 172.99 279.029 173.421 279.029C173.853 279.029 174.301 279.201 174.732 279.201C175.164 279.201 175.612 278.771 176.044 278.771C176.475 278.771 176.923 279.494 177.355 279.494C177.786 279.494 178.235 278.788 178.666 278.788C179.097 278.788 179.546 279.382 179.977 279.382C180.408 279.382 180.857 278.693 181.288 278.693C181.72 278.693 182.168 278.581 182.599 278.581C183.031 278.581 183.479 279.503 183.911 279.503C184.342 279.503 184.791 279.503 185.222 279.503C185.653 279.503 186.102 279.58 186.533 279.58C186.964 279.58 187.413 279.158 187.844 279.158C188.275 279.158 188.724 279.201 189.155 279.201C189.587 279.201 190.035 279.546 190.467 279.546C190.898 279.546 191.346 279.563 191.778 279.563C192.209 279.563 192.658 278.762 193.089 278.762C193.52 278.762 193.969 279.21 194.391 279.21C194.814 279.21 195.271 279.434 195.694 279.434C196.117 279.434 196.574 279.382 196.997 279.382C197.419 279.382 197.876 278.9 198.299 278.9C198.722 278.9 199.179 278.745 199.602 278.745C200.024 278.745 200.482 279.305 200.904 279.305C201.353 279.305 201.784 279.52 202.207 279.52C202.655 279.52 203.087 278.762 203.509 278.762C203.967 278.762 204.398 279.339 204.812 279.339C205.269 279.339 205.709 279.615 206.114 279.615C206.58 279.615 207.012 279.46 207.417 279.46C207.9 279.46 208.331 279.46 208.72 279.46C209.229 279.46 209.66 279.434 210.005 279.434C210.41 279.434 210.859 279.236 211.307 279.193C211.713 279.15 212.17 279.175 212.619 279.098C213.024 279.02 213.352 278.469 213.792 278.366C214.197 278.263 214.732 278.59 215.163 278.461C215.569 278.34 215.966 278.133 216.38 277.987C216.776 277.849 217.259 277.875 217.674 277.711C218.07 277.556 218.329 277.031 218.735 276.859C219.123 276.695 219.58 276.643 219.977 276.454C220.365 276.273 220.857 276.299 221.253 276.101C221.633 275.911 221.711 275.111 222.099 274.904C222.478 274.706 223.229 275.171 223.608 274.956C223.979 274.74 224.221 274.275 224.592 274.051C224.963 273.827 225.075 273.199 225.446 272.966C225.808 272.734 226.421 272.889 226.783 272.648C227.136 272.406 227.231 271.786 227.585 271.537C227.939 271.287 228.491 271.33 228.844 271.072C229.19 270.813 229.422 270.417 229.767 270.15C230.104 269.883 230.725 269.969 231.061 269.694C231.398 269.427 231.32 268.66 231.648 268.376C231.976 268.1 232.416 267.963 232.743 267.67C233.063 267.386 233.27 266.972 233.589 266.679C233.899 266.387 234.339 266.223 234.65 265.922C234.96 265.62 235.202 265.258 235.504 264.948C235.806 264.638 236.194 264.414 236.487 264.096C236.781 263.777 236.85 263.269 237.134 262.942C237.419 262.615 238.351 262.847 238.627 262.511C238.903 262.184 239.023 261.71 239.291 261.366C239.558 261.03 239.23 260.229 239.489 259.876C239.748 259.531 240.136 259.29 240.395 258.937C240.645 258.584 241.171 258.429 241.413 258.067C241.654 257.706 241.939 257.378 242.172 257.008C242.405 256.646 242.888 256.431 243.112 256.061C243.336 255.69 243.362 255.2 243.578 254.821C243.794 254.442 243.449 253.77 243.656 253.391C243.854 253.012 244.415 252.814 244.613 252.427C244.803 252.039 245.165 251.729 245.346 251.333C245.528 250.937 246.011 250.67 246.183 250.274C246.356 249.877 246.502 249.455 246.658 249.051C246.813 248.646 246.14 247.931 246.287 247.526C246.433 247.122 246.658 246.751 246.796 246.338C246.925 245.924 247.417 245.632 247.537 245.21C247.658 244.796 248.055 244.452 248.158 244.03C248.262 243.608 247.744 243.039 247.839 242.617C247.934 242.195 248.279 241.825 248.357 241.403C248.435 240.981 248.374 240.533 248.443 240.103C248.512 239.672 248.478 239.242 248.538 238.802C248.59 238.372 249.349 238.019 249.383 237.579C249.427 237.14 249.521 236.701 249.547 236.279C249.582 235.84 248.711 235.349 248.728 234.927C248.745 234.488 249.082 234.066 249.09 233.644C249.099 233.205 249.012 232.774 249.004 232.343C249.004 231.896 248.823 231.474 248.805 231.043C248.788 230.595 248.754 230.173 248.719 229.743C248.685 229.303 248.935 228.847 248.892 228.425C248.849 227.986 249.306 227.486 249.245 227.056C249.185 226.616 248.167 226.341 248.089 225.919C248.012 225.488 248.012 225.058 247.917 224.644C247.822 224.214 247.917 223.757 247.813 223.344C247.701 222.922 247.598 222.508 247.477 222.095C247.348 221.673 247.46 221.191 247.322 220.786C247.184 220.373 246.649 220.106 246.494 219.71C246.338 219.296 246.192 218.9 246.028 218.512C245.855 218.108 246.295 217.445 246.114 217.057C245.933 216.661 245.182 216.532 244.993 216.144C244.794 215.748 244.501 215.421 244.294 215.042C244.087 214.654 244.285 214.06 244.07 213.681C243.854 213.302 243.535 212.984 243.319 212.613C243.095 212.234 242.888 211.855 242.672 211.485C242.448 211.106 242.603 210.503 242.37 210.133C242.146 209.754 241.715 209.504 241.49 209.134C241.266 208.764 240.671 208.609 240.447 208.238C240.222 207.859 240.542 207.179 240.326 206.8C240.11 206.421 240.007 205.991 239.8 205.612C239.593 205.233 239.282 204.914 239.092 204.535C238.903 204.148 237.945 204.122 237.764 203.726C237.591 203.33 237.566 202.847 237.41 202.451C237.255 202.046 237.005 201.659 236.867 201.245C236.737 200.841 236.867 200.333 236.755 199.911C236.651 199.497 236.246 199.118 236.168 198.696C236.09 198.274 236.297 197.783 236.246 197.353C236.194 196.931 235.978 196.5 235.952 196.061C235.927 195.639 235.883 195.183 235.883 194.743C235.883 194.321 235.97 193.865 236.004 193.426C236.03 193.004 236.574 192.616 236.634 192.186C236.686 191.764 236.125 191.238 236.203 190.799C236.28 190.386 237.35 190.162 237.453 189.723C237.557 189.283 237.307 188.784 237.428 188.37C237.548 187.94 237.289 187.397 237.428 186.993C237.574 186.571 238.118 186.295 238.282 185.899C238.445 185.485 238.808 185.175 238.997 184.788C239.187 184.383 238.721 183.651 238.92 183.281C239.136 182.885 239.886 182.816 240.119 182.454C240.36 182.075 239.981 181.274 240.24 180.93C240.507 180.568 241.309 180.628 241.585 180.301C241.87 179.957 241.965 179.457 242.267 179.147C242.577 178.828 242.836 178.449 243.155 178.157C243.483 177.855 244.052 177.838 244.38 177.554C244.717 177.27 245.277 177.278 245.614 177.011C245.967 176.744 246.045 176.133 246.399 175.874C246.761 175.616 247.356 175.711 247.71 175.47C248.081 175.22 248.271 174.712 248.633 174.471C249.004 174.221 249.487 174.152 249.841 173.911C250.212 173.661 250.298 173.007 250.651 172.757C251.014 172.499 251.212 172.042 251.557 171.784C251.911 171.517 252.265 171.284 252.584 171C252.92 170.707 253.179 170.397 253.481 170.079C253.783 169.76 254.663 169.932 254.921 169.579C255.18 169.235 254.663 168.382 254.878 167.994C255.085 167.616 255.215 167.288 255.37 166.866C255.517 166.47 255.612 166.126 255.706 165.686C255.793 165.273 255.896 164.911 255.931 164.464C255.965 164.05 256.931 163.637 256.914 163.18C256.905 162.767 256.543 162.328 256.491 161.871L256.578 161.811Z" fill="black"/>
<path d="M165.442 96.7558C166.442 93.5005 169.151 93.578 168.142 99.2705C167.133 104.954 169.004 107.839 172.99 109.898C176.975 111.956 182.806 113.894 179.071 120.775C175.336 127.656 167.788 128.93 159.567 125.02C151.347 121.111 151.519 111.465 156.548 107.676C161.577 103.887 163.889 101.828 165.442 96.7558Z" fill="#F9F9F9"/>
<path d="M169.181 111.968C169.389 110.759 167.643 109.45 165.282 109.045C162.92 108.64 160.837 109.292 160.628 110.501C160.42 111.711 162.166 113.019 164.528 113.425C166.889 113.83 168.973 113.178 169.181 111.968Z" fill="black"/>
<path d="M94.3791 60.0428C87.8836 56.7185 83.4152 54.7033 79.7577 48.184C76.1002 41.6648 73.7625 29.5218 81.1379 19.2477C88.5046 8.9736 102.962 2.59211 107.845 2.89353C112.727 3.18634 124.847 4.60732 129.048 8.36215C133.249 12.1256 137.251 14.9762 140.831 22.3567C144.411 29.7285 145.61 36.2564 143.134 41.527C140.659 46.7975 135.491 51.8872 129.807 57.6745C124.122 63.4617 120.508 64.5124 117.842 68.1811C115.177 71.8498 115.375 73.8306 113.081 71.0575C110.786 68.2845 110.01 66.5018 107.853 64.831C105.697 63.1603 96.9065 61.3173 96.9065 61.3173L94.3791 60.0428Z" fill="#FFF597"/>
<path d="M83.743 12.2979C83.4325 12.608 82.9235 12.7113 82.613 13.0386C82.3111 13.3572 82.0264 13.6845 81.7245 14.029C81.4226 14.3734 81.2414 14.761 80.9568 15.1141C80.6721 15.4672 79.9993 15.493 79.7318 15.8547C79.4644 16.2164 79.6628 16.8881 79.4127 17.2585C79.1625 17.6288 78.2568 17.5685 78.0239 17.9474C77.791 18.3263 78.3775 19.1789 78.1533 19.5751C77.9376 19.9626 77.3855 20.1521 77.1785 20.5569C76.9715 20.9616 76.4539 21.1941 76.2641 21.6075C76.0743 22.0209 76.0398 22.4859 75.8673 22.8993C75.7034 23.3041 75.8673 23.838 75.7034 24.2686C75.5395 24.6992 75.6517 25.1729 75.5136 25.5949C75.3842 26.0169 74.9788 26.3441 74.8667 26.7833C74.7545 27.2225 74.3836 27.5756 74.2801 28.0148C74.1852 28.4454 73.9437 28.8588 73.8574 29.298C73.7712 29.7373 73.3312 30.1248 73.2622 30.5726C73.1932 31.0204 73.3916 31.5027 73.3398 31.9505C73.2881 32.3984 73.9264 32.8979 73.8919 33.3457C73.8574 33.7935 73.314 34.1983 73.2967 34.6461C73.2795 35.0939 73.1328 35.5331 73.1328 35.9896C73.1328 36.446 73.4779 36.8766 73.4865 37.3244C73.4951 37.7722 73.9782 38.1856 74.0041 38.6334C74.0299 39.0813 73.1759 39.5808 73.2105 40.0286C73.245 40.4764 74.1162 40.8295 74.168 41.2773C74.2197 41.7252 73.6418 42.2419 73.7108 42.6897C73.7798 43.1375 74.513 43.4562 74.5906 43.904C74.6683 44.3518 74.4009 44.8341 74.4958 45.2819C74.5906 45.7297 73.9868 46.3067 74.0817 46.746C74.1852 47.1938 74.3232 47.6674 74.4526 48.0894C74.582 48.5114 75.3152 48.7698 75.4791 49.1832C75.6517 49.6051 75.3497 50.251 75.5481 50.6472C75.7465 51.052 76.566 51.1381 76.7989 51.517C77.0318 51.8959 77.3079 52.2404 77.5753 52.6107C77.8427 52.981 78.0066 53.403 78.2913 53.7475C78.5846 54.092 79.0763 54.2384 79.3868 54.557C79.6973 54.8757 79.4041 55.8488 79.7405 56.1503C80.0769 56.4517 80.6721 56.4775 81.0258 56.7617C81.3794 57.0459 82.0868 56.8306 82.4577 57.089C82.8286 57.3473 82.7251 58.3205 83.1133 58.553C83.5015 58.7855 84.321 58.286 84.7178 58.5013C85.1146 58.7252 85.244 59.4228 85.6494 59.6295C86.0548 59.8362 86.6932 59.5348 87.1072 59.7156C87.5213 59.8965 87.806 60.3615 88.22 60.5338C88.6341 60.706 88.8238 61.4897 89.2379 61.6533C89.652 61.817 90.273 61.4897 90.6957 61.6361C91.1184 61.7825 91.5411 61.9634 91.9724 62.1012C92.4037 62.2389 92.904 62.1442 93.3353 62.2734C93.7667 62.4026 94.1117 62.859 94.543 62.9796C94.9743 63.1001 95.4833 62.9796 95.9059 63.0915C96.3286 63.2035 96.829 63.1346 97.2603 63.2379C97.7088 63.3413 98.0711 63.7719 98.4938 63.8666C98.951 63.97 99.3996 64.0302 99.8222 64.125C100.262 64.2197 100.676 64.3403 101.073 64.4264C101.522 64.5297 101.979 64.4867 102.358 64.5814C102.841 64.702 103.29 64.7192 103.626 64.8312C103.989 64.9517 104.032 65.6924 104.411 65.9766C104.731 66.2091 105.343 66.1057 105.671 66.433C105.964 66.7172 106.275 67.0186 106.568 67.3631C106.844 67.6817 107.336 67.8454 107.603 68.1898C107.87 68.5343 108.138 68.8788 108.388 69.2319C108.638 69.585 108.828 69.9897 109.07 70.3428C109.311 70.7045 109.647 71.0146 109.872 71.3591C110.113 71.738 110.26 72.16 110.476 72.5045C110.726 72.9092 110.847 73.3398 111.045 73.6671C111.295 74.0718 111.192 74.6574 111.416 75.0105C111.675 75.4153 111.89 75.8287 112.132 76.1559C112.425 76.5521 112.727 76.9482 113.029 77.2152C113.383 77.5253 114.047 77.1894 114.461 77.3013C114.849 77.4133 115.237 78.0161 115.729 77.9386C115.893 77.9128 115.996 77.5941 116.152 77.5339C116.635 77.3616 116.712 76.7502 117.066 76.3626C117.42 75.9751 118.205 75.8631 118.317 75.3722C118.42 74.9244 118.084 74.3819 118.187 73.9771C118.308 73.5293 119.102 73.2968 119.223 72.9006C119.361 72.4614 119.033 71.9016 119.179 71.5141C119.335 71.0749 119.274 70.5667 119.447 70.1878C119.637 69.7658 120.016 69.4386 120.223 69.0855C120.456 68.6893 120.413 68.0951 120.663 67.7592C120.939 67.3975 121.448 67.2081 121.75 66.9067C122.052 66.6052 122.449 66.3383 122.794 66.0713C123.139 65.8043 123.708 65.8646 124.088 65.6235C124.45 65.3995 124.571 64.745 124.968 64.5211C125.338 64.3144 125.632 63.9269 126.037 63.7116C126.408 63.5135 127.271 64.1853 127.668 63.9613C128.038 63.7547 128.323 63.3585 128.711 63.126C129.074 62.9107 129.47 62.704 129.859 62.4629C130.221 62.2389 130.1 61.283 130.48 61.0247C130.833 60.7835 131.282 60.6888 131.644 60.4132C131.981 60.1548 132.515 60.1462 132.869 59.862C133.197 59.5951 133.473 59.2506 133.818 58.9492C134.137 58.665 134.292 58.1999 134.62 57.8813C134.931 57.5885 135.293 57.3473 135.612 57.0287C135.914 56.7273 136.596 56.7703 136.906 56.4431C137.2 56.1244 137.665 55.9436 137.959 55.6077C138.235 55.2804 137.984 54.4968 138.269 54.1437C138.554 53.7906 138.959 53.5839 139.235 53.2308C139.511 52.8777 140.253 52.8949 140.521 52.5332C140.788 52.1715 140.141 51.1897 140.391 50.828C140.641 50.4749 141.797 50.7333 142.047 50.3544C142.289 49.9927 142.108 49.3468 142.349 48.9678C142.582 48.5975 142.453 48.0119 142.669 47.6416C142.893 47.2627 143.195 46.9526 143.402 46.5737C143.609 46.1948 143.643 45.7297 143.833 45.3508C144.023 44.9719 144.342 44.6446 144.523 44.2485C144.704 43.8523 145.593 43.749 145.748 43.3528C145.903 42.9567 145.394 42.2849 145.532 41.8802C145.67 41.4754 145.895 41.0879 146.015 40.6745C146.136 40.2611 145.886 39.753 145.99 39.331C146.093 38.909 146.292 38.5301 146.378 38.1081C146.464 37.6775 146.602 37.2814 146.662 36.8594C146.723 36.4374 147.284 36.0671 147.327 35.6365C147.37 35.2059 147.189 34.7494 147.215 34.3188C147.24 33.8882 147.749 33.4576 147.749 33.027C147.749 32.5964 147.137 32.1658 147.111 31.7352C147.085 31.3046 146.792 30.9085 146.749 30.4693C146.706 30.0387 147.076 29.565 147.007 29.1344C146.938 28.7038 147.422 28.1699 147.335 27.7393C147.249 27.3087 146.404 27.0589 146.292 26.6369C146.179 26.2149 146.55 25.6638 146.421 25.2504C146.292 24.837 146.059 24.4495 145.912 24.0361C145.757 23.6141 145.369 23.2869 145.196 22.8735C145.023 22.4601 144.868 22.0467 144.678 21.642C144.489 21.2372 144.635 20.6602 144.428 20.264C144.221 19.8679 143.445 19.7904 143.221 19.4028C142.996 19.0153 142.884 18.5675 142.643 18.1972C142.401 17.8269 142.134 17.4738 141.875 17.1034C141.616 16.7331 141.133 16.5609 140.857 16.2078C140.581 15.8547 140.348 15.493 140.063 15.1485C139.779 14.804 139.977 14.0462 139.684 13.7189C139.391 13.3917 138.83 13.2883 138.519 12.9697C138.209 12.651 137.743 12.4874 137.424 12.1774C137.105 11.8673 136.656 11.7037 136.328 11.4023C136 11.1009 135.871 10.5928 135.535 10.3C135.198 10.0072 135.19 9.31819 134.845 9.04261C134.5 8.76703 133.922 8.76703 133.568 8.50005C133.214 8.23308 132.792 8.05223 132.429 7.79387C132.067 7.53551 131.584 7.458 131.213 7.21687C130.842 6.97573 130.557 6.5968 130.186 6.36428C129.807 6.12314 129.531 5.72699 129.151 5.50308C128.772 5.27917 128.358 5.0897 127.969 4.8744C127.581 4.6591 127.271 4.28878 126.874 4.0821C126.477 3.87541 125.813 4.21989 125.416 4.03043C125.019 3.84096 124.752 3.35008 124.355 3.16923C123.958 2.98837 123.631 2.58361 123.225 2.41998C122.82 2.25635 122.423 1.98077 122.009 1.83437C121.586 1.67935 121.12 1.65351 120.698 1.51572C120.284 1.38654 119.766 1.57601 119.326 1.46405C118.886 1.35209 118.524 1.03345 118.075 0.938717C117.627 0.843985 117.264 0.327265 116.816 0.258369C116.367 0.189473 115.841 0.861209 115.384 0.818149C114.927 0.775089 114.513 0.559789 114.055 0.525341C113.598 0.490893 113.167 0.421997 112.71 0.413385C112.253 0.404773 111.821 0.447833 111.364 0.456445C110.907 0.465057 110.441 -0.0258272 109.993 8.78214e-06C109.544 0.0258448 109.156 0.843985 108.699 0.878433C108.241 0.912881 107.819 0.990389 107.37 1.05067C106.93 1.10234 106.361 0.292817 105.912 0.361713C105.464 0.430609 105.179 1.40377 104.731 1.48127C104.282 1.55878 103.739 1.09373 103.299 1.18846C102.859 1.2832 102.548 1.89465 102.108 1.99799C101.668 2.10134 101.151 1.87743 100.719 1.99799C100.288 2.11856 99.8309 2.17023 99.4082 2.30803C98.9855 2.44582 98.7353 3.10894 98.3127 3.25535C97.89 3.40175 97.381 3.28118 96.9583 3.44481C96.5357 3.60844 96.251 4.05626 95.8369 4.23711C95.4229 4.41797 94.9484 4.42658 94.543 4.61604C94.1376 4.80551 93.6804 4.8744 93.275 5.07248C92.8695 5.27055 92.3088 5.16721 91.9206 5.38251C91.5325 5.59781 91.2651 6.04563 90.8769 6.27816C90.4887 6.51068 90.1954 6.87239 89.8159 7.11352C89.4363 7.35466 88.9964 7.48384 88.6254 7.7422C88.2545 8.00056 88.0216 8.43116 87.6593 8.68952C87.297 8.94788 86.8916 9.13734 86.5379 9.42154C86.1842 9.70573 85.451 9.51627 85.1146 9.80908C84.7782 10.1019 84.7782 10.7822 84.4417 11.0923C84.1226 11.3851 84.0794 11.9707 83.7516 12.2893L83.743 12.2979ZM99.8826 57.6315C99.4513 57.5368 98.8561 58.088 98.3989 57.9846C97.9676 57.8813 97.5104 57.8124 97.0619 57.7004C96.6133 57.5885 96.2165 57.3473 95.7766 57.2182C95.3366 57.089 94.8191 57.2268 94.3791 57.0976C93.9392 56.9684 93.7753 55.9694 93.344 55.8316C92.9127 55.6938 92.3692 55.8833 91.9465 55.7283C91.5238 55.5733 90.8769 55.9608 90.4542 55.7886C90.0315 55.6163 89.9539 54.6432 89.5398 54.4537C89.1258 54.2642 88.3408 54.8412 87.9354 54.6345C87.5299 54.4279 87.3919 53.7131 87.0037 53.4805C86.6155 53.248 85.9254 53.4633 85.5459 53.205C85.1663 52.9466 84.9679 52.4213 84.6143 52.1371C84.2606 51.8529 84.3641 51.0692 84.0449 50.7505C83.7258 50.4319 83.0529 50.4749 82.7596 50.1305C82.4664 49.786 82.2248 49.4071 81.966 49.0281C81.7159 48.6492 81.2759 48.3736 81.0689 47.9689C80.8619 47.5641 81.0085 47.0129 80.8446 46.5823C80.6807 46.1517 80.3443 45.7986 80.2408 45.3422C80.1459 44.903 79.8785 44.5068 79.7922 44.0848C79.706 43.6629 79.9561 43.1548 79.8785 42.7241C79.8009 42.2935 79.706 41.8629 79.6456 41.441C79.5852 41.019 79.5593 40.5625 79.5076 40.1405C79.4558 39.7186 79.2747 39.2794 79.2488 38.8487C79.2229 38.4181 79.0935 37.9789 79.0849 37.5483C79.0763 37.1177 79.6973 36.6613 79.6973 36.2393C79.6973 35.8173 79.2229 35.3609 79.2402 34.9303C79.2574 34.4997 79.2574 34.0519 79.2919 33.6213C79.3264 33.1907 79.0849 32.7084 79.1453 32.2864C79.197 31.8472 79.2488 31.3994 79.3178 30.9774C79.3868 30.5554 79.5421 30.1162 79.6283 29.6942C79.7146 29.2722 79.7146 28.7985 79.8181 28.3852C79.9216 27.9718 80.1545 27.5498 80.2753 27.145C80.4047 26.7231 80.6635 26.3355 80.8187 25.9394C80.974 25.5432 81.4916 25.259 81.6555 24.8629C81.8194 24.4667 82.0437 24.0878 82.2334 23.7002C82.4232 23.3127 82.6475 22.9424 82.8545 22.5635C83.0616 22.1845 82.7251 21.4697 82.9494 21.108C83.1737 20.7463 83.9328 20.6946 84.1743 20.3329C84.4245 19.9626 84.4417 19.4545 84.7005 19.11C84.9593 18.7656 84.8817 18.1197 85.1577 17.7838C85.4338 17.4479 86.236 17.5427 86.5207 17.224C86.8053 16.9054 86.7967 16.2681 87.0986 15.9667C87.4005 15.6652 88.22 15.8633 88.5306 15.5791C88.867 15.2777 88.8842 14.6232 89.2293 14.3304C89.5743 14.0376 89.7727 13.5553 90.135 13.2797C90.4973 13.0041 90.9718 12.8836 91.3427 12.6252C91.7136 12.3668 91.8948 11.8071 92.2743 11.5573C92.6539 11.3076 93.1887 11.2903 93.5769 11.0578C93.9651 10.8253 94.3964 10.6444 94.7932 10.4378C95.19 10.2311 95.7593 10.343 96.1647 10.1449C96.5702 9.94687 96.7686 9.29236 97.1826 9.11151C97.5967 8.93065 97.9504 8.56034 98.3644 8.39671C98.7785 8.23308 99.5635 9.00816 99.9861 8.85315C100.409 8.69813 100.728 8.37087 101.133 8.24169C101.539 8.11251 101.962 8.01778 102.376 7.89721C102.79 7.77665 102.988 6.83794 103.411 6.72598C103.833 6.61403 104.308 6.70015 104.731 6.60541C105.153 6.51068 105.645 6.74321 106.068 6.6657C106.49 6.58819 106.913 6.43317 107.336 6.3815C107.758 6.32983 108.172 6.0198 108.604 5.97674C109.035 5.93368 109.492 5.97674 109.915 5.9509C110.338 5.92507 110.812 6.43317 111.235 6.42456C111.657 6.41595 112.089 6.63986 112.511 6.64847C112.934 6.65709 113.4 5.96813 113.831 6.00257C114.262 6.03702 114.685 6.26093 115.108 6.31261C115.531 6.36428 115.867 7.0274 116.29 7.0963C116.712 7.16519 117.368 6.18343 117.773 6.28677C118.205 6.39011 118.325 7.56135 118.722 7.69053C119.145 7.81971 119.714 7.48384 120.137 7.63885C120.551 7.79387 121.129 7.56135 121.543 7.73359C121.957 7.90583 122.328 8.18141 122.742 8.37087C123.156 8.56034 123.639 8.58617 124.045 8.78425C124.45 8.98233 124.778 9.32681 125.183 9.54211C125.589 9.75741 125.58 10.6531 125.968 10.877C126.356 11.1009 127.107 10.7133 127.486 10.9545C127.866 11.1956 128.194 11.5143 128.565 11.764C128.936 12.0138 129.531 11.9621 129.893 12.2291C130.255 12.496 130.557 12.8577 130.911 13.1333C131.265 13.4089 131.584 13.7448 131.92 14.0376C132.257 14.3304 132.265 15.0021 132.602 15.3035C132.938 15.605 133.404 15.7514 133.723 16.07C134.042 16.38 133.991 17.0432 134.292 17.3704C134.594 17.6977 135.345 17.6202 135.638 17.956C135.931 18.2919 136.432 18.4814 136.708 18.8345C136.984 19.1875 136.923 19.8076 137.182 20.1693C137.441 20.531 137.217 21.2114 137.458 21.5903C137.7 21.9692 138.58 21.9434 138.804 22.3309C139.028 22.7185 138.795 23.3471 138.994 23.7433C139.192 24.1394 139.468 24.4925 139.641 24.9059C139.822 25.3193 140.21 25.6379 140.365 26.0599C140.512 26.4733 140.615 26.8953 140.745 27.3001C140.866 27.7134 140.59 28.2215 140.693 28.6435C140.797 29.0655 141.495 29.3669 141.564 29.7889C141.633 30.2109 141.547 30.676 141.59 31.1066C141.633 31.5372 141.685 31.9764 141.694 32.407C141.702 32.8376 141.987 33.294 141.97 33.7246C141.953 34.1552 141.884 34.6116 141.84 35.0422C141.797 35.4728 141.099 35.8173 141.03 36.2479C140.961 36.6699 141.211 37.1608 141.116 37.5828C141.021 38.0048 141.116 38.487 140.995 38.909C140.874 39.3224 140.917 39.8133 140.771 40.2267C140.624 40.64 140.193 40.9501 140.02 41.3548C139.848 41.7596 139.201 41.9318 139.02 42.328C138.838 42.7155 138.968 43.2581 138.761 43.6456C138.554 44.0332 138.442 44.4552 138.226 44.8341C138.01 45.213 137.959 45.6953 137.726 46.0656C137.484 46.4445 137.113 46.7287 136.88 47.0818C136.63 47.4521 136.225 47.7019 135.983 48.0464C135.724 48.4081 135.509 48.787 135.25 49.1229C134.983 49.4846 134.577 49.7171 134.318 50.0443C134.042 50.3974 134.232 51.1122 133.965 51.4309C133.68 51.7754 133.128 51.8873 132.852 52.1973C132.559 52.5332 132.076 52.671 131.782 52.9724C131.472 53.2911 131.084 53.5064 130.782 53.7906C130.454 54.1006 130.221 54.4709 129.91 54.7465C129.574 55.0393 129.445 55.5646 129.117 55.823C128.763 56.0986 128.271 56.1675 127.935 56.4172C127.573 56.6756 126.969 56.5292 126.615 56.7617C126.244 57.0028 126.27 57.8468 125.908 58.0621C125.546 58.2774 125.062 58.3463 124.692 58.5444C124.321 58.7425 123.907 58.9147 123.536 59.1214C123.139 59.3367 122.777 59.5864 122.397 59.8018C122.017 60.0171 121.362 59.8017 120.982 60.0257C120.603 60.2496 120.654 61.1538 120.292 61.4036C119.93 61.6533 119.611 61.9203 119.266 62.2045C118.921 62.4887 118.006 62.1098 117.678 62.4198C117.351 62.7298 117.713 63.6685 117.42 64.013C117.135 64.3403 116.419 64.3231 116.152 64.6934C115.901 65.0378 116.1 65.6924 115.858 66.0885C115.634 66.4588 115.116 66.6655 114.909 67.0789C114.72 67.4578 114.513 67.7851 114.331 68.2157C114.099 67.854 113.477 67.8367 113.236 67.4837C112.994 67.1306 113.003 66.6225 112.762 66.278C112.52 65.9335 112.02 65.7785 111.761 65.4426C111.502 65.1067 111.39 64.6675 111.123 64.3403C110.847 64.0044 110.683 63.6083 110.407 63.2982C110.131 62.9882 110.079 62.4284 109.777 62.1356C109.466 61.8342 108.975 61.7481 108.647 61.4811C108.319 61.2141 107.888 61.0935 107.543 60.861C107.198 60.6285 106.904 60.3012 106.525 60.1118C106.145 59.9223 105.697 59.9654 105.3 59.8362C104.877 59.6984 104.454 59.4745 103.937 59.3453C103.488 59.2334 103.152 58.5272 102.652 58.4152C102.194 58.3119 101.599 58.708 101.09 58.5961C100.668 58.5013 100.357 57.7865 99.8999 57.6832L99.8826 57.6315Z" fill="black"/>
<path d="M107.784 42.5349C108.164 42.2421 108.794 42.4057 109.225 42.1732C109.656 41.9407 109.717 40.8297 110.174 40.6747C110.631 40.5197 111.269 40.8039 111.735 40.735C112.201 40.6661 112.71 41.2259 113.176 41.2517C113.676 41.2775 114.306 40.4594 114.746 40.5972L114.565 41.1914C115.004 41.3292 115.531 41.2431 115.936 41.4584C116.342 41.6737 116.514 42.2249 116.885 42.5091C117.256 42.7933 117.998 42.6555 118.317 42.9913C118.636 43.3272 118.36 44.1281 118.627 44.5157C118.895 44.9032 119.067 45.2563 119.266 45.6783C119.464 46.1003 119.904 46.3758 120.042 46.8151C120.18 47.2543 119.947 47.7279 120.008 48.193C120.059 48.615 120.982 48.9939 120.974 49.3987C120.965 49.8034 120.819 50.3029 120.732 50.7077C120.646 51.1124 120.637 51.655 120.473 52.0339C120.31 52.4129 119.956 52.809 119.714 53.1535C119.473 53.498 118.973 53.6874 118.662 53.9802C118.351 54.2731 118.015 54.5486 117.653 54.7725C117.316 54.9878 116.687 54.6348 116.333 54.807C115.979 54.9792 115.833 55.6079 115.47 55.7457C115.013 55.9093 114.565 56.1849 114.099 56.2883C113.633 56.3916 113.115 56.6241 112.641 56.6586C112.166 56.693 111.623 56.5122 111.149 56.4691C110.657 56.4261 110.182 56.2021 109.725 56.073C109.268 55.9438 108.776 55.7801 108.354 55.5648C107.983 55.3668 107.802 54.9017 107.482 54.652C107.163 54.4022 106.68 54.3075 106.413 53.9975C106.145 53.6874 105.533 53.5496 105.326 53.1879C105.119 52.8262 105.119 52.3095 104.972 51.9134C104.826 51.5172 104.524 51.1297 104.437 50.7163C104.36 50.3201 104.437 49.8379 104.412 49.4159C104.386 48.9681 105.171 48.5547 105.205 48.1327C105.24 47.7107 104.86 47.2198 104.964 46.8064C105.067 46.3931 105.343 46.0228 105.507 45.6266C105.671 45.2304 105.455 44.6018 105.697 44.2315C105.93 43.8698 106.335 43.5683 106.628 43.2411C106.922 42.9138 107.422 42.8019 107.767 42.5349H107.784Z" fill="black"/>
<path d="M111.726 38.7455C111.494 38.8575 111.338 39.0039 111.105 39.09C110.7 39.2364 110.381 39.3053 110.001 39.3656C109.579 39.4345 109.225 40.3129 108.845 40.2957C108.414 40.2785 107.948 40.089 107.577 39.9857C107.155 39.8651 107.077 39.0728 106.766 38.8747C106.266 38.5561 105.757 38.3752 105.533 37.824C105.403 37.5226 105.636 36.9628 105.447 36.4375C105.309 36.0672 104.498 35.8863 104.334 35.4213C104.196 35.0251 104.472 34.4654 104.317 34.0175C104.179 33.6128 103.92 33.2339 103.773 32.7946C103.635 32.3813 102.979 32.1315 102.841 31.6923C102.703 31.2789 102.755 30.7967 102.617 30.3574C102.488 29.9441 102.721 29.4015 102.591 28.9709C102.462 28.5403 102.565 28.0494 102.436 27.6274C102.307 27.2055 101.927 26.8437 101.806 26.4218C101.677 25.9912 101.323 25.6295 101.202 25.1989C101.082 24.7683 101.28 24.2429 101.159 23.8209C101.039 23.3817 100.538 23.0545 100.426 22.6325C100.314 22.1847 99.9172 21.8229 99.8137 21.401C99.7015 20.9531 100.047 20.402 99.9517 19.9886C99.8482 19.5235 100.297 18.9896 100.219 18.5762C100.124 18.0939 98.9942 17.8184 98.9424 17.4308C98.8734 16.8883 99.8568 16.406 99.8741 16.0701C99.8999 15.6568 99.7792 15.3123 99.9172 14.9333C100.055 14.5544 100.349 14.3477 100.599 14.0119C100.849 13.676 100.866 13.254 101.194 12.987C101.513 12.7287 101.599 12.0569 101.979 11.8589C102.358 11.6608 103.014 12.1775 103.419 12.0397C103.825 11.9019 104.11 11.4627 104.524 11.3766C104.938 11.2905 105.395 11.523 105.809 11.4713C106.223 11.4196 106.637 11.2474 107.042 11.2216C107.482 11.1957 107.905 10.7651 108.302 10.7651C108.768 10.7651 109.182 11.256 109.553 11.2732C110.26 11.3163 110.683 11.6177 110.752 11.6263C111.2 11.6866 111.597 11.4885 111.951 11.6866C112.322 11.8847 112.322 12.367 112.606 12.7028C112.865 13.0043 113.124 13.2109 113.331 13.6157C113.512 13.9688 114.323 14.0808 114.47 14.5114C114.599 14.8903 114.72 15.3295 114.832 15.7601C114.935 16.1562 114.28 16.7333 114.366 17.1725C114.444 17.5772 115.306 17.8528 115.384 18.292C115.384 18.3179 114.78 18.8863 114.875 19.6699C114.918 20.0317 115.625 20.3934 115.677 20.8756C115.72 21.2718 115.22 21.7541 115.255 22.2105C115.289 22.6153 115.263 23.0459 115.298 23.4937C115.324 23.9071 115.479 24.329 115.505 24.7769C115.522 25.1989 115.72 25.6208 115.729 26.0601C115.738 26.4993 116.152 26.9126 116.152 27.3519C116.152 27.7911 115.246 28.2044 115.237 28.635C115.229 29.0656 115.643 29.5135 115.617 29.9441C115.591 30.3747 115.962 30.8483 115.919 31.2789C115.876 31.7095 115.694 32.1401 115.634 32.5621C115.574 32.9841 115.643 33.475 115.556 33.8884C115.462 34.3276 115.505 34.8185 115.384 35.2232C115.255 35.6538 114.651 35.9294 114.487 36.3169C114.306 36.7303 113.797 36.9284 113.572 37.2815C113.331 37.6604 113.296 38.1427 113.003 38.4355C112.684 38.7369 112.123 38.5388 111.735 38.7283L111.726 38.7455Z" fill="black"/>
<path d="M225.058 51.095C225.558 51.2586 225.955 51.827 226.283 52.1973C226.61 52.5677 226.248 53.2222 226.343 53.7217C226.438 54.2212 226.748 54.557 226.576 55.0565C226.352 55.711 226.403 55.7283 226.179 56.3742C225.955 57.0287 226.412 57.1751 226.188 57.8296C225.963 58.4841 225.291 58.2516 225.066 58.9061C224.842 59.5606 225.187 59.6726 224.963 60.3271C224.738 60.9816 224.98 61.0591 224.764 61.7136C224.54 62.3681 224.255 62.2734 224.031 62.9193C223.807 63.5652 224.333 63.7546 224.117 64.4092C223.893 65.0637 223.013 64.7623 222.798 65.4168C222.582 66.0713 223.445 66.3641 223.22 67.0186C222.996 67.6731 222.435 67.4836 222.22 68.1382C221.995 68.7927 222.056 68.8185 221.84 69.473C221.616 70.1275 221.383 70.05 221.159 70.7045C220.934 71.359 221.202 71.4538 220.977 72.1083C220.753 72.7628 220.598 72.7111 220.374 73.3743C220.201 73.8737 220.02 74.2699 219.649 74.5972C219.278 74.9244 218.976 75.7167 218.476 75.8201C217.976 75.9234 217.285 75.7253 216.785 75.5531C216.578 75.4842 216.768 74.623 216.587 74.5196C216.207 74.2871 215.517 74.511 215.284 74.1493C215.051 73.7876 214.948 73.314 214.887 72.8834C214.827 72.4528 214.542 71.893 214.689 71.4624C214.913 70.8079 215.595 71.0404 215.81 70.3859C216.026 69.7314 216.164 69.783 216.388 69.1285C216.613 68.474 216.302 68.3707 216.526 67.7248C216.751 67.0703 216.431 66.9583 216.647 66.3038C216.863 65.6493 217.173 65.7526 217.389 65.0981C217.613 64.4436 217.07 64.2628 217.294 63.6082C217.518 62.9537 217.475 62.9365 217.691 62.282C217.915 61.6275 218.433 61.8083 218.657 61.1538C218.881 60.4993 219.321 60.6543 219.545 59.9998C219.77 59.3453 218.829 59.0267 219.045 58.3808C219.261 57.7349 219.778 57.8985 220.003 57.244C220.227 56.5895 220.029 56.5206 220.253 55.8661C220.477 55.2029 221.081 55.4096 221.305 54.7551C221.529 54.092 220.581 53.782 220.805 53.1188C220.977 52.6193 221.831 52.4729 222.202 52.1457C222.573 51.8184 222.892 51.2156 223.384 51.1122C223.876 51.0089 224.549 50.9314 225.049 51.095H225.058Z" fill="black"/>
<path d="M102.393 87.0158C102.781 86.6627 103.273 86.6541 103.756 86.5507C104.239 86.4474 104.774 86.0598 105.257 86.2148C105.74 86.3699 106.24 86.6885 106.594 87.076C107.043 87.5669 107.258 87.3689 107.707 87.8684C108.155 88.3592 107.836 88.6434 108.285 89.1343C108.733 89.6252 108.509 89.8233 108.958 90.3228C109.406 90.8223 109.812 90.452 110.26 90.9428C110.709 91.4337 110.122 91.9591 110.571 92.4585C111.019 92.958 111.735 92.3035 112.184 92.7944C112.632 93.2853 112.529 93.38 112.977 93.8709C113.426 94.3704 113.012 94.7407 113.461 95.2402C113.909 95.7397 113.676 95.9464 114.133 96.4459C114.591 96.9454 115.212 96.377 115.66 96.8765C116.109 97.376 115.928 97.5396 116.376 98.0391C116.73 98.4267 117.325 98.8314 117.429 99.3137C117.532 99.796 116.851 100.33 116.695 100.812C116.54 101.294 116.738 102.026 116.342 102.38C116.066 102.629 115.453 102.302 115.125 102.431C114.798 102.56 114.547 103.31 114.194 103.31C113.788 103.31 113.383 102.836 113.012 102.672C112.641 102.509 112.555 102.061 112.27 101.751C111.822 101.26 111.442 101.604 110.993 101.114C110.545 100.623 110.493 100.674 110.045 100.175C109.596 99.684 109.751 99.5462 109.303 99.0553C108.854 98.5645 108.552 98.8314 108.104 98.3405C107.655 97.8497 107.905 97.6258 107.457 97.1349C107.008 96.644 106.887 96.7473 106.439 96.2564C105.99 95.7656 105.938 95.8086 105.49 95.3177C105.041 94.8269 105.015 94.8527 104.558 94.3532C104.101 93.8537 104.662 93.3542 104.213 92.8633C103.765 92.3724 103.489 92.6136 103.04 92.1141C102.592 91.6146 103.023 91.227 102.566 90.7275C102.212 90.34 101.056 90.3486 100.953 89.8663C100.849 89.3668 101.608 88.8071 101.763 88.3162C101.919 87.8253 102.005 87.3775 102.402 87.0244L102.393 87.0158Z" fill="black"/>
<path d="M120.819 158.047C121.009 158.211 121.112 157.307 121.345 156.557C121.448 156.222 121.664 155.877 121.759 155.395C121.837 155.016 122.717 154.732 122.786 154.275C122.837 153.879 121.983 153.345 122.026 152.906C122.07 152.501 122.139 152.096 122.164 151.657C122.19 151.244 122.449 150.839 122.466 150.408C122.484 149.995 122.811 149.573 122.811 149.142C122.811 148.712 123.113 148.29 123.105 147.859C123.096 147.429 122.354 147.041 122.328 146.619C122.302 146.197 122.173 145.792 122.139 145.362C122.104 144.931 122.949 144.415 122.889 143.984C122.837 143.562 122.527 143.157 122.449 142.735C122.371 142.313 121.94 141.96 121.854 141.538C121.768 141.116 121.448 140.763 121.336 140.35C121.224 139.936 120.983 139.583 120.853 139.178C120.724 138.765 120.525 138.412 120.37 138.016C120.215 137.62 120.068 137.249 119.887 136.862C119.706 136.474 120.137 135.777 119.922 135.415C119.706 135.053 119.654 134.537 119.413 134.183C119.171 133.83 118.861 133.477 118.585 133.15C118.274 132.788 117.653 132.745 117.334 132.487C116.971 132.185 116.445 132.246 116.074 132.065C115.652 131.858 115.402 131.341 114.987 131.273C114.539 131.195 114.047 131.109 113.625 131.195C113.202 131.281 112.546 131.169 112.167 131.402C111.804 131.626 111.511 132.151 111.201 132.495C110.916 132.806 111.08 133.477 110.856 133.882C110.648 134.252 110.7 134.683 110.545 135.122C110.407 135.518 110.062 135.837 109.984 136.293C109.907 136.707 109.199 137.086 109.173 137.542C109.148 137.964 109.613 138.429 109.631 138.886C109.656 139.308 109.38 139.798 109.449 140.246C109.51 140.668 109.889 141.064 109.993 141.504C110.088 141.917 109.812 142.468 109.95 142.899C110.079 143.312 110.752 143.553 110.916 143.975C111.071 144.38 111.494 144.664 111.684 145.078C111.865 145.474 111.658 146.051 111.865 146.456C112.072 146.86 111.899 147.446 112.124 147.842C112.348 148.238 112.943 148.385 113.185 148.764C113.417 149.125 113.34 149.728 113.599 150.098C113.857 150.469 114.108 150.83 114.384 151.192C114.642 151.537 114.901 151.916 115.186 152.269C115.462 152.605 115.893 152.837 116.195 153.173C116.48 153.5 117.377 153.285 117.687 153.612C117.998 153.939 117.989 154.534 118.309 154.852C118.628 155.171 118.981 155.421 119.309 155.731C119.637 156.041 120.189 156.067 120.525 156.377C120.862 156.687 120.474 157.763 120.819 158.056V158.047Z" fill="black"/>
<path d="M154.452 102.173C158.835 102.173 162.388 98.6255 162.388 94.2497C162.388 89.8739 158.835 86.3267 154.452 86.3267C150.069 86.3267 146.516 89.8739 146.516 94.2497C146.516 98.6255 150.069 102.173 154.452 102.173Z" fill="white"/>
<path d="M154.452 99.6238C157.425 99.6238 159.835 97.2178 159.835 94.2499C159.835 91.282 157.425 88.876 154.452 88.876C151.479 88.876 149.069 91.282 149.069 94.2499C149.069 97.2178 151.479 99.6238 154.452 99.6238Z" fill="black"/>
<path d="M152.296 93.6725C153.01 93.6725 153.59 93.0941 153.59 92.3807C153.59 91.6672 153.01 91.0889 152.296 91.0889C151.581 91.0889 151.002 91.6672 151.002 92.3807C151.002 93.0941 151.581 93.6725 152.296 93.6725Z" fill="white"/>
<path d="M180.184 108.037C184.567 108.037 188.12 104.49 188.12 100.114C188.12 95.7387 184.567 92.1914 180.184 92.1914C175.801 92.1914 172.248 95.7387 172.248 100.114C172.248 104.49 175.801 108.037 180.184 108.037Z" fill="white"/>
<path d="M180.184 105.488C183.157 105.488 185.567 103.083 185.567 100.115C185.567 97.1467 183.157 94.7407 180.184 94.7407C177.211 94.7407 174.801 97.1467 174.801 100.115C174.801 103.083 177.211 105.488 180.184 105.488Z" fill="black"/>
<path d="M178.028 99.5372C178.742 99.5372 179.322 98.9589 179.322 98.2454C179.322 97.532 178.742 96.9536 178.028 96.9536C177.313 96.9536 176.734 97.532 176.734 98.2454C176.734 98.9589 177.313 99.5372 178.028 99.5372Z" fill="white"/>
<path d="M179.934 279.735C189.647 278.719 191.251 276.152 189.742 272.656C188.232 269.159 186.386 265.387 178.614 265.723C170.85 266.059 152.338 266.507 148.267 266.188C144.195 265.87 138.407 265.336 137.484 261.262C136.561 257.189 122.5 210.159 122.5 210.159C122.5 210.159 115.858 185.485 114.073 183.255C112.287 181.024 112.477 180.258 108.517 180.068C104.558 179.879 17.5025 179.242 10.9466 179.302C4.38206 179.362 1.68206 179.965 2.38941 183.522C3.09676 187.079 14.0348 231.017 14.0348 231.017C14.0348 231.017 25.2143 271.381 27.0517 274.051C28.8891 276.712 33.0383 279.046 38.6625 279.726C44.2868 280.407 57.2433 280.217 57.2433 280.217L142.237 280.243L179.934 279.726V279.735Z" fill="white"/>
<path d="M180.934 281.156L180.287 281.32L179.641 281.854L178.994 281.793L178.347 281.182L177.7 281.664L177.053 281.75L176.406 281.182L175.759 281.328L175.112 281.165L174.465 281.948L173.818 281.931L173.171 281.897L172.524 281.828L171.877 281.638L171.23 281.544L170.583 281.432L169.936 281.509L169.289 281.923L168.642 281.32L167.995 281.888L167.348 281.647L166.701 281.432L166.054 281.63L165.407 281.699L164.76 281.888L164.113 281.725L163.466 281.707L162.819 281.492L162.172 281.974L161.526 281.191L160.879 281.147L160.232 281.44L159.585 281.182L158.938 281.862L158.291 281.613L157.644 281.303L156.997 281.346L156.35 281.656L155.703 281.518L155.056 281.208L154.409 281.69L153.762 281.828L153.115 281.113L152.468 281.604L151.821 281.699L151.174 281.303L150.519 281.811L149.863 281.285L149.207 281.948L148.552 281.268L147.896 281.681L147.241 281.88L146.585 281.914L145.929 281.69H145.274L144.618 281.363L143.963 281.931L143.307 281.346L142.651 281.277L141.996 281.423L141.34 281.974L140.685 281.182L140.029 281.259L139.373 281.156L138.718 281.647L138.062 281.699L137.407 281.759L136.751 281.88L136.096 281.354L135.44 281.44L134.793 281.475L134.146 281.139L133.499 281.923L132.852 281.905L132.205 281.32L131.558 281.561L130.911 281.458L130.264 281.285L129.617 281.475L128.97 281.561L128.323 281.406L127.676 281.449L127.021 281.294L126.365 281.931L125.71 281.552L125.054 281.664L124.398 282L123.743 281.647L123.087 281.303L122.432 281.449L121.776 281.604L121.12 281.337L120.465 281.526L119.809 281.569L119.154 282.009L118.498 281.561L117.843 281.621L117.187 281.122L116.531 281.328L115.876 281.535L115.22 281.552L114.565 281.363L113.909 281.389L113.253 281.768L112.598 281.604L111.942 281.638L111.287 281.673L110.631 281.75L109.975 281.492L109.32 281.656L108.664 281.449L108.009 281.638H107.353L106.697 281.854L106.042 281.346L105.386 281.802L104.731 281.707L104.075 281.458L103.42 281.544L102.764 281.793L102.108 281.234L101.453 281.544L100.797 281.587L100.142 281.828L99.486 281.793H98.8304L98.1748 281.595L97.5192 281.974L96.8636 281.156L96.208 281.845L95.5524 281.725L94.8969 282L94.2413 281.569L93.5857 281.328L92.9301 281.578L92.2745 281.793L91.6189 281.587L90.9633 281.449L90.3077 281.699L89.6521 281.544L88.9965 281.897L88.341 281.182L87.6854 281.673L87.0298 281.63L86.3742 281.802L85.7186 281.897L85.063 281.561L84.416 281.475L83.7691 281.363L83.1221 281.647L82.4665 281.94L81.8109 281.725L81.1553 281.251L80.4997 281.147L79.8442 281.371L79.1886 281.923L78.533 281.785L77.8774 281.75L77.2218 281.699L76.5662 281.466L75.9106 281.285L75.255 281.914L74.5994 281.94L73.9438 281.561L73.2882 281.613L72.6327 281.725L71.9771 281.371L71.3215 281.518L70.6659 281.974L70.0103 281.836L69.3547 281.337L68.6991 281.501L68.0435 281.587L67.3879 281.871L66.7323 281.147L66.0768 281.475L65.4212 281.277L64.7656 281.966L64.11 281.165L63.4544 281.234L62.7988 281.974L62.1432 281.535L61.4876 281.147L60.832 281.242L60.1764 281.122L59.5209 281.716L58.8653 281.561L58.2097 281.888L57.5541 281.216L56.8985 281.905L56.2429 281.32L55.5873 281.75L54.9317 281.492L54.2761 281.328L53.6205 281.432L52.965 281.569L52.3094 281.621L51.6538 281.638L50.9982 281.854L50.3426 281.991L49.687 281.208L49.0228 281.501L48.3672 281.768L47.7116 281.509L47.0474 281.862L46.3832 281.63L45.7276 281.44L45.072 281.776L44.4078 281.311L43.7436 281.518H43.0793L42.4151 281.561L41.7509 281.871L41.0867 281.707L40.4311 281.432L39.7583 281.578L39.1027 281.414L38.4039 281.699L37.826 280.924L37.1704 280.863L36.5321 280.691H35.8679L35.0829 281.191L34.548 280.57L33.9701 280.183L33.1765 280.519L32.5726 280.235L31.9516 280.002L31.5634 279.227L30.8388 279.244L30.3643 278.736L29.7778 278.461L29.1394 278.262L28.3631 278.228L27.8455 277.797L27.3969 277.281L26.7758 276.971L26.4998 276.299L26.2238 275.662L25.9477 275.05L25.2404 274.775L24.5589 274.439L24.3864 273.75L24.257 273.061L23.541 272.691V271.95L23.2305 271.364L23.127 270.693L22.7474 270.133L22.8251 269.418L22.4024 268.858L22.2212 268.229L22.0746 267.592L22.2126 266.877L21.8589 266.3L21.2637 265.792L21.7813 264.974L21.2896 264.432L20.5995 263.949L20.4442 263.312L20.9445 262.494L20.8238 261.848L20.5909 261.245L19.9267 260.754L20.1682 260.014L19.7628 259.454L19.6592 258.808L19.5126 258.179L19.4781 257.516L19.1762 256.922L19.1417 256.259L18.7104 255.708L18.4775 255.096L18.2704 254.476L17.9081 253.899L17.796 253.253L17.8995 252.556L17.5717 251.97L17.2008 251.393L17.3561 250.678L17.287 250.024L17.1145 249.395L16.8212 248.801L17.0541 248.06L16.1139 247.638L16.1398 246.958L16.6315 246.148L16.3554 245.545L15.5187 245.098L15.9586 244.305L15.2081 243.832V243.151L14.8717 242.574L15.1736 241.825L14.5094 241.334L14.9752 240.533L14.4231 240.008L14.518 239.31L14.2765 238.699L13.9228 238.122L13.7589 237.493L13.5519 236.873L13.1292 236.313L13.457 235.556L13.043 234.987V234.307L13.2155 233.592L12.7928 233.032L12.0337 232.559L12.2321 231.827L11.8612 231.25L11.5938 230.647L11.9388 229.88L11.9992 229.191L11.473 228.657L11.5247 227.968L10.8864 227.46L10.826 226.797L10.9037 226.1L10.8519 225.436L10.3085 224.903L10.5845 224.153L10.3775 223.533L10.1359 222.922L9.76501 222.345L9.1698 221.819L9.06628 221.165L9.21293 220.45L9.44584 219.709L8.79887 219.201L8.90239 218.495L9.04041 217.78L8.23817 217.307L7.93625 216.704L8.10878 215.98L8.25542 215.266L7.84999 214.689L7.53945 214.094L7.76373 213.362L7.28929 212.811L7.46181 212.088L6.56469 211.64L6.87523 210.882L6.97875 210.176L6.28865 209.676L6.02987 209.065L5.86597 208.428L6.00399 207.722L5.68482 207.127L5.3829 206.524L5.33115 205.861L5.07236 205.25L5.22763 204.535L5.16725 203.872L4.9861 203.243L4.57204 202.666L4.67556 201.969L4.12348 201.426L4.64105 200.625L4.47715 199.988L3.56278 199.532L3.86469 198.782L3.39025 198.223L3.89057 197.43L3.34712 196.888L3.07971 196.276L3.14872 195.587L2.80367 194.993L2.95032 194.278L2.31198 193.744L2.15671 193.107L2.41549 192.375L2.23434 191.738L2.2516 191.066L1.48387 190.566L1.65639 189.86L1.83754 189.154L1.49249 188.56L1.13019 187.966L0.86278 187.354L1.24233 186.614L1.3631 185.933L0.966295 185.348L0.785145 184.719L0.50048 184.107L0.103676 183.505L0.673004 182.773L-0.0947266 182.204L0.491854 181.515L-0.0515956 180.792L0.215816 180.111L0.871406 179.672L1.41486 179.276L1.82891 178.802L2.27747 178.337L2.91581 178.174L3.51102 177.976L4.02859 177.364L4.68418 177.244L5.41741 177.717L6.01261 177.252L6.65095 176.985L7.3583 177.554L8.00526 177.381L8.61772 176.581L9.30782 177.183L9.96341 177.063L10.619 176.942L11.2746 176.83L11.9302 176.736L12.5944 176.865H13.25L13.9056 176.606L14.5612 177.037L15.2168 177.011L15.8723 177.123L16.5279 176.891L17.1749 177.347L17.8391 176.632L18.4947 176.856L19.1503 176.744L19.7973 177.399L20.4701 176.598L21.1171 177.132H21.7727L22.4196 177.45L23.0838 177.183L23.7394 177.14L24.4123 176.71L25.0592 177.003H25.7148L26.379 176.951L27.0346 177.054L27.7075 176.813L28.3372 177.588L29.0014 177.347L29.6742 177.097L30.3298 177.244L30.9941 177.123L31.6583 177.063L32.3139 177.14L32.9522 177.597L33.6078 177.769L34.2979 177.097L34.9276 177.924L35.6091 177.58L36.2905 177.27L36.9375 177.735L37.619 177.433L38.2918 177.468H38.9474L39.5771 178.079L40.25 177.519L40.8797 178.062L41.5439 177.821L42.1822 178.26L42.8551 177.562L43.4934 177.941L44.1404 178.217L44.8046 177.743L45.4429 178.139L46.0985 178.182L46.7455 178.312L47.4011 178.01L48.048 178.148L48.695 178.337L49.3592 177.709L50.0148 177.666L50.6704 177.605L51.3087 178.484L51.9729 177.786L52.6199 178.225L53.2841 177.795L53.9311 178.441L54.5953 177.829L55.2509 177.803L55.8979 178.105L56.5534 178.019L57.209 177.933L57.856 178.07L58.503 178.587L59.1586 178.372L59.8055 178.613L60.4611 178.139L61.1081 178.432L61.7637 178.449L62.4279 177.821L63.0748 178.079L63.7218 178.501L64.3774 178.441L65.033 178.036L65.68 178.32L66.3355 178.208L66.9825 178.691L67.6381 178.708L68.3023 177.855L68.9493 178.424L69.5962 178.759L70.2518 178.415L70.9074 178.096L71.563 177.933L72.21 178.656L72.8656 178.458L73.5212 178.32L74.1854 177.933L74.841 177.95L75.4879 178.691L76.1521 178.553L76.8077 178.501L77.4719 178.337L78.1362 178.062L78.7918 178.389L79.4473 178.613L80.1116 178.07L80.7672 178.889L81.4314 178.768L82.0956 178.355L82.7512 178.535L83.4154 178.449L84.071 178.716L84.7266 178.553L85.3822 178.449L86.0378 178.432L86.6933 178.579L87.3576 178.148L88.0132 178.828L88.6687 178.682L89.333 178.174L89.9885 178.243L90.6441 178.647L91.2997 178.596L91.9553 178.639L92.6109 178.613L93.2665 178.992L93.9221 178.863L94.5863 178.286L95.2419 178.432L95.8975 178.346L96.5531 178.759L97.2087 178.415L97.8643 178.613L98.5199 178.492L99.1754 178.957L99.8397 178.527H100.504L101.168 178.303L101.824 178.63L102.479 178.725L103.143 178.208L103.799 178.622L104.455 178.811L105.11 178.742L105.766 178.768L106.421 178.2L107.068 178.82L107.724 178.656L108.38 178.389L109.035 178.2L109.682 178.587L110.329 178.82L110.985 178.475L111.632 178.294L112.279 178.346L112.926 178.777L113.642 178.501L113.849 179.345L114.625 179.5L114.573 180.284L115.005 180.775L115.263 181.36L115.798 181.834L115.927 182.48V183.177L116.411 183.685L116.221 184.443L117.178 184.779L116.73 185.623L117.178 186.149L117.618 186.682L117.325 187.466L117.506 188.086L118.377 188.482L118.162 189.24L118.602 189.783L118.412 190.523L118.99 191.023L118.817 191.764L119.697 192.16L119.585 192.874L119.896 193.46V194.14L120.016 194.778L120.172 195.406L120.439 195.992L120.31 196.707L121.034 197.155L120.724 197.921L121.276 198.429L121.336 199.084L121.638 199.669L122.035 200.221L122.104 200.875L121.828 201.633L122.527 202.098L122.794 202.692L122.88 203.347L122.725 204.07L123.053 204.647L123.079 205.319L123.803 205.784L123.346 206.602L123.674 207.179L123.864 207.799L123.993 208.436L124.467 208.97L124.347 209.676L124.459 210.322L124.804 210.899L125.347 211.416L125.192 212.14L125.339 212.777L126.089 213.233L125.977 213.948L125.649 214.723L126.063 215.274L126.771 215.748L127.038 216.351L126.891 217.074L126.762 217.798L127.581 218.245V218.926L127.607 219.606L128.013 220.175L128.082 220.838L128.504 221.406L128.203 222.173L128.858 222.655L129.022 223.283L128.66 224.067L129.384 224.532L129.195 225.264L129.479 225.858L129.911 226.41L129.652 227.159L130.169 227.684L129.773 228.476L130.566 228.924L130.238 229.699L130.825 230.208L130.506 230.974L131.437 231.387L131.135 232.154L131.351 232.774L131.808 233.316L131.61 234.048L132.11 234.582L131.662 235.392L131.851 236.012L132.628 236.468L132.662 237.14L132.8 237.777L132.99 238.406L132.774 239.147L133.542 239.603L133.525 240.284L133.672 240.921L134.241 241.438L133.715 242.264L133.939 242.876L134.612 243.367L134.638 244.038L135.121 244.581L135.026 245.287L134.741 246.045L135.242 246.579L135.104 247.294L135.449 247.871L135.768 248.456L136.337 248.973L136.199 249.688L136.328 250.325L136.147 251.049L136.57 251.6L136.751 252.22L136.993 252.823L137.631 253.314L137.062 254.149L137.993 254.554L137.614 255.329L138.192 255.837L138.476 256.422L138.149 257.18L138.873 257.645L138.951 258.291L138.778 259.006L138.735 259.686L139.572 260.117L139.753 260.728L139.097 261.581L139.675 262.089L139.839 262.709L140.426 263.209L140.055 264.087L140.857 263.958L141.461 264.328L142.125 264.156L142.764 264.259L143.393 264.578L144.04 264.699L144.704 264.294L145.343 264.501L145.998 264.251L146.637 264.707L147.284 264.75L147.939 264.371L148.586 264.509L149.242 263.958L149.889 264.354L150.536 264.845L151.191 264.104L151.83 264.793L152.477 264.836L153.124 264.38L153.771 263.984L154.418 264.587L155.064 264.699L155.711 264.802L156.35 263.941L157.005 264.363L157.652 264.578L158.299 264.096L158.955 264.311L159.602 264.19L160.257 264.699L160.896 264.173L161.551 264.656L162.198 264.225L162.845 264.277L163.492 264.483L164.131 263.898L164.786 264.475L165.433 264.268L166.08 263.975L166.727 263.76L167.383 264.053L168.038 264.285L168.685 263.88L169.349 264.371L169.988 263.812L170.652 264.165L171.308 264.208L171.963 264.156L172.619 264.13L173.257 263.768L173.93 264.38L174.568 263.674L175.224 263.588L175.905 264.182L176.509 263.596L177.122 263.562L177.743 263.743L178.364 263.915L178.985 264.182L179.589 263.751L180.201 264.156H180.848L181.564 263.57L182.151 264.156L182.858 263.984L183.453 264.32L184.083 264.526L184.799 264.501L185.317 264.974L185.989 265.121L186.55 265.491L187.171 265.766L187.326 266.671L187.775 267.127L188.741 267.024L189.276 267.446V268.333L190.13 268.488L190.044 269.358L190.544 269.805L190.993 270.305L190.872 271.08L191.415 271.554L191.795 272.122L192.192 272.725L191.829 273.448L192.304 274.094L191.933 274.74L191.476 275.309L191.864 276.058L191.407 276.583L190.993 277.083L190.492 277.487L190.63 278.392L190.32 279.02L189.768 279.425L189.216 279.813L188.681 280.26L187.741 279.916L187.309 280.545L186.593 280.51L185.989 280.777L185.36 280.984L184.808 281.621L184.092 281.414L183.376 281.01L182.755 281.432L182.099 281.449L181.443 281.931L180.762 281.13L180.934 281.156ZM3.61453 181.567L3.80431 182.316L4.40814 182.902L4.44265 183.548L3.95096 184.297L4.54616 184.857L4.75319 185.477L4.32188 186.226L4.59792 186.837L4.57204 187.509L5.46916 187.983L5.58993 188.62L5.70207 189.257L5.77971 189.903L5.73658 190.584L5.78833 191.238L5.83146 191.893L6.04712 192.513L6.5992 193.055L6.15926 193.83L6.86661 194.33L6.78034 195.019L6.71996 195.699L7.06501 196.285L7.28929 196.905L7.62571 197.491V198.162L7.76373 198.8L7.71197 199.48L8.33306 199.997L7.72923 200.815L7.84999 201.461L8.29855 202.02L8.20367 202.718L9.02315 203.183L8.94552 203.881L8.79887 204.587L8.99728 205.207L9.45446 205.758L9.48034 206.421L9.34232 207.127L9.97203 207.635L10.2653 208.23L9.7305 209.039L10.3688 209.547L10.619 210.159L10.3947 210.891L11.0503 211.399L10.7053 212.165L11.5075 212.63L11.0158 213.431L11.5765 213.965L11.9302 214.551L12.1286 215.18L12.0768 215.869L12.2407 216.497L12.0855 217.212L12.8014 217.703L12.396 218.478L12.4909 219.124L12.8014 219.718L13.5001 220.209L12.8963 221.044L13.1378 221.656L13.2069 222.319L13.8452 222.827L14.0608 223.447L14.2851 224.067L14.5698 224.67L14.2334 225.436L14.4835 226.048L14.6819 226.677L14.5267 227.4L15.4497 227.839L15.6049 228.476L15.1995 229.26L15.5963 229.837L15.6653 230.5V231.181L16.0276 231.766L16.2778 232.378L16.295 233.058L16.5107 233.687L16.5279 234.367L17.3129 234.841L17.1145 235.573L17.3906 236.184L17.8909 236.735L17.7184 237.459L17.5545 238.182L17.865 238.785L18.1928 239.379L18.1065 240.085L18.4602 240.671L18.6759 241.3L19.2711 241.825L19.0123 242.574L19.2452 243.194L18.9346 243.961L19.3056 244.546L19.6851 245.132L19.8749 245.761L19.8576 246.45L20.056 247.078L20.5995 247.612V248.293L20.8152 248.921L21.0222 249.55L21.2723 250.162L21.1947 250.868L21.5311 251.462L21.5052 252.151L21.8675 252.737L22.0314 253.374L22.4196 253.951L22.1005 254.717L22.7129 255.225L22.7906 255.88L22.7215 256.577L22.9803 257.18L23.3944 257.749L23.0235 258.524L23.4979 259.066L23.7136 259.678L24.119 260.238L24.257 260.875L24.4382 261.504L24.4209 262.192L24.9643 262.718L24.3519 263.562L25.1886 264.001L25.249 264.656L25.6889 265.207L25.456 265.947L25.4043 266.636L25.8183 267.187L26.2065 267.747V268.436L26.2928 269.108L26.7672 269.633L26.888 270.296L27.4918 270.727L27.1813 271.648L27.949 271.958L28.2854 272.527L28.8203 272.94L29.3119 273.362L29.5276 274.06L29.9675 274.568L30.4247 275.067L31.1321 275.214L31.8394 275.309L32.2966 275.808L32.6848 276.523L33.2627 276.876L33.9701 276.902L34.7637 276.583L35.3503 276.893L35.9714 277.083L36.6011 277.263L37.2049 277.608L37.8346 277.884L38.5592 277.341L39.2062 277.375L39.8273 277.806H40.4915L41.1557 277.703L41.8113 278.073L42.4755 277.935L43.1225 277.479L43.7694 277.617L44.4164 278.116L45.0634 277.952L45.7103 277.866L46.3573 277.582L47.0043 278.306L47.6512 277.978L48.2982 278.176L48.9452 277.487L49.5921 278.288L50.2391 278.219L50.886 277.479L51.533 277.918L52.18 278.306L52.8269 278.211L53.4739 278.331L54.1209 277.737L54.7678 277.892L55.4148 277.565L56.0618 278.237L56.7087 277.548L57.3557 278.133L58.0026 277.703L58.6496 277.961L59.2966 278.125L59.9435 278.021L60.5905 277.884L61.2375 277.832L61.8844 277.815L62.5314 277.599L63.1784 277.462L63.8253 278.245L64.4723 277.952L65.1192 277.685L65.7662 277.944L66.4132 277.591L67.0601 277.823L67.7071 278.013L68.3541 277.677L69.001 278.142L69.648 277.935H70.295L70.9419 277.892L71.5889 277.582L72.2359 277.729L72.8914 277.978L73.547 277.789L74.2026 277.909L74.8582 277.565L75.5138 278.262L76.1694 278.237L76.825 278.306L77.4806 278.194L78.1362 277.53L78.7918 278.013L79.4473 278.237L80.1029 277.685L80.7585 277.763H81.4141L82.0697 278.323L82.7253 278.004L83.3809 278.237L84.0365 278.194L84.6921 278.03L85.3477 277.625L86.0033 277.668L86.6588 277.789L87.3144 277.608L87.97 277.892L88.617 278.133L89.264 278.323L89.9109 277.935L90.5579 277.574L91.2048 277.797L91.8518 278.039L92.4988 277.582L93.1457 277.909L93.7927 277.849L94.4397 278.004L95.0866 277.84L95.7336 278.142L96.3892 277.901H97.0448L97.7004 277.927L98.3559 278.254L99.0115 278.073L99.6671 277.642L100.323 278.357L100.978 278.03L101.634 277.496L102.289 277.513L102.945 278.219L103.601 278.271L104.256 278.202L104.912 277.694L105.567 278.125L106.223 277.884L106.879 277.952L107.534 277.978L108.19 278.125L108.845 277.995L109.501 278.133L110.157 277.866L110.812 277.797L111.468 277.754L112.123 277.556L112.779 277.617L113.435 277.901L114.09 277.737L114.746 277.53L115.401 277.866L116.057 277.97H116.712L117.368 277.84L118.024 278.262L118.679 277.47L119.335 277.668L119.99 278.357L120.646 278.254L121.302 277.565L121.957 278.202L122.613 277.608L123.268 277.789L123.924 277.617L124.58 278.099L125.235 277.582L125.891 278.237L126.546 277.84L127.202 278.116L127.858 278.039L128.513 277.849H129.169L129.824 277.815L130.48 277.556L131.135 278.064L131.791 277.815L132.447 278.004L133.102 278.349L133.758 278.082L134.413 277.47L135.069 277.849L135.725 277.642L136.38 277.539L137.036 278.073L137.691 278.314L138.347 277.944L138.994 278.168L139.641 277.685L140.288 277.797L140.943 278.047L141.599 278.168L142.255 277.78L142.91 278.237L143.566 278.194L144.221 278.116L144.877 277.901L145.533 277.462L146.188 277.53L146.844 277.858L147.499 278.271L148.155 277.772L148.811 278.056L149.466 278.366L150.122 277.711L150.777 277.574L151.433 277.927L152.088 278.245L152.744 277.995L153.4 277.84L154.055 278.237L154.711 277.909L155.366 278.254L156.022 277.496L156.678 277.978L157.333 278.254L157.989 277.711L158.644 277.608H159.3L159.956 277.909L160.611 277.746L161.267 277.599L161.922 277.711L162.578 277.608L163.234 277.927L163.889 278.021L164.545 277.995L165.2 277.737L165.856 278.004L166.511 277.599L167.167 278.288H167.823L168.478 277.505L169.134 277.978L169.789 277.651L170.445 278.323L171.101 277.918L171.756 277.797L172.412 278.021L173.067 277.815L173.723 278.125L174.387 277.625H175.043L175.698 278.039L176.363 278.004L177.027 278.168L177.682 277.522L178.338 277.84L179.002 278.168L179.666 277.952L180.331 277.72L180.995 277.574L181.642 278.073L182.306 278.297L182.936 277.961L183.574 277.823L184.178 277.539L184.73 277.117L185.524 277.582L185.886 276.712L186.714 277.022L186.938 276.196L187.473 275.808L188.198 275.498L188.672 274.869L188.724 274.094L188.56 273.414L188.543 272.708L188.301 272.053L187.568 271.683L187.214 271.14L187.24 270.245L186.49 270.012L185.86 269.711L185.713 268.798L185.066 268.514L184.109 268.85L183.781 267.988L183.108 267.833L182.435 267.739L181.763 267.696H181.098L180.443 267.523H179.744L179.054 267.799L178.347 267.386L177.648 267.429L176.941 267.342L176.242 267.601L175.578 267.17L174.939 267.911L174.275 267.713L173.619 267.851L172.938 267.23L172.3 268.066L171.627 267.566L170.971 267.609L170.307 267.308L169.651 267.609L168.996 267.687L168.349 268.161L167.685 267.902L167.029 267.937L166.373 268.031L165.718 267.971L165.062 268.255L164.389 267.515L163.734 267.799L163.078 268.092L162.423 267.988L161.767 268.143L161.111 268.247L160.456 268.212L159.792 267.799L159.136 267.67L158.489 268.376L157.825 267.592L157.178 267.971L156.531 268.324L155.875 267.894L155.228 268.229H154.573L153.917 268.264L153.262 267.678L152.606 268.264L151.959 267.747L151.303 268.006L150.657 267.584L150.001 268.29L149.354 267.928L148.707 267.661L148.043 268.135L147.396 267.739L146.74 267.696L146.093 267.566L145.429 267.859L144.782 267.713L144.144 267.506L143.454 268.109L142.798 268.126L142.134 268.143L141.573 267.222L140.849 267.851L140.262 267.334L139.537 267.652L139.063 266.877L138.243 267.248L137.605 266.912L137.381 266.18L137.079 265.594L136.82 264.991L136.768 264.328L137.088 263.562L136.691 262.993L136.734 262.304L136.096 261.805L136.199 261.099L136.027 260.47L135.233 260.014L135.293 259.325L135.518 258.584L135.276 257.981L134.698 257.464L134.793 256.767L134.5 256.173L134.776 255.415L134.603 254.786L133.594 254.399L133.956 253.624L134.094 252.909L133.577 252.375L133.085 251.832L132.74 251.255L133.258 250.428L132.878 249.86L132.559 249.274L132.007 248.758L131.834 248.129L132.36 247.302L132.041 246.717L131.808 246.105L131.463 245.528L131.015 244.977L131.144 244.262L131.17 243.573L130.463 243.091L131.066 242.247L130.773 241.653L130.187 241.145V240.473L129.911 239.87L129.98 239.173L129.643 238.596L129.358 238.001L129.151 237.381L129.108 236.718L128.504 236.21L128.97 235.401L128.643 234.815L127.97 234.333L127.849 233.687L128.047 232.946L127.814 232.335L127.668 231.697L127.452 231.077L127.625 230.345L127.314 229.751L126.572 229.286L126.529 228.614L126.262 228.011L126.469 227.271L125.942 226.737V226.057L125.641 225.462L125.899 224.704L125.296 224.196L125.106 223.568L124.7 222.999L124.83 222.276L124.735 221.621L124.053 221.139L124.269 220.39V219.709L124.01 219.098L123.846 218.461L123.104 217.987L123.519 217.178L123.173 216.592L122.725 216.032L122.354 215.455L122.535 214.715L122.561 214.017L122.043 213.483L121.673 212.906L121.535 212.26L121.759 211.502L121.224 210.968L121.621 210.159L120.948 209.676L121.189 208.919L120.853 208.333L120.681 207.696L120.206 207.153L120.137 206.49L120.197 205.784L119.749 205.233L119.982 204.475L119.042 204.07L119.525 203.235L119.102 202.675L118.679 202.115L118.998 201.331L118.826 200.694L117.955 200.272L118.179 199.514L117.739 198.955L117.937 198.205L117.368 197.689L117.549 196.939L116.669 196.526L116.781 195.803L116.471 195.208V194.519L116.342 193.873L116.178 193.236L115.902 192.633L116.022 191.91L115.298 191.453L115.6 190.67L115.039 190.162L114.961 189.499L114.642 188.922L114.228 188.37L114.142 187.716L114.392 186.941L113.676 186.502L113.383 185.916L113.271 185.27L113.383 184.538L113.012 183.978L112.934 183.307L112.175 182.919L112.399 181.911L111.563 182.006H110.907L110.26 181.946L109.604 182.247L108.949 181.929L108.293 181.851L107.638 182.015L106.982 182.385L106.335 182.023L105.68 181.98L105.024 182.566L104.377 182.256L103.73 181.722L103.074 181.963L102.419 182.506L101.763 182.592L101.116 182.239L100.469 181.903L99.8138 182.557L99.1582 182.376L98.5026 182.196L97.847 182.42L97.1914 182.29L96.5358 182.531L95.8889 182.023L95.2333 182.506L94.5863 182.48L93.9393 181.911L93.2838 182.471L92.6368 182.084L91.9898 182.187L91.3342 182.437L90.6873 181.98L90.0317 182.325L89.3847 181.722L88.7291 182.351L88.0822 181.817L87.4266 182.23L86.7796 181.705L86.124 182.48L85.4771 181.972L84.8215 181.998L84.1659 182.282L83.5189 181.877L82.8633 182.204L82.2164 181.55H81.5608L80.9052 182.17L80.2496 182.015L79.594 181.963H78.9384L78.2914 181.55L77.6272 182.153L76.9716 181.946L76.316 181.903L75.6518 182.299L75.0049 181.558L74.3493 181.593L73.6851 182.092L73.0295 181.929L72.3652 182.239L71.7097 181.946L71.0541 181.455L70.3898 181.782L69.7343 181.446L69.0787 181.619L68.4231 181.756L67.7589 182.161L67.1033 181.825L66.4477 181.774L65.7921 181.395L65.1279 181.636H64.4723L63.8167 181.687L63.1525 182.161L62.5055 181.377L61.8327 182.153L61.1857 181.567L60.5215 181.972L59.8573 182.075L59.2103 181.55L58.5461 182.109L57.8905 181.998L57.2349 181.636L56.5793 181.403L55.9065 182.084H55.2509L54.6039 181.214L53.9397 181.619L53.2841 181.601L52.6199 182.015L51.9729 181.377L51.3087 181.67L50.6618 181.36L50.0062 181.576L49.3506 181.507L48.7036 181.214L48.048 181.11L47.3838 181.524L46.7368 181.326L46.0813 181.584L45.4343 181.128L44.7787 181.085L44.1145 181.455L43.4675 181.309L42.8033 181.842L42.165 181.429L41.5266 180.921L40.8538 181.636L40.2241 180.921L39.5771 180.852L38.9129 181.283L38.2487 181.644L37.6362 181.007L36.9979 180.861L36.3595 180.723L35.6781 181.55L35.057 181.093L34.4187 180.844L33.7544 181.291L33.1161 181.042L32.4605 181.119L31.8394 180.577L31.1752 181.059L30.5541 180.542L29.8899 180.93L29.2429 180.835L28.6046 180.585L27.9318 181.128L27.3107 180.516L26.6551 180.688L25.9995 180.947L25.3439 181.119L24.7056 180.792L24.0586 180.525L23.3944 180.895L22.756 180.37L22.0918 180.895L21.4535 180.508L20.8065 180.43L20.1509 180.447H19.4953L18.8398 180.775L18.2014 180.137L17.5372 180.818L16.8816 180.878L16.2346 180.258L15.5791 180.818L14.9321 180.835L14.2851 180.637L13.6382 180.456L12.9826 180.18L12.3356 180.602L11.68 180.206L11.0331 180.241L10.4033 180.904L9.7305 180.43L9.09216 180.766L8.43657 180.628L7.78961 180.671L7.16852 180.999L6.50431 180.844L5.89185 181.102L5.25351 181.162L4.66693 181.403L3.67492 181.507L3.61453 181.567Z" fill="black"/>
<path d="M132.076 270.796L131.42 270.348L130.773 270.03L130.118 270.245L129.462 270.563L128.815 270.555L128.16 270.503L127.513 270.305L126.857 270.21L126.201 270.65L125.546 270.434L124.899 270.012L124.243 269.952L123.588 270.667L122.932 270.589L122.277 270.296L121.621 270.365L120.965 270.65L120.31 270.133L119.654 270.555L119.007 269.918L118.352 270.555L117.705 270.245L117.058 270.288L116.411 269.978L115.755 270.116L115.108 270.004L114.453 270.365L113.806 269.935L113.159 270.047L112.503 270.615L111.856 270.185L111.201 270.667L110.554 270.055L109.898 270.426L109.251 269.969L108.595 270.632L107.94 270.52L107.293 270.391L106.637 269.892L105.99 270.055L105.335 270.581L104.679 270.52L104.032 269.9L103.377 270.383L102.721 270.469L102.065 269.892L101.41 270.038L100.763 269.866L100.099 270.65L99.4516 270.632L98.796 270.589L98.1404 270.52L97.4849 270.322L96.8379 270.228L96.1823 270.116L95.5267 270.185L94.8797 270.598L94.2242 269.986L93.5686 270.555L92.9216 270.314L92.266 270.09L91.6104 270.288L90.9548 270.357L90.3079 270.538L89.6523 270.374L88.9967 270.357L88.3411 270.141L87.6855 270.615L87.0385 269.831L86.383 269.78L85.7274 270.073L85.0718 269.814L84.4162 270.486L83.7606 270.236L83.105 269.918L82.4494 269.961L81.7938 270.262L81.1382 270.116L80.4826 269.806L79.827 270.288L79.1715 270.417L78.5159 269.694L77.8517 270.185L77.1961 270.271L76.5405 269.866L75.8763 270.374L75.2207 269.849L74.5651 270.503L73.9095 269.823L73.2453 270.228L72.5811 270.417L71.9255 270.443L71.2699 270.219H70.6143L69.9587 269.892L69.2945 270.46L68.6389 269.866L67.9833 269.797L67.3191 269.935L66.6635 270.477L66.0079 269.685L65.3523 269.754L64.6881 269.651L64.0325 270.133L63.3683 270.176L62.7127 270.228L62.0571 270.348L61.4015 269.823L60.7373 269.9L60.0817 269.926L59.4261 269.59L58.7619 270.374L58.1063 270.357L57.4507 269.763L56.7865 269.995L56.1309 269.892L55.4753 269.72L54.8111 269.909L54.1555 269.986L53.4913 269.831L52.8357 269.875L52.1801 269.711L51.5159 270.348L50.8603 269.961L50.2047 270.064L49.5405 270.4L48.8849 270.047L48.2293 269.702L47.5737 269.84L46.9095 269.995L46.2539 269.72L45.5983 269.9L44.9427 269.943L44.2785 270.383L43.6316 269.926L42.9674 269.986L42.3204 269.478L41.6562 269.676L41.0006 269.883L40.345 269.9L39.6894 269.702L39.0338 269.72L38.3782 270.098L37.7226 269.926L37.067 269.961L36.4114 269.986L35.7559 270.064L35.1089 269.806L34.4533 269.969L33.7977 269.754L33.1421 269.943L32.4779 269.926L31.8223 270.15L31.1667 269.633L30.5111 270.09L29.8555 269.995L29.2086 269.737L28.553 269.823L27.8974 270.064L27.2504 269.496L26.5948 269.806L25.9479 269.849L25.2923 270.09L24.6367 270.047L23.7655 269.831L23.9725 269.211L23.5929 268.609L24.4124 268.006L23.731 267.403L23.8517 266.791L23.5757 266.154L24.6712 266.18L25.3182 266.421L25.9738 266.171L26.6294 265.965L27.2763 266.171L27.9319 266.318L28.5875 266.068L29.2345 266.223L29.8901 265.879L30.537 266.593L31.2012 266.102L31.8482 266.154L32.5038 265.99L33.1594 265.896L33.815 266.24L34.4706 266.326L35.1262 266.438L35.7817 266.154L36.4373 265.87L37.0843 266.085L37.7313 266.559L38.3782 266.662L39.0252 266.447L39.6808 265.896L40.3277 266.034L40.9833 266.077L41.6303 266.128L42.2773 266.361L42.9242 266.55L43.5798 265.922L44.2354 265.896L44.8824 266.283L45.538 266.24L46.1849 266.128L46.8405 266.481L47.4875 266.344L48.1431 265.887L48.7987 266.034L49.4456 266.542L50.1012 266.378L50.7568 266.301L51.4038 266.025L52.0594 266.748L52.7149 266.43L53.3619 266.636L54.0175 265.956L54.6731 266.757L55.3287 266.697L55.9843 265.956L56.6312 266.395L57.2868 266.791L57.9424 266.697L58.598 266.817L59.245 266.232L59.9006 266.387L60.5561 266.068L61.2031 266.74L61.8587 266.051L62.5057 266.645L63.1613 266.223L63.8168 266.49L64.4638 266.645L65.1194 266.542L65.775 266.412L66.4306 266.361L67.0862 266.344L67.7418 266.137L68.3974 265.999L69.0443 266.791L69.6999 266.499L70.3555 266.24L71.0111 266.499L71.6667 266.154L72.3223 266.387L72.9779 266.585L73.6334 266.249L74.2804 266.714L74.9446 266.516H75.6002L76.2558 266.481L76.9114 266.171L77.567 266.318L78.2226 266.568L78.8868 266.387L79.5424 266.507L80.198 266.163L80.8536 266.869L81.5178 266.843L82.1734 266.921L82.829 266.809L83.4932 266.154L84.1488 266.636L84.813 266.86L85.4686 266.318L86.1242 266.395H86.7884L87.4353 266.964L88.0996 266.645L88.7552 266.886L89.4107 266.843L90.075 266.688L90.7306 266.283L91.3948 266.335L92.0504 266.456L92.7059 266.275L93.3615 266.568L94.0171 266.809L94.6814 267.007L95.3369 266.619L96.0012 266.257L96.6567 266.49L97.3123 266.731L97.9765 266.275L98.6321 266.602L99.2877 266.55L99.9433 266.705L100.608 266.542L101.263 266.852L101.919 266.611H102.583L103.239 266.645L103.894 266.981L104.55 266.8L105.214 266.369L105.87 267.084L106.525 266.766L107.189 266.232L107.845 266.257L108.5 266.964L109.156 267.024L109.812 266.964L110.476 266.456L111.131 266.886L111.787 266.654L112.443 266.723L113.098 266.757L113.754 266.895L114.409 266.774L115.065 266.912L115.721 266.654L116.376 266.585L117.032 266.55L117.687 266.361L118.343 266.421L118.999 266.714L119.654 266.55L120.318 266.352L120.974 266.688L121.63 266.8L122.285 266.809L122.949 266.679L123.605 267.11L124.261 266.318L124.916 266.524L125.563 267.213L126.21 267.11L126.874 266.43L127.521 267.067L128.177 266.473L128.824 266.654L129.479 266.49L130.135 266.972L130.782 266.464L131.429 267.127L132.076 266.731L132.749 266.989L133.413 266.878L134.06 266.628L134.715 266.542L135.354 266.369L135.897 265.939L136.691 266.154L137.096 265.525L137.735 265.543L138.407 265.715L138.916 265.302L139.33 264.544L140.021 264.75L140.642 264.389L141.107 265.276L140.581 265.973L140.228 266.533L140.331 267.256L139.796 267.687L139.719 268.497L139.123 268.858L138.433 269.005L137.812 269.194L137.346 269.797L136.579 269.556L135.966 269.754L135.337 269.952L134.724 270.262L134.103 270.779L133.422 270.762L132.74 270.469L132.076 270.796Z" fill="black"/>
<path d="M168.004 120.353C165.045 116.391 161.457 115.694 158.558 117.08" stroke="black" stroke-width="2" stroke-linecap="round" stroke-linejoin="round"/>
<path d="M65.3348 212.501C57.1313 212.871 51.7658 219.813 53.1288 228.123C53.7499 231.904 55.6304 235.34 58.2441 238.019L56.6224 240.137C55.8029 241.205 56.1652 242.884 57.4246 243.849C57.4505 243.866 57.4764 243.892 57.5023 243.909C58.7358 244.839 60.3489 244.753 61.1425 243.72L62.8332 241.524C65.4556 242.97 68.3712 243.78 71.3387 243.728C79.6025 243.591 85.2786 236.753 84.0191 228.296C82.6907 219.417 74.2284 212.088 65.3262 212.493L65.3348 212.501ZM70.7003 239.939C68.3712 239.973 66.0681 239.302 64.0409 238.113C60.6077 236.107 57.9249 232.61 57.1658 228.588C56.7259 226.246 56.9933 224.041 57.8214 222.181C59.2965 218.857 62.5486 216.626 66.6805 216.609C73.1243 216.575 79.1712 221.897 80.1719 228.356C81.1553 234.703 76.9112 239.853 70.6917 239.948L70.7003 239.939Z" fill="#DD198E"/>
<path d="M81.1469 236.813C81.2245 237.304 81.1037 237.795 80.7932 238.174C80.2239 238.845 79.1715 238.906 78.3434 238.32L75.652 236.434L75.4277 236.279L73.7284 235.091L75.2293 236.391C74.7117 236.675 74.1252 236.934 73.4609 237.157L75.5226 239.379C76.2127 240.12 76.3076 241.179 75.7383 241.842C75.1689 242.505 74.1252 242.574 73.2884 241.997L67.5951 238.062L65.6197 236.692L67.2673 238.062L64.0498 238.105C60.6165 236.098 57.9338 232.602 57.1747 228.58C56.7348 226.237 57.0022 224.033 57.8303 222.173L63.4373 222.086C63.4632 222.345 63.4891 222.603 63.5408 222.862C64.2137 226.651 67.2501 229.88 71.037 231.344C72.4948 231.904 74.0561 232.214 75.652 232.197C76.2127 232.197 76.7561 232.145 77.2823 232.059C77.8948 231.964 78.49 231.809 79.0421 231.62C78.9817 231.896 78.8954 232.223 78.7488 232.576C78.6625 232.808 78.5504 233.05 78.4124 233.308L80.5948 235.693C80.8967 236.029 81.0865 236.425 81.1469 236.822V236.813Z" fill="black"/>
<path d="M80.6378 216.471L77.403 210.813C76.5145 209.263 74.3925 209.375 74.1423 210.977L73.7369 213.578C73.3918 213.552 73.0382 213.535 72.6931 213.535C72.3481 213.535 71.9944 213.552 71.658 213.586L70.4072 210.994C69.6308 209.384 67.457 209.289 67.0775 210.848L65.6714 216.558C64.2567 218.228 63.6011 220.45 64.0324 222.862C64.9209 227.882 70.1398 231.853 75.6691 231.784C81.1985 231.715 85.0199 227.684 84.2867 222.698C83.933 220.304 82.5787 218.116 80.6464 216.471H80.6378Z" fill="black"/>
<path d="M69.9066 213.905C69.251 214.086 68.6299 214.335 68.0605 214.637C68.3538 213.457 68.811 212.079 68.811 212.079L69.9066 213.905Z" fill="white"/>
<path d="M77.6704 214.603C77.0062 214.301 76.3161 214.06 75.6001 213.888L76.1004 212.054C76.1004 212.054 77.032 213.475 77.6704 214.603Z" fill="white"/>
<path d="M75.8158 219.701C75.4621 218.806 74.7461 218.78 75.1688 220.338C75.5915 221.889 75.1688 222.638 74.1768 223.137C73.1848 223.637 71.6925 224.067 72.8743 225.962C74.0474 227.848 76.0659 228.287 78.119 227.357C80.172 226.427 79.8873 223.861 78.464 222.767C77.0321 221.673 76.3679 221.088 75.8244 219.693L75.8158 219.701Z" fill="#F9F9F9"/>
<path d="M77.4634 223.482C77.5497 223.809 77.127 224.136 76.5146 224.214C75.9021 224.291 75.3328 224.084 75.2465 223.757C75.1603 223.43 75.5829 223.103 76.1954 223.025C76.8079 222.948 77.3772 223.154 77.4634 223.482Z" fill="black"/>
<path d="M78.4811 224.403C78.4466 224.265 78.3086 224.171 78.1792 224.179C78.0498 224.196 77.9722 224.317 78.0067 224.455C78.0498 224.61 78.0326 224.773 77.9549 224.894C77.8773 225.023 77.7479 225.101 77.6013 225.118C77.446 225.135 77.2907 225.092 77.1527 224.997C77.0147 224.903 76.9198 224.756 76.8767 224.601C76.8422 224.463 76.7041 224.369 76.5747 224.377C76.4453 224.395 76.3677 224.515 76.4022 224.653C76.4885 224.98 76.3073 225.282 75.9882 225.316C75.669 225.359 75.3498 225.118 75.2549 224.791C75.2204 224.653 75.0824 224.558 74.9444 224.567C74.815 224.584 74.7374 224.705 74.7719 224.842C74.9271 225.402 75.462 225.816 75.9968 225.816C76.0313 225.816 76.0744 225.816 76.1089 225.816C76.4367 225.772 76.6869 225.583 76.8077 225.307C76.8422 225.333 76.868 225.359 76.9025 225.385C77.1182 225.54 77.3684 225.626 77.6099 225.617C77.653 225.617 77.6875 225.617 77.7307 225.617C78.0067 225.583 78.2396 225.437 78.3862 225.204C78.5329 224.972 78.5674 224.687 78.4898 224.395L78.4811 224.403Z" fill="black"/>
<path d="M80.3097 219.58C80.4046 220.528 79.7317 221.26 78.8087 221.217C77.8857 221.174 77.049 220.364 76.9455 219.417C76.8419 218.469 77.5234 217.729 78.455 217.772C79.3867 217.815 80.2234 218.624 80.3183 219.58H80.3097Z" fill="white"/>
<path d="M79.7665 219.555C79.8355 220.201 79.3783 220.7 78.7486 220.666C78.1189 220.631 77.5495 220.089 77.4805 219.443C77.4115 218.797 77.8687 218.297 78.4984 218.332C79.1281 218.366 79.6975 218.909 79.7578 219.555H79.7665Z" fill="black"/>
<path d="M79.4041 219.313C79.4213 219.468 79.3092 219.589 79.1626 219.58C79.0159 219.572 78.8779 219.442 78.8606 219.287C78.8434 219.132 78.9555 219.012 79.1022 219.02C79.2488 219.029 79.3868 219.158 79.4041 219.313Z" fill="white"/>
<path d="M74.0646 221.019C74.1681 221.966 73.5039 222.698 72.5722 222.655C71.6406 222.612 70.7952 221.811 70.6831 220.855C70.571 219.899 71.2438 219.167 72.1841 219.21C73.1243 219.253 73.9611 220.063 74.0646 221.019Z" fill="white"/>
<path d="M73.5213 220.993C73.5903 221.639 73.1417 222.13 72.5034 222.104C71.8651 222.078 71.2957 221.527 71.2267 220.881C71.1577 220.235 71.6063 219.736 72.2446 219.77C72.883 219.805 73.4523 220.347 73.5213 220.993Z" fill="black"/>
<path d="M73.15 220.752C73.1673 220.907 73.0551 221.027 72.9085 221.019C72.7618 221.01 72.6152 220.881 72.5979 220.726C72.5807 220.571 72.6928 220.45 72.8395 220.459C72.9861 220.468 73.1328 220.597 73.15 220.752Z" fill="white"/>
<path d="M143.747 255.682C143.367 255.682 143.014 255.424 142.91 255.045C142.789 254.588 143.065 254.115 143.523 253.994C161.319 249.266 173.274 231.603 173.395 231.422C173.663 231.026 174.197 230.922 174.594 231.181C174.991 231.448 175.095 231.982 174.836 232.378C174.335 233.127 162.405 250.764 143.971 255.656C143.894 255.673 143.825 255.682 143.747 255.682Z" fill="white"/>
<path d="M137.268 239.491C136.992 239.491 136.716 239.353 136.552 239.112C136.285 238.716 136.397 238.182 136.794 237.915C150.872 228.511 155.547 215.481 155.59 215.351C155.746 214.904 156.237 214.663 156.686 214.818C157.135 214.973 157.376 215.463 157.221 215.911C157.031 216.462 152.33 229.604 137.752 239.345C137.605 239.439 137.441 239.491 137.277 239.491H137.268Z" fill="white"/>
</g>
<defs>
<clipPath id="clip0_53_1211">
<rect width="257" height="282" fill="white"/>
</clipPath>
</defs>
</svg>
