<svg width="116" height="134" viewBox="0 0 116 134" fill="none" xmlns="http://www.w3.org/2000/svg">
<path d="M88.1936 42.2437C87.8516 42.3316 88.0666 42.3121 87.8419 42.6931C87.7442 42.869 87.6172 43.0644 87.4804 43.2988C87.3729 43.4845 87.0896 43.5919 86.9626 43.8166C86.8551 44.012 87.0701 44.4028 86.9528 44.6177C86.8454 44.8131 86.4936 44.8913 86.3764 45.1062C86.2592 45.3211 86.0638 45.4677 85.9466 45.6826C85.8293 45.8975 85.9466 46.2102 85.8391 46.4251C85.7316 46.64 85.4678 46.767 85.3604 46.9722C85.2529 47.1774 85.0673 47.363 84.9696 47.5681C84.8719 47.7733 84.6374 47.9394 84.5397 48.1543C84.442 48.3692 84.4713 48.6526 84.3736 48.8675C84.276 49.0824 84.4518 49.4341 84.3639 49.6393C84.2662 49.864 84.1294 50.0594 84.0513 50.2743C83.9536 50.5088 83.5042 50.5967 83.4358 50.8019C83.3478 51.0461 83.5725 51.3685 83.5237 51.5737C83.4553 51.8472 83.4358 52.1794 83.4358 52.3748C83.1525 52.5506 83.1036 52.2869 82.6737 52.2478C82.4783 52.2282 82.2732 51.9938 82.0094 51.9742C81.8043 51.9547 81.5502 52.3455 81.306 52.3357C81.0911 52.3259 80.8859 52.0035 80.6417 51.9938C80.4267 51.9938 80.1923 52.0524 79.9578 52.0524C79.7331 52.0524 79.5084 52.1501 79.2739 52.1501C79.0395 52.1501 78.8148 51.8277 78.5901 51.8375C78.3654 51.8472 78.1504 52.0817 77.916 52.0915C77.6815 52.1012 77.4763 52.2282 77.2516 52.2478C77.0269 52.2673 76.812 52.3943 76.5873 52.4139C76.3626 52.4334 76.1379 52.3943 75.9034 52.4139C75.6689 52.4334 75.3856 52.0133 75.1609 52.0426C74.9362 52.0719 74.7701 52.492 74.5454 52.5311C74.3207 52.5702 74.0276 52.3064 73.8127 52.3552C73.5978 52.4041 73.4024 52.6288 73.1875 52.6874C72.9725 52.746 72.7576 52.8339 72.5329 52.9023C72.3082 52.9707 72.191 53.2931 71.976 53.3713C71.7611 53.4494 71.4778 53.3322 71.2726 53.4299C71.0675 53.5276 70.7744 53.4592 70.579 53.5569C70.3836 53.6546 70.1296 53.7132 69.9342 53.8305C69.7388 53.9477 69.6802 54.0454 69.4946 54.1822C69.1526 54.1235 69.4457 54.0552 69.1526 53.723C69.0256 53.5764 68.6641 53.5764 68.4883 53.3713C68.3515 53.215 68.1561 53.0684 67.99 52.8828C67.8435 52.7167 67.9217 52.3357 67.7556 52.1501C67.609 51.984 67.3941 51.857 67.228 51.6811C67.0717 51.5151 67.0033 51.261 66.8372 51.0852C66.6712 50.9093 66.5051 50.7628 66.3488 50.5869C66.1924 50.4111 65.8603 50.4111 65.6942 50.2352C65.5281 50.0594 65.4597 49.8151 65.2936 49.6491C65.1276 49.483 64.981 49.3071 64.8247 49.141C64.6684 48.975 64.2776 49.0238 64.1115 48.8577C63.9454 48.6916 63.9259 48.379 63.7598 48.2129C63.5937 48.0469 63.5058 47.8026 63.3397 47.6463C63.1736 47.49 63.0271 47.2946 62.861 47.1285C62.6949 46.9624 62.6168 46.6987 62.4507 46.5423C62.2846 46.386 62.1088 46.2102 61.9329 46.0539C61.757 45.8975 61.3663 45.9757 61.1904 45.8292C61.0146 45.6826 60.9462 45.3798 60.7703 45.2332C60.5847 45.0769 60.1841 45.2039 60.0083 45.0574C59.8129 44.9108 59.6566 44.7447 59.471 44.6177C59.2756 44.4712 59.3049 44.0022 59.1193 43.885C58.9043 43.7482 58.5135 43.9729 58.3182 43.8752C58.0935 43.758 57.9567 43.4845 57.7613 43.4161C57.4291 43.4649 57.6734 43.6994 57.3412 43.9827C57.1947 44.1097 57.0383 44.2465 56.8429 44.4321C56.6964 44.5786 56.4424 44.6373 56.2763 44.8229C56.1395 44.9792 56.0516 45.2039 55.9051 45.3895C55.7683 45.5556 55.7585 45.8194 55.612 46.0148C55.485 46.1906 55.1724 46.2395 55.0356 46.4349C54.9183 46.6107 54.6839 46.7377 54.5666 46.9429C54.4494 47.1285 54.4396 47.3825 54.3224 47.5877C54.2149 47.7831 54.0391 47.9394 53.9316 48.1446C53.8339 48.3399 53.5213 48.4474 53.4236 48.6526C53.3259 48.8577 53.6092 49.229 53.5115 49.4439C53.4138 49.6588 53.3161 49.8445 53.2282 50.0594C53.1403 50.2743 52.7104 50.3427 52.6225 50.5576C52.5346 50.7726 52.8765 51.1243 52.8081 51.349C52.7397 51.5737 52.6518 51.7691 52.5834 51.984C52.515 52.1989 52.261 52.3552 52.1926 52.5702C52.1242 52.7851 52.2512 53.0489 52.1926 53.2736C52.134 53.4983 52.0168 53.6937 51.9679 53.9184C51.9191 54.1431 51.88 54.358 51.8409 54.5827C51.8018 54.8074 51.9288 55.0614 51.88 55.2861C51.8311 55.5108 51.372 55.6476 51.3329 55.8821C51.2938 56.1165 51.626 56.3803 51.5967 56.605C51.5674 56.8297 51.0691 56.986 51.0398 57.2107C51.0105 57.4354 51.1375 57.6797 51.118 57.9141C51.0984 58.1486 51.0789 58.3635 51.0594 58.598C51.0398 58.8325 51.0398 59.0474 51.0203 59.2819C51.0007 59.5163 51.0594 59.7411 51.0496 59.9755C51.0398 60.21 51.0203 60.4249 51.0105 60.6594C51.0007 60.8939 51.118 61.1381 51.0984 61.3628C51.0789 61.5875 50.8249 61.8122 50.7956 62.0369C50.7663 62.2616 51.0203 62.5352 50.991 62.7599C50.9617 62.9846 50.5513 63.1702 50.5123 63.3949C50.4732 63.6196 50.7272 63.9029 50.6881 64.1276C50.649 64.3523 50.7076 64.6161 50.6588 64.8408C50.6099 65.0655 50.522 65.2902 50.4634 65.5149C50.4048 65.7396 50.3559 65.974 50.2973 66.1987C50.2387 66.4234 49.7209 66.5016 49.6525 66.7165C49.5841 66.9315 49.6525 67.1952 49.5646 67.4102C49.4767 67.6251 49.506 67.8791 49.4181 68.094C49.3301 68.309 49.4278 68.6118 49.3399 68.817C49.252 69.0222 49.037 69.1882 48.9393 69.3934C48.8417 69.5986 48.8417 69.8721 48.7342 70.0773C48.6267 70.2824 48.4997 70.4876 48.3825 70.683C48.2652 70.8784 48.0112 71.0054 47.8842 71.2008C47.7572 71.3962 47.4544 71.4646 47.3274 71.66C47.2004 71.8553 47.1906 72.1191 47.0538 72.3047C46.917 72.4904 46.7217 72.6369 46.5849 72.8225C46.4481 73.0082 46.3504 73.2231 46.2136 73.4087C46.0769 73.5943 45.8815 73.7311 45.7447 73.9069C45.6079 74.0828 45.4125 74.2294 45.266 74.4052C45.1194 74.5811 44.9045 74.6885 44.7482 74.8644C44.5919 75.0402 44.5723 75.3138 44.416 75.4896C44.2597 75.6655 44.0643 75.7827 43.908 75.9586C43.7517 76.1344 43.5758 76.2712 43.4098 76.4373C43.2437 76.6034 43.273 76.9355 43.1069 77.1016C42.9408 77.2677 42.677 77.3263 42.5207 77.4924C42.3644 77.6585 42.2472 77.8636 42.0811 78.0297C41.915 78.1958 41.6219 78.2153 41.4558 78.3814C41.2898 78.5475 41.2409 78.8211 41.0748 78.9774C40.9087 79.1337 40.7134 79.2705 40.5473 79.4268C40.3812 79.5831 40.3617 79.8957 40.1956 80.0618C40.0295 80.2279 39.9123 80.4233 39.7462 80.5894C39.5801 80.7554 39.4531 80.9411 39.287 81.0974C39.1209 81.2537 38.9353 81.3905 38.7692 81.5468C38.6031 81.7031 38.31 81.7226 38.144 81.8887C37.9779 82.0548 37.7434 82.1329 37.5773 82.2893C37.4112 82.4456 37.1475 82.5042 36.9814 82.6605C36.8153 82.8168 36.8544 83.1881 36.6883 83.3541C36.5222 83.5202 36.2389 83.5495 36.063 83.7058C35.8872 83.8622 35.6722 83.9696 35.5062 84.1259C35.3401 84.2823 35.4085 84.6828 35.2424 84.8489C35.0763 85.015 34.9298 85.1811 34.7637 85.3471C34.5976 85.5132 34.3827 85.6207 34.2263 85.7868C34.07 85.9529 34.0407 86.2557 33.8746 86.4218C33.7086 86.5879 33.3373 86.539 33.1712 86.7051C33.0051 86.8712 32.6925 86.881 32.5264 87.047C32.3604 87.2131 32.5264 87.6821 32.3604 87.8579C32.1943 88.0338 32.0575 88.2096 31.9012 88.3757C31.7449 88.5418 31.569 88.6981 31.4127 88.8642C31.2564 89.0303 31.0903 89.1964 30.934 89.3722C30.7777 89.5481 30.5432 89.6458 30.3869 89.8216C30.2306 89.9975 30.0938 90.1831 29.9375 90.3589C29.7812 90.5348 29.6053 90.6813 29.449 90.8572C29.2927 91.033 29.2146 91.2675 29.0582 91.4434C28.9019 91.6192 28.8238 91.8537 28.6675 92.0393C28.5111 92.2152 28.091 92.1468 27.9445 92.3226C27.798 92.4985 27.6221 92.6646 27.4853 92.8404C27.3486 93.0163 27.075 93.1042 26.9285 93.2898C26.7819 93.4754 26.8894 93.8467 26.7526 94.0323C26.6158 94.2179 26.6354 94.5208 26.5084 94.7064C26.3814 94.892 26.2446 95.0777 26.1078 95.2633C25.971 95.4489 25.6389 95.4977 25.5119 95.6834C25.3849 95.869 25.2579 96.0742 25.1309 96.2598C25.0039 96.4454 24.7694 96.5822 24.6522 96.7678C24.5349 96.9534 24.7303 97.354 24.6033 97.5494C24.4763 97.7447 24.3688 97.9401 24.2516 98.1355C24.1344 98.3309 23.8413 98.4286 23.724 98.624C23.6068 98.8194 23.2453 98.8878 23.1379 99.0832C23.0304 99.2786 23.1086 99.5912 23.0011 99.7964C22.8936 100.002 22.9034 100.265 22.7959 100.47C22.6885 100.676 22.327 100.754 22.2293 100.949C22.1316 101.145 22.2879 101.496 22.1902 101.701C22.0925 101.907 21.9557 102.102 21.8581 102.307C21.7604 102.512 21.5161 102.659 21.4282 102.874C21.3403 103.089 21.5357 103.421 21.4477 103.636C21.3598 103.851 20.9006 103.909 20.8127 104.115C20.7248 104.32 20.5098 104.496 20.4219 104.701C20.334 104.906 20.6662 105.297 20.588 105.512C20.5098 105.727 20.2558 105.883 20.1777 106.098C20.0995 106.313 20.3047 106.635 20.2265 106.85C20.1484 107.065 19.611 107.124 19.5329 107.338C19.4547 107.553 19.8455 107.925 19.7771 108.149C19.7087 108.374 19.1714 108.442 19.103 108.657C19.0346 108.872 19.191 109.165 19.1226 109.39C19.0542 109.615 19.1323 109.869 19.0737 110.094C19.0151 110.318 18.7318 110.475 18.6634 110.699C18.595 110.924 18.5657 111.158 18.5071 111.373C18.4485 111.588 18.6732 111.891 18.6145 112.116C18.5559 112.341 18.214 112.497 18.1651 112.722C18.1163 112.946 17.9014 113.142 17.8525 113.357C17.8037 113.571 17.7157 113.806 17.6669 114.021C17.618 114.236 18.087 114.578 18.0479 114.802C18.0088 115.027 17.7157 115.203 17.6767 115.428C17.6376 115.652 17.5887 115.877 17.5497 116.102C17.5106 116.327 17.6181 116.581 17.5887 116.795C17.5594 117.01 17.1589 117.196 17.1198 117.421C17.0807 117.645 17.4813 117.938 17.452 118.163C17.4227 118.388 17.3738 118.613 17.3445 118.837C17.3152 119.072 17.1003 119.267 17.0807 119.492C17.0514 119.726 16.8951 119.931 16.8756 120.156C16.856 120.391 17.0416 120.742 17.0221 120.957C16.9439 120.85 16.6606 120.557 16.4945 120.283C16.3969 120.117 16.3969 119.853 16.2796 119.629C16.1819 119.443 15.967 119.306 15.8595 119.091C15.7716 118.896 15.8595 118.622 15.7618 118.398C15.6739 118.202 15.6837 117.958 15.6055 117.743C15.5274 117.538 15.0975 117.46 15.0193 117.235C14.951 117.03 15.2147 116.708 15.1463 116.483C15.078 116.268 14.5992 116.18 14.5406 115.955C14.482 115.731 14.8728 115.408 14.8142 115.183C14.7556 114.959 14.3745 114.822 14.3257 114.597C14.2769 114.373 14.3062 114.148 14.2671 113.913C14.228 113.679 14.3941 113.444 14.3648 113.21C14.3355 112.976 14.3062 112.77 14.2769 112.536C14.2475 112.301 14.0619 112.106 14.0424 111.881C14.0228 111.657 14.0521 111.432 14.0424 111.197C14.0326 110.963 13.9838 110.758 13.9838 110.523C13.9838 110.289 13.9545 110.074 13.9545 109.849C13.9545 109.625 14.0424 109.4 14.0521 109.165C14.0619 108.931 14.1987 108.726 14.2085 108.491C14.2182 108.257 14.1694 108.042 14.1889 107.817C14.2085 107.593 14.2182 107.368 14.2378 107.133C14.2573 106.899 14.1205 106.664 14.1498 106.43C14.1792 106.195 14.1987 105.981 14.2378 105.756C14.2769 105.531 14.5406 105.355 14.5895 105.131C14.6383 104.906 14.5895 104.671 14.6481 104.456C14.7067 104.242 14.4625 103.939 14.5211 103.724C14.5797 103.509 14.9021 103.352 14.9607 103.138C15.0193 102.923 14.9119 102.649 14.9803 102.434C15.0486 102.219 15.0389 101.975 15.1073 101.76C15.1757 101.545 15.586 101.438 15.6641 101.223C15.7423 101.008 15.8009 100.793 15.8693 100.578C15.9377 100.363 16.0647 100.168 16.1331 99.9527C16.2015 99.7377 16.0354 99.4447 16.1038 99.2297C16.1722 99.0148 16.2112 98.7901 16.2796 98.5752C16.348 98.3602 16.475 98.1648 16.5434 97.9401C16.6118 97.7154 16.3675 97.4223 16.4262 97.1976C16.4848 96.9729 16.7486 96.8166 16.8072 96.6017C16.8658 96.3868 16.6997 96.1132 16.7486 95.8983C16.7974 95.6834 17.0416 95.5075 17.0905 95.2828C17.1393 95.0581 17.2957 94.853 17.3347 94.6283C17.3738 94.4036 17.5301 94.1984 17.5692 93.9639C17.6083 93.7294 17.5497 93.495 17.5692 93.2703C17.5887 93.0456 17.5008 92.8013 17.5301 92.5766C17.5594 92.3519 17.5301 92.1175 17.5497 91.8928C17.5692 91.6681 17.7451 91.4434 17.7646 91.2187C17.7841 90.994 17.7646 90.7595 17.7646 90.5348C17.7646 90.3101 17.5301 90.0756 17.5301 89.8509C17.5301 89.6262 17.5301 89.4015 17.5301 89.167C17.5301 88.9326 17.6181 88.7079 17.6083 88.4832C17.5985 88.2585 17.4031 88.0435 17.3934 87.8091C17.3836 87.5746 17.6474 87.3304 17.6278 87.1057C17.6083 86.881 17.4129 86.666 17.3934 86.4413C17.3738 86.2166 17.4227 85.9822 17.3934 85.7477C17.364 85.5132 17.3152 85.2983 17.2761 85.0736C17.237 84.8489 17.0905 84.6437 17.0416 84.419C16.9928 84.1943 16.9049 83.9892 16.856 83.7645C16.8072 83.5398 16.8365 83.3053 16.7779 83.0806C16.7192 82.8559 16.8853 82.5824 16.8267 82.3577C16.7681 82.133 16.8267 81.8789 16.7486 81.664C16.6704 81.4491 16.2796 81.3318 16.2112 81.1169C16.1428 80.902 16.2405 80.6187 16.1624 80.4037C16.0842 80.1888 16.1624 79.9055 16.0842 79.7003C16.0061 79.4952 15.6641 79.3779 15.5762 79.163C15.4883 78.9481 15.3417 78.7722 15.244 78.5573C15.1463 78.3423 15.244 78.0493 15.1463 77.8441C15.0486 77.6389 14.8239 77.4924 14.7165 77.2872C14.609 77.0821 14.3843 76.9453 14.2769 76.7499C14.1694 76.5545 14.1889 76.2712 14.0717 76.0758C13.9545 75.8804 13.7004 75.7729 13.5734 75.5775C13.4464 75.3822 13.6614 74.9718 13.5344 74.7764C13.4074 74.5811 13.2217 74.4247 13.085 74.2391C12.9384 74.0633 12.5281 74.1023 12.3718 73.9265C12.2155 73.7506 12.362 73.311 12.1959 73.1449C12.0298 72.9788 11.7368 72.9398 11.5707 72.7834C11.4046 72.6271 11.0431 72.6858 10.8673 72.5294C10.6914 72.3731 10.7305 71.9726 10.5546 71.826C10.3788 71.6795 10.1443 71.5818 9.95869 71.4548C9.77307 71.3278 9.41159 71.4548 9.20643 71.3376C9.00127 71.2203 8.91335 70.9175 8.70819 70.8198C8.50303 70.7221 8.26855 70.683 8.05362 70.5951C7.83869 70.5071 7.59445 70.5364 7.37952 70.4681C7.16459 70.3997 7.01805 70.0675 6.78358 70.0187C6.54911 69.9698 6.33417 69.8526 6.0997 69.8233C5.86523 69.794 5.61123 69.6865 5.37676 69.6865C5.14229 69.706 4.90781 69.921 4.68311 69.9698C4.45841 70.0187 4.19464 70.0089 3.97971 70.087C3.76477 70.1652 3.50099 70.2043 3.29583 70.302C3.09067 70.3997 3.00275 70.7318 2.80735 70.8686C2.61196 71.0054 2.35795 71.0542 2.1821 71.2008C2.00625 71.3473 1.70339 71.3962 1.54708 71.5623C1.39076 71.7283 1.47869 72.1191 1.34192 72.3047C1.20514 72.4904 1.24422 72.7737 1.12698 72.9788C1.00975 73.184 0.736202 73.2817 0.648275 73.4966C0.560349 73.7116 0.491961 73.9265 0.433343 74.1512C0.374726 74.3759 0.491961 74.6201 0.452883 74.8448C0.413804 75.0695 0.267262 75.2747 0.267262 75.5092C0.267262 75.7436 -0.0355976 76.0074 0.00348078 76.2419C0.0425591 76.4666 0.413805 76.6327 0.472422 76.8476C0.53104 77.0625 0.521269 77.3068 0.589656 77.5217C0.658044 77.7366 0.570119 78.0199 0.648275 78.2251C0.726432 78.4303 1.22468 78.4791 1.32238 78.6843C1.42007 78.8894 1.16606 79.2509 1.27353 79.4561C1.38099 79.6612 1.78155 79.7003 1.88901 79.8957C1.99648 80.0911 1.69362 80.5307 1.80109 80.7261C1.90855 80.9215 2.21141 81.0192 2.32864 81.2048C2.44588 81.3905 2.80735 81.4295 2.93436 81.6249C3.06136 81.8203 2.98321 82.1427 3.11998 82.3283C3.25675 82.514 3.39353 82.6898 3.5303 82.8754C3.66708 83.0611 3.86247 83.1978 3.99924 83.3737C4.13602 83.5495 4.43888 83.6081 4.57565 83.7938C4.71242 83.9794 4.42911 84.4679 4.57565 84.6535C4.72219 84.8391 5.23998 84.7219 5.37676 84.8977C5.51353 85.0736 5.30837 85.523 5.43537 85.6989C5.56238 85.8747 5.66007 86.0896 5.79685 86.2753C5.93362 86.4609 6.49049 86.3436 6.61749 86.5293C6.7445 86.7149 6.86173 86.92 6.98874 87.1057C7.11574 87.2913 6.92035 87.6918 7.03758 87.8872C7.15482 88.0826 7.25251 88.278 7.36975 88.4734C7.48698 88.6688 7.78008 88.7665 7.88754 88.9619C7.99501 89.1573 8.27832 89.2843 8.37602 89.4797C8.47372 89.6751 8.34671 89.9975 8.43464 90.2026C8.52256 90.4078 8.79611 90.5543 8.87427 90.7595C8.95242 90.9744 9.0892 91.1796 9.15759 91.3945C9.22597 91.6095 9.03058 91.9123 9.07943 92.137C9.12828 92.3617 9.17713 92.5864 9.21621 92.8013C9.25528 93.0163 9.34321 93.241 9.37252 93.4657C9.40183 93.6904 9.14781 93.9444 9.16735 94.1691C9.18689 94.3938 9.1869 94.6087 9.19667 94.8334C9.20644 95.0581 9.7633 95.2828 9.7633 95.5075C9.7633 95.7322 9.59722 95.9667 9.58745 96.1914C9.57768 96.4161 9.16736 96.6115 9.13805 96.8362C9.10874 97.0609 9.30413 97.3051 9.26505 97.5298C9.22597 97.7545 9.2162 97.9792 9.17713 98.2039C9.13805 98.4286 9.02081 98.6338 8.97197 98.8585C8.92312 99.0832 8.79611 99.2786 8.74726 99.5033C8.69841 99.728 8.62026 99.9331 8.56164 100.158C8.50302 100.383 8.68865 100.666 8.63003 100.881C8.57141 101.096 8.70819 101.379 8.64957 101.594C8.59095 101.809 8.04385 101.887 7.98523 102.102C7.92662 102.317 8.20994 102.649 8.14155 102.864C8.07316 103.079 7.84846 103.245 7.7703 103.46C7.69215 103.675 7.85823 103.968 7.78984 104.183C7.72146 104.398 7.25252 104.486 7.18413 104.701C7.11574 104.916 7.00828 105.121 6.93989 105.345C6.8715 105.57 6.78358 105.775 6.71519 105.99C6.6468 106.205 6.78358 106.489 6.71519 106.703C6.6468 106.918 6.37325 107.084 6.31464 107.299C6.25602 107.514 6.33418 107.778 6.28533 108.003C6.23648 108.228 6.05086 108.423 6.00201 108.638C5.95316 108.853 6.36348 109.185 6.3244 109.4C6.28533 109.615 6.13878 109.82 6.0997 110.045C6.06063 110.269 6.02155 110.494 5.99224 110.719C5.96293 110.943 5.70892 111.149 5.68938 111.373C5.66984 111.598 5.94339 111.842 5.93362 112.077C5.92385 112.311 5.68938 112.526 5.68938 112.751C5.68938 112.936 5.47445 113.2 5.50376 113.474C5.5233 113.679 5.82616 113.884 5.85546 114.138C5.88477 114.353 5.88477 114.588 5.92385 114.832C5.96293 115.047 5.99224 115.281 6.03132 115.516C6.0704 115.74 6.24625 115.936 6.2951 116.17C6.34394 116.395 6.44164 116.61 6.49049 116.844C6.53934 117.079 6.45141 117.323 6.51003 117.557C6.56865 117.792 6.58818 118.017 6.6468 118.241C6.70542 118.466 6.77381 118.681 6.83242 118.906C6.89104 119.13 6.86173 119.375 6.93012 119.599C6.99851 119.824 7.35998 119.951 7.42837 120.176C7.49676 120.4 7.29159 120.703 7.35998 120.928C7.42837 121.153 7.40883 121.397 7.48699 121.622C7.56514 121.846 7.61399 122.071 7.69215 122.296C7.7703 122.52 7.90708 122.716 7.99501 122.931C8.08293 123.146 8.06339 123.409 8.15132 123.624C8.23925 123.839 8.5421 123.976 8.63003 124.191C8.71795 124.406 8.57141 124.728 8.66911 124.943C8.7668 125.158 8.85473 125.383 8.95243 125.588C9.05012 125.793 9.41159 125.891 9.51906 126.096C9.62653 126.301 9.49952 126.633 9.60699 126.839C9.71445 127.044 9.91962 127.21 10.0369 127.415C10.1541 127.62 10.3006 127.806 10.4179 128.011C10.5351 128.216 10.5351 128.49 10.6621 128.695C10.7891 128.9 11.2385 128.88 11.3753 129.066C11.5121 129.252 11.3362 129.672 11.4827 129.857C11.6293 130.043 11.9322 130.111 12.0787 130.287C12.2252 130.463 12.5086 130.531 12.6649 130.707C12.8212 130.883 12.9286 131.098 13.1045 131.254C13.2804 131.411 13.5246 131.479 13.7004 131.626C13.8763 131.772 13.8861 132.163 14.0717 132.29C14.2573 132.417 14.5015 132.515 14.6969 132.622C14.8923 132.73 15.205 132.622 15.4199 132.71C15.6348 132.798 15.8107 132.974 16.0354 133.033C16.2601 133.091 16.4945 133.062 16.7192 133.091C16.944 133.12 17.1589 133.414 17.4031 133.414C17.5887 133.414 17.8134 133.199 18.087 133.199C18.2922 133.199 18.5169 133.433 18.7709 133.433C18.9858 133.433 19.2105 133.414 19.4547 133.414C19.6697 133.414 19.9041 133.404 20.1484 133.404C20.3633 133.404 20.5978 133.238 20.8322 133.238C21.0569 133.238 21.2816 133.345 21.5161 133.345C21.7408 133.345 21.9655 133.072 22.2 133.072C22.4247 133.072 22.6494 133.062 22.8839 133.062C23.1086 133.062 23.3333 133.101 23.5677 133.101C23.8022 133.101 24.0171 132.993 24.2516 132.993C24.4861 132.993 24.701 133.453 24.9355 133.453C25.1699 133.453 25.3849 133.414 25.6193 133.414C25.8538 133.414 26.0687 133.541 26.3032 133.541C26.5377 133.541 26.7526 133.384 26.9871 133.384C27.2216 133.384 27.4365 133.531 27.671 133.531C27.9054 133.531 28.1301 133.531 28.3548 133.531C28.5795 133.531 28.814 133.384 29.0387 133.384C29.2634 133.384 29.4979 133.013 29.7226 133.013C29.9473 133.013 30.1817 133.247 30.4064 133.247C30.6311 133.247 30.8656 133.247 31.0903 133.247C31.315 133.247 31.5495 133.521 31.7742 133.521C31.9989 133.521 32.2334 133.169 32.4581 133.169C32.6828 133.169 32.9172 133.296 33.1419 133.296C33.3666 133.296 33.6011 133.482 33.8258 133.482C34.0505 133.482 34.285 133.57 34.5097 133.57C34.7344 133.57 34.9688 133.238 35.1935 133.238C35.4182 133.238 35.6527 133.287 35.8774 133.287C36.1021 133.287 36.3366 133.042 36.5613 133.042C36.786 133.042 37.0204 133.003 37.2451 133.003C37.4698 133.003 37.7043 133.257 37.929 133.257C38.1537 133.257 38.3882 133.56 38.6129 133.56C38.8376 133.56 39.0721 133.14 39.2968 133.14C39.5215 133.14 39.7559 133.374 39.9904 133.374C40.2249 133.374 40.4496 133.287 40.684 133.287C40.9185 133.287 41.1432 133.091 41.3777 133.091C41.6122 133.091 41.8369 133.296 42.0616 133.296C42.2863 133.296 42.5207 133.199 42.7454 133.199C42.9701 133.199 43.2046 133.492 43.4293 133.492C43.654 133.492 43.8885 133.443 44.1132 133.443C44.3379 133.443 44.5723 133.003 44.797 133.003C45.0217 133.003 45.2562 133.091 45.4809 133.091C45.7056 133.091 45.9401 133.541 46.1648 133.541C46.3895 133.541 46.624 133.238 46.8487 133.238C47.0734 133.238 47.3078 133.111 47.5325 133.111C47.7572 133.111 47.9917 133.326 48.2164 133.326C48.4411 133.326 48.6756 133.111 48.9003 133.111C49.125 133.111 49.3594 133.267 49.5939 133.267C49.8284 133.267 50.0531 133.384 50.2876 133.384C50.522 133.384 50.7467 133.423 50.9812 133.423C51.2157 133.423 51.4404 133.462 51.6748 133.462C51.9093 133.462 52.134 133.492 52.3587 133.492C52.5834 133.492 52.8179 133.492 53.0426 133.492C53.2673 133.492 53.5017 133.179 53.7362 133.179C53.9707 133.179 54.1954 133.15 54.4299 133.15C54.6643 133.15 54.889 133.296 55.1235 133.296C55.358 133.296 55.5827 133.394 55.8171 133.394C56.0516 133.394 56.2763 133.287 56.5108 133.287C56.7452 133.287 56.9699 133.414 57.2044 133.414C57.4389 133.414 57.6636 133.472 57.8981 133.472C58.1325 133.472 58.3572 133.218 58.5917 133.218C58.8262 133.218 59.0509 133.13 59.2853 133.13C59.5198 133.13 59.7445 133.062 59.979 133.062C60.2135 133.062 60.4382 133.511 60.6726 133.511C60.9071 133.511 61.1318 133.443 61.3663 133.443C61.6007 133.443 61.8254 133.14 62.0599 133.14C62.2944 133.14 62.5191 133.55 62.7535 133.55C62.988 133.55 63.2127 133.072 63.4472 133.072C63.6817 133.072 63.9064 133.179 64.1408 133.179C64.3753 133.179 64.6 133.13 64.8345 133.13C65.0689 133.13 65.2936 133.55 65.5281 133.55C65.7626 133.55 65.9873 133.443 66.2217 133.443C66.4562 133.443 66.6809 133.462 66.9154 133.462C67.1499 133.462 67.3746 133.16 67.609 133.16C67.8435 133.16 68.0682 133.101 68.3027 133.101C68.5371 133.101 68.7618 133.501 68.9963 133.501C69.2308 133.501 69.4555 133.208 69.69 133.208C69.9244 133.208 70.1491 133.101 70.3836 133.101C70.6181 133.101 70.8428 133.55 71.0772 133.55C71.3117 133.55 71.5364 133.335 71.7709 133.335C72.0053 133.335 72.23 133.404 72.4645 133.404C72.699 133.404 72.9237 133.482 73.1582 133.482C73.3926 133.482 73.6173 133.169 73.8518 133.169C74.0863 133.169 74.311 133.482 74.5454 133.482C74.7799 133.482 75.0046 133.433 75.2391 133.433C75.4736 133.433 75.6983 133.541 75.9327 133.541C76.1672 133.541 76.3919 133.541 76.6264 133.541C76.8608 133.541 77.0855 133.374 77.32 133.374C77.5545 133.374 77.7792 133.169 78.0136 133.169C78.2481 133.169 78.4728 133.453 78.7073 133.453C78.9418 133.453 79.1665 133.003 79.4009 133.003C79.6354 133.003 79.8601 133.081 80.0946 133.081C80.329 133.081 80.5537 133.218 80.7882 133.218C81.0227 133.218 81.2474 133.453 81.4818 133.453C81.7163 133.453 81.941 133.57 82.1755 133.57C82.41 133.57 82.6347 133.023 82.8691 133.023C83.1036 133.023 83.3283 133.541 83.5628 133.541C83.7972 133.541 84.0219 133.462 84.2564 133.462C84.4909 133.462 84.7156 133.208 84.9501 133.208C85.1845 133.208 85.4092 133.208 85.6437 133.208C85.8782 133.208 86.1029 133.55 86.3373 133.55C86.5718 133.55 86.7965 133.091 87.031 133.091C87.2654 133.091 87.4902 133.423 87.7246 133.423C87.9591 133.423 88.1838 133.423 88.4183 133.423C88.6527 133.423 88.8774 133.58 89.1119 133.58C89.3464 133.58 89.5711 133.433 89.8055 133.433C90.04 133.433 90.2745 133.042 90.4992 133.042C90.7239 133.042 90.9681 133.521 91.1928 133.521C91.4175 133.521 91.6618 133.521 91.8865 133.521C92.1112 133.521 92.3554 133.482 92.5801 133.482C92.8048 133.482 93.049 133.453 93.2737 133.453C93.4984 133.453 93.7427 133.199 93.9674 133.199C94.1921 133.199 94.4363 133.15 94.661 133.15C94.8857 133.15 95.1202 133.306 95.3449 133.306C95.5794 133.306 95.8138 133.423 96.0288 133.423C96.2632 133.423 96.4977 133.531 96.7224 133.531C96.9569 133.531 97.1913 133.169 97.416 133.169C97.6603 133.169 97.885 133.306 98.0999 133.306C98.3442 133.306 98.5689 133.511 98.7838 133.511C99.0378 133.511 99.2625 133.062 99.4677 133.062C99.7314 133.062 99.9659 133.15 100.161 133.15C100.601 133.15 100.63 133.58 100.796 133.277C100.962 132.974 100.493 133.218 100.279 132.847C100.181 132.681 100.259 132.378 100.132 132.153C100.025 131.977 99.9464 131.762 99.8194 131.557C99.7119 131.372 99.751 131.079 99.624 130.883C99.5067 130.698 98.9987 130.746 98.8717 130.551C98.7545 130.365 98.8033 130.072 98.6763 129.877C98.5493 129.682 98.4614 129.486 98.3344 129.291C98.2074 129.095 98.2074 128.841 98.0706 128.646C97.9338 128.451 97.8752 128.236 97.7384 128.05C97.6017 127.864 97.5626 127.62 97.4258 127.435C97.289 127.249 97.0643 127.132 96.9276 126.956C96.7908 126.78 96.4489 126.76 96.3023 126.585C96.1558 126.409 95.9701 126.272 95.8334 126.096C95.6966 125.92 95.5012 125.793 95.3449 125.627C95.1886 125.461 95.0225 125.315 94.8662 125.158C94.7099 125.002 94.661 124.728 94.4949 124.572C94.3289 124.416 94.2702 124.142 94.1041 123.996C93.9283 123.839 93.7134 123.751 93.5375 123.615C93.3519 123.478 93.2542 123.195 93.0686 123.087C92.8634 122.96 92.5801 122.989 92.3847 122.901C92.1698 122.804 91.9842 122.745 91.779 122.696C91.7008 122.364 91.8767 122.511 92.16 122.169C92.2772 122.022 92.3847 121.817 92.5508 121.612C92.6778 121.446 93.0295 121.436 93.176 121.231C93.303 121.065 93.4594 120.889 93.6059 120.694C93.7329 120.518 93.8013 120.283 93.9381 120.088C94.0651 119.912 94.2898 119.785 94.4168 119.59C94.534 119.404 94.5536 119.14 94.6806 118.945C94.7978 118.759 94.876 118.534 95.003 118.339C95.1202 118.153 95.257 117.968 95.3742 117.763C95.4914 117.557 95.7454 117.46 95.8627 117.255C95.9799 117.049 95.8431 116.717 95.9604 116.522C96.0776 116.327 96.0385 116.053 96.1558 115.848C96.273 115.643 96.7029 115.623 96.8103 115.418C96.9178 115.213 96.8396 114.92 96.9471 114.715C97.0546 114.509 97.1132 114.294 97.2206 114.079C97.3281 113.865 97.3379 113.63 97.4454 113.425C97.5528 113.22 97.7971 113.093 97.8948 112.878C97.9925 112.663 98.2172 112.526 98.3149 112.321C98.4126 112.116 98.4516 111.881 98.5493 111.666C98.647 111.451 98.8619 111.305 98.9499 111.09C99.0378 110.875 98.8619 110.562 98.9499 110.348C99.0378 110.133 99.243 109.986 99.3309 109.771C99.4188 109.556 99.2039 109.234 99.2918 109.019C99.3797 108.804 99.8291 108.745 99.9073 108.53C99.9854 108.315 99.8389 108.022 99.9268 107.807C100.015 107.592 100.2 107.426 100.279 107.211C100.357 106.997 100.415 106.772 100.484 106.557C100.552 106.342 100.708 106.156 100.777 105.932C100.845 105.707 100.65 105.414 100.718 105.189C100.787 104.964 101.177 104.857 101.256 104.642C101.334 104.427 101.314 104.183 101.383 103.958C101.451 103.734 101.519 103.519 101.588 103.304C101.656 103.089 101.744 102.874 101.803 102.649C101.861 102.424 101.676 102.141 101.734 101.916C101.793 101.692 102.018 101.526 102.086 101.301C102.154 101.076 102.154 100.851 102.213 100.627C102.272 100.402 102.408 100.207 102.467 99.982C102.526 99.7573 102.77 99.5912 102.828 99.3665C102.887 99.1418 102.692 98.8683 102.74 98.6436C102.789 98.4189 102.672 98.1648 102.731 97.9401C102.789 97.7154 102.828 97.5005 102.877 97.2758C102.926 97.0511 103.405 96.9241 103.444 96.6994C103.483 96.4747 103.375 96.2207 103.424 95.996C103.473 95.7713 103.483 95.5466 103.532 95.3121C103.581 95.0777 103.844 94.9018 103.884 94.6771C103.923 94.4524 103.796 94.1984 103.835 93.9639C103.874 93.7294 104.001 93.5243 104.03 93.2996C104.059 93.0749 103.649 92.772 103.688 92.5473C103.727 92.3226 103.874 92.1175 103.913 91.8928C103.952 91.6681 104.225 91.4824 104.265 91.248C104.304 91.0135 104.167 90.7693 104.196 90.5446C104.225 90.3199 104.177 90.0756 104.196 89.8509C104.216 89.6262 104.411 89.4113 104.44 89.1866C104.47 88.9619 104.694 88.7567 104.724 88.5223C104.753 88.2878 104.773 88.0631 104.802 87.8286C104.831 87.5941 104.87 87.3695 104.89 87.135C104.909 86.9005 104.763 86.6563 104.792 86.4316C104.821 86.2069 105.036 85.9822 105.056 85.7477C105.075 85.5132 104.743 85.2592 104.763 85.0247C104.782 84.7903 105.017 84.5753 105.027 84.3506C105.036 84.1259 105.007 83.8817 105.017 83.6472C105.027 83.4128 105.105 83.1881 105.114 82.9536C105.124 82.7191 104.88 82.4847 104.89 82.2502C104.9 82.0157 104.919 81.791 104.919 81.5565C104.919 81.3221 105.007 81.0974 105.007 80.8629C105.007 80.6284 105.183 80.394 105.183 80.1693C105.183 79.9446 105.163 79.7003 105.163 79.4756C105.163 79.2509 105.046 79.0165 105.036 78.782C105.027 78.5475 105.114 78.313 105.105 78.0786C105.095 77.8441 104.997 77.6194 104.987 77.3849C104.978 77.1505 104.987 76.916 104.968 76.6913C104.948 76.4666 104.88 76.2321 104.86 75.9976C104.841 75.7632 104.597 75.558 104.577 75.3235C104.558 75.0891 104.763 74.8448 104.733 74.6104C104.704 74.3759 104.499 74.1707 104.47 73.946C104.44 73.7213 104.343 73.4966 104.313 73.2719C104.284 73.0472 104.646 72.7541 104.616 72.5294C104.587 72.3047 104.577 72.0605 104.548 71.8358C104.519 71.6111 104.225 71.4157 104.186 71.191C104.147 70.9663 104.362 70.683 104.323 70.4583C104.284 70.2336 104.206 70.0089 104.157 69.7744C104.108 69.54 103.903 69.3446 103.864 69.1199C103.825 68.8952 103.884 68.6411 103.835 68.4164C103.786 68.1917 103.766 67.9475 103.717 67.7228C103.669 67.4981 103.317 67.3418 103.258 67.1171C103.2 66.8924 103.034 66.697 102.975 66.4723C102.916 66.2476 102.809 66.0424 102.75 65.8177C102.692 65.593 102.711 65.3488 102.653 65.1241C102.594 64.8994 102.838 64.577 102.77 64.3621C102.701 64.1471 102.477 63.9615 102.408 63.7466C102.34 63.5316 102.125 63.3558 102.057 63.1311C101.988 62.9064 102.252 62.5645 102.174 62.3495C102.096 62.1346 102.018 61.9099 101.939 61.695C101.861 61.48 101.402 61.4019 101.314 61.187C101.226 60.972 101.011 60.8059 100.933 60.6008C100.855 60.3956 100.943 60.0928 100.855 59.8876C100.767 59.6824 100.62 59.487 100.523 59.2721C100.425 59.0572 100.298 58.8716 100.2 58.6566C100.103 58.4417 100.191 58.1486 100.093 57.9434C99.9952 57.7383 99.8389 57.5527 99.7412 57.3475C99.6435 57.1423 99.3993 57.0056 99.2918 56.8004C99.1843 56.5952 99.0476 56.4096 98.9401 56.2045C98.8326 55.9993 98.862 55.7257 98.7545 55.5206C98.647 55.3154 98.4321 55.1689 98.3246 54.9735C98.2172 54.7781 98.0901 54.5729 97.9827 54.3775C97.8752 54.1822 97.8264 53.9379 97.7091 53.7425C97.5919 53.5471 97.416 53.381 97.2988 53.1857C97.1816 52.9903 97.1327 52.746 97.0155 52.5506C96.8983 52.3552 96.8787 52.0915 96.7517 51.9058C96.6247 51.7202 96.3609 51.6128 96.2339 51.4271C96.1069 51.2415 96.1655 50.9191 96.0385 50.7237C95.9115 50.5283 95.7454 50.3622 95.6184 50.1766C95.4914 49.991 95.3644 49.7858 95.2374 49.6002C95.1104 49.4146 95.13 49.102 94.9932 48.9163C94.8564 48.7307 94.5145 48.6916 94.3777 48.5158C94.2409 48.3399 94.1335 48.1152 93.9967 47.9296C93.8599 47.744 93.5864 47.6561 93.4496 47.4802C93.3128 47.3044 93.3031 47.0015 93.1565 46.8257C93.01 46.6498 92.6778 46.6205 92.5313 46.4544C92.3847 46.2883 92.414 45.9366 92.2675 45.7705C92.1112 45.5947 92.0135 45.37 91.8669 45.2039C91.7106 45.0281 91.4957 44.9108 91.3394 44.7447C91.1733 44.5689 90.9486 44.4614 90.7923 44.3051C90.6262 44.1292 90.3233 44.1097 90.167 43.9534C89.9912 43.7775 89.9423 43.504 89.786 43.3575C89.6004 43.1816 89.3073 43.1621 89.1608 43.0253C88.9654 42.8494 88.77 42.7224 88.6234 42.6052C88.2913 42.3219 88.6039 42.146 88.2717 42.2242L88.1936 42.2437Z" fill="black"/>
<path d="M88.0273 29.6507C90.3036 27.6967 94.4264 19.0311 94.4752 17.2824C94.5241 15.5336 94.3677 10.4632 90.4013 7.29785C86.4348 4.12273 85.751 2.9113 79.4594 2.80383C73.1677 2.69637 67.8335 4.01526 65.5572 6.18411C63.2809 8.35296 60.4282 10.5707 59.4805 14.4296C58.5329 18.2886 60.0081 25.8991 62.0695 28.068C64.1309 30.2368 66.4072 30.5006 69.045 33.3045C71.6828 36.1084 72.7476 39.6254 73.8028 40.3191C74.8579 41.0225 75.6492 40.661 76.4992 38.9904C77.3491 37.3198 76.8118 35.6785 79.5082 34.0958C82.2046 32.5132 82.8103 31.8195 84.4614 31.5557C86.1124 31.292 88.0175 29.6507 88.0175 29.6507H88.0273Z" fill="#FFC3A3"/>
<path d="M77.8278 26.4756C82.9373 23.3982 84.94 20.6139 85.7607 19.0019C86.5813 17.3899 87.402 14.928 85.3992 13.5407C83.3964 12.1534 82.0385 11.2546 79.938 12.6517C77.8278 14.0487 76.2549 14.713 74.0762 13.3648C71.8976 12.0166 70.608 11.0006 68.615 13.3648C66.6123 15.7291 66.6514 20.5357 67.726 21.9523C68.8007 23.3689 71.1161 25.1372 72.5815 25.8797C74.0469 26.6222 77.8278 26.4854 77.8278 26.4854V26.4756Z" fill="#970215"/>
<path d="M85.5946 61.5973C85.3211 59.6434 83.9045 59.3307 83.9631 62.6719C84.0217 66.0131 82.693 68.1722 80.2311 68.9928C77.7692 69.8135 74.9653 70.6537 76.4796 74.923C77.9939 79.1923 81.9017 80.6187 86.9428 79.1141C91.9937 77.6096 92.3552 71.8065 89.8248 69.1882C87.2945 66.57 86.0342 64.6258 85.6044 61.5875L85.5946 61.5973Z" fill="#FCFCFC"/>
<path d="M84.738 71.7785C86.1245 71.7591 87.2404 71.1661 87.2305 70.454C87.2205 69.7418 86.0885 69.1802 84.7019 69.1996C83.3154 69.2189 82.1995 69.8119 82.2094 70.5241C82.2194 71.2362 83.3514 71.7978 84.738 71.7785Z" fill="black"/>
<path d="M86.5914 75.1869C85.9368 75.1869 85.3115 74.9328 84.8426 74.4737C84.3639 74.0047 84.0903 73.3795 84.0806 72.7151C84.0806 72.3439 84.3737 72.041 84.7449 72.0313C85.1161 72.0313 85.4092 72.3244 85.419 72.6956C85.419 73.3404 85.927 73.8289 86.6011 73.8386C87.2459 73.8386 87.7539 73.3013 87.7442 72.6565C87.7442 72.2853 88.0373 71.9824 88.4085 71.9727C88.7797 71.9727 89.0728 72.2657 89.0826 72.637C89.1021 74.0243 87.9884 75.1575 86.6109 75.1771C86.6011 75.1771 86.5914 75.1771 86.5718 75.1771L86.5914 75.1869Z" fill="black"/>
<path d="M82.918 75.2357C81.5503 75.2357 80.4268 74.1317 80.417 72.764C80.417 72.3927 80.7101 72.0899 81.0813 72.0801C81.0813 72.0801 81.0813 72.0801 81.0911 72.0801C81.4623 72.0801 81.7554 72.3732 81.7652 72.7444C81.7652 73.3892 82.3025 73.8972 82.9473 73.8875C83.5921 73.8875 84.1001 73.3502 84.0904 72.7054C84.0904 72.3341 84.3834 72.0313 84.7547 72.0215C85.1259 72.0215 85.419 72.3146 85.4288 72.6858C85.4288 73.3599 85.1846 73.9852 84.7156 74.4737C84.2467 74.9524 83.6214 75.2259 82.9571 75.2357C82.9473 75.2357 82.9375 75.2357 82.918 75.2357Z" fill="black"/>
<path d="M76.0987 28.156C75.8935 28.156 75.7958 27.9997 75.6004 27.9215C75.5516 27.902 75.3366 27.8043 74.9849 27.6382C74.8091 27.5503 74.4769 27.7163 74.2327 27.5893C74.047 27.4916 73.7833 27.4819 73.5683 27.3744C73.3729 27.2669 73.2069 27.0813 72.9919 26.9641C72.7965 26.8566 72.5621 26.798 72.3471 26.6808C72.1517 26.5635 72.1615 26.1141 71.9563 25.9871C71.7512 25.8601 71.3018 26.1532 71.1064 26.0262C70.911 25.8992 70.8817 25.528 70.6863 25.3912C70.4909 25.2544 70.1099 25.3912 69.9243 25.2544C69.7387 25.1176 69.5726 24.932 69.3967 24.7952C69.2209 24.6585 69.045 24.4728 68.8692 24.3263C68.6933 24.1798 68.5272 24.0039 68.3514 23.8476C68.1755 23.6913 68.1462 23.3786 67.9801 23.2223C67.814 23.066 67.687 22.8609 67.5307 22.685C67.3744 22.5092 66.9836 22.5482 66.8273 22.3724C66.671 22.1965 66.9152 21.708 66.7687 21.5224C66.6221 21.3368 66.2216 21.3466 66.0946 21.1512C65.9676 20.9558 65.6843 20.8386 65.567 20.6432C65.4498 20.4478 65.4009 20.184 65.3033 19.9788C65.2056 19.7737 65.2446 19.4903 65.1665 19.2656C65.0883 19.0409 64.8148 18.8749 64.7562 18.6502C64.6975 18.4255 65.0395 18.1031 65.0004 17.8784C64.9613 17.6537 64.8832 17.429 64.8734 17.2043C64.8636 16.9796 64.5217 16.7353 64.5315 16.5009C64.5412 16.2664 64.7757 16.0417 64.8148 15.817C64.8539 15.5923 64.8734 15.348 64.932 15.1233C64.9906 14.8986 64.9613 14.6349 65.0395 14.4102C65.1176 14.1855 65.3912 14.0487 65.4889 13.8338C65.5866 13.6188 65.4889 13.3062 65.6159 13.101C65.7429 12.8959 65.8113 12.6614 65.9481 12.466C66.0848 12.2706 66.2118 12.0655 66.3681 11.8798C66.5245 11.6747 66.7003 11.4695 66.8664 11.3034C67.0422 11.1178 67.4233 11.1471 67.5991 10.9908C67.7945 10.8247 68.0778 10.815 68.2732 10.688C68.4881 10.5512 68.6347 10.346 68.8496 10.2385C69.0841 10.1311 69.3186 10.0822 69.5433 10.0138C69.7875 9.93569 70.0415 10.0529 70.2662 10.0138C70.53 9.97477 70.7351 9.73053 70.9598 9.73053V9.8673C71.1943 9.8673 71.3995 9.86731 71.6242 9.90638C71.8489 9.94546 72.0931 9.81846 72.3178 9.87708C72.5425 9.93569 72.777 9.95523 72.9822 10.0334C73.1873 10.1115 73.3534 10.3362 73.5586 10.4339C73.7637 10.5316 74.0177 10.5414 74.2131 10.6586C74.4085 10.7759 74.5648 10.9615 74.7505 11.0885C74.9361 11.2155 75.278 11.1569 75.4539 11.2937C75.6395 11.4402 75.7958 11.6161 75.9619 11.7626C76.1475 11.9189 76.2452 11.9385 76.3917 12.0948C76.5578 11.9678 76.6458 11.9482 76.8411 11.8115C77.017 11.6844 77.3882 11.8115 77.5739 11.6844C77.7595 11.5574 77.8279 11.2741 78.0233 11.1471C78.2187 11.0201 78.4336 10.9615 78.629 10.8443C78.8244 10.727 78.9123 10.4144 79.1175 10.3167C79.3226 10.219 79.5766 10.2092 79.7818 10.1115C79.9869 10.0138 80.2116 9.95523 80.4266 9.87708C80.6415 9.79892 80.8564 9.70122 81.0714 9.6426C81.2863 9.58399 81.511 9.48629 81.7357 9.43744C81.9604 9.3886 82.2144 9.59376 82.4391 9.57422C82.6638 9.55468 82.8983 9.27136 83.123 9.28113C83.3477 9.2909 83.4942 9.80869 83.7189 9.85754C83.9339 9.90638 84.2758 9.56445 84.5103 9.66214C84.7154 9.75007 85.0085 9.77938 85.2234 9.91615C85.4091 10.0334 85.4091 10.4437 85.5947 10.6196C85.7608 10.7759 85.7901 11.0299 85.9464 11.2253C86.0832 11.4011 86.4642 11.4207 86.5814 11.6454C86.6889 11.8408 86.9722 11.9971 87.0601 12.2315C87.1481 12.4562 87.1187 12.7298 87.1871 12.9447C87.2555 13.1597 87.2164 13.4332 87.2555 13.6579C87.2946 13.8826 87.0406 14.1562 87.0601 14.3809C87.0797 14.6056 87.2946 14.8205 87.3044 15.055C87.3141 15.2894 87.1774 15.5044 87.1578 15.7388C87.1383 15.9733 87.0797 16.1785 87.0406 16.4129C87.0015 16.6474 87.1676 16.9112 87.109 17.1359C87.0504 17.3606 87.0504 17.6048 86.982 17.8295C86.9136 18.0542 86.9722 18.3375 86.8843 18.5525C86.7964 18.7674 86.4446 18.8651 86.3372 19.08C86.2297 19.295 86.2786 19.5783 86.1613 19.7834C86.0441 19.9886 85.8976 20.1742 85.7705 20.3696C85.6435 20.565 85.2918 20.6041 85.1551 20.7995C85.0183 20.9949 85.1062 21.3368 84.9597 21.5224C84.8131 21.708 84.7252 21.9425 84.5787 22.1184C84.4321 22.2942 84.2172 22.431 84.0609 22.5971C83.9046 22.7632 83.5724 22.7827 83.4161 22.9488C83.2598 23.1149 83.0253 23.2126 82.8592 23.3689C82.6931 23.5252 82.6638 23.8378 82.4977 23.9941C82.3317 24.1504 82.0483 24.1993 81.8822 24.3556C81.7162 24.5119 81.5208 24.6487 81.3449 24.7952C81.1691 24.9418 81.1202 25.2642 80.9444 25.4107C80.7685 25.5573 80.4852 25.5866 80.2996 25.7233C80.1042 25.8699 80.1042 26.2607 79.9283 26.3974C79.7329 26.544 79.3226 26.3681 79.137 26.4951C78.9318 26.6319 78.7755 26.8175 78.5899 26.9348C78.3847 27.0715 78.1893 27.2083 78.0135 27.3256C77.7888 27.4721 77.6227 27.6382 77.4566 27.7456C77.1342 27.941 77.0561 28.3025 76.9975 28.3416C76.763 28.4686 76.3917 28.195 76.128 28.195L76.0987 28.156ZM70.9696 12.6028C70.8426 12.6028 70.4616 12.4953 70.1001 12.6516C69.9047 12.7396 69.6116 12.9154 69.3674 13.1206C69.1916 13.2671 69.2013 13.6774 69.0157 13.9119C68.8692 14.1073 68.8301 14.3515 68.7031 14.5372C68.5761 14.7423 68.3904 14.8986 68.2928 15.094C68.1853 15.309 68.1755 15.5434 68.1071 15.7584C68.0387 15.9831 67.6089 16.1491 67.5796 16.3738C67.5503 16.5986 68.029 16.8526 68.0485 17.087C68.0681 17.3215 67.814 17.5755 67.8727 17.81C67.9313 18.0347 68.3123 18.1324 68.4002 18.3473C68.4881 18.5622 68.537 18.7576 68.6542 18.9628C68.7715 19.168 68.8594 19.3536 68.9864 19.549C69.1134 19.7444 69.2404 19.9202 69.3869 20.0961C69.5335 20.2719 69.5335 20.5748 69.6898 20.7409C69.8461 20.9069 69.9731 21.1121 70.1392 21.2684C70.3053 21.4247 70.6863 21.3466 70.8622 21.4931C71.038 21.6397 70.9012 22.1672 71.0869 22.3138C71.2725 22.4603 71.6535 22.3333 71.8391 22.4701C72.0247 22.6068 72.3178 22.5971 72.5034 22.7241C72.6891 22.8511 72.8454 23.0367 73.031 23.1637C73.2166 23.2907 73.3436 23.5447 73.539 23.662C73.7344 23.7792 74.0373 23.7303 74.2327 23.8378C74.4378 23.955 74.4476 24.424 74.643 24.5315C74.8579 24.6487 75.0826 24.7073 75.278 24.8148C75.4929 24.9222 75.7469 24.6975 75.9423 24.7952C76.1084 24.6878 76.3038 24.7855 76.5187 24.6389C76.6946 24.5217 76.8704 24.3751 77.0658 24.2286C77.2417 24.1016 77.3687 23.8867 77.5641 23.7499C77.7399 23.6229 78.0428 23.6424 78.2284 23.4959C78.4043 23.3591 78.4433 23.0367 78.629 22.8999C78.8146 22.7632 78.9416 22.5775 79.1175 22.4212C79.2933 22.2649 79.4496 22.1281 79.6255 21.9718C79.8013 21.8155 79.9576 21.6787 80.1335 21.5224C80.3093 21.3661 80.6611 21.415 80.8174 21.2586C80.9737 21.1023 81.257 21.0437 81.4133 20.8874C81.5696 20.7311 81.6575 20.4771 81.8041 20.311C81.9506 20.1449 82.146 19.9886 82.2828 19.8127C82.4196 19.6369 82.7029 19.549 82.8397 19.3633C82.9764 19.1777 82.9276 18.8553 83.0448 18.6599C83.1621 18.4645 83.4063 18.3278 83.5138 18.1324C83.6212 17.937 83.7287 17.7123 83.8264 17.5071C83.9241 17.302 83.8655 17.0186 83.9436 16.8037C84.0218 16.5888 84.0316 16.3543 84.0804 16.1296C84.1293 15.9049 84.3051 15.6997 84.3246 15.4653C84.3442 15.2308 84.2367 14.9963 84.2269 14.7716C84.2172 14.5469 84.2563 14.3027 84.1976 14.078C84.139 13.8533 83.8459 13.7263 83.758 13.5114C83.6505 13.2574 83.6017 13.0913 83.4942 12.9643C83.2793 12.7005 83.123 12.7884 83.0155 12.7689C82.8201 12.72 82.6638 12.6321 82.4196 12.6614C82.2144 12.6907 81.9213 12.4269 81.6966 12.5051C81.4915 12.5735 81.3449 12.8373 81.13 12.935C80.9346 13.0229 80.7099 13.0717 80.5047 13.1792C80.2996 13.2867 80.2312 13.5895 80.0358 13.7068C79.8404 13.824 79.6059 13.8533 79.4203 13.9705C79.2347 14.0878 79.0393 14.1952 78.8537 14.332C78.6681 14.4688 78.502 14.6153 78.3359 14.7521C78.1698 14.8889 78.0135 15.0647 77.8474 15.2015C77.6716 15.348 77.3492 15.3285 77.1928 15.475C77.0365 15.6216 76.9779 15.9831 76.7825 16.0515C76.5871 16.1198 76.3331 15.6704 76.1182 15.6509C75.9033 15.6314 75.6102 15.9733 75.4245 15.8756C75.2389 15.7779 74.9458 15.6704 74.8188 15.5044C74.7114 15.3676 74.7993 14.9768 74.5941 14.7716C74.4476 14.6153 74.3694 14.332 74.1838 14.1659C74.0177 14.0096 73.6269 14.0878 73.4413 13.9412C73.2557 13.7947 72.9724 13.8142 72.7672 13.6872C72.5621 13.5602 72.4448 13.3453 72.2299 13.2378C72.015 13.1303 71.8391 12.9447 71.6242 12.8861C71.3897 12.8177 71.165 12.6126 70.9305 12.6126L70.9696 12.6028Z" fill="black"/>
<path d="M75.063 42.0972C74.7993 42.0972 74.4866 42.1655 74.2424 42.0776C73.9982 41.9897 73.6562 41.9115 73.4511 41.7552C73.2459 41.5989 73.3436 41.13 73.2068 40.9053C73.0212 40.6024 73.0994 40.5536 72.9137 40.2507C72.7281 39.9478 72.4839 40.1042 72.2983 39.8013C72.1126 39.4984 72.2201 39.4301 72.0345 39.1272C71.8488 38.8243 71.9172 38.7755 71.7316 38.4726C71.546 38.1698 71.6632 38.1014 71.4776 37.7985C71.292 37.4957 71.292 37.4957 71.1064 37.1928C70.9207 36.89 70.569 37.1147 70.3834 36.8118C70.1978 36.5089 70.1587 36.5285 69.9731 36.2256C69.7875 35.9228 69.9731 35.8055 69.7875 35.5027C69.6018 35.1998 69.5139 35.2487 69.3283 34.9458C69.1427 34.643 69.1818 34.6234 68.9473 34.3499C68.7324 34.2913 68.5077 34.3206 68.283 34.2424C68.0778 34.1642 67.9312 33.9005 67.7163 33.8028C67.5112 33.7149 67.2767 33.6758 67.0715 33.5683C66.8664 33.4608 66.7589 33.2068 66.5537 33.0896C66.3486 32.9724 66.0359 33.0701 65.8406 32.9431C65.6452 32.816 65.44 32.7184 65.2446 32.5816C65.0492 32.4448 65.0199 32.1126 64.8343 31.9661C64.6487 31.8195 64.4826 31.673 64.3067 31.5362C64.1309 31.3995 63.7499 31.4874 63.574 31.3311C63.3982 31.1748 63.2809 30.9696 63.1051 30.8133C62.9292 30.657 62.7143 30.5593 62.5482 30.3932C62.3821 30.2271 62.3821 29.9145 62.216 29.7484C62.05 29.5823 62.0304 29.299 61.8839 29.1329C61.7373 28.9668 61.581 28.8007 61.4345 28.6249C61.2879 28.449 60.9167 28.4588 60.7701 28.283C60.6236 28.1071 60.3989 27.9801 60.2621 27.7945C60.1253 27.6089 60.2817 27.2181 60.1547 27.0227C60.0276 26.8273 59.8127 26.7003 59.6857 26.5049C59.5587 26.3095 59.6466 26.0066 59.5294 25.8015C59.4122 25.5963 59.3047 25.4107 59.1972 25.2153C59.0898 25.0199 58.6306 24.9906 58.5329 24.7854C58.4352 24.5803 58.2398 24.4044 58.1421 24.1993C58.0444 23.9941 58.4059 23.5936 58.318 23.3786C58.23 23.1637 57.7611 23.0953 57.6829 22.8804C57.6048 22.6654 57.4876 22.4505 57.4192 22.2258C57.3605 22.0109 57.7513 21.6689 57.7025 21.4442C57.6536 21.2195 57.3215 21.0632 57.2824 20.8385C57.2433 20.6138 57.4094 20.3598 57.3801 20.1254C57.3508 19.8909 57.0382 19.7053 57.0186 19.4806C56.9991 19.2559 56.9111 19.0214 56.9014 18.7967C56.8916 18.572 56.8721 18.3277 56.8721 18.103C56.8721 17.8783 56.8721 17.6341 56.8916 17.4094C56.9111 17.1847 57.2238 16.9795 57.2433 16.7451C57.2629 16.5106 57.4094 16.3152 57.4387 16.0905C57.468 15.8658 57.5462 15.6607 57.5853 15.4359C57.6243 15.2112 57.6048 14.9865 57.6634 14.7618C57.722 14.5371 57.4289 14.2245 57.4973 13.9998C57.5657 13.7751 57.7513 13.5993 57.8295 13.3843C57.9076 13.1694 58.2691 13.0717 58.357 12.8568C58.445 12.6418 58.445 12.4074 58.5427 12.2022C58.6404 11.9971 58.3473 11.5965 58.4547 11.3913C58.5622 11.1862 58.7771 11.0396 58.8944 10.8345C59.0116 10.6293 59.2656 10.5218 59.3926 10.3265C59.5196 10.1311 59.5392 9.87705 59.6662 9.68166C59.7932 9.48627 59.969 9.33973 60.1058 9.14434C60.2426 8.94894 60.5454 8.90987 60.692 8.72424C60.8385 8.53862 60.9362 8.34323 61.0828 8.16738C61.2293 7.99152 61.3172 7.76682 61.4735 7.59097C61.6299 7.41512 61.7373 7.21973 61.9034 7.04387C62.0695 6.86802 62.4505 6.94618 62.6166 6.78009C62.7827 6.61401 62.9292 6.4577 63.0953 6.29161C63.2614 6.1353 63.2907 5.83244 63.4665 5.6859C63.6424 5.53936 63.6033 5.1388 63.7792 4.99226C63.955 4.84572 64.4533 5.09973 64.6389 4.95318C64.8245 4.80664 64.9711 4.65032 65.1567 4.51355C65.3423 4.37677 65.5279 4.25954 65.7136 4.12277C65.8992 3.98599 65.9285 3.62452 66.1239 3.50728C66.3193 3.39005 66.5537 3.33143 66.7491 3.20442C66.9445 3.07742 67.179 3.03834 67.3841 2.9211C67.5893 2.80387 67.814 2.75502 68.0192 2.64756C68.2243 2.54009 68.4197 2.43263 68.6249 2.33493C68.83 2.23724 68.8594 1.75853 69.0743 1.66083C69.2892 1.56313 69.6312 1.7976 69.8461 1.70968C70.061 1.62175 70.3248 1.68037 70.53 1.59244C70.7351 1.50452 70.8914 1.25051 71.1064 1.17235C71.3213 1.09419 71.5655 1.11373 71.7902 1.04535C72.0149 0.976959 72.2396 0.986729 72.4643 0.928112C72.689 0.869494 72.8063 0.400554 73.031 0.351706C73.2557 0.302858 73.5781 0.762026 73.8028 0.722947C74.0275 0.683869 74.1936 0.293088 74.4183 0.263779C74.643 0.234471 74.9067 0.478709 75.1314 0.4494C75.3561 0.420091 75.5808 0.381013 75.8055 0.361474C76.0302 0.341935 76.2452 0.097696 76.4796 0.0879264C76.7141 0.0781569 76.9388 0 77.1733 0C77.4077 0 77.6325 0.127004 77.8572 0.136774C78.0819 0.146543 78.2968 0.371244 78.5312 0.381013C78.7657 0.390783 78.9709 0.488478 79.1956 0.517787C79.4203 0.547096 79.6841 0.27355 79.9088 0.302859C80.1335 0.332167 80.3972 0.175852 80.6219 0.2247C80.8466 0.273548 81.0616 0.420092 81.2765 0.46894C81.4914 0.517788 81.765 0.429862 81.9897 0.488479C82.2144 0.547097 82.3023 1.07465 82.5172 1.14304C82.7322 1.21143 82.9764 1.20166 83.1913 1.27005C83.4063 1.3482 83.758 1.06489 83.9631 1.15281C84.1683 1.24074 84.3246 1.48498 84.5298 1.5729C84.7349 1.66083 84.8131 2.04184 85.0183 2.13954C85.2234 2.23723 85.3993 2.36424 85.6044 2.4717C85.8096 2.57917 86.2492 2.23724 86.4446 2.35447C86.64 2.47171 86.6302 2.92111 86.8256 3.04811C87.021 3.17512 87.3532 3.07742 87.5388 3.20442C87.7244 3.33143 87.8417 3.57567 88.0175 3.70268C88.1934 3.82968 88.2129 4.19115 88.3888 4.32793C88.5646 4.4647 88.7795 4.55263 88.9554 4.69917C89.1312 4.84572 89.5318 4.73825 89.6979 4.88479C89.864 5.03134 89.8542 5.37327 90.0203 5.52959C90.1864 5.6859 90.2352 5.93991 90.3915 6.10599C90.5478 6.27208 90.8116 6.33069 90.9582 6.50655C91.1047 6.6824 91.388 6.74102 91.5248 6.92664C91.6616 7.11226 91.603 7.43466 91.7397 7.62028C91.8765 7.8059 92.1012 7.92314 92.2282 8.10876C92.3552 8.29438 92.5115 8.47023 92.6288 8.66562C92.746 8.86102 92.8828 9.04664 92.9902 9.24203C93.0977 9.43742 92.9023 9.7989 92.9902 10.0041C93.0782 10.2092 93.2833 10.3558 93.3713 10.5707C93.4592 10.7856 93.6448 10.9419 93.7327 11.1569C93.8207 11.3718 94.016 11.5379 94.0942 11.743C94.1724 11.9482 94.2017 12.1827 94.2701 12.4074C94.3384 12.6321 94.4752 12.8275 94.5338 13.0424C94.5924 13.2573 94.3678 13.5504 94.4166 13.7654C94.4654 13.9803 94.8367 14.1464 94.8758 14.3711C94.9148 14.5958 94.6608 14.8693 94.6999 15.094C94.7292 15.3285 94.6999 15.563 94.7292 15.7877C94.7585 16.0124 94.6511 16.2566 94.6608 16.4813C94.6706 16.706 95.0125 16.9307 95.0125 17.1652C95.0125 17.3996 94.739 17.6243 94.7292 17.8588C94.7194 18.0933 95.1689 18.3571 95.1493 18.5915C95.1298 18.826 94.9637 19.0507 94.9246 19.2754C94.8855 19.5001 94.5436 19.6857 94.4948 19.9104C94.4459 20.1351 94.6706 20.4282 94.612 20.6529C94.5534 20.8776 94.6315 21.1512 94.5631 21.3661C94.4948 21.581 94.2408 21.7569 94.1626 21.9718C94.0844 22.1867 93.9867 22.4017 93.889 22.6166C93.7914 22.8315 93.5764 22.9878 93.4787 23.193C93.381 23.3982 93.3029 23.6229 93.1856 23.8183C93.0684 24.0137 93.0782 24.2872 92.9609 24.4924C92.8437 24.6975 92.9023 25.0101 92.7753 25.2055C92.6483 25.4009 92.3748 25.4986 92.238 25.694C92.1012 25.8894 91.9351 26.0457 91.7886 26.2313C91.642 26.417 91.3294 26.456 91.1731 26.6319C91.0168 26.8078 90.8995 27.0031 90.7432 27.1692C90.5869 27.3353 90.6358 27.7066 90.4795 27.8726C90.3231 28.0387 89.991 28.0387 89.8249 28.2048C89.6588 28.3709 89.7174 28.7812 89.5513 28.9375C89.3853 29.0938 89.1996 29.2502 89.0238 29.4065C88.8479 29.5628 88.5646 29.5921 88.3888 29.7386C88.2129 29.8852 87.871 29.8266 87.6854 29.9633C87.4997 30.1001 87.5193 30.53 87.3336 30.6667C87.148 30.8035 86.8745 30.8328 86.6791 30.9598C86.4837 31.0868 86.1613 31.0184 85.9659 31.1455C85.7705 31.2725 85.6826 31.5753 85.4872 31.6925C85.2918 31.8098 84.9694 31.7316 84.774 31.8489C84.5786 31.9661 84.3735 32.0833 84.1683 32.1908C83.9631 32.2983 83.9045 32.7086 83.6994 32.8063C83.4942 32.904 83.1425 32.7379 82.9373 32.8356C82.7322 32.9333 82.6247 33.2752 82.4195 33.3729C82.2144 33.4706 82.0288 33.666 81.8236 33.7539C81.6184 33.8419 81.296 33.7149 81.0909 33.793C80.8662 33.8809 80.6708 33.9591 80.4559 34.0372C80.3679 34.2033 80.3972 34.4573 80.28 34.682C80.1823 34.8677 79.9283 34.9849 79.8111 35.1998C79.7134 35.3855 79.7231 35.6492 79.6157 35.8544C79.518 36.0498 79.5277 36.3038 79.4203 36.509C79.3128 36.7141 79.0002 36.7923 78.8927 36.9974C78.7853 37.2026 78.5899 37.3491 78.4922 37.5543C78.3945 37.7595 78.3847 38.0037 78.287 38.2089C78.1893 38.414 78.2089 38.6778 78.1209 38.8732C78.033 39.0686 77.6715 39.1663 77.5738 39.3617C77.4761 39.5766 77.3491 39.7622 77.2612 39.9576C77.1635 40.1725 77.4761 40.5536 77.398 40.749L77.1244 40.6415C77.0463 40.8369 76.7336 40.8564 76.6066 41.0225C76.4796 41.1886 76.4796 41.4231 76.3136 41.5501C76.1475 41.6771 75.9912 41.7748 75.786 41.8529C75.5808 41.9311 75.4245 42.1362 75.2096 42.1558C75.1412 42.1558 75.0728 42.1265 75.0044 42.1265L75.063 42.0972ZM75.786 39.9967C75.786 39.9967 75.6297 40.0651 75.6297 40.0553C75.6297 40.0358 75.7762 39.9967 75.786 39.9967ZM77.2026 3.23374C76.9779 3.23374 76.763 3.36074 76.5382 3.37051C76.3135 3.38028 76.1084 3.49751 75.8837 3.51705C75.659 3.53659 75.3952 3.17512 75.1705 3.20442C74.9458 3.23373 74.7016 3.17512 74.4866 3.2142C74.2717 3.25327 74.0959 3.57567 73.8712 3.62452C73.6465 3.67336 73.4022 3.59521 73.1873 3.65382C72.9723 3.71244 72.7281 3.6929 72.5132 3.75152C72.2983 3.81014 72.0345 3.75152 71.8195 3.82968C71.6046 3.90783 71.3897 3.98599 71.1747 4.06415C70.9598 4.14231 70.911 4.61125 70.7058 4.70894C70.5006 4.80664 70.315 4.92387 70.1099 5.02157C69.9047 5.11926 69.6116 5.02157 69.4065 5.12903C69.2013 5.2365 69.0547 5.42212 68.8594 5.53935C68.664 5.65659 68.4783 5.77383 68.283 5.89106C68.0876 6.0083 67.9605 6.21346 67.7749 6.34046C67.5893 6.46747 67.2962 6.43816 67.1106 6.56517C66.925 6.69217 66.7882 6.88756 66.6124 7.02433C66.4365 7.16111 66.1532 7.17088 65.9773 7.31742C65.8015 7.46396 65.7917 7.79613 65.6256 7.94268C65.4595 8.08922 65.313 8.26507 65.1469 8.42138C64.9808 8.5777 64.6291 8.55816 64.4728 8.71447C64.3165 8.87078 64.1309 9.03687 63.9746 9.20295C63.8182 9.36903 63.8866 9.75005 63.7401 9.9259C63.5935 10.1018 63.3786 10.219 63.2321 10.3948C63.0855 10.5707 63.0074 10.8052 62.8706 10.981C62.7338 11.1569 62.4212 11.2253 62.2942 11.4109C62.1672 11.5965 61.8839 11.704 61.7666 11.8994C61.6494 12.0948 61.5322 12.3097 61.4247 12.5051C61.3172 12.7005 61.4638 13.0522 61.3661 13.2573C61.2684 13.4625 61.2782 13.7165 61.1902 13.9217C61.1023 14.1268 60.6822 14.2245 60.6138 14.4395C60.5454 14.6544 60.565 14.9182 60.5064 15.1331C60.4477 15.348 60.1644 15.5336 60.1156 15.7583C60.0667 15.983 60.0276 16.2273 59.9983 16.452C59.969 16.6767 60.3305 16.96 60.311 17.1847C60.2914 17.4094 60.3891 17.6341 60.3891 17.8686C60.3891 18.103 59.9104 18.3375 59.9202 18.5622C59.93 18.7869 60.3696 18.9921 60.3989 19.2168C60.4282 19.4415 60.5064 19.6466 60.5454 19.8811C60.5845 20.1156 60.1644 20.4282 60.223 20.6529C60.2817 20.8776 60.6041 21.0339 60.6724 21.2586C60.7408 21.4833 60.6041 21.7666 60.6822 21.9816C60.7604 22.1965 61.1023 22.3137 61.1902 22.5287C61.2782 22.7436 61.4345 22.9195 61.5322 23.1246C61.6299 23.3298 61.7373 23.5252 61.8448 23.7303C61.9523 23.9355 62.0597 24.1309 62.177 24.3263C62.2942 24.5217 62.1574 24.8831 62.2844 25.0785C62.4114 25.2739 62.4505 25.5377 62.5775 25.7233C62.7045 25.9089 62.8315 26.1239 62.9683 26.3095C63.1051 26.4951 63.32 26.6319 63.4665 26.8078C63.6131 26.9836 64.0429 26.925 64.1895 27.0911C64.336 27.2572 64.4142 27.5112 64.5705 27.6772C64.7268 27.8433 64.6877 28.2243 64.8441 28.3807C65.0004 28.537 65.2544 28.6347 65.4205 28.791C65.5865 28.9473 66.0555 28.7617 66.2313 28.9082C66.4072 29.0548 66.5147 29.2892 66.6905 29.426C66.8664 29.5628 66.9641 29.8363 67.1497 29.9633C67.3451 30.1001 67.5991 30.1196 67.7945 30.2369C67.9996 30.3639 68.1657 30.5202 68.3611 30.6277C68.576 30.7449 68.6835 31.038 68.8887 31.1259C69.1134 31.2236 69.3478 31.2725 69.553 31.3408C69.7875 31.419 70.0317 31.3995 70.2466 31.4385C70.4616 31.4776 70.6863 31.5167 70.8621 31.6339C71.038 31.7512 70.9207 32.0931 71.038 32.2787C71.2236 32.5718 71.2334 32.562 71.419 32.8649C71.6046 33.1678 71.7707 33.0603 71.9563 33.3534C72.1419 33.6465 72.4155 33.4804 72.6011 33.7832C72.7867 34.0861 72.3471 34.3499 72.5327 34.643C72.7183 34.9361 72.7477 34.9263 72.9333 35.2194C73.1189 35.5125 73.1091 35.5222 73.285 35.8251C73.4608 36.1279 73.7148 35.9716 73.9005 36.2745C74.0861 36.5773 74.0177 36.6164 74.2033 36.9193C74.3889 37.2221 74.3206 37.2612 74.5062 37.5641C74.6918 37.8669 74.5843 38.0135 74.8579 38.2382C74.9556 38.033 75.3268 37.7692 75.4245 37.5543C75.5222 37.3394 75.2389 36.9584 75.3464 36.7532C75.4538 36.548 75.8642 36.4894 75.9618 36.2843C76.0595 36.0791 76.294 35.9325 76.4015 35.7274C76.5089 35.5222 76.4308 35.2194 76.5382 35.0142C76.6457 34.809 76.8313 34.6332 76.929 34.4378C77.0365 34.2229 77.2026 34.047 77.31 33.8516C77.4273 33.6367 77.1537 33.2264 77.2514 33.0407C77.3784 32.8063 77.9353 32.8454 78.033 32.6695C78.2186 32.3276 78.033 31.9368 78.0525 31.8977C78.1502 31.7219 78.4726 31.7609 78.6192 31.6339C78.7657 31.5069 78.8732 31.4288 79.0588 31.3701C79.1272 31.3506 79.2835 31.0478 79.6352 30.9207C79.8208 30.8524 80.0065 30.696 80.2507 30.6081C80.4461 30.53 80.7001 30.5495 80.9346 30.4518C81.13 30.3639 81.4328 30.4616 81.6477 30.3639C81.8431 30.276 82.0971 30.2369 82.3023 30.1294C82.4977 30.0317 82.5759 29.6507 82.781 29.5432C82.9764 29.4358 83.0839 29.1525 83.289 29.045C83.4942 28.9375 83.7287 28.918 83.9338 28.8007C84.139 28.6835 84.2465 28.4393 84.4419 28.322C84.6372 28.2048 85.0866 28.4784 85.282 28.3513C85.4774 28.2243 85.6142 28.0192 85.7998 27.8824C85.9854 27.7456 85.9464 27.306 86.132 27.1692C86.3176 27.0325 86.5912 27.0227 86.7768 26.8761C86.9624 26.7296 87.3336 26.8175 87.5095 26.6612C87.6854 26.5049 87.8807 26.3681 88.0468 26.2118C88.2129 26.0555 88.0175 25.5279 88.1836 25.3619C88.3497 25.1958 88.7893 25.3032 88.9456 25.1274C89.1019 24.9515 89.0531 24.6096 89.1996 24.4337C89.3462 24.2579 89.5807 24.1504 89.7174 23.9648C89.8542 23.7792 90.2059 23.7401 90.3329 23.5447C90.4599 23.3493 90.5185 23.1051 90.6358 22.8999C90.753 22.6948 90.5381 22.3235 90.6455 22.1184C90.753 21.9132 91.0656 21.8057 91.1536 21.5908C91.2415 21.3759 91.4564 21.2098 91.5346 20.9851C91.6127 20.7604 91.5346 20.4966 91.5932 20.2719C91.6518 20.0472 91.5346 19.7834 91.5932 19.5587C91.6518 19.334 91.9254 19.1582 91.9547 18.9237C91.984 18.6892 91.8863 18.4548 91.9156 18.2203C91.9449 17.9858 91.9156 17.7611 91.9156 17.5266C91.9156 17.2922 91.896 17.0772 91.8863 16.8428C91.8765 16.6083 92.2087 16.3641 92.1891 16.1296C92.1696 15.8951 92.0328 15.6802 92.0035 15.4457C91.9742 15.221 91.8277 15.0061 91.7886 14.7912C91.7495 14.5762 91.5737 14.3711 91.515 14.1561C91.4564 13.9412 91.4369 13.7067 91.3783 13.4918C91.3196 13.2769 91.1731 13.0912 91.0949 12.8763C91.0168 12.6614 91.2024 12.3488 91.1242 12.1338C91.0461 11.9189 90.6455 11.8505 90.5478 11.6453C90.4501 11.4402 90.6162 11.108 90.5088 10.9029C90.4013 10.6977 90.3329 10.473 90.2254 10.2776C90.118 10.0822 90.0887 9.81843 89.9617 9.62304C89.8347 9.42765 89.4341 9.42765 89.2973 9.24203C89.1606 9.05641 89.2387 8.71447 89.0922 8.53862C88.9456 8.36277 88.4474 8.48977 88.3008 8.32369C88.1543 8.15761 88.1054 7.9036 87.9491 7.73751C87.7928 7.57143 87.8514 7.19042 87.6854 7.0341C87.5193 6.87779 87.1578 6.93641 86.9917 6.78987C86.8256 6.64332 86.5618 6.61401 86.3762 6.47724C86.1906 6.34046 86.132 6.05715 85.9464 5.92037C85.7607 5.7836 85.5849 5.64682 85.3895 5.52959C85.1941 5.41235 85.0769 5.16811 84.8815 5.05088C84.6861 4.93364 84.4712 4.85549 84.266 4.74802C84.0608 4.64056 83.7971 4.66009 83.5919 4.57217C83.3867 4.48424 83.0936 4.59171 82.8885 4.50378C82.6833 4.41585 82.5368 4.18138 82.3219 4.10323C82.0874 4.02507 81.8724 3.91761 81.638 3.83945C81.4035 3.76129 81.2179 3.48774 80.9834 3.42912C80.7489 3.37051 80.4852 3.3412 80.2507 3.30212C80.0162 3.26304 79.7134 3.49751 79.4789 3.4682C79.2444 3.43889 79.0197 3.17512 78.7755 3.15558C78.5312 3.13604 78.2675 3.45843 78.0232 3.44866C77.779 3.43889 77.5445 3.20442 77.3003 3.20442L77.2026 3.23374Z" fill="black"/>
<path d="M100.357 43.4746C100.142 43.4746 99.9755 43.4063 99.7703 43.3086C99.5163 43.1913 99.2526 43.1425 99.106 42.9275C98.9595 42.7126 98.8422 42.4586 98.8227 42.1851C98.8031 41.9115 99.106 41.7747 99.2232 41.5207C99.3698 41.2081 99.1255 41.0909 99.2721 40.7782C99.4186 40.4656 99.3893 40.4558 99.5456 40.1432C99.7019 39.8306 99.6824 39.8306 99.8289 39.518C99.9755 39.2053 100.259 39.3421 100.405 39.0295C100.552 38.7169 100.405 38.6485 100.542 38.3358C100.679 38.0232 100.777 38.0623 100.923 37.7594C101.07 37.4566 101.011 37.4175 101.158 37.1146C101.304 36.8118 101.421 36.8509 101.568 36.5382C101.714 36.2256 101.382 36.0693 101.529 35.7567C101.675 35.444 101.968 35.5808 102.115 35.2682C102.262 34.9556 101.968 34.8188 102.115 34.5062C102.262 34.1935 102.506 34.3108 102.652 33.9981C102.799 33.6855 102.74 33.6562 102.887 33.3436C103.033 33.031 103.024 33.0212 103.17 32.7086C103.317 32.3959 103.424 32.4448 103.571 32.1322C103.717 31.8195 103.493 31.7121 103.639 31.3994C103.786 31.0868 103.922 31.1454 104.069 30.8328C104.216 30.5202 104.108 30.4713 104.255 30.1489C104.401 29.8265 104.421 29.8461 104.567 29.5334C104.714 29.2208 104.704 29.211 104.851 28.8984C104.997 28.5858 105.202 28.6737 105.349 28.3611C105.495 28.0485 105.446 28.0192 105.603 27.7065C105.759 27.3939 105.564 27.2962 105.71 26.9836C105.827 26.7296 106.013 26.4951 106.228 26.3486C106.443 26.202 106.746 26.2411 107.01 26.2216C107.273 26.202 107.635 25.9285 107.879 26.0457C108.133 26.1629 108.25 26.5537 108.397 26.7686C108.543 26.9836 108.71 27.2474 108.729 27.5111C108.749 27.7749 108.729 28.0973 108.612 28.3416C108.465 28.6542 108.153 28.5076 108.006 28.8203C107.86 29.1329 108.035 29.2208 107.889 29.5334C107.742 29.8461 107.557 29.7581 107.41 30.0708C107.264 30.3834 107.498 30.4909 107.352 30.8035C107.205 31.1161 107.293 31.1552 107.146 31.4678C107 31.7805 106.677 31.6241 106.531 31.9368C106.384 32.2494 106.638 32.3666 106.492 32.6793C106.345 32.9919 106.189 32.9235 106.042 33.2361C105.896 33.5487 105.827 33.5194 105.681 33.8321C105.534 34.1447 105.72 34.2326 105.573 34.5452C105.427 34.8579 105.271 34.7797 105.114 35.0923C104.958 35.405 105.065 35.4538 104.909 35.7664C104.753 36.0791 104.86 36.1279 104.714 36.4405C104.567 36.7532 104.684 36.8118 104.538 37.1244C104.391 37.437 104.333 37.4077 104.186 37.7301C104.04 38.0525 104.157 38.1014 104.01 38.414C103.864 38.7266 103.834 38.7169 103.678 39.0295C103.522 39.3421 103.209 39.1956 103.063 39.5082C102.916 39.8208 103.082 39.899 102.936 40.2116C102.789 40.5242 102.77 40.5145 102.623 40.8369C102.477 41.1593 102.574 41.1983 102.428 41.511C102.281 41.8236 102.369 41.8724 102.213 42.1851C102.056 42.4977 101.705 42.3316 101.548 42.6442C101.46 42.8201 101.656 43.2011 101.519 43.3281C101.382 43.4551 101.177 43.6603 100.992 43.7287C100.806 43.797 100.532 43.4942 100.337 43.4942L100.357 43.4746Z" fill="black"/>
<path d="M104.958 53.5471C104.714 53.5471 104.567 53.1661 104.343 53.0489C104.118 52.9316 103.756 53.0293 103.61 52.8242C103.444 52.5995 103.434 52.2771 103.405 52.0133C103.375 51.7495 103.522 51.515 103.639 51.2708C103.756 51.0266 103.844 50.7921 104.069 50.6358C104.352 50.4306 104.47 50.6065 104.753 50.4013C105.036 50.1961 104.772 49.8249 105.056 49.6197C105.339 49.4146 105.515 49.6588 105.798 49.4537C106.082 49.2485 105.915 49.014 106.199 48.8186C106.482 48.6232 106.56 48.7209 106.844 48.5158C107.127 48.3106 107.313 48.5744 107.596 48.3692C107.879 48.1641 107.899 48.1836 108.182 47.9882C108.465 47.7928 108.426 47.7244 108.71 47.5193C108.993 47.3141 108.739 46.9624 109.032 46.7572C109.325 46.5521 109.55 46.8843 109.833 46.6791C110.116 46.4739 109.931 46.2102 110.214 46.0148C110.497 45.8194 110.536 45.8682 110.82 45.6631C111.103 45.4579 111.162 45.536 111.445 45.3309C111.728 45.1257 111.592 44.9303 111.885 44.7349C112.178 44.5395 112.354 44.7936 112.647 44.5884C112.94 44.3832 112.793 44.1878 113.077 43.9827C113.301 43.8166 113.702 44.139 113.966 44.1097C114.229 44.0804 114.522 43.8068 114.767 43.9241C115.011 44.0413 114.972 44.4321 115.128 44.6568C115.294 44.8815 115.646 44.9889 115.666 45.2527C115.685 45.5165 115.441 45.7314 115.333 45.9757C115.226 46.2199 115.304 46.6498 115.079 46.8061C114.796 47.0113 114.581 46.7084 114.298 46.9038C114.014 47.0992 114.073 47.1871 113.78 47.3923C113.487 47.5974 113.399 47.4607 113.116 47.6658C112.832 47.871 113.125 48.2813 112.842 48.4865C112.559 48.6916 112.402 48.4669 112.119 48.6721C111.836 48.8772 111.767 48.7796 111.484 48.9847C111.201 49.1899 111.357 49.4146 111.074 49.61C110.79 49.8054 110.673 49.6393 110.38 49.8444C110.087 50.0496 110.126 50.0887 109.833 50.2938C109.54 50.499 109.716 50.7335 109.433 50.9289C109.149 51.1243 108.837 50.6944 108.553 50.8996C108.27 51.1047 108.377 51.2513 108.084 51.4466C107.791 51.642 107.84 51.7202 107.557 51.9156C107.273 52.111 107.254 52.1012 106.971 52.3064C106.687 52.5115 106.834 52.7265 106.541 52.9219C106.248 53.1172 106.042 52.8339 105.759 53.0391C105.486 53.2345 105.241 53.5569 104.939 53.5569L104.958 53.5471Z" fill="black"/>
<path d="M45.1974 61.6364C45.3928 61.6657 45.5589 61.4996 45.7543 61.4312C45.9399 61.3628 46.106 61.3335 46.2526 61.1772C46.4186 61.0013 46.4577 60.8059 46.5163 60.591C46.575 60.3761 46.7606 60.1416 46.702 59.9169C46.6433 59.6922 46.5945 59.3894 46.4382 59.2135C46.2135 58.9693 46.1744 59.0083 45.9497 58.7641C45.725 58.5199 45.6859 58.5589 45.4612 58.3147C45.2365 58.0705 45.1779 58.1193 44.9532 57.8751C44.7285 57.6308 44.6797 57.6699 44.455 57.4257C44.2303 57.1814 44.2596 57.1521 44.0251 56.9079C43.7906 56.6636 43.9372 56.5366 43.7125 56.2924C43.4878 56.0482 43.3705 56.1556 43.1458 55.9114C42.9211 55.6671 43.0091 55.589 42.7746 55.3447C42.5401 55.1005 42.462 55.1787 42.2373 54.9344C42.0126 54.6902 42.1493 54.5632 41.9149 54.3189C41.6804 54.0747 41.4166 54.3189 41.1821 54.0845C40.9477 53.85 41.1431 53.6546 40.9086 53.4104C40.6741 53.1661 40.5862 53.2541 40.3517 53C40.1173 52.746 40.2833 52.5995 40.0586 52.3553C39.9023 52.1794 39.5311 52.3064 39.3259 52.2576C39.1208 52.2087 38.9156 52.111 38.7007 52.1794C38.4955 52.2478 38.3685 52.4139 38.2122 52.5897C38.0461 52.7656 37.9679 52.9414 37.9093 53.1564C37.8507 53.3713 37.7139 53.6058 37.7628 53.8305C37.8116 54.0552 37.9582 54.2603 38.1145 54.4362C38.3392 54.6804 38.2122 54.7977 38.4369 55.0419C38.6616 55.2861 38.9351 55.0321 39.1598 55.2764C39.3845 55.5206 39.2966 55.6085 39.5213 55.843C39.746 56.0775 39.7851 56.0579 40.0098 56.3022C40.2345 56.5464 40.2638 56.5171 40.4885 56.7613C40.7132 57.0056 40.6448 57.074 40.8695 57.3182C41.0942 57.5624 40.9281 57.7188 41.1528 57.963C41.3775 58.2072 41.6022 58.0021 41.8269 58.2463C42.0516 58.4906 42.0614 58.4808 42.2959 58.725C42.5303 58.9693 42.3252 59.1549 42.5597 59.3991C42.7941 59.6434 42.8332 59.6043 43.0677 59.8485C43.3021 60.0928 43.3901 60.0146 43.6148 60.2588C43.8395 60.5031 43.8004 60.5422 44.0349 60.7962C44.2693 61.0502 44.2107 61.099 44.4354 61.3433C44.621 61.5484 44.9337 61.6071 45.1779 61.6461L45.1974 61.6364Z" fill="black"/>
<path d="M42.1103 64.3719C42.3057 64.3426 42.4034 64.1276 42.5695 64.0006C42.716 63.8834 42.8723 63.7955 42.9603 63.6001C43.058 63.3851 43.0384 63.1897 43.0189 62.9553C42.9993 62.7208 43.1068 62.457 42.9798 62.2519C42.8528 62.0467 42.7063 61.7829 42.5011 61.6755C42.208 61.5191 42.1885 61.5582 41.8954 61.4019C41.6023 61.2456 41.5828 61.2847 41.2897 61.1284C40.9966 60.972 40.9575 61.0404 40.6644 60.8743C40.3713 60.7083 40.342 60.7669 40.0489 60.6106C39.7558 60.4543 39.7754 60.4152 39.4823 60.2589C39.1892 60.1025 39.2771 59.9267 38.984 59.7704C38.691 59.6141 38.6128 59.7508 38.3197 59.5945C38.0266 59.4382 38.0852 59.3307 37.7922 59.1744C37.4991 59.0181 37.4404 59.1158 37.1474 58.9497C36.8543 58.7837 36.9422 58.6273 36.6491 58.4613C36.356 58.2952 36.1802 58.6273 35.8773 58.4613C35.5745 58.2952 35.7015 58.0705 35.4084 57.9142C35.1153 57.7579 35.0469 57.8653 34.7538 57.709C34.4607 57.5527 34.5682 57.3475 34.2653 57.1912C34.0602 57.0837 33.7573 57.3182 33.5424 57.328C33.3275 57.3378 33.1028 57.3182 32.9269 57.4452C32.7608 57.5722 32.6924 57.7676 32.5947 57.9826C32.497 58.1975 32.4775 58.3929 32.497 58.6176C32.5166 58.8423 32.458 59.1061 32.5752 59.3014C32.6924 59.4968 32.8976 59.6532 33.1028 59.7606C33.3958 59.9169 33.3079 60.0732 33.601 60.2296C33.8941 60.3859 34.0699 60.0635 34.363 60.2198C34.6561 60.3761 34.5975 60.4836 34.8906 60.6399C35.1837 60.7962 35.2032 60.7571 35.4963 60.9232C35.7894 61.0893 35.8089 61.0502 36.102 61.2065C36.3951 61.3628 36.3463 61.4508 36.6393 61.6071C36.9324 61.7634 36.825 61.9685 37.1181 62.1346C37.4111 62.3007 37.5479 62.0272 37.841 62.1932C38.1341 62.3593 38.1439 62.3398 38.4369 62.4961C38.73 62.6524 38.603 62.8966 38.8961 63.053C39.1892 63.2093 39.2185 63.1604 39.5116 63.3167C39.8047 63.4731 39.8633 63.3656 40.1662 63.5317C40.469 63.6978 40.4397 63.7466 40.7328 63.9029C41.0259 64.0592 40.9966 64.1276 41.2897 64.2937C41.5339 64.4207 41.8465 64.3816 42.0908 64.3425L42.1103 64.3719Z" fill="black"/>
<path d="M91.6033 66.9314C93.9234 66.9314 95.8042 65.0506 95.8042 62.7305C95.8042 60.4104 93.9234 58.5295 91.6033 58.5295C89.2832 58.5295 87.4023 60.4104 87.4023 62.7305C87.4023 65.0506 89.2832 66.9314 91.6033 66.9314Z" fill="white"/>
<path d="M91.6032 65.5734C93.1733 65.5734 94.4462 64.3005 94.4462 62.7304C94.4462 61.1603 93.1733 59.8875 91.6032 59.8875C90.0331 59.8875 88.7603 61.1603 88.7603 62.7304C88.7603 64.3005 90.0331 65.5734 91.6032 65.5734Z" fill="black"/>
<path d="M93.2444 63.4143C93.6221 63.4143 93.9283 63.1081 93.9283 62.7304C93.9283 62.3527 93.6221 62.0465 93.2444 62.0465C92.8667 62.0465 92.5605 62.3527 92.5605 62.7304C92.5605 63.1081 92.8667 63.4143 93.2444 63.4143Z" fill="white"/>
<path d="M76.0403 67.9377C78.3604 67.9377 80.2412 66.0569 80.2412 63.7368C80.2412 61.4167 78.3604 59.5359 76.0403 59.5359C73.7202 59.5359 71.8394 61.4167 71.8394 63.7368C71.8394 66.0569 73.7202 67.9377 76.0403 67.9377Z" fill="white"/>
<path d="M76.0402 66.5798C77.6103 66.5798 78.8832 65.307 78.8832 63.7369C78.8832 62.1668 77.6103 60.8939 76.0402 60.8939C74.4701 60.8939 73.1973 62.1668 73.1973 63.7369C73.1973 65.307 74.4701 66.5798 76.0402 66.5798Z" fill="black"/>
<path d="M77.6814 64.4206C78.0591 64.4206 78.3653 64.1144 78.3653 63.7367C78.3653 63.359 78.0591 63.0529 77.6814 63.0529C77.3037 63.0529 76.9976 63.359 76.9976 63.7367C76.9976 64.1144 77.3037 64.4206 77.6814 64.4206Z" fill="white"/>
</svg>
