<svg width="188" height="261" viewBox="0 0 188 261" fill="none" xmlns="http://www.w3.org/2000/svg">
<g clip-path="url(#clip0_20_1775)">
<path d="M175.01 35.73C144.71 53.32 135.82 59.31 120.11 46.77C104.4 34.23 122.86 21.48 130.76 32.25C138.66 43.02 138.15 61.16 118.17 72.11C98.1902 83.06 62.5902 90.47 50.7202 121.74" stroke="#ADF6BD" stroke-width="12.13" stroke-linecap="round" stroke-linejoin="round"/>
<path d="M266.13 77.84C239.46 106.25 218.89 125.95 178.53 135.49C138.17 145.04 121.57 125.12 118.8 106.67C116.03 88.21 150.91 77.91 161.49 107.34C172.08 136.77 169.15 167.68 135.11 173.45C101.07 179.22 95.3898 155.86 69.6198 168.69C43.8498 181.52 57.9198 211.75 75.3498 194.48C92.7798 177.21 89.7998 140.85 54.3198 149.92C18.8298 158.99 6.06982 223.24 6.06982 223.24" stroke="#ADF6BD" stroke-width="12.13" stroke-linecap="round" stroke-linejoin="round"/>
</g>
<defs>
<clipPath id="clip0_20_1775">
<rect width="375.66" height="260.68" fill="white"/>
</clipPath>
</defs>
</svg>
