<svg width="37" height="39" viewBox="0 0 37 39" fill="none" xmlns="http://www.w3.org/2000/svg">
<path d="M16.7737 2.95188C7.65524 3.31389 0.290431 10.744 0.00853921 19.8684C-0.122021 24.0879 1.25183 27.9869 3.6316 31.0729L1.32898 33.4734C0.165804 34.687 0.198445 36.6276 1.43284 37.7671C1.45657 37.7908 1.48328 37.8145 1.50702 37.8353C2.7147 38.9421 4.59003 38.8679 5.72353 37.6869L8.13 35.1766C10.8362 36.8976 14.0408 37.9006 17.477 37.9006C27.1147 37.9006 34.9572 30.058 34.9572 20.4173C34.9572 10.7766 26.729 2.55723 16.7707 2.95188H16.7737ZM17.4799 33.4793C14.7916 33.4793 12.2901 32.6604 10.2101 31.2628C6.72054 28.9156 4.42089 24.9306 4.42089 20.4173C4.42089 17.818 5.18349 15.3937 6.50096 13.3552C8.82732 9.74994 12.8806 7.3583 17.4799 7.3583C24.6815 7.3583 30.539 13.2157 30.539 20.4173C30.539 27.6189 24.6786 33.4793 17.4799 33.4793Z" fill="#DD198E"/>
<path d="M30.1354 30.0523C30.1354 30.622 29.9129 31.1858 29.4767 31.6101C28.6903 32.3727 27.4619 32.4291 26.6073 31.7436L23.8537 29.53L23.6281 29.349L21.9042 27.9603L23.3789 29.4707C22.732 29.7852 22.005 30.073 21.1979 30.3223L23.1534 32.9157C23.8121 33.7881 23.7172 35.0165 22.9308 35.7791C22.1445 36.5387 20.916 36.5981 20.0644 35.9127L14.2842 31.2659L12.302 29.6695L13.9043 31.2659H10.2101C6.72055 28.9188 4.4209 24.9337 4.4209 20.4204C4.4209 17.8211 5.18349 15.3968 6.50097 13.3583L12.7708 13.3079C12.7441 13.5898 12.7293 13.8716 12.7293 14.1595C12.7293 18.3523 15.5126 21.9812 19.5303 23.6756C21.0822 24.3313 22.8151 24.6963 24.643 24.6963C25.2898 24.6963 25.9219 24.6488 26.5391 24.5628C27.2631 24.4619 27.9663 24.2987 28.6399 24.085C28.5212 24.3966 28.358 24.7616 28.1325 25.1681C27.9871 25.4292 27.815 25.7052 27.6132 25.99L29.6933 28.7496C29.987 29.1383 30.1295 29.5983 30.1295 30.0552L30.1354 30.0523Z" fill="black"/>
<path d="M33.1353 7.30202L30.4825 1.18347C29.7644 -0.472276 27.3817 -0.362487 26.8179 1.3526L25.904 4.13592C25.5212 4.10328 25.1355 4.08251 24.7438 4.08251C24.3521 4.08251 23.9663 4.10031 23.5836 4.13295L22.6696 1.34964C22.1058 -0.365454 19.7231 -0.472276 19.005 1.1805L16.3523 7.29608C14.4503 9.09426 13.29 11.5037 13.29 14.1535C13.29 19.7171 18.4175 24.2274 24.7438 24.2274C31.07 24.2274 36.1945 19.7171 36.1945 14.1535C36.1945 11.5067 35.0314 9.09426 33.1323 7.29608L33.1353 7.30202Z" fill="black"/>
<path d="M21.5747 4.47721C20.8091 4.67008 20.0732 4.9312 19.3818 5.2576C19.9338 3.99354 20.6934 2.5188 20.6934 2.5188L21.5747 4.48018V4.47721Z" fill="white"/>
<path d="M30.1293 5.26337C29.4409 4.93697 28.705 4.67585 27.9395 4.48001L28.8237 2.5127C28.8237 2.5127 29.616 4.04678 30.1293 5.2604V5.26337Z" fill="white"/>
<path d="M27.1414 10.7945C26.9041 9.80935 26.0999 9.78264 26.2958 11.4918C26.4916 13.198 25.8833 14.0229 24.6638 14.56C23.4442 15.1 21.6816 15.5689 22.6608 17.6786C23.64 19.7883 25.8566 20.3076 28.3669 19.2958C30.8773 18.2839 31.0019 15.4175 29.5805 14.198C28.1592 12.9784 27.5094 12.3256 27.1444 10.7915L27.1414 10.7945Z" fill="#F9F9F9"/>
<path d="M27.1089 15.7606C27.8159 15.6834 28.3569 15.3263 28.3173 14.963C28.2776 14.5997 27.6723 14.3678 26.9653 14.445C26.2582 14.5221 25.7172 14.8792 25.7569 15.2425C25.7965 15.6058 26.4018 15.8377 27.1089 15.7606Z" fill="black"/>
<path d="M29.3137 15.9992C29.2959 15.8449 29.1565 15.7351 29.0051 15.7529C28.8508 15.7707 28.7411 15.9072 28.7589 16.0615C28.7796 16.2365 28.7262 16.4116 28.6164 16.5511C28.5066 16.6905 28.3464 16.7766 28.1713 16.7944C27.9963 16.8152 27.8212 16.7617 27.6847 16.652C27.5452 16.5422 27.4592 16.3819 27.4414 16.2069C27.4236 16.0526 27.2841 15.9428 27.1328 15.9606C26.9785 15.9784 26.8687 16.1149 26.8865 16.2692C26.9251 16.6342 26.661 16.9635 26.299 17.0021C25.934 17.0436 25.6076 16.7766 25.5661 16.4146C25.5483 16.2603 25.4088 16.1505 25.2575 16.1683C25.1032 16.1861 24.9934 16.3226 25.0112 16.4769C25.0794 17.103 25.6106 17.5659 26.2248 17.5659C26.2693 17.5659 26.3138 17.5659 26.3583 17.5599C26.7381 17.5184 27.0527 17.3048 27.2455 17.0051C27.2752 17.0347 27.3019 17.0674 27.3346 17.0911C27.5541 17.2662 27.8212 17.3611 28.0972 17.3611C28.1417 17.3611 28.1862 17.3611 28.2336 17.3552C28.5571 17.3196 28.8479 17.1594 29.0526 16.9071C29.2574 16.652 29.3493 16.3345 29.3137 16.011V15.9992Z" fill="black"/>
<path d="M30.3462 12.48C31.3901 12.48 32.2364 11.6338 32.2364 10.5899C32.2364 9.54596 31.3901 8.69971 30.3462 8.69971C29.3023 8.69971 28.4561 9.54596 28.4561 10.5899C28.4561 11.6338 29.3023 12.48 30.3462 12.48Z" fill="white"/>
<path d="M30.3463 11.8716C31.0543 11.8716 31.6282 11.2977 31.6282 10.5897C31.6282 9.88177 31.0543 9.30786 30.3463 9.30786C29.6384 9.30786 29.0645 9.88177 29.0645 10.5897C29.0645 11.2977 29.6384 11.8716 30.3463 11.8716Z" fill="black"/>
<path d="M30.9482 10.6878C31.1187 10.6878 31.2568 10.5496 31.2568 10.3792C31.2568 10.2087 31.1187 10.0706 30.9482 10.0706C30.7778 10.0706 30.6396 10.2087 30.6396 10.3792C30.6396 10.5496 30.7778 10.6878 30.9482 10.6878Z" fill="white"/>
<path d="M23.0347 14.0079C24.0786 14.0079 24.9249 13.1616 24.9249 12.1177C24.9249 11.0738 24.0786 10.2275 23.0347 10.2275C21.9908 10.2275 21.1445 11.0738 21.1445 12.1177C21.1445 13.1616 21.9908 14.0079 23.0347 14.0079Z" fill="white"/>
<path d="M23.0343 13.3994C23.7423 13.3994 24.3162 12.8255 24.3162 12.1176C24.3162 11.4096 23.7423 10.8357 23.0343 10.8357C22.3264 10.8357 21.7524 11.4096 21.7524 12.1176C21.7524 12.8255 22.3264 13.3994 23.0343 13.3994Z" fill="black"/>
<path d="M23.6367 12.2156C23.8072 12.2156 23.9453 12.0774 23.9453 11.907C23.9453 11.7366 23.8072 11.5984 23.6367 11.5984C23.4663 11.5984 23.3281 11.7366 23.3281 11.907C23.3281 12.0774 23.4663 12.2156 23.6367 12.2156Z" fill="white"/>
</svg>
