<svg width="163" height="129" viewBox="0 0 163 129" fill="none" xmlns="http://www.w3.org/2000/svg">
<path d="M151.696 127.261C151.18 127.261 151.18 127.718 150.65 127.718C150.119 127.718 150.134 127.836 149.603 127.836C149.073 127.836 149.088 127.732 148.557 127.732C148.026 127.732 148.041 127.408 147.511 127.408C146.98 127.408 146.995 128.012 146.464 128.012C145.934 128.012 145.948 127.541 145.418 127.541C144.887 127.541 144.902 127.659 144.371 127.659C143.841 127.659 143.856 127.806 143.325 127.806C142.795 127.806 142.809 127.32 142.279 127.32C141.748 127.32 141.763 127.659 141.232 127.659C140.702 127.659 140.716 127.836 140.186 127.836C139.655 127.836 139.67 127.998 139.14 127.998C138.609 127.998 138.624 127.894 138.093 127.894C137.563 127.894 137.577 127.187 137.047 127.187C136.516 127.187 136.531 127.762 136 127.762C135.47 127.762 135.485 127.275 134.954 127.275C134.423 127.275 134.438 127.541 133.908 127.541C133.377 127.541 133.392 127.585 132.861 127.585C132.331 127.585 132.331 127.983 131.815 127.983C131.299 127.983 131.284 127.673 130.768 127.673C130.253 127.673 130.253 127.408 129.722 127.408C129.191 127.408 129.206 127.32 128.676 127.32C128.145 127.32 128.16 127.32 127.629 127.32C127.099 127.32 127.113 127.32 126.583 127.32C126.052 127.32 126.067 127.732 125.537 127.732C125.006 127.732 125.021 127.806 124.49 127.806C123.96 127.806 123.974 127.334 123.444 127.334C122.913 127.334 122.928 127.452 122.397 127.452C121.867 127.452 121.882 127.29 121.351 127.29C120.82 127.29 120.835 127.334 120.305 127.334C119.774 127.334 119.789 127.703 119.258 127.703C118.728 127.703 118.742 127.541 118.212 127.541C117.681 127.541 117.696 127.526 117.165 127.526C116.635 127.526 116.65 127.998 116.119 127.998C115.589 127.998 115.603 127.688 115.073 127.688C114.542 127.688 114.557 127.526 114.026 127.526C113.496 127.526 113.51 127.467 112.98 127.467C112.449 127.467 112.464 127.246 111.934 127.246C111.403 127.246 111.418 127.231 110.887 127.231C110.357 127.231 110.371 127.718 109.841 127.718C109.31 127.718 109.325 127.438 108.794 127.438C108.264 127.438 108.279 127.953 107.748 127.953C107.217 127.953 107.232 127.909 106.702 127.909C106.171 127.909 106.171 127.29 105.655 127.29C105.139 127.29 105.125 127.88 104.609 127.88C104.093 127.88 104.078 127.57 103.562 127.57C103.047 127.57 103.032 127.865 102.516 127.865C102 127.865 101.986 127.865 101.47 127.865C100.954 127.865 100.954 127.644 100.423 127.644C99.8928 127.644 99.9075 127.762 99.3769 127.762C98.8464 127.762 98.8611 127.983 98.3306 127.983C97.8 127.983 97.8148 127.644 97.2842 127.644C96.7536 127.644 96.7683 127.452 96.2378 127.452C95.7072 127.452 95.722 127.629 95.1914 127.629C94.6608 127.629 94.6756 127.511 94.145 127.511C93.6145 127.511 93.6292 127.172 93.0987 127.172C92.5681 127.172 92.5828 127.791 92.0522 127.791C91.5217 127.791 91.5364 127.762 91.0059 127.762C90.4753 127.762 90.4901 127.187 89.9595 127.187C89.4289 127.187 89.4436 127.85 88.9131 127.85C88.3825 127.85 88.3973 127.821 87.8667 127.821C87.3362 127.821 87.3362 127.511 86.8203 127.511C86.3045 127.511 86.2898 127.791 85.774 127.791C85.2581 127.791 85.2434 127.688 84.7276 127.688C84.2117 127.688 84.197 127.718 83.6812 127.718C83.1654 127.718 83.1506 127.983 82.6348 127.983C82.119 127.983 82.1043 127.32 81.5884 127.32C81.0726 127.32 81.0579 127.88 80.542 127.88C80.0262 127.88 80.0262 127.187 79.4957 127.187C78.9651 127.187 78.9799 127.423 78.4493 127.423C77.9187 127.423 77.9334 127.423 77.4029 127.423C76.8723 127.423 76.8871 127.452 76.3565 127.452C75.8259 127.452 75.8407 127.57 75.3101 127.57C74.7796 127.57 74.7943 127.57 74.2638 127.57C73.7332 127.57 73.7479 127.777 73.2173 127.777C72.6868 127.777 72.6868 127.423 72.171 127.423C71.6552 127.423 71.6404 127.836 71.1246 127.836C70.6088 127.836 70.594 127.261 70.0782 127.261C69.5624 127.261 69.5476 127.718 69.0318 127.718C68.516 127.718 68.516 127.88 67.9855 127.88C67.4549 127.88 67.4696 127.836 66.9391 127.836C66.4085 127.836 66.4232 127.865 65.8927 127.865C65.3621 127.865 65.3769 127.172 64.8463 127.172C64.3157 127.172 64.3305 127.393 63.7999 127.393C63.2694 127.393 63.2841 127.57 62.7535 127.57C62.2229 127.57 62.2377 127.894 61.7071 127.894C61.1766 127.894 61.1913 127.718 60.6608 127.718C60.1302 127.718 60.145 127.909 59.6144 127.909C59.0838 127.909 59.0985 127.909 58.568 127.909C58.0374 127.909 58.0522 127.673 57.5216 127.673C56.991 127.673 57.0058 127.334 56.4752 127.334C55.9447 127.334 55.9447 127.541 55.4289 127.541C54.913 127.541 54.8983 127.423 54.3824 127.423C53.8666 127.423 53.8519 127.497 53.3361 127.497C52.8203 127.497 52.8055 127.408 52.2897 127.408C51.7739 127.408 51.7591 127.32 51.2433 127.32C50.7275 127.32 50.7127 127.187 50.1969 127.187C49.6811 127.187 49.6664 127.423 49.1506 127.423C48.6347 127.423 48.6347 127.32 48.1042 127.32C47.5736 127.32 47.5883 127.261 47.0578 127.261C46.5272 127.261 46.5272 127.629 46.0114 127.629C45.4956 127.629 45.4808 127.408 44.965 127.408C44.4492 127.408 44.4344 127.511 43.9186 127.511C43.4028 127.511 43.3881 127.217 42.8722 127.217C42.3564 127.217 42.3417 127.452 41.8259 127.452C41.31 127.452 41.2953 127.379 40.7795 127.379C40.2637 127.379 40.2489 127.688 39.7331 127.688C39.2173 127.688 39.2025 127.791 38.6867 127.791C38.1709 127.791 38.1562 127.865 37.6403 127.865C37.1245 127.865 37.1097 127.806 36.5939 127.806C36.0781 127.806 36.0634 127.511 35.5476 127.511C35.0317 127.511 35.017 127.349 34.5012 127.349C33.9854 127.349 33.9706 127.143 33.4548 127.143C32.939 127.143 32.9242 127.585 32.4084 127.585C31.8926 127.585 31.8778 127.32 31.362 127.32C30.8462 127.32 30.8462 127.202 30.3157 127.202C29.7851 127.202 29.7998 127.703 29.2693 127.703C28.7387 127.703 28.7387 127.732 28.2229 127.732C27.707 127.732 27.6923 127.629 27.1765 127.629C26.6607 127.629 26.6459 127.924 26.1154 127.924C25.5848 127.924 25.5848 127.467 25.069 127.467C24.5532 127.467 24.5384 127.128 24.0226 127.128C23.5068 127.128 23.492 127.806 22.9762 127.806C22.4604 127.806 22.4457 127.85 21.9151 127.85C21.3845 127.85 21.3845 127.821 20.8687 127.821C20.3529 127.821 20.3382 127.821 19.8223 127.821C19.3065 127.821 19.2918 127.673 18.7612 127.673C18.2307 127.673 18.2307 127.718 17.7001 127.718C17.1695 127.718 17.1695 127.673 16.639 127.673C16.1084 127.673 16.1084 127.821 15.5926 127.821C15.0767 127.821 15.062 127.968 14.5315 127.968C14.0009 127.968 14.0009 127.423 13.4704 127.423C12.9398 127.423 12.9398 127.379 12.4092 127.379C11.8787 127.379 11.8787 127.143 11.3481 127.143C10.9944 127.143 10.626 127.6 10.2722 127.556C9.91854 127.511 9.49113 127.777 9.15216 127.703C8.81319 127.629 8.4153 127.541 8.07633 127.438C7.73736 127.334 7.50153 126.848 7.1773 126.715C6.85307 126.583 6.51409 126.435 6.2046 126.273C5.8951 126.111 5.68879 125.772 5.39404 125.566C5.09928 125.36 4.46555 125.61 4.18553 125.374C3.90551 125.139 3.61076 124.888 3.36021 124.637C3.10967 124.387 3.0802 123.901 2.85914 123.621C2.63807 123.341 2.77071 122.81 2.57911 122.515C2.38752 122.22 1.91592 122.103 1.7538 121.793C1.59169 121.484 1.25273 121.233 1.12009 120.909C0.987447 120.585 1.2822 120.098 1.1643 119.759C1.0464 119.42 0.545309 119.184 0.47162 118.831C0.397931 118.477 0.412658 118.109 0.368445 117.755C0.324231 117.401 0.560043 117.033 0.560043 116.679C0.560043 116.163 0.073671 116.163 0.073671 115.633C0.073671 115.102 0.663219 115.117 0.663219 114.586C0.663219 114.056 0.869524 114.07 0.869524 113.54C0.869524 113.009 0.191599 113.024 0.191599 112.493C0.191599 111.963 0.456868 111.978 0.456868 111.447C0.456868 110.917 0 110.931 0 110.401C0 109.87 0.73689 109.885 0.73689 109.354C0.73689 108.824 0.0147522 108.839 0.0147522 108.308C0.0147522 107.777 0.751642 107.792 0.751642 107.262C0.751642 106.731 0.397904 106.746 0.397904 106.215C0.397904 105.685 0.176846 105.699 0.176846 105.169C0.176846 104.638 0.515832 104.653 0.515832 104.122C0.515832 103.592 0.486327 103.592 0.486327 103.076C0.486327 102.56 0.0442116 102.545 0.0442116 102.03C0.0442116 101.514 0.486327 101.499 0.486327 100.983C0.486327 100.467 0.73689 100.453 0.73689 99.9369C0.73689 99.4211 0.795853 99.4063 0.795853 98.8905C0.795853 98.3747 0 98.3599 0 97.8441C0 97.3283 0.368445 97.3283 0.368445 96.7977C0.368445 96.2672 0.368445 96.2819 0.368445 95.7514C0.368445 95.2208 0.147387 95.2355 0.147387 94.705C0.147387 94.1744 0.692678 94.1744 0.692678 93.6586C0.692678 93.1428 0.0294594 93.128 0.0294594 92.6122C0.0294594 92.0964 0.0589638 92.0816 0.0589638 91.5658C0.0589638 91.05 0.338985 91.0353 0.338985 90.5194C0.338985 90.0036 0.545291 89.9889 0.545291 89.4731C0.545291 88.9572 0.162139 88.9425 0.162139 88.4267C0.162139 87.9108 0.397904 87.8961 0.397904 87.3803C0.397904 86.8645 0.589503 86.8497 0.589503 86.3339C0.589503 85.8181 0.383197 85.8033 0.383197 85.2875C0.383197 84.7717 0.677926 84.757 0.677926 84.2411C0.677926 83.7253 0.825313 83.7106 0.825313 83.1947C0.825313 82.6789 0.250562 82.6642 0.250562 82.1484C0.250562 81.6325 0.781101 81.6178 0.781101 81.102C0.781101 80.5862 0.117883 80.5714 0.117883 80.0556C0.117883 79.5398 0.810561 79.5398 0.810561 79.0092C0.810561 78.4787 0.280022 78.4934 0.280022 77.9628C0.280022 77.4323 0.383197 77.447 0.383197 76.9165C0.383197 76.3859 0.692678 76.3859 0.692678 75.8701C0.692678 75.3542 0.692678 75.3395 0.692678 74.809C0.692678 74.2784 0.442116 74.2784 0.442116 73.7626C0.442116 73.2467 0.515832 73.232 0.515832 72.7162C0.515832 72.2004 0.47162 72.1856 0.47162 71.6698C0.47162 71.154 0.442116 71.1392 0.442116 70.6087C0.442116 70.0781 0.574796 70.0781 0.574796 69.5623C0.574796 69.0465 0.766349 69.0317 0.766349 68.5159C0.766349 68.0001 0.663219 67.9853 0.663219 67.4548C0.663219 66.9242 0.648467 66.9242 0.648467 66.3937C0.648467 65.8631 0.397904 65.8631 0.397904 65.3326C0.397904 64.802 0.397904 64.802 0.397904 64.2862C0.397904 63.7703 0.751642 63.7556 0.751642 63.225C0.751642 62.6945 0.619007 62.6945 0.619007 62.1639C0.619007 61.6334 0.162139 61.6334 0.162139 61.1028C0.162139 60.5722 0.574796 60.5722 0.574796 60.0417C0.574796 59.688 0.324217 59.3048 0.353693 58.9658C0.383168 58.6269 0.324215 58.2142 0.397904 57.8752C0.471593 57.5363 1.09059 57.3152 1.19376 56.9762C1.29692 56.6372 1.41481 56.3278 1.54745 56.0035C1.68009 55.6793 1.90117 55.414 2.06328 55.1045C2.2254 54.795 2.07801 54.3087 2.28434 54.0139C2.49067 53.7192 2.66753 53.4097 2.88859 53.1297C3.10966 52.8496 3.43391 52.658 3.68445 52.4075C3.93499 52.157 3.89076 51.5527 4.17078 51.3316C4.45079 51.1106 4.93716 51.1401 5.24665 50.9337C5.55614 50.7274 5.70351 50.2558 6.013 50.0789C6.32249 49.9021 6.80886 50.02 7.13309 49.8873C7.45732 49.7547 7.85524 49.7842 8.19421 49.681C8.53318 49.5778 8.90163 49.681 9.25533 49.5926C9.60904 49.5042 9.91854 49.342 10.2722 49.2978C10.626 49.2536 10.9649 49.062 11.3334 49.062C11.8492 49.062 11.8492 49.0031 12.3797 49.0031C12.9103 49.0031 12.8956 49.2536 13.4262 49.2536C13.9567 49.2536 13.942 49.2241 14.4725 49.2241C15.0031 49.2241 14.9883 48.8557 15.5189 48.8557C16.0495 48.8557 16.0347 48.8557 16.5653 48.8557C17.0958 48.8557 17.0811 49.0031 17.6117 49.0031C18.1422 49.0031 18.1275 48.7378 18.6581 48.7378C19.1886 48.7378 19.1739 49.1799 19.7044 49.1799C20.235 49.1799 20.2202 48.9294 20.7508 48.9294C21.2814 48.9294 21.2666 49.062 21.7972 49.062C22.3278 49.062 22.313 49.062 22.8436 49.062C23.3741 49.062 23.3594 48.8999 23.8899 48.8999C24.4205 48.8999 24.4058 48.8262 24.9364 48.8262C25.4669 48.8262 25.4522 48.9441 25.9827 48.9441C26.5133 48.9441 26.4985 49.2831 27.0291 49.2831C27.5597 49.2831 27.5449 49.4747 28.0755 49.4747C28.606 49.4747 28.5913 48.9441 29.1219 48.9441C29.6525 48.9441 29.6377 49.2241 30.1683 49.2241C30.6988 49.2241 30.6988 49.4894 31.2146 49.4894C31.7305 49.4894 31.7452 49.0915 32.2611 49.0915C32.7769 49.0915 32.7769 49.0031 33.3074 49.0031C33.838 49.0031 33.8232 49.342 34.3538 49.342C34.8844 49.342 34.8696 49.1504 35.4002 49.1504C35.9307 49.1504 35.916 48.9589 36.4466 48.9589C36.9771 48.9589 36.9624 49.2094 37.493 49.2094C38.0235 49.2094 38.0088 48.9736 38.5393 48.9736C39.0699 48.9736 39.0552 49.5926 39.5857 49.5926C40.1163 49.5926 40.1015 49.5042 40.6321 49.5042C41.1627 49.5042 41.1479 49.0031 41.6785 49.0031C42.209 49.0031 42.1943 49.6073 42.7248 49.6073C43.2554 49.6073 43.2407 49.3273 43.7713 49.3273C44.3018 49.3273 44.2871 48.8999 44.8176 48.8999C45.3482 48.8999 45.3334 49.4157 45.864 49.4157C46.3946 49.4157 46.3798 49.3273 46.9104 49.3273C47.4409 49.3273 47.4262 48.8557 47.9568 48.8557C48.4874 48.8557 48.4726 49.1799 49.0032 49.1799C49.5337 49.1799 49.519 49.062 50.0495 49.062C50.5801 49.062 50.5654 48.8852 51.0959 48.8852C51.6265 48.8852 51.6118 49.3126 52.1423 49.3126C52.6729 49.3126 52.6581 49.4452 53.1887 49.4452C53.7192 49.4452 53.7045 49.5926 54.2351 49.5926C54.7656 49.5926 54.7509 49.3273 55.2815 49.3273C55.812 49.3273 55.7973 49.4452 56.3278 49.4452C56.8584 49.4452 56.8584 49.5484 57.3742 49.5484C57.89 49.5484 57.9048 49.1799 58.4206 49.1799C58.9365 49.1799 58.9512 49.342 59.467 49.342C59.9828 49.342 59.9976 49.6073 60.5134 49.6073C61.0292 49.6073 61.0439 49.121 61.5597 49.121C62.0756 49.121 62.0756 48.841 62.6062 48.841C63.1367 48.841 63.122 49.1504 63.6525 49.1504C64.1831 49.1504 64.1683 49.1357 64.6989 49.1357C65.2295 49.1357 65.2148 48.8852 65.7453 48.8852C66.2759 48.8852 66.2611 49.0915 66.7917 49.0915C67.3223 49.0915 67.3075 49.5631 67.8381 49.5631C68.3686 49.5631 68.3539 49.0768 68.8844 49.0768C69.415 49.0768 69.4003 49.1947 69.9308 49.1947C70.4614 49.1947 70.4467 49.4599 70.9772 49.4599C71.5078 49.4599 71.493 48.782 72.0236 48.782C72.5541 48.782 72.5394 49.342 73.07 49.342C73.6005 49.342 73.5858 48.8262 74.1164 48.8262C74.6469 48.8262 74.6322 49.5631 75.1627 49.5631C75.6933 49.5631 75.6933 49.2684 76.2091 49.2684C76.7249 49.2684 76.7397 48.8557 77.2555 48.8557C77.7714 48.8557 77.7861 49.2241 78.3019 49.2241C78.8177 49.2241 78.8325 49.2094 79.3483 49.2094C79.8641 49.2094 79.8788 49.0915 80.3946 49.0915C80.9105 49.0915 80.9252 48.7673 81.4411 48.7673C81.9569 48.7673 81.9716 49.5631 82.4874 49.5631C83.0033 49.5631 83.0032 48.8262 83.5338 48.8262C84.0644 48.8262 84.0497 49.4747 84.5802 49.4747C85.1108 49.4747 85.096 49.5484 85.6266 49.5484C86.1572 49.5484 86.1424 48.7525 86.673 48.7525C87.2035 48.7525 87.1888 48.782 87.7193 48.782C88.2499 48.782 88.2352 49.3568 88.7657 49.3568C89.2963 49.3568 89.2816 49.401 89.8121 49.401C90.3427 49.401 90.3427 49.0915 90.8585 49.0915C91.3743 49.0915 91.3891 48.7967 91.9049 48.7967C92.4207 48.7967 92.4354 49.1652 92.9513 49.1652C93.4671 49.1652 93.4818 48.8557 93.9976 48.8557C94.5135 48.8557 94.5135 48.7673 95.044 48.7673C95.5746 48.7673 95.5599 49.1799 96.0904 49.1799C96.621 49.1799 96.6062 49.1947 97.1368 49.1947C97.6674 49.1947 97.6526 49.1357 98.1832 49.1357C98.7137 49.1357 98.699 49.5778 99.2295 49.5778C99.7601 49.5778 99.7454 49.5926 100.276 49.5926C100.807 49.5926 100.792 48.7525 101.322 48.7525C101.853 48.7525 101.838 48.9883 102.369 48.9883C102.899 48.9883 102.885 49.5778 103.415 49.5778C103.946 49.5778 103.931 49.2536 104.461 49.2536C104.992 49.2536 104.977 49.2241 105.508 49.2241C106.038 49.2241 106.024 49.342 106.554 49.342C107.085 49.342 107.085 49.4599 107.601 49.4599C108.116 49.4599 108.131 49.4894 108.647 49.4894C109.163 49.4894 109.178 49.1062 109.693 49.1062C110.209 49.1062 110.224 48.782 110.74 48.782C111.256 48.782 111.27 49.5189 111.786 49.5189C112.302 49.5189 112.317 48.9441 112.833 48.9441C113.348 48.9441 113.363 49.1947 113.879 49.1947C114.395 49.1947 114.395 48.8262 114.925 48.8262C115.456 48.8262 115.441 49.4599 115.972 49.4599C116.502 49.4599 116.502 49.5189 117.018 49.5189C117.534 49.5189 117.549 49.5484 118.064 49.5484C118.58 49.5484 118.595 49.2389 119.111 49.2389C119.627 49.2389 119.641 49.5778 120.157 49.5778C120.673 49.5778 120.688 49.3568 121.204 49.3568C121.719 49.3568 121.734 49.5484 122.25 49.5484C122.766 49.5484 122.781 48.8262 123.296 48.8262C123.812 48.8262 123.827 48.9883 124.343 48.9883C124.859 48.9883 124.873 48.9883 125.389 48.9883C125.905 48.9883 125.92 49.342 126.436 49.342C126.951 49.342 126.966 48.8999 127.482 48.8999C127.998 48.8999 128.012 49.2389 128.528 49.2389C129.044 49.2389 129.059 49.5778 129.575 49.5778C130.091 49.5778 130.105 49.1652 130.621 49.1652C131.137 49.1652 131.152 49.2094 131.667 49.2094C132.183 49.2094 132.183 49.2094 132.714 49.2094C133.244 49.2094 133.23 49.0031 133.76 49.0031C134.291 49.0031 134.291 48.9294 134.807 48.9294C135.322 48.9294 135.337 49.1357 135.853 49.1357C136.369 49.1357 136.384 49.1799 136.914 49.1799C137.445 49.1799 137.445 49.1652 137.961 49.1652C138.476 49.1652 138.491 49.3126 139.007 49.3126C139.523 49.3126 139.537 48.8262 140.053 48.8262C140.569 48.8262 140.584 49.2536 141.114 49.2536C141.645 49.2536 141.645 49.401 142.161 49.401C142.677 49.401 142.691 49.4305 143.207 49.4305C143.723 49.4305 143.738 49.3273 144.268 49.3273C144.799 49.3273 144.799 49.4747 145.329 49.4747C145.86 49.4747 145.86 49.121 146.39 49.121C146.921 49.121 146.921 49.5189 147.437 49.5189C147.953 49.5189 147.967 49.5189 148.498 49.5189C149.029 49.5189 149.029 49.0768 149.559 49.0768C150.09 49.0768 150.09 49.4599 150.62 49.4599C151.151 49.4599 151.151 49.2978 151.681 49.2978C152.035 49.2978 152.389 49.2683 152.742 49.2978C153.096 49.3273 153.406 49.6073 153.745 49.6663C154.084 49.7252 154.585 49.2536 154.924 49.3568C155.263 49.4599 155.41 50.1231 155.734 50.2558C156.059 50.3884 156.501 50.2705 156.81 50.4326C157.12 50.5948 157.562 50.58 157.857 50.7863C158.151 50.9927 158.387 51.3022 158.667 51.5232C158.947 51.7443 159.345 51.8769 159.596 52.1275C159.846 52.378 159.743 52.9675 159.979 53.2328C160.215 53.4981 160.465 53.7486 160.657 54.0434C160.848 54.3382 161.349 54.4708 161.511 54.7803C161.674 55.0898 161.688 55.5024 161.836 55.8267C161.983 56.1509 162.204 56.4604 162.307 56.8141C162.41 57.1678 162.086 57.5952 162.16 57.9489C162.234 58.3026 162.587 58.5974 162.632 58.9511C162.676 59.3048 162.337 59.6732 162.337 60.0269C162.337 60.5428 162.366 60.5428 162.366 61.0733C162.366 61.6039 162.381 61.5892 162.381 62.1197C162.381 62.6503 162.632 62.6355 162.632 63.1661C162.632 63.6967 162.469 63.6819 162.469 64.2125C162.469 64.743 162.882 64.7283 162.882 65.2589C162.882 65.7894 162.897 65.7747 162.897 66.3052C162.897 66.8358 162.838 66.8211 162.838 67.3516C162.838 67.8822 163 67.8674 163 68.398C163 68.9286 162.307 68.9138 162.307 69.4444C162.307 69.975 162.366 69.9602 162.366 70.4908C162.366 71.0213 162.175 71.0066 162.175 71.5372C162.175 72.0677 162.41 72.053 162.41 72.5835C162.41 73.1141 162.189 73.1141 162.189 73.6299C162.189 74.1457 162.189 74.1605 162.189 74.6763C162.189 75.1921 162.41 75.2069 162.41 75.7227C162.41 76.2385 162.971 76.2532 162.971 76.7691C162.971 77.2849 162.617 77.2996 162.617 77.8155C162.617 78.3313 162.617 78.346 162.617 78.8618C162.617 79.3777 162.204 79.3777 162.204 79.9082C162.204 80.4388 162.735 80.424 162.735 80.9546C162.735 81.4852 162.543 81.4704 162.543 82.001C162.543 82.5316 162.263 82.5316 162.263 83.0474C162.263 83.5632 162.13 83.5779 162.13 84.0938C162.13 84.6096 162.632 84.6243 162.632 85.1401C162.632 85.656 162.558 85.6707 162.558 86.1865C162.558 86.7023 162.926 86.7171 162.926 87.2329C162.926 87.7487 162.985 87.7635 162.985 88.2793C162.985 88.7951 162.602 88.8099 162.602 89.3257C162.602 89.8415 162.145 89.8562 162.145 90.3721C162.145 90.8879 162.779 90.9026 162.779 91.4184C162.779 91.9343 162.425 91.949 162.425 92.4648C162.425 92.9806 162.558 92.9954 162.558 93.5112C162.558 94.027 162.853 94.0418 162.853 94.5576C162.853 95.0734 162.543 95.0882 162.543 95.604C162.543 96.1198 162.69 96.1345 162.69 96.6504C162.69 97.1662 162.248 97.1662 162.248 97.6967C162.248 98.2273 162.322 98.2126 162.322 98.7431C162.322 99.2737 162.985 99.2589 162.985 99.7895C162.985 100.32 162.853 100.32 162.853 100.836C162.853 101.352 162.175 101.366 162.175 101.897C162.175 102.428 162.632 102.428 162.632 102.943C162.632 103.459 162.823 103.474 162.823 103.99C162.823 104.506 162.499 104.52 162.499 105.036C162.499 105.552 162.823 105.567 162.823 106.097C162.823 106.628 162.587 106.628 162.587 107.144C162.587 107.659 162.41 107.674 162.41 108.19C162.41 108.706 162.352 108.721 162.352 109.251C162.352 109.782 162.293 109.782 162.293 110.312C162.293 110.843 162.248 110.843 162.248 111.373C162.248 111.904 162.248 111.904 162.248 112.42C162.248 112.936 162.72 112.95 162.72 113.481C162.72 114.011 162.764 114.011 162.764 114.542C162.764 115.073 162.543 115.073 162.543 115.603C162.543 116.134 162.396 116.134 162.396 116.664C162.396 117.018 162.543 117.386 162.499 117.74C162.455 118.094 162.219 118.418 162.16 118.757C162.101 119.096 161.924 119.42 161.821 119.759C161.718 120.098 161.954 120.555 161.821 120.894C161.688 121.233 161.644 121.616 161.482 121.94C161.32 122.265 161.202 122.633 160.996 122.928C160.789 123.223 160.038 123.105 159.817 123.385C159.596 123.665 159.448 123.974 159.198 124.225C158.947 124.475 158.991 125.065 158.711 125.286C158.431 125.507 157.783 125.227 157.488 125.433C157.193 125.64 157.252 126.421 156.943 126.598C156.633 126.774 156.221 126.789 155.882 126.922C155.543 127.054 155.218 127.261 154.879 127.364C154.54 127.467 154.054 126.937 153.7 127.01C153.347 127.084 153.052 127.29 152.698 127.32C152.345 127.349 152.006 127.217 151.652 127.217L151.696 127.261Z" fill="#DD198E"/>
<path d="M135.956 64.4189C135.735 64.6989 135.145 64.64 134.91 64.8905C134.674 65.141 134.6 65.5684 134.32 65.7748C134.04 65.9811 133.775 66.2169 133.48 66.3938C133.185 66.5706 133.023 67.1012 132.699 67.2338C132.375 67.3665 131.918 67.2043 131.579 67.3075C131.24 67.4107 130.857 67.2191 130.503 67.278C130.149 67.337 129.825 67.278 129.471 67.278C129.118 67.278 128.808 67.2928 128.454 67.278C128.101 67.2633 127.791 67.2191 127.438 67.1454C127.084 67.0717 126.671 67.3959 126.332 67.2928C125.993 67.1896 125.625 67.1454 125.301 66.998C124.976 66.8506 124.873 66.2906 124.564 66.1285C124.254 65.9664 123.915 65.8927 123.62 65.6863C123.326 65.48 123.164 65.1558 122.898 64.9347C122.633 64.7136 122.368 64.5221 122.117 64.2715C121.867 64.021 121.366 64.021 121.145 63.741C120.923 63.4609 120.85 63.0925 120.643 62.7977C120.437 62.503 120.275 62.2082 120.098 61.8987C119.921 61.5892 119.332 61.5008 119.184 61.1766C119.037 60.8524 119.17 60.425 119.022 60.1302C118.875 59.8354 118.86 59.4375 118.713 59.1428C118.565 58.848 118.448 58.509 118.3 58.2143C118.153 57.9195 118.182 57.5069 118.02 57.2121C117.858 56.9026 117.711 56.5931 117.563 56.3131C117.401 56.0036 116.812 55.9447 116.65 55.6499C116.473 55.3404 116.546 54.913 116.384 54.633C116.207 54.3235 115.588 54.3088 115.426 54.0287C115.249 53.734 115.117 53.4245 114.94 53.1592C114.748 52.8645 115.073 52.2307 114.896 51.9655C114.689 51.6707 114.011 51.7297 113.82 51.4791C113.599 51.1844 113.643 50.7422 113.451 50.5064C113.216 50.2117 112.773 50.1822 112.552 49.9758C112.272 49.6958 112.155 49.5485 111.933 49.4158C111.418 49.3569 111.432 49.1947 110.917 49.1947C110.401 49.1947 110.386 49.3127 109.87 49.3127C109.354 49.3127 109.34 49.5337 108.824 49.5337C108.308 49.5337 108.293 49.1947 107.777 49.1947C107.262 49.1947 107.247 49.0032 106.731 49.0032C106.215 49.0032 106.215 49.18 105.685 49.18C105.154 49.18 105.169 49.0621 104.638 49.0621C104.108 49.0621 104.122 48.7231 103.592 48.7231C103.061 48.7231 103.076 49.3421 102.545 49.3421C102.015 49.3421 102.03 49.3127 101.499 49.3127C100.969 49.3127 100.983 48.7379 100.453 48.7379C99.9221 48.7379 99.9369 49.4011 99.4063 49.4011C98.8758 49.4011 98.8905 49.3716 98.3599 49.3716C97.8293 49.3716 97.8294 49.0621 97.3135 49.0621C96.7977 49.0621 96.783 49.3421 96.2672 49.3421C95.7513 49.3421 95.7366 49.239 95.2208 49.239C94.705 49.239 94.6902 49.2684 94.1744 49.2684C93.6586 49.2684 93.6438 49.5337 93.128 49.5337C92.6122 49.5337 92.5975 48.8705 92.0816 48.8705C91.5658 48.8705 91.551 49.4306 91.0352 49.4306C90.5194 49.4306 90.5047 48.7379 89.9889 48.7379C89.473 48.7379 89.4583 48.9737 88.9425 48.9737C88.4267 48.9737 88.4119 48.9737 87.8961 48.9737C87.3803 48.9737 87.3655 49.0032 86.8497 49.0032C86.3339 49.0032 86.3191 49.1211 85.8033 49.1211C85.2875 49.1211 85.2728 49.1211 84.757 49.1211C84.2411 49.1211 84.2264 49.3274 83.7105 49.3274C83.1947 49.3274 83.18 48.9737 82.6642 48.9737C82.1483 48.9737 82.1336 49.3863 81.603 49.3863C81.0725 49.3863 81.0725 48.8116 80.5567 48.8116C80.0409 48.8116 80.0261 49.2684 79.5103 49.2684C78.9945 49.2684 78.9797 49.4306 78.4639 49.4306C77.9481 49.4306 77.9333 49.3863 77.4175 49.3863C76.9017 49.3863 76.887 49.4158 76.3711 49.4158C75.8553 49.4158 75.8406 48.7231 75.3248 48.7231C74.809 48.7231 74.7942 48.9442 74.2637 48.9442C73.7331 48.9442 73.7331 49.1211 73.2172 49.1211C72.7014 49.1211 72.6867 49.4453 72.1709 49.4453C71.655 49.4453 71.6403 49.2684 71.1245 49.2684C70.6087 49.2684 70.6086 49.46 70.0781 49.46C69.5475 49.46 69.5623 49.46 69.0317 49.46C68.5011 49.46 68.5012 49.2242 67.9853 49.2242C67.4695 49.2242 67.4548 48.8853 66.939 48.8853C66.4231 48.8853 66.4084 49.0916 65.8778 49.0916C65.3473 49.0916 65.3473 48.9737 64.8314 48.9737C64.3156 48.9737 64.3009 49.0474 63.7851 49.0474C63.2692 49.0474 63.2545 48.959 62.7387 48.959C62.2229 48.959 62.2081 48.8705 61.6776 48.8705C61.147 48.8705 61.147 48.7379 60.6164 48.7379C60.0859 48.7379 60.0859 48.9737 59.5553 48.9737C59.0248 48.9737 59.0248 48.8705 58.4942 48.8705C57.9636 48.8705 57.9636 48.8116 57.4331 48.8116C56.9025 48.8116 56.9025 49.18 56.3719 49.18C55.8414 49.18 55.8414 48.959 55.3108 48.959C54.7803 48.959 54.7803 49.0621 54.2497 49.0621C53.7191 49.0621 53.7191 48.7674 53.1886 48.7674C52.658 48.7674 52.658 49.0032 52.1275 49.0032C51.5969 49.0032 51.5674 48.8558 51.0369 48.9442C50.5063 49.0326 50.8306 49.4306 50.3147 49.8285C50.0789 50.0053 49.8873 50.3001 49.5778 50.5506C49.342 50.757 49.1357 51.0222 48.8557 51.2728C48.6199 51.4939 48.3398 51.6854 48.0746 51.936C47.8388 52.1718 47.3966 52.216 47.1461 52.4665C46.925 52.7023 46.5713 52.8645 46.3355 53.1297C46.1144 53.3803 45.7313 53.5129 45.5102 53.7929C45.2891 54.073 45.4365 54.6035 45.2302 54.8835C45.0239 55.1636 44.6112 55.2815 44.4196 55.5762C44.228 55.871 43.9332 56.0773 43.7416 56.3868C43.5501 56.6963 43.8154 57.2269 43.6385 57.5363C43.4617 57.8458 43.329 58.1406 43.1816 58.4501C43.0342 58.7596 42.7837 59.0101 42.6363 59.3344C42.4889 59.6586 42.6363 60.0712 42.5037 60.3955C42.371 60.705 41.7963 60.8376 41.5899 61.1471C41.3984 61.4271 40.9415 61.4713 40.691 61.7366C40.4552 61.9872 40.691 62.7093 40.4109 62.9451C40.1457 63.1662 39.8804 63.4462 39.5856 63.6525C39.2909 63.8589 38.9813 64.0504 38.6718 64.242C38.3624 64.4336 38.0529 64.6105 37.7286 64.7873C37.4044 64.9642 37.0212 64.9789 36.697 65.141C36.3728 65.3032 36.0633 65.48 35.7243 65.6126C35.3853 65.7453 35.0463 65.8337 34.7074 65.9369C34.3684 66.04 34.0589 66.3053 33.72 66.3938C33.381 66.4822 33.042 66.718 32.7031 66.7917C32.3641 66.8654 31.9072 66.3938 31.5535 66.438C31.1998 66.4822 30.8461 66.4822 30.5071 66.4969C30.1682 66.5117 29.8144 66.3053 29.4607 66.2906C29.107 66.2758 28.7239 66.718 28.3849 66.6738C28.0459 66.6296 27.589 66.8654 27.2648 66.7769C26.9406 66.6885 26.5279 66.5559 26.2037 66.4232C25.8795 66.2906 25.7174 65.76 25.4373 65.5684C25.1573 65.3768 24.8625 65.1558 24.6267 64.8905C24.3909 64.6252 24.3467 64.2568 24.1699 63.9473C24.0077 63.6525 23.3298 63.5494 23.2119 63.1957C23.1087 62.8714 23.0056 62.4735 22.9466 62.1051C22.8877 61.7661 23.1677 61.3534 23.1529 60.985C23.1529 60.6313 23.5656 60.2923 23.5804 59.9386C23.5951 59.5849 23.2561 59.2312 23.2856 58.8922C23.3151 58.5532 23.1382 58.1701 23.1677 57.8311C23.1972 57.4921 23.6835 57.1974 23.7425 56.8584C23.8014 56.5194 23.4182 56.092 23.4919 55.7531C23.5656 55.4141 23.6983 55.0751 23.8014 54.7509C23.9046 54.4267 24.2288 54.1466 24.332 53.8224C24.4352 53.4982 24.1109 52.9824 24.2436 52.6729C24.3762 52.3634 25.0541 52.2602 25.2015 51.9507C25.3489 51.6412 25.6878 51.4349 25.8647 51.1401C26.0416 50.8454 25.6436 50.1969 25.8205 49.9022C25.9973 49.6074 26.4395 49.4748 26.6458 49.1947C26.8521 48.9147 26.7195 48.3547 26.9553 48.0894C27.1911 47.8241 27.9722 48.0599 28.208 47.8094C28.4439 47.5589 28.1933 46.7925 28.4438 46.5567C28.6944 46.3209 29.446 46.6451 29.7113 46.424C29.9766 46.203 30.0355 45.7166 30.3155 45.5103C30.5956 45.304 30.7577 44.9208 31.0524 44.7292C31.3472 44.5376 31.8335 44.6408 32.1283 44.4787C32.423 44.3165 32.7178 44.1102 33.0125 43.9481C33.3073 43.786 33.4547 43.2407 33.7642 43.0933C34.0737 42.9459 34.5895 43.2112 34.899 43.0933C35.2085 42.9754 35.6359 43.0638 35.9454 42.9459C36.2844 42.828 36.6233 42.7691 36.9328 42.6659C37.2718 42.5627 37.3749 41.6932 37.6991 41.6048C38.0529 41.5016 38.495 41.7816 38.8045 41.708C39.1729 41.6195 39.5119 41.5458 39.8214 41.4869C40.2046 41.4132 40.5141 41.1332 40.8088 41.0742C41.4426 40.9711 41.6931 41.7669 42.0468 41.4132C42.0468 41.0742 41.472 40.5289 41.4868 40.19C41.5015 39.851 41.531 39.4973 41.5457 39.1583C41.5605 38.8193 41.87 38.4951 41.8847 38.1414C41.8995 37.7877 42.1353 37.4782 42.1647 37.1245C42.1942 36.7708 41.8405 36.4024 41.8847 36.0634C41.9289 35.7244 42.1942 35.4002 42.2384 35.0612C42.2826 34.7222 42.5184 34.4127 42.5626 34.059C42.6069 33.7053 42.4595 33.3516 42.5184 33.0127C42.5774 32.6737 42.9163 32.3789 42.9605 32.04C43.0048 31.701 43.2258 31.3915 43.2848 31.0525C43.3437 30.7136 42.8427 30.2714 42.9016 29.9325C42.9606 29.5935 43.5648 29.3577 43.6238 29.0187C43.6827 28.6797 43.1079 28.2081 43.1816 27.8692C43.2553 27.5302 44.0069 27.3386 44.0806 26.9996C44.1543 26.6607 43.7122 26.2038 43.7859 25.8796C43.8595 25.5553 44.0512 25.2311 44.1248 24.8921C44.1985 24.5532 44.5817 24.3026 44.6701 23.9637C44.7586 23.6247 44.847 23.3005 44.9354 22.9615C45.0238 22.6225 44.8617 22.2246 44.9502 21.9004C45.0386 21.5761 45.2007 21.2519 45.2891 20.9129C45.3776 20.574 45.4218 20.235 45.525 19.896C45.6281 19.5571 45.687 19.2181 45.7755 18.8939C45.8639 18.5696 46.0997 18.2601 46.1881 17.9359C46.2766 17.6117 46.5713 17.3316 46.6745 16.9927C46.7777 16.6537 46.7776 16.3 46.8808 15.9758C46.984 15.6515 47.0724 15.3126 47.1756 14.9736C47.2787 14.6346 47.1461 14.2367 47.2493 13.9125C47.3524 13.5882 47.4556 13.2493 47.5587 12.925C47.6619 12.6008 48.104 12.3797 48.222 12.0555C48.3399 11.7313 48.3251 11.3628 48.4283 11.0386C48.5315 10.7144 48.2219 10.228 48.3398 9.91853C48.4577 9.60904 48.9589 9.40271 49.062 9.07848C49.1652 8.75425 49.0473 8.34159 49.1504 8.01736C49.2683 7.67839 49.2831 7.32468 49.3862 7.00045C49.5042 6.66148 50.1379 6.52884 50.2558 6.21935C50.3737 5.88038 50.5063 5.57088 50.6242 5.24665C50.7569 4.90768 50.9484 4.62767 51.0663 4.31817C51.199 3.9792 50.9632 3.52233 51.0811 3.22757C51.2137 2.87387 51.3022 2.5349 51.4201 2.24015C51.5675 1.8717 51.7885 1.59168 51.8916 1.3264C52.1422 0.722148 51.5821 0.221067 52.0243 0C52.3485 0.103165 52.8791 0.501085 53.2033 0.633726C53.5276 0.766366 53.9844 0.633726 54.2792 0.795842C54.5739 0.957958 54.736 1.40009 55.0161 1.59168C55.2961 1.78327 55.4729 2.1075 55.7529 2.31383C56.033 2.52016 56.1656 2.85913 56.4309 3.0802C56.6962 3.30127 57.0204 3.41917 57.271 3.65497C57.5215 3.89078 57.8899 3.99394 58.1258 4.24449C58.3616 4.49503 58.6416 4.70136 58.8626 4.9519C59.0837 5.20244 59.1132 5.62984 59.3343 5.89512C59.5553 6.1604 59.7764 6.41094 59.9827 6.67622C60.1891 6.9415 60.6901 7.00045 60.8965 7.28047C61.1028 7.56049 61.2944 7.8405 61.486 8.12052C61.6776 8.40054 61.7512 8.78372 61.9281 9.06374C62.1197 9.3585 62.5323 9.50587 62.7092 9.80063C62.886 10.0954 62.6945 10.6259 62.8566 10.906C63.0334 11.2155 63.4166 11.3923 63.5788 11.6723C63.7556 11.9966 63.8146 12.365 63.9472 12.6303C64.1241 12.9693 64.2861 13.2788 64.4188 13.5293C64.6988 14.1041 64.3598 14.0451 64.8314 14.2072C65.1409 14.0451 65.1852 13.824 65.5094 13.6767C65.8336 13.5293 66.2168 13.4851 66.5263 13.3377C66.8358 13.1903 67.3074 13.3819 67.6316 13.264C67.9559 13.1461 68.3538 13.2051 68.678 13.0872C69.0022 12.9693 69.1938 12.365 69.5328 12.2766C69.8718 12.1882 70.2844 12.365 70.6234 12.2766C70.9624 12.1882 71.3603 12.365 71.6992 12.3061C72.0382 12.2471 72.3182 11.7755 72.6572 11.7165C72.9962 11.6576 73.3499 11.525 73.6889 11.466C74.0278 11.4071 74.4257 11.7018 74.7794 11.6723C75.1331 11.6429 75.4574 11.4071 75.8111 11.3923C76.1648 11.3776 76.5038 11.1565 76.8575 11.127C77.2112 11.0976 77.5796 11.3481 77.9186 11.3334C78.2576 11.3186 78.626 11.0828 78.9797 11.0828C79.3334 11.0828 79.6724 11.7018 80.0261 11.7165C80.3798 11.7313 80.7335 11.6576 81.0725 11.6723C81.4115 11.6871 81.8094 11.2007 82.1631 11.2302C82.5168 11.2597 82.8115 11.8934 83.1652 11.9229C83.519 11.9524 83.8874 11.7165 84.2411 11.746C84.5948 11.7755 85.0075 11.4071 85.3465 11.4513C85.6854 11.4955 85.9802 12.0555 86.3192 12.1145C86.6581 12.1734 87.0266 12.1439 87.3655 12.2029C87.7045 12.2618 88.1466 11.8639 88.4856 11.9376C88.8246 12.0113 89.1193 12.3945 89.4583 12.4682C89.812 12.5419 90.1805 12.5124 90.5194 12.5861C90.8731 12.6745 91.2563 12.5861 91.5953 12.6745C91.949 12.7629 92.1848 13.264 92.509 13.3524C92.8627 13.4556 93.1722 13.6619 93.4817 13.7504C93.8501 13.8535 94.1449 14.1041 94.4397 14.1925C94.8228 14.3104 95.2355 14.163 95.5155 14.2662C96.1492 14.4725 96.1787 14.9441 96.6356 14.7231C96.6946 14.3841 97.0188 13.942 97.1367 13.603C97.2546 13.264 97.0335 12.8366 97.1809 12.5124C97.3283 12.1882 97.6231 11.9671 97.7999 11.6576C97.9768 11.3481 98.3599 11.2007 98.5515 10.906C98.7431 10.6112 98.522 10.0659 98.7284 9.77116C98.9347 9.4764 98.92 9.03427 99.1263 8.75425C99.3326 8.47423 99.8042 8.40054 100.025 8.12052C100.246 7.8405 100.467 7.57522 100.703 7.30994C100.939 7.04466 100.998 6.61727 101.234 6.36673C101.47 6.11618 101.882 5.99828 102.118 5.76248C102.354 5.52667 102.958 5.6151 103.194 5.36456C103.43 5.11401 103.371 4.5245 103.621 4.2887C103.872 4.05289 104.226 3.89077 104.476 3.66971C104.741 3.4339 105.184 3.40443 105.434 3.18336C105.714 2.94756 105.552 2.19593 105.803 1.9896C106.097 1.7538 106.716 1.96013 106.982 1.76854C107.291 1.51799 107.262 0.899002 107.483 0.722149C107.998 0.324228 108.013 0.795842 108.529 0.766366C108.809 0.957957 109.015 0.854789 109.281 1.09059C109.546 1.3264 110.091 1.26745 110.327 1.51799C110.563 1.76853 110.519 2.28436 110.74 2.54964C110.961 2.81492 111.182 3.0802 111.388 3.36021C111.594 3.64023 111.874 3.8613 112.066 4.15606C112.258 4.45081 112.7 4.58345 112.877 4.89295C113.053 5.20244 112.523 5.88038 112.685 6.18987C112.847 6.49937 113.658 6.48463 113.805 6.79412C113.953 7.10362 113.496 7.69313 113.643 8.01736C113.79 8.34159 113.835 8.68056 113.967 9.00479C114.1 9.32902 114.955 9.37323 115.087 9.69746C115.22 10.0217 115.294 10.3754 115.412 10.6996C115.529 11.0239 115.087 11.5397 115.19 11.8787C115.294 12.2176 115.367 12.5419 115.456 12.8808C115.544 13.2198 115.957 13.4556 116.045 13.7946C116.134 14.1335 116.517 14.3841 116.605 14.7231C116.694 15.062 116.428 15.4894 116.517 15.8284C116.605 16.1674 116.974 16.4326 117.062 16.7716C117.151 17.1106 117.313 17.4348 117.386 17.7738C117.46 18.1127 117.136 18.5401 117.195 18.8939C117.254 19.2476 117.327 19.5865 117.386 19.9255C117.445 20.2645 117.578 20.6034 117.652 20.9424C117.725 21.2814 117.357 21.7088 117.416 22.0477C117.475 22.3867 117.519 22.7404 117.578 23.0794C117.637 23.4183 118.521 23.6394 118.58 23.9784C118.639 24.3174 118.462 24.7153 118.506 25.0542C118.551 25.3932 118.02 25.8354 118.079 26.1743C118.138 26.5133 118.492 26.8228 118.536 27.1618C118.58 27.5007 118.654 27.8544 118.698 28.1934C118.742 28.5324 118.669 28.9008 118.713 29.2398C118.757 29.5787 118.669 29.9472 118.713 30.2862C118.757 30.6251 118.757 30.9936 118.801 31.3326C118.831 31.6863 119.258 31.9958 119.288 32.3347C119.317 32.6884 119.671 33.0127 119.7 33.3516C119.73 33.7201 119.022 34.118 119.052 34.457C119.081 34.8254 119.671 35.1349 119.7 35.4591C119.73 35.8423 119.494 36.2108 119.523 36.5202C119.553 36.9182 119.936 37.2571 119.951 37.5372C119.98 38.2004 119.067 38.5541 119.509 38.8193C119.951 39.0846 120.083 38.7604 120.702 38.613C120.982 38.5541 121.292 38.5246 121.675 38.4656C121.985 38.4214 122.265 38.0825 122.633 38.0677C122.957 38.0677 123.267 38.3919 123.62 38.4067C123.945 38.4067 124.269 38.2298 124.623 38.2741C124.947 38.3183 125.212 38.5541 125.551 38.6425C125.875 38.7162 126.376 38.1119 126.715 38.2151C127.025 38.3183 127.305 38.5983 127.629 38.7309C127.924 38.8636 128.248 39.0109 128.543 39.1731C128.838 39.3204 128.941 39.792 129.236 39.9836C129.516 40.1605 130.046 39.9836 130.311 40.2047C130.577 40.3963 130.621 40.8826 130.886 41.1184C131.137 41.3395 131.137 41.7964 131.387 42.0469C131.638 42.2975 132.139 42.2385 132.375 42.4891C132.596 42.7396 132.773 43.0196 132.994 43.2996C133.215 43.5797 133.421 43.8597 133.613 44.1397C133.804 44.4197 134.187 44.5818 134.394 44.8766C134.6 45.1713 134.851 45.4219 135.042 45.7019C135.234 45.9819 135.234 46.4093 135.425 46.7041C135.617 46.9988 135.75 47.3231 135.912 47.6325C136.074 47.942 136.266 48.2368 136.413 48.5463C136.56 48.8558 136.59 49.239 136.722 49.5485C136.855 49.858 137.445 50.0053 137.577 50.3296C137.71 50.6538 137.415 51.1401 137.533 51.4644C137.651 51.7886 137.607 52.1718 137.695 52.496C137.784 52.8203 137.842 53.1592 137.901 53.4982C137.96 53.8372 138.122 54.1614 138.181 54.5004C138.24 54.8393 138.108 55.193 138.137 55.532C138.167 55.871 138.535 56.2099 138.535 56.5489C138.535 56.8879 138.137 57.2121 138.108 57.5658C138.078 57.9195 138.034 58.229 137.975 58.568C137.916 58.907 138.285 59.3344 138.196 59.6586C138.108 59.9828 137.651 60.2186 137.548 60.5429C137.445 60.8671 137.474 61.2355 137.327 61.5598C137.179 61.884 137.091 62.1935 136.914 62.503C136.737 62.8125 136.383 62.9746 136.207 63.2693C136.03 63.5641 136.207 64.0947 135.985 64.3747L135.956 64.4189Z" fill="black"/>
<path d="M153.022 119.612C154.488 119.612 155.675 118.424 155.675 116.959C155.675 115.494 154.488 114.306 153.022 114.306C151.557 114.306 150.37 115.494 150.37 116.959C150.37 118.424 151.557 119.612 153.022 119.612Z" fill="black"/>
<path d="M153.022 62.8125C154.488 62.8125 155.675 61.6247 155.675 60.1596C155.675 58.6945 154.488 57.5068 153.022 57.5068C151.557 57.5068 150.37 58.6945 150.37 60.1596C150.37 61.6247 151.557 62.8125 153.022 62.8125Z" fill="black"/>
<path d="M10.4492 119.612C11.9143 119.612 13.102 118.424 13.102 116.959C13.102 115.494 11.9143 114.306 10.4492 114.306C8.98407 114.306 7.79639 115.494 7.79639 116.959C7.79639 118.424 8.98407 119.612 10.4492 119.612Z" fill="black"/>
<path d="M10.4492 62.8125C11.9143 62.8125 13.102 61.6247 13.102 60.1596C13.102 58.6945 11.9143 57.5068 10.4492 57.5068C8.98407 57.5068 7.79639 58.6945 7.79639 60.1596C7.79639 61.6247 8.98407 62.8125 10.4492 62.8125Z" fill="black"/>
<path d="M92.627 49.18H68.457C68.5012 47.8831 69.1792 46.5714 70.2845 45.4808C73.8953 41.9143 78.0218 42.1059 78.8324 39.0404C79.6577 35.9897 78.7145 31.1262 80.542 31.1262C82.3695 31.1262 81.441 35.9897 82.2516 39.0404C83.0622 42.0911 87.1887 41.9143 90.8142 45.4808C91.9196 46.5714 92.5975 47.8831 92.6418 49.18H92.627Z" fill="#F9F9F9"/>
<path d="M80.514 46.1941C83.0207 46.1591 85.0382 45.0883 85.0203 43.8024C85.0023 42.5165 82.9557 41.5024 80.449 41.5375C77.9423 41.5725 75.9247 42.6433 75.9427 43.9292C75.9606 45.2151 78.0073 46.2291 80.514 46.1941Z" fill="black"/>
<path d="M74.6172 47.942C74.6172 48.3841 74.7499 48.8115 74.9562 49.1799H73.3645C73.2319 48.7968 73.1729 48.3841 73.1582 47.9567C73.1582 47.5588 73.4824 47.2198 73.8803 47.2051C74.293 47.2051 74.6172 47.5293 74.6172 47.9272V47.942Z" fill="black"/>
<path d="M81.2638 47.8388C81.2638 48.3105 81.4112 48.7673 81.6617 49.1653H79.4658C79.6869 48.7673 79.8048 48.3252 79.8048 47.8536C79.8048 47.4557 80.129 47.1167 80.5269 47.1167C80.9249 47.1167 81.2638 47.4409 81.2638 47.8388Z" fill="black"/>
<path d="M87.9106 47.7504C87.9106 48.2515 87.837 48.7378 87.6601 49.18H86.0537C86.319 48.7673 86.4516 48.2957 86.4516 47.7799C86.4516 47.3819 86.7611 47.043 87.159 47.043H87.1738C87.5717 47.043 87.8959 47.3672 87.9106 47.7504Z" fill="black"/>
<path d="M33.1011 63.0922C34.0738 60.9257 34.398 59.4372 35.1791 60.292C35.9602 61.1468 34.7517 63.3869 33.5727 64.3007C32.3937 65.2144 32.7473 63.8733 33.1011 63.0922Z" fill="white"/>
<path d="M30.5072 59.7911C32.1578 58.4499 32.5705 60.2037 31.1114 62.326C29.6671 64.4482 28.1491 65.6714 28.7534 63.8292C29.3576 61.987 30.3009 59.9532 30.5072 59.7911Z" fill="white"/>
<path d="M28.2818 59.9237C26.5722 61.7954 25.5259 61.3386 26.7786 59.85C28.0313 58.3615 30.2862 56.6372 29.6819 57.9783C29.0777 59.3195 28.2966 59.9237 28.2966 59.9237H28.2818Z" fill="white"/>
<path d="M127.187 63.0922C126.214 60.9257 125.89 59.4372 125.109 60.292C124.328 61.1468 125.536 63.3869 126.715 64.3007C127.894 65.2144 127.541 63.8733 127.187 63.0922Z" fill="white"/>
<path d="M129.781 59.7911C128.13 58.4499 127.718 60.2037 129.177 62.326C130.621 64.4482 132.139 65.6714 131.535 63.8292C130.945 61.987 129.987 59.9532 129.781 59.7911Z" fill="white"/>
<path d="M132.006 59.9237C133.716 61.7954 134.762 61.3386 133.51 59.85C132.257 58.3615 130.002 56.6372 130.606 57.9783C131.211 59.3195 131.992 59.9237 131.992 59.9237H132.006Z" fill="white"/>
<path d="M93.7176 38.1857C97.2176 38.1857 100.055 35.3485 100.055 31.8485C100.055 28.3485 97.2176 25.5112 93.7176 25.5112C90.2176 25.5112 87.3804 28.3485 87.3804 31.8485C87.3804 35.3485 90.2176 38.1857 93.7176 38.1857Z" fill="white"/>
<path d="M93.7179 36.1372C96.0865 36.1372 98.0066 34.2171 98.0066 31.8485C98.0066 29.4799 96.0865 27.5598 93.7179 27.5598C91.3493 27.5598 89.4292 29.4799 89.4292 31.8485C89.4292 34.2171 91.3493 36.1372 93.7179 36.1372Z" fill="black"/>
<path d="M92.3764 29.903C92.7753 29.903 93.0986 29.5797 93.0986 29.1809C93.0986 28.7821 92.7753 28.4587 92.3764 28.4587C91.9776 28.4587 91.6543 28.7821 91.6543 29.1809C91.6543 29.5797 91.9776 29.903 92.3764 29.903Z" fill="white"/>
<path d="M95.5453 35.3267C95.7162 35.3267 95.8548 35.1882 95.8548 35.0173C95.8548 34.8463 95.7162 34.7078 95.5453 34.7078C95.3744 34.7078 95.2358 34.8463 95.2358 35.0173C95.2358 35.1882 95.3744 35.3267 95.5453 35.3267Z" fill="white"/>
<path d="M67.3665 38.1857C70.8665 38.1857 73.7038 35.3485 73.7038 31.8485C73.7038 28.3485 70.8665 25.5112 67.3665 25.5112C63.8666 25.5112 61.0293 28.3485 61.0293 31.8485C61.0293 35.3485 63.8666 38.1857 67.3665 38.1857Z" fill="white"/>
<path d="M67.3663 36.1372C69.7349 36.1372 71.655 34.2171 71.655 31.8485C71.655 29.4799 69.7349 27.5598 67.3663 27.5598C64.9978 27.5598 63.0776 29.4799 63.0776 31.8485C63.0776 34.2171 64.9978 36.1372 67.3663 36.1372Z" fill="black"/>
<path d="M68.6929 29.903C69.0917 29.903 69.415 29.5797 69.415 29.1809C69.415 28.7821 69.0917 28.4587 68.6929 28.4587C68.2941 28.4587 67.9707 28.7821 67.9707 29.1809C67.9707 29.5797 68.2941 29.903 68.6929 29.903Z" fill="white"/>
<path d="M65.5243 35.3267C65.6953 35.3267 65.8339 35.1882 65.8339 35.0173C65.8339 34.8463 65.6953 34.7078 65.5243 34.7078C65.3534 34.7078 65.2148 34.8463 65.2148 35.0173C65.2148 35.1882 65.3534 35.3267 65.5243 35.3267Z" fill="white"/>
</svg>
