<svg id="eMBSDZNXlQY1" xmlns="http://www.w3.org/2000/svg" xmlns:xlink="http://www.w3.org/1999/xlink" viewBox="0 0 77 81" shape-rendering="geometricPrecision" text-rendering="geometricPrecision" project-id="5581e01fd139480abde833ea0189d06c" export-id="b0085e978b634e6fa3764ba0d9dea242" cached="false"><path d="M39.0225,46.6782c4.2933-1.8819,14.4107-12.9185,15.2837-15.5072s2.9666-10.2196-1.4993-16.7738-4.9224-8.67706-14.261-11.71651c-9.3387-3.039447-17.9035-3.515219-22.2932-1.31952s-9.65711,4.19989-12.84911,9.51093C0.207198,16.1973,-1.0687,28.2319,1.02265,32.4022s5.34965,5.6079,8.01769,11.0012c2.66806,5.3934,2.62516,11.125,3.88886,12.6527c1.2637,1.5276,2.5956,1.359,4.6319-.7476c2.022-2.111,1.9865-4.7914,6.7366-5.9241s5.9643-1.8839,8.5505-1.5112c2.5863.3727,6.1787-1.2092,6.1787-1.2092l-.0044.0142Z" transform="translate(10.745344 11.954272)" fill="#ffc3a3"/><path d="M13.2254,24.9891c9.0285-2.2543,13.2991-5.4856,15.2663-7.5198c1.9628-2.0199,4.3199-5.3237,1.9779-8.32208s-3.9602-4.94713-7.7525-3.83248-6.4386,1.3948-9.0691-1.62974c-2.6349-3.010275-4.08215-5.10946-8.15999-2.50578C1.42443,3.78728,-0.736274,10.9761,0.227403,13.5824C1.19108,16.1888,3.83293,19.8881,5.67389,21.671c1.84096,1.783,7.55591,3.3038,7.55591,3.3038l-.0044.0143Z" transform="translate(23.705015 23.921018)" fill="#970215"/><g transform="translate(-1.307756 0.491346)"><path d="M34.9875,51.318c-.2996-.092-.5006-.4035-.7508-.6052-.0769-.0549-.6605.0157-1.0996-.3845-.2317-.2117-.4052-.5616-.7093-.8423-.2415-.2302-.2626-.7206-.5381-.9926-.2371-.2445-.7704-.2365-1.0317-.5041-.2371-.2445-.1979-.7789-.4548-1.0607-.2327-.2588-.6047-.4199-.8474-.6973s-.7298-.3178-.968-.6096c-.2383-.2917-.2396-.7448-.4636-1.0322s-.1881-.7602-.4077-1.0618-.7539-.3408-.9549-.6523c-.2009-.3114-.1694-.7701-.3604-1.0629s-.8856-.3188-1.0723-.6259.0686-.8843-.1137-1.2057-.3877-.6186-.5371-.9455.0468-.813-.1026-1.1399-.8835-.4274-1.0099-.7784c-.1263-.3511.1598-.8252.0619-1.1675-.0978-.3422-.5434-.6196-.6226-.9717s.0478-.7659.0016-1.1235-.4229-.7075-.4362-1.0706.7094-.7344.7246-1.0888c.0195-.3687-.7652-.8126-.7029-1.1681s.3135-.7156.3901-1.0667.1092-.7626.2286-1.1006.7678-.4667.9344-.8058.2004-.7034.3911-1.0195.4638-.5445.693-.8332.1312-.8339.3889-1.1138.7536-.2681,1.0354-.525.2782-.8044.5656-1.0284c.2873-.224.7986-.1606,1.1101-.3616.3345-.2251.5417-.6455.863-.8278.3587-.202.9184.1103,1.2595-.0347.3741-.1505.5009-.9702.8432-1.068.3938-.1132.8514.0742,1.2134.0136.395-.066.8012.3397,1.1644.3263.4059-.0002.7373.0391,1.0928.1014.4027.0613.7921-.0377,1.1202.063l-.0964.3139c.3424.1051.7987-.1607,1.1137-.0171s.5444.4638.8463.6502c.3018.1863.8273.0511,1.1061.2616s.6738.3474.9439.5864c.27.2391.2407.7921.4877,1.0552.247.2632.5774.4583.7915.727s.0904.8239.3001,1.1069c.2196.3016.415.5802.5918.8686.201.3115.5524.7941.7292,1.0826.3368-.1308.7511-.7685,1.1351-.9004.351-.1264.8592.2014,1.2387.0838.3609-.1077.5558-.844.9266-.9331s.835.1784,1.2157.1079.7637-.0465,1.1443-.1169.7792.208,1.1653.1705.7428-.131,1.1202-.14c.3774-.0089.8082-.7509,1.1867-.7127s.789.2267,1.1544.3077.8065.1696,1.1588.2934.6355.523.9846.7082c.2919.1677.8152.1411,1.128.3932.2602.2204.6257.5044.8782.8005.2284.2731.3428.7141.5394,1.0398.1724.3027.2483.7164.3846,1.086.1164.3324.1496.7328.2387,1.1036.0649.3478-.3266.7584-.289,1.1445.0276.3676-.026.6946-.0269,1.0533-.0009.3588.7641.7655.7303,1.1297-.0338.3643-.0479.7659-.1102,1.1214s-.2706.7287-.3758,1.0711c-.1051.3423-.9334.447-1.0671.7806s.4823,1.0223.3201,1.3472c-.1622.3248-.6493.4875-.84.8036-.1908.3161-.084.8328-.3033,1.1401s-.9007.2386-1.1254.513c-.2248.2745-.2366.7704-.4899,1.0361s-.6032.4392-.8664.6862-.4967.5499-.7697.7783-.589.4436-.8763.6676-.7943.1463-1.0915.3517-.5308.5082-.828.7136-.5055.5785-.8126.7652-.6482.3317-.9696.514c-.3213.1823-.8756-.0971-1.1926.0709-.3169.168-.3011,1.0315-.628,1.1809s-.9316-.2705-1.2585-.1211-.5033.6728-.8301.8222-.6625.3274-.9993.4581c-.3367.1308-.702.2528-1.0344.3693-.351.1263-.8186-.0797-1.1509.0368-.3511.1264-.657.3602-.9894.4767-.3653.122-.7735.0279-1.1015.1301-.3796.1176-.6394.5062-.963.5941-.3938.1132-.7294.2912-1.0202.3736-.577.1507-.917.3429-1.0344.3693-.4037.0945-.8942-.0873-1.2794-.2056l-.0384-.0274Zm-.519-25.5584c-.1854-.057-.5894-.3683-1.206-.2923-.339.0364-.5767.5566-1.0298.761-.3268.1494-.7032.2055-1.098.4745-.3159.2153-.7986.1607-1.0717.389-.2917.2383-.2837.7715-.5184,1.0273-.2577.2799-.781.3065-.9816.604-.205.3117-.2334.7089-.3813,1.0381s.0838.7439-.0114,1.1049c-.0953.361-.41.6234-.4296.9921-.0151.3544-.3177.7298-.2758,1.1017s.4875.6493.5809,1.0058-.1092.7626.0029,1.1092.7803.4582.9111.7949c.1307.3368-.1685.8537-.0191,1.1806s.3734.6142.5557.9356.0432.8251.2299,1.1322.936.2562,1.1414.5534.0717.8338.2771,1.131.7166.3606.9406.648.2901.6822.5283.9739.7254.3321.968.6095c.2427.2775-.0509,1.0303.1818,1.2891.2569.2818,1.0851-.0258,1.3365.2231.2613.2675.3789.6471.6303.896.2755.272.4522.3574.6937.5877.305-.0781.6453.3387,1.0435.2112.328-.1023.6527-.346,1.0322-.4636.3467-.1121.7285-.1353,1.0937-.2573.3467-.1121.556-.6411.907-.7675.3368-.1307.8185.0797,1.1739-.061.3554-.1406.5318-.6641.8729-.8091.3412-.145.8274.0511,1.1729-.1082s.568-.528.9135-.6873.9097.1388,1.2453-.0391.3023-.9843.628-1.1809.7756-.1365,1.0871-.3374.8624-.0631,1.164-.2827.6317-.4304.9234-.6687c.2918-.2382.4715-.6201.7533-.877s.7953-.3022,1.0486-.5679.197-.8449.4305-1.1478.5966-.5193.7873-.8354-.0059-.8448.1464-1.1883.106-.7012.187-1.0666.5416-.6455.5754-1.0097-.1024-.734-.1256-1.1158c-.0387-.4334.2759-.8987.1759-1.1324-.2054-.5002-.6521-.8247-.7959-.9157-.2919-.1677-.8011-.3396-1.2181-.4052-.3456-.0437-.7864.4765-1.1967.491-.3632.0134-.7935-.4153-1.1984-.3679-.3763.0561-.6381.7563-1.0231.841-.3851.0847-.8307-.1927-1.2059-.0893s-.7855.1178-1.1508.2398-.8602-.0456-1.2156.0951-.7184.3569-1.0738.4976c-.3741.1505-.4197,1.0107-.751,1.1744-.2939.1439-.7899.1321-1.1201.14-.3302.0078-.7845-.038-1.0896-.1629s-.5182-.5494-.7597-.7797-.7276-.4264-.8529-.7302c-.0956-.2479-.2866-.5408-.4898-.9466-.1582-.2984-.1815-.6802-.3879-1.0246-.1867-.3071-.2802-.6636-.4954-.9795s-.3646-.6427-.6028-.9344-.1673-.8787-.433-1.132c-.2656-.2533-.5851-.5856-.8825-.7862-.326-.2094-.9052.0498-1.2476-.0553l-.0011-.0472Z"/><path d="M27.0904,71.5446c-.3994-.1227-.4547-.8577-.7719-1.0957-.3172-.2379-.641-.3529-.8617-.7017s-.6268-.5515-.7356-.9596c-.1452-.5441-.1825-.5243-.332-1.0542s-.3843-.477-.5338-1.0069.0381-.5815-.0928-1.1213c-.1309-.5397.3617-.6695.2308-1.2092s-.4731-.4419-.6182-.986-.2998-.4979-.435-1.0234c-.1353-.5255-.4216-.4573-.5525-.997-.1309-.5398-.1309-.5398-.2617-1.0795-.1309-.5398.5822-.7267.437-1.2708-.1451-.5441-.2153-.5188-.3604-1.0629s-.3656-.487-.5854-.9916c-.2974-.2006-.7319-.2091-1.0348-.4426-.2745-.2248-.2288-.882-.5131-1.1255-.27-.239-.6925-.3375-.9537-.6051-.2613-.2675-.425-.5988-.6819-.8806s-.4249-.5988-.6774-.8949-.9393-.1948-1.1732-.5008-.4951-.5735-.7147-.8751.1925-1.0337-.0085-1.3452c-.2009-.3114-.6202-.4714-.8211-.7829-.201-.3115-.3087-.6724-.5053-.9981-.1965-.3258-.2341-.712-.412-1.0476s-.3273-.6625-.491-.9938-.5281-.568-.6873-.9135-.697-.5263-.842-.8674c-.1451-.3412.4866-.9746.3646-1.3399s-.3087-.6724-.4208-1.019c-.1121-.3467-.3789-.6471-.4866-1.008-.1078-.361-.2012-.7175-.2947-1.074-.0934-.3566-.3701-.6757-.4449-1.0421s.1937-.7835.1376-1.1598c-.0562-.3763-.1211-.7241-.163-1.096s-.6488-.6831-.6721-1.065c-.0232-.3818.4725-.7759.4635-1.1533s.0863-.7385.0915-1.1115c.0009-.3588-.3668-.7371-.3429-1.12.0239-.383.162-.7309.1958-1.0952s.0676-.7285.1343-1.0983-.2363-.8063-.1696-1.1761.3518-.6881.447-1.0491c.0953-.361.5472-.6125.6567-.9692s-.2616-.8765-.1236-1.2243c.1381-.3479.1807-.7408.333-1.0843s.4143-.6376.5809-.9767c.1666-.3392.9698-.3111,1.1649-.6415s.2432-.6902.4526-1.0162.4681-.5587.6874-.866.252-.7188.4855-1.0218.6515-.3931.8992-.6917.3091-.7013.5668-.9812.613-.4206.8806-.6818.5505-.471.8324-.7279.5165-.5127.8082-.751.321-.7912.6083-1.0152.9063-.0027,1.2079-.2223.1289-1.1313.4546-1.3278c.3258-.1966.7943-.1464,1.12-.343s.8053-.0805,1.1409-.2584c.3357-.178.4703-.6674.806-.8453.3356-.178.5922-.505.9234-.6687s.936.2562,1.2816.0969c.3455-.1593.4724-.7759.8092-.9067.3367-.1307.9185.3133,1.2695.1869.351-.1263.4911-.7858.8422-.9122.351-.1264.7734-.0278,1.1201-.1399s.7185-.1541,1.0751-.24756c.3565-.09346.6349-.49186.9915-.58532.3565-.09346.6591-.46888,1.0256-.54369.3664-.07481.8076.21681,1.174.142s.6778-.47877,1.0541-.53493.778.16085,1.1499.11895.7306-.24398,1.1025-.28588.7638.35946,1.1413.35047.7406.18061,1.1137.18589c.373.00527.7263-.02672,1.0993-.02144s.7286.06761,1.0972.08715.793-.59949,1.1573-.56568c.3642.03381.6478.83897,1.0077.88705s.711.12469,1.0808.19141.7066.13891,1.0764.20563.7111.12471,1.0765.2057.9301-.5886,1.2867-.47908c.3567.10952.6301.49006.9823.61384.3523.12379.5752.56689.9275.69069s.8689-.1859,1.2168-.0478c.3478.138.6508.3715.9943.5239s.3845.883.705,1.0594c.3204.1765.9577-.2211,1.2738-.0303.3161.1907.3417.8699.6578,1.0606s.7593.1707,1.0666.39.55.4967.8431.7116.8613.0928,1.1357.3175.2605.8293.5448,1.0727c.2843.2435.7934.2125,1.0634.4515s.6608.3902.9264.6435.2824.758.525,1.0355.4436.5889.672.862.5499.4967.7695.7983.2023.7646.4077,1.0618c.2053.2972.6245.4572.8255.7687s.6761.4418.8727.7675c.1965.3258.0805.8053.2628,1.1267s.4206.613.5843.9443c.1636.3313.0563.7823.2057,1.1091s.3504.6384.4767.9894c.1264.3511.051.7494.1773,1.1004s.2615.6735.3594,1.0158.2615.6735.3549,1.03c.0935.3566.041.7307.1202,1.0829s.9198.5634.9803.9255c.0606.362-.0621.7614-.0158,1.1191.0462.3576-.2366.7703-.2046,1.1236.032.3532.2956.7152.3232,1.0827.0277.3676-.2563.7331-.2616,1.1061s-.0018.7176-.007,1.0906c-.0053.373.301.7481.2672,1.1124s-.5976.6751-.6457,1.035-.0775.7099-.1256,1.0698c-.0524.3742.0937.7625.0127,1.1279s-.1433.7209-.2243,1.0863-.3617.6695-.4668,1.0119c-.1052.3424.2901.8853.1663,1.2375-.1237.3523-.0994.7813-.2374,1.1291s-.6767.5259-.8246.8552-.5966.5193-.7774.854c-.1809.3348.2507,1.0137.0457,1.3254s-.635.4919-.84.8036-.8139.312-1.0474.615-.4924.5357-.7358.82-.3331.6782-.5908.9582-.6032.4392-.8664.6862-.3803.6794-.6578.922-.3068.7956-.5985,1.0338c-.2917.2383-.6076.4535-.9092.6731s-.725.2769-1.0365.4779c-.3115.2009-.7943.1463-1.1014.333s-.3671.8396-.6885,1.0219-.8788-.0358-1.1958.1323-.4989.6586-.8444.8178-.7767.0894-1.1223.2486c-.3455.1593-.6822.2901-1.0332.4165-.3511.1263-.8131-.0468-1.1498.084-.3368.1307-.5559.6411-.907.7674-.351.1264-.569.6839-.9299.7916s-.8856-.3188-1.2422-.2253-.6295.5248-.986.6183-.8538-.3715-1.2202-.2967-.7119.2341-1.074.2946c-.362.0606-.7119.2341-1.074.2946-.362.0606-.692.4744-1.0496.5207-.3577.0463-.7416.1782-1.0993.2245-.3576.0463-.735.2582-1.1025.2858-.3676.0277-.777-.3166-1.1445-.289-.3818.0233-.7406.0224-1.0994.0215-.2028.2031-.2827.6156-.559.9055-.2259.2272-.5571.3909-.8291.6664-.2303.2415-.8656.1245-1.1145.3759-.2303.2415-.1356.8482-.3845,1.0996-.249.2514-.735.2582-.9839.5096s-.2036.7648-.4526,1.0162c-.2489.2514-.4736.5258-.7083.7816-.2346.2558-.9128.1256-1.1474.3814s-.3431.6595-.5777.9153c-.2391.2701-.353.641-.5734.9011-.2434.2843-.1553.8109-.357,1.0612l-.3513-.2796c-.2204.2602-.2322.7561-.5064.9373s-.8362-.2255-1.1499-.1189-.4778.946-.8124.9681c-.3347.0221-.7265-.1762-1.0633-.2485-.0999-.0306-.214-.0657-.3139-.0963l-.0932.0494Zm2.1443-3.1194l.3338.3367c.035-.1142-.348-.3411-.3338-.3367ZM48.0936,14.5357c-.3567-.1095-.5436-.8226-.9046-.9178s-.7703-.0336-1.1357-.1145-.7755.1364-1.1453.0697-.7286-.0676-1.1072-.1058-.7558.1738-1.1245.1542c-.3686-.0195-.7275-.2234-1.0962-.2429-.3686-.0196-.7398-.5394-1.1128-.5447-.3731-.0053-.7371.3668-1.1003.3802s-.7218.2155-1.0894.2431c-.3675.0277-.6855.3515-1.0618.4076s-.7153.0926-1.0773.1532c-.3621.0605-.8638-.5931-1.2302-.5183s-.7164.2484-1.0729.3418c-.3565.0935-.635.4919-.9959.5996s-.6218.4491-.9828.5569-.8702-.2673-1.2212-.1409-.6119.4677-.9531.6127c-.3411.1451-.7273.1826-1.0728.3418s-.712.2342-1.0432.3978c-.3313.1637-.3715.8538-.6885,1.0219-.317.168-.5999.3777-.9169.5458s-1.0216-.2825-1.3145-.0915-.4714.6202-.7642.8113-.6527.3459-.9356.5557c-.283.2097-.6768.3229-.9499.5513s-.579.4622-.8378.695-.376.6651-.6392.9121-.2025.812-.4371,1.0678-1.095.0072-1.3198.2816-.41.6234-.6205.9022-.2904.6914-.4767.9932c-.1864.3018-.3815.6322-.5536.9384s-.1476.7352-.3098,1.0601-.6153.5292-.749.8628c-.1336.3336-.2432.6902-.3626,1.0282s.3363.837.241,1.198c-.0952.361-.6799.5873-.7423.9429-.0623.3555-.219.7132-.2671,1.0731s.2967.7624.2815,1.1168c-.0151.3544-.1389.7067-.1442,1.0797-.0009.3588.0125.722.0259,1.0851.0133.3632.4129.6888.4449,1.0421s-.1148.7297-.0685,1.0873-.2366.7704-.1761,1.1324.6609.5932.7401.9454.2658.6592.3637,1.0015c.0978.3422.0926.7153.2091,1.0476s-.4406.9263-.3241,1.2587.3975.6372.5327.9597c.1351.3225.2056.7032.355,1.0301.1493.3268.5137.5637.6818.8806.168.317.1079.7669.276,1.0839s.5741.5197.7465.8224c.1724.3028.2527.7021.4581.9993s.3832.6329.5929.9158c.2098.283.481.5692.7093.8423.224.2873.7814.3023,1.0141.5611.2426.2775.0927.9183.3441,1.1673.2613.2675,1.107-.0972,1.3671.1232.2843.2434.3471.6998.6303.896.3074.2193.4371.7118.7334.8653s.767.095.9712.345.561.5626.6445.9005c.1353.5254-.4747.6816-.3394,1.207.1352.5255.6278.3958.7773.9256s-.4933.6915-.3438,1.2214c.1495.5298.6793.3803.8288.9101s-.0852.5827.0643,1.1126c.1495.5298.065.5507.2003,1.0762.1352.5254.4402.4474.5711.9871s.4215.4573.571.9872c.1495.5298-.2256.6332-.0761,1.163s.2691.3948.5634.8599c.2346-.2558-.0003-.406.253-.6716s.3529-.641.6062-.9067c.2533-.2656.7921-.2407,1.0454-.5063.2533-.2657.6471-.3789.896-.6303s.478-.5401.7313-.8057c.2533-.2657.5407-.4897.7896-.7411.2676-.2612.0521-.9831.301-1.2345.272-.2755,1.0764.0027,1.3023-.2245.2906-.2854.5538-.5325.7753-.7454.4287-.4304.7149-.7015.761-.7498.2215-.213.3223-.3382.6075-.4535.2852-.1154.4307-.9449.7467-.9571.1086.0021.4928.2762,1.1105.2473.316-.0122.7056.2947,1.1346.2703.3346-.0221.6569-.5632,1.0574-.5963.339-.0364.7219-.0125,1.0982-.0687.3576-.0462.81.5142,1.1863.458.362-.0605.6052-.7508.9859-.8212.3478-.0649.8363.4285,1.2027.3537s.6603-.4217,1.0311-.5107c.3707-.0891.7438-.0839,1.1047-.1916s.5801-.618.941-.7257.8504.2299,1.2014.1035.5757-.6037.9267-.7301c.3511-.1264.6175-.4348.9586-.5799s.8076.0138,1.1531-.1454.7064-.2671,1.0234-.4351.6032-.4392.9246-.6215.8041-.1277,1.1156-.3287c.3115-.2009.4857-.6158.7873-.8354s.3891-.7079.6765-.9319c.2873-.2239.7832-.2122,1.0607-.4548.2774-.2426.4868-.5686.7544-.8299.2675-.2612.7283-.3383.9717-.6226s.4385-.6147.6677-.9034.6306-.4776.8356-.7893.3902-.6607.5809-.9768c.1908-.3161.3091-.7013.4756-1.0404.1666-.3391.4572-.6245.5996-.9867s-.4525-.9663-.3287-1.3186c.1237-.3522.3957-.6278.5096-.9987s.5087-.6399.5897-1.0053-.0893-.7768-.0368-1.151c.0524-.3741.389-.7079.4229-1.0721.0338-.3643.0719-.7428.0959-1.1258.0239-.3829-.2967-.7624-.2958-1.1211.0009-.3588.5295-.7585.5206-1.1359-.009-.3774-.0608-.768-.0885-1.1355-.0276-.3676-.2911-.7295-.3517-1.0915s-.1309-.7427-.2101-1.0949.005-.779-.0884-1.1355-.7311-.5679-.8388-.9288-.3975-.6373-.5239-.9883.1169-.8383-.0281-1.1794-.0334-.8065-.197-1.1377c-.1637-.3313-.9569-.3407-1.1393-.6621-.1823-.3213-.1222-.7712-.3231-1.0827-.201-.3115.0071-.8876-.2081-1.2035s-.3931-.6515-.6171-.9388c-.224-.2874-.6202-.4715-.8628-.7489s-.3932-.6515-.6501-.9333-.6793-.3804-.9592-.6381c-.28-.2576-.8077-.2168-1.0733-.4701s-.5357-.4923-.8244-.7215-.4491-.6218-.7422-.8367c-.3029-.2335-.4371-.7118-.763-.9212s-.9293.0269-1.2597-.1682-.4294-.7876-.7828-.9585-.8459-.0412-1.1851-.2078-.5982-.5428-.9417-.6951-.7057-.2948-1.0722-.4229-.8294.0575-1.1861-.052l.0033-.0615Z"/></g></svg>
