<svg width="77" height="81" viewBox="0 0 77 81" fill="none" xmlns="http://www.w3.org/2000/svg">
<path d="M34.9875 51.318C34.6879 51.226 34.4869 50.9145 34.2367 50.7128C34.1598 50.6579 33.5762 50.7285 33.1371 50.3283C32.9054 50.1166 32.7319 49.7667 32.4278 49.486C32.1863 49.2558 32.1652 48.7654 31.8897 48.4934C31.6526 48.2489 31.1193 48.2569 30.858 47.9893C30.6209 47.7448 30.6601 47.2104 30.4032 46.9286C30.1705 46.6698 29.7985 46.5087 29.5558 46.2313C29.3132 45.9538 28.826 45.9135 28.5878 45.6217C28.3495 45.33 28.3482 44.8769 28.1242 44.5895C27.9002 44.3022 27.9361 43.8293 27.7165 43.5277C27.4969 43.2261 26.9626 43.1869 26.7616 42.8754C26.5607 42.564 26.5922 42.1053 26.4012 41.8125C26.2101 41.5197 25.5156 41.4937 25.3289 41.1866C25.1422 40.8795 25.3975 40.3023 25.2152 39.9809C25.0329 39.6595 24.8275 39.3623 24.6781 39.0354C24.5287 38.7085 24.7249 38.2224 24.5755 37.8955C24.4261 37.5686 23.692 37.4681 23.5656 37.1171C23.4393 36.766 23.7254 36.2919 23.6275 35.9496C23.5297 35.6074 23.0841 35.33 23.0049 34.9779C22.9257 34.6257 23.0527 34.212 23.0065 33.8544C22.9602 33.4967 22.5836 33.1469 22.5703 32.7838C22.5569 32.4206 23.2797 32.0494 23.2949 31.695C23.3144 31.3263 22.5297 30.8824 22.592 30.5269C22.6544 30.1714 22.9055 29.8113 22.9821 29.4602C23.0587 29.1091 23.0913 28.6976 23.2107 28.3596C23.3301 28.0216 23.9785 27.8929 24.1451 27.5538C24.3117 27.2147 24.3455 26.8504 24.5362 26.5343C24.727 26.2182 25 25.9898 25.2292 25.7011C25.4583 25.4124 25.3604 24.8672 25.6181 24.5873C25.8757 24.3074 26.3717 24.3192 26.6535 24.0623C26.9353 23.8054 26.9317 23.2579 27.2191 23.0339C27.5064 22.8099 28.0177 22.8733 28.3292 22.6723C28.6637 22.4472 28.8709 22.0268 29.1922 21.8445C29.5509 21.6425 30.1106 21.9548 30.4517 21.8098C30.8258 21.6593 30.9526 20.8396 31.2949 20.7418C31.6887 20.6286 32.1463 20.816 32.5083 20.7554C32.9033 20.6894 33.3095 21.0951 33.6727 21.0817C34.0786 21.0815 34.41 21.1208 34.7655 21.1831C35.1682 21.2444 35.5576 21.1454 35.8857 21.2461L35.7893 21.56C36.1317 21.6651 36.588 21.3993 36.903 21.5429C37.2179 21.6865 37.4474 22.0067 37.7493 22.1931C38.0511 22.3794 38.5766 22.2442 38.8554 22.4547C39.1342 22.6652 39.5292 22.8021 39.7993 23.0411C40.0693 23.2802 40.04 23.8332 40.287 24.0963C40.534 24.3595 40.8644 24.5546 41.0785 24.8233C41.2925 25.092 41.1689 25.6472 41.3786 25.9302C41.5982 26.2318 41.7936 26.5104 41.9704 26.7988C42.1714 27.1103 42.5228 27.5929 42.6996 27.8814C43.0364 27.7506 43.4507 27.1129 43.8347 26.981C44.1857 26.8546 44.6939 27.1824 45.0734 27.0648C45.4343 26.9571 45.6292 26.2208 46 26.1317C46.3708 26.0426 46.835 26.3101 47.2157 26.2396C47.5964 26.1692 47.9794 26.1931 48.36 26.1227C48.7407 26.0523 49.1392 26.3307 49.5253 26.2932C49.9115 26.2557 50.2681 26.1622 50.6455 26.1532C51.0229 26.1443 51.4537 25.4023 51.8322 25.4405C52.2108 25.4787 52.6212 25.6672 52.9866 25.7482C53.352 25.8292 53.7931 25.9178 54.1454 26.0416C54.4977 26.1653 54.7809 26.5646 55.13 26.7498C55.4219 26.9175 55.9452 26.8909 56.258 27.143C56.5182 27.3634 56.8837 27.6474 57.1362 27.9435C57.3646 28.2166 57.479 28.6576 57.6756 28.9833C57.848 29.286 57.9239 29.6997 58.0602 30.0693C58.1766 30.4017 58.2098 30.8021 58.2989 31.1729C58.3638 31.5207 57.9723 31.9313 58.0099 32.3174C58.0375 32.685 57.9839 33.012 57.983 33.3707C57.9821 33.7295 58.7471 34.1362 58.7133 34.5004C58.6795 34.8647 58.6654 35.2663 58.6031 35.6218C58.5407 35.9773 58.3325 36.3505 58.2273 36.6929C58.1222 37.0352 57.2939 37.1399 57.1602 37.4735C57.0266 37.8072 57.6425 38.4958 57.4803 38.8207C57.3181 39.1455 56.831 39.3082 56.6403 39.6243C56.4495 39.9404 56.5563 40.4571 56.337 40.7644C56.1177 41.0717 55.4363 41.003 55.2116 41.2774C54.9868 41.5519 54.975 42.0478 54.7217 42.3135C54.4684 42.5791 54.1185 42.7527 53.8553 42.9997C53.5921 43.2467 53.3586 43.5496 53.0856 43.778C52.8125 44.0063 52.4966 44.2216 52.2093 44.4456C51.922 44.6696 51.415 44.5919 51.1178 44.7973C50.8206 45.0026 50.587 45.3055 50.2898 45.5109C49.9926 45.7162 49.7843 46.0894 49.4772 46.2761C49.1701 46.4628 48.829 46.6078 48.5076 46.7901C48.1863 46.9724 47.632 46.693 47.315 46.861C46.9981 47.029 47.0139 47.8925 46.687 48.0419C46.3601 48.1913 45.7554 47.7714 45.4285 47.9208C45.1016 48.0702 44.9252 48.5936 44.5984 48.743C44.2715 48.8924 43.9359 49.0704 43.5991 49.2011C43.2624 49.3319 42.8971 49.4539 42.5647 49.5704C42.2137 49.6967 41.7461 49.4907 41.4138 49.6072C41.0627 49.7336 40.7568 49.9674 40.4244 50.0839C40.0591 50.2059 39.6509 50.1118 39.3229 50.214C38.9433 50.3316 38.6835 50.7202 38.3599 50.8081C37.9661 50.9213 37.6305 51.0993 37.3397 51.1817C36.7627 51.3324 36.4227 51.5246 36.3053 51.551C35.9016 51.6455 35.4111 51.4637 35.0259 51.3454L34.9875 51.318ZM34.4685 25.7596C34.2831 25.7026 33.8791 25.3913 33.2625 25.4673C32.9235 25.5037 32.6858 26.0239 32.2327 26.2283C31.9059 26.3777 31.5295 26.4338 31.1347 26.7028C30.8188 26.9181 30.3361 26.8635 30.063 27.0918C29.7713 27.3301 29.7793 27.8633 29.5446 28.1191C29.2869 28.399 28.7636 28.4256 28.563 28.7231C28.358 29.0348 28.3296 29.432 28.1817 29.7612C28.0338 30.0905 28.2655 30.5051 28.1703 30.8661C28.075 31.2271 27.7603 31.4895 27.7407 31.8582C27.7256 32.2126 27.423 32.588 27.4649 32.9599C27.5068 33.3318 27.9524 33.6092 28.0458 33.9657C28.1393 34.3222 27.9366 34.7283 28.0487 35.0749C28.1608 35.4216 28.829 35.5331 28.9598 35.8698C29.0905 36.2066 28.7913 36.7235 28.9407 37.0504C29.0901 37.3773 29.3141 37.6646 29.4964 37.986C29.6787 38.3074 29.5396 38.8111 29.7263 39.1182C29.913 39.4253 30.6623 39.3744 30.8677 39.6716C31.073 39.9688 30.9394 40.5054 31.1448 40.8026C31.3501 41.0998 31.8614 41.1632 32.0854 41.4506C32.3094 41.7379 32.3755 42.1328 32.6137 42.4245C32.852 42.7162 33.3391 42.7566 33.5817 43.034C33.8244 43.3115 33.5308 44.0643 33.7635 44.3231C34.0204 44.6049 34.8486 44.2973 35.1 44.5462C35.3613 44.8137 35.4789 45.1933 35.7303 45.4422C36.0058 45.7142 36.1825 45.7996 36.424 46.0299C36.729 45.9518 37.0693 46.3686 37.4675 46.2411C37.7955 46.1388 38.1202 45.8951 38.4997 45.7775C38.8464 45.6654 39.2282 45.6422 39.5934 45.5202C39.9401 45.4081 40.1494 44.8791 40.5004 44.7527C40.8372 44.622 41.3189 44.8324 41.6743 44.6917C42.0297 44.5511 42.2061 44.0276 42.5472 43.8826C42.8884 43.7376 43.3746 43.9337 43.7201 43.7744C44.0656 43.6151 44.2881 43.2464 44.6336 43.0871C44.9791 42.9278 45.5433 43.2259 45.8789 43.048C46.2145 42.8701 46.1812 42.0637 46.5069 41.8671C46.8327 41.6705 47.2825 41.7306 47.594 41.5297C47.9055 41.3287 48.4564 41.4666 48.758 41.247C49.0596 41.0274 49.3897 40.8166 49.6814 40.5783C49.9732 40.3401 50.1529 39.9582 50.4347 39.7013C50.7165 39.4444 51.23 39.3991 51.4833 39.1334C51.7366 38.8678 51.6803 38.2885 51.9138 37.9856C52.1473 37.6826 52.5104 37.4663 52.7011 37.1502C52.8918 36.8341 52.6952 36.3054 52.8475 35.9619C52.9998 35.6184 52.9535 35.2607 53.0345 34.8953C53.1155 34.5299 53.5761 34.2498 53.6099 33.8856C53.6438 33.5213 53.5075 33.1516 53.4843 32.7698C53.4456 32.3364 53.7602 31.8711 53.6602 31.6374C53.4548 31.1372 53.0081 30.8127 52.8643 30.7217C52.5724 30.554 52.0632 30.3821 51.6462 30.3165C51.3006 30.2728 50.8598 30.793 50.4495 30.8075C50.0863 30.8209 49.656 30.3922 49.2511 30.4396C48.8748 30.4957 48.613 31.1959 48.228 31.2806C47.8429 31.3653 47.3973 31.0879 47.0221 31.1913C46.6469 31.2946 46.2366 31.3091 45.8713 31.4311C45.506 31.5531 45.0111 31.3855 44.6557 31.5262C44.3003 31.6668 43.9373 31.8831 43.5819 32.0238C43.2078 32.1743 43.1622 33.0345 42.8309 33.1982C42.537 33.3421 42.041 33.3303 41.7108 33.3382C41.3806 33.346 40.9263 33.3002 40.6212 33.1753C40.3161 33.0504 40.103 32.6259 39.8615 32.3956C39.62 32.1653 39.1339 31.9692 39.0086 31.6654C38.913 31.4175 38.722 31.1246 38.5188 30.7188C38.3606 30.4204 38.3373 30.0386 38.1309 29.6942C37.9442 29.3871 37.8507 29.0306 37.6355 28.7147C37.4203 28.3989 37.2709 28.072 37.0327 27.7803C36.7944 27.4886 36.8654 26.9016 36.5997 26.6483C36.3341 26.395 36.0146 26.0627 35.7172 25.8621C35.3912 25.6527 34.812 25.9119 34.4696 25.8068L34.4685 25.7596Z" fill="black"/>
<path d="M27.0904 71.5446C26.691 71.4219 26.6357 70.6869 26.3185 70.4489C26.0013 70.211 25.6775 70.096 25.4568 69.7472C25.2361 69.3984 24.83 69.1957 24.7212 68.7876C24.576 68.2435 24.5387 68.2633 24.3892 67.7334C24.2397 67.2036 24.0049 67.2564 23.8554 66.7265C23.7059 66.1966 23.8935 66.145 23.7626 65.6052C23.6317 65.0655 24.1243 64.9357 23.9934 64.396C23.8626 63.8563 23.5203 63.9541 23.3752 63.41C23.2301 62.8659 23.0754 62.9121 22.9402 62.3866C22.8049 61.8611 22.5186 61.9293 22.3877 61.3896C22.2568 60.8498 22.2568 60.8498 22.126 60.3101C21.9951 59.7703 22.7082 59.5834 22.563 59.0393C22.4179 58.4952 22.3477 58.5205 22.2026 57.9764C22.0574 57.4322 21.837 57.4894 21.6172 56.9848C21.3198 56.7842 20.8853 56.7757 20.5824 56.5422C20.3079 56.3174 20.3536 55.6602 20.0693 55.4167C19.7993 55.1777 19.3768 55.0792 19.1156 54.8116C18.8543 54.5441 18.6906 54.2128 18.4337 53.931C18.1768 53.6492 18.0088 53.3322 17.7563 53.0361C17.5038 52.74 16.817 52.8413 16.5831 52.5353C16.3492 52.2293 16.088 51.9618 15.8684 51.6602C15.6488 51.3586 16.0609 50.6265 15.8599 50.315C15.659 50.0036 15.2397 49.8436 15.0388 49.5321C14.8378 49.2206 14.7301 48.8597 14.5335 48.534C14.337 48.2082 14.2994 47.822 14.1215 47.4864C13.9436 47.1508 13.7942 46.8239 13.6305 46.4926C13.4668 46.1614 13.1024 45.9246 12.9432 45.5791C12.7839 45.2336 12.2462 45.0528 12.1012 44.7117C11.9561 44.3705 12.5878 43.7371 12.4658 43.3718C12.3438 43.0065 12.1571 42.6994 12.045 42.3528C11.9329 42.0061 11.6661 41.7057 11.5584 41.3448C11.4506 40.9838 11.3572 40.6273 11.2637 40.2708C11.1703 39.9142 10.8936 39.5951 10.8188 39.2287C10.744 38.8623 11.0125 38.4452 10.9564 38.0689C10.9002 37.6926 10.8353 37.3448 10.7934 36.9729C10.7515 36.601 10.1446 36.2898 10.1213 35.9079C10.0981 35.5261 10.5938 35.132 10.5848 34.7546C10.5758 34.3772 10.6711 34.0161 10.6763 33.6431C10.6772 33.2843 10.3095 32.906 10.3334 32.5231C10.3573 32.1401 10.4954 31.7922 10.5292 31.4279C10.563 31.0637 10.5968 30.6994 10.6635 30.3296C10.7302 29.9598 10.4272 29.5233 10.4939 29.1535C10.5606 28.7838 10.8457 28.4654 10.9409 28.1044C11.0362 27.7434 11.4881 27.4919 11.5976 27.1352C11.7071 26.7786 11.336 26.2587 11.474 25.9109C11.6121 25.563 11.6547 25.1701 11.807 24.8266C11.9593 24.4831 12.2213 24.189 12.3879 23.8499C12.5545 23.5107 13.3577 23.5388 13.5528 23.2084C13.7479 22.8781 13.796 22.5182 14.0054 22.1922C14.2147 21.8662 14.4735 21.6335 14.6928 21.3262C14.9121 21.0188 14.9448 20.6074 15.1783 20.3044C15.4118 20.0015 15.8298 19.9113 16.0775 19.6127C16.3253 19.3141 16.3866 18.9114 16.6443 18.6315C16.9019 18.3516 17.2573 18.2109 17.5249 17.9497C17.7925 17.6884 18.0754 17.4787 18.3573 17.2218C18.6391 16.9649 18.8738 16.7091 19.1655 16.4708C19.4572 16.2326 19.4865 15.6796 19.7738 15.4556C20.0612 15.2316 20.6801 15.4529 20.9817 15.2333C21.2833 15.0137 21.1106 14.102 21.4363 13.9055C21.7621 13.7089 22.2306 13.7591 22.5563 13.5625C22.8821 13.3659 23.3616 13.482 23.6972 13.3041C24.0329 13.1261 24.1675 12.6367 24.5032 12.4588C24.8388 12.2808 25.0954 11.9538 25.4266 11.7901C25.7579 11.6264 26.3626 12.0463 26.7082 11.887C27.0537 11.7277 27.1806 11.1111 27.5174 10.9803C27.8541 10.8496 28.4359 11.2936 28.7869 11.1672C29.1379 11.0409 29.278 10.3814 29.6291 10.255C29.9801 10.1286 30.4025 10.2272 30.7492 10.1151C31.0958 10.0029 31.4677 9.961 31.8243 9.86754C32.1808 9.77408 32.4592 9.37568 32.8158 9.28222C33.1723 9.18876 33.4749 8.81334 33.8414 8.73853C34.2078 8.66372 34.649 8.95534 35.0154 8.88053C35.3818 8.80572 35.6932 8.40176 36.0695 8.3456C36.4458 8.28943 36.8475 8.50645 37.2194 8.46455C37.5913 8.42265 37.95 8.22057 38.3219 8.17867C38.6938 8.13677 39.0857 8.53813 39.4632 8.52914C39.8406 8.52015 40.2038 8.70975 40.5769 8.71503C40.9499 8.7203 41.3032 8.68831 41.6762 8.69359C42.0493 8.69886 42.4048 8.7612 42.7734 8.78074C43.1421 8.80029 43.5664 8.18125 43.9307 8.21506C44.2949 8.24887 44.5785 9.05403 44.9384 9.10211C45.2983 9.15018 45.6494 9.2268 46.0192 9.29352C46.389 9.36024 46.7258 9.43243 47.0956 9.49915C47.4654 9.56588 47.8067 9.62386 48.1721 9.70485C48.5375 9.78583 49.1022 9.11625 49.4588 9.22577C49.8155 9.33529 50.0889 9.71583 50.4411 9.83961C50.7934 9.9634 51.0163 10.4065 51.3686 10.5303C51.7209 10.6541 52.2375 10.3444 52.5854 10.4825C52.9332 10.6205 53.2362 10.854 53.5797 11.0064C53.9232 11.1587 53.9642 11.8894 54.2847 12.0658C54.6051 12.2423 55.2424 11.8447 55.5585 12.0355C55.8746 12.2262 55.9002 12.9054 56.2163 13.0961C56.5324 13.2868 56.9756 13.2668 57.2829 13.4861C57.5902 13.7054 57.8329 13.9828 58.126 14.1977C58.419 14.4126 58.9873 14.2905 59.2617 14.5152C59.5361 14.74 59.5222 15.3445 59.8065 15.5879C60.0908 15.8314 60.5999 15.8004 60.8699 16.0394C61.14 16.2785 61.5307 16.4296 61.7963 16.6829C62.062 16.9362 62.0787 17.4409 62.3213 17.7184C62.5639 17.9958 62.7649 18.3073 62.9933 18.5804C63.2216 18.8534 63.5432 19.0771 63.7628 19.3787C63.9824 19.6803 63.9651 20.1433 64.1705 20.4405C64.3758 20.7377 64.795 20.8977 64.996 21.2092C65.197 21.5207 65.6721 21.651 65.8687 21.9767C66.0652 22.3025 65.9492 22.782 66.1315 23.1034C66.3138 23.4247 66.5521 23.7164 66.7158 24.0477C66.8794 24.379 66.7721 24.83 66.9215 25.1568C67.0709 25.4837 67.2719 25.7952 67.3982 26.1462C67.5246 26.4973 67.4492 26.8956 67.5755 27.2466C67.7019 27.5976 67.837 27.9201 67.9349 28.2624C68.0327 28.6047 68.1964 28.9359 68.2898 29.2924C68.3833 29.649 68.3308 30.0231 68.41 30.3753C68.4892 30.7274 69.3298 30.9387 69.3903 31.3008C69.4509 31.6628 69.3282 32.0622 69.3745 32.4199C69.4207 32.7775 69.1379 33.1902 69.1699 33.5435C69.2019 33.8967 69.4655 34.2587 69.4931 34.6262C69.5208 34.9938 69.2368 35.3593 69.2315 35.7323C69.2262 36.1054 69.2297 36.4499 69.2245 36.8229C69.2192 37.1959 69.5255 37.571 69.4917 37.9353C69.4579 38.2996 68.8941 38.6104 68.846 38.9703C68.7979 39.3302 68.7685 39.6802 68.7204 40.0401C68.668 40.4143 68.8141 40.8026 68.7331 41.168C68.6521 41.5334 68.5898 41.8889 68.5088 42.2543C68.4278 42.6197 68.1471 42.9238 68.042 43.2662C67.9368 43.6086 68.3321 44.1515 68.2083 44.5037C68.0846 44.856 68.1089 45.285 67.9709 45.6328C67.8329 45.9807 67.2942 46.1587 67.1463 46.488C66.9983 46.8172 66.5497 47.0073 66.3689 47.342C66.188 47.6768 66.6196 48.3557 66.4146 48.6674C66.2096 48.9791 65.7796 49.1593 65.5746 49.471C65.3696 49.7827 64.7607 49.783 64.5272 50.086C64.2937 50.3889 64.0348 50.6217 63.7914 50.906C63.548 51.1903 63.4583 51.5842 63.2006 51.8642C62.9429 52.1441 62.5974 52.3034 62.3342 52.5504C62.071 52.7974 61.9539 53.2298 61.6764 53.4724C61.399 53.715 61.3696 54.268 61.0779 54.5062C60.7862 54.7445 60.4703 54.9597 60.1687 55.1793C59.8671 55.3989 59.4437 55.4562 59.1322 55.6572C58.8207 55.8581 58.3379 55.8035 58.0308 55.9902C57.7237 56.1769 57.6637 56.8298 57.3423 57.0121C57.021 57.1944 56.4635 56.9763 56.1465 57.1444C55.8295 57.3124 55.6476 57.803 55.3021 57.9622C54.9566 58.1215 54.5254 58.0516 54.1798 58.2108C53.8343 58.3701 53.4976 58.5009 53.1466 58.6273C52.7955 58.7536 52.3335 58.5805 51.9968 58.7113C51.66 58.842 51.4409 59.3524 51.0898 59.4787C50.7388 59.6051 50.5208 60.1626 50.1599 60.2703C49.799 60.378 49.2743 59.9515 48.9177 60.045C48.5612 60.1385 48.2882 60.5698 47.9317 60.6633C47.5752 60.7567 47.0779 60.2918 46.7115 60.3666C46.3451 60.4414 45.9996 60.6007 45.6375 60.6612C45.2755 60.7218 44.9256 60.8953 44.5635 60.9558C44.2015 61.0164 43.8715 61.4302 43.5139 61.4765C43.1562 61.5228 42.7723 61.6547 42.4146 61.701C42.057 61.7473 41.6796 61.9592 41.3121 61.9868C40.9445 62.0145 40.5351 61.6702 40.1676 61.6978C39.7858 61.7211 39.427 61.7202 39.0682 61.7193C38.8654 61.9224 38.7855 62.3349 38.5092 62.6248C38.2833 62.852 37.9521 63.0157 37.6801 63.2912C37.4498 63.5327 36.8145 63.4157 36.5656 63.6671C36.3353 63.9086 36.43 64.5153 36.1811 64.7667C35.9321 65.0181 35.4461 65.0249 35.1972 65.2763C34.9483 65.5277 34.9936 66.0411 34.7446 66.2925C34.4957 66.5439 34.271 66.8183 34.0363 67.0741C33.8017 67.3299 33.1235 67.1997 32.8889 67.4555C32.6542 67.7113 32.5458 68.115 32.3112 68.3708C32.0721 68.6409 31.9582 69.0118 31.7378 69.2719C31.4944 69.5562 31.5825 70.0828 31.3808 70.3331L31.0295 70.0535C30.8091 70.3137 30.7973 70.8096 30.5231 70.9908C30.2489 71.172 29.6869 70.7653 29.3732 70.8719C29.0595 70.9785 28.8954 71.8179 28.5608 71.84C28.2261 71.8621 27.8343 71.6638 27.4975 71.5915C27.3976 71.5609 27.2835 71.5258 27.1836 71.4952L27.0904 71.5446ZM29.2347 68.4252L29.5685 68.7619C29.6035 68.6477 29.2205 68.4208 29.2347 68.4252ZM48.0936 14.5357C47.7369 14.4262 47.55 13.7131 47.189 13.6179C46.828 13.5226 46.4187 13.5843 46.0533 13.5034C45.6879 13.4224 45.2778 13.6398 44.908 13.5731C44.5382 13.5064 44.1794 13.5055 43.8008 13.4673C43.4223 13.4291 43.045 13.6411 42.6763 13.6215C42.3077 13.602 41.9488 13.3981 41.5801 13.3786C41.2115 13.359 40.8403 12.8392 40.4673 12.8339C40.0942 12.8286 39.7302 13.2007 39.367 13.2141C39.0038 13.2275 38.6452 13.4296 38.2776 13.4572C37.9101 13.4849 37.5921 13.8087 37.2158 13.8648C36.8395 13.921 36.5005 13.9574 36.1385 14.018C35.7764 14.0785 35.2747 13.4249 34.9083 13.4997C34.5419 13.5745 34.1919 13.7481 33.8354 13.8415C33.4789 13.935 33.2004 14.3334 32.8395 14.4411C32.4786 14.5488 32.2177 14.8902 31.8567 14.998C31.4958 15.1057 30.9865 14.7307 30.6355 14.8571C30.2845 14.9835 30.0236 15.3248 29.6824 15.4698C29.3413 15.6149 28.9551 15.6524 28.6096 15.8116C28.2641 15.9709 27.8976 16.0458 27.5664 16.2094C27.2351 16.3731 27.1949 17.0632 26.8779 17.2313C26.5609 17.3993 26.278 17.609 25.961 17.7771C25.644 17.9451 24.9394 17.4946 24.6465 17.6856C24.3537 17.8767 24.1751 18.3058 23.8823 18.4969C23.5894 18.688 23.2296 18.8428 22.9467 19.0526C22.6637 19.2623 22.2699 19.3755 21.9968 19.6039C21.7238 19.8323 21.4178 20.0661 21.159 20.2989C20.9002 20.5316 20.783 20.964 20.5198 21.211C20.2566 21.458 20.3173 22.023 20.0827 22.2788C19.848 22.5345 18.9877 22.286 18.7629 22.5604C18.5381 22.8348 18.3529 23.1838 18.1424 23.4626C17.9319 23.7414 17.852 24.154 17.6657 24.4558C17.4793 24.7576 17.2842 25.088 17.1121 25.3942C16.9401 25.7004 16.9645 26.1294 16.8023 26.4543C16.6401 26.7791 16.187 26.9835 16.0533 27.3171C15.9197 27.6507 15.8101 28.0073 15.6907 28.3453C15.5713 28.6833 16.027 29.1823 15.9317 29.5433C15.8365 29.9043 15.2518 30.1306 15.1894 30.4862C15.1271 30.8417 14.9704 31.1994 14.9223 31.5593C14.8743 31.9192 15.219 32.3217 15.2038 32.6761C15.1887 33.0305 15.0649 33.3828 15.0596 33.7558C15.0587 34.1146 15.0721 34.4778 15.0855 34.8409C15.0988 35.2041 15.4984 35.5297 15.5304 35.883C15.5624 36.2363 15.4156 36.6127 15.4619 36.9703C15.5082 37.328 15.2253 37.7407 15.2858 38.1027C15.3464 38.4648 15.9467 38.6959 16.0259 39.0481C16.1051 39.4002 16.2917 39.7073 16.3896 40.0496C16.4874 40.3918 16.4822 40.7649 16.5987 41.0972C16.7152 41.4296 16.1581 42.0235 16.2746 42.3559C16.3911 42.6883 16.6721 42.9931 16.8073 43.3156C16.9424 43.6381 17.0129 44.0188 17.1623 44.3457C17.3116 44.6725 17.676 44.9094 17.8441 45.2263C18.0121 45.5433 17.952 45.9932 18.1201 46.3102C18.2881 46.6272 18.6942 46.8299 18.8666 47.1326C19.039 47.4354 19.1193 47.8347 19.3247 48.1319C19.53 48.4291 19.7079 48.7648 19.9176 49.0477C20.1274 49.3307 20.3986 49.6169 20.6269 49.89C20.8509 50.1773 21.4083 50.1923 21.641 50.4511C21.8836 50.7286 21.7337 51.3694 21.9851 51.6184C22.2464 51.8859 23.0921 51.5212 23.3522 51.7416C23.6365 51.985 23.6993 52.4414 23.9825 52.6376C24.2899 52.8569 24.4196 53.3494 24.7159 53.5029C25.0122 53.6563 25.4829 53.5979 25.6871 53.8479C25.8913 54.098 26.2481 54.4105 26.3316 54.7484C26.4669 55.2738 25.8569 55.43 25.9922 55.9554C26.1274 56.4809 26.62 56.3512 26.7695 56.881C26.919 57.4109 26.2762 57.5725 26.4257 58.1024C26.5752 58.6322 27.105 58.4827 27.2545 59.0125C27.404 59.5424 27.1693 59.5952 27.3188 60.1251C27.4683 60.6549 27.3838 60.6758 27.5191 61.2013C27.6543 61.7267 27.9593 61.6487 28.0902 62.1884C28.221 62.7281 28.5117 62.6457 28.6612 63.1756C28.8107 63.7054 28.4356 63.8088 28.5851 64.3386C28.7346 64.8685 28.8542 64.7334 29.1485 65.1985C29.3831 64.9427 29.1482 64.7925 29.4015 64.5269C29.6548 64.2612 29.7544 63.8859 30.0077 63.6202C30.261 63.3546 30.7998 63.3795 31.0531 63.1139C31.3064 62.8482 31.7002 62.735 31.9491 62.4836C32.198 62.2322 32.4271 61.9435 32.6804 61.6779C32.9337 61.4122 33.2211 61.1882 33.47 60.9368C33.7376 60.6756 33.5221 59.9537 33.771 59.7023C34.043 59.4268 34.8474 59.705 35.0733 59.4778C35.3639 59.1924 35.6271 58.9453 35.8486 58.7324C36.2773 58.302 36.5635 58.0309 36.6096 57.9826C36.8311 57.7696 36.9319 57.6444 37.2171 57.5291C37.5023 57.4137 37.6478 56.5842 37.9638 56.572C38.0724 56.5741 38.4566 56.8482 39.0743 56.8193C39.3903 56.8071 39.7799 57.114 40.2089 57.0896C40.5435 57.0675 40.8658 56.5264 41.2663 56.4933C41.6053 56.4569 41.9882 56.4808 42.3645 56.4246C42.7221 56.3784 43.1745 56.9388 43.5508 56.8826C43.9128 56.8221 44.156 56.1318 44.5367 56.0614C44.8845 55.9965 45.373 56.4899 45.7394 56.4151C46.1058 56.3403 46.3997 55.9934 46.7705 55.9044C47.1412 55.8153 47.5143 55.8205 47.8752 55.7128C48.2361 55.6051 48.4553 55.0948 48.8162 54.9871C49.1771 54.8794 49.6666 55.217 50.0176 55.0906C50.3686 54.9642 50.5933 54.4869 50.9443 54.3605C51.2954 54.2341 51.5618 53.9257 51.9029 53.7806C52.2441 53.6356 52.7105 53.7944 53.056 53.6352C53.4015 53.4759 53.7624 53.3681 54.0794 53.2001C54.3964 53.0321 54.6826 52.7609 55.004 52.5786C55.3253 52.3963 55.8081 52.4509 56.1196 52.2499C56.4311 52.049 56.6053 51.6341 56.9069 51.4145C57.2085 51.1949 57.296 50.7066 57.5834 50.4826C57.8707 50.2587 58.3666 50.2704 58.6441 50.0278C58.9215 49.7852 59.1309 49.4592 59.3985 49.1979C59.666 48.9367 60.1268 48.8596 60.3702 48.5753C60.6136 48.291 60.8087 47.9606 61.0379 47.6719C61.267 47.3833 61.6685 47.1943 61.8735 46.8826C62.0785 46.5709 62.2637 46.2219 62.4544 45.9058C62.6452 45.5897 62.7635 45.2045 62.93 44.8654C63.0966 44.5263 63.3872 44.2409 63.5296 43.8787C63.6721 43.5166 63.0771 42.9124 63.2009 42.5601C63.3246 42.2079 63.5966 41.9323 63.7105 41.5614C63.8244 41.1905 64.2192 40.9215 64.3002 40.5561C64.3812 40.1907 64.2109 39.7793 64.2634 39.4051C64.3158 39.031 64.6524 38.6972 64.6863 38.333C64.7201 37.9687 64.7582 37.5902 64.7822 37.2072C64.8061 36.8243 64.4855 36.4448 64.4864 36.0861C64.4873 35.7273 65.0159 35.3276 65.007 34.9502C64.998 34.5728 64.9462 34.1822 64.9185 33.8147C64.8909 33.4471 64.6274 33.0852 64.5668 32.7232C64.5063 32.3611 64.4359 31.9805 64.3567 31.6283C64.2775 31.2762 64.3617 30.8493 64.2683 30.4928C64.1748 30.1363 63.5372 29.9249 63.4295 29.564C63.3218 29.2031 63.032 28.9267 62.9056 28.5757C62.7792 28.2247 63.0225 27.7374 62.8775 27.3963C62.7325 27.0551 62.8441 26.5898 62.6805 26.2586C62.5168 25.9273 61.7236 25.9179 61.5412 25.5965C61.3589 25.2752 61.419 24.8253 61.2181 24.5138C61.0171 24.2023 61.2252 23.6262 61.01 23.3103C60.7948 22.9945 60.6169 22.6588 60.3929 22.3715C60.1689 22.0841 59.7727 21.9 59.5301 21.6226C59.2875 21.3451 59.1369 20.9711 58.88 20.6893C58.6231 20.4074 58.2007 20.3089 57.9208 20.0512C57.6408 19.7936 57.1131 19.8344 56.8475 19.5811C56.5818 19.3279 56.3118 19.0888 56.0231 18.8596C55.7344 18.6305 55.574 18.2378 55.2809 18.0229C54.978 17.7894 54.8438 17.3111 54.5179 17.1017C54.1919 16.8923 53.5886 17.1286 53.2582 16.9335C52.9279 16.7384 52.8288 16.1459 52.4754 15.975C52.122 15.804 51.6295 15.9338 51.2903 15.7672C50.9512 15.6006 50.6921 15.2244 50.3486 15.0721C50.0051 14.9198 49.6429 14.7773 49.2764 14.6492C48.9099 14.521 48.447 14.7067 48.0903 14.5972L48.0936 14.5357Z" fill="black"/>
</svg>
