<svg width="217" height="248" viewBox="0 0 217 248" fill="none" xmlns="http://www.w3.org/2000/svg">
<path d="M164.78 78.9282C164.142 79.0925 164.543 79.056 164.123 79.7679C163.941 80.0964 163.703 80.4615 163.448 80.8996C163.247 81.2464 162.718 81.4472 162.48 81.867C162.28 82.2321 162.681 82.9622 162.462 83.3638C162.261 83.7289 161.604 83.8749 161.385 84.2765C161.166 84.6781 160.801 84.9518 160.582 85.3534C160.363 85.755 160.582 86.3391 160.381 86.7407C160.181 87.1423 159.688 87.3796 159.487 87.7629C159.286 88.1462 158.939 88.493 158.757 88.8763C158.574 89.2597 158.136 89.57 157.954 89.9715C157.771 90.3731 157.826 90.9025 157.643 91.3041C157.461 91.7056 157.789 92.3628 157.625 92.7461C157.443 93.1659 157.187 93.531 157.041 93.9326C156.858 94.3706 156.019 94.5349 155.891 94.9182C155.727 95.3746 156.147 95.9769 156.055 96.3603C155.927 96.8714 155.891 97.492 155.891 97.857C155.362 98.1856 155.27 97.6928 154.467 97.6197C154.102 97.5832 153.719 97.1452 153.226 97.1087C152.843 97.0721 152.368 97.8023 151.912 97.784C151.51 97.7658 151.127 97.1634 150.67 97.1452C150.269 97.1452 149.831 97.2547 149.393 97.2547C148.973 97.2547 148.553 97.4372 148.115 97.4372C147.677 97.4372 147.257 96.8349 146.837 96.8531C146.417 96.8714 146.016 97.3094 145.578 97.3277C145.14 97.3459 144.756 97.5832 144.337 97.6197C143.917 97.6563 143.515 97.8935 143.095 97.9301C142.675 97.9666 142.256 97.8935 141.818 97.9301C141.379 97.9666 140.85 97.1817 140.43 97.2364C140.01 97.2912 139.7 98.0761 139.28 98.1491C138.86 98.2221 138.313 97.7293 137.911 97.8205C137.51 97.9118 137.145 98.3316 136.743 98.4411C136.342 98.5507 135.94 98.715 135.52 98.8427C135.1 98.9705 134.881 99.5729 134.48 99.7189C134.078 99.8649 133.549 99.6459 133.165 99.8284C132.782 100.011 132.234 99.8832 131.869 100.066C131.504 100.248 131.03 100.358 130.665 100.577C130.3 100.796 130.19 100.978 129.843 101.234C129.204 101.124 129.752 100.997 129.204 100.376C128.967 100.102 128.292 100.102 127.963 99.7189C127.708 99.4268 127.343 99.153 127.032 98.8062C126.758 98.4959 126.904 97.784 126.594 97.4372C126.32 97.1269 125.919 96.8896 125.608 96.561C125.316 96.2507 125.189 95.7761 124.878 95.4476C124.568 95.119 124.258 94.8452 123.966 94.5167C123.674 94.1881 123.053 94.1881 122.743 93.8595C122.432 93.531 122.305 93.0746 121.994 92.7643C121.684 92.454 121.41 92.1255 121.118 91.8151C120.826 91.5048 120.096 91.5961 119.786 91.2858C119.475 90.9755 119.439 90.3914 119.129 90.0811C118.818 89.7708 118.654 89.3144 118.344 89.0224C118.033 88.7303 117.76 88.3653 117.449 88.0549C117.139 87.7446 116.993 87.2518 116.683 86.9597C116.372 86.6677 116.044 86.3391 115.715 86.0471C115.387 85.755 114.656 85.901 114.328 85.6272C113.999 85.3534 113.872 84.7876 113.543 84.5138C113.196 84.2217 112.448 84.459 112.119 84.1852C111.754 83.9114 111.462 83.6011 111.115 83.3638C110.75 83.09 110.805 82.2138 110.458 81.9948C110.057 81.7392 109.326 82.1591 108.961 81.9765C108.542 81.7575 108.286 81.2464 107.921 81.1186C107.3 81.2099 107.757 81.648 107.136 82.1773C106.862 82.4146 106.57 82.6702 106.205 83.017C105.931 83.2908 105.457 83.4003 105.146 83.7471C104.891 84.0392 104.727 84.459 104.453 84.8058C104.197 85.1161 104.179 85.609 103.905 85.9741C103.668 86.3026 103.084 86.3939 102.828 86.7589C102.609 87.0875 102.171 87.3248 101.952 87.7081C101.733 88.0549 101.715 88.5295 101.496 88.9129C101.295 89.2779 100.966 89.57 100.766 89.9533C100.583 90.3184 99.9989 90.5192 99.8164 90.9025C99.6338 91.2858 100.163 91.9794 99.9806 92.381C99.7981 92.7826 99.6156 93.1294 99.4513 93.531C99.287 93.9326 98.4839 94.0603 98.3196 94.4619C98.1553 94.8635 98.7942 95.5206 98.6664 95.9404C98.5386 96.3603 98.3743 96.7253 98.2466 97.1269C98.1188 97.5285 97.6442 97.8205 97.5164 98.2221C97.3887 98.6237 97.626 99.1165 97.5164 99.5364C97.4069 99.9562 97.1879 100.321 97.0966 100.741C97.0053 101.161 96.9323 101.562 96.8593 101.982C96.7863 102.402 97.0236 102.877 96.9323 103.297C96.8411 103.716 95.9831 103.972 95.9101 104.41C95.8371 104.848 96.4577 105.341 96.403 105.761C96.3482 106.181 95.4173 106.473 95.3625 106.893C95.3078 107.312 95.5451 107.769 95.5086 108.207C95.472 108.645 95.4355 109.046 95.399 109.484C95.3625 109.923 95.3625 110.324 95.326 110.762C95.2895 111.2 95.399 111.62 95.3808 112.058C95.3625 112.496 95.326 112.898 95.3078 113.336C95.2895 113.774 95.5085 114.23 95.472 114.65C95.4355 115.07 94.9609 115.49 94.9062 115.91C94.8514 116.33 95.326 116.841 95.2713 117.26C95.2165 117.68 94.4499 118.027 94.3768 118.447C94.3038 118.867 94.7784 119.396 94.7054 119.816C94.6324 120.236 94.7419 120.729 94.6506 121.148C94.5594 121.568 94.3951 121.988 94.2856 122.408C94.1761 122.828 94.0848 123.266 93.9753 123.686C93.8657 124.106 92.8983 124.252 92.7705 124.653C92.6428 125.055 92.7705 125.548 92.6062 125.949C92.442 126.351 92.4967 126.825 92.3325 127.227C92.1682 127.628 92.3507 128.194 92.1864 128.578C92.0221 128.961 91.6206 129.271 91.438 129.655C91.2555 130.038 91.2555 130.549 91.0547 130.932C90.8539 131.316 90.6166 131.699 90.3976 132.064C90.1785 132.429 89.704 132.666 89.4667 133.031C89.2294 133.397 88.6635 133.524 88.4262 133.889C88.1889 134.254 88.1707 134.747 87.9151 135.094C87.6596 135.441 87.2945 135.715 87.039 136.062C86.7834 136.408 86.6009 136.81 86.3453 137.157C86.0898 137.504 85.7247 137.759 85.4692 138.088C85.2136 138.416 84.8485 138.69 84.5747 139.019C84.3009 139.347 83.8994 139.548 83.6073 139.876C83.3152 140.205 83.2787 140.716 82.9867 141.045C82.6946 141.373 82.3296 141.592 82.0375 141.921C81.7455 142.249 81.4169 142.505 81.1066 142.815C80.7963 143.126 80.851 143.746 80.5407 144.057C80.2304 144.367 79.7376 144.476 79.4455 144.787C79.1535 145.097 78.9344 145.48 78.6241 145.791C78.3138 146.101 77.7662 146.137 77.4559 146.448C77.1456 146.758 77.0543 147.269 76.744 147.561C76.4337 147.853 76.0686 148.109 75.7583 148.401C75.448 148.693 75.4115 149.277 75.1012 149.587C74.7909 149.898 74.5718 150.263 74.2615 150.573C73.9512 150.883 73.7139 151.23 73.4036 151.522C73.0933 151.814 72.7465 152.07 72.4362 152.362C72.1259 152.654 71.5783 152.69 71.268 153.001C70.9577 153.311 70.5196 153.457 70.2093 153.749C69.899 154.041 69.4061 154.151 69.0958 154.443C68.7855 154.735 68.8585 155.428 68.5482 155.739C68.2379 156.049 67.7085 156.104 67.38 156.396C67.0514 156.688 66.6498 156.889 66.3395 157.181C66.0292 157.473 66.157 158.221 65.8467 158.532C65.5364 158.842 65.2626 159.152 64.9523 159.462C64.642 159.773 64.2404 159.974 63.9483 160.284C63.6563 160.594 63.6015 161.16 63.2912 161.47C62.9809 161.781 62.2873 161.689 61.977 162C61.6667 162.31 61.0826 162.328 60.7722 162.639C60.4619 162.949 60.7722 163.825 60.4619 164.154C60.1516 164.482 59.8961 164.811 59.604 165.121C59.312 165.431 58.9834 165.723 58.6913 166.034C58.3993 166.344 58.089 166.654 57.7969 166.983C57.5049 167.311 57.0668 167.494 56.7747 167.823C56.4827 168.151 56.2271 168.498 55.9351 168.826C55.643 169.155 55.3145 169.429 55.0224 169.757C54.7304 170.086 54.5843 170.524 54.2923 170.853C54.0002 171.181 53.8542 171.619 53.5621 171.966C53.2701 172.295 52.4852 172.167 52.2114 172.495C51.9376 172.824 51.609 173.134 51.3535 173.463C51.0979 173.791 50.5868 173.956 50.313 174.302C50.0392 174.649 50.24 175.343 49.9844 175.69C49.7289 176.037 49.7654 176.602 49.5281 176.949C49.2908 177.296 49.0353 177.643 48.7797 177.99C48.5242 178.337 47.9036 178.428 47.6663 178.775C47.429 179.121 47.1917 179.505 46.9544 179.852C46.7171 180.198 46.279 180.454 46.06 180.801C45.8409 181.148 46.206 181.896 45.9687 182.261C45.7314 182.626 45.5306 182.991 45.3116 183.356C45.0925 183.721 44.5449 183.904 44.3259 184.269C44.1068 184.634 43.4315 184.762 43.2307 185.127C43.0299 185.492 43.1759 186.076 42.9751 186.459C42.7743 186.843 42.7926 187.335 42.5918 187.719C42.391 188.102 41.7156 188.248 41.5331 188.613C41.3506 188.978 41.6426 189.635 41.4601 190.019C41.2776 190.402 41.022 190.767 40.8395 191.15C40.6569 191.534 40.2006 191.808 40.0363 192.209C39.872 192.611 40.2371 193.231 40.0728 193.633C39.9085 194.034 39.0506 194.144 38.8864 194.527C38.7221 194.911 38.3205 195.239 38.1562 195.623C37.9919 196.006 38.6126 196.736 38.4665 197.138C38.3205 197.539 37.8459 197.831 37.6999 198.233C37.5539 198.634 37.9372 199.237 37.7911 199.638C37.6451 200.04 36.6412 200.149 36.4952 200.551C36.3491 200.953 37.0793 201.646 36.9515 202.066C36.8237 202.486 35.8198 202.614 35.692 203.015C35.5642 203.417 35.8563 203.964 35.7285 204.384C35.6007 204.804 35.7468 205.279 35.6372 205.698C35.5277 206.118 34.9984 206.41 34.8706 206.83C34.7428 207.25 34.6881 207.688 34.5785 208.09C34.469 208.491 34.8889 209.057 34.7793 209.477C34.6698 209.897 34.0309 210.189 33.9397 210.609C33.8484 211.028 33.4468 211.394 33.3556 211.795C33.2643 212.197 33.1 212.635 33.0087 213.036C32.9175 213.438 33.7936 214.077 33.7206 214.497C33.6476 214.916 33.1 215.245 33.027 215.665C32.954 216.085 32.8627 216.504 32.7897 216.924C32.7167 217.344 32.9175 217.819 32.8627 218.22C32.808 218.622 32.0596 218.969 31.9866 219.389C31.9135 219.808 32.6619 220.356 32.6072 220.776C32.5524 221.196 32.4611 221.615 32.4064 222.035C32.3516 222.473 31.95 222.838 31.9135 223.258C31.8588 223.696 31.5667 224.08 31.5302 224.499C31.4937 224.938 31.8405 225.595 31.804 225.996C31.658 225.795 31.1286 225.248 30.8183 224.737C30.6358 224.426 30.6358 223.934 30.4168 223.514C30.2342 223.167 29.8326 222.911 29.6319 222.51C29.4676 222.145 29.6319 221.634 29.4493 221.214C29.285 220.849 29.3033 220.392 29.1573 219.991C29.0112 219.608 28.2081 219.462 28.0621 219.042C27.9343 218.658 28.4271 218.056 28.2994 217.636C28.1716 217.235 27.2772 217.07 27.1676 216.651C27.0581 216.231 27.7883 215.628 27.6787 215.208C27.5692 214.789 26.8573 214.533 26.7661 214.113C26.6748 213.693 26.7296 213.274 26.6565 212.836C26.5835 212.397 26.8938 211.959 26.8391 211.521C26.7843 211.083 26.7296 210.7 26.6748 210.262C26.62 209.824 26.2732 209.459 26.2367 209.039C26.2002 208.619 26.255 208.199 26.2367 207.761C26.2185 207.323 26.1272 206.94 26.1272 206.502C26.1272 206.063 26.0724 205.662 26.0724 205.242C26.0724 204.822 26.2367 204.402 26.255 203.964C26.2732 203.526 26.5288 203.143 26.547 202.705C26.5653 202.267 26.474 201.865 26.5105 201.445C26.547 201.026 26.5653 200.606 26.6018 200.168C26.6383 199.73 26.3827 199.291 26.4375 198.853C26.4923 198.415 26.5288 198.014 26.6018 197.594C26.6748 197.174 27.1676 196.846 27.2589 196.426C27.3502 196.006 27.2589 195.568 27.3684 195.166C27.4779 194.765 27.0216 194.199 27.1311 193.797C27.2407 193.396 27.843 193.104 27.9525 192.702C28.0621 192.3 27.8613 191.789 27.989 191.388C28.1168 190.986 28.0986 190.53 28.2263 190.128C28.3541 189.727 29.1208 189.526 29.2668 189.124C29.4128 188.723 29.5223 188.321 29.6501 187.92C29.7779 187.518 30.0152 187.153 30.143 186.751C30.2707 186.35 29.9604 185.802 30.0882 185.401C30.216 184.999 30.289 184.579 30.4168 184.178C30.5445 183.776 30.7818 183.411 30.9096 182.991C31.0374 182.571 30.581 182.024 30.6906 181.604C30.8001 181.184 31.2929 180.892 31.4024 180.49C31.512 180.089 31.2017 179.578 31.2929 179.176C31.3842 178.775 31.8405 178.446 31.9318 178.026C32.0231 177.606 32.3151 177.223 32.3881 176.803C32.4611 176.383 32.7532 176 32.8262 175.562C32.8992 175.124 32.7897 174.686 32.8262 174.266C32.8627 173.846 32.6984 173.39 32.7532 172.97C32.808 172.55 32.7532 172.112 32.7897 171.692C32.8262 171.272 33.1548 170.853 33.1913 170.433C33.2278 170.013 33.1913 169.575 33.1913 169.155C33.1913 168.735 32.7532 168.297 32.7532 167.877C32.7532 167.457 32.7532 167.038 32.7532 166.6C32.7532 166.161 32.9175 165.742 32.8992 165.322C32.881 164.902 32.5159 164.5 32.4976 164.062C32.4794 163.624 32.9722 163.168 32.9357 162.748C32.8992 162.328 32.5342 161.927 32.4976 161.507C32.4611 161.087 32.5524 160.649 32.4976 160.211C32.4429 159.773 32.3516 159.371 32.2786 158.951C32.2056 158.532 31.9318 158.148 31.8405 157.728C31.7493 157.309 31.585 156.925 31.4937 156.505C31.4024 156.086 31.4572 155.647 31.3477 155.228C31.2382 154.808 31.5485 154.297 31.4389 153.877C31.3294 153.457 31.4389 152.982 31.2929 152.581C31.1469 152.179 30.4168 151.96 30.289 151.559C30.1612 151.157 30.3437 150.628 30.1977 150.226C30.0517 149.825 30.1977 149.295 30.0517 148.912C29.9057 148.529 29.2668 148.31 29.1025 147.908C28.9382 147.506 28.6644 147.178 28.4819 146.776C28.2994 146.375 28.4819 145.827 28.2994 145.444C28.1168 145.06 27.697 144.787 27.4962 144.403C27.2954 144.02 26.8756 143.764 26.6748 143.399C26.474 143.034 26.5105 142.505 26.2915 142.14C26.0724 141.775 25.5978 141.574 25.3605 141.209C25.1233 140.844 25.5248 140.077 25.2875 139.712C25.0502 139.347 24.7034 139.055 24.4479 138.708C24.1741 138.38 23.4074 138.453 23.1154 138.124C22.8233 137.796 23.0971 136.974 22.7868 136.664C22.4765 136.354 21.9289 136.281 21.6186 135.988C21.3083 135.696 20.6329 135.806 20.3043 135.514C19.9758 135.222 20.0488 134.473 19.7202 134.2C19.3917 133.926 18.9536 133.743 18.6068 133.506C18.26 133.269 17.5846 133.506 17.2013 133.287C16.8179 133.068 16.6537 132.502 16.2703 132.32C15.887 132.137 15.4489 132.064 15.0473 131.9C14.6458 131.735 14.1894 131.79 13.7879 131.662C13.3863 131.535 13.1125 130.914 12.6744 130.823C12.2363 130.732 11.8347 130.512 11.3967 130.458C10.9586 130.403 10.484 130.202 10.0459 130.202C9.60782 130.239 9.16973 130.64 8.7499 130.732C8.33008 130.823 7.83724 130.805 7.43566 130.951C7.03408 131.097 6.54124 131.17 6.15792 131.352C5.7746 131.535 5.61031 132.155 5.24525 132.411C4.88018 132.666 4.40559 132.758 4.07703 133.031C3.74846 133.305 3.1826 133.397 2.89055 133.707C2.59849 134.017 2.76278 134.747 2.50723 135.094C2.25168 135.441 2.32469 135.97 2.10565 136.354C1.88661 136.737 1.37552 136.919 1.21123 137.321C1.04695 137.723 0.919177 138.124 0.809656 138.544C0.700136 138.964 0.919178 139.42 0.846164 139.84C0.77315 140.26 0.499351 140.643 0.499351 141.081C0.499351 141.519 -0.0665103 142.012 0.00650348 142.45C0.0795173 142.87 0.773151 143.18 0.882672 143.582C0.992192 143.984 0.973937 144.44 1.10171 144.841C1.22949 145.243 1.06521 145.772 1.21123 146.156C1.35726 146.539 2.28819 146.63 2.47072 147.014C2.65325 147.397 2.17867 148.072 2.37945 148.456C2.58024 148.839 3.32864 148.912 3.52942 149.277C3.73021 149.642 3.16435 150.463 3.36514 150.829C3.56593 151.194 4.13178 151.376 4.35082 151.723C4.56986 152.07 5.24525 152.143 5.48254 152.508C5.71984 152.873 5.57381 153.475 5.82936 153.822C6.0849 154.169 6.34046 154.498 6.596 154.844C6.85155 155.191 7.21662 155.447 7.47217 155.775C7.72772 156.104 8.29357 156.213 8.54912 156.56C8.80467 156.907 8.27532 157.82 8.54912 158.166C8.82292 158.513 9.79036 158.294 10.0459 158.623C10.3015 158.951 9.91813 159.791 10.1554 160.12C10.3927 160.448 10.5753 160.85 10.8308 161.197C11.0864 161.543 12.1268 161.324 12.3641 161.671C12.6014 162.018 12.8204 162.401 13.0577 162.748C13.295 163.095 12.9299 163.843 13.149 164.208C13.368 164.573 13.5506 164.938 13.7696 165.304C13.9886 165.669 14.5363 165.851 14.737 166.216C14.9378 166.581 15.4672 166.819 15.6497 167.184C15.8322 167.549 15.5949 168.151 15.7592 168.534C15.9235 168.918 16.4346 169.192 16.5806 169.575C16.7267 169.976 16.9822 170.36 17.11 170.761C17.2378 171.163 16.8727 171.729 16.964 172.149C17.0552 172.568 17.1465 172.988 17.2195 173.39C17.2925 173.791 17.4568 174.211 17.5116 174.631C17.5663 175.051 17.0917 175.525 17.1282 175.945C17.1647 176.365 17.1648 176.767 17.183 177.187C17.2013 177.606 18.2417 178.026 18.2417 178.446C18.2417 178.866 17.9314 179.304 17.9131 179.724C17.8949 180.144 17.1282 180.509 17.0735 180.928C17.0187 181.348 17.3838 181.805 17.3108 182.225C17.2378 182.644 17.2195 183.064 17.1465 183.484C17.0735 183.904 16.8544 184.287 16.7632 184.707C16.6719 185.127 16.4346 185.492 16.3433 185.912C16.2521 186.332 16.106 186.715 15.9965 187.135C15.887 187.554 16.2338 188.084 16.1243 188.485C16.0148 188.887 16.2703 189.416 16.1608 189.818C16.0513 190.219 15.0291 190.366 14.9196 190.767C14.8101 191.169 15.3394 191.789 15.2116 192.191C15.0839 192.592 14.664 192.903 14.518 193.304C14.372 193.706 14.6823 194.254 14.5545 194.655C14.4267 195.057 13.5506 195.221 13.4228 195.623C13.295 196.024 13.0942 196.407 12.9665 196.827C12.8387 197.247 12.6744 197.63 12.5466 198.032C12.4189 198.434 12.6744 198.963 12.5466 199.365C12.4189 199.766 11.9078 200.076 11.7982 200.478C11.6887 200.88 11.8347 201.372 11.7435 201.792C11.6522 202.212 11.3054 202.577 11.2141 202.979C11.1229 203.38 11.8895 204.001 11.8165 204.402C11.7435 204.804 11.4697 205.187 11.3967 205.607C11.3236 206.027 11.2506 206.447 11.1959 206.867C11.1411 207.286 10.6665 207.67 10.63 208.09C10.5935 208.509 11.1046 208.966 11.0864 209.404C11.0681 209.842 10.63 210.244 10.63 210.663C10.63 211.01 10.2284 211.503 10.2832 212.014C10.3197 212.397 10.8856 212.781 10.9403 213.255C10.9951 213.657 10.9951 214.095 11.0681 214.551C11.1411 214.953 11.1959 215.391 11.2689 215.829C11.3419 216.249 11.6705 216.614 11.7617 217.052C11.853 217.472 12.0355 217.873 12.1268 218.312C12.2181 218.75 12.0538 219.206 12.1633 219.644C12.2728 220.082 12.3093 220.502 12.4189 220.922C12.5284 221.342 12.6561 221.743 12.7657 222.163C12.8752 222.583 12.8204 223.039 12.9482 223.459C13.076 223.879 13.7514 224.116 13.8791 224.536C14.0069 224.956 13.6236 225.522 13.7514 225.942C13.8791 226.361 13.8426 226.818 13.9886 227.238C14.1347 227.657 14.2259 228.077 14.372 228.497C14.518 228.917 14.7735 229.282 14.9378 229.683C15.1021 230.085 15.0656 230.578 15.2299 230.979C15.3942 231.381 15.96 231.637 16.1243 232.038C16.2886 232.44 16.0148 233.042 16.1973 233.444C16.3799 233.845 16.5441 234.265 16.7267 234.648C16.9092 235.032 17.5846 235.214 17.7854 235.598C17.9862 235.981 17.7489 236.602 17.9496 236.985C18.1504 237.368 18.5338 237.678 18.7528 238.062C18.9718 238.445 19.2456 238.792 19.4647 239.175C19.6837 239.559 19.6837 240.07 19.921 240.453C20.1583 240.836 20.998 240.8 21.2535 241.147C21.5091 241.493 21.1805 242.278 21.4543 242.625C21.7281 242.972 22.294 243.1 22.5678 243.428C22.8416 243.757 23.3709 243.885 23.663 244.213C23.955 244.542 24.1558 244.943 24.4844 245.235C24.8129 245.527 25.2693 245.655 25.5978 245.929C25.9264 246.203 25.9447 246.933 26.2915 247.17C26.6383 247.408 27.0946 247.59 27.4597 247.791C27.8248 247.992 28.4089 247.791 28.8104 247.955C29.212 248.119 29.5406 248.448 29.9604 248.558C30.3802 248.667 30.8183 248.612 31.2382 248.667C31.658 248.722 32.0596 249.269 32.5159 249.269C32.8627 249.269 33.2825 248.868 33.7936 248.868C34.177 248.868 34.5968 249.306 35.0714 249.306C35.473 249.306 35.8928 249.269 36.3491 249.269C36.7507 249.269 37.1888 249.251 37.6451 249.251C38.0467 249.251 38.4848 248.941 38.9229 248.941C39.3427 248.941 39.7625 249.142 40.2006 249.142C40.6204 249.142 41.0403 248.631 41.4783 248.631C41.8982 248.631 42.318 248.612 42.7561 248.612C43.1759 248.612 43.5957 248.685 44.0338 248.685C44.4719 248.685 44.8735 248.485 45.3116 248.485C45.7497 248.485 46.1512 249.342 46.5893 249.342C47.0274 249.342 47.429 249.269 47.8671 249.269C48.3051 249.269 48.7067 249.507 49.1448 249.507C49.5829 249.507 49.9845 249.215 50.4225 249.215C50.8606 249.215 51.2622 249.488 51.7003 249.488C52.1384 249.488 52.5582 249.488 52.978 249.488C53.3979 249.488 53.8359 249.215 54.2558 249.215C54.6756 249.215 55.1137 248.521 55.5335 248.521C55.9533 248.521 56.3914 248.959 56.8112 248.959C57.2311 248.959 57.6692 248.959 58.089 248.959C58.5088 248.959 58.9469 249.47 59.3667 249.47C59.7865 249.47 60.2246 248.813 60.6445 248.813C61.0643 248.813 61.5024 249.05 61.9222 249.05C62.342 249.05 62.7801 249.397 63.1999 249.397C63.6198 249.397 64.0579 249.561 64.4777 249.561C64.8975 249.561 65.3356 248.941 65.7554 248.941C66.1753 248.941 66.6133 249.032 67.0332 249.032C67.453 249.032 67.8911 248.576 68.3109 248.576C68.7307 248.576 69.1688 248.503 69.5886 248.503C70.0085 248.503 70.4466 248.977 70.8664 248.977C71.2862 248.977 71.7243 249.543 72.1441 249.543C72.564 249.543 73.0021 248.758 73.4219 248.758C73.8417 248.758 74.2798 249.196 74.7179 249.196C75.156 249.196 75.5758 249.032 76.0139 249.032C76.452 249.032 76.8718 248.667 77.3099 248.667C77.7479 248.667 78.1678 249.05 78.5876 249.05C79.0074 249.05 79.4455 248.868 79.8653 248.868C80.2852 248.868 80.7233 249.415 81.1431 249.415C81.5629 249.415 82.001 249.324 82.4208 249.324C82.8407 249.324 83.2787 248.503 83.6986 248.503C84.1184 248.503 84.5565 248.667 84.9763 248.667C85.3961 248.667 85.8342 249.507 86.2541 249.507C86.6739 249.507 87.112 248.941 87.5318 248.941C87.9516 248.941 88.3897 248.704 88.8095 248.704C89.2294 248.704 89.6674 249.105 90.0873 249.105C90.5071 249.105 90.9452 248.704 91.365 248.704C91.7848 248.704 92.2229 248.996 92.661 248.996C93.0991 248.996 93.5189 249.215 93.957 249.215C94.3951 249.215 94.8149 249.288 95.253 249.288C95.6911 249.288 96.1109 249.361 96.549 249.361C96.9871 249.361 97.4069 249.415 97.8267 249.415C98.2466 249.415 98.6847 249.415 99.1045 249.415C99.5243 249.415 99.9624 248.831 100.4 248.831C100.839 248.831 101.258 248.777 101.696 248.777C102.135 248.777 102.554 249.05 102.992 249.05C103.431 249.05 103.85 249.233 104.288 249.233C104.727 249.233 105.146 249.032 105.584 249.032C106.023 249.032 106.442 249.269 106.88 249.269C107.319 249.269 107.738 249.379 108.176 249.379C108.615 249.379 109.034 248.904 109.472 248.904C109.911 248.904 110.33 248.74 110.768 248.74C111.207 248.74 111.626 248.612 112.064 248.612C112.503 248.612 112.922 249.452 113.36 249.452C113.799 249.452 114.218 249.324 114.656 249.324C115.095 249.324 115.514 248.758 115.952 248.758C116.39 248.758 116.81 249.525 117.248 249.525C117.686 249.525 118.106 248.631 118.544 248.631C118.982 248.631 119.402 248.831 119.84 248.831C120.278 248.831 120.698 248.74 121.136 248.74C121.574 248.74 121.994 249.525 122.432 249.525C122.87 249.525 123.29 249.324 123.728 249.324C124.166 249.324 124.586 249.361 125.024 249.361C125.462 249.361 125.882 248.795 126.32 248.795C126.758 248.795 127.178 248.685 127.616 248.685C128.054 248.685 128.474 249.434 128.912 249.434C129.35 249.434 129.77 248.886 130.208 248.886C130.646 248.886 131.066 248.685 131.504 248.685C131.942 248.685 132.362 249.525 132.8 249.525C133.238 249.525 133.658 249.123 134.096 249.123C134.534 249.123 134.954 249.251 135.392 249.251C135.83 249.251 136.25 249.397 136.688 249.397C137.126 249.397 137.546 248.813 137.984 248.813C138.422 248.813 138.842 249.397 139.28 249.397C139.718 249.397 140.138 249.306 140.576 249.306C141.014 249.306 141.434 249.507 141.872 249.507C142.31 249.507 142.73 249.507 143.168 249.507C143.606 249.507 144.026 249.196 144.464 249.196C144.902 249.196 145.322 248.813 145.76 248.813C146.198 248.813 146.618 249.342 147.056 249.342C147.494 249.342 147.914 248.503 148.352 248.503C148.79 248.503 149.21 248.649 149.648 248.649C150.086 248.649 150.506 248.904 150.944 248.904C151.382 248.904 151.802 249.342 152.24 249.342C152.678 249.342 153.098 249.561 153.536 249.561C153.974 249.561 154.394 248.539 154.832 248.539C155.27 248.539 155.69 249.507 156.128 249.507C156.566 249.507 156.986 249.361 157.424 249.361C157.862 249.361 158.282 248.886 158.72 248.886C159.158 248.886 159.578 248.886 160.016 248.886C160.454 248.886 160.874 249.525 161.312 249.525C161.75 249.525 162.17 248.667 162.608 248.667C163.046 248.667 163.466 249.288 163.904 249.288C164.342 249.288 164.762 249.288 165.2 249.288C165.638 249.288 166.058 249.58 166.496 249.58C166.934 249.58 167.354 249.306 167.792 249.306C168.23 249.306 168.668 248.576 169.088 248.576C169.508 248.576 169.964 249.47 170.384 249.47C170.804 249.47 171.26 249.47 171.68 249.47C172.1 249.47 172.556 249.397 172.976 249.397C173.396 249.397 173.852 249.342 174.272 249.342C174.692 249.342 175.148 248.868 175.568 248.868C175.988 248.868 176.444 248.777 176.864 248.777C177.284 248.777 177.722 249.069 178.142 249.069C178.58 249.069 179.018 249.288 179.42 249.288C179.858 249.288 180.296 249.488 180.716 249.488C181.154 249.488 181.592 248.813 182.012 248.813C182.468 248.813 182.888 249.069 183.289 249.069C183.746 249.069 184.166 249.452 184.567 249.452C185.042 249.452 185.462 248.612 185.845 248.612C186.338 248.612 186.776 248.777 187.141 248.777C187.962 248.777 188.017 249.58 188.327 249.014C188.638 248.448 187.761 248.904 187.36 248.211C187.177 247.9 187.323 247.335 187.086 246.915C186.885 246.586 186.739 246.185 186.502 245.801C186.301 245.454 186.374 244.907 186.137 244.542C185.918 244.195 184.969 244.286 184.731 243.921C184.512 243.574 184.604 243.027 184.366 242.662C184.129 242.297 183.965 241.932 183.727 241.566C183.49 241.201 183.49 240.727 183.235 240.362C182.979 239.997 182.87 239.595 182.614 239.248C182.358 238.901 182.285 238.445 182.03 238.098C181.774 237.752 181.355 237.532 181.099 237.204C180.843 236.875 180.205 236.839 179.931 236.51C179.657 236.182 179.31 235.926 179.055 235.598C178.799 235.269 178.434 235.032 178.142 234.721C177.85 234.411 177.54 234.137 177.248 233.845C176.955 233.553 176.864 233.042 176.554 232.75C176.244 232.458 176.134 231.947 175.824 231.673C175.495 231.381 175.094 231.217 174.765 230.961C174.418 230.706 174.236 230.176 173.889 229.976C173.506 229.738 172.976 229.793 172.611 229.629C172.21 229.446 171.863 229.337 171.479 229.245C171.333 228.625 171.662 228.899 172.191 228.26C172.41 227.986 172.611 227.603 172.921 227.219C173.159 226.909 173.816 226.891 174.09 226.507C174.327 226.197 174.619 225.868 174.893 225.503C175.13 225.175 175.258 224.737 175.513 224.372C175.751 224.043 176.171 223.806 176.408 223.441C176.627 223.094 176.663 222.601 176.901 222.236C177.12 221.889 177.266 221.469 177.503 221.104C177.722 220.758 177.978 220.411 178.197 220.027C178.416 219.644 178.89 219.462 179.109 219.078C179.328 218.695 179.073 218.074 179.292 217.709C179.511 217.344 179.438 216.833 179.657 216.45C179.876 216.066 180.679 216.03 180.88 215.647C181.081 215.263 180.935 214.716 181.135 214.332C181.336 213.949 181.446 213.547 181.647 213.146C181.847 212.744 181.866 212.306 182.066 211.923C182.267 211.54 182.724 211.302 182.906 210.901C183.089 210.499 183.508 210.244 183.691 209.86C183.874 209.477 183.947 209.039 184.129 208.637C184.312 208.236 184.713 207.962 184.877 207.56C185.042 207.159 184.713 206.575 184.877 206.173C185.042 205.771 185.425 205.498 185.589 205.096C185.754 204.695 185.352 204.092 185.516 203.691C185.681 203.289 186.52 203.179 186.666 202.778C186.812 202.376 186.539 201.829 186.703 201.427C186.867 201.026 187.214 200.715 187.36 200.314C187.506 199.912 187.615 199.492 187.743 199.091C187.871 198.689 188.163 198.342 188.291 197.922C188.419 197.503 188.054 196.955 188.181 196.535C188.309 196.115 189.039 195.915 189.185 195.513C189.331 195.111 189.295 194.655 189.423 194.235C189.55 193.815 189.678 193.414 189.806 193.012C189.934 192.611 190.098 192.209 190.207 191.789C190.317 191.369 189.97 190.84 190.08 190.42C190.189 190 190.609 189.69 190.737 189.27C190.865 188.851 190.865 188.431 190.974 188.011C191.084 187.591 191.339 187.226 191.449 186.806C191.558 186.386 192.015 186.076 192.124 185.656C192.234 185.236 191.869 184.725 191.96 184.305C192.051 183.886 191.832 183.411 191.942 182.991C192.051 182.571 192.124 182.17 192.215 181.75C192.307 181.33 193.201 181.093 193.274 180.673C193.347 180.253 193.146 179.779 193.238 179.359C193.329 178.939 193.347 178.519 193.438 178.081C193.53 177.643 194.022 177.314 194.095 176.894C194.168 176.475 193.931 176 194.004 175.562C194.077 175.124 194.314 174.741 194.369 174.321C194.424 173.901 193.657 173.335 193.73 172.915C193.803 172.495 194.077 172.112 194.15 171.692C194.223 171.272 194.734 170.926 194.807 170.488C194.88 170.049 194.625 169.593 194.68 169.173C194.734 168.753 194.643 168.297 194.68 167.877C194.716 167.457 195.081 167.056 195.136 166.636C195.191 166.216 195.61 165.833 195.665 165.395C195.72 164.957 195.757 164.537 195.811 164.099C195.866 163.661 195.939 163.241 195.976 162.803C196.012 162.365 195.738 161.908 195.793 161.489C195.848 161.069 196.249 160.649 196.286 160.211C196.322 159.773 195.702 159.298 195.738 158.86C195.775 158.422 196.213 158.02 196.231 157.601C196.249 157.181 196.195 156.724 196.213 156.286C196.231 155.848 196.377 155.428 196.395 154.99C196.414 154.552 195.957 154.114 195.976 153.676C195.994 153.238 196.03 152.818 196.03 152.38C196.03 151.942 196.195 151.522 196.195 151.084C196.195 150.646 196.523 150.208 196.523 149.788C196.523 149.368 196.487 148.912 196.487 148.492C196.487 148.072 196.268 147.634 196.249 147.196C196.231 146.758 196.395 146.32 196.377 145.882C196.359 145.444 196.176 145.024 196.158 144.586C196.14 144.148 196.158 143.71 196.122 143.29C196.085 142.87 195.957 142.432 195.921 141.994C195.884 141.556 195.428 141.172 195.391 140.734C195.355 140.296 195.738 139.84 195.683 139.402C195.629 138.964 195.245 138.58 195.191 138.161C195.136 137.741 194.953 137.321 194.899 136.901C194.844 136.481 195.519 135.934 195.464 135.514C195.41 135.094 195.391 134.638 195.337 134.218C195.282 133.798 194.734 133.433 194.661 133.013C194.588 132.593 194.99 132.064 194.917 131.644C194.844 131.224 194.698 130.805 194.607 130.366C194.515 129.928 194.132 129.563 194.059 129.143C193.986 128.724 194.095 128.249 194.004 127.829C193.913 127.409 193.876 126.953 193.785 126.533C193.694 126.113 193.037 125.821 192.927 125.402C192.818 124.982 192.507 124.617 192.398 124.197C192.288 123.777 192.088 123.394 191.978 122.974C191.869 122.554 191.905 122.098 191.795 121.678C191.686 121.258 192.142 120.656 192.015 120.254C191.887 119.852 191.467 119.506 191.339 119.104C191.211 118.702 190.81 118.374 190.682 117.954C190.554 117.534 191.047 116.895 190.901 116.494C190.755 116.092 190.609 115.672 190.463 115.271C190.317 114.869 189.459 114.723 189.295 114.322C189.13 113.92 188.729 113.61 188.583 113.226C188.437 112.843 188.601 112.277 188.437 111.894C188.273 111.511 187.999 111.146 187.816 110.744C187.634 110.342 187.396 109.996 187.214 109.594C187.031 109.192 187.196 108.645 187.013 108.262C186.831 107.878 186.539 107.531 186.356 107.148C186.173 106.765 185.717 106.509 185.516 106.126C185.316 105.743 185.06 105.396 184.859 105.012C184.658 104.629 184.713 104.118 184.512 103.735C184.312 103.351 183.91 103.078 183.709 102.712C183.508 102.347 183.271 101.964 183.07 101.599C182.87 101.234 182.778 100.778 182.559 100.413C182.34 100.047 182.012 99.7371 181.793 99.3721C181.574 99.007 181.482 98.5507 181.263 98.1856C181.044 97.8205 181.008 97.3277 180.77 96.9809C180.533 96.6341 180.04 96.4333 179.803 96.0865C179.566 95.7396 179.675 95.1373 179.438 94.7722C179.201 94.4071 178.89 94.0968 178.653 93.75C178.416 93.4032 178.178 93.0199 177.941 92.6731C177.704 92.3262 177.74 91.7421 177.485 91.3953C177.229 91.0485 176.59 90.9755 176.335 90.6469C176.079 90.3184 175.878 89.8985 175.623 89.5517C175.367 89.2049 174.856 89.0406 174.601 88.7121C174.345 88.3835 174.327 87.8176 174.053 87.4891C173.779 87.1605 173.159 87.1058 172.885 86.7955C172.611 86.4851 172.666 85.828 172.392 85.5177C172.1 85.1892 171.917 84.7693 171.644 84.459C171.352 84.1304 170.95 83.9114 170.658 83.6011C170.348 83.2725 169.928 83.0718 169.636 82.7797C169.326 82.4511 168.76 82.4146 168.468 82.1226C168.139 81.794 168.048 81.2829 167.756 81.0091C167.409 80.6805 166.861 80.644 166.587 80.3885C166.222 80.0599 165.857 79.8226 165.584 79.6036C164.963 79.0742 165.547 78.7457 164.926 78.8917L164.78 78.9282Z" fill="black"/>
<path d="M164.47 55.3997C168.723 51.749 176.426 35.5582 176.517 32.2908C176.609 29.0234 176.316 19.5499 168.906 13.6358C161.495 7.70341 160.217 5.43998 148.462 5.23919C136.706 5.0384 126.74 7.50261 122.487 11.5549C118.234 15.6071 112.904 19.7507 111.133 26.9608C109.363 34.1709 112.119 48.3903 115.971 52.4426C119.822 56.4949 124.075 56.9877 129.004 62.2265C133.932 67.4652 135.922 74.0364 137.893 75.3324C139.864 76.6467 141.343 75.9713 142.931 72.85C144.519 69.7286 143.515 66.662 148.553 63.705C153.591 60.7479 154.723 59.4519 157.807 58.9591C160.892 58.4662 164.452 55.3997 164.452 55.3997H164.47Z" fill="#FFC3A3"/>
<path d="M145.413 49.4668C154.96 43.7169 158.702 38.5147 160.235 35.5029C161.768 32.4911 163.302 27.8912 159.56 25.2992C155.818 22.7072 153.281 21.0279 149.356 23.6381C145.413 26.2484 142.475 27.4896 138.404 24.9706C134.334 22.4517 131.924 20.5533 128.2 24.9706C124.458 29.388 124.531 38.3687 126.539 41.0154C128.547 43.6622 132.873 46.9661 135.611 48.3533C138.349 49.7406 145.413 49.485 145.413 49.485V49.4668Z" fill="#970215"/>
<path d="M159.925 115.088C159.414 111.438 156.767 110.853 156.877 117.096C156.986 123.339 154.504 127.373 149.904 128.906C145.304 130.439 140.065 132.009 142.895 139.986C145.724 147.963 153.025 150.628 162.444 147.817C171.881 145.006 172.556 134.163 167.829 129.271C163.101 124.379 160.746 120.747 159.943 115.07L159.925 115.088Z" fill="#FCFCFC"/>
<path d="M158.324 134.111C160.914 134.075 162.999 132.967 162.981 131.636C162.962 130.306 160.847 129.256 158.257 129.293C155.666 129.329 153.581 130.437 153.6 131.767C153.618 133.098 155.733 134.147 158.324 134.111Z" fill="black"/>
<path d="M161.787 140.479C160.564 140.479 159.396 140.004 158.519 139.147C157.625 138.27 157.114 137.102 157.096 135.861C157.096 135.167 157.643 134.601 158.337 134.583C159.031 134.583 159.578 135.131 159.596 135.824C159.596 137.029 160.546 137.942 161.805 137.96C163.01 137.96 163.959 136.956 163.941 135.751C163.941 135.058 164.488 134.492 165.182 134.474C165.876 134.474 166.423 135.021 166.441 135.715C166.478 138.307 164.397 140.424 161.823 140.461C161.805 140.461 161.787 140.461 161.75 140.461L161.787 140.479Z" fill="black"/>
<path d="M154.924 140.57C152.368 140.57 150.269 138.508 150.251 135.952C150.251 135.259 150.799 134.693 151.492 134.674C151.492 134.674 151.492 134.674 151.51 134.674C152.204 134.674 152.752 135.222 152.77 135.916C152.77 137.12 153.774 138.07 154.979 138.051C156.183 138.051 157.133 137.047 157.114 135.843C157.114 135.149 157.662 134.583 158.356 134.565C159.049 134.565 159.597 135.113 159.615 135.806C159.615 137.066 159.159 138.234 158.282 139.147C157.406 140.041 156.238 140.552 154.997 140.57C154.979 140.57 154.96 140.57 154.924 140.57Z" fill="black"/>
<path d="M142.183 52.6064C141.799 52.6064 141.617 52.3144 141.252 52.1684C141.161 52.1319 140.759 51.9493 140.102 51.639C139.773 51.4747 139.153 51.7851 138.696 51.5478C138.35 51.3652 137.857 51.347 137.455 51.1462C137.09 50.9454 136.78 50.5986 136.378 50.3795C136.013 50.1787 135.575 50.0692 135.173 49.8502C134.808 49.6311 134.827 48.7915 134.443 48.5542C134.06 48.3169 133.22 48.8645 132.855 48.6272C132.49 48.3899 132.435 47.6963 132.07 47.4407C131.705 47.1852 130.993 47.4407 130.647 47.1852C130.3 46.9296 129.989 46.5828 129.661 46.3273C129.332 46.0717 129.004 45.7249 128.675 45.4511C128.347 45.1773 128.036 44.8487 127.708 44.5567C127.379 44.2646 127.324 43.6805 127.014 43.3885C126.704 43.0964 126.467 42.7131 126.175 42.3845C125.882 42.056 125.152 42.129 124.86 41.8004C124.568 41.4718 125.025 40.5592 124.751 40.2124C124.477 39.8656 123.729 39.8838 123.491 39.5187C123.254 39.1537 122.725 38.9346 122.506 38.5696C122.287 38.2045 122.195 37.7116 122.013 37.3283C121.83 36.945 121.903 36.4156 121.757 35.9958C121.611 35.576 121.1 35.2657 120.991 34.8459C120.881 34.426 121.52 33.8237 121.447 33.4038C121.374 32.984 121.228 32.5642 121.21 32.1443C121.191 31.7245 120.552 31.2682 120.571 30.8301C120.589 30.392 121.027 29.9722 121.1 29.5523C121.173 29.1325 121.21 28.6762 121.319 28.2564C121.429 27.8365 121.374 27.3437 121.52 26.9239C121.666 26.504 122.177 26.2485 122.36 25.8469C122.542 25.4453 122.36 24.8612 122.597 24.4779C122.834 24.0946 122.962 23.6565 123.217 23.2914C123.473 22.9263 123.71 22.543 124.002 22.1962C124.294 21.8129 124.623 21.4296 124.933 21.1193C125.262 20.7724 125.974 20.8272 126.302 20.5351C126.667 20.2248 127.197 20.2066 127.562 19.9693C127.963 19.7137 128.237 19.3304 128.639 19.1296C129.077 18.9288 129.515 18.8376 129.935 18.7098C130.391 18.5638 130.866 18.7828 131.285 18.7098C131.778 18.6368 132.162 18.1805 132.581 18.1805V18.436C133.02 18.436 133.403 18.436 133.823 18.509C134.243 18.582 134.699 18.3447 135.119 18.4543C135.539 18.5638 135.977 18.6003 136.36 18.7463C136.743 18.8923 137.054 19.3122 137.437 19.4947C137.82 19.6772 138.295 19.6955 138.66 19.9145C139.025 20.1336 139.317 20.4804 139.664 20.7177C140.011 20.955 140.649 20.8455 140.978 21.101C141.325 21.3748 141.617 21.7034 141.927 21.9772C142.274 22.2692 142.457 22.3057 142.73 22.5978C143.041 22.3605 143.205 22.324 143.57 22.0684C143.899 21.8311 144.592 22.0684 144.939 21.8311C145.286 21.5938 145.414 21.0645 145.779 20.8272C146.144 20.5899 146.545 20.4804 146.91 20.2613C147.275 20.0423 147.44 19.4582 147.823 19.2757C148.206 19.0931 148.681 19.0749 149.064 18.8923C149.448 18.7098 149.867 18.6003 150.269 18.4543C150.671 18.3082 151.072 18.1257 151.474 18.0162C151.875 17.9066 152.295 17.7241 152.715 17.6328C153.135 17.5416 153.609 17.9249 154.029 17.8884C154.449 17.8519 154.887 17.3225 155.307 17.3408C155.727 17.359 156.001 18.3265 156.42 18.4177C156.822 18.509 157.461 17.8701 157.899 18.0527C158.282 18.217 158.83 18.2717 159.232 18.5273C159.578 18.7463 159.578 19.513 159.925 19.8415C160.235 20.1336 160.29 20.6082 160.582 20.9732C160.838 21.3018 161.55 21.3383 161.769 21.7581C161.97 22.1232 162.499 22.4153 162.663 22.8533C162.827 23.2732 162.773 23.7843 162.9 24.1858C163.028 24.5874 162.955 25.0985 163.028 25.5183C163.101 25.9382 162.627 26.4493 162.663 26.8691C162.7 27.2889 163.101 27.6905 163.119 28.1286C163.138 28.5667 162.882 28.9682 162.846 29.4063C162.809 29.8444 162.7 30.2277 162.627 30.6658C162.554 31.1039 162.864 31.5967 162.754 32.0166C162.645 32.4364 162.645 32.8927 162.517 33.3126C162.389 33.7324 162.499 34.2617 162.335 34.6633C162.17 35.0649 161.513 35.2474 161.312 35.649C161.112 36.0506 161.203 36.5799 160.984 36.9632C160.765 37.3466 160.491 37.6934 160.254 38.0585C160.016 38.4235 159.359 38.4965 159.104 38.8616C158.848 39.2267 159.012 39.8656 158.739 40.2124C158.465 40.5592 158.301 40.9973 158.027 41.3258C157.753 41.6544 157.351 41.9099 157.059 42.2202C156.767 42.5306 156.147 42.5671 155.855 42.8774C155.563 43.1877 155.124 43.3702 154.814 43.6623C154.504 43.9543 154.449 44.5384 154.139 44.8305C153.828 45.1225 153.299 45.2138 152.989 45.5059C152.679 45.7979 152.313 46.0535 151.985 46.3273C151.656 46.6011 151.565 47.2034 151.236 47.4772C150.908 47.751 150.379 47.8058 150.032 48.0613C149.667 48.3351 149.667 49.0653 149.338 49.3208C148.973 49.5946 148.206 49.2661 147.86 49.5034C147.476 49.7589 147.184 50.1057 146.837 50.3248C146.454 50.5803 146.089 50.8359 145.76 51.0549C145.341 51.3287 145.03 51.639 144.72 51.8398C144.118 52.2049 143.972 52.8803 143.862 52.9533C143.424 53.1906 142.73 52.6795 142.238 52.6795L142.183 52.6064ZM132.6 23.547C132.362 23.547 131.651 23.3462 130.975 23.6382C130.61 23.8025 130.062 24.1311 129.606 24.5144C129.278 24.7882 129.296 25.5548 128.949 25.9929C128.675 26.358 128.602 26.8143 128.365 27.1612C128.128 27.5445 127.781 27.8365 127.598 28.2016C127.397 28.6032 127.379 29.0413 127.251 29.4428C127.124 29.8627 126.321 30.173 126.266 30.5928C126.211 31.0126 127.105 31.4872 127.142 31.9253C127.178 32.3634 126.704 32.838 126.813 33.2761C126.923 33.6959 127.635 33.8784 127.799 34.28C127.963 34.6816 128.055 35.0466 128.274 35.43C128.493 35.8133 128.657 36.1601 128.894 36.5252C129.132 36.8902 129.369 37.2188 129.643 37.5474C129.916 37.8759 129.916 38.4418 130.209 38.7521C130.501 39.0624 130.738 39.4457 131.048 39.7378C131.358 40.0298 132.07 39.8838 132.399 40.1576C132.728 40.4314 132.472 41.4171 132.819 41.6909C133.166 41.9647 133.877 41.7274 134.224 41.9829C134.571 42.2385 135.119 42.2202 135.466 42.4575C135.812 42.6948 136.104 43.0417 136.451 43.2789C136.798 43.5162 137.035 43.9908 137.4 44.2099C137.765 44.4289 138.331 44.3376 138.696 44.5384C139.08 44.7575 139.098 45.6336 139.463 45.8344C139.865 46.0535 140.284 46.163 140.649 46.3638C141.051 46.5646 141.526 46.1447 141.891 46.3273C142.201 46.1265 142.566 46.309 142.968 46.0352C143.296 45.8162 143.625 45.5424 143.99 45.2686C144.318 45.0313 144.556 44.6297 144.921 44.3742C145.249 44.1369 145.815 44.1734 146.162 43.8996C146.491 43.644 146.564 43.0416 146.91 42.7861C147.257 42.5306 147.495 42.1837 147.823 41.8917C148.152 41.5996 148.444 41.3441 148.772 41.052C149.101 40.76 149.393 40.5044 149.721 40.2124C150.05 39.9203 150.707 40.0116 150.999 39.7195C151.291 39.4275 151.821 39.3179 152.113 39.0259C152.405 38.7338 152.569 38.2592 152.843 37.9489C153.117 37.6386 153.482 37.3466 153.737 37.018C153.993 36.6895 154.522 36.5252 154.778 36.1783C155.033 35.8315 154.942 35.2292 155.161 34.8641C155.38 34.499 155.836 34.2435 156.037 33.8784C156.238 33.5134 156.439 33.0935 156.621 32.7102C156.804 32.3269 156.694 31.7975 156.84 31.396C156.986 30.9944 157.005 30.5563 157.096 30.1365C157.187 29.7166 157.516 29.3333 157.552 28.8952C157.589 28.4571 157.388 28.0191 157.37 27.5992C157.351 27.1794 157.424 26.7231 157.315 26.3032C157.205 25.8834 156.658 25.6461 156.493 25.2445C156.293 24.7699 156.201 24.4596 156.001 24.2223C155.599 23.7295 155.307 23.8938 155.106 23.8573C154.741 23.766 154.449 23.6017 153.993 23.6565C153.609 23.7112 153.062 23.2184 152.642 23.3644C152.259 23.4922 151.985 23.985 151.583 24.1676C151.218 24.3319 150.798 24.4231 150.415 24.6239C150.032 24.8247 149.904 25.3906 149.539 25.6096C149.174 25.8286 148.736 25.8834 148.389 26.1024C148.042 26.3215 147.677 26.5223 147.33 26.7778C146.983 27.0334 146.673 27.3072 146.363 27.5627C146.053 27.8183 145.76 28.1468 145.45 28.4024C145.122 28.6762 144.519 28.6397 144.227 28.9135C143.935 29.1873 143.826 29.8627 143.461 29.9904C143.095 30.1182 142.621 29.2786 142.219 29.242C141.818 29.2055 141.27 29.8444 140.923 29.6619C140.576 29.4793 140.029 29.2785 139.792 28.9682C139.591 28.7127 139.755 27.9826 139.372 27.5992C139.098 27.3072 138.952 26.7778 138.605 26.4675C138.295 26.1755 137.565 26.3215 137.218 26.0477C136.871 25.7739 136.342 25.8104 135.958 25.5731C135.575 25.3358 135.356 24.9342 134.954 24.7334C134.553 24.5327 134.224 24.1858 133.823 24.0763C133.385 23.9485 132.965 23.5652 132.527 23.5652L132.6 23.547Z" fill="black"/>
<path d="M140.248 78.6541C139.755 78.6541 139.171 78.7819 138.714 78.6176C138.258 78.4533 137.619 78.3073 137.236 78.0153C136.853 77.7232 137.035 76.847 136.78 76.4272C136.433 75.8613 136.579 75.7701 136.232 75.2042C135.885 74.6384 135.429 74.9304 135.082 74.3646C134.735 73.7987 134.936 73.6709 134.589 73.1051C134.242 72.5392 134.37 72.4479 134.023 71.8821C133.676 71.3162 133.895 71.1885 133.549 70.6226C133.202 70.0567 133.202 70.0567 132.855 69.4909C132.508 68.925 131.851 69.3448 131.504 68.779C131.157 68.2131 131.084 68.2496 130.738 67.6838C130.391 67.1179 130.738 66.8989 130.391 66.333C130.044 65.7672 129.88 65.8585 129.533 65.2926C129.186 64.7267 129.259 64.6902 128.821 64.1791C128.419 64.0696 128 64.1244 127.58 63.9783C127.196 63.8323 126.923 63.3395 126.521 63.1569C126.138 62.9927 125.7 62.9196 125.316 62.7188C124.933 62.5181 124.732 62.0435 124.349 61.8244C123.966 61.6054 123.382 61.7879 123.016 61.5506C122.651 61.3133 122.268 61.1308 121.903 60.8753C121.538 60.6197 121.483 59.9991 121.136 59.7253C120.79 59.4515 120.479 59.1777 120.151 58.9221C119.822 58.6666 119.11 58.8309 118.782 58.5388C118.453 58.2468 118.234 57.8634 117.905 57.5714C117.577 57.2793 117.175 57.0968 116.865 56.7865C116.555 56.4762 116.555 55.8921 116.244 55.5818C115.934 55.2715 115.898 54.7421 115.624 54.4318C115.35 54.1215 115.058 53.8112 114.784 53.4826C114.51 53.154 113.817 53.1723 113.543 52.8437C113.269 52.5152 112.849 52.2779 112.594 51.9311C112.338 51.5843 112.63 50.8541 112.393 50.489C112.156 50.124 111.754 49.8867 111.517 49.5216C111.279 49.1565 111.444 48.5907 111.225 48.2074C111.006 47.824 110.805 47.4772 110.604 47.1122C110.403 46.7471 109.545 46.6923 109.363 46.309C109.18 45.9257 108.815 45.5971 108.633 45.2138C108.45 44.8305 109.126 44.0821 108.961 43.6805C108.797 43.2789 107.921 43.1512 107.775 42.7496C107.629 42.348 107.41 41.9464 107.282 41.5266C107.172 41.125 107.903 40.4862 107.811 40.0663C107.72 39.6465 107.099 39.3544 107.026 38.9346C106.953 38.5148 107.264 38.0402 107.209 37.6021C107.154 37.164 106.57 36.8172 106.534 36.3974C106.497 35.9775 106.333 35.5395 106.315 35.1196C106.296 34.6998 106.26 34.2435 106.26 33.8236C106.26 33.4038 106.26 32.9475 106.296 32.5276C106.333 32.1078 106.917 31.7245 106.953 31.2864C106.99 30.8483 107.264 30.4833 107.318 30.0634C107.373 29.6436 107.519 29.2603 107.592 28.8405C107.665 28.4206 107.629 28.0008 107.738 27.581C107.848 27.1611 107.3 26.577 107.428 26.1572C107.556 25.7374 107.903 25.4088 108.049 25.0072C108.195 24.6057 108.87 24.4231 109.034 24.0215C109.199 23.62 109.199 23.1819 109.381 22.7986C109.564 22.4152 109.016 21.6668 109.217 21.2835C109.418 20.9002 109.819 20.6264 110.038 20.2431C110.257 19.8598 110.732 19.659 110.969 19.2939C111.206 18.9288 111.243 18.4542 111.48 18.0892C111.718 17.7241 112.046 17.4503 112.302 17.0852C112.557 16.7202 113.123 16.6471 113.397 16.3003C113.671 15.9535 113.853 15.5884 114.127 15.2599C114.401 14.9313 114.565 14.5115 114.857 14.1829C115.149 13.8544 115.35 13.4893 115.66 13.1607C115.971 12.8322 116.682 12.9782 116.993 12.6679C117.303 12.3576 117.577 12.0655 117.887 11.7552C118.198 11.4632 118.252 10.8973 118.581 10.6235C118.909 10.3497 118.836 9.60132 119.165 9.32751C119.494 9.05371 120.424 9.5283 120.771 9.2545C121.118 8.9807 121.392 8.68864 121.739 8.43309C122.086 8.17754 122.432 7.95851 122.779 7.70296C123.126 7.44741 123.181 6.77203 123.546 6.55299C123.911 6.33395 124.349 6.22442 124.714 5.98713C125.079 5.74983 125.517 5.67682 125.9 5.45778C126.284 5.23874 126.704 5.14747 127.087 4.94668C127.47 4.7459 127.835 4.54511 128.219 4.36257C128.602 4.18004 128.657 3.28562 129.058 3.10309C129.46 2.92055 130.099 3.35863 130.5 3.19435C130.902 3.03007 131.395 3.1396 131.778 2.97531C132.161 2.81103 132.453 2.33644 132.855 2.19042C133.257 2.04439 133.713 2.08089 134.133 1.95312C134.553 1.82534 134.972 1.8436 135.392 1.73408C135.812 1.62456 136.031 0.748393 136.451 0.657125C136.871 0.565858 137.473 1.42377 137.893 1.35075C138.313 1.27774 138.623 0.547604 139.043 0.492844C139.463 0.438084 139.956 0.894417 140.375 0.839657C140.795 0.784897 141.215 0.711883 141.635 0.675376C142.055 0.638869 142.456 0.182535 142.894 0.164281C143.333 0.146028 143.752 0 144.19 0C144.629 0 145.048 0.237294 145.468 0.255547C145.888 0.273801 146.29 0.69363 146.728 0.711883C147.166 0.730137 147.549 0.91267 147.969 0.967431C148.389 1.02219 148.882 0.511099 149.301 0.565859C149.721 0.62062 150.214 0.328561 150.634 0.419829C151.054 0.511096 151.455 0.784898 151.857 0.876165C152.258 0.967432 152.77 0.803152 153.189 0.912673C153.609 1.02219 153.773 2.00788 154.175 2.13565C154.577 2.26342 155.033 2.24517 155.435 2.37295C155.836 2.51897 156.493 1.98963 156.877 2.15391C157.26 2.31819 157.552 2.77453 157.935 2.93881C158.319 3.10309 158.465 3.81497 158.848 3.9975C159.231 4.18004 159.56 4.41733 159.943 4.61812C160.326 4.81891 161.148 4.18004 161.513 4.39908C161.878 4.61812 161.86 5.45778 162.225 5.69507C162.59 5.93237 163.211 5.74983 163.557 5.98713C163.904 6.22442 164.123 6.68076 164.452 6.91806C164.78 7.15535 164.817 7.83073 165.145 8.08628C165.474 8.34183 165.876 8.50611 166.204 8.77991C166.533 9.05371 167.281 8.85292 167.591 9.12673C167.902 9.40053 167.883 10.0394 168.194 10.3315C168.504 10.6235 168.595 11.0981 168.887 11.4084C169.179 11.7187 169.672 11.8282 169.946 12.1568C170.22 12.4854 170.749 12.5949 171.005 12.9417C171.26 13.2885 171.151 13.8909 171.406 14.2377C171.662 14.5845 172.082 14.8035 172.319 15.1504C172.556 15.4972 172.848 15.8257 173.067 16.1908C173.286 16.5559 173.542 16.9027 173.743 17.2678C173.944 17.6328 173.578 18.3082 173.743 18.6915C173.907 19.0749 174.29 19.3487 174.455 19.7502C174.619 20.1518 174.966 20.4439 175.13 20.8454C175.294 21.247 175.659 21.5573 175.805 21.9406C175.951 22.324 176.006 22.7621 176.134 23.1819C176.262 23.6017 176.517 23.9668 176.627 24.3684C176.736 24.7699 176.317 25.3175 176.408 25.7191C176.499 26.1207 177.193 26.431 177.266 26.8508C177.339 27.2707 176.864 27.7818 176.937 28.2016C176.992 28.6397 176.937 29.0777 176.992 29.4976C177.047 29.9174 176.846 30.3737 176.864 30.7936C176.882 31.2134 177.521 31.6332 177.521 32.0713C177.521 32.5094 177.01 32.9292 176.992 33.3673C176.974 33.8054 177.813 34.2982 177.777 34.7363C177.74 35.1744 177.43 35.5942 177.357 36.0141C177.284 36.4339 176.645 36.7807 176.554 37.2005C176.463 37.6204 176.882 38.168 176.773 38.5878C176.663 39.0076 176.809 39.5187 176.682 39.9203C176.554 40.3219 176.079 40.6504 175.933 41.052C175.787 41.4536 175.605 41.8552 175.422 42.2567C175.24 42.6583 174.838 42.9504 174.655 43.3337C174.473 43.717 174.327 44.1368 174.108 44.5019C173.889 44.867 173.907 45.3781 173.688 45.7614C173.469 46.1447 173.578 46.7288 173.341 47.0939C173.104 47.459 172.593 47.6415 172.337 48.0066C172.082 48.3716 171.771 48.6637 171.498 49.0105C171.224 49.3573 170.64 49.4303 170.348 49.7589C170.056 50.0875 169.837 50.4525 169.544 50.7628C169.252 51.0732 169.344 51.7668 169.052 52.0771C168.76 52.3874 168.139 52.3874 167.829 52.6977C167.518 53.008 167.628 53.7747 167.318 54.0667C167.007 54.3588 166.66 54.6508 166.332 54.9429C166.003 55.2349 165.474 55.2897 165.145 55.5635C164.817 55.8373 164.178 55.7278 163.831 55.9833C163.484 56.2389 163.521 57.042 163.174 57.2976C162.827 57.5531 162.316 57.6079 161.951 57.8452C161.586 58.0825 160.984 57.9547 160.619 58.192C160.253 58.4293 160.089 58.9951 159.724 59.2142C159.359 59.4332 158.757 59.2872 158.392 59.5063C158.027 59.7253 157.643 59.9443 157.26 60.1451C156.877 60.3459 156.767 61.1125 156.384 61.2951C156 61.4776 155.343 61.1673 154.96 61.3498C154.577 61.5324 154.376 62.1713 153.993 62.3538C153.609 62.5363 153.262 62.9014 152.879 63.0657C152.496 63.2299 151.893 62.9927 151.51 63.1387C151.09 63.303 150.725 63.449 150.324 63.595C150.159 63.9053 150.214 64.3799 149.995 64.7997C149.812 65.1466 149.338 65.3656 149.119 65.7672C148.936 66.114 148.955 66.6068 148.754 66.9902C148.571 67.3552 148.59 67.8298 148.389 68.2131C148.188 68.5965 147.604 68.7425 147.403 69.1258C147.202 69.5091 146.837 69.7829 146.655 70.1663C146.472 70.5496 146.454 71.0059 146.271 71.3892C146.089 71.7726 146.125 72.2654 145.961 72.6305C145.797 72.9955 145.121 73.1781 144.939 73.5431C144.756 73.9447 144.519 74.2915 144.355 74.6566C144.172 75.0582 144.756 75.7701 144.61 76.1351L144.099 75.9344C143.953 76.2994 143.369 76.3359 143.132 76.6462C142.894 76.9566 142.894 77.3946 142.584 77.6319C142.274 77.8692 141.982 78.0518 141.598 78.1978C141.215 78.3438 140.923 78.7271 140.521 78.7636C140.394 78.7636 140.266 78.7089 140.138 78.7089L140.248 78.6541ZM141.598 74.7296C141.598 74.7296 141.306 74.8574 141.306 74.8391C141.306 74.8026 141.58 74.7296 141.598 74.7296ZM144.245 6.04189C143.825 6.04189 143.424 6.27919 143.004 6.29744C142.584 6.3157 142.201 6.53473 141.781 6.57124C141.361 6.60775 140.868 5.93237 140.448 5.98713C140.029 6.04189 139.572 5.93237 139.171 6.00539C138.769 6.0784 138.441 6.68076 138.021 6.77203C137.601 6.8633 137.145 6.71727 136.743 6.82679C136.341 6.93631 135.885 6.8998 135.484 7.00933C135.082 7.11885 134.589 7.00932 134.188 7.15535C133.786 7.30138 133.384 7.44741 132.983 7.59344C132.581 7.73946 132.49 8.61563 132.107 8.79816C131.723 8.9807 131.377 9.19974 130.993 9.38227C130.61 9.56481 130.062 9.38227 129.679 9.58306C129.296 9.78385 129.022 10.1307 128.657 10.3497C128.292 10.5687 127.945 10.7878 127.58 11.0068C127.215 11.2259 126.977 11.6092 126.631 11.8465C126.284 12.0838 125.736 12.029 125.389 12.2663C125.043 12.5036 124.787 12.8687 124.458 13.1242C124.13 13.3798 123.601 13.398 123.272 13.6718C122.943 13.9456 122.925 14.5663 122.615 14.8401C122.305 15.1139 122.031 15.4424 121.72 15.7345C121.41 16.0265 120.753 15.99 120.461 16.2821C120.169 16.5741 119.822 16.8844 119.53 17.1947C119.238 17.5051 119.366 18.2169 119.092 18.5455C118.818 18.8741 118.417 19.0931 118.143 19.4217C117.869 19.7502 117.723 20.1883 117.467 20.5169C117.212 20.8454 116.628 20.9732 116.39 21.32C116.153 21.6668 115.624 21.8676 115.405 22.2327C115.186 22.5978 114.967 22.9993 114.766 23.3644C114.565 23.7295 114.839 24.3866 114.656 24.7699C114.474 25.1533 114.492 25.6278 114.328 26.0112C114.164 26.3945 113.379 26.577 113.251 26.9786C113.123 27.3802 113.16 27.873 113.05 28.2746C112.941 28.6762 112.411 29.023 112.32 29.4428C112.229 29.8626 112.156 30.319 112.101 30.7388C112.046 31.1586 112.721 31.688 112.685 32.1078C112.648 32.5276 112.831 32.9475 112.831 33.3856C112.831 33.8236 111.937 34.2617 111.955 34.6815C111.973 35.1014 112.795 35.4847 112.849 35.9045C112.904 36.3244 113.05 36.7077 113.123 37.1458C113.196 37.5839 112.411 38.168 112.521 38.5878C112.63 39.0076 113.233 39.2997 113.36 39.7195C113.488 40.1393 113.233 40.6687 113.379 41.0703C113.525 41.4718 114.164 41.6909 114.328 42.0925C114.492 42.494 114.784 42.8226 114.967 43.2059C115.149 43.5892 115.35 43.9543 115.551 44.3376C115.752 44.7209 115.952 45.086 116.171 45.4511C116.39 45.8162 116.135 46.4915 116.372 46.8566C116.609 47.2217 116.682 47.7145 116.92 48.0613C117.157 48.4081 117.394 48.8097 117.65 49.1565C117.905 49.5033 118.307 49.7589 118.581 50.0875C118.855 50.416 119.658 50.3065 119.932 50.6168C120.205 50.9271 120.351 51.4017 120.643 51.712C120.936 52.0223 120.863 52.7342 121.155 53.0263C121.447 53.3183 121.921 53.5009 122.232 53.7929C122.542 54.085 123.418 53.7382 123.747 54.012C124.075 54.2858 124.276 54.7238 124.604 54.9794C124.933 55.2349 125.116 55.746 125.462 55.9833C125.827 56.2389 126.302 56.2754 126.667 56.4944C127.05 56.7317 127.361 57.0238 127.726 57.2246C128.127 57.4436 128.328 57.9912 128.712 58.1555C129.131 58.338 129.569 58.4293 129.953 58.5571C130.391 58.7031 130.847 58.6666 131.249 58.7396C131.65 58.8126 132.07 58.8856 132.399 59.1047C132.727 59.3237 132.508 59.9626 132.727 60.3094C133.074 60.857 133.092 60.8388 133.439 61.4046C133.786 61.9705 134.096 61.7697 134.443 62.3173C134.79 62.8649 135.301 62.5546 135.648 63.1204C135.995 63.6863 135.173 64.1791 135.52 64.7267C135.867 65.2743 135.922 65.2561 136.268 65.8037C136.615 66.3513 136.597 66.3696 136.926 66.9354C137.254 67.5013 137.729 67.2092 138.076 67.7751C138.422 68.3409 138.295 68.4139 138.641 68.9798C138.988 69.5456 138.86 69.6187 139.207 70.1845C139.554 70.7504 139.353 71.0242 139.864 71.444C140.047 71.0607 140.741 70.5678 140.923 70.1663C141.106 69.7647 140.576 69.0528 140.777 68.6695C140.978 68.2862 141.744 68.1766 141.927 67.7933C142.11 67.41 142.548 67.1362 142.748 66.7529C142.949 66.3695 142.803 65.8037 143.004 65.4204C143.205 65.037 143.552 64.7085 143.734 64.3434C143.935 63.9418 144.245 63.6133 144.446 63.2482C144.665 62.8466 144.154 62.08 144.336 61.7332C144.574 61.2951 145.614 61.3681 145.797 61.0395C146.144 60.4007 145.797 59.6705 145.833 59.5975C146.016 59.2689 146.618 59.342 146.892 59.1047C147.166 58.8674 147.367 58.7213 147.713 58.6118C147.841 58.5753 148.133 58.0095 148.79 57.7722C149.137 57.6444 149.484 57.3523 149.94 57.1881C150.305 57.042 150.78 57.0785 151.218 56.896C151.583 56.7317 152.149 56.9143 152.551 56.7317C152.916 56.5674 153.39 56.4944 153.773 56.2936C154.139 56.1111 154.285 55.3992 154.668 55.1984C155.033 54.9977 155.234 54.4683 155.617 54.2675C156 54.0667 156.438 54.0302 156.822 53.8112C157.205 53.5921 157.406 53.1358 157.771 52.9168C158.136 52.6977 158.976 53.2088 159.341 52.9715C159.706 52.7342 159.961 52.3509 160.308 52.0953C160.655 51.8398 160.582 51.0184 160.929 50.7628C161.276 50.5073 161.787 50.489 162.134 50.2152C162.48 49.9414 163.174 50.1057 163.503 49.8137C163.831 49.5216 164.196 49.2661 164.507 48.974C164.817 48.6819 164.452 47.6963 164.762 47.386C165.072 47.0757 165.894 47.2764 166.186 46.9479C166.478 46.6193 166.387 45.9804 166.66 45.6519C166.934 45.3233 167.372 45.1225 167.628 44.7757C167.883 44.4289 168.541 44.3559 168.778 43.9908C169.015 43.6258 169.125 43.1694 169.344 42.7861C169.563 42.4028 169.161 41.7091 169.362 41.3258C169.563 40.9425 170.147 40.7417 170.311 40.3401C170.475 39.9386 170.877 39.6282 171.023 39.2084C171.169 38.7886 171.023 38.2957 171.133 37.8759C171.242 37.4561 171.023 36.9632 171.133 36.5434C171.242 36.1236 171.753 35.795 171.808 35.3569C171.863 34.9188 171.68 34.4808 171.735 34.0427C171.79 33.6046 171.735 33.1848 171.735 32.7467C171.735 32.3086 171.698 31.907 171.68 31.4689C171.662 31.0309 172.283 30.5745 172.246 30.1364C172.209 29.6984 171.954 29.2968 171.899 28.8587C171.844 28.4389 171.571 28.0373 171.498 27.6357C171.425 27.2341 171.096 26.8508 170.986 26.4492C170.877 26.0477 170.84 25.6096 170.731 25.208C170.621 24.8064 170.348 24.4596 170.202 24.058C170.056 23.6565 170.402 23.0724 170.256 22.6708C170.11 22.2692 169.362 22.1414 169.179 21.7581C168.997 21.3748 169.307 20.7542 169.106 20.3708C168.906 19.9875 168.778 19.5677 168.577 19.2026C168.376 18.8376 168.322 18.3447 168.084 17.9796C167.847 17.6146 167.099 17.6146 166.843 17.2678C166.587 16.9209 166.733 16.2821 166.46 15.9535C166.186 15.6249 165.255 15.8622 164.981 15.5519C164.707 15.2416 164.616 14.767 164.324 14.4567C164.032 14.1464 164.141 13.4345 163.831 13.1425C163.521 12.8504 162.845 12.96 162.535 12.6861C162.225 12.4123 161.732 12.3576 161.385 12.102C161.038 11.8465 160.929 11.3171 160.582 11.0616C160.235 10.806 159.907 10.5505 159.542 10.3315C159.177 10.1124 158.957 9.65607 158.592 9.43703C158.227 9.21799 157.826 9.07197 157.442 8.87118C157.059 8.67039 156.566 8.7069 156.183 8.54261C155.8 8.37833 155.252 8.57912 154.869 8.41484C154.485 8.25056 154.212 7.81248 153.81 7.66645C153.372 7.52042 152.97 7.31963 152.532 7.17361C152.094 7.02758 151.747 6.51648 151.309 6.40696C150.871 6.29744 150.378 6.24268 149.94 6.16967C149.502 6.09665 148.936 6.53473 148.498 6.47997C148.06 6.42521 147.64 5.93237 147.184 5.89586C146.728 5.85936 146.235 6.46172 145.778 6.44347C145.322 6.42521 144.884 5.98713 144.428 5.98713L144.245 6.04189Z" fill="black"/>
<path d="M187.506 81.2279C187.104 81.2279 186.794 81.1001 186.41 80.9176C185.936 80.6985 185.443 80.6073 185.169 80.2057C184.895 79.8041 184.676 79.3295 184.64 78.8184C184.603 78.3073 185.169 78.0518 185.388 77.5772C185.662 76.9931 185.206 76.7741 185.48 76.1899C185.753 75.6058 185.699 75.5876 185.991 75.0035C186.283 74.4194 186.246 74.4194 186.52 73.8353C186.794 73.2511 187.323 73.5067 187.597 72.9226C187.871 72.3385 187.597 72.2107 187.852 71.6266C188.108 71.0425 188.291 71.1155 188.564 70.5496C188.838 69.9838 188.729 69.9108 189.002 69.3449C189.276 68.779 189.495 68.8521 189.769 68.2679C190.043 67.6838 189.422 67.3918 189.696 66.8077C189.97 66.2236 190.518 66.4791 190.791 65.895C191.065 65.3109 190.518 65.0553 190.791 64.4712C191.065 63.8871 191.521 64.1062 191.795 63.5221C192.069 62.9379 191.96 62.8832 192.233 62.2991C192.507 61.715 192.489 61.6967 192.763 61.1126C193.036 60.5285 193.237 60.6198 193.511 60.0357C193.785 59.4515 193.365 59.2508 193.639 58.6666C193.913 58.0825 194.168 58.192 194.442 57.6079C194.716 57.0238 194.515 56.9326 194.789 56.3302C195.063 55.7278 195.099 55.7643 195.373 55.1802C195.647 54.5961 195.628 54.5779 195.902 53.9938C196.176 53.4096 196.559 53.5739 196.833 52.9898C197.107 52.4057 197.016 52.3509 197.308 51.7668C197.6 51.1827 197.235 51.0002 197.509 50.4161C197.728 49.9415 198.074 49.5034 198.476 49.2296C198.878 48.9558 199.443 49.0288 199.936 48.9923C200.429 48.9558 201.104 48.4447 201.561 48.6637C202.035 48.8828 202.254 49.6129 202.528 50.0145C202.802 50.4161 203.112 50.9089 203.149 51.4018C203.185 51.8946 203.149 52.497 202.93 52.9533C202.656 53.5374 202.072 53.2636 201.798 53.8477C201.524 54.4318 201.853 54.5961 201.579 55.1802C201.305 55.7643 200.958 55.6001 200.685 56.1842C200.411 56.7683 200.849 56.9691 200.575 57.5532C200.301 58.1373 200.466 58.2103 200.192 58.7944C199.918 59.3785 199.316 59.0865 199.042 59.6706C198.768 60.2547 199.243 60.4737 198.969 61.0578C198.695 61.6419 198.403 61.5142 198.129 62.0983C197.855 62.6824 197.728 62.6276 197.454 63.2117C197.18 63.7959 197.527 63.9601 197.253 64.5442C196.979 65.1284 196.687 64.9823 196.395 65.5664C196.103 66.1506 196.304 66.2418 196.012 66.8259C195.72 67.41 195.921 67.5013 195.647 68.0854C195.373 68.6695 195.592 68.779 195.318 69.3631C195.044 69.9473 194.935 69.8925 194.661 70.4949C194.387 71.0972 194.606 71.1885 194.332 71.7726C194.059 72.3567 194.004 72.3385 193.712 72.9226C193.42 73.5067 192.836 73.2329 192.562 73.817C192.288 74.4011 192.598 74.5471 192.325 75.1312C192.051 75.7154 192.014 75.6971 191.74 76.2995C191.467 76.9018 191.649 76.9748 191.375 77.559C191.102 78.1431 191.266 78.2343 190.974 78.8184C190.682 79.4025 190.025 79.0922 189.733 79.6764C189.568 80.0049 189.933 80.7168 189.678 80.9541C189.422 81.1914 189.039 81.5747 188.692 81.7025C188.345 81.8303 187.834 81.2644 187.469 81.2644L187.506 81.2279Z" fill="black"/>
<path d="M196.103 100.047C195.647 100.047 195.373 99.3355 194.953 99.1164C194.533 98.8974 193.858 99.0799 193.584 98.6966C193.274 98.2768 193.256 97.6744 193.201 97.1816C193.146 96.6887 193.42 96.2506 193.639 95.7943C193.858 95.338 194.022 94.8999 194.442 94.6078C194.972 94.2245 195.191 94.5531 195.72 94.1697C196.249 93.7864 195.756 93.0928 196.286 92.7095C196.815 92.3261 197.144 92.7825 197.673 92.3991C198.202 92.0158 197.892 91.5777 198.421 91.2127C198.951 90.8476 199.097 91.0301 199.626 90.6468C200.156 90.2635 200.502 90.7563 201.032 90.373C201.561 89.9897 201.598 90.0262 202.127 89.6611C202.656 89.2961 202.583 89.1683 203.113 88.785C203.642 88.4017 203.167 87.7445 203.715 87.3612C204.263 86.9779 204.682 87.5985 205.212 87.2152C205.741 86.8319 205.394 86.339 205.924 85.9739C206.453 85.6089 206.526 85.7001 207.055 85.3168C207.585 84.9335 207.694 85.0795 208.224 84.6962C208.753 84.3129 208.497 83.9478 209.045 83.5827C209.593 83.2177 209.921 83.6923 210.469 83.3089C211.016 82.9256 210.743 82.5605 211.272 82.1772C211.692 81.8669 212.44 82.4693 212.933 82.4145C213.426 82.3597 213.973 81.8487 214.43 82.0677C214.886 82.2867 214.813 83.0169 215.105 83.4367C215.415 83.8565 216.073 84.0573 216.109 84.5502C216.146 85.043 215.689 85.4446 215.488 85.9009C215.288 86.3573 215.434 87.1604 215.014 87.4525C214.484 87.8358 214.083 87.2699 213.554 87.635C213.024 88.0001 213.134 88.1643 212.586 88.5477C212.038 88.931 211.874 88.6754 211.345 89.0588C210.816 89.4421 211.363 90.2087 210.834 90.5921C210.304 90.9754 210.012 90.5555 209.483 90.9389C208.954 91.3222 208.826 91.1397 208.297 91.523C207.767 91.9063 208.059 92.3261 207.53 92.6912C207.001 93.0563 206.781 92.746 206.234 93.1293C205.686 93.5126 205.759 93.5856 205.212 93.9689C204.664 94.3523 204.993 94.7904 204.463 95.1554C203.934 95.5205 203.35 94.7173 202.821 95.1007C202.291 95.484 202.492 95.7578 201.944 96.1229C201.397 96.4879 201.488 96.634 200.959 96.999C200.429 97.3641 200.393 97.3458 199.863 97.7292C199.334 98.1125 199.608 98.5141 199.06 98.8791C198.513 99.2442 198.129 98.7148 197.6 99.0982C197.089 99.4632 196.633 100.066 196.067 100.066L196.103 100.047Z" fill="black"/>
<path d="M84.4468 115.161C84.8119 115.216 85.1222 114.905 85.4873 114.778C85.8341 114.65 86.1444 114.595 86.4182 114.303C86.7285 113.975 86.8015 113.609 86.911 113.208C87.0206 112.806 87.3674 112.368 87.2578 111.948C87.1483 111.529 87.0571 110.963 86.765 110.634C86.3452 110.178 86.2722 110.251 85.8523 109.795C85.4325 109.338 85.3595 109.411 84.9397 108.955C84.5198 108.499 84.4103 108.59 83.9905 108.133C83.5707 107.677 83.4794 107.75 83.0596 107.294C82.6397 106.837 82.6945 106.783 82.2564 106.326C81.8183 105.87 82.0921 105.633 81.6723 105.176C81.2525 104.72 81.0334 104.921 80.6136 104.465C80.1938 104.008 80.3581 103.862 79.92 103.406C79.4819 102.949 79.3359 103.096 78.916 102.639C78.4962 102.183 78.7518 101.946 78.3137 101.489C77.8756 101.033 77.3827 101.489 76.9447 101.051C76.5066 100.613 76.8716 100.248 76.4336 99.7916C75.9955 99.3353 75.8312 99.4996 75.3931 99.025C74.955 98.5504 75.2653 98.2766 74.8455 97.8203C74.5535 97.4917 73.8598 97.729 73.4765 97.6377C73.0932 97.5465 72.7099 97.3639 72.3083 97.4917C71.925 97.6195 71.6877 97.9298 71.3956 98.2583C71.0853 98.5869 70.9393 98.9155 70.8297 99.317C70.7202 99.7186 70.4647 100.157 70.556 100.577C70.6472 100.996 70.921 101.38 71.2131 101.708C71.6329 102.165 71.3956 102.384 71.8154 102.84C72.2353 103.296 72.7464 102.822 73.1662 103.278C73.586 103.734 73.4217 103.899 73.8416 104.337C74.2614 104.775 74.3344 104.738 74.7542 105.195C75.1741 105.651 75.2288 105.596 75.6487 106.053C76.0685 106.509 75.9407 106.637 76.3606 107.093C76.7804 107.549 76.4701 107.841 76.8899 108.298C77.3097 108.754 77.7296 108.371 78.1494 108.827C78.5692 109.283 78.5875 109.265 79.0256 109.722C79.4636 110.178 79.0803 110.525 79.5184 110.981C79.9565 111.437 80.0295 111.364 80.4676 111.821C80.9057 112.277 81.0699 112.131 81.4898 112.587C81.9096 113.044 81.8366 113.117 82.2747 113.591C82.7127 114.066 82.6032 114.157 83.023 114.613C83.3699 114.997 83.954 115.106 84.4103 115.179L84.4468 115.161Z" fill="black"/>
<path d="M78.6787 120.273C79.0438 120.218 79.2263 119.816 79.5366 119.579C79.8104 119.36 80.1025 119.196 80.2668 118.831C80.4493 118.429 80.4128 118.064 80.3763 117.626C80.3398 117.188 80.5406 116.695 80.3033 116.312C80.066 115.928 79.7922 115.435 79.4088 115.235C78.8612 114.943 78.8247 115.016 78.2771 114.724C77.7295 114.431 77.693 114.504 77.1454 114.212C76.5978 113.92 76.5248 114.048 75.9772 113.738C75.4296 113.428 75.3748 113.537 74.8272 113.245C74.2796 112.953 74.3161 112.88 73.7685 112.588C73.2209 112.296 73.3852 111.967 72.8376 111.675C72.29 111.383 72.144 111.639 71.5964 111.347C71.0488 111.055 71.1583 110.854 70.6107 110.562C70.0631 110.27 69.9535 110.452 69.4059 110.142C68.8583 109.832 69.0226 109.54 68.475 109.229C67.9274 108.919 67.5989 109.54 67.033 109.229C66.4671 108.919 66.7044 108.499 66.1568 108.207C65.6092 107.915 65.4815 108.116 64.9339 107.824C64.3863 107.532 64.587 107.148 64.0212 106.856C63.6379 106.655 63.072 107.094 62.6704 107.112C62.2689 107.13 61.849 107.094 61.5205 107.331C61.2101 107.568 61.0824 107.933 60.8998 108.335C60.7173 108.736 60.6808 109.101 60.7173 109.521C60.7538 109.941 60.6443 110.434 60.8633 110.799C61.0824 111.164 61.4657 111.456 61.849 111.657C62.3966 111.949 62.2323 112.241 62.7799 112.533C63.3276 112.825 63.6561 112.223 64.2037 112.515C64.7513 112.807 64.6418 113.008 65.1894 113.3C65.737 113.592 65.7735 113.519 66.3211 113.829C66.8687 114.139 66.9052 114.066 67.4528 114.358C68.0004 114.65 67.9092 114.815 68.4568 115.107C69.0044 115.399 68.8036 115.782 69.3512 116.093C69.8988 116.403 70.1543 115.892 70.7019 116.202C71.2495 116.512 71.2678 116.476 71.8154 116.768C72.363 117.06 72.1257 117.516 72.6733 117.808C73.2209 118.1 73.2757 118.009 73.8233 118.301C74.3709 118.593 74.4804 118.392 75.0463 118.703C75.6121 119.013 75.5574 119.104 76.105 119.396C76.6526 119.688 76.5978 119.816 77.1454 120.127C77.6018 120.364 78.1859 120.291 78.6422 120.218L78.6787 120.273Z" fill="black"/>
<path d="M171.151 125.055C175.486 125.055 179 121.541 179 117.206C179 112.871 175.486 109.357 171.151 109.357C166.816 109.357 163.302 112.871 163.302 117.206C163.302 121.541 166.816 125.055 171.151 125.055Z" fill="white"/>
<path d="M171.151 122.518C174.085 122.518 176.463 120.139 176.463 117.206C176.463 114.272 174.085 111.894 171.151 111.894C168.218 111.894 165.839 114.272 165.839 117.206C165.839 120.139 168.218 122.518 171.151 122.518Z" fill="black"/>
<path d="M174.218 118.483C174.923 118.483 175.495 117.911 175.495 117.206C175.495 116.5 174.923 115.928 174.218 115.928C173.512 115.928 172.94 116.5 172.94 117.206C172.94 117.911 173.512 118.483 174.218 118.483Z" fill="white"/>
<path d="M142.073 126.934C146.408 126.934 149.922 123.42 149.922 119.085C149.922 114.75 146.408 111.236 142.073 111.236C137.738 111.236 134.224 114.75 134.224 119.085C134.224 123.42 137.738 126.934 142.073 126.934Z" fill="white"/>
<path d="M142.073 124.397C145.007 124.397 147.385 122.019 147.385 119.085C147.385 116.152 145.007 113.773 142.073 113.773C139.14 113.773 136.762 116.152 136.762 119.085C136.762 122.019 139.14 124.397 142.073 124.397Z" fill="black"/>
<path d="M145.14 120.363C145.845 120.363 146.417 119.791 146.417 119.085C146.417 118.379 145.845 117.807 145.14 117.807C144.434 117.807 143.862 118.379 143.862 119.085C143.862 119.791 144.434 120.363 145.14 120.363Z" fill="white"/>
</svg>
