<svg width="139" height="50" viewBox="0 0 139 50" fill="none" xmlns="http://www.w3.org/2000/svg">
<path d="M66.2354 20.0446H62.5091V23.8823H57.7725V11.332H67.7566L67.5684 14.4782H62.5129V17.0444H66.2392V20.0408L66.2354 20.0446Z" fill="black"/>
<path d="M73.761 23.8862H69.0244V11.3359H73.761V23.8862Z" fill="black"/>
<path d="M83.4264 15.8497L84.7172 18.0048H84.7748L84.625 15.5885V11.3359H88.5971V23.8862H83.9719L80.8065 19.3916L79.5158 17.2173H79.4428L79.5926 19.8219V23.8862H75.6396V11.3359H80.1919L83.4303 15.8497H83.4264Z" fill="black"/>
<path d="M95.9768 11.1133C100.698 11.1133 103.207 14.0175 103.207 17.5555C103.207 21.6199 100.191 24.1092 95.7347 24.1092C93.5067 24.1092 91.559 23.9786 90.4526 23.8287V11.4129C92.1928 11.2247 93.8409 11.1133 95.9768 11.1133ZM95.1892 14.3901V20.8131C95.4889 20.8324 95.7885 20.8516 96.1074 20.8516C96.649 20.8516 97.0447 20.6825 97.3251 20.4405C97.9436 19.9526 98.2817 18.9807 98.2817 17.6516C98.2817 15.5541 97.475 14.3747 95.996 14.3747C95.6963 14.3747 95.4351 14.3939 95.1892 14.3939V14.3901Z" fill="black"/>
<path d="M75.3745 39.379C75.4859 40.1665 75.5973 40.954 75.5973 41.7377H71.3255L70.7992 37.4659L70.5918 33.682H70.5149L68.9783 41.7339L63.8076 41.7531L62.8165 37.4659L62.2364 33.682H62.1634L61.4528 41.7339H57.2578C57.2578 40.8157 57.4076 39.8784 57.519 38.9603L58.829 29.1836H64.6912L66.078 34.3159L66.6004 36.7322H66.6926L68.1332 29.1836H73.9954L75.3629 39.3713L75.3745 39.379Z" fill="black"/>
<path d="M88.5968 31.4579L85.0396 37.6966V41.7417H80.3029V37.6966L76.7457 31.4579C76.2386 30.5398 75.939 29.8675 75.939 29.1914H80.883L82.0816 32.0572L82.773 33.9472H82.9037L84.7207 29.1914H89.4419C89.4419 29.8637 89.1423 30.5206 88.6006 31.4579H88.5968Z" fill="black"/>
<path d="M111.408 39.379C111.519 40.1665 111.63 40.954 111.63 41.7377H107.359L106.832 37.4659L106.625 33.682H106.548L105.012 41.7339L99.8408 41.7531L98.8497 37.4659L98.2696 33.682H98.1967L97.486 41.7339H93.291C93.291 40.8157 93.4408 39.8784 93.5522 38.9603L94.8622 29.1836H100.724L102.111 34.3159L102.634 36.7322H102.726L104.166 29.1836H110.029L111.396 39.3713L111.408 39.379Z" fill="black"/>
<path d="M117.72 41.7378H112.983V29.1875H117.72V41.7378Z" fill="black"/>
<path d="M125.848 33.3094H125.96L127.685 29.1874H132.421C132.421 29.9173 132.045 30.4628 131.503 31.4155L129.198 35.2916L131.837 39.5058C132.437 40.4623 132.794 41.004 132.794 41.7339H127.738L125.622 37.7079H125.491L123.636 41.7339H118.765C118.765 41.004 119.176 40.4047 119.721 39.5058L122.211 35.3838L120.036 31.4117C119.514 30.4359 119.137 29.9135 119.137 29.1836H124.139L125.845 33.3056L125.848 33.3094Z" fill="black"/>
<path d="M138.526 41.7378H133.789V29.1875H138.526V41.7378Z" fill="black"/>
<path d="M21.7157 3.82138C9.91068 4.29005 0.376 13.9092 0.0110551 25.7219C-0.157972 31.1846 1.62066 36.2324 4.70156 40.2276L1.72053 43.3354C0.214655 44.9065 0.256913 47.4189 1.85499 48.8941C1.88572 48.9248 1.9203 48.9555 1.95103 48.9824C3.51453 50.4153 5.94238 50.3193 7.40984 48.7903L10.5253 45.5404C14.0288 47.7685 18.1776 49.0669 22.6261 49.0669C35.1034 49.0669 45.2566 38.9138 45.2566 26.4326C45.2566 13.9515 34.604 3.31046 21.7119 3.82138H21.7157ZM22.63 43.343C19.1496 43.343 15.9111 42.2828 13.2182 40.4734C8.70059 37.4348 5.72341 32.2756 5.72341 26.4326C5.72341 23.0674 6.71068 19.9289 8.41632 17.2898C11.4281 12.6223 16.6756 9.52605 22.63 9.52605C31.9534 9.52605 39.5366 17.1092 39.5366 26.4326C39.5366 35.756 31.9495 43.343 22.63 43.343Z" fill="#DD198E"/>
<path d="M39.0143 38.9063C39.0143 39.6438 38.7262 40.3737 38.1615 40.9231C37.1435 41.9103 35.5531 41.9833 34.4468 41.0959L30.8818 38.2302L30.5899 37.9958L28.3579 36.198L30.2672 38.1533C29.4297 38.5605 28.4885 38.9332 27.4436 39.2558L29.9752 42.6133C30.828 43.7428 30.7051 45.3331 29.6871 46.3204C28.6691 47.3039 27.0787 47.3807 25.9762 46.4933L18.4929 40.4775L15.9267 38.4107L18.0012 40.4775H13.2185C8.70082 37.4388 5.72363 32.2796 5.72363 26.4367C5.72363 23.0715 6.71091 19.933 8.41655 17.2938L16.5337 17.2285C16.4991 17.5935 16.4799 17.9584 16.4799 18.331C16.4799 23.7591 20.0833 28.4573 25.2847 30.6508C27.2938 31.4998 29.5373 31.9723 31.9037 31.9723C32.7411 31.9723 33.5594 31.9108 34.3584 31.7994C35.2957 31.6688 36.2062 31.4575 37.0782 31.181C36.9245 31.5843 36.7133 32.0568 36.4213 32.5831C36.2331 32.9212 36.0103 33.2784 35.749 33.6472L38.4419 37.2198C38.8223 37.7231 39.0066 38.3185 39.0066 38.9101L39.0143 38.9063Z" fill="black"/>
<path d="M42.8982 9.45339L39.4639 1.53215C38.5342 -0.611422 35.4495 -0.469285 34.7196 1.75112L33.5364 5.35447C33.0408 5.31222 32.5414 5.28533 32.0344 5.28533C31.5273 5.28533 31.0279 5.30838 30.5323 5.35063L29.3491 1.74728C28.6192 -0.473127 25.5345 -0.611422 24.6048 1.52831L21.1705 9.4457C18.7081 11.7737 17.2061 14.893 17.2061 18.3235C17.2061 25.5263 23.8442 31.3655 32.0344 31.3655C40.2245 31.3655 46.8588 25.5263 46.8588 18.3235C46.8588 14.8968 45.3529 11.7737 42.8944 9.4457L42.8982 9.45339Z" fill="black"/>
<path d="M27.9317 5.79615C26.9405 6.04585 25.9878 6.38391 25.0928 6.80647C25.8073 5.16998 26.7907 3.26074 26.7907 3.26074L27.9317 5.79999V5.79615Z" fill="white"/>
<path d="M39.0064 6.81403C38.1152 6.39146 37.1625 6.05341 36.1714 5.79986L37.3162 3.25293C37.3162 3.25293 38.3418 5.239 39.0064 6.81019V6.81403Z" fill="white"/>
<path d="M35.1382 13.9748C34.8309 12.6994 33.7899 12.6649 34.0434 14.8776C34.2969 17.0865 33.5094 18.1544 31.9306 18.8497C30.3517 19.5489 28.0698 20.1558 29.3375 22.8872C30.6052 25.6185 33.4749 26.2908 36.7248 24.9808C39.9747 23.6708 40.1361 19.9599 38.296 18.3811C36.4559 16.8022 35.6146 15.9571 35.1421 13.971L35.1382 13.9748Z" fill="#F9F9F9"/>
<path d="M35.0957 20.4041C36.0111 20.3042 36.7115 19.8419 36.6602 19.3716C36.6088 18.9013 35.8252 18.601 34.9098 18.7009C33.9945 18.8008 33.2941 19.2631 33.3454 19.7334C33.3967 20.2038 34.1804 20.504 35.0957 20.4041Z" fill="black"/>
<path d="M37.9501 20.7129C37.9271 20.5131 37.7465 20.371 37.5506 20.3941C37.3508 20.4171 37.2087 20.5938 37.2317 20.7936C37.2586 21.0202 37.1895 21.2469 37.0474 21.4274C36.9052 21.608 36.6978 21.7194 36.4711 21.7424C36.2445 21.7693 36.0178 21.7002 35.8411 21.558C35.6606 21.4159 35.5492 21.2085 35.5261 20.9818C35.5031 20.782 35.3225 20.6399 35.1266 20.663C34.9268 20.686 34.7847 20.8627 34.8077 21.0625C34.8577 21.535 34.5158 21.9614 34.0471 22.0113C33.5746 22.0651 33.152 21.7194 33.0983 21.2507C33.0752 21.051 32.8947 20.9088 32.6987 20.9319C32.499 20.9549 32.3568 21.1316 32.3799 21.3314C32.4682 22.1419 33.1559 22.7412 33.9511 22.7412C34.0087 22.7412 34.0663 22.7412 34.1239 22.7335C34.6157 22.6798 35.0229 22.4032 35.2726 22.0152C35.311 22.0536 35.3456 22.0959 35.3878 22.1266C35.6721 22.3532 36.0178 22.4762 36.3751 22.4762C36.4327 22.4762 36.4903 22.4762 36.5518 22.4685C36.9705 22.4224 37.347 22.2149 37.6121 21.8884C37.8771 21.558 37.9962 21.147 37.9501 20.7283V20.7129Z" fill="black"/>
<path d="M39.2869 16.1568C40.6384 16.1568 41.734 15.0612 41.734 13.7097C41.734 12.3583 40.6384 11.2627 39.2869 11.2627C37.9354 11.2627 36.8398 12.3583 36.8398 13.7097C36.8398 15.0612 37.9354 16.1568 39.2869 16.1568Z" fill="white"/>
<path d="M39.2865 15.3689C40.203 15.3689 40.946 14.6259 40.946 13.7093C40.946 12.7928 40.203 12.0498 39.2865 12.0498C38.37 12.0498 37.627 12.7928 37.627 13.7093C37.627 14.6259 38.37 15.3689 39.2865 15.3689Z" fill="black"/>
<path d="M40.0665 13.8371C40.2872 13.8371 40.466 13.6583 40.466 13.4376C40.466 13.217 40.2872 13.0381 40.0665 13.0381C39.8459 13.0381 39.667 13.217 39.667 13.4376C39.667 13.6583 39.8459 13.8371 40.0665 13.8371Z" fill="white"/>
<path d="M29.8216 18.1353C31.173 18.1353 32.2686 17.0397 32.2686 15.6883C32.2686 14.3368 31.173 13.2412 29.8216 13.2412C28.4701 13.2412 27.3745 14.3368 27.3745 15.6883C27.3745 17.0397 28.4701 18.1353 29.8216 18.1353Z" fill="white"/>
<path d="M29.8216 17.3484C30.7382 17.3484 31.4812 16.6054 31.4812 15.6888C31.4812 14.7723 30.7382 14.0293 29.8216 14.0293C28.9051 14.0293 28.1621 14.7723 28.1621 15.6888C28.1621 16.6054 28.9051 17.3484 29.8216 17.3484Z" fill="black"/>
<path d="M30.6012 15.8156C30.8218 15.8156 31.0007 15.6368 31.0007 15.4161C31.0007 15.1955 30.8218 15.0166 30.6012 15.0166C30.3805 15.0166 30.2017 15.1955 30.2017 15.4161C30.2017 15.6368 30.3805 15.8156 30.6012 15.8156Z" fill="white"/>
</svg>
