<svg width="128" height="118" viewBox="0 0 128 118" fill="none" xmlns="http://www.w3.org/2000/svg">
<path d="M28.2373 85.0897C20.9672 81.5667 4.24516 61.8366 2.90675 57.3314C1.56834 52.8262 -1.52588 39.4984 6.61203 28.5065C14.7482 17.5078 15.6993 13.8716 32.007 9.25293C48.3146 4.63427 63.1329 4.39211 70.5492 8.46676C77.9655 12.5414 86.9312 16.3493 92.0713 25.7434C97.2115 35.1376 98.611 55.9779 94.7391 63.0453C90.8671 70.1126 85.1291 72.3683 80.1823 81.4918C75.2354 90.6154 74.9113 100.501 72.6365 103.055C70.3684 105.607 68.0552 105.22 64.6948 101.452C61.3411 97.6831 61.5827 93.0542 53.4711 90.7839C45.3528 88.5153 43.311 87.1415 38.8236 87.5967C34.3363 88.052 28.2458 85.0946 28.2458 85.0946L28.2373 85.0897Z" fill="#F5F4F4"/>
<path d="M52.6264 69.782C37.194 65.2909 30.056 59.4144 26.8074 55.7973C23.5588 52.1801 19.7163 46.3228 23.9619 41.3164C28.2142 36.3082 31.1288 33.0442 37.5796 35.2148C44.0303 37.3855 48.5891 38.0417 53.3256 33.0131C58.0621 27.9846 60.7216 24.4643 67.5604 29.2392C74.4059 34.0124 77.6326 46.5634 75.8199 50.9968C74.0073 55.4302 69.1777 61.6283 65.877 64.577C62.5763 67.5257 52.6197 69.7838 52.6197 69.7838L52.6264 69.782Z" fill="#FFF597"/>
<path d="M56.2939 76.0385C56.116 75.992 55.5234 75.6307 54.5469 75.3424C54.0383 75.1892 53.4797 74.8477 52.8031 74.6311C52.252 74.4532 51.8302 73.7586 51.1872 73.5331C50.624 73.3368 49.9119 73.4752 49.289 73.2443C48.7222 73.0346 48.2248 72.5977 47.6154 72.3632C47.0451 72.14 46.2277 72.4791 45.6283 72.2276C45.0611 71.9892 44.4571 71.775 43.871 71.5199C43.285 71.2649 42.7619 70.9212 42.1857 70.6491C41.6096 70.377 41.3688 69.4689 40.7977 69.1883C40.2417 68.9109 39.1728 69.6047 38.6115 69.3071C38.0502 69.0095 38.1609 67.5258 37.6112 67.2179C37.0616 66.91 36.0904 67.3475 35.5506 67.0226C35.0109 66.6977 34.4415 66.4238 33.9116 66.0819C33.3818 65.74 33.0752 65.0724 32.562 64.7117C32.0487 64.3509 31.6765 63.816 31.1714 63.4315C30.6662 63.0471 29.7932 63.1489 29.3132 62.7506C28.8332 62.3522 28.3079 61.9731 27.8427 61.5492C27.3775 61.1253 27.012 60.5886 26.5702 60.1442C26.1284 59.6997 25.5362 59.3671 25.1177 58.902C24.6974 58.4303 24.7376 57.5772 24.3542 57.0812C23.9707 56.5853 22.783 56.641 22.4363 56.1209C22.0897 55.6008 22.2945 54.6897 21.9846 54.1454C21.6747 53.6012 20.848 53.2803 20.5817 52.7102C20.3153 52.14 21.4404 51.0065 21.2328 50.4135C21.0252 49.8205 19.5891 49.6181 19.4335 49.0041C19.278 48.3902 18.9601 47.7616 18.8669 47.1383C18.7687 46.5236 18.7724 45.8314 18.7397 45.192C18.707 44.5527 20.0555 43.936 20.0735 43.2976C20.0968 42.6794 20.0227 42.1015 20.1066 41.4672C20.1883 40.7976 19.5294 40.0506 19.6832 39.4627C19.8477 38.807 19.9258 38.1239 20.1526 37.567C20.4122 36.9438 20.5692 36.2325 20.8927 35.7148C21.2459 35.1459 21.4985 34.3878 21.8991 33.9432C22.3494 33.4422 22.9862 32.9925 23.4656 32.6279C24.01 32.2099 24.9109 32.295 25.4305 32.0277C26.0186 31.7206 26.5293 31.0668 27.1595 30.8637C27.7896 30.6606 28.5188 30.5321 29.1739 30.4232C29.8291 30.3143 30.532 30.0056 31.2 29.9725C31.8681 29.9394 32.535 31.2602 33.2057 31.2912C33.8763 31.3222 34.4682 31.518 35.1294 31.5948C35.7905 31.6715 36.5003 31.2529 37.152 31.3753C37.8037 31.4978 38.4838 31.4831 39.1224 31.6378C39.761 31.7924 40.6022 31.3534 41.2278 31.5404C41.8771 31.7354 42.1703 33.0041 42.781 33.2166C43.4307 33.4404 44.3281 32.9145 44.9155 33.1475C45.5656 33.4 46.2553 34.5347 46.8243 34.7799C47.1262 34.2894 47.7783 33.4901 48.1405 32.9549C48.4711 32.4641 48.8327 32.0082 49.2257 31.508C49.5886 31.0302 49.4066 30.0992 49.8202 29.6224C50.2338 29.1455 50.7986 28.859 51.2363 28.4189C51.6741 27.9789 51.6624 27.0388 52.1395 26.6387C52.6167 26.2386 53.2876 26.0535 53.7974 25.6951C54.3023 25.3453 55.1873 25.6147 55.7333 25.3115C56.2794 25.0083 56.6634 24.4745 57.234 24.2368C57.7997 24.0077 58.5579 24.505 59.1634 24.3445L59.0189 23.7996C59.6042 23.6444 60.2517 23.8328 60.9579 23.7535C61.5731 23.684 62.1547 23.6235 62.854 23.6541C63.4789 23.6756 64.2007 23.0306 64.8828 23.1594C65.504 23.2755 66.3222 22.9938 66.9836 23.2072C67.584 23.4081 67.7389 24.807 68.3661 25.1087C68.9355 25.3826 69.9413 24.8855 70.5357 25.2535C71.0772 25.5852 71.3998 26.3132 71.956 26.7274C72.4697 27.1168 73.3682 27.0298 73.8415 27.4299C74.3148 27.8301 74.3102 28.8177 74.7503 29.2554C75.2006 29.7048 76.0945 29.763 76.4928 30.2335C76.8911 30.7039 76.7225 31.6702 77.0808 32.18C77.4392 32.6898 77.9165 33.132 78.2178 33.6713C78.5192 34.2106 78.5743 34.88 78.8254 35.4471C79.0766 36.0141 80.1812 36.2972 80.3686 36.8955C80.5561 37.4939 80.5761 38.1942 80.7048 38.8152C80.8317 39.4296 81.2508 40.0601 81.3171 40.6905C81.3835 41.3209 80.0125 42.0156 80.0097 42.6572C80.0102 43.2834 81.242 43.9649 81.1851 44.592C81.1281 45.2191 80.4575 45.7857 80.3481 46.4051C80.2388 47.0245 80.4377 47.7205 80.2759 48.3322C80.114 48.9439 79.3401 49.3651 79.146 49.9638C78.9519 50.5624 79.4147 51.4118 79.1731 51.9942C78.9315 52.5767 77.6519 52.6927 77.3781 53.2621C77.1042 53.8315 77.4217 54.6762 77.1224 55.2307C76.823 55.7853 76.4452 56.2887 76.1203 56.8284C75.7954 57.3682 76.1912 58.372 75.856 58.9001C75.5208 59.4282 74.3252 59.3995 73.9644 59.9128C73.6037 60.426 73.6388 61.2375 73.266 61.7324C72.8932 62.2272 71.9557 62.303 71.5658 62.7879C71.176 63.2729 71.1896 64.1117 70.7877 64.5782C70.3858 65.0448 70.3317 65.8727 69.9212 66.3343C69.5108 66.796 68.6257 66.8794 68.2032 67.3226C67.7592 67.7931 67.1177 68.0352 66.6935 68.4717C66.2391 68.9306 66.2692 69.8586 65.8328 70.2767C65.3632 70.7324 64.451 70.6862 64.0178 71.0891C63.5262 71.5434 63.4505 72.3987 63.0255 72.7778C62.4886 73.2513 62.1475 73.8386 61.7422 74.1836C60.9347 74.8585 59.9294 74.6786 59.8109 74.7748C59.3684 75.1154 59.0161 75.6335 58.4914 75.7726C57.8187 75.951 56.9665 76.2129 56.2719 76.0371L56.2939 76.0385ZM58.9693 31.7328C58.4354 32.0544 57.8895 32.6023 57.3993 33.0347C56.9257 33.4482 56.9995 34.4871 56.5658 34.9693C56.132 35.4515 55.8514 36.0226 55.4737 36.526C55.0959 37.0294 54.8753 37.6639 54.5433 38.1767C54.1699 38.7509 54.0896 39.3986 53.8065 39.9056C53.4262 40.5897 53.0803 41.0774 52.8923 41.5088C52.6651 42.037 51.7932 42.333 51.3851 42.722C50.977 43.111 50.5752 43.8223 50.0293 44.0174C49.4835 44.2126 48.6975 44.2625 48.1331 44.2249C47.5688 44.1874 46.7143 44.1691 46.2041 43.9012C45.6513 43.6085 45.6319 42.1233 44.9931 41.8318C44.4035 41.5633 43.8186 41.1496 43.1801 40.8869C42.5416 40.6241 41.7316 40.8821 41.0886 40.6565C40.4456 40.431 39.7594 40.3682 39.1235 40.1695C38.4791 39.966 37.6684 40.4113 37.028 40.2499C36.3876 40.0885 35.9429 38.8456 35.3082 38.733C34.6211 38.6128 33.8428 39.3159 33.2089 39.2608C32.4957 39.205 31.782 38.2783 31.1718 38.3392C30.4284 38.4139 29.5628 38.6794 29.0383 38.9553C28.7785 39.0889 27.9775 39.6253 27.5912 40.4765C27.4046 40.886 27.9176 41.7076 27.8268 42.4517C27.7416 43.1079 27.4991 43.741 27.53 44.3736C27.5609 45.0062 28.3213 45.539 28.4518 46.1668C28.5822 46.7946 28.4899 47.4239 28.7212 48.025C28.9441 48.6211 28.5801 49.5024 28.8904 50.0754C29.2007 50.6483 29.8224 51.0379 30.1946 51.5728C30.5668 52.1077 30.4202 53.0754 30.8476 53.5741C31.275 54.0728 32.1441 54.1736 32.6115 54.6329C33.0789 55.0922 33.35 55.7619 33.8457 56.1921C34.3414 56.6223 34.877 57.0131 35.3924 57.4092C35.9078 57.8054 36.8554 57.6046 37.3856 57.9752C37.9159 58.3458 38.7001 58.2891 39.2519 58.6324C39.8037 58.9757 39.7004 60.3783 40.2603 60.6979C40.8202 61.0174 41.8314 60.5406 42.4012 60.8431C42.971 61.1456 43.3502 61.8155 43.9232 62.1028C44.4962 62.3901 45.3564 62.1044 45.9375 62.368C46.5186 62.6315 46.8172 63.5676 47.4014 63.8159C47.9856 64.0642 48.8423 63.7651 49.423 63.9999C50.0377 64.2546 50.3731 65.1665 50.9502 65.3879C51.5833 65.6304 52.2444 65.7071 52.8247 65.9133C53.478 66.1505 54.0077 66.6005 54.5709 66.7968C55.2596 67.0318 55.8641 66.3243 56.383 66.4892C56.8233 66.1132 57.1234 65.9689 57.6118 65.5298C58.0536 65.1319 58.2791 64.4889 58.7505 64.0399C59.1868 63.6218 60.6148 64.2008 61.0691 63.742C61.5019 63.3104 61.0358 61.9868 61.4749 61.5248C61.914 61.0627 62.7524 61.0205 63.1745 60.5486C63.5966 60.0767 63.7338 59.3995 64.1389 58.9177C64.544 58.4359 65.4174 58.3627 65.8055 57.871C66.1935 57.3794 65.9895 56.447 66.3606 55.9455C66.7316 55.4439 68.0167 55.5928 68.3689 55.0746C68.7211 54.5564 68.5144 53.668 68.8429 53.1417C69.1696 52.6087 69.5558 52.1103 69.852 51.571C70.1483 51.0316 69.6556 50.0967 69.911 49.5393C70.1665 48.982 71.3355 48.8017 71.5434 48.2282C71.768 47.6358 71.4705 46.8939 71.6309 46.3041C71.7914 45.7144 72.6031 45.2184 72.6874 44.6128C72.7716 44.0073 72.284 43.3086 72.2804 42.6975C72.2764 42.0578 71.7257 41.5558 71.6158 40.9513C71.5059 40.3468 71.9145 39.6337 71.6818 39.0546C71.4576 38.4804 71.4308 37.7819 71.0922 37.2381C70.776 36.7243 69.8647 36.6275 69.4458 36.1338C69.056 35.6683 69.099 34.7713 68.6217 34.329C68.1754 33.9218 67.3253 33.9743 66.8099 33.5782C66.1614 33.0877 65.5147 32.9567 64.9587 32.6793C64.1886 32.3003 63.8062 31.4009 63.2276 31.3095C62.1684 31.1439 61.4598 31.6485 61.1266 31.7225C60.5279 31.8812 59.5419 31.3938 58.9693 31.7328Z" fill="black"/>
<path d="M70.2503 111.327C69.6794 111.428 68.9697 111.738 68.4085 111.685C67.8473 111.633 67.5971 110.173 67.0674 109.967C66.5378 109.762 65.543 110.436 65.0839 110.09C64.6249 109.744 64.6333 108.906 64.2789 108.439L63.6609 108.905C63.3186 108.456 63.5033 107.55 63.1046 107.051C62.7385 106.593 62.5722 105.939 62.1721 105.462C61.7909 105.001 61.6412 104.328 61.2344 103.853C60.8275 103.378 59.6876 103.586 59.2893 103.116C58.8946 102.659 58.5164 102.183 58.1132 101.721C57.7099 101.259 57.7986 100.372 57.3989 99.9233C56.9993 99.4749 56.1341 99.4163 55.7362 98.9746C55.3383 98.5328 55.5496 97.4832 55.1535 97.0482C54.7265 96.5782 53.6467 96.7421 53.2591 96.3121C52.8218 95.8304 52.252 95.5278 51.8765 95.1162C51.4033 94.608 51.312 93.8834 50.9606 93.5086C50.3371 93.4651 49.709 93.4588 49.0564 93.387C48.4038 93.3152 47.7098 93.9024 47.0604 93.8154C46.4109 93.7284 45.8215 93.3518 45.1751 93.2496C44.5288 93.1473 43.9311 92.9026 43.288 92.7851C42.6448 92.6676 42.1501 91.942 41.5101 91.8093C40.8701 91.6765 40.3038 91.3875 39.6737 91.2377C39.0436 91.088 38.4742 90.8141 37.8522 90.6406C37.2302 90.4671 36.3549 91.2392 35.7378 91.0572C35.1208 90.8752 34.683 90.12 34.0673 89.9161C33.4516 89.7121 32.5266 90.4325 31.9141 90.2133C31.31 89.999 30.9739 89.0298 30.3645 88.7953C29.7551 88.5609 29.4453 87.6638 28.8459 87.4123C28.2549 87.1658 27.4453 87.4524 26.8557 87.1839C26.2661 86.9155 25.6819 86.6671 25.1022 86.3816C24.5225 86.0961 23.7557 86.1914 23.1859 85.8889C22.6161 85.5863 22.351 84.7494 21.7893 84.4231C21.2276 84.0968 20.2704 84.4514 19.7253 84.1063C19.1802 83.7612 19.1325 82.6578 18.604 82.2939C18.0688 81.9318 17.2344 82.0163 16.7158 81.6353C16.1972 81.2544 15.4613 81.1399 14.9526 80.742C14.4438 80.3441 13.9199 79.943 13.4328 79.5177C12.9456 79.0925 12.9322 78.1456 12.4616 77.7016C11.9911 77.2575 11.8407 76.527 11.3935 76.0623C10.9463 75.5977 10.3612 75.292 9.93736 74.8068C9.51352 74.3215 9.38721 73.6278 8.98671 73.122C8.58799 72.6229 8.15465 72.1834 7.77749 71.657C7.40884 71.1355 6.36302 71.0744 6.01771 70.5323C5.6724 69.9903 4.93675 69.6597 4.62151 69.0952C4.30627 68.5308 5.0835 67.3887 4.79339 66.8105C4.50327 66.2322 3.77931 65.8913 3.52104 65.2974C3.26278 64.7034 2.36665 64.365 2.14202 63.7622C1.91917 63.166 1.99824 62.4323 1.79695 61.8088C1.59566 61.1854 2.33977 60.3257 2.17212 59.6934C2.00447 59.061 1.57169 58.5421 1.43273 57.9094C1.29377 57.2766 1.21084 56.665 1.10552 56.0233C1.00019 55.3816 1.28131 54.7311 1.2029 54.0822C1.12984 53.4536 1.09262 52.8515 1.04152 52.2242C0.990425 51.597 0.0251354 51.0249 0.000947196 50.3905C-0.0232399 49.7561 0.534931 49.1185 0.534492 48.4922C0.534053 47.8659 0.555593 47.241 0.590573 46.6125C0.625554 45.9841 0.168774 45.3204 0.22572 44.6932C0.280883 44.0594 0.769032 43.4836 0.847942 42.8579C0.926853 42.2321 0.457598 41.5214 0.565201 40.8952C0.672805 40.2691 0.4806 39.5712 0.618679 38.9514C0.756758 38.3316 2.21106 38.0325 2.37288 37.4207C2.53471 36.809 2.46977 36.1567 2.65534 35.5531C2.84092 34.9495 3.14385 34.4083 3.35139 33.8061C3.56072 33.2106 3.81796 32.66 4.05103 32.0726C4.2841 31.4852 4.1744 30.7727 4.43123 30.1934C4.68805 29.6141 5.04025 29.0959 5.32261 28.5315C5.60496 27.967 5.45368 27.1791 5.75978 26.6227C6.06588 26.0664 6.50143 25.5909 6.82455 25.0445C7.14768 24.498 6.99559 23.6527 7.34425 23.1211C7.69291 22.5894 8.52391 22.3835 8.89137 21.8685C9.25883 21.3534 9.97111 21.107 10.3574 20.6086C10.7436 20.1102 10.7372 19.2983 11.1423 18.8165C11.5473 18.3347 12.0925 17.9742 12.5214 17.5005C12.9502 17.0268 13.2989 16.4951 13.7415 16.0466C14.1842 15.598 14.2428 14.7329 14.7111 14.2991C15.1793 13.8654 15.8601 13.6633 16.3404 13.248C16.8207 12.8326 17.7167 12.9263 18.2091 12.5293C18.7015 12.1324 18.7088 11.1008 19.2132 10.7223C19.7177 10.3438 20.6767 10.5935 21.2017 10.2383C21.7335 9.88133 22.1673 9.39913 22.7111 9.06055C23.2549 8.72197 24.0205 8.78539 24.5715 8.47372C25.1274 8.15353 25.2036 6.97415 25.7666 6.68087C26.3297 6.38759 27.3965 7.09834 27.9717 6.82347C28.5468 6.54859 28.6777 5.30428 29.2667 5.05453C29.8557 4.80478 30.4143 4.44065 31.0105 4.21781C31.6066 3.99496 32.4961 4.57996 33.1043 4.37552C33.7125 4.17107 34.1323 3.41896 34.7477 3.24143C35.3612 3.05716 35.862 2.42039 36.4809 2.2563C37.0998 2.09222 38.0386 3.29774 38.6597 3.16908C39.2808 3.04042 39.8946 2.99289 40.526 2.8759C41.1574 2.75891 41.7537 2.67279 42.3855 2.58449C43.0173 2.49619 43.6151 2.38811 44.254 2.32672C44.8929 2.26533 45.4172 0.902333 46.0547 0.862907C46.6923 0.823482 47.3798 1.92284 48.0159 1.90538C48.6521 1.88792 49.2722 1.80991 49.9088 1.82114C50.5454 1.83237 51.1626 1.90634 51.8028 1.93103C52.4429 1.95571 53.0849 1.63431 53.7254 1.68769C54.366 1.74107 55.0708 1.08621 55.71 1.16155C56.3492 1.2369 56.9489 1.62509 57.5782 1.71746C58.2075 1.80982 58.932 1.47374 59.5617 1.5948C60.1896 1.70913 60.7081 2.44288 61.328 2.58096C61.9478 2.71903 62.7361 2.24362 63.3546 2.40366C63.973 2.56371 64.467 3.23197 65.084 3.41398C65.7011 3.59599 66.1497 4.28343 66.7569 4.48246C67.3641 4.68149 68.0001 4.77207 68.5974 4.98813C69.1946 5.20418 69.9287 5.06716 70.5246 5.30518C71.1205 5.54319 71.3292 6.68311 71.9134 6.93142C72.4976 7.17973 73.5285 6.42401 74.1114 6.69429C74.6942 6.96456 74.8715 8.04077 75.4445 8.32807C76.0175 8.61537 77.0832 7.93683 77.6463 8.24115C78.2246 8.54863 78.6483 9.14189 79.2015 9.46324C79.7547 9.78458 80.0049 10.647 80.5482 10.9854C81.0916 11.3238 81.9655 11.1713 82.4972 11.5199C83.0288 11.8686 83.8874 11.8209 84.4024 12.1884C84.9175 12.5559 84.587 14.1339 85.0903 14.5117C85.6125 14.906 86.6764 14.5736 87.1716 14.9751C87.6669 15.3766 87.6892 16.3571 88.1679 16.7774C88.6568 17.2094 89.047 17.7035 89.5072 18.1359C89.9675 18.5683 90.4528 18.9868 90.8915 19.4465C91.3302 19.9062 91.9556 20.2012 92.3759 20.673C92.7961 21.1448 92.8879 21.8981 93.2848 22.3904C93.6938 22.9012 94.4211 23.1188 94.7947 23.6317C95.1683 24.1447 95.2143 24.8885 95.5561 25.4171C95.8978 25.9457 96.3651 26.405 96.6885 26.9457C97.0118 27.4864 97.0974 28.1621 97.3907 28.7251C97.6839 29.2882 99.0857 29.3342 99.3454 29.9061C99.605 30.4781 100.05 31.0441 100.28 31.6384C100.509 32.2327 100.582 32.9407 100.783 33.5355C100.989 34.1504 100.309 35.0362 100.478 35.6466C100.653 36.2771 101.417 36.744 101.56 37.3616C101.7 38.0011 102.164 38.5836 102.266 39.2119C102.371 39.8535 101.827 40.5956 101.9 41.2242C101.978 41.8731 102.011 42.5124 102.055 43.1414C102.099 43.7705 102.303 44.4293 102.319 45.0588C102.333 45.7102 101.658 46.3427 101.643 46.9658C101.627 47.6109 101.759 48.2455 101.713 48.8842C101.666 49.523 102.509 50.2572 102.433 50.8964C102.358 51.5356 101.305 52.0451 101.208 52.6829C101.111 53.3207 100.977 53.932 100.856 54.5617C100.735 55.1914 101.18 55.9448 101.028 56.5682C100.877 57.1915 100.363 57.7238 100.187 58.3391C100.012 58.9544 99.8131 59.5616 99.6159 60.1754C99.4186 60.7894 98.9328 61.2925 98.7168 61.8898C98.5007 62.4871 98.1641 63.0371 97.9261 63.633C97.6881 64.229 98.7256 65.3723 98.4639 65.9601C98.2021 66.5479 97.2455 66.8231 96.9667 67.401C96.6879 67.979 96.018 68.3582 95.7204 68.9195C95.4179 69.4893 95.127 70.0488 94.8124 70.6002C94.4978 71.1516 94.3758 71.832 94.0441 72.3735C93.7125 72.915 93.4663 73.5347 93.1159 74.0596C92.7655 74.5845 92.0097 74.8569 91.6422 75.3719C91.2748 75.8869 91.918 77.1996 91.5335 77.7047C91.149 78.2099 90.6494 78.6879 90.2394 79.1783C89.8293 79.6686 88.6165 79.4933 88.1926 79.9585C87.7687 80.4237 87.4155 80.9925 86.9728 81.4411C86.5301 81.8897 86.1859 82.4921 85.7293 82.9156C85.2427 83.3614 84.5136 83.4899 84.0364 83.89C83.5225 84.3142 83.5774 85.4445 83.0761 85.8078C82.5331 86.2038 81.7781 86.1807 81.2509 86.5005C80.8175 87.3642 80.4478 87.2462 80.1672 88.1702C79.8865 89.0942 79.7525 89.0506 79.4719 89.9746C79.1913 90.8986 80.4204 91.2711 80.1448 92.1866C79.8623 93.1039 79.8928 93.1102 79.6104 94.0275C79.328 94.9448 78.8651 94.8011 78.5876 95.7098C78.312 96.6253 78.0373 96.5398 77.7616 97.4553C77.4859 98.3708 76.906 98.1933 76.6303 99.1088C76.3479 100.026 77.2177 100.292 76.942 101.208C76.6663 102.123 76.9715 102.215 76.6958 103.131C76.4201 104.046 75.9962 103.914 75.7205 104.829C75.4448 105.745 75.3668 105.722 75.0844 106.639C74.8781 107.328 74.1572 107.677 73.7448 108.24C73.3325 108.803 72.7897 108.983 72.2045 109.383C71.6194 109.783 71.4835 111.036 70.7974 111.218C70.6292 111.262 70.4256 111.309 70.2538 111.34L70.2503 111.327ZM66.7088 106.225C66.7088 106.225 67.2969 105.673 67.3104 105.669C67.3238 105.666 66.6621 106.021 66.7088 106.225ZM36.3143 11.4589C35.6841 11.662 35.0561 11.9005 34.4331 12.1305C33.81 12.3605 33.3617 13.0049 32.7543 13.2668C32.1469 13.5286 31.2888 13.2521 30.6953 13.5391C30.1018 13.826 29.8779 14.8286 29.2933 15.1491C28.7087 15.4697 27.6877 15.0132 27.1169 15.3589C26.5529 15.7029 26.2895 16.5287 25.7411 16.9045C25.2111 17.2682 24.9098 17.9241 24.3986 18.3044C23.8874 18.6848 23.4206 19.0965 22.93 19.5002C22.4394 19.9038 21.5044 19.7989 21.0295 20.2345C20.5545 20.67 19.7971 20.8276 19.3477 21.2779C18.8983 21.7283 18.6001 22.3689 18.1713 22.8426C17.7425 23.3163 17.0391 23.5964 16.6358 24.0849C16.2276 24.5819 15.878 25.1642 15.502 25.6743C15.1211 26.1929 15.424 27.1998 15.0669 27.7265C14.7097 28.2532 14.7646 29.0306 14.4415 29.5771C14.1184 30.1236 12.7233 30.0758 12.4275 30.6439C12.1232 31.2069 12.2883 32.02 12.0113 32.6046C11.7343 33.1893 12.1245 34.0362 11.8797 34.6339C11.635 35.2316 11.1233 35.6913 10.909 36.2953C10.6947 36.8993 9.58513 37.2223 9.40134 37.8326C9.21754 38.4429 9.33752 39.1671 9.18599 39.7905C9.03446 40.4139 8.86454 41.0493 8.7502 41.6773C8.63588 42.3052 8.16159 42.9061 8.07101 43.5421C7.98715 44.1764 7.88531 44.8514 7.83015 45.4852C7.77499 46.119 8.66968 46.8322 8.65172 47.4706C8.62703 48.1107 8.06213 48.7501 8.06613 49.3899C8.07014 50.0296 8.10147 50.6909 8.1409 51.3285C8.18032 51.966 8.7358 52.5676 8.81064 53.2029C8.88905 53.8517 8.56479 54.5569 8.67149 55.1766C8.77819 55.7963 9.47632 56.3384 9.61844 56.956C9.76055 57.5735 10.239 58.1019 10.4215 58.7087C10.604 59.3155 9.53862 60.3756 9.76147 60.9717C9.98788 61.5813 10.4632 62.1249 10.7246 62.7036C10.9896 63.2957 11.1796 63.9581 11.4796 64.5194C11.7797 65.0807 12.0823 65.706 12.4141 66.2517C12.746 66.7973 13.4448 67.152 13.8135 67.6735C14.1821 68.195 14.513 68.7912 14.9099 69.2836C15.3154 69.7809 16.1113 69.9587 16.5451 70.4269C16.9806 70.9019 17.3227 71.4592 17.7865 71.905C18.2503 72.3509 19.1062 72.3472 19.5915 72.7657C20.0769 73.1842 20.2003 74.0299 20.7072 74.4211C21.2141 74.8123 21.4946 75.5444 22.0164 75.91C22.5466 76.2807 23.3712 76.2133 23.9145 76.5516C24.4578 76.89 24.9256 77.378 25.477 77.6926C26.0284 78.0072 26.6611 78.2211 27.2273 78.5101C27.7936 78.7992 28.6192 78.5731 29.2021 78.8434C29.785 79.1137 30.2316 79.6577 30.8176 79.9127C31.4104 80.166 31.7633 81.0084 32.3574 81.2397C32.9601 81.4759 33.8436 80.9249 34.4476 81.1392C35.0516 81.3534 35.4242 82.2699 36.0295 82.4622C36.6349 82.6545 37.3141 82.6904 37.9208 82.8608C38.5446 83.041 39.0562 83.6398 39.6594 83.7967C40.2626 83.9536 41.1491 83.1425 41.7537 83.2774C42.3973 83.4236 42.7927 84.6436 43.4022 84.77C44.0557 84.8991 44.8864 83.9589 45.4888 84.0584C46.1539 84.1772 46.795 84.1513 47.3871 84.2391C48.0689 84.3392 48.5902 85.2737 49.172 85.3499C49.8941 85.4393 50.5992 84.9211 51.1451 84.9708C52.1932 85.0674 52.8788 84.612 53.068 84.6194C53.6068 84.6422 53.8047 86.0945 54.2872 86.3122C54.7697 86.5299 54.933 86.7386 55.3014 87.1233C55.382 87.2099 55.8413 87.693 56.5628 88.4593C56.9245 88.8458 57.378 89.28 57.8529 89.7949C58.2455 90.2164 59.6372 89.7898 60.0848 90.2832C60.4894 90.7231 60.0779 91.941 60.517 92.4294C60.9234 92.8761 61.3918 93.2847 61.8206 93.7615C62.2494 94.2382 62.6006 94.7211 63.0208 95.1928C63.4308 95.653 64.1178 95.8812 64.5295 96.3481C64.9413 96.8149 65.8917 96.8149 66.2967 97.2836C66.7018 97.7522 66.8802 98.4249 67.2785 98.8953C67.6768 99.3657 67.2801 99.6077 67.6699 100.073C68.2126 99.2957 68.4373 99.5457 68.708 98.6387C68.9855 97.7299 68.3667 97.5412 68.6441 96.6324C68.9216 95.7237 69.415 95.8737 69.6875 94.9734C69.9668 94.0714 70.4687 94.2263 70.7461 93.3175C71.0236 92.4088 70.9017 92.3835 71.1742 91.4832C71.4468 90.5829 71.0789 90.4717 71.3514 89.5714C71.6239 88.6712 72.5564 88.9568 72.8357 88.0547C73.115 87.1527 72.0417 86.8252 72.321 85.9231C72.6002 85.0211 73.4395 85.281 73.7188 84.3789C73.9913 83.4787 72.9419 83.1593 73.2211 82.2573C73.3905 81.7012 74.018 81.1892 74.3934 80.7585C74.762 80.3295 75.576 80.4666 76.1009 80.2194C76.619 79.974 76.8672 79.145 77.4192 78.7827C77.9025 78.4602 78.052 77.6933 78.556 77.2861C79.0183 76.9115 80.4546 77.6035 80.926 77.1546C81.3641 76.7432 81.1577 75.6387 81.5968 75.1767C82.0126 74.7353 82.9751 74.7537 83.3918 74.2616C83.8086 73.7695 84.2686 73.3595 84.6616 72.8593C85.0546 72.3591 85.3813 71.8261 85.7488 71.3111C86.1163 70.7961 86.2504 70.1341 86.6008 69.6092C86.9512 69.0843 87.6255 68.7759 87.9504 68.2362C88.2753 67.6965 88.202 66.9311 88.5099 66.3815C88.8178 65.8318 89.454 65.4616 89.7364 64.8971C90.0187 64.3326 90.1617 63.7043 90.4204 63.1318C90.679 62.5592 91.1634 62.078 91.4067 61.5022C91.6501 60.9265 90.7205 59.8914 90.9401 59.3075C91.1597 58.7237 91.1813 58.0988 91.3704 57.5086C91.5595 56.9185 91.905 56.4021 92.0771 55.802C92.2493 55.202 93.2738 54.8296 93.4154 54.2233C93.557 53.6169 93.0654 52.876 93.1851 52.2683C93.3048 51.6605 93.0591 51.0057 93.1416 50.3934C93.2241 49.7811 93.9305 49.241 93.9825 48.6225C94.0345 48.0039 94.0915 47.3767 94.1081 46.7603C94.1229 46.1372 93.9503 45.5134 93.9315 44.8992C93.9158 44.2697 94.5444 43.5991 94.4901 42.987C94.4359 42.375 94.1956 41.7403 94.1059 41.1305C94.0162 40.5207 93.0172 40.0655 92.8853 39.4597C92.7535 38.8538 93.5536 38.0153 93.3814 37.4201C93.2092 36.825 93.0348 36.1944 92.8223 35.61C92.6097 35.0255 91.8262 34.65 91.5818 34.0812C91.3374 33.5124 91.4048 32.7889 91.1218 32.2376C90.8388 31.6862 90.5438 31.1164 90.2289 30.5807C89.9141 30.0449 89.8147 29.3441 89.4613 28.8258C89.1079 28.3074 88.8209 27.7139 88.4374 27.218C88.0539 26.722 86.586 27.1328 86.1725 26.6593C85.7692 26.1974 85.9195 25.2431 85.4893 24.7884C85.0591 24.3336 84.9136 23.5946 84.4551 23.1689C83.9967 22.7433 83.5198 22.3297 83.0447 21.9228C82.5697 21.516 81.9303 21.3039 81.4386 20.9158C80.9469 20.5278 80.3725 20.2625 79.8642 19.8932C79.356 19.524 79.1109 18.7897 78.5909 18.4308C78.0709 18.0718 76.8513 18.8488 76.3098 18.5171C75.7683 18.1855 75.3174 17.8154 74.7727 17.499C74.228 17.1826 74.2077 15.9928 73.6532 15.6934C73.0901 15.3891 72.4443 15.2075 71.8731 14.9269C71.3019 14.6464 70.627 14.5445 70.0526 14.2792C69.4783 14.0139 69.029 13.4058 68.4466 13.1642C67.8556 12.9176 66.9209 13.5471 66.3218 13.3243C65.7227 13.1015 65.2717 12.4867 64.6646 12.2876C64.0574 12.0886 63.6065 11.3657 62.9962 11.1819C62.3859 10.9981 61.7856 10.6893 61.1689 10.536C60.5523 10.3826 59.6344 11.4828 59.0096 11.3532C58.3849 11.2237 57.7757 11.126 57.1496 11.0184C56.5235 10.9108 55.9819 10.3343 55.3476 10.2505C54.7134 10.1666 54.1159 9.81384 53.482 9.75868C52.8482 9.70352 52.2363 9.05214 51.5961 9.02746C50.956 9.00277 50.2832 9.88676 49.6484 9.88226C49.0136 9.87775 48.3904 10.2158 47.7542 10.2332C47.118 10.2507 46.4658 9.85479 45.8301 9.90094C45.1943 9.9471 44.551 9.93765 43.9156 10.0125C43.2803 10.0873 42.5658 9.70076 41.9393 9.80924C41.3129 9.91772 40.6106 9.79432 39.9845 9.9315C39.3585 10.0687 38.9909 11.2893 38.372 11.4534C37.7531 11.6175 36.948 11.2693 36.3093 11.4675L36.3143 11.4589Z" fill="black"/>
<circle cx="99.0786" cy="25" r="22" fill="#DD198E"/>
<path d="M120.77 25.7917L118.161 24.7744L118.161 24.7744L120.77 25.7917ZM120.467 26.5676L123.076 27.585L123.076 27.5848L120.467 26.5676ZM120.455 26.5985L123.069 27.6029L123.069 27.6027L120.455 26.5985ZM120.171 27.3394L117.557 26.335L117.557 26.335L120.171 27.3394ZM119.886 28.0803L122.5 29.0848L122.5 29.0846L119.886 28.0803ZM119.879 28.111L122.671 28.324L122.671 28.3239L119.879 28.111ZM119.821 28.8768L117.029 28.6638V28.6638L119.821 28.8768ZM119.762 29.6426L122.554 29.8558L122.554 29.8556L119.762 29.6426ZM119.76 29.6744L122.558 29.7952L122.558 29.7951L119.76 29.6744ZM119.726 30.4641L116.929 30.3433V30.3433L119.726 30.4641ZM119.692 31.2539L122.489 31.3749L122.489 31.3747L119.692 31.2539ZM119.693 31.2876L122.485 31.0762L122.485 31.0761L119.693 31.2876ZM119.758 32.1475L116.966 32.3588V32.3588L119.758 32.1475ZM119.823 33.0074L122.615 32.7962L122.615 32.796L119.823 33.0074ZM119.815 33.0388L122.168 34.556L122.169 34.5559L119.815 33.0388ZM119.376 33.7199L117.023 32.2027L117.023 32.2027L119.376 33.7199ZM118.937 34.4009L121.29 35.9182L121.29 35.9181L118.937 34.4009ZM118.923 34.4303L121.566 35.3539L121.566 35.3538L118.923 34.4303ZM118.656 35.1923L116.013 34.2687L116.013 34.2687L118.656 35.1923ZM118.39 35.9543L121.033 36.878L121.033 36.8778L118.39 35.9543ZM118.374 35.9821L120.446 37.8651L120.446 37.865L118.374 35.9821ZM117.828 36.5822L115.756 34.6991L115.756 34.6991L117.828 36.5822ZM117.283 37.1823L119.355 39.0655L119.355 39.0654L117.283 37.1823ZM117.257 37.2034L118.679 39.6151L118.68 39.615L117.257 37.2034ZM116.525 37.6352L115.102 35.2235L115.102 35.2235L116.525 37.6352ZM115.793 38.067L117.215 40.4788L117.215 40.4787L115.793 38.067ZM115.778 38.0968L118.578 38.1135V38.1134L115.778 38.0968ZM115.771 39.1279L112.972 39.1112V39.1112L115.771 39.1279ZM115.765 40.1589L118.565 40.1757L118.565 40.1756L115.765 40.1589ZM115.742 40.1794L115.676 42.9786L115.676 42.9786L115.742 40.1794ZM114.593 40.1524L114.658 37.3532H114.658L114.593 40.1524ZM113.444 40.1255L113.378 42.9247H113.378L113.444 40.1255ZM113.416 40.1445L116.162 40.6907L116.162 40.6906L113.416 40.1445ZM113.226 41.1019L110.48 40.5557V40.5557L113.226 41.1019ZM113.035 42.0593L115.782 42.6056L115.782 42.6055L113.035 42.0593ZM113.011 42.0779L112.881 44.8749L112.881 44.8749L113.011 42.0779ZM112.005 42.0312L112.134 39.2342H112.134L112.005 42.0312ZM110.998 41.9846L110.868 44.7816L110.868 44.7816L110.998 41.9846ZM110.974 42.0068L113.734 42.4773L113.734 42.4772L110.974 42.0068ZM110.78 43.1441L108.02 42.6736V42.6736L110.78 43.1441ZM110.586 44.2813L113.346 44.7518L113.346 44.7517L110.586 44.2813ZM110.558 44.2937L109.408 46.8465L109.408 46.8466L110.558 44.2937ZM109.385 43.7653L110.535 41.2124L109.385 43.7653ZM108.212 43.2368L107.062 45.7896L107.062 45.7896L108.212 43.2368ZM108.175 43.2339L109.625 45.6293L109.625 45.6292L108.175 43.2339ZM107.538 43.6195L106.088 41.2241L106.088 41.2241L107.538 43.6195ZM106.901 44.0052L108.351 46.4006L108.351 46.4006L106.901 44.0052ZM106.883 44.0474L109.658 44.4267L109.658 44.4267L106.883 44.0474ZM106.653 45.7322L103.879 45.3528L103.879 45.3528L106.653 45.7322ZM106.423 47.4169L109.197 47.7963L109.197 47.7962L106.423 47.4169ZM106.398 47.441L105.143 49.9443L105.143 49.9443L106.398 47.441ZM105.394 46.9383L106.649 44.4351H106.649L105.394 46.9383ZM104.391 46.4357L103.137 48.9389L103.137 48.9389L104.391 46.4357ZM104.353 46.4171L103.18 48.9596L103.18 48.9596L104.353 46.4171ZM103.476 46.0126L104.649 43.4702L104.649 43.4702L103.476 46.0126ZM102.599 45.608L101.426 48.1504L101.426 48.1504L102.599 45.608ZM102.567 45.6109L104.281 47.8251L104.281 47.825L102.567 45.6109ZM101.86 46.1583L100.146 43.9442H100.146L101.86 46.1583ZM101.152 46.7058L102.866 48.92L102.866 48.9199L101.152 46.7058ZM101.122 46.7068L99.6446 49.0855L99.6446 49.0855L101.122 46.7068ZM100.323 46.2111L101.801 43.8324L101.801 43.8324L100.323 46.2111ZM99.5251 45.7153L98.0479 48.094L98.048 48.094L99.5251 45.7153ZM99.4926 45.7221L101.511 47.6626L101.511 47.6625L99.4926 45.7221ZM98.6982 46.5484L96.6797 44.6079L96.6797 44.6079L98.6982 46.5484ZM97.9039 47.3747L99.9223 49.3153L99.9224 49.3152L97.9039 47.3747ZM97.8701 47.3983L98.8685 50.0142L98.8687 50.0142L97.8701 47.3983ZM97.0114 47.7261L96.013 45.1101L96.013 45.1101L97.0114 47.7261ZM96.1526 48.0538L97.1509 50.6698L97.151 50.6697L96.1526 48.0538ZM96.1183 48.0573L95.5992 50.8088L95.5993 50.8088L96.1183 48.0573ZM95.2931 47.9016L95.8121 45.1502H95.8121L95.2931 47.9016ZM94.4679 47.746L93.9486 50.4974L93.9488 50.4974L94.4679 47.746ZM94.4367 47.7305L92.6187 49.86L92.6187 49.8601L94.4367 47.7305ZM93.7336 47.1303L95.5516 45.0008H95.5516L93.7336 47.1303ZM93.0306 46.5301L91.2125 48.6596L91.2126 48.6596L93.0306 46.5301ZM92.9971 46.5223L93.633 49.2491L93.6331 49.2491L92.9971 46.5223ZM92.0584 46.7412L91.4224 44.0144L91.4224 44.0144L92.0584 46.7412ZM91.1197 46.9602L91.7555 49.687L91.7556 49.687L91.1197 46.9602ZM91.0868 46.9532L89.2934 49.1034L89.2934 49.1035L91.0868 46.9532ZM90.4131 46.3913L92.2065 44.241L92.2065 44.241L90.4131 46.3913ZM89.7395 45.8294L87.946 47.9797L87.9461 47.9797L89.7395 45.8294ZM89.7098 45.812L88.7228 48.4323L88.7229 48.4323L89.7098 45.812ZM88.931 45.5186L89.918 42.8983H89.918L88.931 45.5186ZM88.1521 45.2252L87.165 47.8455L87.1651 47.8455L88.1521 45.2252ZM88.1276 45.2013L85.6045 46.4155L85.6046 46.4155L88.1276 45.2013ZM87.7046 44.3223L90.2276 43.1081L90.2276 43.1081L87.7046 44.3223ZM87.2816 43.4432L84.7585 44.6573L84.7585 44.6574L87.2816 43.4432ZM87.2626 43.4122L85.0681 45.1512L85.0681 45.1513L87.2626 43.4122ZM86.7549 42.7716L88.9494 41.0325H88.9494L86.7549 42.7716ZM86.2473 42.131L84.0527 43.87L84.0528 43.87L86.2473 42.131ZM86.2316 42.1L83.5474 42.897L83.5474 42.897L86.2316 42.1ZM85.971 41.2225L88.6552 40.4254L85.971 41.2225ZM85.7104 40.3449L83.0263 41.1419L83.0263 41.142L85.7104 40.3449ZM85.68 40.3307L86.0914 43.1004L86.0915 43.1003L85.68 40.3307ZM84.4487 40.5136L84.0373 37.744H84.0373L84.4487 40.5136ZM83.2173 40.6966L83.6286 43.4662L83.6287 43.4662L83.2173 40.6966ZM83.1922 40.6786L85.9922 40.6765V40.6765L83.1922 40.6786ZM83.1913 39.6185L80.3913 39.6207L83.1913 39.6185ZM83.1905 38.5584L85.9905 38.5562V38.5562L83.1905 38.5584ZM83.1664 38.5353L82.9987 41.3303L82.9988 41.3303L83.1664 38.5353ZM81.9869 38.4645L82.1546 35.6696H82.1546L81.9869 38.4645ZM80.8074 38.3938L80.6396 41.1887L80.6397 41.1887L80.8074 38.3938ZM80.776 38.3772L78.2513 39.5878L78.2513 39.5878L80.776 38.3772ZM80.4196 37.6338L82.9443 36.4231H82.9443L80.4196 37.6338ZM80.0631 36.8904L77.5383 38.101L77.5384 38.101L80.0631 36.8904ZM80.0545 36.8572L82.8467 36.6487V36.6487L80.0545 36.8572ZM79.9887 35.9759L77.1964 36.1844L79.9887 35.9759ZM79.9228 35.0945L82.7151 34.886V34.886L79.9228 35.0945ZM79.9065 35.0657L78.2679 37.3362L78.268 37.3363L79.9065 35.0657ZM79.1694 34.5338L80.8079 32.2633L80.8079 32.2633L79.1694 34.5338ZM78.4323 34.0019L76.7937 36.2724L76.7938 36.2724L78.4323 34.0019ZM78.4186 33.973L81.2108 34.1819L81.2108 34.1819L78.4186 33.973ZM78.4849 33.0872L75.6927 32.8782V32.8782L78.4849 33.0872ZM78.5512 32.2014L81.3434 32.4103L81.3434 32.4103L78.5512 32.2014ZM78.5451 32.1687L76.0513 33.4418L76.0513 33.4418L78.5451 32.1687ZM78.1799 31.4532L80.6737 30.1801L80.6737 30.1801L78.1799 31.4532ZM77.8146 30.7378L75.3208 32.0108L75.3208 32.0109L77.8146 30.7378ZM77.8106 30.706L80.5554 31.2593L80.5554 31.2593L77.8106 30.706ZM77.9804 29.8637L75.2357 29.3103H75.2357L77.9804 29.8637ZM78.1502 29.0213L80.895 29.5747L80.895 29.5746L78.1502 29.0213ZM78.1527 28.9885L75.3587 29.1712L75.3587 29.1712L78.1527 28.9885ZM78.1024 28.2194L80.8964 28.0367L78.1024 28.2194ZM78.0521 27.4504L75.2581 27.6331L75.2581 27.6331L78.0521 27.4504ZM78.057 27.4188L80.68 28.3985L80.6801 28.3985L78.057 27.4188ZM78.3474 26.6412L75.7244 25.6616H75.7244L78.3474 26.6412ZM78.6379 25.8635L81.2609 26.8432L81.2609 26.8431L78.6379 25.8635ZM78.6262 25.832L76.7619 27.9211L76.762 27.9211L78.6262 25.832ZM77.7642 25.0627L79.6284 22.9736L79.6284 22.9736L77.7642 25.0627ZM76.9021 24.2935L75.0379 26.3826L75.0379 26.3827L76.9021 24.2935ZM76.8907 24.262L79.4981 25.2827L79.4981 25.2827L76.8907 24.262ZM77.1939 23.4876L74.5866 22.4669H74.5866L77.1939 23.4876ZM77.4971 22.7132L80.1044 23.7338L80.1044 23.7338L77.4971 22.7132ZM77.5072 22.6818L80.2202 23.3745L80.2202 23.3745L77.5072 22.6818ZM77.7018 21.9198L74.9888 21.2271H74.9888L77.7018 21.9198ZM77.8963 21.1578L80.6093 21.8504L80.6093 21.8504L77.8963 21.1578ZM77.8841 21.1216L75.6845 22.8542L75.6845 22.8543L77.8841 21.1216ZM77.0897 20.1132L79.2893 18.3806L79.2893 18.3806L77.0897 20.1132ZM76.2953 19.1047L74.0958 20.8373L74.0958 20.8373L76.2953 19.1047ZM76.2975 19.072L77.8356 21.4118L77.8356 21.4118L76.2975 19.072ZM77.1997 18.479L75.6617 16.1392H75.6617L77.1997 18.479ZM78.1019 17.8859L79.64 20.2256L79.64 20.2256L78.1019 17.8859ZM78.135 17.8623L79.8596 20.0682L79.8596 20.0682L78.135 17.8623ZM78.8548 17.2995L77.1302 15.0937L77.1302 15.0937L78.8548 17.2995ZM79.5747 16.7367L81.2993 18.9426L81.2993 18.9426L79.5747 16.7367ZM79.5818 16.7038L76.9407 17.6336L76.9407 17.6336L79.5818 16.7038ZM79.2115 15.652L81.8526 14.7222V14.7222L79.2115 15.652ZM78.8412 14.6002L76.2001 15.5301L76.2001 15.5301L78.8412 14.6002ZM78.8532 14.571L79.8823 17.1751L79.8823 17.1751L78.8532 14.571ZM79.8101 14.1929L78.781 11.5888L78.781 11.5888L79.8101 14.1929ZM80.767 13.8147L81.7961 16.4187L81.7962 16.4187L80.767 13.8147ZM80.7886 13.789L83.5705 14.1065L83.5705 14.1065L80.7886 13.789ZM80.8893 12.9066L78.1074 12.589H78.1074L80.8893 12.9066ZM80.99 12.0242L83.772 12.3417L83.772 12.3417L80.99 12.0242ZM81.0043 11.995L82.9009 14.0548L82.9009 14.0548L81.0043 11.995ZM81.6012 11.4453L79.7046 9.3855L79.7046 9.3855L81.6012 11.4453ZM82.1982 10.8956L84.0949 12.9554L84.0949 12.9554L82.1982 10.8956ZM82.2268 10.8777L83.2755 13.474L83.2755 13.474L82.2268 10.8777ZM83.0327 10.5522L81.984 7.95604L81.984 7.95604L83.0327 10.5522ZM83.8385 10.2267L84.8872 12.8229L84.8872 12.8229L83.8385 10.2267ZM83.8523 10.1935L86.6382 9.91297L86.6382 9.91296L83.8523 10.1935ZM83.7212 8.89167L80.9353 9.17224L80.9353 9.17224L83.7212 8.89167ZM83.5901 7.58982L86.376 7.30925L86.376 7.30924L83.5901 7.58982ZM83.6002 7.55166L85.4811 9.62586L85.4811 9.62584L83.6002 7.55166ZM84.2266 6.98361L82.3457 4.90942L82.3457 4.90942L84.2266 6.98361ZM84.8531 6.41555L86.734 8.48974L86.734 8.48972L84.8531 6.41555ZM84.8896 6.40867L84.3443 9.15507L84.3443 9.15507L84.8896 6.40867ZM86.0513 6.6393L86.5965 3.89289H86.5965L86.0513 6.6393ZM87.2131 6.86993L86.6679 9.61634L86.6679 9.61634L87.2131 6.86993ZM87.2407 6.84865L90.0103 7.25992L90.0103 7.2599L87.2407 6.84865ZM87.4297 5.57522L84.6601 5.16397V5.16397L87.4297 5.57522ZM87.6188 4.30179L90.3885 4.71304L90.3885 4.71302L87.6188 4.30179ZM87.649 4.29122L89.0636 1.87481L89.0636 1.87481L87.649 4.29122ZM88.9392 5.04649L87.5246 7.46289H87.5246L88.9392 5.04649ZM90.2294 5.80176L91.644 3.38536L91.644 3.38536L90.2294 5.80176ZM90.2649 5.79722L92.8093 6.96593L92.8093 6.9659L90.2649 5.79722ZM90.714 4.81947L88.1695 3.6508V3.6508L90.714 4.81947ZM91.1631 3.84172L93.7075 5.0104L93.7075 5.01037L91.1631 3.84172ZM91.1943 3.83795L92.8503 1.58014L92.8503 1.58013L91.1943 3.83795ZM92.2755 4.63098L90.6195 6.88879L90.6195 6.88879L92.2755 4.63098ZM93.3567 5.42401L95.0127 3.16621L95.0127 3.1662L93.3567 5.42401ZM93.3903 5.42204L95.755 6.92142L95.7551 6.92138L93.3903 5.42204ZM93.9541 4.53278L91.5894 3.03344L91.5894 3.03344L93.9541 4.53278ZM94.518 3.64352L96.8827 5.14286L96.8827 5.14283L94.518 3.64352ZM94.5465 3.63076L95.3933 0.961884L95.3933 0.96188L94.5465 3.63076ZM95.3788 3.89485L94.532 6.56372V6.56372L95.3788 3.89485ZM96.2111 4.15893L97.0579 1.49006L97.0579 1.49005L96.2111 4.15893ZM96.2434 4.16087L96.8583 6.89251L96.8583 6.89251L96.2434 4.16087ZM96.9947 3.99175L96.3797 1.26011V1.26011L96.9947 3.99175ZM97.7459 3.82263L98.3609 6.55427L98.3609 6.55426L97.7459 3.82263ZM97.7769 3.82235L98.3334 1.0782L98.3334 1.0782L97.7769 3.82235ZM98.5436 3.97781L97.9871 6.72196V6.72196L98.5436 3.97781ZM99.3103 4.13328L99.8667 1.38913L99.8667 1.38913L99.3103 4.13328ZM99.3414 4.13572L99.4738 6.93259L99.4738 6.93258L99.3414 4.13572ZM100.102 4.09972L99.9695 1.30286H99.9695L100.102 4.09972ZM100.862 4.06373L100.995 6.8606L100.995 6.8606L100.862 4.06373ZM100.893 4.06863L101.888 1.45167L101.888 1.45166L100.893 4.06863ZM101.617 4.3444L100.622 6.96135V6.96135L101.617 4.3444ZM102.342 4.62017L103.338 2.00323L103.338 2.00322L102.342 4.62017ZM102.371 4.63122L103.361 2.01194L103.361 2.01193L102.371 4.63122ZM103.075 4.89696L102.085 7.51625L102.085 7.51625L103.075 4.89696ZM103.778 5.1627L104.768 2.54342L104.768 2.54341L103.778 5.1627ZM103.809 5.16609L104.153 7.94484L104.153 7.94483L103.809 5.16609ZM104.612 5.06653L104.268 2.28779L104.268 2.28779L104.612 5.06653ZM105.415 4.96698L105.76 7.74573L105.76 7.74573L105.415 4.96698ZM105.445 4.97248L106.795 2.51921L106.795 2.51919L105.445 4.97248ZM106.116 5.34118L104.766 7.79445L104.766 7.79445L106.116 5.34118ZM106.786 5.70989L108.136 3.25665L108.136 3.25663L106.786 5.70989ZM106.818 5.71422L107.292 8.47382L107.292 8.47382L106.818 5.71422ZM107.73 5.55761L107.256 2.79802V2.79802L107.73 5.55761ZM108.642 5.401L109.116 8.1606L109.116 8.1606L108.642 5.401ZM108.675 5.40473L109.875 2.87482L109.875 2.8748L108.675 5.40473ZM109.39 5.74384L108.19 8.27375L108.19 8.27375L109.39 5.74384ZM110.105 6.08295L111.305 3.55305L111.305 3.55304L110.105 6.08295ZM110.133 6.09948L111.799 3.8491L111.799 3.84907L110.133 6.09948ZM110.769 6.57054L109.103 8.82093L109.103 8.82093L110.769 6.57054ZM111.405 7.0416L113.071 4.79125L113.071 4.79121L111.405 7.0416ZM111.437 7.054L111.857 4.28567L111.857 4.28567L111.437 7.054ZM112.337 7.19052L111.917 9.95885L112.337 7.19052ZM113.237 7.32705L113.657 4.55872L113.657 4.55872L113.237 7.32705ZM113.262 7.34648L115.825 6.21826L115.825 6.21817L113.262 7.34648ZM113.621 8.16191L111.059 9.29013V9.29013L113.621 8.16191ZM113.98 8.97734L116.543 7.8492L116.543 7.84911L113.98 8.97734ZM113.999 9.0057L116.033 7.08179L116.033 7.08174L113.999 9.0057ZM114.542 9.58012L112.508 11.504V11.504L114.542 9.58012ZM115.085 10.1545L117.12 8.23069L117.12 8.23063L115.085 10.1545ZM115.121 10.1674L114.985 12.9642L114.985 12.9642L115.121 10.1674ZM116.313 10.2253L116.448 7.42858L116.313 10.2253ZM117.505 10.2831L117.369 13.0798H117.369L117.505 10.2831ZM117.524 10.3092L120.258 10.9128L120.258 10.9127L117.524 10.3092ZM117.255 11.5265L114.521 10.9229V10.9229L117.255 11.5265ZM116.986 12.7439L119.72 13.3476L119.72 13.3475L116.986 12.7439ZM116.995 12.7788L118.587 10.4753L118.587 10.4753L116.995 12.7788ZM117.707 13.271L116.115 15.5745L116.115 15.5745L117.707 13.271ZM118.42 13.7632L120.011 11.4597L120.011 11.4597L118.42 13.7632ZM118.452 13.7828L119.776 11.3158L119.776 11.3158L118.452 13.7828ZM119.331 14.2547L118.007 16.7217L119.331 14.2547ZM120.21 14.7265L121.534 12.2595L121.534 12.2595L120.21 14.7265ZM120.21 14.7619L122.51 16.3594L122.51 16.3593L120.21 14.7619ZM119.333 16.0247L117.033 14.4272V14.4272L119.333 16.0247ZM118.456 17.2874L120.755 18.8849L120.755 18.8848L118.456 17.2874ZM118.459 17.3228L119.639 14.7838L119.639 14.7838L118.459 17.3228ZM119.472 17.7937L118.291 20.3328L119.472 17.7937ZM120.485 18.2647L121.665 15.7257L121.665 15.7257L120.485 18.2647ZM120.506 18.2912L123.305 18.2288L123.305 18.2287L120.506 18.2912ZM120.524 19.1199L117.725 19.1823V19.1823L120.524 19.1199ZM120.543 19.9486L123.342 19.8863L123.342 19.8862L120.543 19.9486ZM120.555 19.9801L122.739 18.2285L122.739 18.2284L120.555 19.9801ZM121.129 20.6968L118.945 22.4484V22.4484L121.129 20.6968ZM121.704 21.4135L123.889 19.6619L123.888 19.6618L121.704 21.4135ZM121.699 21.4464L123.761 23.3407L123.761 23.3406L121.699 21.4464ZM120.874 22.3443L118.812 20.45L118.812 20.45L120.874 22.3443ZM120.049 23.2421L122.111 25.1365L122.111 25.1364L120.049 23.2421ZM120.053 23.2758L121.73 21.034L121.73 21.034L120.053 23.2758ZM121.057 24.0276L119.38 26.2694L121.057 24.0276ZM122.062 24.7793L123.74 22.5375L123.74 22.5375L122.062 24.7793ZM122.073 24.7967L122.634 27.5399L122.634 27.5399L122.073 24.7967ZM121.581 24.8973L121.02 22.1541L121.02 22.1541L121.581 24.8973ZM121.089 24.9979L121.65 27.7412L121.65 27.7412L121.089 24.9979ZM121.072 25.0158L123.681 26.0331L123.681 26.033L121.072 25.0158ZM120.77 25.7917L118.161 24.7744L117.859 25.5503L120.467 26.5676L123.076 27.5848L123.379 26.809L120.77 25.7917ZM120.467 26.5676L117.859 25.5502C117.853 25.5649 117.847 25.5796 117.842 25.5943L120.455 26.5985L123.069 27.6027C123.071 27.5972 123.073 27.5913 123.076 27.585L120.467 26.5676ZM120.455 26.5985L117.842 25.5942L117.557 26.335L120.171 27.3394L122.784 28.3438L123.069 27.6029L120.455 26.5985ZM120.171 27.3394L117.557 26.335L117.272 27.0759L119.886 28.0803L122.5 29.0846L122.784 28.3437L120.171 27.3394ZM119.886 28.0803L117.272 27.0758C117.174 27.3312 117.109 27.6077 117.087 27.8982L119.879 28.111L122.671 28.3239C122.65 28.5936 122.59 28.8496 122.5 29.0848L119.886 28.0803ZM119.879 28.111L117.087 27.898L117.029 28.6638L119.821 28.8768L122.612 29.0898L122.671 28.324L119.879 28.111ZM119.821 28.8768L117.029 28.6638L116.97 29.4297L119.762 29.6426L122.554 29.8556L122.612 29.0898L119.821 28.8768ZM119.762 29.6426L116.97 29.4295C116.967 29.4716 116.965 29.513 116.963 29.5537L119.76 29.6744L122.558 29.7951C122.557 29.8143 122.556 29.8345 122.554 29.8558L119.762 29.6426ZM119.76 29.6744L116.963 29.5535L116.929 30.3433L119.726 30.4641L122.523 30.585L122.558 29.7952L119.76 29.6744ZM119.726 30.4641L116.929 30.3433L116.895 31.1331L119.692 31.2539L122.489 31.3747L122.523 30.585L119.726 30.4641ZM119.692 31.2539L116.895 31.1329C116.889 31.2639 116.892 31.3866 116.901 31.499L119.693 31.2876L122.485 31.0761C122.491 31.1652 122.494 31.2653 122.489 31.3749L119.692 31.2539ZM119.693 31.2876L116.901 31.4989L116.966 32.3588L119.758 32.1475L122.55 31.9361L122.485 31.0762L119.693 31.2876ZM119.758 32.1475L116.966 32.3588L117.031 33.2187L119.823 33.0074L122.615 32.796L122.55 31.9361L119.758 32.1475ZM119.823 33.0074L117.031 33.2186C116.989 32.6635 117.115 32.0594 117.462 31.5218L119.815 33.0388L122.169 34.5559C122.527 33.9997 122.659 33.3747 122.615 32.7962L119.823 33.0074ZM119.815 33.0388L117.462 31.5216L117.023 32.2027L119.376 33.7199L121.729 35.2371L122.168 34.556L119.815 33.0388ZM119.376 33.7199L117.023 32.2027L116.584 32.8837L118.937 34.4009L121.29 35.9181L121.729 35.237L119.376 33.7199ZM118.937 34.4009L116.584 32.8836C116.458 33.0779 116.356 33.287 116.279 33.5069L118.923 34.4303L121.566 35.3538C121.496 35.553 121.404 35.7424 121.29 35.9182L118.937 34.4009ZM118.923 34.4303L116.279 33.5068L116.013 34.2687L118.656 35.1923L121.3 36.1159L121.566 35.3539L118.923 34.4303ZM118.656 35.1923L116.013 34.2687L115.747 35.0307L118.39 35.9543L121.033 36.8778L121.3 36.1159L118.656 35.1923ZM118.39 35.9543L115.747 35.0305C115.868 34.6844 116.057 34.3678 116.301 34.0991L118.374 35.9821L120.446 37.865C120.705 37.58 120.905 37.2449 121.033 36.878L118.39 35.9543ZM118.374 35.9821L116.301 34.099L115.756 34.6991L117.828 36.5822L119.9 38.4653L120.446 37.8651L118.374 35.9821ZM117.828 36.5822L115.756 34.6991L115.211 35.2992L117.283 37.1823L119.355 39.0654L119.9 38.4653L117.828 36.5822ZM117.283 37.1823L115.211 35.2991C115.401 35.0897 115.614 34.9215 115.834 34.7917L117.257 37.2034L118.68 39.615C118.92 39.4734 119.15 39.2912 119.355 39.0655L117.283 37.1823ZM117.257 37.2034L115.834 34.7916L115.102 35.2235L116.525 37.6352L117.947 40.0469L118.679 39.6151L117.257 37.2034ZM116.525 37.6352L115.102 35.2235L114.37 35.6553L115.793 38.067L117.215 40.4787L117.947 40.0469L116.525 37.6352ZM115.793 38.067L114.37 35.6552C113.32 36.2747 112.982 37.3264 112.978 38.0803L115.778 38.0968L118.578 38.1134C118.576 38.43 118.517 38.8724 118.281 39.3404C118.033 39.8326 117.654 40.2201 117.215 40.4788L115.793 38.067ZM115.778 38.0968L112.978 38.0802L112.972 39.1112L115.771 39.1279L118.571 39.1445L118.578 38.1135L115.778 38.0968ZM115.771 39.1279L112.972 39.1112L112.965 40.1422L115.765 40.1589L118.565 40.1756L118.571 39.1445L115.771 39.1279ZM115.765 40.1589L112.965 40.1421C112.968 39.638 113.128 38.7519 113.923 38.0612C114.656 37.424 115.459 37.372 115.807 37.3802L115.742 40.1794L115.676 42.9786C116.04 42.9871 116.855 42.9319 117.596 42.2878C118.399 41.5904 118.562 40.6938 118.565 40.1757L115.765 40.1589ZM115.742 40.1794L115.807 37.3802L114.658 37.3532L114.593 40.1524L114.527 42.9517L115.676 42.9786L115.742 40.1794ZM114.593 40.1524L114.658 37.3532L113.509 37.3263L113.444 40.1255L113.378 42.9247L114.527 42.9517L114.593 40.1524ZM113.444 40.1255L113.509 37.3263C113.144 37.3177 112.483 37.3751 111.828 37.8304C111.113 38.3266 110.783 39.03 110.67 39.5984L113.416 40.1445L116.162 40.6906C116.052 41.246 115.728 41.9397 115.022 42.4296C114.376 42.8785 113.728 42.9329 113.378 42.9247L113.444 40.1255ZM113.416 40.1445L110.67 39.5983L110.48 40.5557L113.226 41.1019L115.972 41.6481L116.162 40.6907L113.416 40.1445ZM113.226 41.1019L110.48 40.5557L110.289 41.5131L113.035 42.0593L115.782 42.6055L115.972 41.6481L113.226 41.1019ZM113.035 42.0593L110.289 41.513C110.381 41.054 110.646 40.367 111.332 39.8455C112.005 39.3333 112.715 39.2612 113.141 39.2809L113.011 42.0779L112.881 44.8749C113.32 44.8952 114.042 44.8204 114.723 44.302C115.416 43.7743 115.688 43.0776 115.782 42.6056L113.035 42.0593ZM113.011 42.0779L113.141 39.2809L112.134 39.2342L112.005 42.0312L111.875 44.8282L112.881 44.8749L113.011 42.0779ZM112.005 42.0312L112.134 39.2342L111.128 39.1876L110.998 41.9846L110.868 44.7816L111.875 44.8282L112.005 42.0312ZM110.998 41.9846L111.128 39.1876C110.571 39.1618 109.778 39.3004 109.099 39.9173C108.471 40.4876 108.276 41.166 108.213 41.5365L110.974 42.0068L113.734 42.4772C113.673 42.8322 113.484 43.4991 112.865 44.062C112.194 44.6715 111.412 44.8068 110.868 44.7816L110.998 41.9846ZM110.974 42.0068L108.213 41.5364L108.02 42.6736L110.78 43.1441L113.54 43.6145L113.734 42.4773L110.974 42.0068ZM110.78 43.1441L108.02 42.6736L107.826 43.8108L110.586 44.2813L113.346 44.7517L113.54 43.6145L110.78 43.1441ZM110.586 44.2813L107.826 43.8107C107.892 43.4192 108.195 42.2918 109.438 41.7383C110.544 41.2455 111.486 41.6405 111.708 41.7409L110.558 44.2937L109.408 46.8466C109.646 46.9541 110.601 47.3506 111.716 46.8537C112.968 46.2961 113.277 45.1589 113.346 44.7518L110.586 44.2813ZM110.558 44.2937L111.708 41.7409L110.535 41.2124L109.385 43.7653L108.235 46.3181L109.408 46.8465L110.558 44.2937ZM109.385 43.7653L110.535 41.2124L109.363 40.684L108.212 43.2368L107.062 45.7896L108.235 46.3181L109.385 43.7653ZM108.212 43.2368L109.363 40.684C109.111 40.5707 107.956 40.0934 106.725 40.8386L108.175 43.2339L109.625 45.6292C109.027 45.9915 108.419 46.0574 107.971 46.022C107.552 45.989 107.235 45.8677 107.062 45.7896L108.212 43.2368ZM108.175 43.2339L106.726 40.8385L106.088 41.2241L107.538 43.6195L108.988 46.0149L109.625 45.6293L108.175 43.2339ZM107.538 43.6195L106.088 41.2241L105.451 41.6098L106.901 44.0052L108.351 46.4006L108.988 46.0149L107.538 43.6195ZM106.901 44.0052L105.451 41.6097C104.741 42.0393 104.43 42.646 104.308 42.9376C104.175 43.2533 104.129 43.5255 104.109 43.6681L106.883 44.0474L109.658 44.4267C109.641 44.5464 109.599 44.8001 109.473 45.1017C109.356 45.3792 109.052 45.9762 108.351 46.4006L106.901 44.0052ZM106.883 44.0474L104.109 43.6681L103.879 45.3528L106.653 45.7322L109.427 46.1115L109.658 44.4267L106.883 44.0474ZM106.653 45.7322L103.879 45.3528L103.649 47.0376L106.423 47.4169L109.197 47.7962L109.427 46.1115L106.653 45.7322ZM106.423 47.4169L103.649 47.0375C103.665 46.9136 103.703 46.7032 103.795 46.4545C103.883 46.2182 104.074 45.8049 104.477 45.4185C104.93 44.9842 105.551 44.6859 106.254 44.6475C106.889 44.6129 107.379 44.8009 107.652 44.9377L106.398 47.441L105.143 49.9443C105.423 50.0845 105.919 50.2742 106.559 50.2392C107.268 50.2005 107.894 49.9001 108.351 49.4617C109.085 48.7585 109.181 47.9105 109.197 47.7963L106.423 47.4169ZM106.398 47.441L107.652 44.9378L106.649 44.4351L105.394 46.9383L104.14 49.4416L105.143 49.9443L106.398 47.441ZM105.394 46.9383L106.649 44.4351L105.646 43.9324L104.391 46.4357L103.137 48.9389L104.14 49.4416L105.394 46.9383ZM104.391 46.4357L105.646 43.9324C105.609 43.9142 105.569 43.8947 105.526 43.8747L104.353 46.4171L103.18 48.9596C103.16 48.9506 103.146 48.9435 103.137 48.9389L104.391 46.4357ZM104.353 46.4171L105.526 43.8747L104.649 43.4702L103.476 46.0126L102.303 48.555L103.18 48.9596L104.353 46.4171ZM103.476 46.0126L104.649 43.4702L103.772 43.0656L102.599 45.608L101.426 48.1504L102.303 48.555L103.476 46.0126ZM102.599 45.608L103.772 43.0656C103.416 42.9013 102.919 42.7628 102.331 42.8159C101.729 42.8702 101.226 43.1079 100.853 43.3968L102.567 45.6109L104.281 47.825C103.917 48.1064 103.425 48.3399 102.834 48.3933C102.256 48.4454 101.77 48.3091 101.426 48.1504L102.599 45.608ZM102.567 45.6109L100.853 43.3967L100.146 43.9442L101.86 46.1583L103.574 48.3725L104.281 47.8251L102.567 45.6109ZM101.86 46.1583L100.146 43.9442L99.4386 44.4916L101.152 46.7058L102.866 48.9199L103.574 48.3725L101.86 46.1583ZM101.152 46.7058L99.4387 44.4915C99.8091 44.2048 100.356 43.9368 101.041 43.9133C101.714 43.8902 102.25 44.1115 102.599 44.3281L101.122 46.7068L99.6446 49.0855C100.004 49.3089 100.551 49.5334 101.234 49.51C101.93 49.4861 102.486 49.2142 102.866 48.92L101.152 46.7058ZM101.122 46.7068L102.599 44.3282L101.801 43.8324L100.323 46.2111L98.8463 48.5897L99.6446 49.0855L101.122 46.7068ZM100.323 46.2111L101.801 43.8324L101.002 43.3367L99.5251 45.7153L98.048 48.094L98.8463 48.5897L100.323 46.2111ZM99.5251 45.7153L101.002 43.3367C100.489 43.0176 99.7579 42.8006 98.9398 42.9704C98.1975 43.1245 97.7164 43.5295 97.474 43.7817L99.4926 45.7221L101.511 47.6625C101.28 47.9034 100.809 48.3017 100.078 48.4535C99.2706 48.6211 98.5508 48.4063 98.0479 48.094L99.5251 45.7153ZM99.4926 45.7221L97.474 43.7816L96.6797 44.6079L98.6982 46.5484L100.717 48.4889L101.511 47.6626L99.4926 45.7221ZM98.6982 46.5484L96.6797 44.6079L95.8853 45.4343L97.9039 47.3747L99.9224 49.3152L100.717 48.4889L98.6982 46.5484ZM97.9039 47.3747L95.8854 45.4342C96.0918 45.2195 96.4146 44.9569 96.8716 44.7824L97.8701 47.3983L98.8687 50.0142C99.349 49.8308 99.6943 49.5525 99.9223 49.3153L97.9039 47.3747ZM97.8701 47.3983L96.8717 44.7824L96.013 45.1101L97.0114 47.7261L98.0098 50.342L98.8685 50.0142L97.8701 47.3983ZM97.0114 47.7261L96.013 45.1101L95.1542 45.4379L96.1526 48.0538L97.151 50.6697L98.0098 50.342L97.0114 47.7261ZM96.1526 48.0538L95.1543 45.4378C95.5789 45.2758 96.0923 45.2031 96.6372 45.3058L96.1183 48.0573L95.5993 50.8088C96.1666 50.9158 96.703 50.8407 97.1509 50.6698L96.1526 48.0538ZM96.1183 48.0573L96.6374 45.3059L95.8121 45.1502L95.2931 47.9016L94.774 50.6531L95.5992 50.8088L96.1183 48.0573ZM95.2931 47.9016L95.8121 45.1502L94.9869 44.9945L94.4679 47.746L93.9488 50.4974L94.774 50.6531L95.2931 47.9016ZM94.4679 47.746L94.9871 44.9945C95.5028 45.0918 95.9313 45.3249 96.2546 45.601L94.4367 47.7305L92.6187 49.8601C92.9612 50.1525 93.4104 50.3958 93.9486 50.4974L94.4679 47.746ZM94.4367 47.7305L96.2547 45.601L95.5516 45.0008L93.7336 47.1303L91.9156 49.2598L92.6187 49.86L94.4367 47.7305ZM93.7336 47.1303L95.5516 45.0008L94.8486 44.4006L93.0306 46.5301L91.2126 48.6596L91.9156 49.2598L93.7336 47.1303ZM93.0306 46.5301L94.8486 44.4006C94.1292 43.7864 93.1968 43.6006 92.361 43.7955L92.9971 46.5223L93.6331 49.2491C93.2822 49.331 92.8499 49.3582 92.3816 49.2494C91.9088 49.1397 91.5153 48.9181 91.2125 48.6596L93.0306 46.5301ZM92.9971 46.5223L92.3611 43.7955L91.4224 44.0144L92.0584 46.7412L92.6943 49.4681L93.633 49.2491L92.9971 46.5223ZM92.0584 46.7412L91.4224 44.0144L90.4837 44.2333L91.1197 46.9602L91.7556 49.687L92.6943 49.4681L92.0584 46.7412ZM91.1197 46.9602L90.4839 44.2333C90.8104 44.1572 91.2252 44.1242 91.6844 44.2219C92.1529 44.3216 92.5581 44.5343 92.8801 44.8028L91.0868 46.9532L89.2934 49.1035C90.0504 49.7348 90.9849 49.8667 91.7555 49.687L91.1197 46.9602ZM91.0868 46.9532L92.8802 44.8029L92.2065 44.241L90.4131 46.3913L88.6197 48.5416L89.2934 49.1034L91.0868 46.9532ZM90.4131 46.3913L92.2065 44.241L91.5329 43.6792L89.7395 45.8294L87.9461 47.9797L88.6197 48.5416L90.4131 46.3913ZM89.7395 45.8294L91.5329 43.6792C91.2962 43.4818 91.0162 43.312 90.6967 43.1917L89.7098 45.812L88.7229 48.4323C88.4247 48.32 88.1644 48.1618 87.946 47.9797L89.7395 45.8294ZM89.7098 45.812L90.6968 43.1917L89.918 42.8983L88.931 45.5186L87.944 48.1389L88.7228 48.4323L89.7098 45.812ZM88.931 45.5186L89.918 42.8983L89.1391 42.605L88.1521 45.2252L87.1651 47.8455L87.944 48.1389L88.931 45.5186ZM88.1521 45.2252L89.1393 42.605C89.917 42.898 90.4017 43.4699 90.6507 43.9871L88.1276 45.2013L85.6046 46.4155C85.865 46.9567 86.3661 47.5445 87.165 47.8455L88.1521 45.2252ZM88.1276 45.2013L90.6507 43.9872L90.2276 43.1081L87.7046 44.3223L85.1815 45.5364L85.6045 46.4155L88.1276 45.2013ZM87.7046 44.3223L90.2276 43.1081L89.8046 42.2291L87.2816 43.4432L84.7585 44.6574L85.1815 45.5364L87.7046 44.3223ZM87.2816 43.4432L89.8046 42.2291C89.7258 42.0652 89.6144 41.8718 89.457 41.6731L87.2626 43.4122L85.0681 45.1513C84.9245 44.9701 84.8258 44.7973 84.7585 44.6573L87.2816 43.4432ZM87.2626 43.4122L89.4571 41.6732L88.9494 41.0325L86.7549 42.7716L84.5604 44.5106L85.0681 45.1512L87.2626 43.4122ZM86.7549 42.7716L88.9494 41.0325L88.4417 40.3919L86.2473 42.131L84.0528 43.87L84.5604 44.5106L86.7549 42.7716ZM86.2473 42.131L88.4418 40.392C88.6817 40.6948 88.8298 41.0135 88.9157 41.303L86.2316 42.1L83.5474 42.897C83.6405 43.2104 83.799 43.5498 84.0527 43.87L86.2473 42.131ZM86.2316 42.1L88.9157 41.303L88.6552 40.4254L85.971 41.2225L83.2868 42.0195L83.5474 42.897L86.2316 42.1ZM85.971 41.2225L88.6552 40.4254L88.3946 39.5479L85.7104 40.3449L83.0263 41.142L83.2868 42.0195L85.971 41.2225ZM85.7104 40.3449L88.3946 39.5479C88.1932 38.8698 87.7008 38.1753 86.882 37.7941C86.1859 37.47 85.5594 37.5179 85.2685 37.5611L85.68 40.3307L86.0915 43.1003C85.8173 43.1411 85.2043 43.1902 84.5183 42.8708C83.7097 42.4943 83.2241 41.8081 83.0263 41.1419L85.7104 40.3449ZM85.68 40.3307L85.2686 37.5611L84.0373 37.744L84.4487 40.5136L84.8601 43.2833L86.0914 43.1004L85.68 40.3307ZM84.4487 40.5136L84.0373 37.744L82.8059 37.9269L83.2173 40.6966L83.6287 43.4662L84.8601 43.2833L84.4487 40.5136ZM83.2173 40.6966L82.806 37.9269C83.0764 37.8868 83.9549 37.7953 84.8224 38.413C85.8246 39.1265 85.9918 40.1693 85.9922 40.6765L83.1922 40.6786L80.3922 40.6808C80.3926 41.2025 80.5639 42.2554 81.5745 42.9749C82.4504 43.5985 83.3415 43.5088 83.6286 43.4662L83.2173 40.6966ZM83.1922 40.6786L85.9922 40.6765L85.9913 39.6163L83.1913 39.6185L80.3913 39.6207L80.3922 40.6808L83.1922 40.6786ZM83.1913 39.6185L85.9913 39.6163L85.9905 38.5562L83.1905 38.5584L80.3905 38.5606L80.3913 39.6207L83.1913 39.6185ZM83.1905 38.5584L85.9905 38.5562C85.9901 38.0243 85.8272 37.1961 85.1216 36.52C84.4637 35.8897 83.7156 35.7632 83.3341 35.7403L83.1664 38.5353L82.9988 41.3303C82.6333 41.3084 81.8972 41.1862 81.2474 40.5636C80.5498 39.8953 80.3909 39.0781 80.3905 38.5606L83.1905 38.5584ZM83.1664 38.5353L83.3341 35.7403L82.1546 35.6696L81.9869 38.4645L81.8192 41.2595L82.9987 41.3303L83.1664 38.5353ZM81.9869 38.4645L82.1546 35.6696L80.9751 35.5988L80.8074 38.3938L80.6397 41.1887L81.8192 41.2595L81.9869 38.4645ZM80.8074 38.3938L80.9752 35.5988C81.2313 35.6142 81.6472 35.6755 82.0989 35.915C82.5921 36.1764 83.0296 36.601 83.3008 37.1665L80.776 38.3772L78.2513 39.5878C78.8737 40.8857 80.0991 41.1563 80.6396 41.1887L80.8074 38.3938ZM80.776 38.3772L83.3008 37.1665L82.9443 36.4231L80.4196 37.6338L77.8948 38.8444L78.2513 39.5878L80.776 38.3772ZM80.4196 37.6338L82.9443 36.4231L82.5878 35.6797L80.0631 36.8904L77.5384 38.101L77.8948 38.8444L80.4196 37.6338ZM80.0631 36.8904L82.5878 35.6797C82.7443 36.0061 82.8235 36.3381 82.8467 36.6487L80.0545 36.8572L77.2623 37.0657C77.2872 37.4003 77.3722 37.7544 77.5383 38.101L80.0631 36.8904ZM80.0545 36.8572L82.8467 36.6487L82.7809 35.7673L79.9887 35.9759L77.1964 36.1844L77.2623 37.0657L80.0545 36.8572ZM79.9887 35.9759L82.7809 35.7673L82.7151 34.886L79.9228 35.0945L77.1306 35.3031L77.1964 36.1844L79.9887 35.9759ZM79.9228 35.0945L82.7151 34.886C82.6507 34.0235 82.203 33.27 81.5449 32.7951L79.9065 35.0657L78.268 37.3363C77.9858 37.1326 77.7017 36.8455 77.4835 36.4615C77.2642 36.0753 77.1583 35.6735 77.1306 35.3031L79.9228 35.0945ZM79.9065 35.0657L81.545 32.7952L80.8079 32.2633L79.1694 34.5338L77.5309 36.8043L78.2679 37.3362L79.9065 35.0657ZM79.1694 34.5338L80.8079 32.2633L80.0708 31.7314L78.4323 34.0019L76.7938 36.2724L77.5309 36.8043L79.1694 34.5338ZM78.4323 34.0019L80.0709 31.7314C80.3877 31.96 80.7224 32.3056 80.9524 32.7917C81.1838 33.2808 81.2417 33.7697 81.2108 34.1819L78.4186 33.973L75.6264 33.764C75.5508 34.7743 76.0168 35.7117 76.7937 36.2724L78.4323 34.0019ZM78.4186 33.973L81.2108 34.1819L81.2771 33.2961L78.4849 33.0872L75.6927 32.8782L75.6264 33.764L78.4186 33.973ZM78.4849 33.0872L81.2771 33.2961L81.3434 32.4103L78.5512 32.2014L75.759 31.9924L75.6927 32.8782L78.4849 33.0872ZM78.5512 32.2014L81.3434 32.4103C81.3784 31.9421 81.3016 31.4101 81.0389 30.8956L78.5451 32.1687L76.0513 33.4418C75.7986 32.9468 75.7258 32.4365 75.759 31.9924L78.5512 32.2014ZM78.5451 32.1687L81.0389 30.8956L80.6737 30.1801L78.1799 31.4532L75.686 32.7263L76.0513 33.4418L78.5451 32.1687ZM78.1799 31.4532L80.6737 30.1801L80.3085 29.4647L77.8146 30.7378L75.3208 32.0109L75.686 32.7263L78.1799 31.4532ZM77.8146 30.7378L80.3085 29.4647C80.6117 30.0586 80.6687 30.6973 80.5554 31.2593L77.8106 30.706L75.0659 30.1527C74.9479 30.7376 75.0077 31.3975 75.3208 32.0108L77.8146 30.7378ZM77.8106 30.706L80.5554 31.2593L80.7252 30.417L77.9804 29.8637L75.2357 29.3103L75.0659 30.1527L77.8106 30.706ZM77.9804 29.8637L80.7252 30.417L80.895 29.5747L78.1502 29.0213L75.4055 28.468L75.2357 29.3103L77.9804 29.8637ZM78.1502 29.0213L80.895 29.5746C80.9406 29.3485 80.9652 29.0891 80.9467 28.8057L78.1527 28.9885L75.3587 29.1712C75.3415 28.9088 75.3645 28.6713 75.4055 28.468L78.1502 29.0213ZM78.1527 28.9885L80.9467 28.8057L80.8964 28.0367L78.1024 28.2194L75.3084 28.4021L75.3587 29.1712L78.1527 28.9885ZM78.1024 28.2194L80.8964 28.0367L80.8461 27.2677L78.0521 27.4504L75.2581 27.6331L75.3084 28.4021L78.1024 28.2194ZM78.0521 27.4504L80.8461 27.2677C80.8732 27.6822 80.8038 28.0671 80.68 28.3985L78.057 27.4188L75.434 26.4392C75.3023 26.7917 75.2296 27.1977 75.2581 27.6331L78.0521 27.4504ZM78.057 27.4188L80.6801 28.3985L80.9705 27.6208L78.3474 26.6412L75.7244 25.6616L75.434 26.4392L78.057 27.4188ZM78.3474 26.6412L80.9705 27.6208L81.2609 26.8432L78.6379 25.8635L76.0148 24.8839L75.7244 25.6616L78.3474 26.6412ZM78.6379 25.8635L81.2609 26.8431C81.4959 26.2139 81.5006 25.5166 81.2643 24.8772C81.0528 24.3048 80.7087 23.9376 80.4904 23.7428L78.6262 25.832L76.762 27.9211C76.5554 27.7368 76.2191 27.3801 76.0115 26.8182C75.7791 26.1894 75.7838 25.5026 76.0148 24.8839L78.6379 25.8635ZM78.6262 25.832L80.4905 23.7428L79.6284 22.9736L77.7642 25.0627L75.8999 27.1519L76.7619 27.9211L78.6262 25.832ZM77.7642 25.0627L79.6284 22.9736L78.7664 22.2043L76.9021 24.2935L75.0379 26.3827L75.8999 27.1519L77.7642 25.0627ZM76.9021 24.2935L78.7664 22.2044C78.9738 22.3895 79.3159 22.7518 79.5233 23.3246C79.7561 23.9678 79.7402 24.6641 79.4981 25.2827L76.8907 24.262L74.2834 23.2413C74.0371 23.8705 74.0211 24.5773 74.2577 25.231C74.4689 25.8143 74.8187 26.1871 75.0379 26.3826L76.9021 24.2935ZM76.8907 24.262L79.4981 25.2827L79.8012 24.5083L77.1939 23.4876L74.5866 22.4669L74.2834 23.2413L76.8907 24.262ZM77.1939 23.4876L79.8012 24.5083L80.1044 23.7338L77.4971 22.7132L74.8897 21.6925L74.5866 22.4669L77.1939 23.4876ZM77.4971 22.7132L80.1044 23.7338C80.1481 23.6223 80.1875 23.5024 80.2202 23.3745L77.5072 22.6818L74.7942 21.9891C74.8216 21.8819 74.8543 21.7829 74.8897 21.6925L77.4971 22.7132ZM77.5072 22.6818L80.2202 23.3745L80.4147 22.6124L77.7018 21.9198L74.9888 21.2271L74.7942 21.9891L77.5072 22.6818ZM77.7018 21.9198L80.4147 22.6124L80.6093 21.8504L77.8963 21.1578L75.1833 20.4651L74.9888 21.2271L77.7018 21.9198ZM77.8963 21.1578L80.6093 21.8504C80.9343 20.5776 80.2939 19.656 80.0836 19.389L77.8841 21.1216L75.6845 22.8543C75.4958 22.6147 74.8637 21.7172 75.1833 20.4651L77.8963 21.1578ZM77.8841 21.1216L80.0836 19.3891L79.2893 18.3806L77.0897 20.1132L74.8901 21.8458L75.6845 22.8542L77.8841 21.1216ZM77.0897 20.1132L79.2893 18.3806L78.4949 17.3721L76.2953 19.1047L74.0958 20.8373L74.8901 21.8458L77.0897 20.1132ZM76.2953 19.1047L78.4949 17.3721C78.6746 17.6002 79.1487 18.276 79.0815 19.2743C79.0041 20.4241 78.2889 21.1138 77.8356 21.4118L76.2975 19.072L74.7595 16.7323C74.2939 17.0383 73.5722 17.7375 73.4941 18.8982C73.4262 19.9074 73.9053 20.5955 74.0958 20.8373L76.2953 19.1047ZM76.2975 19.072L77.8356 21.4118L78.7378 20.8187L77.1997 18.479L75.6617 16.1392L74.7595 16.7323L76.2975 19.072ZM77.1997 18.479L78.7378 20.8187L79.64 20.2256L78.1019 17.8859L76.5639 15.5462L75.6617 16.1392L77.1997 18.479ZM78.1019 17.8859L79.64 20.2256C79.7051 20.1828 79.7799 20.1305 79.8596 20.0682L78.135 17.8623L76.4104 15.6565C76.4706 15.6094 76.5232 15.5729 76.5638 15.5462L78.1019 17.8859ZM78.135 17.8623L79.8596 20.0682L80.5794 19.5054L78.8548 17.2995L77.1302 15.0937L76.4104 15.6565L78.135 17.8623ZM78.8548 17.2995L80.5794 19.5054L81.2993 18.9426L79.5747 16.7367L77.85 14.5309L77.1302 15.0937L78.8548 17.2995ZM79.5747 16.7367L81.2993 18.9426C81.7612 18.5814 82.1658 18.0292 82.3204 17.3152C82.4632 16.6554 82.3392 16.1043 82.2229 15.7739L79.5818 16.7038L76.9407 17.6336C76.8294 17.3176 76.7067 16.7792 76.8472 16.1303C76.9994 15.4273 77.3979 14.8844 77.85 14.5309L79.5747 16.7367ZM79.5818 16.7038L82.2229 15.7739L81.8526 14.7222L79.2115 15.652L76.5704 16.5818L76.9407 17.6336L79.5818 16.7038ZM79.2115 15.652L81.8526 14.7222L81.4823 13.6704L78.8412 14.6002L76.2001 15.5301L76.5704 16.5818L79.2115 15.652ZM78.8412 14.6002L81.4823 13.6704C81.6082 14.0281 81.7846 14.7827 81.4309 15.6449C81.0573 16.5556 80.34 16.9942 79.8823 17.1751L78.8532 14.571L77.8241 11.967C77.3533 12.153 76.6275 12.5991 76.2499 13.5195C75.8922 14.3914 76.0691 15.1581 76.2001 15.5301L78.8412 14.6002ZM78.8532 14.571L79.8823 17.1751L80.8392 16.7969L79.8101 14.1929L78.781 11.5888L77.8241 11.967L78.8532 14.571ZM79.8101 14.1929L80.8392 16.7969L81.7961 16.4187L80.767 13.8147L79.7379 11.2107L78.781 11.5888L79.8101 14.1929ZM80.767 13.8147L81.7962 16.4187C82.586 16.1066 83.431 15.3293 83.5705 14.1065L80.7886 13.789L78.0067 13.4714C78.0631 12.9769 78.2594 12.4549 78.6372 12.0047C78.9988 11.5737 79.418 11.3371 79.7379 11.2107L80.767 13.8147ZM80.7886 13.789L83.5705 14.1065L83.6713 13.2241L80.8893 12.9066L78.1074 12.589L78.0067 13.4714L80.7886 13.789ZM80.8893 12.9066L83.6713 13.2241L83.772 12.3417L80.99 12.0242L78.2081 11.7066L78.1074 12.589L80.8893 12.9066ZM80.99 12.0242L83.772 12.3417C83.7048 12.93 83.4357 13.5624 82.9009 14.0548L81.0043 11.995L79.1077 9.93516C78.5567 10.4425 78.278 11.0944 78.2081 11.7067L80.99 12.0242ZM81.0043 11.995L82.9009 14.0548L83.4979 13.5051L81.6012 11.4453L79.7046 9.3855L79.1076 9.93518L81.0043 11.995ZM81.6012 11.4453L83.4979 13.5051L84.0949 12.9554L82.1982 10.8956L80.3016 8.83582L79.7046 9.3855L81.6012 11.4453ZM82.1982 10.8956L84.0949 12.9554C83.8378 13.1921 83.5548 13.3611 83.2755 13.474L82.2268 10.8777L81.1782 8.28153C80.8769 8.40323 80.5749 8.58416 80.3015 8.83584L82.1982 10.8956ZM82.2268 10.8777L83.2755 13.474L84.0814 13.1484L83.0327 10.5522L81.984 7.95604L81.1782 8.28154L82.2268 10.8777ZM83.0327 10.5522L84.0814 13.1484L84.8872 12.8229L83.8385 10.2267L82.7899 7.63053L81.984 7.95604L83.0327 10.5522ZM83.8385 10.2267L84.8872 12.8229C85.5994 12.5353 86.1512 11.9761 86.4367 11.2875C86.6816 10.6968 86.6647 10.1758 86.6382 9.91297L83.8523 10.1935L81.0664 10.4741C81.0417 10.2289 81.0234 9.72239 81.2637 9.14269C81.5446 8.46522 82.0886 7.91378 82.7898 7.63054L83.8385 10.2267ZM83.8523 10.1935L86.6382 9.91296L86.5071 8.61111L83.7212 8.89167L80.9353 9.17224L81.0664 10.4741L83.8523 10.1935ZM83.7212 8.89167L86.5071 8.61111L86.376 7.30925L83.5901 7.58982L80.8042 7.87039L80.9353 9.17224L83.7212 8.89167ZM83.5901 7.58982L86.376 7.30924C86.4133 7.67913 86.4289 8.7664 85.4811 9.62586L83.6002 7.55166L81.7193 5.47746C80.7545 6.35238 80.7634 7.46508 80.8042 7.8704L83.5901 7.58982ZM83.6002 7.55166L85.4811 9.62584L86.1075 9.05779L84.2266 6.98361L82.3457 4.90942L81.7193 5.47747L83.6002 7.55166ZM84.2266 6.98361L86.1075 9.05779L86.734 8.48974L84.8531 6.41555L82.9722 4.34137L82.3457 4.90942L84.2266 6.98361ZM84.8531 6.41555L86.734 8.48972C85.8482 9.29293 84.8263 9.25076 84.3443 9.15507L84.8896 6.40867L85.4348 3.66226C84.9212 3.5603 83.8749 3.52272 82.9722 4.34138L84.8531 6.41555ZM84.8896 6.40867L84.3443 9.15507L85.5061 9.38571L86.0513 6.6393L86.5965 3.89289L85.4348 3.66226L84.8896 6.40867ZM86.0513 6.6393L85.5061 9.38571L86.6679 9.61634L87.2131 6.86993L87.7583 4.12353L86.5965 3.89289L86.0513 6.6393ZM87.2131 6.86993L86.6679 9.61634C87.1486 9.71178 88.0782 9.75083 88.9428 9.08339C89.7535 8.45756 89.9557 7.62749 90.0103 7.25992L87.2407 6.84865L84.471 6.43738C84.523 6.08714 84.7193 5.26928 85.5209 4.65054C86.3763 3.9902 87.2933 4.03122 87.7583 4.12353L87.2131 6.86993ZM87.2407 6.84865L90.0103 7.2599L90.1994 5.98647L87.4297 5.57522L84.6601 5.16397L84.471 6.4374L87.2407 6.84865ZM87.4297 5.57522L90.1994 5.98647L90.3885 4.71304L87.6188 4.30179L84.8492 3.89054L84.6601 5.16397L87.4297 5.57522ZM87.6188 4.30179L90.3885 4.71302C90.3414 5.03022 90.0559 6.40263 88.5539 6.92873C87.3148 7.36276 86.3487 6.77448 86.2345 6.70762L87.649 4.29122L89.0636 1.87481C88.9318 1.79767 87.9518 1.20602 86.7027 1.64358C85.1907 2.1732 84.8989 3.55604 84.8492 3.89056L87.6188 4.30179ZM87.649 4.29122L86.2345 6.70762L87.5246 7.46289L88.9392 5.04649L90.3538 2.63009L89.0636 1.87481L87.649 4.29122ZM88.9392 5.04649L87.5246 7.46289L88.8148 8.21817L90.2294 5.80176L91.644 3.38536L90.3538 2.63009L88.9392 5.04649ZM90.2294 5.80176L88.8148 8.21816C89.0171 8.33659 89.686 8.70347 90.6067 8.58571C91.7981 8.4333 92.5088 7.62016 92.8093 6.96593L90.2649 5.79722L87.7205 4.62852C88.0148 3.98759 88.7165 3.18186 89.8962 3.03097C90.805 2.91471 91.4592 3.27721 91.644 3.38536L90.2294 5.80176ZM90.2649 5.79722L92.8093 6.9659L93.2584 5.98815L90.714 4.81947L88.1695 3.6508L87.7204 4.62855L90.2649 5.79722ZM90.714 4.81947L93.2584 5.98815L93.7075 5.0104L91.1631 3.84172L88.6186 2.67304L88.1695 3.6508L90.714 4.81947ZM91.1631 3.84172L93.7075 5.01037C93.4823 5.50073 92.8309 6.4513 91.511 6.61062C90.4441 6.73941 89.7146 6.22503 89.5383 6.09577L91.1943 3.83795L92.8503 1.58013C92.6593 1.44008 91.9172 0.920933 90.8399 1.05098C89.5096 1.21156 88.8499 2.16941 88.6186 2.67307L91.1631 3.84172ZM91.1943 3.83795L89.5383 6.09576L90.6195 6.88879L92.2755 4.63098L93.9315 2.37317L92.8503 1.58014L91.1943 3.83795ZM92.2755 4.63098L90.6195 6.88879L91.7008 7.68181L93.3567 5.42401L95.0127 3.1662L93.9315 2.37317L92.2755 4.63098ZM93.3567 5.42401L91.7007 7.68181C91.9268 7.84762 92.5846 8.2827 93.5397 8.22683C94.6903 8.15952 95.4175 7.4538 95.755 6.92142L93.3903 5.42204L91.0256 3.92267C91.3555 3.40238 92.0733 2.70304 93.2127 2.63638C94.1565 2.58117 94.8014 3.01118 95.0127 3.16621L93.3567 5.42401ZM93.3903 5.42204L95.7551 6.92138L96.3189 6.03212L93.9541 4.53278L91.5894 3.03344L91.0256 3.9227L93.3903 5.42204ZM93.9541 4.53278L96.3189 6.03212L96.8827 5.14286L94.518 3.64352L92.1532 2.14418L91.5894 3.03344L93.9541 4.53278ZM94.518 3.64352L96.8827 5.14283C96.6996 5.4317 96.3282 5.89433 95.6752 6.18675C94.9638 6.50531 94.25 6.47425 93.6997 6.29964L94.5465 3.63076L95.3933 0.96188C94.8316 0.783678 94.1074 0.752955 93.3865 1.07577C92.724 1.37244 92.344 1.84325 92.1532 2.14421L94.518 3.64352ZM94.5465 3.63076L93.6997 6.29964L94.532 6.56372L95.3788 3.89485L96.2256 1.22597L95.3933 0.961884L94.5465 3.63076ZM95.3788 3.89485L94.532 6.56372L95.3643 6.82781L96.2111 4.15893L97.0579 1.49005L96.2256 1.22597L95.3788 3.89485ZM96.2111 4.15893L95.3643 6.8278C95.7841 6.96102 96.3018 7.01778 96.8583 6.89251L96.2434 4.16087L95.6285 1.42922C96.1645 1.30856 96.6607 1.36403 97.0579 1.49006L96.2111 4.15893ZM96.2434 4.16087L96.8583 6.89251L97.6096 6.72339L96.9947 3.99175L96.3797 1.26011L95.6285 1.42923L96.2434 4.16087ZM96.9947 3.99175L97.6096 6.72339L98.3609 6.55427L97.7459 3.82263L97.131 1.09098L96.3797 1.26011L96.9947 3.99175ZM97.7459 3.82263L98.3609 6.55426C97.9796 6.64009 97.5907 6.64157 97.2205 6.5665L97.7769 3.82235L98.3334 1.0782C97.9423 0.998896 97.5327 1.00056 97.131 1.09099L97.7459 3.82263ZM97.7769 3.82235L97.2205 6.5665L97.9871 6.72196L98.5436 3.97781L99.1 1.23366L98.3334 1.0782L97.7769 3.82235ZM98.5436 3.97781L97.9871 6.72196L98.7538 6.87743L99.3103 4.13328L99.8667 1.38913L99.1 1.23366L98.5436 3.97781ZM99.3103 4.13328L98.7538 6.87742C98.9845 6.92421 99.2262 6.9443 99.4738 6.93259L99.3414 4.13572L99.209 1.33885C99.4359 1.32811 99.6569 1.34658 99.8667 1.38913L99.3103 4.13328ZM99.3414 4.13572L99.4738 6.93258L100.234 6.89659L100.102 4.09972L99.9695 1.30286L99.209 1.33885L99.3414 4.13572ZM100.102 4.09972L100.234 6.89659L100.995 6.8606L100.862 4.06373L100.73 1.26686L99.9695 1.30286L100.102 4.09972ZM100.862 4.06373L100.995 6.8606C100.613 6.87865 100.24 6.81607 99.8968 6.68559L100.893 4.06863L101.888 1.45166C101.526 1.31368 101.132 1.24783 100.73 1.26686L100.862 4.06373ZM100.893 4.06863L99.8968 6.68558L100.622 6.96135L101.617 4.3444L102.613 1.72744L101.888 1.45167L100.893 4.06863ZM101.617 4.3444L100.622 6.96135L101.346 7.23713L102.342 4.62017L103.338 2.00322L102.613 1.72744L101.617 4.3444ZM102.342 4.62017L101.346 7.23712C101.358 7.24163 101.37 7.2461 101.382 7.25052L102.371 4.63122L103.361 2.01193C103.353 2.00912 103.346 2.00622 103.338 2.00323L102.342 4.62017ZM102.371 4.63122L101.382 7.25051L102.085 7.51625L103.075 4.89696L104.064 2.27767L103.361 2.01194L102.371 4.63122ZM103.075 4.89696L102.085 7.51625L102.788 7.78198L103.778 5.1627L104.768 2.54341L104.064 2.27767L103.075 4.89696ZM103.778 5.1627L102.788 7.78197C103.255 7.9584 103.727 7.99768 104.153 7.94484L103.809 5.16609L103.464 2.38734C103.869 2.33721 104.32 2.37423 104.768 2.54342L103.778 5.1627ZM103.809 5.16609L104.153 7.94483L104.956 7.84528L104.612 5.06653L104.268 2.28779L103.464 2.38734L103.809 5.16609ZM104.612 5.06653L104.956 7.84528L105.76 7.74573L105.415 4.96698L105.071 2.18824L104.268 2.28779L104.612 5.06653ZM105.415 4.96698L105.76 7.74573C105.222 7.81236 104.634 7.72186 104.096 7.42576L105.445 4.97248L106.795 2.51919C106.239 2.21306 105.631 2.11889 105.071 2.18824L105.415 4.96698ZM105.445 4.97248L104.096 7.42574L104.766 7.79445L106.116 5.34118L107.465 2.88792L106.795 2.51921L105.445 4.97248ZM106.116 5.34118L104.766 7.79445L105.436 8.16316L106.786 5.70989L108.136 3.25663L107.465 2.88792L106.116 5.34118ZM106.786 5.70989L105.436 8.16314C106.111 8.53407 106.79 8.56003 107.292 8.47382L106.818 5.71422L106.344 2.95462C106.821 2.87267 107.48 2.89575 108.136 3.25665L106.786 5.70989ZM106.818 5.71422L107.292 8.47382L108.204 8.31721L107.73 5.55761L107.256 2.79802L106.344 2.95463L106.818 5.71422ZM107.73 5.55761L108.204 8.31721L109.116 8.1606L108.642 5.401L108.168 2.6414L107.256 2.79802L107.73 5.55761ZM108.642 5.401L109.116 8.1606C108.659 8.23908 108.07 8.21685 107.475 7.93465L108.675 5.40473L109.875 2.8748C109.26 2.58337 108.65 2.55866 108.168 2.64141L108.642 5.401ZM108.675 5.40473L107.475 7.93464L108.19 8.27375L109.39 5.74384L110.59 3.21393L109.875 2.87482L108.675 5.40473ZM109.39 5.74384L108.19 8.27375L108.905 8.61286L110.105 6.08295L111.305 3.55304L110.59 3.21393L109.39 5.74384ZM110.105 6.08295L108.905 8.61285C108.751 8.53961 108.604 8.4515 108.467 8.3499L110.133 6.09948L111.799 3.84907C111.644 3.73465 111.479 3.63552 111.305 3.55305L110.105 6.08295ZM110.133 6.09948L108.467 8.34987L109.103 8.82093L110.769 6.57054L112.435 4.32016L111.799 3.8491L110.133 6.09948ZM110.769 6.57054L109.103 8.82093L109.739 9.29198L111.405 7.0416L113.071 4.79121L112.435 4.32016L110.769 6.57054ZM111.405 7.0416L109.739 9.29195C110.167 9.60829 110.621 9.76233 111.017 9.82233L111.437 7.054L111.857 4.28567C112.228 4.34195 112.662 4.48772 113.071 4.79125L111.405 7.0416ZM111.437 7.054L111.017 9.82233L111.917 9.95885L112.337 7.19052L112.757 4.42219L111.857 4.28567L111.437 7.054ZM112.337 7.19052L111.917 9.95885L112.817 10.0954L113.237 7.32705L113.657 4.55872L112.757 4.42219L112.337 7.19052ZM113.237 7.32705L112.817 10.0954C112.433 10.0372 111.985 9.8851 111.564 9.56673C111.14 9.24657 110.865 8.8488 110.7 8.47478L113.262 7.34648L115.825 6.21817C115.424 5.30677 114.592 4.70058 113.657 4.55872L113.237 7.32705ZM113.262 7.34648L110.7 8.4747L111.059 9.29013L113.621 8.16191L116.184 7.03369L115.825 6.21826L113.262 7.34648ZM113.621 8.16191L111.059 9.29013L111.418 10.1056L113.98 8.97734L116.543 7.84911L116.184 7.03368L113.621 8.16191ZM113.98 8.97734L111.418 10.1055C111.536 10.3733 111.711 10.6612 111.965 10.9297L113.999 9.0057L116.033 7.08174C116.272 7.33455 116.435 7.60358 116.543 7.8492L113.98 8.97734ZM113.999 9.0057L111.965 10.9296L112.508 11.504L114.542 9.58012L116.576 7.65621L116.033 7.08179L113.999 9.0057ZM114.542 9.58012L112.508 11.504L113.051 12.0785L115.085 10.1545L117.12 8.23063L116.576 7.65621L114.542 9.58012ZM115.085 10.1545L113.051 12.0784C113.757 12.8251 114.607 12.9458 114.985 12.9642L115.121 10.1674L115.256 7.37074C115.602 7.3875 116.428 7.49958 117.12 8.23069L115.085 10.1545ZM115.121 10.1674L114.985 12.9642L116.177 13.022L116.313 10.2253L116.448 7.42858L115.256 7.37074L115.121 10.1674ZM116.313 10.2253L116.177 13.022L117.369 13.0798L117.505 10.2831L117.64 7.48642L116.448 7.42858L116.313 10.2253ZM117.505 10.2831L117.369 13.0798C116.975 13.0607 115.963 12.9118 115.254 11.9322C114.573 10.9921 114.718 10.0294 114.789 9.70563L117.524 10.3092L120.258 10.9127C120.333 10.5723 120.476 9.59698 119.79 8.64823C119.074 7.65993 118.051 7.50632 117.64 7.48642L117.505 10.2831ZM117.524 10.3092L114.789 9.70555L114.521 10.9229L117.255 11.5265L119.989 12.1301L120.258 10.9128L117.524 10.3092ZM117.255 11.5265L114.521 10.9229L114.252 12.1403L116.986 12.7439L119.72 13.3475L119.989 12.1301L117.255 11.5265ZM116.986 12.7439L114.252 12.1402C114.13 12.6921 114.052 14.1487 115.403 15.0823L116.995 12.7788L118.587 10.4753C119.147 10.8623 119.532 11.4317 119.696 12.062C119.841 12.623 119.777 13.0911 119.72 13.3476L116.986 12.7439ZM116.995 12.7788L115.403 15.0823L116.115 15.5745L117.707 13.271L119.299 10.9675L118.587 10.4753L116.995 12.7788ZM117.707 13.271L116.115 15.5745L116.828 16.0666L118.42 13.7632L120.011 11.4597L119.299 10.9675L117.707 13.271ZM118.42 13.7632L116.828 16.0666C116.935 16.141 117.037 16.2013 117.128 16.2499L118.452 13.7828L119.776 11.3158C119.843 11.3516 119.923 11.3988 120.011 11.4597L118.42 13.7632ZM118.452 13.7828L117.128 16.2499L118.007 16.7217L119.331 14.2547L120.655 11.7876L119.776 11.3158L118.452 13.7828ZM119.331 14.2547L118.007 16.7217L118.886 17.1936L120.21 14.7265L121.534 12.2595L120.655 11.7876L119.331 14.2547ZM120.21 14.7265L118.886 17.1936C118.577 17.028 118.187 16.7415 117.877 16.27C117.554 15.7787 117.42 15.2387 117.419 14.7433C117.418 13.8836 117.812 13.3069 117.91 13.1646L120.21 14.7619L122.51 16.3593C122.621 16.1998 123.02 15.6086 123.019 14.7372C123.018 13.5259 122.283 12.6612 121.534 12.2595L120.21 14.7265ZM120.21 14.7619L117.911 13.1645L117.033 14.4272L119.333 16.0247L121.633 17.6221L122.51 16.3594L120.21 14.7619ZM119.333 16.0247L117.033 14.4272L116.156 15.69L118.456 17.2874L120.755 18.8848L121.633 17.6221L119.333 16.0247ZM118.456 17.2874L116.156 15.6899C116.035 15.8639 115.579 16.5425 115.656 17.5278C115.759 18.8348 116.657 19.5732 117.278 19.8618L118.459 17.3228L119.639 14.7838C119.912 14.9105 120.294 15.1429 120.629 15.5572C120.986 16.0001 121.196 16.5362 121.239 17.0904C121.315 18.064 120.864 18.7281 120.755 18.8849L118.456 17.2874ZM118.459 17.3228L117.278 19.8618L118.291 20.3328L119.472 17.7937L120.652 15.2547L119.639 14.7838L118.459 17.3228ZM119.472 17.7937L118.291 20.3328L119.304 20.8037L120.485 18.2647L121.665 15.7257L120.652 15.2547L119.472 17.7937ZM120.485 18.2647L119.304 20.8037C119.046 20.6839 118.651 20.4509 118.307 20.0168C117.931 19.5433 117.72 18.9592 117.706 18.3537L120.506 18.2912L123.305 18.2287C123.273 16.7774 122.253 15.9991 121.665 15.7257L120.485 18.2647ZM120.506 18.2912L117.706 18.3536L117.725 19.1823L120.524 19.1199L123.323 19.0575L123.305 18.2288L120.506 18.2912ZM120.524 19.1199L117.725 19.1823L117.743 20.011L120.543 19.9486L123.342 19.8862L123.323 19.0575L120.524 19.1199ZM120.543 19.9486L117.743 20.0108C117.759 20.7044 118.021 21.2967 118.37 21.7318L120.555 19.9801L122.739 18.2284C123.072 18.644 123.327 19.2153 123.342 19.8863L120.543 19.9486ZM120.555 19.9801L118.37 21.7317L118.945 22.4484L121.129 20.6968L123.314 18.9452L122.739 18.2285L120.555 19.9801ZM121.129 20.6968L118.945 22.4484L119.52 23.1651L121.704 21.4135L123.888 19.6618L123.314 18.9452L121.129 20.6968ZM121.704 21.4135L119.52 23.165C119.1 22.6415 118.807 21.872 118.942 21.0003C119.058 20.2503 119.441 19.7651 119.637 19.5522L121.699 21.4464L123.761 23.3406C123.968 23.1155 124.358 22.6187 124.476 21.8578C124.612 20.975 124.316 20.1952 123.889 19.6619L121.704 21.4135ZM121.699 21.4464L119.637 19.5521L118.812 20.45L120.874 22.3443L122.936 24.2386L123.761 23.3407L121.699 21.4464ZM120.874 22.3443L118.812 20.45L117.987 21.3479L120.049 23.2421L122.111 25.1364L122.936 24.2386L120.874 22.3443ZM120.049 23.2421L117.987 21.3478C117.697 21.6643 117.136 22.4382 117.258 23.563C117.378 24.661 118.064 25.2847 118.375 25.5176L120.053 23.2758L121.73 21.034C122.028 21.2567 122.707 21.8696 122.825 22.9564C122.947 24.07 122.391 24.8322 122.111 25.1365L120.049 23.2421ZM120.053 23.2758L118.375 25.5176L119.38 26.2694L121.057 24.0276L122.735 21.7858L121.73 21.034L120.053 23.2758ZM121.057 24.0276L119.38 26.2694L120.385 27.0211L122.062 24.7793L123.74 22.5375L122.735 21.7858L121.057 24.0276ZM122.062 24.7793L120.384 27.0211C120.339 26.9874 120.256 26.9231 120.159 26.8322C120.089 26.7665 119.872 26.5607 119.676 26.2345C119.542 26.0124 118.941 24.9449 119.52 23.6518C120.091 22.3737 121.27 22.103 121.511 22.0535L122.073 24.7967L122.634 27.5399C122.879 27.4898 124.059 27.2178 124.632 25.9379C125.211 24.643 124.61 23.5732 124.474 23.3482C124.276 23.0191 124.057 22.8099 123.982 22.7401C123.88 22.6453 123.792 22.5763 123.74 22.5375L122.062 24.7793ZM122.073 24.7967L121.512 22.0535L121.02 22.1541L121.581 24.8973L122.142 27.6406L122.634 27.5399L122.073 24.7967ZM121.581 24.8973L121.02 22.1541L120.528 22.2547L121.089 24.9979L121.65 27.7412L122.142 27.6406L121.581 24.8973ZM121.089 24.9979L120.528 22.2547C119.102 22.5463 118.581 23.6971 118.464 23.9987L121.072 25.0158L123.681 26.033C123.572 26.3135 123.062 27.4524 121.65 27.7412L121.089 24.9979ZM121.072 25.0158L118.464 23.9986L118.161 24.7744L120.77 25.7917L123.379 26.809L123.681 26.0331L121.072 25.0158Z" fill="black"/>
<path d="M98.1692 34.1866C97.9164 34.1866 97.6859 34.1494 97.4776 34.0751C97.2843 34.0156 97.1207 33.8892 96.9868 33.6958C96.377 33.7999 95.7746 33.8817 95.1797 33.9412C94.5848 34.0007 94.027 34.0304 93.5065 34.0304C93.0603 34.0304 92.7107 33.9189 92.4579 33.6958C92.205 33.4876 92.0786 33.1901 92.0786 32.8034C92.0786 32.5803 92.205 32.3274 92.4579 32.0449C92.7107 31.7623 93.1792 31.4945 93.8634 31.2417C94.5476 30.974 95.5441 30.7657 96.853 30.617C96.9571 29.918 97.1132 29.0925 97.3215 28.1406C97.5297 27.1738 97.7825 26.1476 98.08 25.0618C98.3775 23.9612 98.727 22.8754 99.1286 21.8046C98.5783 22.3846 97.9982 22.8754 97.3884 23.277C96.7935 23.6786 96.2208 23.9835 95.6705 24.1917C95.1351 24.4 94.674 24.5041 94.2873 24.5041C93.975 24.5041 93.7147 24.452 93.5065 24.3479C93.3131 24.2438 93.2164 24.0504 93.2164 23.7678C93.2164 23.4109 93.3875 23.0837 93.7296 22.7862C94.0716 22.4739 94.4435 22.169 94.8451 21.8715C95.4549 21.4104 96.1093 20.8601 96.8083 20.2205C97.5223 19.581 98.1841 18.8968 98.7939 18.168C99.4186 17.4392 99.902 16.7253 100.244 16.0263C100.408 15.7139 100.586 15.4685 100.78 15.29C100.973 15.0967 101.285 15 101.717 15C102.148 15 102.46 15.1934 102.654 15.5801C102.847 15.9519 102.944 16.3981 102.944 16.9187C102.944 17.1269 102.884 17.5582 102.765 18.2126C102.646 18.8522 102.483 19.6405 102.274 20.5775C102.066 21.4997 101.836 22.5185 101.583 23.634C101.33 24.7346 101.07 25.865 100.802 27.0251C100.534 28.1852 100.281 29.3082 100.043 30.3939C100.534 30.379 101.04 30.3716 101.56 30.3716C102.185 30.3716 102.728 30.4237 103.189 30.5278C103.65 30.6319 103.881 30.855 103.881 31.1971C103.881 31.554 103.724 31.8218 103.412 32.0002C103.115 32.1638 102.75 32.3126 102.319 32.4464C101.917 32.5654 101.464 32.6918 100.958 32.8257C100.452 32.9744 99.9169 33.1083 99.3517 33.2273C99.2029 33.5694 99.0245 33.8148 98.8162 33.9635C98.608 34.1123 98.3924 34.1866 98.1692 34.1866Z" fill="white"/>
</svg>
