<svg width="106" height="153" viewBox="0 0 106 153" fill="none" xmlns="http://www.w3.org/2000/svg">
<path d="M105.275 152.503C105.006 152.772 104.798 152.006 104.312 152.006C104.104 152.006 103.856 152.524 103.566 152.524C103.338 152.524 103.089 152.078 102.82 152.078C102.592 152.078 102.343 152.006 102.074 152.006C101.836 152.006 101.587 152.596 101.328 152.596C101.09 152.596 100.841 152.41 100.583 152.41C100.344 152.41 100.096 152.192 99.8367 152.192C99.5985 152.192 99.3499 152.078 99.0909 152.078C98.832 152.078 98.5937 152.358 98.3451 152.358C98.0965 152.358 97.8479 152.047 97.5993 152.047C97.3507 152.047 97.1021 152.047 96.8535 152.047C96.6049 152.047 96.3563 152.275 96.1077 152.275C95.8591 152.275 95.6105 152.575 95.3619 152.575C95.1133 152.575 94.8647 152.389 94.6161 152.389C94.3675 152.389 94.1189 152.347 93.8703 152.347C93.6217 152.347 93.3731 152.088 93.1245 152.088C92.8759 152.088 92.6273 152.254 92.3787 152.254C92.1301 152.254 91.8815 152.513 91.6329 152.513C91.3843 152.513 91.1357 152.109 90.8871 152.109C90.6385 152.109 90.39 152.306 90.1413 152.306C89.8928 152.306 89.6441 152.037 89.3956 152.037C89.1469 152.037 88.8984 152.202 88.6497 152.202C88.4012 152.202 88.1525 152.275 87.904 152.275C87.6553 152.275 87.4068 152.037 87.1582 152.037C86.9096 152.037 86.661 152.42 86.4124 152.42C86.1638 152.42 85.9152 152.42 85.6666 152.42C85.418 152.42 85.1694 152.575 84.9208 152.575C84.6722 152.575 84.4236 152.596 84.175 152.596C83.9264 152.596 83.6778 152.275 83.4292 152.275C83.1806 152.275 82.932 152.057 82.6834 152.057C82.4348 152.057 82.1862 152.378 81.9376 152.378C81.689 152.378 81.4404 152.637 81.1918 152.637C80.9432 152.637 80.6946 152.399 80.446 152.399C80.1974 152.399 79.9488 152.285 79.7002 152.285C79.4516 152.285 79.203 152.441 78.9544 152.441C78.7058 152.441 78.4572 152.099 78.2086 152.099C77.96 152.099 77.7114 152.068 77.4628 152.068C77.2142 152.068 76.9656 152.389 76.7066 152.389C76.4476 152.389 76.2094 152.057 75.9608 152.057C75.7122 152.057 75.4636 152.389 75.2047 152.389C74.9457 152.389 74.7074 152.171 74.4485 152.171C74.1895 152.171 73.9513 152.099 73.6923 152.099C73.4334 152.099 73.1951 152.565 72.9362 152.565C72.6772 152.565 72.439 152.513 72.18 152.513C71.9211 152.513 71.6725 152.648 71.4239 152.648C71.1753 152.648 70.9163 152.037 70.6677 152.037C70.4191 152.037 70.1601 152.244 69.9115 152.244C69.6629 152.244 69.404 152.316 69.1554 152.316C68.9068 152.316 68.6478 152.42 68.3992 152.42C68.1506 152.42 67.8917 152.171 67.6431 152.171C67.3945 152.171 67.1355 152.586 66.8869 152.586C66.6383 152.586 66.3794 152.182 66.1308 152.182C65.8822 152.182 65.6232 152.524 65.3746 152.524C65.126 152.524 64.867 152.13 64.6184 152.13C64.3698 152.13 64.1109 152.068 63.8623 152.068C63.6137 152.068 63.3547 152.596 63.1061 152.596C62.8575 152.596 62.5986 152.596 62.35 152.596C62.1014 152.596 61.8424 152.637 61.5938 152.637C61.3452 152.637 61.0863 152.399 60.8377 152.399C60.5891 152.399 60.3301 152.43 60.0815 152.43C59.8329 152.43 59.5739 152.627 59.3357 152.627C59.0975 152.627 58.8281 152.627 58.5899 152.627C58.3517 152.627 58.0823 152.161 57.8441 152.161C57.6059 152.161 57.3365 152.42 57.0983 152.42C56.8601 152.42 56.6011 152.544 56.3525 152.544C56.1039 152.544 55.8553 152.513 55.6067 152.513C55.3581 152.513 55.0991 152.233 54.8609 152.233C54.6227 152.233 54.3533 152.14 54.1151 152.14C53.8769 152.14 53.6075 152.461 53.3693 152.461C53.1103 152.461 52.8617 152.586 52.6235 152.586C52.3645 152.586 52.1159 152.151 51.8777 152.151C51.6187 152.151 51.3702 152.482 51.1319 152.482C50.873 152.482 50.6244 152.637 50.3861 152.637C50.1168 152.637 49.8682 152.544 49.6403 152.544C49.3606 152.544 49.112 152.544 48.8945 152.544C48.6045 152.544 48.3559 152.524 48.1591 152.524C47.9312 152.524 47.6722 152.41 47.4133 152.378C47.175 152.358 46.9161 152.378 46.6675 152.327C46.4292 152.285 46.2428 151.964 45.9942 151.902C45.7663 151.85 45.4556 152.026 45.207 151.954C44.9791 151.881 44.7512 151.767 44.5026 151.684C44.254 151.602 43.995 151.622 43.7671 151.529C43.5393 151.436 43.3942 151.136 43.156 151.042C42.9178 150.949 42.6692 150.918 42.4413 150.814C42.2134 150.711 41.9337 150.721 41.7058 150.607C41.478 150.493 41.4469 150.038 41.219 149.924C40.9911 149.81 40.5664 150.079 40.3489 149.955C40.1314 149.83 39.9967 149.571 39.7895 149.437C39.5824 149.302 39.5099 148.95 39.3027 148.815C39.0955 148.681 38.7434 148.774 38.5362 148.629C38.329 148.484 38.2772 148.132 38.0701 147.987C37.8629 147.842 37.5521 147.862 37.345 147.717C37.1378 147.572 37.0135 147.344 36.8167 147.189C36.6199 147.034 36.2677 147.085 36.0709 146.93C35.8741 146.775 35.9259 146.34 35.7291 146.174C35.5323 146.008 35.2837 145.936 35.0972 145.77C34.9108 145.604 34.7968 145.366 34.6104 145.2C34.4239 145.034 34.1857 144.941 33.9992 144.765C33.8128 144.589 33.6781 144.382 33.5124 144.206C33.3467 144.03 33.1188 143.895 32.9531 143.719C32.7873 143.543 32.7459 143.242 32.5802 143.056C32.4144 142.87 31.8861 143.004 31.7204 142.807C31.5547 142.611 31.4925 142.341 31.3372 142.155C31.1818 141.968 31.3786 141.502 31.2232 141.305C31.0678 141.109 30.8503 140.974 30.7053 140.767C30.5603 140.56 30.2599 140.477 30.1252 140.27C29.9906 140.062 29.8248 139.876 29.6902 139.658C29.5555 139.441 29.2759 139.327 29.1516 139.109C29.0273 138.892 29.0065 138.612 28.8822 138.395C28.7579 138.177 28.9547 137.794 28.8408 137.576C28.7269 137.359 28.4058 137.245 28.2918 137.027C28.1779 136.81 27.9707 136.623 27.8671 136.406C27.7635 136.188 27.4839 136.023 27.3906 135.795C27.2974 135.567 27.2042 135.329 27.1213 135.09C27.0385 134.852 27.4217 134.448 27.3388 134.21C27.256 133.972 27.1213 133.765 27.0488 133.526C26.9763 133.288 26.6966 133.122 26.6241 132.884C26.5516 132.646 26.3237 132.449 26.2719 132.2C26.2202 131.952 26.5102 131.631 26.4584 131.393C26.4066 131.154 26.2098 130.937 26.158 130.699C26.1062 130.46 26.1476 130.201 26.1062 129.953C26.0648 129.704 26.0855 129.456 26.0544 129.207C26.0233 128.958 25.5883 128.762 25.5676 128.503C25.5469 128.244 25.4847 127.995 25.4743 127.757C25.464 127.519 25.9508 127.228 25.9405 126.98C25.9301 126.731 25.7333 126.483 25.7333 126.244C25.7333 126.006 25.7747 125.747 25.7851 125.499C25.7955 125.25 25.8887 125.001 25.899 124.753C25.9094 124.504 25.9301 124.256 25.9508 124.007C25.9715 123.758 25.8265 123.489 25.8472 123.251C25.868 123.013 25.609 122.712 25.6504 122.464C25.6919 122.215 26.2719 122.049 26.3134 121.811C26.3548 121.573 26.3652 121.314 26.417 121.076C26.4687 120.837 26.417 120.568 26.4791 120.33C26.5413 120.092 26.6034 119.853 26.6759 119.615C26.7484 119.377 26.6759 119.097 26.7588 118.859C26.8416 118.621 27.142 118.465 27.2353 118.237C27.3285 118.01 27.4114 117.771 27.5046 117.543C27.5978 117.316 27.3492 116.932 27.4528 116.704C27.5564 116.477 27.9914 116.404 28.095 116.176C28.1986 115.948 28.3747 115.762 28.4886 115.544C28.6026 115.327 28.4886 114.975 28.6129 114.767C28.7372 114.56 28.9237 114.363 29.048 114.156C29.1723 113.949 29.2966 113.721 29.4209 113.514C29.5452 113.307 29.4623 112.955 29.5866 112.737C29.7109 112.52 29.9595 112.375 30.0942 112.168C30.2288 111.96 30.5706 111.867 30.6949 111.65C30.8192 111.432 30.6431 111.038 30.7674 110.821C30.8917 110.603 30.9539 110.355 31.0678 110.137C31.1818 109.92 31.3579 109.733 31.4718 109.516C31.5858 109.298 32.1348 109.278 32.228 109.05C32.3212 108.822 32.3419 108.542 32.4351 108.314C32.5284 108.086 32.6734 107.858 32.7459 107.62C32.8184 107.382 32.7459 107.092 32.808 106.854C32.8702 106.615 33.0981 106.398 33.1499 106.16C33.2017 105.921 33.0774 105.642 33.1084 105.393C33.1395 105.145 33.2638 104.906 33.2742 104.647C33.2845 104.388 33.3156 104.14 33.3156 103.891C33.3156 103.643 33.2638 103.394 33.2431 103.135C33.2224 102.876 32.9116 102.669 32.8805 102.42C32.8495 102.172 33.1706 101.871 33.1291 101.623C33.0877 101.374 32.4662 101.26 32.4144 101.012C32.3626 100.763 32.4973 100.473 32.4351 100.235C32.373 99.9965 32.518 99.6754 32.4351 99.4371C32.3523 99.1989 32.0415 99.0435 31.9483 98.8052C31.8551 98.567 31.6479 98.3909 31.5443 98.1734C31.4407 97.9559 31.7101 97.5208 31.5858 97.3033C31.4615 97.0858 31.0368 97.034 30.9021 96.8268C30.7674 96.6197 30.985 96.1535 30.8296 95.9464C30.6742 95.7392 30.2185 95.7703 30.0527 95.5838C29.887 95.3974 29.8352 95.097 29.6591 94.9209C29.483 94.7448 29.338 94.5169 29.1516 94.3512C28.9651 94.1854 28.6336 94.1647 28.4472 94.0094C28.2607 93.854 27.9396 93.854 27.7428 93.6986C27.546 93.5432 27.4942 93.191 27.2974 93.046C27.1006 92.901 26.7484 92.9528 26.5413 92.8181C26.3341 92.6835 26.2202 92.3831 26.013 92.2484C25.8058 92.1138 25.5261 92.062 25.319 91.9273C25.1118 91.7927 25.06 91.4094 24.8528 91.2644C24.6457 91.1194 24.5317 90.8604 24.3349 90.7051C24.1381 90.5497 23.931 90.415 23.7445 90.2596C23.5581 90.1043 23.4027 89.9075 23.2266 89.7314C23.0505 89.5553 22.5533 89.6485 22.3979 89.4413C22.2425 89.2342 22.5429 88.7577 22.4186 88.5298C22.2943 88.3019 22.2322 88.1258 22.139 87.8876C22.0457 87.6494 21.994 87.4629 21.9422 87.2039C21.8904 86.9657 21.8282 86.7585 21.8075 86.4996C21.7868 86.2613 21.2378 86.0231 21.2378 85.7641C21.2378 85.5259 21.4553 85.2773 21.476 85.0183C21.5071 84.7801 21.7661 84.5626 21.8179 84.3036C21.8593 84.0654 21.5796 83.7442 21.6418 83.4956C21.7039 83.247 21.8179 82.9985 21.9007 82.7706C21.9836 82.522 22.4704 82.4598 22.574 82.2319C22.6776 81.9937 22.4083 81.5794 22.5326 81.3722C22.6569 81.165 23.123 81.1754 23.2784 80.9786C23.4338 80.7818 23.4545 80.4918 23.6409 80.3157C23.8274 80.1396 24.0449 80.036 24.2417 79.891C24.4385 79.746 24.5007 79.3523 24.7182 79.2384C24.9357 79.1245 25.2983 79.3006 25.5365 79.2177C25.7747 79.1348 25.9301 78.8137 26.1684 78.7515C26.4066 78.6894 26.6448 78.5133 26.8934 78.4822C27.142 78.4511 27.4217 78.6479 27.6703 78.6376C27.9189 78.6272 28.1675 78.679 28.4161 78.6894C28.6647 78.6998 28.9133 78.6583 29.1723 78.6894C29.4312 78.7205 29.6177 78.9691 29.8663 79.0209C30.1149 79.0727 30.3842 78.9691 30.6328 79.0416C30.8814 79.1141 31.1818 78.9794 31.42 79.0727C31.6583 79.1659 31.8033 79.4663 32.0312 79.5699C32.259 79.6735 32.5076 79.7252 32.7355 79.8495C32.9634 79.9738 33.0774 80.2535 33.2949 80.3778C33.5124 80.5021 33.7299 80.5953 33.9475 80.7404C34.165 80.8854 34.2686 81.134 34.4654 81.2894C34.6622 81.4447 34.859 81.569 35.0558 81.7348C35.2526 81.9005 35.4598 82.0144 35.6462 82.1905C35.8327 82.3666 35.9363 82.5945 36.1123 82.7706C36.2884 82.9467 36.8478 82.7706 37.0135 82.9467C37.1792 83.1227 37.2518 83.4128 37.4175 83.5992C37.5832 83.7857 37.5521 84.1275 37.7075 84.3243C37.8629 84.5211 38.1322 84.6247 38.2772 84.8319C38.4222 85.039 38.3912 85.3498 38.5258 85.5673C38.6605 85.7848 38.7848 85.9817 38.9091 86.2096C39.0334 86.4374 39.3441 86.541 39.4581 86.7585C39.572 86.9761 39.3441 87.3593 39.4581 87.5976C39.572 87.8358 39.6653 88.043 39.7688 88.2709C39.8724 88.4987 40.0899 88.6748 40.1728 88.9131C40.2557 89.1513 40.3489 89.3792 40.4318 89.6174C40.5146 89.8557 40.4628 90.125 40.5353 90.3632C40.6079 90.6015 41.0325 90.7465 41.0947 90.9951C41.1568 91.2437 41.3329 91.4612 41.3847 91.7098C41.4365 91.9584 41.219 92.2588 41.2604 92.5074C41.3019 92.756 41.1465 93.0253 41.1776 93.2843C41.2086 93.5432 41.7266 93.7193 41.7473 93.9783C41.768 94.2373 41.623 94.5066 41.6437 94.7552C41.6644 95.0038 41.364 95.2834 41.3744 95.532C41.3847 95.7806 41.3744 96.0396 41.3744 96.2882C41.3744 96.5368 41.5297 96.7854 41.5297 97.034C41.5297 97.2826 41.4469 97.5415 41.4469 97.7901C41.4469 98.0387 41.6023 98.2977 41.5919 98.5463C41.5815 98.7949 41.8405 99.0642 41.8301 99.3128C41.8198 99.5614 41.7887 99.8204 41.768 100.069C41.7473 100.318 41.5815 100.566 41.5505 100.815C41.5194 101.063 41.2708 101.291 41.2397 101.54C41.2086 101.788 41.5194 102.099 41.478 102.337C41.4365 102.576 41.0843 102.783 41.0429 103.021C41.0015 103.259 41.1776 103.56 41.1258 103.808C41.074 104.057 40.8461 104.264 40.7839 104.502C40.7218 104.741 40.6493 104.989 40.5871 105.227C40.525 105.466 40.2246 105.652 40.1521 105.89C40.0796 106.129 40.2764 106.46 40.1935 106.698C40.1107 106.937 40.3282 107.278 40.2453 107.517C40.1624 107.755 39.717 107.869 39.6342 108.097C39.5513 108.325 39.6756 108.656 39.5824 108.884C39.4892 109.112 39.0438 109.215 38.9505 109.443C38.8573 109.671 38.8055 109.93 38.7123 110.158C38.6191 110.386 38.5776 110.645 38.474 110.883C38.3705 111.121 38.4948 111.442 38.4015 111.67C38.3083 111.898 38.2565 112.157 38.1529 112.385C38.0493 112.613 38.0597 112.893 37.9665 113.12C37.8733 113.348 37.5314 113.483 37.4382 113.711C37.345 113.939 37.231 114.167 37.1378 114.395C37.0446 114.622 37.1067 114.923 37.0135 115.151C36.9203 115.379 36.7546 115.586 36.6717 115.824C36.5888 116.062 36.1641 116.176 36.0813 116.414C35.9984 116.653 36.247 116.994 36.1641 117.233C36.0813 117.471 35.7912 117.647 35.7187 117.885C35.6462 118.124 35.8327 118.434 35.7705 118.673C35.7084 118.911 35.6669 119.159 35.6151 119.408C35.5634 119.657 35.1283 119.822 35.0869 120.071C35.0454 120.319 35.1283 120.589 35.0869 120.837C35.0454 121.086 35.1387 121.345 35.1076 121.594C35.0765 121.842 35.3458 122.101 35.3251 122.36C35.3044 122.619 35.004 122.847 34.9936 123.096C34.9833 123.344 35.2215 123.593 35.2319 123.841C35.2422 124.09 34.8176 124.359 34.8383 124.618C34.859 124.877 35.408 125.074 35.4391 125.323C35.4701 125.571 35.3769 125.83 35.408 126.068C35.4391 126.307 35.3148 126.586 35.3458 126.825C35.3769 127.063 35.5841 127.291 35.6255 127.529C35.6669 127.767 35.6048 128.036 35.6566 128.275C35.7084 128.513 35.6566 128.793 35.7084 129.02C35.7602 129.248 36.0605 129.445 36.1227 129.673C36.1848 129.922 36.1227 130.191 36.2056 130.419C36.2781 130.657 36.2366 130.937 36.3195 131.165C36.4024 131.403 36.7753 131.527 36.8581 131.745C36.9514 131.983 36.9721 132.232 37.0653 132.449C37.1689 132.677 37.0757 133.008 37.1896 133.216C37.3139 133.443 37.6557 133.526 37.78 133.734C37.9147 133.951 37.8215 134.303 37.9665 134.5C38.1115 134.707 38.3601 134.842 38.5051 135.028C38.6709 135.225 39.0023 135.246 39.168 135.422C39.3545 135.608 39.3856 135.909 39.5617 136.064C39.7585 136.24 39.831 136.561 40.0174 136.686C40.235 136.841 40.5975 136.737 40.7943 136.841C41.0429 136.976 41.1879 137.255 41.3847 137.328C41.8198 137.483 41.6437 137.556 41.8509 137.266C42.058 136.976 42.0062 137.204 41.8198 136.758C41.7369 136.572 41.6126 136.354 41.509 136.085C41.4262 135.878 41.5919 135.557 41.509 135.308C41.4365 135.09 40.929 134.997 40.8565 134.749C40.7839 134.521 40.9911 134.2 40.9186 133.951C40.8565 133.723 40.5561 133.547 40.4836 133.298C40.4214 133.071 40.4939 132.791 40.4421 132.542C40.3903 132.304 40.1107 132.107 40.0589 131.859C40.0071 131.61 40.4525 131.289 40.411 131.04C40.3696 130.792 39.7792 130.647 39.7481 130.398C39.717 130.15 39.7999 129.891 39.7688 129.642C39.7378 129.393 39.6445 129.155 39.6238 128.907C39.6031 128.658 39.9449 128.389 39.9346 128.14C39.9242 127.891 39.7999 127.653 39.7895 127.405C39.7792 127.156 39.8413 126.918 39.831 126.659C39.8206 126.4 39.5409 126.162 39.5409 125.913C39.5409 125.664 39.7895 125.426 39.7999 125.178C39.8103 124.929 39.5409 124.67 39.5617 124.421C39.5824 124.173 39.8517 123.945 39.8724 123.696C39.8931 123.448 39.7585 123.189 39.7895 122.94C39.8206 122.692 40.2142 122.505 40.2453 122.257C40.2764 122.008 39.8413 121.687 39.8828 121.438C39.9242 121.19 40.1625 120.982 40.2142 120.734C40.266 120.485 40.5975 120.309 40.6493 120.071C40.7011 119.833 40.7736 119.594 40.8461 119.356C40.9186 119.118 40.8565 118.849 40.929 118.61C41.0015 118.372 41.2811 118.206 41.364 117.968C41.4469 117.73 41.2501 117.409 41.3329 117.181C41.4158 116.953 41.623 116.767 41.7058 116.528C41.7887 116.29 41.6333 115.969 41.7266 115.741C41.8198 115.513 41.8301 115.244 41.9234 115.016C42.0166 114.788 42.3791 114.685 42.4827 114.457C42.5863 114.229 42.6277 113.97 42.7417 113.752C42.8556 113.535 43.2285 113.452 43.3425 113.234C43.4564 113.017 43.5703 112.799 43.6946 112.582C43.8189 112.364 43.9536 112.167 44.0883 111.95C44.2229 111.732 44.0365 111.339 44.1815 111.121C44.3265 110.904 44.7097 110.883 44.8548 110.676C44.9998 110.469 44.7719 110.013 44.9169 109.816C45.0619 109.619 45.4141 109.557 45.5695 109.36C45.7249 109.164 45.9217 109.008 46.077 108.811C46.2324 108.615 46.5432 108.552 46.7089 108.356C46.8746 108.159 46.9782 107.941 47.144 107.744C47.3097 107.548 47.0714 107.03 47.2268 106.833C47.3822 106.636 47.6101 106.512 47.7655 106.315C47.9208 106.118 48.0658 105.921 48.2109 105.725C48.3559 105.528 48.6459 105.435 48.8013 105.238C48.9567 105.041 48.9359 104.709 49.081 104.513C49.226 104.316 49.3503 104.098 49.4953 103.891C49.6403 103.684 49.8682 103.549 50.0132 103.353C50.1582 103.156 50.3654 102.99 50.5001 102.783C50.6347 102.576 50.8315 102.4 50.9662 102.192C51.1008 101.985 51.5048 101.944 51.6395 101.737C51.7741 101.529 51.9502 101.333 52.0849 101.126C52.2195 100.918 51.8984 100.421 52.0227 100.204C52.147 99.9861 52.2506 99.7582 52.3749 99.551C52.4992 99.3439 52.6857 99.1574 52.7996 98.9399C52.9135 98.7224 53.4936 98.7431 53.6076 98.5256C53.7215 98.3081 53.3279 97.8212 53.4418 97.5933C53.5558 97.3655 53.8769 97.2515 53.9805 97.034C54.084 96.8165 53.9597 96.4746 54.0633 96.2571C54.1669 96.0396 54.6227 95.9567 54.7159 95.7288C54.8091 95.5009 54.6952 95.1798 54.7884 94.9519C54.8816 94.7241 55.0474 94.5169 55.1302 94.289C55.2131 94.0611 55.2545 93.8022 55.327 93.5743C55.3995 93.3464 55.5031 93.1082 55.5756 92.8803C55.6481 92.6524 55.9589 92.4763 56.021 92.2381C56.0832 91.9998 56.0728 91.7305 56.135 91.4923C56.1971 91.254 56.1143 90.9744 56.166 90.7361C56.2178 90.4979 56.3007 90.2596 56.3421 90.011C56.3836 89.7624 56.7668 89.576 56.8083 89.3274C56.8497 89.0788 56.3525 88.7577 56.3836 88.5091C56.4147 88.2605 56.8704 88.0637 56.9015 87.8151C56.9326 87.5665 56.6632 87.2972 56.684 87.0486C56.7047 86.8 56.6736 86.5514 56.684 86.3028C56.6943 86.0542 56.7047 85.8056 56.7047 85.5673C56.7047 85.3291 56.9429 85.0598 56.9326 84.8215C56.9222 84.5833 56.8186 84.3243 56.7979 84.0861C56.7772 83.8478 56.9015 83.5682 56.8704 83.3299C56.8393 83.0917 56.6011 82.8638 56.5597 82.6152C56.5182 82.3666 56.4147 82.1387 56.3732 81.8901C56.3318 81.6415 56.1971 81.424 56.1453 81.1858C56.0935 80.9475 56.3421 80.6264 56.28 80.3882C56.2178 80.1499 55.99 79.9531 55.9278 79.7149C55.8657 79.4766 55.8449 79.2177 55.7621 78.9794C55.6792 78.7412 55.3581 78.5962 55.2752 78.3683C55.1924 78.1404 55.3581 77.7986 55.2752 77.5707C55.1924 77.3428 55.1613 77.0735 55.0577 76.8456C54.9541 76.6177 54.5916 76.5142 54.488 76.2966C54.3844 76.0791 54.5191 75.7269 54.4051 75.5094C54.2912 75.2919 54.1669 75.0847 54.0426 74.8568C53.9287 74.6496 53.6386 74.515 53.5247 74.2871C53.4107 74.0696 53.0793 73.966 52.955 73.7381C52.841 73.5206 52.8825 73.2202 52.7685 72.9923C52.6546 72.7644 52.4371 72.6091 52.3231 72.3812C52.2092 72.1533 52.3231 71.8218 52.2195 71.6043C52.1159 71.3868 52.1781 71.076 52.0642 70.8481C51.9502 70.6203 51.5048 70.5788 51.4012 70.3509C51.2976 70.1231 51.1112 69.947 51.0076 69.7191C50.904 69.4912 50.8626 69.2426 50.759 69.0147C50.6554 68.7868 50.4897 68.59 50.3861 68.3622C50.2825 68.1343 50.4172 67.8028 50.324 67.5749C50.2307 67.347 49.8889 67.2227 49.7957 66.9949C49.7025 66.767 50.0236 66.363 49.92 66.1351C49.8164 65.9072 49.7232 65.6897 49.63 65.4515C49.5367 65.2132 49.2467 65.0682 49.1535 64.8403C49.0602 64.6124 48.7184 64.4778 48.6252 64.2395C48.532 64.0013 48.563 63.732 48.4698 63.4937C48.3766 63.2555 48.3041 63.0276 48.2212 62.7894C48.1384 62.5511 48.2627 62.2507 48.1798 62.0125C48.0969 61.7743 48.128 61.5049 48.0555 61.2667C47.983 61.0285 47.5272 60.9042 47.4651 60.6659C47.4029 60.4277 47.5894 60.1066 47.5272 59.8683C47.4651 59.6301 47.2268 59.4333 47.1647 59.195C47.1025 58.9568 46.9782 58.7289 46.9161 58.4803C46.8539 58.2317 46.6882 58.0245 46.626 57.7759C46.5639 57.5274 46.74 57.2373 46.6882 56.9887C46.6364 56.7401 46.7503 56.4708 46.6882 56.2222C46.626 55.9736 46.5432 55.7457 46.5017 55.4971C46.4603 55.2485 46.2531 55.0413 46.2117 54.7927C46.1703 54.5441 46.3257 54.2748 46.2842 54.0262C46.2428 53.7776 46.1496 53.5497 46.1081 53.3011C46.0667 53.0525 45.6731 52.8558 45.642 52.6072C45.6109 52.3586 45.6006 52.11 45.5695 51.8614C45.5384 51.6128 45.8388 51.3331 45.8181 51.0845C45.7974 50.8359 45.6006 50.5976 45.5799 50.349C45.5591 50.1004 45.9113 49.8311 45.901 49.5825C45.8906 49.3339 45.8077 49.0957 45.8077 48.8471C45.8077 48.5985 45.6938 48.3499 45.6938 48.1013C45.6938 47.8527 45.6316 47.6041 45.6316 47.3555C45.6316 47.1069 45.4866 46.8583 45.497 46.5993C45.5073 46.3404 45.9424 46.1228 45.9528 45.8639C45.9631 45.6049 45.5488 45.346 45.5591 45.0974C45.5695 44.8488 45.8595 44.6209 45.8802 44.3723C45.901 44.1237 46.0356 43.8854 46.0563 43.6368C46.0771 43.3882 45.8906 43.1189 45.9217 42.8703C45.9527 42.6217 46.2842 42.4145 46.3153 42.1659C46.3464 41.9173 45.8595 41.5962 45.8906 41.3476C45.9217 41.099 46.0563 40.8712 46.0978 40.6226C46.1392 40.374 46.1703 40.1254 46.2221 39.8768C46.2739 39.6282 46.191 39.3589 46.2428 39.1103C46.2946 38.8617 46.8954 38.7477 46.9575 38.5095C47.0197 38.2712 46.6882 37.9294 46.7503 37.6808C46.8125 37.4322 46.9886 37.225 47.0507 36.9868C47.1129 36.7485 47.1336 36.4896 47.2061 36.2514C47.2786 36.0131 47.579 35.8474 47.6619 35.6091C47.7447 35.3709 47.6308 35.0705 47.7137 34.8323C47.7965 34.594 47.9105 34.3765 47.9933 34.1382C48.0762 33.9 48.3766 33.755 48.4698 33.5271C48.563 33.2992 48.2005 32.8849 48.2937 32.6466C48.387 32.4084 48.6873 32.2634 48.7806 32.0355C48.8738 31.8076 48.9981 31.5901 49.1017 31.3622C49.2053 31.1343 49.5782 31.0411 49.6921 30.8132C49.806 30.5854 49.8889 30.3575 50.0029 30.14C50.1168 29.9224 50.0961 29.6324 50.2204 29.4045C50.3447 29.1766 50.1893 28.8141 50.3032 28.5965C50.4172 28.379 50.8937 28.3583 51.018 28.1408C51.1423 27.9232 51.0801 27.6022 51.2044 27.3846C51.3287 27.1671 51.6084 27.0428 51.7431 26.8356C51.8777 26.6285 51.8881 26.3384 52.0227 26.1209C52.1574 25.9034 52.4681 25.8205 52.6028 25.603C52.7375 25.3855 52.6339 25.0229 52.7789 24.8158C52.9239 24.6086 53.3486 24.5982 53.4936 24.4014C53.6386 24.2046 53.504 23.5935 53.6593 23.3863C54.0322 23.3345 53.7836 23.9146 54.1669 24.2046C54.3326 24.3393 54.7159 24.2564 54.9438 24.4325C55.1199 24.5775 55.2442 24.8158 55.4513 24.9919C55.6274 25.1472 55.8035 25.3337 56.0003 25.4994C56.1764 25.6548 56.425 25.7584 56.6115 25.9345C56.7876 26.1002 56.9118 26.3384 57.0983 26.5145C57.2744 26.6803 57.3676 26.9392 57.5541 27.1153C57.7405 27.2914 58.1963 27.1775 58.3724 27.3536C58.5485 27.5297 58.4345 27.9958 58.6003 28.1719C58.766 28.348 59.1285 28.3583 59.2943 28.5448C59.46 28.7312 59.5429 28.9902 59.7086 29.1766C59.8743 29.3631 59.9779 29.6013 60.1437 29.7981C60.3094 29.9949 60.6098 30.0674 60.7651 30.2642C60.9205 30.4611 61.0034 30.7097 61.1588 30.9168C61.3141 31.124 61.252 31.4658 61.397 31.673C61.542 31.8801 61.7803 32.0148 61.9253 32.222C62.0703 32.4291 62.0496 32.7295 62.1739 32.947C62.2982 33.1646 62.8575 33.1231 62.9818 33.3407C63.1061 33.5582 62.8679 33.9725 62.9818 34.2004C63.0958 34.4283 63.2201 34.6355 63.3237 34.8633C63.4272 35.0912 63.8001 34.998 63.8934 35.2259C64.2352 35.3502 63.9969 35.1948 64.4216 35.0498C64.6184 34.9773 64.981 35.2984 65.2399 35.2259C65.4575 35.1637 65.6646 35.0498 65.9236 34.9876C66.1515 34.9255 66.3069 34.5733 66.5555 34.5112C66.7833 34.4594 67.0941 34.739 67.3323 34.6976C67.5706 34.6562 67.7363 34.2211 67.9745 34.1901C68.2128 34.159 68.451 34.0865 68.6996 34.0554C68.9482 34.0243 69.1865 33.9 69.4247 33.8897C69.6629 33.8793 69.9219 34.4283 70.1705 34.4283C70.4191 34.4283 70.647 34.3454 70.8852 34.3661C71.1235 34.3869 71.3824 34.2211 71.6207 34.2625C71.8589 34.304 72.0143 34.2004 72.2525 34.2625C72.584 34.0968 72.6979 34.3351 72.9362 33.9311C73.0398 33.755 72.9362 33.3925 73.0708 33.1542C73.1848 32.9574 73.1537 32.6466 73.2884 32.4188C73.4127 32.222 73.4955 31.9734 73.6302 31.7558C73.7545 31.5487 74.1377 31.4969 74.2828 31.2897C74.4174 31.0825 74.7385 30.9997 74.8732 30.7822C75.0078 30.5646 75.1011 30.3368 75.2357 30.1296C75.3704 29.9224 75.329 29.6013 75.474 29.3942C75.619 29.187 75.8469 29.0523 75.9919 28.8452C76.1369 28.638 76.3648 28.5033 76.5202 28.3065C76.6755 28.1097 76.7377 27.8508 76.8931 27.654C77.0484 27.4572 76.9034 27.0221 77.0588 26.8356C77.2142 26.6492 77.8149 26.8046 77.9703 26.6181C78.1257 26.4317 78.1568 26.1209 78.3225 25.9448C78.4882 25.748 78.685 25.603 78.8611 25.4269C79.0372 25.2404 78.9854 24.8261 79.1615 24.6708C79.3583 24.4947 79.7727 24.6086 79.9591 24.4739C80.1766 24.3082 80.3217 24.1321 80.5288 24.0285C80.7774 23.8939 80.8292 23.8835 81.0467 23.8524C81.3679 24.0389 81.0675 24.0078 81.285 24.4325C81.3782 24.619 81.8029 24.6811 81.9272 24.9401C82.0308 25.1369 82.2587 25.3026 82.3726 25.5512C82.4762 25.7584 82.2069 26.1727 82.3208 26.4006C82.4244 26.6181 82.7041 26.7528 82.818 26.991C82.9216 27.2085 82.7973 27.54 82.9112 27.7679C83.0148 27.9854 83.4395 28.0579 83.5535 28.2962C83.657 28.5137 83.8538 28.7001 83.9574 28.9384C84.061 29.1766 83.916 29.4977 84.0196 29.7256C84.1232 29.9535 84.0921 30.2332 84.1957 30.4714C84.2993 30.7096 84.7447 30.7718 84.8379 31.01C84.9311 31.2483 84.9725 31.4865 85.0761 31.7144C85.1797 31.9423 85.0347 32.2634 85.1279 32.5016C85.2211 32.7399 85.449 32.9056 85.5423 33.1335C85.6355 33.3614 85.4594 33.6929 85.5526 33.9311C85.6458 34.1693 85.7805 34.3765 85.8634 34.6044C85.9462 34.8323 86.3191 34.9669 86.4124 35.1948C86.5056 35.4227 86.3088 35.7645 86.3916 36.0028C86.4745 36.241 86.9199 36.3446 87.0028 36.5828C87.0856 36.8211 87.2617 37.0282 87.3446 37.2561C87.4275 37.484 87.5311 37.7222 87.6139 37.9605C87.6968 38.1987 87.79 38.4266 87.8729 38.6648C87.9557 38.9031 87.4378 39.3278 87.5207 39.566C87.6036 39.8043 87.8625 39.9803 87.935 40.2186C88.0075 40.4568 88.2561 40.6433 88.3286 40.8919C88.4012 41.1405 88.3079 41.4202 88.3804 41.6584C88.4529 41.8966 88.8569 42.052 88.9294 42.2902C89.0019 42.5285 88.7844 42.8496 88.8466 43.0879C88.9087 43.3261 88.743 43.6265 88.8051 43.8751C88.8673 44.1237 89.3127 44.2687 89.3645 44.5173C89.4163 44.7659 89.3127 45.0456 89.3645 45.2838C89.4163 45.5221 89.6441 45.7396 89.6856 45.9882C89.727 46.2368 89.6131 46.5164 89.6649 46.7547C89.7167 46.9929 89.9756 47.2208 90.017 47.4591C90.0585 47.6973 90.1206 47.9563 90.1517 48.2049C90.1828 48.4535 89.7374 48.7642 89.7685 49.0128C89.7995 49.2614 89.8513 49.51 89.872 49.7586C89.8927 50.0072 89.9963 50.2454 90.0067 50.494C90.0171 50.7426 89.9238 51.0016 89.9342 51.2502C89.9445 51.4988 90.2242 51.7474 90.2242 51.996C90.2242 52.2446 89.986 52.4932 89.9756 52.7418C89.9653 52.9904 90.3485 53.2597 90.3382 53.5083C90.3278 53.7569 90.3071 54.0159 90.276 54.2645C90.2449 54.5131 89.7374 54.7099 89.6959 54.9481C89.6545 55.1864 89.8202 55.4764 89.7788 55.7147C89.7374 55.9529 89.727 56.2118 89.6649 56.4501C89.6027 56.6883 89.4784 56.9162 89.4059 57.1544C89.3334 57.3927 89.4059 57.6724 89.323 57.9106C89.2402 58.1489 89.323 58.4492 89.2298 58.6771C89.1366 58.905 88.9501 59.1122 88.8466 59.3401C88.743 59.5679 88.5462 59.7544 88.4426 59.9823C88.339 60.2102 88.2251 60.438 88.1111 60.6556C87.9972 60.8731 87.9454 61.1424 87.8314 61.3496C87.7175 61.5567 87.6243 61.8157 87.5 62.0229C87.3757 62.23 87.0442 62.3336 86.9199 62.5511C86.7956 62.7686 86.9303 63.1416 86.806 63.3487C86.6817 63.5559 86.3295 63.6491 86.2052 63.8563C86.0809 64.0634 85.7701 64.1877 85.6562 64.4053C85.5423 64.6228 85.7287 65.0164 85.6148 65.234C85.5008 65.4515 85.2729 65.6172 85.1694 65.8451C85.0658 66.073 85.2211 66.4044 85.1279 66.6323C85.0347 66.8602 84.869 67.057 84.7965 67.2952C84.7239 67.5335 84.6204 67.751 84.5686 67.9892C84.5168 68.2275 84.1542 68.414 84.1232 68.6626C84.0921 68.9112 84.3718 69.1805 84.3614 69.4394C84.351 69.6984 84.351 69.9159 84.3614 70.1749C84.3718 70.4338 84.32 70.6617 84.3511 70.9207C84.3821 71.1589 84.5168 71.3868 84.5686 71.6354C84.61 71.8736 84.5893 72.1222 84.6514 72.3708C84.7136 72.5987 84.6514 72.8784 84.7239 73.127C84.7965 73.3549 85.2004 73.4688 85.2937 73.7071C85.3765 73.9349 84.9725 74.3596 85.0761 74.5979C85.1694 74.8154 85.7909 74.8154 85.9048 75.0433C86.0084 75.2608 85.6562 75.7062 85.7701 75.9341C85.8841 76.162 86.1845 76.2759 86.3088 76.5038C86.4331 76.7317 86.6506 76.8767 86.7749 77.0942C86.8992 77.3117 87.1789 77.4257 87.3135 77.6432C87.4482 77.8607 87.4896 78.1093 87.6243 78.3269C87.7589 78.5444 87.9454 78.7205 88.08 78.938C88.2147 79.1555 88.4115 79.3213 88.5358 79.5388C88.6601 79.7563 88.4219 80.1914 88.5462 80.4089C88.6705 80.6264 88.7015 80.8957 88.8258 81.1132C88.9501 81.3308 89.2298 81.4551 89.3541 81.6726C89.4784 81.8901 89.7063 82.0455 89.8306 82.263C89.9549 82.4805 90.1724 82.6359 90.3071 82.8638C90.4417 83.0917 90.1931 83.506 90.3071 83.7235C90.421 83.9411 90.9493 83.9307 91.0736 84.1586C91.1979 84.3865 91.3947 84.5522 91.519 84.7697C91.6433 84.9873 91.4983 85.3498 91.6122 85.5777C91.7262 85.8056 91.8815 85.992 91.9955 86.2199C92.1094 86.4478 92.3477 86.5928 92.4616 86.8207C92.5755 87.0486 92.5859 87.3179 92.7102 87.5354C92.8345 87.7529 93.0831 87.9083 93.1971 88.1258C93.311 88.3433 93.311 88.623 93.4249 88.8509C93.5389 89.0788 93.8082 89.2135 93.9221 89.4413C94.0361 89.6692 94.1604 89.8867 94.264 90.1043C94.3675 90.3218 94.1915 90.6947 94.295 90.9226C94.3986 91.1505 94.7922 91.2333 94.8958 91.4612C94.9994 91.6891 94.9165 91.9998 95.0305 92.2277C95.1444 92.4556 95.1444 92.7249 95.248 92.9528C95.3516 93.1807 95.3309 93.4604 95.4344 93.6883C95.538 93.9161 95.9834 93.9886 96.087 94.2165C96.1906 94.4444 96.1699 94.7241 96.2735 94.9519C96.3771 95.1798 96.4496 95.4181 96.5428 95.6563C96.636 95.8946 96.7292 96.1224 96.8328 96.3503C96.9364 96.5782 97.2161 96.7336 97.3093 96.9615C97.4025 97.1893 97.2161 97.5415 97.3093 97.7798C97.4025 98.018 97.5786 98.2148 97.6718 98.4427C97.7651 98.6706 98.0033 98.8467 98.0965 99.0849C98.1898 99.3232 98.2726 99.5511 98.3658 99.7893C98.4591 100.028 98.3659 100.328 98.4591 100.566C98.5523 100.804 98.9356 100.918 99.0288 101.157C99.122 101.395 98.7802 101.788 98.8734 102.016C98.9666 102.244 99.1531 102.451 99.236 102.679C99.3188 102.907 99.3085 103.187 99.3913 103.425C99.4742 103.663 99.9092 103.777 99.9921 104.015C100.075 104.254 99.9507 104.564 100.034 104.803C100.116 105.041 99.9714 105.352 100.044 105.59C100.116 105.828 100.406 106.004 100.479 106.243C100.551 106.481 100.696 106.698 100.769 106.937C100.841 107.175 100.945 107.403 101.018 107.651C101.09 107.9 100.873 108.221 100.945 108.459C101.018 108.697 101.297 108.874 101.37 109.122C101.442 109.371 101.577 109.588 101.649 109.827C101.722 110.065 101.929 110.272 101.991 110.51C102.053 110.748 101.888 111.059 101.95 111.297C102.012 111.536 102.209 111.753 102.271 111.991C102.333 112.23 102.281 112.509 102.343 112.748C102.406 112.986 102.375 113.255 102.437 113.504C102.499 113.752 102.727 113.949 102.779 114.198C102.83 114.446 103.006 114.664 103.058 114.912C103.11 115.161 102.747 115.493 102.799 115.741C102.851 115.99 103.296 116.155 103.348 116.404C103.4 116.653 103.514 116.891 103.566 117.139C103.618 117.388 103.327 117.688 103.369 117.937C103.41 118.186 103.369 118.445 103.41 118.693C103.452 118.942 103.597 119.17 103.628 119.418C103.659 119.667 103.897 119.884 103.928 120.133C103.959 120.382 104.167 120.61 104.198 120.858C104.229 121.107 104.115 121.376 104.135 121.625C104.156 121.873 104.053 122.143 104.073 122.391C104.094 122.64 104.332 122.878 104.353 123.127C104.374 123.375 104.415 123.634 104.436 123.883C104.457 124.131 104.177 124.401 104.198 124.66C104.218 124.919 104.115 125.167 104.125 125.416C104.135 125.664 104.198 125.913 104.198 126.162C104.198 126.41 104.363 126.659 104.363 126.907C104.363 127.156 104.094 127.415 104.094 127.664C104.094 127.912 104.643 128.171 104.643 128.42C104.643 128.668 104.053 128.907 104.042 129.155C104.032 129.404 104.198 129.663 104.177 129.911C104.156 130.16 104.519 130.44 104.498 130.688C104.477 130.937 104.446 131.196 104.415 131.444C104.384 131.693 104.353 131.952 104.322 132.2C104.291 132.449 104.073 132.677 104.042 132.926C104.011 133.174 103.721 133.381 103.68 133.63C103.638 133.879 103.876 134.169 103.835 134.417C103.794 134.666 103.618 134.883 103.566 135.132C103.514 135.38 103.493 135.629 103.441 135.878C103.39 136.126 103.441 136.396 103.379 136.634C103.317 136.872 103.058 137.069 102.996 137.307C102.934 137.545 102.965 137.815 102.892 138.053C102.82 138.291 102.83 138.56 102.747 138.799C102.665 139.037 102.675 139.306 102.592 139.545C102.509 139.783 102.002 139.866 101.908 140.094C101.815 140.321 101.815 140.591 101.722 140.819C101.629 141.047 101.722 141.368 101.629 141.595C101.535 141.823 101.598 142.134 101.484 142.362C101.37 142.59 101.121 142.745 101.007 142.973C100.893 143.201 100.676 143.367 100.562 143.584C100.448 143.802 100.5 143.999 100.375 144.216C100.531 144.558 100.634 144.175 101.038 144.413C101.225 144.517 101.235 144.983 101.463 145.148C101.649 145.283 101.867 145.397 102.074 145.583C102.25 145.739 102.613 145.739 102.799 145.925C102.965 146.101 102.975 146.433 103.141 146.64C103.286 146.837 103.628 146.909 103.773 147.127C103.908 147.334 104.021 147.572 104.146 147.8C104.26 148.018 104.436 148.235 104.529 148.473C104.622 148.701 104.539 149.012 104.612 149.261C104.684 149.499 104.788 149.737 104.84 149.996C104.892 150.234 105.078 150.473 105.109 150.732C105.14 150.98 104.715 151.27 104.726 151.539C104.736 151.788 105.182 152.244 105.182 152.503H105.275Z" fill="black"/>
<path d="M73.7444 42.715C73.1747 40.8401 71.6209 40.892 72.201 44.1548C72.7811 47.4177 71.7038 49.075 69.425 50.2559C67.1461 51.4367 63.8004 52.5451 65.9446 56.5019C68.0887 60.4485 72.4082 61.1839 77.1212 58.9361C81.8342 56.6884 81.741 51.1571 78.851 48.9818C75.9611 46.8066 74.6456 45.6257 73.7548 42.715H73.7444Z" fill="#F9F9F9"/>
<path d="M74.282 52.2715C75.6352 52.039 76.6355 51.2883 76.5163 50.5948C76.3972 49.9013 75.2036 49.5276 73.8505 49.7601C72.4973 49.9927 71.497 50.7433 71.6162 51.4368C71.7353 52.1303 72.9289 52.504 74.282 52.2715Z" fill="black"/>
<path d="M78.0122 52.5658C78.1779 53.5602 77.515 54.4924 76.531 54.6685C75.5469 54.8446 74.6043 54.1713 74.4282 53.1873" stroke="black" stroke-width="0.797591" stroke-linecap="round" stroke-linejoin="round"/>
<path d="M74.4282 53.1873C74.594 54.1817 73.931 55.1139 72.947 55.29C71.9526 55.4557 71.0203 54.7928 70.8442 53.8088" stroke="black" stroke-width="0.797591" stroke-linecap="round" stroke-linejoin="round"/>
<path d="M34.8483 31.8801C37.6969 28.8244 39.7168 26.8563 40.4108 22.6198C41.1048 18.3832 39.9964 11.3706 34.0197 7.26873C28.0429 3.16684 19.0001 2.53499 16.4312 3.65369C13.8624 4.76203 7.60596 7.89025 6.07293 10.7491C4.53989 13.5977 2.94471 15.9179 2.45787 20.5999C1.97103 25.2818 2.59253 29.0316 4.96459 31.3933C7.32628 33.755 11.1071 35.4952 15.3022 37.515C19.4973 39.5349 21.6518 39.3899 23.8064 40.8504C25.9609 42.3109 26.2406 43.4193 26.9346 41.4719C27.6286 39.5246 27.7011 38.4162 28.5298 37.0904C29.3584 35.7645 33.74 33.0609 33.74 33.0609L34.8483 31.8801Z" fill="#FFF597"/>
<path d="M30.6429 3.50863C30.4047 3.40505 30.27 3.04253 30.0318 2.9493C29.7935 2.85608 29.431 3.0943 29.1824 3.02179C28.9338 2.94928 28.6852 2.91822 28.4366 2.84571C28.188 2.77321 27.9808 2.58676 27.7322 2.52461C27.4836 2.46246 27.2143 2.47281 26.9657 2.42102C26.7171 2.36923 26.4789 2.22422 26.2303 2.17243C25.9817 2.12064 25.7434 1.93417 25.4948 1.89273C25.2462 1.8513 24.9562 2.01703 24.6972 1.98596C24.4383 1.95488 24.1793 2.00667 23.9204 1.98596C23.6614 1.96524 23.4024 2.04812 23.1538 2.03777C22.9052 2.02741 22.6463 1.83059 22.3977 1.83059C22.1491 1.83059 21.8901 1.98597 21.6312 1.99632C21.3722 2.00668 21.1132 1.68557 20.8543 1.69592C20.5953 1.70628 20.3364 1.76845 20.0878 1.77881C19.8392 1.78917 19.5906 2.02742 19.342 2.04813C19.0934 2.06885 18.793 1.80988 18.5444 1.84096C18.2958 1.87203 18.0886 2.23459 17.8297 2.27602C17.5707 2.31745 17.2289 1.85131 16.9699 1.9031C16.711 1.95489 16.5659 2.5039 16.3173 2.56605C16.0687 2.6282 15.8201 2.66961 15.5715 2.73176C15.3229 2.79391 14.95 2.43136 14.7014 2.50387C14.4528 2.57638 14.2975 2.93892 14.0592 3.02179C13.821 3.10465 13.562 3.16682 13.3238 3.26004C13.0855 3.35327 12.8577 3.47756 12.6194 3.58115C12.3812 3.68473 12.1947 3.88153 11.9668 3.99547C11.739 4.10941 11.3143 3.85047 11.0864 3.97477C10.8585 4.09907 10.7549 4.4616 10.5374 4.5859C10.3199 4.7102 10.1749 4.96917 9.96769 5.11419C9.76052 5.25921 9.43942 5.25921 9.23225 5.41459C9.03544 5.56996 8.78684 5.67352 8.59003 5.83925C8.39323 6.00499 8.24821 6.22251 8.0514 6.38824C7.85459 6.55398 7.77173 6.83366 7.58528 7.00975C7.39883 7.18584 7.35739 7.49658 7.1813 7.68303C7.00521 7.86948 6.58052 7.80735 6.40443 7.9938C6.22834 8.18025 6.13511 8.4392 5.96938 8.63601C5.80365 8.83282 5.6172 9.0089 5.45146 9.20571C5.28573 9.40252 5.22358 9.67185 5.05785 9.86866C4.89211 10.0655 4.81961 10.3244 4.67459 10.5316C4.52957 10.7387 4.28097 10.8734 4.13596 11.0806C3.99094 11.2878 3.79413 11.4638 3.65948 11.6814C3.52482 11.8989 3.21407 12.0025 3.07941 12.22C2.94475 12.4375 3.07941 12.8104 2.95511 13.0383C2.83081 13.2662 2.86188 13.5562 2.73758 13.7841C2.61328 14.012 2.40612 14.1881 2.30253 14.4159C2.19895 14.6438 1.97107 14.8199 1.86748 15.0582C1.7639 15.2964 1.48422 15.4518 1.391 15.69C1.29778 15.9283 1.55673 16.3012 1.46351 16.5394C1.37028 16.7777 1.31849 17.0262 1.24598 17.2645C1.17348 17.5027 0.945592 17.6995 0.873084 17.9481C0.800576 18.1967 0.728069 18.435 0.676277 18.6836C0.624486 18.9322 0.645203 19.1911 0.603769 19.4501C0.562336 19.7091 0.15836 19.8955 0.116927 20.1545C0.0754937 20.4134 0.272303 20.6931 0.251586 20.9521C0.23087 21.211 0.230869 21.4596 0.210152 21.7186C0.189435 21.9775 0.044419 22.2261 0.044419 22.4851C0.044419 22.7337 -0.00737352 22.9927 0.0029848 23.2413C0.0133431 23.4899 0.324095 23.7177 0.344811 23.9663C0.365528 24.2149 -0.0384485 24.5153 0.0029848 24.7639C0.0444181 25.0125 0.40696 25.2093 0.448393 25.4476C0.489826 25.6858 0.790217 25.8723 0.852367 26.1105C0.914517 26.3487 0.831649 26.6284 0.904158 26.8667C0.976666 27.1049 0.72807 27.4571 0.810937 27.685C0.893803 27.9129 1.25634 28.0475 1.34957 28.2754C1.44279 28.5033 1.43243 28.783 1.54638 29.0108C1.66032 29.2387 2.02286 29.3216 2.14716 29.5391C2.27146 29.7566 2.41647 29.9431 2.54077 30.1606C2.66507 30.3781 2.85152 30.5335 2.98618 30.7407C3.12084 30.9478 3.08976 31.269 3.23478 31.4658C3.3798 31.6626 3.57661 31.8283 3.73198 32.0148C3.88736 32.2012 3.73198 32.6673 3.90807 32.8538C4.08416 33.0402 4.57101 32.9159 4.7471 33.1024C4.92319 33.2888 5.15107 33.3924 5.33752 33.5581C5.52397 33.7239 5.6172 33.9725 5.80365 34.1382C5.9901 34.3039 6.21798 34.4075 6.40443 34.5733C6.59088 34.739 6.64267 35.0705 6.83948 35.2258C7.04665 35.3812 7.07772 35.7644 7.27453 35.9095C7.47133 36.0545 8.0514 35.7023 8.25857 35.837C8.46573 35.9716 8.32072 36.6449 8.52788 36.7796C8.74541 36.9246 9.14939 36.7796 9.35655 36.9039C9.56372 37.0282 9.84339 37.0799 10.0506 37.2043C10.2577 37.3285 10.2888 37.8154 10.5063 37.9293C10.7342 38.0536 11.0242 38.064 11.2418 38.1779C11.4696 38.3022 11.8322 38.1365 12.0497 38.2401C12.288 38.354 12.5262 38.4162 12.7541 38.5094C12.9923 38.613 13.1684 38.8409 13.3963 38.9237C13.6345 39.017 13.8521 39.1516 14.0799 39.2345C14.3285 39.3174 14.6186 39.2345 14.8465 39.2966C15.0951 39.3692 15.354 39.3381 15.5923 39.4002C15.8409 39.4624 15.9652 40.001 16.2034 40.0528C16.452 40.1046 16.711 40.146 16.9492 40.1875C17.2082 40.2392 17.436 40.3946 17.6743 40.4361C17.9332 40.4775 18.2647 39.9492 18.5029 39.9803C18.7619 40.0217 19.0001 40.1668 19.2384 40.2082C19.4973 40.2496 19.6942 40.5811 19.9324 40.6329C20.181 40.6847 20.4814 40.55 20.7196 40.6225C20.9579 40.695 21.2168 40.7675 21.4447 40.8711C21.6726 40.9747 21.9833 40.9747 22.2009 41.1197C22.3977 41.2544 22.4909 41.5755 22.6981 41.7516C22.8845 41.9069 23.1435 42.0105 23.3299 42.197C23.4957 42.3627 23.5578 42.6527 23.7339 42.8599C23.8893 43.0464 23.8168 43.4089 23.9825 43.6161C24.1275 43.8129 24.604 43.7715 24.749 43.9993C24.8837 44.1961 24.8112 44.5587 24.9562 44.7762C25.1116 45.0248 25.557 44.9212 25.8263 45.0662C26.0956 45.2113 26.251 45.522 26.5514 45.522C26.6446 45.522 26.7689 45.6774 26.8621 45.6566C27.1522 45.6049 27.235 45.2009 27.4215 45.0662C27.6286 44.9212 28.043 44.973 28.1776 44.7348C28.2916 44.5276 28.3744 44.2583 28.4573 43.989C28.5194 43.7611 28.5609 43.5021 28.623 43.2328C28.6748 42.9946 28.5091 42.7045 28.5609 42.4352C28.6023 42.2177 28.5816 41.9587 28.6437 41.6998C28.6955 41.4719 28.6852 41.2129 28.7473 40.9643C28.7991 40.7261 28.9234 40.4982 28.9856 40.26C29.0477 40.0217 29.0684 39.7731 29.1306 39.5349C29.1927 39.2966 29.2756 39.0481 29.3481 38.8202C29.4206 38.5923 29.6589 38.3955 29.7417 38.1676C29.835 37.9294 29.9385 37.7015 30.0421 37.4943C30.1561 37.2561 30.5082 37.1939 30.6325 37.0075C30.7879 36.7796 30.6636 36.3756 30.8293 36.2409C30.9847 36.1166 31.223 36.0131 31.4612 35.8577C31.6477 35.7334 31.8963 35.6712 32.1241 35.5262C32.3209 35.4019 32.5178 35.2569 32.7353 35.1222C32.9425 34.9876 33.1703 34.8736 33.3982 34.7286C33.6054 34.594 33.7193 34.2936 33.9368 34.1486C34.144 34.0139 34.4133 33.9517 34.6309 33.8067C34.8484 33.6617 35.1281 33.6307 35.3456 33.4753C35.5631 33.3199 35.646 33.0195 35.8635 32.8641C36.081 32.7088 36.3607 32.6673 36.5679 32.5119C36.775 32.3566 36.9615 32.1805 37.1686 32.0148C37.3758 31.849 37.7591 31.9111 37.9559 31.7351C38.1527 31.559 38.1009 31.1032 38.2873 30.9375C38.4738 30.7717 38.5463 30.461 38.7224 30.2849C38.8985 30.1088 39.3128 30.1399 39.4889 29.9534C39.665 29.767 39.6029 29.363 39.7686 29.1662C39.9343 28.9694 40.4833 29.0833 40.6387 28.8762C40.7941 28.669 40.5558 28.1718 40.7008 27.9543C40.8458 27.7368 41.2705 27.716 41.4052 27.4985C41.5399 27.281 41.861 27.1463 41.9749 26.9184C42.0888 26.6906 41.747 26.2244 41.861 25.9862C41.9749 25.748 42.2028 25.5822 42.296 25.3336C42.3892 25.085 42.3892 24.8261 42.4617 24.5775C42.5343 24.3289 42.6171 24.0906 42.6689 23.842C42.7207 23.5934 43.1454 23.3863 43.1765 23.1273C43.2075 22.8683 42.9175 22.5887 42.9279 22.3193C42.9382 22.05 43.2801 21.7911 43.2697 21.5321C43.2593 21.2732 43.2386 20.9935 43.2075 20.7345C43.1765 20.4756 42.7414 20.2788 42.7 20.0198C42.6586 19.7608 42.4203 19.5433 42.3789 19.2947C42.3374 19.0461 42.6689 18.7146 42.6171 18.466C42.5653 18.2174 42.151 18.0414 42.0888 17.7928C42.0267 17.5442 42.4307 17.1816 42.3582 16.933C42.2857 16.6844 41.7263 16.5705 41.6538 16.3322C41.5813 16.094 41.7574 15.7625 41.6745 15.5243C41.5916 15.286 41.6952 14.965 41.602 14.7371C41.5088 14.5092 41.343 14.2813 41.2498 14.0431C41.1566 13.8048 40.7733 13.6909 40.6698 13.4526C40.5662 13.2144 40.8044 12.8208 40.6905 12.5929C40.5765 12.365 40.5869 12.0543 40.4626 11.8367C40.3383 11.6192 40.0172 11.4846 39.8929 11.267C39.7686 11.0495 39.5511 10.8734 39.4164 10.6559C39.2817 10.4384 39.0021 10.3141 38.857 10.1069C38.712 9.89974 38.4324 9.79616 38.277 9.58899C38.1216 9.38183 38.0802 9.10215 37.9144 8.90534C37.7487 8.70853 37.728 8.3874 37.5623 8.20095C37.3965 8.0145 37.2722 7.75557 37.0961 7.57947C36.92 7.40338 36.5886 7.36196 36.4021 7.19622C36.2157 7.03049 35.8739 7.02011 35.6874 6.85438C35.501 6.68865 35.6356 6.10859 35.4388 5.95321C35.242 5.79784 34.7552 5.99464 34.5583 5.84962C34.3615 5.7046 34.3201 5.29029 34.1129 5.15563C33.9058 5.02097 33.5225 5.12453 33.305 5.00023C33.0875 4.87593 32.901 4.6895 32.6835 4.5652C32.466 4.4409 32.2381 4.31659 32.0102 4.20265C31.7823 4.08871 31.4819 4.13015 31.254 4.01621C31.0262 3.90227 30.8811 3.60186 30.6533 3.50863H30.6429ZM30.9433 32.3669C30.6947 32.5223 30.2907 32.4291 30.0732 32.5741C29.8246 32.7398 29.7832 33.1749 29.5656 33.3302C29.317 33.5063 29.1306 33.7032 28.9338 33.8585C28.7473 34.0035 28.4987 34.0657 28.3226 34.2522C28.1465 34.4386 28.074 34.6561 27.9187 34.8529C27.7633 35.0497 27.5768 35.1947 27.4422 35.4019C27.3075 35.6091 27.0693 35.7541 26.9657 35.9716C26.8621 36.1892 26.945 36.4896 26.8518 36.7174C26.7585 36.9453 26.7482 37.1836 26.6653 37.4218C26.5824 37.66 26.6135 37.9086 26.5307 38.1365C26.4478 38.3644 26.2199 38.5405 26.1578 38.7787C26.0956 39.017 26.1992 39.2863 26.137 39.5245C26.0749 39.7628 25.7434 39.8974 25.6916 40.1357C25.5052 39.9389 25.3394 39.8042 25.1633 39.6385C24.9665 39.452 24.6454 39.4417 24.459 39.2966C24.2518 39.1309 24.2311 38.7373 24.0239 38.6026C23.8064 38.4576 23.4232 38.6026 23.2056 38.4783C22.9777 38.354 22.9777 37.774 22.7499 37.6704C22.522 37.5668 22.0869 37.9501 21.8487 37.8672C21.6104 37.7843 21.3826 37.7015 21.134 37.6393C20.8854 37.5772 20.7403 37.08 20.4917 37.0282C20.2431 36.9764 19.9428 37.225 19.6838 37.1835C19.4248 37.1421 19.1866 37.08 18.938 37.0385C18.6998 36.9971 18.4512 36.9971 18.2026 36.9557C17.954 36.9142 17.7054 36.9764 17.4568 36.935C17.2082 36.8935 17.0631 36.4274 16.8249 36.3756C16.5867 36.3238 16.2966 36.5206 16.048 36.4481C15.8201 36.386 15.5405 36.4481 15.2919 36.3549C15.064 36.2824 14.8879 36.0234 14.6497 35.9302C14.4218 35.8473 14.225 35.6919 13.9971 35.5884C13.7796 35.4951 13.531 35.4537 13.3031 35.3398C13.0855 35.2362 12.7955 35.2569 12.578 35.1326C12.3708 35.0186 12.0497 35.0705 11.8322 34.9358C11.625 34.8115 11.5836 34.3868 11.3661 34.2522C11.1589 34.1279 10.8999 34.076 10.6824 33.9414C10.4856 33.8067 10.2888 33.6514 10.0816 33.5064C9.87446 33.3613 9.61551 33.3095 9.40834 33.1645C9.20118 33.0195 8.95258 32.9366 8.75577 32.7813C8.55896 32.6259 8.43466 32.3773 8.24821 32.2116C8.06176 32.0458 7.90638 31.8386 7.73029 31.6729C7.5542 31.5072 7.51277 31.1861 7.33668 31.01C7.16059 30.8339 6.76697 30.865 6.60123 30.6785C6.4355 30.4921 6.13511 30.4092 5.97974 30.2124C5.82436 30.0156 5.75185 29.7463 5.60684 29.5495C5.46182 29.3527 5.42039 29.0626 5.28573 28.8554C5.15107 28.6483 5.1925 28.3375 5.0682 28.12C4.9439 27.9025 4.4985 27.8507 4.39492 27.6332C4.29133 27.4156 4.15667 27.1774 4.06345 26.9495C3.97022 26.7216 4.03237 26.4213 3.95986 26.183C3.88736 25.9448 3.82521 25.6962 3.76306 25.4579C3.70091 25.2197 3.56625 24.9918 3.51446 24.7432C3.46266 24.4946 3.79413 24.2046 3.76306 23.956C3.73198 23.7074 3.48338 23.4899 3.47302 23.2413C3.46267 22.9927 3.43159 22.7441 3.43159 22.4955C3.43159 22.2365 3.58697 21.9879 3.59732 21.7289C3.60768 21.47 3.69055 21.2317 3.72162 20.9728C3.7527 20.7138 3.5041 20.4238 3.54553 20.1752C3.58697 19.9266 4.0738 19.7608 4.1256 19.5122C4.17739 19.2636 3.92879 18.9425 3.99094 18.6939C4.05309 18.4453 3.90807 18.1242 3.99094 17.886C4.07381 17.6477 4.30169 17.4406 4.39492 17.2023C4.48814 16.9641 4.90247 16.8605 5.00606 16.6223C5.10964 16.384 4.95426 16.0422 5.05785 15.804C5.16143 15.5657 5.39967 15.4 5.51361 15.1721C5.62755 14.9442 5.51361 14.5817 5.62755 14.3538C5.7415 14.1259 5.8658 13.8877 6.00045 13.6702C6.13511 13.4526 6.22834 13.1937 6.37335 12.9865C6.51837 12.7794 6.84984 12.6861 6.99485 12.4789C7.13987 12.2718 7.26417 12.0335 7.41954 11.8264C7.57492 11.6192 8.06176 11.6814 8.21713 11.4846C8.37251 11.2877 8.21713 10.8009 8.38287 10.6145C8.5486 10.428 8.6729 10.169 8.84899 9.98258C9.02508 9.79613 9.28404 9.6822 9.47049 9.50611C9.65694 9.33002 9.80196 9.10214 9.98841 8.92604C10.1749 8.74995 10.5374 8.76031 10.7239 8.60494C10.9103 8.44956 11.2936 8.51172 11.5007 8.35635C11.6872 8.21133 11.5318 7.5484 11.739 7.41374C11.9461 7.27908 12.4848 7.68304 12.7023 7.55874C12.9198 7.43444 12.9612 7.0201 13.1891 6.90616C13.417 6.79222 13.5931 6.59542 13.821 6.49183C14.0489 6.38825 14.4218 6.67828 14.66 6.58505C14.8983 6.49183 15.064 6.29504 15.3022 6.21217C15.5405 6.1293 15.6855 5.76677 15.9237 5.70462C16.162 5.64247 16.3899 5.52852 16.6385 5.46637C16.8871 5.40422 17.1564 5.48709 17.405 5.43529C17.6536 5.3835 17.9022 5.38351 18.1404 5.34207C18.3787 5.30064 18.6065 5.08312 18.8551 5.05204C19.1037 5.02097 19.342 4.88631 19.5906 4.85523C19.8392 4.82416 20.1292 5.30064 20.3778 5.27993C20.6264 5.25921 20.8646 5.22812 21.1132 5.22812C21.3618 5.22812 21.6001 5.33171 21.8487 5.33171C22.0973 5.33171 22.377 4.76199 22.6359 4.77235C22.8949 4.78271 23.1538 4.90703 23.4128 4.92775C23.6718 4.94846 23.8996 5.25919 24.1586 5.29026C24.4175 5.32134 24.6972 5.14527 24.9562 5.18671C25.2151 5.22814 25.4741 5.23847 25.7331 5.29026C25.992 5.34205 26.2821 5.24884 26.5307 5.30063C26.7793 5.35242 26.9864 5.62174 27.2454 5.69425C27.5043 5.76676 27.7736 5.73567 28.0222 5.80818C28.2708 5.88069 28.4677 6.10858 28.7162 6.2018C28.9648 6.29503 29.0995 6.63687 29.3378 6.74045C29.5656 6.83368 29.9593 6.56435 30.1871 6.66794C30.415 6.77152 30.5186 7.11333 30.7465 7.23763C30.9744 7.36193 31.368 7.14441 31.5959 7.26871C31.8238 7.39301 31.8859 7.75555 32.1034 7.89021C32.3209 8.02487 32.4245 8.30455 32.6317 8.44957C32.8389 8.59459 33.2428 8.47027 33.4396 8.62564C33.6365 8.78102 33.5847 9.22645 33.7711 9.39218C33.9576 9.55791 34.144 9.71327 34.3305 9.88936C34.5169 10.0655 34.693 10.2208 34.8691 10.4073C35.0452 10.5937 35.3663 10.6248 35.532 10.8216C35.6978 11.0184 35.9049 11.1635 36.0603 11.3706C36.2157 11.5778 36.4125 11.7435 36.5471 11.9507C36.6818 12.1579 36.775 12.4064 36.9097 12.624C37.0443 12.8415 37.2101 13.0383 37.3344 13.2558C37.4587 13.4733 37.5726 13.7012 37.6866 13.9291C37.8005 14.157 37.7591 14.447 37.8626 14.6853C37.9662 14.9235 38.0491 15.1514 38.1423 15.3793C38.2356 15.6072 38.0595 15.9386 38.1423 16.1769C38.2252 16.4151 38.6499 16.5291 38.7327 16.7673C38.8156 17.0055 38.826 17.2541 38.8985 17.5027C38.971 17.7513 38.9503 17.9999 39.0124 18.2485C39.0746 18.4971 39.1367 18.725 39.1989 18.9736C39.261 19.2222 39.2817 19.4605 39.3232 19.7091C39.3646 19.9577 39.5925 20.1752 39.6339 20.4238C39.6754 20.6724 39.6028 20.9313 39.6339 21.1903C39.665 21.4596 39.5511 21.7186 39.5511 21.9775C39.5511 22.2365 39.7375 22.5162 39.7064 22.7648C39.6754 23.0134 39.4889 23.262 39.4268 23.5106C39.3646 23.7592 39.3128 24.0181 39.2196 24.2563C39.1264 24.4946 38.7638 24.6085 38.6499 24.8468C38.5359 25.085 38.7431 25.4787 38.6084 25.7065C38.4738 25.9344 38.4634 26.2555 38.3184 26.4627C38.1734 26.6698 37.7591 26.6906 37.583 26.8977C37.4069 27.1049 37.4794 27.5089 37.3033 27.7057C37.1272 27.9025 36.5886 27.7368 36.4021 27.9232C36.2157 28.1097 36.3607 28.6483 36.1742 28.8244C35.9878 29.0005 35.5527 28.9176 35.3559 29.0833C35.1591 29.2491 34.8277 29.2491 34.6205 29.4148C34.4133 29.5805 34.5169 30.1503 34.3097 30.3056C34.1026 30.461 33.7918 30.4921 33.5847 30.6474C33.3775 30.8028 33.2014 31.01 32.9839 31.155C32.7664 31.3 32.5281 31.4243 32.3209 31.5694C32.1138 31.7144 31.6684 31.5279 31.4509 31.6729C31.223 31.8179 31.2022 32.2633 30.9847 32.398L30.9433 32.3669Z" fill="black"/>
<path d="M24.2004 25.0333C23.9414 24.9504 23.6307 25.1576 23.351 25.1161C23.0713 25.0747 22.8227 24.4843 22.5431 24.4946C22.2634 24.505 21.9837 24.7847 21.7144 24.8365C21.4451 24.8883 21.2897 25.2922 21.0411 25.3958C20.7718 25.5098 20.2849 25.1887 20.0674 25.3544L20.2849 25.6341C20.0778 25.7894 19.7774 25.8516 19.6013 26.0484C19.4252 26.2452 19.4356 26.5767 19.2905 26.8046C19.1455 27.0324 18.7208 27.1049 18.6069 27.3432C18.493 27.5814 18.8037 27.9647 18.7416 28.2236C18.6794 28.4826 18.6483 28.7105 18.6276 28.9694C18.6069 29.2284 18.4204 29.4666 18.4308 29.7359C18.4412 30.0053 18.6587 30.2124 18.7208 30.4714C18.7726 30.7096 18.3479 31.0929 18.4412 31.3104C18.5344 31.528 18.7001 31.7662 18.8244 31.9734C18.9487 32.1805 19.0627 32.4602 19.218 32.6363C19.3734 32.8124 19.6531 32.9574 19.8395 33.0921C20.026 33.2267 20.3471 33.2371 20.5646 33.3303C20.7821 33.4235 21.0204 33.5064 21.269 33.5582C21.4969 33.61 21.7662 33.2992 21.9837 33.3199C22.2012 33.3406 22.4084 33.6514 22.6363 33.6514C22.916 33.6514 23.2163 33.7136 23.4857 33.6721C23.755 33.6307 24.0761 33.6721 24.3454 33.5892C24.6147 33.5064 24.8633 33.3096 25.1119 33.1956C25.3605 33.0817 25.578 32.8642 25.8059 32.6984C26.0338 32.5327 26.2617 32.3566 26.4481 32.1598C26.6139 31.9837 26.6139 31.6937 26.7382 31.4969C26.8625 31.3001 27.1007 31.155 27.1836 30.9375C27.2665 30.72 27.5668 30.5232 27.6083 30.2849C27.6497 30.0467 27.5461 29.767 27.5461 29.5288C27.5461 29.2906 27.6394 29.0212 27.5979 28.7726C27.5565 28.5448 27.4322 28.2962 27.3597 28.0683C27.2872 27.8197 26.7796 27.7471 26.676 27.5296C26.5724 27.3121 26.676 26.9703 26.5517 26.7631C26.4274 26.5559 26.1995 26.4109 26.0235 26.2348C25.8474 26.0587 25.8474 25.6651 25.6506 25.5201C25.4537 25.3751 25.1741 25.2819 24.9565 25.1679C24.739 25.054 24.449 25.0851 24.2004 25.0126V25.0333Z" fill="black"/>
<path d="M21.3305 23.7591C21.4755 23.7695 21.5895 23.8213 21.7345 23.8213C21.9831 23.8213 22.1695 23.8006 22.3871 23.7591C22.6253 23.7177 22.9878 24.1217 23.195 24.0388C23.4229 23.9456 23.6404 23.7488 23.8165 23.6245C24.0237 23.4794 23.9097 23.034 24.034 22.8683C24.2412 22.599 24.4794 22.4022 24.5002 22.0603C24.5002 21.8739 24.2723 21.615 24.2723 21.2938C24.2723 21.066 24.6762 20.807 24.6762 20.5273C24.6762 20.2891 24.4173 20.0405 24.4069 19.7712C24.4069 19.5226 24.4691 19.274 24.4587 19.0047C24.4587 18.7561 24.7591 18.4867 24.7488 18.2278C24.7384 17.9688 24.6245 17.7202 24.6141 17.4613C24.6037 17.2023 24.3655 16.9641 24.3551 16.7051C24.3448 16.4462 24.1894 16.2079 24.179 15.9489C24.1687 15.69 24.3033 15.431 24.2826 15.1721C24.2619 14.9131 24.3862 14.6438 24.3655 14.3952C24.3448 14.1466 24.1376 13.898 24.1169 13.639C24.0962 13.3801 24.3033 13.1004 24.2826 12.8518C24.2619 12.5929 24.3966 12.3132 24.3759 12.0646C24.3448 11.7953 24.0547 11.5674 24.0237 11.3291C23.9926 11.0598 23.6404 10.8527 23.599 10.6248C23.5575 10.3451 24.1169 9.97218 24.0651 9.75466C23.9926 9.45427 23.3711 9.38176 23.2986 9.20567C23.2054 8.98814 23.2054 8.78098 23.05 8.59453C22.8946 8.40808 22.6978 8.36667 22.501 8.23201C22.3042 8.09736 22.211 7.87982 21.9831 7.79695C21.7656 7.71408 21.5791 7.37226 21.3409 7.34118C21.1026 7.31011 20.8437 7.71408 20.6054 7.72443C20.3672 7.73479 20.1186 7.54836 19.8803 7.57943C19.6421 7.61051 19.4349 7.82801 19.2071 7.8798C18.9792 7.9316 18.7202 7.92124 18.4923 7.98339C18.2541 8.0559 17.9433 7.90053 17.7258 7.98339C17.4772 8.07662 17.3426 8.41844 17.1561 8.50131C16.7832 8.65668 16.6175 8.90529 16.576 8.926C16.3482 9.03995 16.0996 9.01924 15.9442 9.19533C15.7888 9.37142 15.882 9.63037 15.7888 9.86862C15.7059 10.0861 15.6127 10.2415 15.5816 10.5005C15.5506 10.7283 15.1362 10.9459 15.1362 11.2048C15.1362 11.4327 15.1569 11.6917 15.188 11.9506C15.2087 12.1889 15.6749 12.365 15.7163 12.6239C15.7474 12.8622 15.3434 13.1729 15.3848 13.4319C15.3848 13.4526 15.8302 13.639 15.9235 14.0741C15.9649 14.2813 15.6645 14.6127 15.7267 14.882C15.7784 15.0996 16.141 15.2653 16.2135 15.5243C16.2756 15.7521 16.3689 15.98 16.4414 16.2286C16.5035 16.4565 16.5035 16.7155 16.576 16.9641C16.6485 17.2127 16.6278 17.4613 16.7107 17.6995C16.7936 17.9377 16.6485 18.2485 16.7314 18.4764C16.8143 18.7043 17.384 18.7561 17.4772 18.9943C17.5704 19.2325 17.4254 19.5433 17.529 19.7712C17.6326 19.9991 17.529 20.3305 17.6326 20.548C17.7362 20.7656 17.9226 20.9727 18.0366 21.1903C18.1505 21.4078 18.2127 21.6874 18.337 21.8946C18.4716 22.1121 18.5441 22.3918 18.6891 22.5783C18.8445 22.7854 19.2174 22.8165 19.3831 22.9926C19.5592 23.1791 19.8803 23.1894 20.0668 23.3344C20.274 23.4898 20.3775 23.7488 20.6054 23.842C20.8333 23.9456 21.1026 23.728 21.3409 23.7488L21.3305 23.7591Z" fill="black"/>
<path d="M61.6867 0.0179027C61.3863 -0.0546055 61.0237 0.111142 60.7544 0.194008C60.4851 0.276875 60.4644 0.711905 60.2676 0.919072C60.0708 1.12624 59.8222 1.20913 59.7497 1.49917C59.6668 1.88242 59.6357 1.88241 59.5529 2.26567C59.47 2.64893 59.2007 2.58678 59.1178 2.9804C59.0349 3.37402 59.4286 3.45687 59.3457 3.84013C59.2628 4.22338 59.0557 4.18196 58.9728 4.56522C58.8899 4.94848 58.7449 4.9174 58.662 5.30065C58.5792 5.68391 58.7449 5.72534 58.662 6.1086C58.5792 6.49186 58.2684 6.4297 58.1752 6.81296C58.082 7.19622 58.6103 7.32053 58.517 7.70379C58.4238 8.08705 57.9162 7.97311 57.8334 8.35637C57.7505 8.73963 58.082 8.81211 57.9888 9.20573C57.8955 9.59935 57.8645 9.58901 57.7816 9.97227C57.6987 10.3555 57.8334 10.397 57.7505 10.7802C57.6676 11.1635 57.5123 11.1324 57.419 11.526C57.3258 11.9196 57.419 11.9403 57.3362 12.3236C57.274 12.624 57.243 12.8726 57.3362 13.1419C57.4294 13.4112 57.3362 13.8877 57.5433 14.0845C57.7505 14.2813 58.1545 14.3953 58.4549 14.4574C58.5792 14.4885 58.7449 14.012 58.8589 14.012C59.1178 14.012 59.3871 14.3228 59.6046 14.2192C59.8222 14.1156 60.019 13.9084 60.1744 13.7116C60.3297 13.5148 60.6405 13.3284 60.6923 13.0798C60.7751 12.6965 60.3712 12.6033 60.4644 12.22C60.5576 11.8367 60.4644 11.8161 60.5576 11.4328C60.6508 11.0495 60.8269 11.091 60.9098 10.7077C60.9927 10.3244 61.1895 10.3659 61.2723 9.97227C61.3552 9.57865 61.1791 9.54758 61.2723 9.16432C61.3656 8.78106 61.6763 8.85355 61.7695 8.45993C61.8628 8.06631 61.8835 8.07668 61.9664 7.69342C62.0492 7.31016 61.7488 7.23766 61.8317 6.8544C61.9146 6.47114 61.6556 6.40901 61.7385 6.02575C61.8213 5.64249 62.3807 5.7668 62.4635 5.38354C62.5464 5.00028 62.246 4.92774 62.3393 4.54448C62.4325 4.16123 62.5464 4.18194 62.6293 3.79868C62.7122 3.41543 62.36 3.33257 62.4428 2.93896C62.5257 2.54534 63.085 2.67999 63.1783 2.28638C63.2404 1.98599 62.8675 1.66489 62.7847 1.39558C62.7018 1.12626 62.7225 0.732627 62.5153 0.535819C62.3082 0.339011 61.9974 0.100779 61.7074 0.0282712L61.6867 0.0179027Z" fill="black"/>
<path d="M70.5741 11.4742C70.3462 11.267 70.0665 11.267 69.7972 11.2049C69.5279 11.1427 69.2171 10.9252 68.9375 11.0081C68.6578 11.0909 68.3781 11.2774 68.171 11.5053C67.912 11.7849 67.7877 11.671 67.5287 11.961C67.2698 12.2511 67.4562 12.4065 67.1973 12.6861C66.9383 12.9658 67.0626 13.0797 66.814 13.3698C66.5654 13.6598 66.3272 13.4423 66.0682 13.7323C65.8093 14.0224 66.1511 14.3227 65.8921 14.6024C65.6332 14.8821 65.2292 14.5092 64.9702 14.7992C64.7113 15.0893 64.7734 15.1307 64.5145 15.4207C64.2555 15.7107 64.4937 15.9179 64.2348 16.2079C63.9758 16.498 64.1105 16.6119 63.8515 16.902C63.5926 17.192 63.23 16.8605 62.9711 17.1506C62.7121 17.4406 62.8157 17.5338 62.5567 17.8238C62.3496 18.0517 62.0078 18.2796 61.956 18.5593C61.9042 18.839 62.2874 19.1394 62.3806 19.419C62.4739 19.6987 62.3599 20.113 62.5775 20.3202C62.7328 20.4652 63.085 20.2788 63.2715 20.3513C63.4579 20.4238 63.6029 20.8588 63.8101 20.8588C64.038 20.8588 64.2762 20.5895 64.4834 20.4963C64.6906 20.4031 64.7423 20.1441 64.9081 19.968C65.167 19.6884 65.3846 19.8851 65.6435 19.5951C65.9025 19.3051 65.9336 19.3465 66.1925 19.0565C66.4515 18.7665 66.3582 18.694 66.6172 18.4143C66.8762 18.1346 67.0419 18.29 67.3009 18C67.5598 17.7099 67.4148 17.5856 67.6738 17.3059C67.9327 17.0263 67.9949 17.0884 68.2538 16.7984C68.5128 16.5083 68.5439 16.5394 68.7925 16.2598C69.0411 15.9801 69.0618 15.9904 69.3207 15.7107C69.5797 15.4311 69.2586 15.141 69.5175 14.851C69.7765 14.561 69.9319 14.706 70.1908 14.4263C70.4498 14.1466 70.2012 13.9188 70.4601 13.6287C70.6673 13.4009 71.3302 13.4112 71.382 13.1315C71.4338 12.8519 71.0091 12.5204 70.9159 12.2407C70.8227 11.9611 70.7709 11.7021 70.5534 11.4949L70.5741 11.4742Z" fill="black"/>
<path d="M99.3184 77.9021C99.2044 77.9953 99.1527 77.4774 99.018 77.0527C98.9558 76.8559 98.8315 76.6591 98.7798 76.3794C98.7383 76.1619 98.2308 75.9961 98.1893 75.7372C98.1582 75.5093 98.6451 75.2089 98.6244 74.9499C98.6037 74.7221 98.5622 74.4838 98.5415 74.2352C98.5311 73.997 98.3758 73.7691 98.3654 73.5205C98.3551 73.2719 98.1686 73.044 98.1686 72.7954C98.1686 72.5468 97.9925 72.3086 98.0029 72.06C98.0132 71.8114 98.4379 71.5939 98.4483 71.3453C98.4586 71.0967 98.5311 70.8688 98.5622 70.6202C98.5933 70.3716 98.0961 70.0712 98.1272 69.8329C98.1583 69.5947 98.3343 69.3565 98.3758 69.1182C98.4172 68.88 98.6658 68.6728 98.7176 68.4346C98.7694 68.1963 98.9558 67.9892 99.018 67.7509C99.0801 67.5127 99.2148 67.3055 99.2977 67.0776C99.3805 66.8498 99.4841 66.6426 99.5773 66.4147C99.6706 66.1868 99.7534 65.9797 99.857 65.7518C99.9606 65.5239 99.712 65.1303 99.8363 64.9231C99.9606 64.7159 99.9917 64.4155 100.126 64.2187C100.261 64.0219 100.437 63.8147 100.603 63.6283C100.779 63.4211 101.141 63.4004 101.318 63.245C101.525 63.069 101.825 63.1104 102.043 63.0068C102.281 62.8825 102.426 62.5925 102.664 62.551C102.923 62.5096 103.203 62.4578 103.451 62.4992C103.7 62.5407 104.062 62.4889 104.29 62.6235C104.498 62.7478 104.663 63.0482 104.839 63.245C105.005 63.4211 104.912 63.8044 105.036 64.0426C105.15 64.2498 105.129 64.5088 105.212 64.7573C105.285 64.9852 105.492 65.1717 105.533 65.4306C105.575 65.6689 105.979 65.8864 106 66.1454C106.01 66.3836 105.751 66.6529 105.73 66.9222C105.72 67.1708 105.875 67.4402 105.834 67.6991C105.803 67.9374 105.585 68.1652 105.523 68.4242C105.471 68.6624 105.627 68.9732 105.544 69.2322C105.471 69.4704 105.078 69.6051 104.984 69.8537C104.902 70.0815 104.653 70.2473 104.549 70.4855C104.446 70.7237 104.57 71.0449 104.446 71.2727C104.321 71.5006 104.425 71.8424 104.301 72.0703C104.176 72.2982 103.835 72.3811 103.69 72.5986C103.545 72.8161 103.596 73.1476 103.451 73.3651C103.306 73.5826 103.161 73.7898 103.006 73.997C102.851 74.2042 102.706 74.4113 102.54 74.6185C102.374 74.8257 102.136 74.9396 101.96 75.1364C101.784 75.3332 101.276 75.1985 101.1 75.385C100.924 75.5714 100.924 75.9133 100.748 76.0997C100.572 76.2862 100.365 76.4208 100.178 76.6073C99.9917 76.7937 99.6706 76.8041 99.4841 76.9802C99.2977 77.1563 99.5152 77.7778 99.3184 77.9435V77.9021Z" fill="black"/>
<path d="M80.0522 45.8224C82.5636 45.8224 84.5995 43.7865 84.5995 41.2751C84.5995 38.7637 82.5636 36.7278 80.0522 36.7278C77.5408 36.7278 75.5049 38.7637 75.5049 41.2751C75.5049 43.7865 77.5408 45.8224 80.0522 45.8224Z" fill="white"/>
<path d="M80.0521 44.3618C81.7569 44.3618 83.1389 42.9798 83.1389 41.275C83.1389 39.5702 81.7569 38.1882 80.0521 38.1882C78.3473 38.1882 76.9653 39.5702 76.9653 41.275C76.9653 42.9798 78.3473 44.3618 80.0521 44.3618Z" fill="black"/>
<path d="M81.2849 40.9436C81.6967 40.9436 82.0307 40.6097 82.0307 40.1978C82.0307 39.7859 81.6967 39.452 81.2849 39.452C80.873 39.452 80.5391 39.7859 80.5391 40.1978C80.5391 40.6097 80.873 40.9436 81.2849 40.9436Z" fill="white"/>
<path d="M65.3017 49.1888C67.8131 49.1888 69.849 47.153 69.849 44.6416C69.849 42.1302 67.8131 40.0942 65.3017 40.0942C62.7903 40.0942 60.7544 42.1302 60.7544 44.6416C60.7544 47.153 62.7903 49.1888 65.3017 49.1888Z" fill="white"/>
<path d="M65.3016 47.7282C67.0064 47.7282 68.3884 46.3463 68.3884 44.6415C68.3884 42.9367 67.0064 41.5547 65.3016 41.5547C63.5968 41.5547 62.2148 42.9367 62.2148 44.6415C62.2148 46.3463 63.5968 47.7282 65.3016 47.7282Z" fill="black"/>
<path d="M66.5344 44.3101C66.9463 44.3101 67.2802 43.9762 67.2802 43.5643C67.2802 43.1524 66.9463 42.8185 66.5344 42.8185C66.1225 42.8185 65.7886 43.1524 65.7886 43.5643C65.7886 43.9762 66.1225 44.3101 66.5344 44.3101Z" fill="white"/>
</svg>
