<svg width="157" height="220" viewBox="0 0 157 220" fill="none" xmlns="http://www.w3.org/2000/svg">
<path d="M155.926 225.877C155.527 226.276 155.22 225.14 154.499 225.14C154.192 225.14 153.824 225.907 153.394 225.907C153.057 225.907 152.688 225.248 152.289 225.248C151.952 225.248 151.584 225.14 151.185 225.14C150.832 225.14 150.464 226.015 150.08 226.015C149.727 226.015 149.359 225.739 148.976 225.739C148.623 225.739 148.255 225.416 147.871 225.416C147.518 225.416 147.15 225.248 146.766 225.248C146.383 225.248 146.03 225.662 145.662 225.662C145.294 225.662 144.925 225.202 144.557 225.202C144.189 225.202 143.821 225.202 143.452 225.202C143.084 225.202 142.716 225.539 142.348 225.539C141.98 225.539 141.611 225.984 141.243 225.984C140.875 225.984 140.507 225.708 140.139 225.708C139.77 225.708 139.402 225.647 139.034 225.647C138.666 225.647 138.298 225.263 137.929 225.263C137.561 225.263 137.193 225.508 136.825 225.508C136.456 225.508 136.088 225.892 135.72 225.892C135.352 225.892 134.984 225.294 134.615 225.294C134.247 225.294 133.879 225.585 133.511 225.585C133.143 225.585 132.774 225.186 132.406 225.186C132.038 225.186 131.67 225.432 131.302 225.432C130.933 225.432 130.565 225.539 130.197 225.539C129.829 225.539 129.461 225.186 129.092 225.186C128.724 225.186 128.356 225.754 127.988 225.754C127.619 225.754 127.251 225.754 126.883 225.754C126.515 225.754 126.147 225.984 125.778 225.984C125.41 225.984 125.042 226.015 124.674 226.015C124.306 226.015 123.937 225.539 123.569 225.539C123.201 225.539 122.833 225.217 122.465 225.217C122.096 225.217 121.728 225.693 121.36 225.693C120.992 225.693 120.624 226.076 120.255 226.076C119.887 226.076 119.519 225.723 119.151 225.723C118.782 225.723 118.414 225.554 118.046 225.554C117.678 225.554 117.31 225.785 116.941 225.785C116.573 225.785 116.205 225.278 115.837 225.278C115.469 225.278 115.1 225.232 114.732 225.232C114.364 225.232 113.996 225.708 113.612 225.708C113.229 225.708 112.876 225.217 112.508 225.217C112.139 225.217 111.771 225.708 111.388 225.708C111.004 225.708 110.651 225.386 110.268 225.386C109.884 225.386 109.531 225.278 109.148 225.278C108.764 225.278 108.411 225.969 108.028 225.969C107.644 225.969 107.291 225.892 106.908 225.892C106.524 225.892 106.156 226.091 105.788 226.091C105.42 226.091 105.036 225.186 104.668 225.186C104.3 225.186 103.916 225.493 103.548 225.493C103.18 225.493 102.796 225.601 102.428 225.601C102.06 225.601 101.676 225.754 101.308 225.754C100.94 225.754 100.556 225.386 100.188 225.386C99.8197 225.386 99.4362 225.999 99.068 225.999C98.6997 225.999 98.3162 225.401 97.948 225.401C97.5798 225.401 97.1962 225.907 96.828 225.907C96.4598 225.907 96.0762 225.324 95.708 225.324C95.3398 225.324 94.9563 225.232 94.5881 225.232C94.2199 225.232 93.8363 226.015 93.4681 226.015C93.0999 226.015 92.7163 226.015 92.3481 226.015C91.9799 226.015 91.5964 226.076 91.2282 226.076C90.86 226.076 90.4764 225.723 90.1082 225.723C89.74 225.723 89.3564 225.769 88.9882 225.769C88.62 225.769 88.2365 226.061 87.8836 226.061C87.5307 226.061 87.1318 226.061 86.779 226.061C86.4261 226.061 86.0272 225.37 85.6743 225.37C85.3215 225.37 84.9226 225.754 84.5697 225.754C84.2169 225.754 83.8333 225.938 83.4651 225.938C83.0969 225.938 82.7287 225.892 82.3605 225.892C81.9923 225.892 81.6087 225.478 81.2558 225.478C80.903 225.478 80.5041 225.34 80.1512 225.34C79.7983 225.34 79.3994 225.815 79.0466 225.815C78.663 225.815 78.2948 225.999 77.942 225.999C77.5584 225.999 77.1902 225.355 76.8373 225.355C76.4538 225.355 76.0856 225.846 75.7327 225.846C75.3492 225.846 74.9809 226.076 74.6281 226.076C74.2292 226.076 73.861 225.938 73.5234 225.938C73.1092 225.938 72.741 225.938 72.4188 225.938C71.9892 225.938 71.621 225.907 71.3295 225.907C70.992 225.907 70.6085 225.739 70.2249 225.693C69.872 225.662 69.4885 225.693 69.1203 225.616C68.7674 225.555 68.4913 225.079 68.123 224.987C67.7855 224.91 67.3253 225.171 66.9571 225.064C66.6195 224.956 66.282 224.787 65.9138 224.665C65.5456 224.542 65.162 224.573 64.8245 224.435C64.487 224.296 64.2722 223.852 63.9193 223.713C63.5665 223.575 63.1982 223.529 62.8607 223.376C62.5232 223.223 62.109 223.238 61.7714 223.069C61.4339 222.9 61.3879 222.225 61.0504 222.057C60.7128 221.888 60.0838 222.287 59.7616 222.103C59.4395 221.918 59.24 221.535 58.9332 221.335C58.6263 221.136 58.5189 220.614 58.2121 220.415C57.9052 220.215 57.3836 220.354 57.0768 220.139C56.7699 219.924 56.6932 219.402 56.3864 219.188C56.0795 218.973 55.6193 219.003 55.3124 218.789C55.0056 218.574 54.8215 218.236 54.53 218.006C54.2385 217.776 53.7169 217.853 53.4254 217.623C53.1339 217.393 53.2106 216.748 52.9191 216.503C52.6276 216.257 52.2594 216.15 51.9832 215.904C51.7071 215.659 51.5383 215.306 51.2621 215.061C50.986 214.815 50.6331 214.677 50.357 214.416C50.0808 214.155 49.8814 213.849 49.6359 213.588C49.3904 213.327 49.0529 213.127 48.8074 212.867C48.5619 212.606 48.5006 212.161 48.2551 211.885C48.0096 211.609 47.2272 211.808 46.9817 211.517C46.7362 211.225 46.6442 210.826 46.4141 210.55C46.1839 210.274 46.4754 209.583 46.2453 209.292C46.0152 209 45.693 208.801 45.4782 208.494C45.2634 208.187 44.8185 208.065 44.619 207.758C44.4196 207.451 44.1741 207.175 43.9747 206.853C43.7752 206.53 43.361 206.362 43.1769 206.039C42.9928 205.717 42.9621 205.303 42.778 204.981C42.5939 204.659 42.8854 204.091 42.7166 203.769C42.5479 203.447 42.0723 203.278 41.9035 202.956C41.7347 202.634 41.4279 202.357 41.2745 202.035C41.121 201.713 40.7068 201.468 40.5687 201.13C40.4307 200.792 40.2926 200.44 40.1699 200.087C40.0471 199.734 40.6148 199.136 40.492 198.783C40.3693 198.43 40.1699 198.123 40.0625 197.77C39.9551 197.417 39.5408 197.172 39.4334 196.819C39.326 196.466 38.9885 196.174 38.9118 195.806C38.8351 195.438 39.2647 194.962 39.188 194.61C39.1112 194.257 38.8198 193.935 38.743 193.582C38.6663 193.229 38.7277 192.845 38.6663 192.477C38.605 192.109 38.6356 191.741 38.5896 191.372C38.5436 191.004 37.8992 190.713 37.8685 190.329C37.8379 189.946 37.7458 189.577 37.7305 189.225C37.7151 188.872 38.4362 188.442 38.4208 188.074C38.4055 187.706 38.114 187.337 38.114 186.985C38.114 186.632 38.1754 186.248 38.1907 185.88C38.2061 185.512 38.3441 185.144 38.3595 184.775C38.3748 184.407 38.4055 184.039 38.4362 183.671C38.4669 183.303 38.2521 182.904 38.2828 182.551C38.3135 182.198 37.9299 181.753 37.9913 181.385C38.0526 181.017 38.9118 180.771 38.9732 180.418C39.0345 180.065 39.0499 179.682 39.1266 179.329C39.2033 178.976 39.1266 178.577 39.2186 178.224C39.3107 177.871 39.4028 177.519 39.5101 177.166C39.6175 176.813 39.5101 176.399 39.6329 176.046C39.7556 175.693 40.2005 175.463 40.3386 175.125C40.4767 174.788 40.5994 174.435 40.7375 174.097C40.8756 173.76 40.5074 173.192 40.6608 172.855C40.8142 172.517 41.4586 172.41 41.612 172.072C41.7654 171.735 42.0262 171.458 42.195 171.136C42.3638 170.814 42.195 170.292 42.3791 169.986C42.5632 169.679 42.8394 169.387 43.0235 169.08C43.2076 168.774 43.3917 168.436 43.5758 168.129C43.7599 167.822 43.6371 167.301 43.8213 166.979C44.0054 166.656 44.3736 166.442 44.573 166.135C44.7725 165.828 45.2787 165.69 45.4629 165.368C45.647 165.046 45.3861 164.462 45.5702 164.14C45.7544 163.818 45.8464 163.45 46.0152 163.128C46.1839 162.806 46.4447 162.529 46.6135 162.207C46.7823 161.885 47.5954 161.854 47.7335 161.517C47.8716 161.179 47.9022 160.765 48.0403 160.428C48.1784 160.09 48.3932 159.752 48.5006 159.4C48.608 159.047 48.5006 158.617 48.5926 158.264C48.6847 157.911 49.0222 157.589 49.0989 157.236C49.1756 156.884 48.9915 156.469 49.0376 156.101C49.0836 155.733 49.2677 155.38 49.283 154.996C49.2984 154.613 49.3444 154.245 49.3444 153.876C49.3444 153.508 49.2677 153.14 49.237 152.757C49.2063 152.373 48.746 152.066 48.7 151.698C48.654 151.33 49.1296 150.885 49.0682 150.517C49.0069 150.148 48.0863 149.98 48.0096 149.611C47.9329 149.243 48.1324 148.814 48.0403 148.461C47.9483 148.108 48.1631 147.632 48.0403 147.279C47.9176 146.927 47.4573 146.696 47.3192 146.344C47.1812 145.991 46.8743 145.73 46.7209 145.408C46.5675 145.085 46.9664 144.441 46.7823 144.119C46.5982 143.797 45.9691 143.72 45.7697 143.413C45.5702 143.106 45.8924 142.416 45.6623 142.109C45.4322 141.802 44.7571 141.848 44.5116 141.572C44.2662 141.296 44.1895 140.851 43.9286 140.59C43.6678 140.329 43.453 139.992 43.1769 139.746C42.9007 139.501 42.4098 139.47 42.1336 139.24C41.8575 139.01 41.3819 139.01 41.0904 138.78C40.7989 138.55 40.7222 138.028 40.4307 137.813C40.1392 137.599 39.6175 137.675 39.3107 137.476C39.0038 137.276 38.8351 136.831 38.5283 136.632C38.2214 136.433 37.8072 136.356 37.5003 136.156C37.1935 135.957 37.1168 135.389 36.8099 135.175C36.5031 134.96 36.3343 134.576 36.0428 134.346C35.7513 134.116 35.4445 133.916 35.1683 133.686C34.8922 133.456 34.6621 133.165 34.4012 132.904C34.1404 132.643 33.404 132.781 33.1739 132.474C32.9437 132.168 33.3887 131.462 33.2046 131.124C33.0205 130.787 32.9284 130.526 32.7903 130.173C32.6522 129.82 32.5755 129.544 32.4988 129.16C32.4221 128.808 32.3301 128.501 32.2994 128.117C32.2687 127.764 31.4556 127.411 31.4556 127.028C31.4556 126.675 31.7777 126.307 31.8084 125.923C31.8545 125.57 32.238 125.248 32.3147 124.865C32.3761 124.512 31.9619 124.036 32.0539 123.668C32.146 123.3 32.3147 122.932 32.4375 122.594C32.5602 122.226 33.2813 122.134 33.4347 121.796C33.5881 121.443 33.1892 120.83 33.3733 120.523C33.5574 120.216 34.2478 120.231 34.478 119.94C34.7081 119.648 34.7388 119.219 35.0149 118.958C35.2911 118.697 35.6133 118.544 35.9048 118.329C36.1963 118.114 36.2883 117.531 36.6105 117.362C36.9327 117.194 37.4696 117.454 37.8225 117.332C38.1754 117.209 38.4055 116.733 38.7584 116.641C39.1112 116.549 39.4641 116.288 39.8323 116.242C40.2005 116.196 40.6148 116.488 40.983 116.473C41.3512 116.457 41.7194 116.534 42.0876 116.549C42.4558 116.565 42.824 116.503 43.2076 116.549C43.5911 116.595 43.8673 116.964 44.2355 117.04C44.6037 117.117 45.0026 116.964 45.3708 117.071C45.739 117.178 46.1839 116.979 46.5368 117.117C46.8897 117.255 47.1045 117.7 47.442 117.853C47.7795 118.007 48.1477 118.084 48.4852 118.268C48.8228 118.452 48.9915 118.866 49.3137 119.05C49.6359 119.234 49.9581 119.372 50.2803 119.587C50.6024 119.802 50.7559 120.17 51.0474 120.4C51.3389 120.63 51.6304 120.814 51.9219 121.06C52.2134 121.305 52.5202 121.474 52.7963 121.735C53.0725 121.996 53.2259 122.333 53.4867 122.594C53.7476 122.855 54.576 122.594 54.8215 122.855C55.067 123.116 55.1744 123.545 55.4198 123.821C55.6653 124.098 55.6193 124.604 55.8494 124.895C56.0795 125.187 56.4784 125.34 56.6932 125.647C56.908 125.954 56.862 126.414 57.0614 126.736C57.2609 127.059 57.445 127.35 57.6291 127.688C57.8132 128.025 58.2735 128.179 58.4422 128.501C58.611 128.823 58.2735 129.391 58.4422 129.743C58.611 130.096 58.7491 130.403 58.9025 130.741C59.0559 131.078 59.3781 131.339 59.5008 131.692C59.6236 132.045 59.7616 132.382 59.8844 132.735C60.0071 133.088 59.9304 133.487 60.0378 133.84C60.1452 134.193 60.7742 134.407 60.8663 134.776C60.9583 135.144 61.2191 135.466 61.2958 135.834C61.3726 136.202 61.0504 136.647 61.1117 137.016C61.1731 137.384 60.943 137.783 60.989 138.166C61.035 138.55 61.8021 138.811 61.8328 139.194C61.8635 139.578 61.6487 139.977 61.6794 140.345C61.7101 140.713 61.2652 141.127 61.2805 141.495C61.2958 141.864 61.2805 142.247 61.2805 142.615C61.2805 142.984 61.5106 143.352 61.5106 143.72C61.5106 144.088 61.3879 144.472 61.3879 144.84C61.3879 145.208 61.618 145.592 61.6027 145.96C61.5873 146.328 61.9709 146.727 61.9555 147.095C61.9402 147.464 61.8942 147.847 61.8635 148.215C61.8328 148.583 61.5873 148.952 61.5413 149.32C61.4953 149.688 61.1271 150.026 61.0811 150.394C61.035 150.762 61.4953 151.222 61.4339 151.575C61.3725 151.928 60.8509 152.235 60.7896 152.588C60.7282 152.941 60.989 153.386 60.9123 153.754C60.8356 154.122 60.4981 154.429 60.406 154.782C60.3139 155.135 60.2066 155.503 60.1145 155.856C60.0225 156.208 59.5775 156.485 59.4701 156.838C59.3627 157.19 59.6542 157.681 59.5315 158.034C59.4088 158.387 59.731 158.893 59.6082 159.246C59.4855 159.599 58.8258 159.768 58.703 160.105C58.5803 160.443 58.7644 160.934 58.6263 161.271C58.4882 161.609 57.8285 161.762 57.6905 162.1C57.5524 162.437 57.4757 162.821 57.3376 163.158C57.1995 163.496 57.1382 163.879 56.9847 164.232C56.8313 164.585 57.0154 165.061 56.8773 165.398C56.7393 165.736 56.6625 166.119 56.5091 166.457C56.3557 166.794 56.371 167.209 56.233 167.546C56.0949 167.884 55.5886 168.083 55.4505 168.421C55.3124 168.758 55.1437 169.096 55.0056 169.433C54.8675 169.771 54.9596 170.216 54.8215 170.553C54.6834 170.891 54.4379 171.198 54.3152 171.551C54.1925 171.903 53.5634 172.072 53.4407 172.425C53.318 172.778 53.6862 173.284 53.5634 173.637C53.4407 173.99 53.0111 174.251 52.9037 174.604C52.7963 174.956 53.0725 175.417 52.9805 175.77C52.8884 176.122 52.827 176.491 52.7503 176.859C52.6736 177.227 52.0292 177.473 51.9679 177.841C51.9065 178.209 52.0292 178.608 51.9679 178.976C51.9065 179.344 52.0446 179.728 51.9986 180.096C51.9525 180.464 52.3514 180.848 52.3207 181.231C52.2901 181.615 51.8451 181.952 51.8298 182.321C51.8145 182.689 52.1673 183.057 52.1827 183.425C52.198 183.793 51.569 184.192 51.5997 184.576C51.6304 184.959 52.4435 185.251 52.4895 185.619C52.5355 185.987 52.3975 186.371 52.4435 186.724C52.4895 187.077 52.3054 187.491 52.3514 187.844C52.3975 188.197 52.7043 188.534 52.7657 188.887C52.827 189.24 52.735 189.639 52.8117 189.992C52.8884 190.345 52.8117 190.759 52.8884 191.096C52.9651 191.434 53.41 191.725 53.5021 192.063C53.5941 192.431 53.5021 192.83 53.6248 193.167C53.7322 193.52 53.6708 193.935 53.7936 194.272C53.9163 194.625 54.4686 194.809 54.5914 195.131C54.7294 195.484 54.7601 195.852 54.8982 196.174C55.0516 196.512 54.9135 197.003 55.0823 197.31C55.2664 197.647 55.7727 197.77 55.9568 198.077C56.1562 198.399 56.0182 198.921 56.233 199.212C56.4478 199.519 56.816 199.718 57.0308 199.995C57.2762 200.286 57.7672 200.317 58.0126 200.578C58.2888 200.854 58.3348 201.299 58.5956 201.529C58.8871 201.79 58.9945 202.265 59.2707 202.449C59.5929 202.68 60.1298 202.526 60.4213 202.68C60.7896 202.879 61.0043 203.293 61.2958 203.401C61.9402 203.631 61.6794 203.738 61.9862 203.309C62.2931 202.879 62.2164 203.216 61.9402 202.557C61.8175 202.281 61.6334 201.958 61.4799 201.56C61.3572 201.253 61.6027 200.777 61.4799 200.409C61.3726 200.087 60.6208 199.949 60.5134 199.58C60.406 199.243 60.7128 198.767 60.6055 198.399C60.5134 198.062 60.0685 197.801 59.9611 197.433C59.869 197.095 59.9764 196.681 59.8997 196.313C59.823 195.96 59.4088 195.668 59.3321 195.3C59.2554 194.932 59.9151 194.456 59.8537 194.088C59.7923 193.72 58.9178 193.505 58.8718 193.137C58.8258 192.769 58.9485 192.385 58.9025 192.017C58.8565 191.649 58.7184 191.296 58.6877 190.928C58.657 190.559 59.1633 190.16 59.148 189.792C59.1326 189.424 58.9485 189.071 58.9332 188.703C58.9178 188.335 59.0099 187.982 58.9945 187.598C58.9792 187.215 58.565 186.862 58.565 186.494C58.565 186.125 58.9332 185.773 58.9485 185.404C58.9639 185.036 58.565 184.653 58.5956 184.284C58.6263 183.916 59.0252 183.579 59.0559 183.21C59.0866 182.842 58.8871 182.459 58.9332 182.09C58.9792 181.722 59.5622 181.446 59.6082 181.078C59.6542 180.71 59.0099 180.234 59.0712 179.866C59.1326 179.498 59.4855 179.191 59.5622 178.823C59.6389 178.454 60.1298 178.194 60.2066 177.841C60.2833 177.488 60.3907 177.135 60.4981 176.782C60.6055 176.429 60.5134 176.03 60.6208 175.678C60.7282 175.325 61.1424 175.079 61.2652 174.726C61.3879 174.373 61.0964 173.898 61.2191 173.56C61.3419 173.223 61.6487 172.947 61.7714 172.594C61.8942 172.241 61.6641 171.765 61.8021 171.428C61.9402 171.09 61.9555 170.691 62.0936 170.354C62.2317 170.016 62.7687 169.863 62.9221 169.525C63.0755 169.188 63.1369 168.804 63.3056 168.482C63.4744 168.16 64.0267 168.037 64.1955 167.715C64.3642 167.393 64.533 167.071 64.7171 166.748C64.9012 166.426 65.1007 166.135 65.3001 165.813C65.4996 165.49 65.2234 164.907 65.4382 164.585C65.653 164.263 66.2206 164.232 66.4354 163.926C66.6502 163.619 66.3127 162.944 66.5275 162.652C66.7423 162.361 67.2639 162.269 67.494 161.977C67.7242 161.686 68.0157 161.455 68.2458 161.164C68.4759 160.872 68.9362 160.78 69.1816 160.489C69.4271 160.197 69.5805 159.875 69.826 159.584C70.0715 159.292 69.7186 158.525 69.9487 158.234C70.1789 157.942 70.5164 157.758 70.7465 157.466C70.9767 157.175 71.1915 156.884 71.4062 156.592C71.621 156.301 72.0506 156.162 72.2807 155.871C72.5109 155.579 72.4802 155.089 72.695 154.797C72.9098 154.506 73.0939 154.183 73.3087 153.876C73.5234 153.57 73.861 153.37 74.0758 153.079C74.2906 152.787 74.5974 152.542 74.7968 152.235C74.9963 151.928 75.2878 151.667 75.4872 151.36C75.6867 151.054 76.285 150.992 76.4845 150.685C76.6839 150.379 76.9447 150.087 77.1442 149.78C77.3436 149.473 76.868 148.737 77.0521 148.415C77.2362 148.093 77.3896 147.755 77.5737 147.448C77.7579 147.141 78.034 146.865 78.2028 146.543C78.3715 146.221 79.2307 146.251 79.3995 145.929C79.5682 145.607 78.9852 144.886 79.154 144.549C79.3227 144.211 79.7983 144.042 79.9518 143.72C80.1052 143.398 79.9211 142.892 80.0745 142.569C80.2279 142.247 80.903 142.124 81.0411 141.787C81.1791 141.449 81.0104 140.974 81.1484 140.636C81.2865 140.299 81.532 139.992 81.6547 139.654C81.7775 139.317 81.8388 138.933 81.9462 138.596C82.0536 138.258 82.207 137.905 82.3144 137.568C82.4218 137.23 82.8821 136.97 82.9741 136.617C83.0662 136.264 83.0509 135.865 83.1429 135.512C83.235 135.159 83.1122 134.745 83.1889 134.392C83.2656 134.039 83.3884 133.686 83.4498 133.318C83.5111 132.95 84.0788 132.674 84.1401 132.306C84.2015 131.937 83.4651 131.462 83.5111 131.094C83.5571 130.725 84.2322 130.434 84.2782 130.066C84.3242 129.697 83.9253 129.299 83.956 128.93C83.9867 128.562 83.9407 128.194 83.956 127.826C83.9714 127.458 83.9867 127.089 83.9867 126.736C83.9867 126.384 84.3396 125.985 84.3242 125.632C84.3089 125.279 84.1555 124.895 84.1248 124.542C84.0941 124.19 84.2782 123.775 84.2322 123.423C84.1862 123.07 83.8333 122.732 83.7719 122.364C83.7106 121.996 83.5571 121.658 83.4958 121.29C83.4344 120.922 83.235 120.6 83.1582 120.247C83.0815 119.894 83.4497 119.418 83.3577 119.065C83.2656 118.713 82.9281 118.421 82.8361 118.068C82.744 117.715 82.7133 117.332 82.5906 116.979C82.4679 116.626 81.9923 116.411 81.8695 116.074C81.7468 115.736 81.9923 115.23 81.8695 114.892C81.7468 114.555 81.7008 114.156 81.5473 113.818C81.3939 113.481 80.8569 113.327 80.7035 113.005C80.5501 112.683 80.7495 112.161 80.5808 111.839C80.412 111.517 80.2279 111.21 80.0438 110.873C79.8751 110.566 79.4455 110.366 79.2767 110.029C79.108 109.707 78.617 109.553 78.4329 109.216C78.2641 108.894 78.3255 108.449 78.1567 108.111C77.988 107.774 77.6658 107.544 77.497 107.206C77.3283 106.868 77.497 106.378 77.3436 106.055C77.1902 105.733 77.2822 105.273 77.1135 104.935C76.9447 104.598 76.285 104.536 76.1316 104.199C75.9782 103.861 75.702 103.601 75.5486 103.263C75.3952 102.926 75.3338 102.557 75.1804 102.22C75.027 101.882 74.7815 101.591 74.6281 101.253C74.4747 100.916 74.6741 100.425 74.536 100.087C74.3979 99.7497 73.8917 99.5657 73.7536 99.2281C73.6155 98.8906 74.0911 98.2923 73.9377 97.9548C73.7843 97.6172 73.6462 97.295 73.5081 96.9422C73.37 96.5893 72.9404 96.3745 72.8024 96.037C72.6643 95.6995 72.158 95.5 72.0199 95.1471C71.8818 94.7943 71.9279 94.3954 71.7898 94.0425C71.6517 93.6896 71.5443 93.3521 71.4216 92.9993C71.2989 92.6464 71.483 92.2015 71.3602 91.8486C71.2375 91.4957 71.2835 91.0968 71.1761 90.744C71.0687 90.3911 70.3937 90.207 70.3016 89.8542C70.2096 89.5013 70.4857 89.0257 70.3937 88.6728C70.3016 88.3199 69.9488 88.0284 69.8567 87.6756C69.7647 87.3227 69.5805 86.9852 69.4885 86.617C69.3964 86.2488 69.151 85.9419 69.0589 85.5737C68.9669 85.2055 69.2277 84.7759 69.151 84.4077C69.0743 84.0395 69.243 83.6406 69.151 83.2724C69.0589 82.9042 68.9362 82.5667 68.8748 82.1984C68.8134 81.8302 68.5066 81.5234 68.4452 81.1552C68.3839 80.787 68.614 80.3881 68.5526 80.0199C68.4913 79.6517 68.3532 79.3141 68.2918 78.9459C68.2304 78.5777 67.6474 78.2863 67.6014 77.918C67.5554 77.5498 67.5401 77.1816 67.494 76.8134C67.448 76.4452 67.8929 76.031 67.8622 75.6628C67.8315 75.2946 67.5401 74.9417 67.5094 74.5734C67.4787 74.2052 68.0003 73.8064 67.985 73.4382C67.9696 73.0699 67.8469 72.7171 67.8469 72.3489C67.8469 71.9807 67.6781 71.6125 67.6781 71.2443C67.6781 70.876 67.5861 70.5078 67.5861 70.1396C67.5861 69.7714 67.3713 69.4032 67.3866 69.0196C67.402 68.6361 68.0463 68.3139 68.0617 67.9304C68.077 67.5468 67.4633 67.1633 67.4787 66.7951C67.494 66.4269 67.9236 66.0893 67.9543 65.7211C67.985 65.3529 68.1844 65 68.2151 64.6318C68.2458 64.2636 67.9696 63.8647 68.0157 63.4965C68.0617 63.1283 68.5526 62.8215 68.5987 62.4532C68.6447 62.085 67.9236 61.6094 67.9696 61.2412C68.0157 60.873 68.2151 60.5355 68.2765 60.1673C68.3378 59.7991 68.3839 59.4309 68.4606 59.0627C68.5373 58.6945 68.4146 58.2956 68.4913 57.9274C68.568 57.5592 69.4578 57.3904 69.5499 57.0375C69.6419 56.6846 69.151 56.1784 69.243 55.8102C69.3351 55.442 69.5959 55.1351 69.6879 54.7822C69.78 54.4294 69.8107 54.0458 69.9181 53.693C70.0255 53.3401 70.4704 53.0946 70.5931 52.7418C70.7159 52.3889 70.5471 51.944 70.6698 51.5911C70.7926 51.2382 70.9613 50.916 71.0841 50.5632C71.2068 50.2103 71.6517 49.9955 71.7898 49.658C71.9279 49.3205 71.3909 48.7068 71.529 48.3539C71.6671 48.001 72.112 47.7863 72.2501 47.4487C72.3881 47.1112 72.5722 46.789 72.7257 46.4515C72.8791 46.114 73.4314 45.9759 73.6002 45.6384C73.7689 45.3009 73.8917 44.9633 74.0604 44.6412C74.2292 44.319 74.1985 43.8894 74.3826 43.5518C74.5667 43.2143 74.3366 42.6773 74.5053 42.3552C74.6741 42.033 75.3798 42.0023 75.5639 41.6801C75.7481 41.3579 75.656 40.8824 75.8401 40.5602C76.0242 40.238 76.4384 40.0539 76.6379 39.747C76.8373 39.4402 76.8527 39.0106 77.0521 38.6884C77.2516 38.3663 77.7118 38.2435 77.9113 37.9213C78.1107 37.5992 77.9573 37.0622 78.1721 36.7553C78.3869 36.4485 79.0159 36.4332 79.2307 36.1417C79.4455 35.8502 79.246 34.945 79.4762 34.6381C80.0285 34.5614 79.6603 35.4206 80.2279 35.8501C80.4734 36.0496 81.041 35.9269 81.3786 36.1877C81.6394 36.4025 81.8235 36.7553 82.1303 37.0162C82.3912 37.2463 82.652 37.5224 82.9435 37.7679C83.2043 37.998 83.5725 38.1515 83.8486 38.4123C84.1095 38.6578 84.2936 39.0106 84.5697 39.2714C84.8305 39.5169 84.9686 39.9004 85.2448 40.1613C85.5209 40.4221 86.196 40.2533 86.4568 40.5141C86.7176 40.775 86.5488 41.4654 86.7943 41.7262C87.0398 41.987 87.5768 42.0023 87.8222 42.2785C88.0677 42.5546 88.1904 42.9382 88.4359 43.2143C88.6814 43.4905 88.8348 43.8433 89.0803 44.1348C89.3258 44.4263 89.7707 44.5338 90.0008 44.8253C90.2309 45.1168 90.3537 45.485 90.5838 45.7918C90.8139 46.0987 90.7219 46.6049 90.9367 46.9117C91.1515 47.2186 91.5043 47.418 91.7191 47.7249C91.9339 48.0317 91.9032 48.4767 92.0873 48.7988C92.2714 49.121 93.0999 49.0597 93.284 49.3818C93.4681 49.704 93.1152 50.3177 93.284 50.6552C93.4528 50.9927 93.6369 51.2996 93.7903 51.6371C93.9437 51.9746 94.496 51.8366 94.6341 52.1741C95.1404 52.3582 94.7875 52.1281 95.4165 51.9133C95.708 51.8059 96.245 52.2815 96.6286 52.1741C96.9507 52.0821 97.2576 51.9133 97.6411 51.8212C97.9787 51.7292 98.2088 51.2076 98.577 51.1155C98.9145 51.0388 99.3748 51.453 99.7277 51.3916C100.081 51.3303 100.326 50.6859 100.679 50.6399C101.032 50.5939 101.385 50.4865 101.753 50.4404C102.121 50.3944 102.474 50.2103 102.827 50.195C103.18 50.1796 103.563 50.9927 103.931 50.9927C104.3 50.9927 104.637 50.87 104.99 50.9007C105.343 50.9314 105.726 50.6859 106.079 50.7473C106.432 50.8086 106.662 50.6552 107.015 50.7473C107.506 50.5018 107.675 50.8547 108.028 50.2563C108.181 49.9955 108.028 49.4586 108.227 49.1057C108.396 48.8142 108.35 48.3539 108.549 48.0164C108.733 47.7249 108.856 47.3567 109.056 47.0345C109.24 46.7277 109.807 46.6509 110.022 46.3441C110.222 46.0373 110.697 45.9145 110.897 45.5924C111.096 45.2702 111.234 44.9326 111.434 44.6258C111.633 44.319 111.572 43.8434 111.787 43.5365C112.001 43.2297 112.339 43.0302 112.554 42.7234C112.768 42.4166 113.106 42.2171 113.336 41.9256C113.566 41.6341 113.658 41.2506 113.888 40.9591C114.118 40.6676 113.904 40.0232 114.134 39.747C114.364 39.4709 115.254 39.701 115.484 39.4249C115.714 39.1487 115.76 38.6884 116.006 38.4276C116.251 38.1361 116.543 37.9213 116.803 37.6605C117.064 37.3843 116.987 36.7707 117.248 36.5406C117.54 36.2797 118.153 36.4485 118.43 36.2491C118.752 36.0036 118.967 35.7428 119.273 35.5894C119.642 35.3899 119.718 35.3746 120.041 35.3285C120.516 35.6047 120.071 35.5587 120.393 36.1877C120.531 36.4638 121.16 36.5559 121.345 36.9394C121.498 37.2309 121.836 37.4764 122.004 37.8446C122.158 38.1514 121.759 38.7651 121.928 39.1027C122.081 39.4248 122.495 39.6243 122.664 39.9772C122.817 40.2993 122.633 40.7903 122.802 41.1278C122.956 41.45 123.585 41.5574 123.753 41.9103C123.907 42.2325 124.198 42.5086 124.352 42.8615C124.505 43.2143 124.29 43.69 124.444 44.0275C124.597 44.365 124.551 44.7792 124.705 45.1321C124.858 45.4849 125.518 45.577 125.656 45.9299C125.794 46.2828 125.855 46.6356 126.009 46.9731C126.162 47.3107 125.947 47.7863 126.085 48.1391C126.223 48.492 126.561 48.7375 126.699 49.075C126.837 49.4125 126.576 49.9035 126.714 50.2563C126.852 50.6092 127.052 50.916 127.175 51.2536C127.297 51.5911 127.85 51.7906 127.988 52.1281C128.126 52.4656 127.834 52.9719 127.957 53.3248C128.08 53.6776 128.739 53.831 128.862 54.1839C128.985 54.5368 129.246 54.8436 129.368 55.1811C129.491 55.5187 129.645 55.8715 129.767 56.2244C129.89 56.5772 130.028 56.9148 130.151 57.2676C130.274 57.6205 129.507 58.2496 129.629 58.6024C129.752 58.9553 130.136 59.2161 130.243 59.5689C130.35 59.9218 130.719 60.198 130.826 60.5662C130.933 60.9344 130.795 61.3486 130.903 61.7015C131.01 62.0544 131.608 62.2845 131.716 62.6373C131.823 62.9902 131.501 63.4658 131.593 63.8187C131.685 64.1716 131.44 64.6165 131.532 64.9847C131.624 65.3529 132.283 65.5677 132.36 65.9359C132.437 66.3041 132.283 66.7183 132.36 67.0712C132.437 67.4241 132.774 67.7463 132.836 68.1145C132.897 68.4827 132.728 68.8969 132.805 69.2498C132.882 69.6026 133.265 69.9402 133.327 70.2931C133.388 70.6459 133.48 71.0295 133.526 71.3977C133.572 71.7659 132.912 72.2262 132.959 72.5944C133.005 72.9626 133.081 73.3308 133.112 73.699C133.143 74.0672 133.296 74.4201 133.311 74.7883C133.327 75.1565 133.189 75.54 133.204 75.9082C133.219 76.2765 133.634 76.6447 133.634 77.0129C133.634 77.3811 133.281 77.7492 133.265 78.1175C133.25 78.4857 133.818 78.8846 133.802 79.2528C133.787 79.621 133.756 80.0045 133.71 80.3727C133.664 80.7409 132.912 81.0325 132.851 81.3853C132.79 81.7382 133.035 82.1678 132.974 82.5207C132.912 82.8735 132.897 83.2571 132.805 83.6099C132.713 83.9628 132.529 84.3003 132.422 84.6532C132.314 85.0061 132.422 85.4203 132.299 85.7732C132.176 86.126 132.299 86.5709 132.161 86.9085C132.023 87.246 131.747 87.5529 131.593 87.8904C131.44 88.2279 131.148 88.5041 130.995 88.8416C130.841 89.1791 130.673 89.5166 130.504 89.8388C130.335 90.161 130.258 90.5599 130.09 90.8667C129.921 91.1736 129.783 91.5571 129.599 91.864C129.415 92.1708 128.924 92.3242 128.739 92.6464C128.555 92.9686 128.755 93.5209 128.571 93.8277C128.387 94.1346 127.865 94.2726 127.681 94.5795C127.497 94.8863 127.036 95.0704 126.868 95.3926C126.699 95.7148 126.975 96.2978 126.806 96.62C126.638 96.9422 126.3 97.1877 126.147 97.5252C125.993 97.8627 126.223 98.3536 126.085 98.6911C125.947 99.0287 125.702 99.3202 125.594 99.6731C125.487 100.026 125.334 100.348 125.257 100.701C125.18 101.054 124.643 101.33 124.597 101.698C124.551 102.066 124.965 102.465 124.95 102.849C124.935 103.232 124.935 103.555 124.95 103.938C124.965 104.322 124.889 104.659 124.935 105.043C124.981 105.396 125.18 105.733 125.257 106.101C125.318 106.454 125.287 106.822 125.38 107.191C125.472 107.528 125.38 107.942 125.487 108.311C125.594 108.648 126.193 108.817 126.331 109.17C126.453 109.507 125.855 110.136 126.009 110.489C126.147 110.811 127.067 110.811 127.236 111.149C127.389 111.471 126.868 112.131 127.036 112.468C127.205 112.806 127.65 112.975 127.834 113.312C128.018 113.65 128.341 113.864 128.525 114.187C128.709 114.509 129.123 114.678 129.322 115C129.522 115.322 129.583 115.69 129.783 116.012C129.982 116.335 130.258 116.595 130.458 116.917C130.657 117.24 130.949 117.485 131.133 117.807C131.317 118.13 130.964 118.774 131.148 119.096C131.332 119.418 131.378 119.817 131.562 120.139C131.746 120.462 132.161 120.646 132.345 120.968C132.529 121.29 132.866 121.52 133.051 121.842C133.235 122.164 133.557 122.395 133.756 122.732C133.956 123.07 133.588 123.683 133.756 124.006C133.925 124.328 134.708 124.312 134.892 124.65C135.076 124.987 135.367 125.233 135.551 125.555C135.735 125.877 135.521 126.414 135.689 126.752C135.858 127.089 136.088 127.365 136.257 127.703C136.426 128.04 136.779 128.255 136.947 128.593C137.116 128.93 137.132 129.329 137.316 129.651C137.5 129.974 137.868 130.204 138.037 130.526C138.205 130.848 138.205 131.262 138.374 131.6C138.543 131.937 138.942 132.137 139.111 132.474C139.279 132.812 139.464 133.134 139.617 133.456C139.77 133.778 139.51 134.331 139.663 134.668C139.816 135.006 140.399 135.128 140.553 135.466C140.706 135.804 140.583 136.264 140.752 136.601C140.921 136.939 140.921 137.338 141.074 137.675C141.228 138.013 141.197 138.427 141.351 138.765C141.504 139.102 142.164 139.209 142.317 139.547C142.471 139.885 142.44 140.299 142.593 140.636C142.747 140.974 142.854 141.327 142.992 141.68C143.13 142.032 143.268 142.37 143.422 142.707C143.575 143.045 143.989 143.275 144.128 143.613C144.266 143.95 143.989 144.472 144.128 144.825C144.266 145.178 144.526 145.469 144.664 145.807C144.803 146.144 145.155 146.405 145.294 146.758C145.432 147.111 145.554 147.448 145.692 147.801C145.83 148.154 145.692 148.599 145.83 148.952C145.969 149.305 146.536 149.473 146.674 149.826C146.812 150.179 146.306 150.762 146.444 151.1C146.582 151.437 146.858 151.744 146.981 152.081C147.104 152.419 147.089 152.833 147.211 153.186C147.334 153.539 147.978 153.708 148.101 154.061C148.224 154.413 148.04 154.874 148.162 155.227C148.285 155.579 148.07 156.04 148.178 156.393C148.285 156.745 148.715 157.006 148.822 157.359C148.93 157.712 149.144 158.034 149.252 158.387C149.359 158.74 149.513 159.077 149.62 159.446C149.727 159.814 149.405 160.289 149.513 160.642C149.62 160.995 150.034 161.256 150.142 161.624C150.249 161.992 150.448 162.315 150.556 162.667C150.663 163.02 150.97 163.327 151.062 163.68C151.154 164.033 150.909 164.493 151.001 164.846C151.093 165.199 151.384 165.521 151.476 165.874C151.568 166.227 151.492 166.641 151.584 166.994C151.676 167.347 151.63 167.746 151.722 168.114C151.814 168.482 152.151 168.774 152.228 169.142C152.305 169.51 152.566 169.832 152.642 170.2C152.719 170.569 152.182 171.06 152.259 171.428C152.336 171.796 152.995 172.041 153.072 172.41C153.149 172.778 153.317 173.131 153.394 173.499C153.471 173.867 153.041 174.312 153.103 174.68C153.164 175.048 153.103 175.432 153.164 175.8C153.225 176.168 153.44 176.506 153.486 176.874C153.532 177.242 153.885 177.565 153.931 177.933C153.977 178.301 154.284 178.639 154.33 179.007C154.376 179.375 154.207 179.774 154.238 180.142C154.269 180.51 154.115 180.909 154.146 181.277C154.177 181.646 154.529 181.998 154.56 182.367C154.591 182.735 154.652 183.118 154.683 183.487C154.714 183.855 154.299 184.254 154.33 184.637C154.361 185.021 154.207 185.389 154.223 185.757C154.238 186.125 154.33 186.494 154.33 186.862C154.33 187.23 154.575 187.598 154.575 187.966C154.575 188.335 154.177 188.718 154.177 189.086C154.177 189.455 154.99 189.838 154.99 190.206C154.99 190.575 154.115 190.928 154.1 191.296C154.085 191.664 154.33 192.047 154.299 192.416C154.269 192.784 154.806 193.198 154.775 193.566C154.744 193.935 154.698 194.318 154.652 194.686C154.606 195.055 154.56 195.438 154.514 195.806C154.468 196.174 154.146 196.512 154.1 196.88C154.054 197.248 153.624 197.555 153.563 197.924C153.502 198.292 153.854 198.721 153.793 199.089C153.732 199.458 153.471 199.78 153.394 200.148C153.317 200.516 153.287 200.884 153.21 201.253C153.133 201.621 153.21 202.02 153.118 202.373C153.026 202.726 152.642 203.017 152.55 203.37C152.458 203.723 152.504 204.122 152.397 204.475C152.289 204.827 152.305 205.226 152.182 205.579C152.059 205.932 152.075 206.331 151.952 206.684C151.829 207.037 151.077 207.159 150.939 207.497C150.801 207.834 150.801 208.233 150.663 208.571C150.525 208.908 150.663 209.384 150.525 209.722C150.387 210.059 150.479 210.519 150.31 210.857C150.142 211.194 149.773 211.424 149.605 211.762C149.436 212.1 149.114 212.345 148.945 212.667C148.776 212.989 148.853 213.281 148.669 213.603C148.899 214.109 149.052 213.542 149.651 213.895C149.927 214.048 149.942 214.738 150.28 214.984C150.556 215.183 150.878 215.352 151.185 215.628C151.446 215.858 151.983 215.858 152.259 216.135C152.504 216.395 152.52 216.886 152.765 217.193C152.98 217.485 153.486 217.592 153.701 217.914C153.9 218.221 154.069 218.574 154.253 218.911C154.422 219.234 154.683 219.556 154.821 219.909C154.959 220.246 154.836 220.706 154.944 221.075C155.051 221.428 155.204 221.78 155.281 222.164C155.358 222.517 155.634 222.87 155.68 223.253C155.726 223.621 155.097 224.051 155.112 224.45C155.128 224.818 155.787 225.493 155.787 225.877H155.926Z" fill="black"/>
<path d="M109.224 63.2664C108.38 60.4895 106.079 60.5663 106.938 65.399C107.797 70.2317 106.202 72.6864 102.827 74.4354C99.4514 76.1844 94.4959 77.826 97.6717 83.6867C100.848 89.532 107.245 90.6213 114.226 87.2921C121.206 83.9629 121.068 75.7702 116.788 72.5484C112.507 69.3266 110.559 67.5775 109.24 63.2664H109.224Z" fill="#F9F9F9"/>
<path d="M110.02 77.4208C112.024 77.0764 113.506 75.9646 113.329 74.9374C113.153 73.9103 111.385 73.3568 109.381 73.7011C107.377 74.0455 105.895 75.1574 106.072 76.1845C106.248 77.2117 108.016 77.7651 110.02 77.4208Z" fill="black"/>
<path d="M115.545 77.8567C115.791 79.3295 114.809 80.7103 113.351 80.9711C111.894 81.2319 110.498 80.2347 110.237 78.7772" stroke="black" stroke-width="1.18134" stroke-linecap="round" stroke-linejoin="round"/>
<path d="M110.237 78.7773C110.483 80.2502 109.501 81.631 108.043 81.8918C106.57 82.1372 105.19 81.1554 104.929 79.6979" stroke="black" stroke-width="1.18134" stroke-linecap="round" stroke-linejoin="round"/>
<path d="M51.615 47.2187C55.8341 42.6928 58.8258 39.7778 59.8537 33.5029C60.8816 27.228 59.24 16.8415 50.3876 10.766C41.5353 4.69056 28.1417 3.75471 24.3369 5.41165C20.532 7.05325 11.2654 11.6866 8.99481 15.921C6.72419 20.14 4.36151 23.5766 3.64044 30.5112C2.91936 37.4458 3.83989 42.9997 7.35322 46.4976C10.8512 49.9956 16.451 52.5731 22.6646 55.5648C28.8781 58.5565 32.0692 58.3417 35.2604 60.5049C38.4515 62.6682 38.8658 64.3098 39.8937 61.4255C40.9216 58.5412 41.029 56.8995 42.2564 54.9358C43.4837 52.972 49.9734 48.9677 49.9734 48.9677L51.615 47.2187Z" fill="#FFF597"/>
<path d="M45.3862 5.19694C45.0333 5.04352 44.8339 4.50658 44.481 4.3685C44.1281 4.23042 43.5912 4.58326 43.223 4.47586C42.8547 4.36847 42.4865 4.32247 42.1183 4.21507C41.7501 4.10768 41.4433 3.83153 41.0751 3.73947C40.7069 3.64742 40.308 3.66275 39.9398 3.58604C39.5716 3.50933 39.2187 3.29456 38.8505 3.21785C38.4823 3.14114 38.1294 2.86495 37.7612 2.80358C37.393 2.74222 36.9634 2.98768 36.5798 2.94166C36.1963 2.89563 35.8127 2.97234 35.4292 2.94166C35.0456 2.91097 34.6621 3.03374 34.2939 3.0184C33.9257 3.00305 33.5421 2.71154 33.1739 2.71154C32.8057 2.71154 32.4222 2.94167 32.0386 2.95701C31.6551 2.97236 31.2715 2.49674 30.888 2.51208C30.5044 2.52742 30.1208 2.6195 29.7526 2.63484C29.3844 2.65019 29.0162 3.00307 28.648 3.03375C28.2798 3.06444 27.8349 2.68087 27.4667 2.72689C27.0985 2.77292 26.7916 3.30991 26.4081 3.37128C26.0245 3.43265 25.5182 2.74223 25.1347 2.81894C24.7511 2.89565 24.5363 3.7088 24.1681 3.80086C23.7999 3.89291 23.4317 3.95423 23.0635 4.04629C22.6953 4.13834 22.143 3.60137 21.7748 3.70876C21.4066 3.81615 21.1764 4.35313 20.8236 4.47586C20.4707 4.5986 20.0872 4.69067 19.7343 4.82875C19.3814 4.96682 19.0439 5.15092 18.691 5.30435C18.3382 5.45777 18.062 5.74926 17.7245 5.91802C17.387 6.08678 16.7579 5.70325 16.4204 5.88735C16.0829 6.07146 15.9295 6.60842 15.6073 6.79253C15.2851 6.97663 15.0703 7.3602 14.7635 7.57499C14.4566 7.78977 13.981 7.78979 13.6742 8.01992C13.3827 8.25005 13.0145 8.40343 12.723 8.6489C12.4315 8.89437 12.2167 9.21655 11.9252 9.46203C11.6337 9.7075 11.511 10.1217 11.2348 10.3826C10.9586 10.6434 10.8973 11.1036 10.6365 11.3798C10.3756 11.6559 9.74662 11.5639 9.4858 11.8401C9.22499 12.1162 9.08691 12.4998 8.84144 12.7913C8.59597 13.0828 8.31981 13.3436 8.07434 13.6351C7.82887 13.9266 7.73681 14.3255 7.49134 14.617C7.24587 14.9085 7.13847 15.292 6.92369 15.5988C6.7089 15.9057 6.34069 16.1052 6.1259 16.412C5.91111 16.7189 5.61961 16.9797 5.42017 17.3018C5.22072 17.624 4.76046 17.7774 4.56101 18.0996C4.36156 18.4218 4.56101 18.9741 4.37691 19.3116C4.1928 19.6492 4.23882 20.0787 4.05472 20.4163C3.87061 20.7538 3.56378 21.0146 3.41036 21.3521C3.25694 21.6896 2.91941 21.9505 2.76599 22.3034C2.61257 22.6562 2.19833 22.8863 2.06025 23.2392C1.92218 23.5921 2.30573 24.1444 2.16765 24.4973C2.02957 24.8501 1.95286 25.2183 1.84547 25.5712C1.73807 25.924 1.40055 26.2155 1.29315 26.5838C1.18576 26.952 1.07837 27.3049 1.00166 27.6731C0.924946 28.0413 0.95563 28.4248 0.894262 28.8084C0.832894 29.1919 0.234552 29.4681 0.173184 29.8516C0.111816 30.2352 0.403317 30.6494 0.372633 31.033C0.341948 31.4165 0.341947 31.7847 0.311263 32.1683C0.280579 32.5518 0.0657905 32.92 0.0657905 33.3036C0.0657905 33.6718 -0.0109212 34.0554 0.00442089 34.4236C0.0197629 34.7918 0.480027 35.1293 0.510711 35.4975C0.541395 35.8657 -0.0569473 36.3106 0.00442089 36.6788C0.0657891 37.0471 0.602761 37.3386 0.664129 37.6914C0.725497 38.0443 1.17042 38.3204 1.26247 38.6733C1.35452 39.0262 1.23178 39.4404 1.33918 39.7933C1.44657 40.1461 1.07837 40.6678 1.2011 41.0053C1.32384 41.3428 1.86081 41.5422 1.99889 41.8798C2.13696 42.2173 2.12163 42.6316 2.29039 42.9691C2.45915 43.3066 2.99612 43.4293 3.18022 43.7515C3.36433 44.0737 3.57912 44.3498 3.76322 44.672C3.94733 44.9942 4.22348 45.2243 4.42293 45.5312C4.62238 45.838 4.57635 46.3136 4.79114 46.6051C5.00593 46.8966 5.29743 47.1421 5.52756 47.4183C5.75769 47.6944 5.52756 48.3848 5.78837 48.661C6.04919 48.9371 6.77026 48.753 7.03108 49.0292C7.29189 49.3053 7.62942 49.4588 7.90558 49.7042C8.18173 49.9497 8.31981 50.3179 8.59597 50.5634C8.87212 50.8088 9.20965 50.9623 9.4858 51.2078C9.76196 51.4532 9.83867 51.9442 10.1302 52.1743C10.437 52.4044 10.483 52.9721 10.7745 53.1869C11.066 53.4016 11.9252 52.88 12.232 53.0795C12.5389 53.2789 12.3241 54.2762 12.6309 54.4756C12.9531 54.6904 13.5514 54.4756 13.8583 54.6597C14.1651 54.8438 14.5794 54.9205 14.8862 55.1046C15.193 55.2887 15.2391 56.0098 15.5613 56.1786C15.8988 56.3627 16.3284 56.378 16.6505 56.5468C16.9881 56.7309 17.525 56.4854 17.8472 56.6388C18.2001 56.8076 18.553 56.8996 18.8905 57.0377C19.2433 57.1911 19.5042 57.5287 19.8417 57.6514C20.1945 57.7895 20.5167 57.9889 20.8543 58.1117C21.2225 58.2344 21.652 58.1117 21.9896 58.2037C22.3578 58.3111 22.7413 58.2651 23.0942 58.3572C23.4624 58.4492 23.6465 59.247 23.9994 59.3237C24.3676 59.4004 24.7511 59.4618 25.104 59.5231C25.4876 59.5998 25.8251 59.83 26.1779 59.8914C26.5615 59.9527 27.0524 59.1703 27.4053 59.2163C27.7889 59.2777 28.1417 59.4925 28.4946 59.5538C28.8781 59.6152 29.1696 60.1062 29.5225 60.1829C29.8907 60.2596 30.3356 60.0601 30.6885 60.1675C31.0414 60.2749 31.4249 60.3823 31.7625 60.5357C32.1 60.6891 32.5602 60.6892 32.8824 60.9039C33.1739 61.1034 33.312 61.579 33.6188 61.8398C33.895 62.0699 34.2785 62.2233 34.5547 62.4995C34.8002 62.745 34.8922 63.1746 35.153 63.4814C35.3832 63.7576 35.2758 64.2945 35.5213 64.6013C35.736 64.8928 36.4418 64.8315 36.6566 65.169C36.856 65.4605 36.7486 65.9975 36.9634 66.3197C37.1935 66.6879 37.8532 66.5345 38.2521 66.7493C38.651 66.964 38.8812 67.4243 39.3261 67.4243C39.4642 67.4243 39.6483 67.6544 39.7863 67.6237C40.2159 67.547 40.3386 66.9487 40.6148 66.7493C40.9216 66.5345 41.5353 66.6112 41.7348 66.2583C41.9035 65.9515 42.0263 65.5526 42.149 65.1537C42.2411 64.8161 42.3024 64.4326 42.3945 64.0337C42.4712 63.6808 42.2257 63.2513 42.3024 62.8524C42.3638 62.5302 42.3331 62.1466 42.4252 61.7631C42.5019 61.4256 42.4865 61.042 42.5786 60.6738C42.6553 60.3209 42.8394 59.9834 42.9315 59.6305C43.0235 59.2777 43.0542 58.9094 43.1462 58.5566C43.2383 58.2037 43.361 57.8355 43.4684 57.498C43.5758 57.1605 43.9287 56.869 44.0514 56.5315C44.1895 56.1786 44.3429 55.8411 44.4963 55.5342C44.6651 55.1814 45.1867 55.0893 45.3708 54.8131C45.601 54.4756 45.4169 53.8773 45.6623 53.6778C45.8925 53.4937 46.2453 53.3403 46.5982 53.1102C46.8744 52.9261 47.2426 52.834 47.5801 52.6192C47.8716 52.4351 48.1631 52.2203 48.4853 52.0209C48.7921 51.8214 49.1296 51.6527 49.4672 51.4379C49.774 51.2384 49.9428 50.7935 50.2649 50.5787C50.5718 50.3793 50.9707 50.2872 51.2929 50.0724C51.6151 49.8576 52.0293 49.8116 52.3515 49.5815C52.6736 49.3514 52.7964 48.9065 53.1186 48.6763C53.4408 48.4462 53.855 48.3848 54.1618 48.1547C54.4687 47.9245 54.7448 47.6637 55.0517 47.4183C55.3585 47.1728 55.9262 47.2648 56.2177 47.004C56.5092 46.7432 56.4325 46.0682 56.7086 45.8227C56.9848 45.5772 57.0922 45.1169 57.353 44.8561C57.6138 44.5953 58.2275 44.6413 58.4883 44.3652C58.7491 44.089 58.6571 43.4907 58.9025 43.1992C59.148 42.9077 59.9611 43.0765 60.1912 42.7696C60.4214 42.4628 60.0685 41.7264 60.2833 41.4042C60.4981 41.082 61.1271 41.0513 61.3266 40.7291C61.526 40.4069 62.0016 40.2075 62.1704 39.87C62.3391 39.5324 61.8328 38.8421 62.0016 38.4892C62.1704 38.1363 62.5079 37.8908 62.646 37.5226C62.7841 37.1544 62.7841 36.7709 62.8915 36.4027C62.9988 36.0345 63.1216 35.6816 63.1983 35.3134C63.275 34.9452 63.904 34.6383 63.9501 34.2548C63.9961 33.8712 63.5665 33.457 63.5818 33.0581C63.5972 32.6592 64.1035 32.2757 64.0881 31.8921C64.0728 31.5086 64.0421 31.0943 63.9961 30.7108C63.9501 30.3272 63.3057 30.0357 63.2443 29.6522C63.1829 29.2686 62.8301 28.9465 62.7687 28.5782C62.7073 28.21 63.1983 27.7191 63.1216 27.3509C63.0449 26.9826 62.4312 26.7218 62.3391 26.3536C62.2471 25.9854 62.8454 25.4485 62.738 25.0803C62.6306 24.7121 61.8022 24.5433 61.6948 24.1904C61.5874 23.8375 61.8482 23.3466 61.7255 22.9937C61.6027 22.6409 61.7561 22.1653 61.6181 21.8278C61.48 21.4902 61.2345 21.1527 61.0964 20.7998C60.9584 20.447 60.3907 20.2782 60.2373 19.9253C60.0839 19.5724 60.4367 18.9895 60.268 18.6519C60.0992 18.3144 60.1145 17.8541 59.9304 17.532C59.7463 17.2098 59.2707 17.0103 59.0866 16.6882C58.9025 16.366 58.5803 16.1052 58.3809 15.783C58.1814 15.4608 57.7672 15.2767 57.5524 14.9699C57.3376 14.663 56.9234 14.5096 56.6933 14.2028C56.4631 13.8959 56.4018 13.4817 56.1563 13.1902C55.9108 12.8987 55.8801 12.423 55.6347 12.1469C55.3892 11.8707 55.2051 11.4872 54.9443 11.2264C54.6835 10.9656 54.1925 10.9042 53.9164 10.6588C53.6402 10.4133 53.1339 10.3979 52.8578 10.1524C52.5816 9.90696 52.781 9.04782 52.4896 8.81769C52.1981 8.58756 51.477 8.87905 51.1855 8.66426C50.894 8.44947 50.8326 7.83581 50.5258 7.63637C50.2189 7.43692 49.6513 7.5903 49.3291 7.4062C49.0069 7.22209 48.7307 6.94596 48.4086 6.76186C48.0864 6.57775 47.7489 6.39364 47.4113 6.22488C47.0738 6.05611 46.6289 6.11749 46.2914 5.94873C45.9538 5.77997 45.7391 5.33502 45.4015 5.19694H45.3862ZM45.8311 47.9399C45.4629 48.17 44.8646 48.032 44.5424 48.2468C44.1742 48.4922 44.1128 49.1366 43.7906 49.3667C43.4224 49.6275 43.1463 49.919 42.8548 50.1492C42.5786 50.3639 42.2104 50.456 41.9496 50.7322C41.6888 51.0083 41.5814 51.3305 41.3512 51.622C41.1211 51.9135 40.8449 52.1283 40.6455 52.4351C40.446 52.7419 40.0932 52.9568 39.9398 53.2789C39.7863 53.6011 39.9091 54.0461 39.771 54.3836C39.6329 54.7211 39.6176 55.074 39.4948 55.4268C39.3721 55.7797 39.4181 56.1479 39.2954 56.4854C39.1727 56.823 38.8351 57.0838 38.7431 57.4366C38.651 57.7895 38.8044 58.1884 38.7124 58.5413C38.6203 58.8941 38.1294 59.0936 38.0527 59.4464C37.7765 59.1549 37.5311 58.9555 37.2702 58.71C36.9787 58.4338 36.5031 58.4185 36.227 58.2037C35.9202 57.9583 35.8895 57.3752 35.5826 57.1758C35.2604 56.961 34.6928 57.1758 34.3706 56.9917C34.0331 56.8076 34.0331 55.9484 33.6955 55.795C33.358 55.6416 32.7137 56.2093 32.3608 56.0865C32.0079 55.9638 31.6704 55.841 31.3022 55.749C30.934 55.6569 30.7192 54.9205 30.351 54.8438C29.9828 54.7671 29.5379 55.1353 29.1543 55.0739C28.7708 55.0126 28.4179 54.9205 28.0497 54.8592C27.6968 54.7978 27.3286 54.7978 26.9604 54.7364C26.5922 54.675 26.224 54.7671 25.8558 54.7057C25.4876 54.6444 25.2728 53.954 24.9199 53.8773C24.567 53.8005 24.1375 54.0921 23.7692 53.9847C23.4317 53.8926 23.0175 53.9847 22.6493 53.8466C22.3118 53.7392 22.0509 53.3556 21.6981 53.2176C21.3605 53.0948 21.069 52.8647 20.7315 52.7113C20.4093 52.5732 20.0411 52.5118 19.7036 52.3431C19.3814 52.1896 18.9518 52.2203 18.6297 52.0362C18.3228 51.8674 17.8472 51.9442 17.525 51.7447C17.2182 51.5606 17.1568 50.9316 16.8346 50.7322C16.5278 50.5481 16.1443 50.4713 15.8221 50.2719C15.5306 50.0724 15.2391 49.8423 14.9322 49.6275C14.6254 49.4127 14.2418 49.336 13.935 49.1212C13.6282 48.9064 13.2599 48.7837 12.9684 48.5536C12.6769 48.3234 12.4928 47.9552 12.2167 47.7098C11.9405 47.4643 11.7104 47.1574 11.4496 46.912C11.1888 46.6665 11.1274 46.1909 10.8666 45.9301C10.6058 45.6693 10.0228 45.7153 9.7773 45.4391C9.53183 45.163 9.08691 45.0402 8.85678 44.7487C8.62665 44.4572 8.51925 44.0584 8.30447 43.7669C8.08968 43.4754 8.02831 43.0458 7.82887 42.7389C7.62942 42.4321 7.69078 41.9718 7.50668 41.6497C7.32257 41.3275 6.66287 41.2508 6.50945 40.9286C6.35603 40.6064 6.15658 40.2535 6.0185 39.916C5.88043 39.5785 5.97248 39.1336 5.86508 38.7807C5.75769 38.4278 5.66564 38.0596 5.57358 37.7067C5.48153 37.3539 5.28208 37.0163 5.20537 36.6481C5.12866 36.2799 5.61961 35.8504 5.57358 35.4822C5.52756 35.114 5.15935 34.7918 5.14401 34.4236C5.12867 34.0554 5.08264 33.6871 5.08264 33.3189C5.08264 32.9354 5.31277 32.5672 5.32811 32.1836C5.34345 31.8001 5.46619 31.4472 5.51221 31.0636C5.55824 30.6801 5.19003 30.2505 5.2514 29.8823C5.31277 29.5141 6.03384 29.2686 6.11055 28.9004C6.18726 28.5322 5.81906 28.0566 5.91111 27.6884C6.00316 27.3202 5.78837 26.8446 5.91111 26.4917C6.03385 26.1388 6.37137 25.832 6.50945 25.4791C6.64753 25.1263 7.26121 24.9728 7.41463 24.62C7.56805 24.2671 7.33792 23.7609 7.49134 23.408C7.64476 23.0551 7.99762 22.8096 8.16639 22.4721C8.33515 22.1346 8.16639 21.5976 8.33515 21.2601C8.50391 20.9225 8.68802 20.5697 8.88746 20.2475C9.08691 19.9253 9.22499 19.5418 9.43978 19.2349C9.65457 18.9281 10.1455 18.79 10.3603 18.4832C10.5751 18.1763 10.7592 17.8234 10.9893 17.5166C11.2195 17.2098 11.9405 17.3018 12.1707 17.0103C12.4008 16.7188 12.1707 15.9978 12.4161 15.7216C12.6616 15.4454 12.8457 15.0619 13.1065 14.7857C13.3673 14.5096 13.7509 14.3408 14.027 14.08C14.3032 13.8192 14.518 13.4817 14.7941 13.2208C15.0703 12.96 15.6073 12.9754 15.8834 12.7452C16.1596 12.5151 16.7273 12.6072 17.0341 12.3771C17.3102 12.1623 17.0801 11.1804 17.387 10.9809C17.6938 10.7815 18.4916 11.3798 18.8138 11.1957C19.136 11.0116 19.1973 10.3979 19.5348 10.2291C19.8724 10.0604 20.1332 9.76888 20.4707 9.61546C20.8082 9.46204 21.3605 9.89161 21.7134 9.75353C22.0663 9.61545 22.3118 9.32397 22.6646 9.20124C23.0175 9.0785 23.2323 8.54154 23.5851 8.44949C23.938 8.35744 24.2755 8.18866 24.6437 8.09661C25.012 8.00456 25.4108 8.12729 25.7791 8.05058C26.1473 7.97387 26.5155 7.97388 26.8683 7.91251C27.2212 7.85114 27.5587 7.52896 27.9269 7.48294C28.2951 7.43691 28.648 7.23746 29.0162 7.19143C29.3844 7.14541 29.814 7.85115 30.1822 7.82046C30.5504 7.78978 30.9033 7.74372 31.2715 7.74372C31.6397 7.74372 31.9926 7.89715 32.3608 7.89715C32.729 7.89715 33.1432 7.05333 33.5268 7.06867C33.9103 7.08401 34.2939 7.26816 34.6774 7.29884C35.061 7.32952 35.3985 7.78975 35.7821 7.83577C36.1656 7.8818 36.5798 7.62102 36.9634 7.68239C37.347 7.74376 37.7305 7.75906 38.1141 7.83577C38.4976 7.91248 38.9272 7.77442 39.2954 7.85113C39.6636 7.92784 39.9704 8.32674 40.354 8.43414C40.7375 8.54153 41.1364 8.49548 41.5046 8.60288C41.8729 8.71027 42.1643 9.0478 42.5326 9.18588C42.9008 9.32396 43.1002 9.83028 43.4531 9.9837C43.7906 10.1218 44.3736 9.72287 44.7111 9.87629C45.0487 10.0297 45.2021 10.536 45.5396 10.7201C45.8771 10.9042 46.4601 10.582 46.7977 10.7661C47.1352 10.9502 47.2272 11.4872 47.5494 11.6866C47.8716 11.8861 48.025 12.3003 48.3319 12.5151C48.6387 12.7299 49.237 12.5458 49.5285 12.7759C49.82 13.006 49.7433 13.6658 50.0195 13.9113C50.2956 14.1567 50.5718 14.3868 50.848 14.6476C51.1241 14.9085 51.3849 15.1386 51.6457 15.4147C51.9065 15.6909 52.3821 15.737 52.6276 16.0285C52.8731 16.32 53.1799 16.5348 53.4101 16.8416C53.6402 17.1484 53.9317 17.3939 54.1311 17.7007C54.3306 18.0076 54.4687 18.3758 54.6681 18.698C54.8676 19.0201 55.113 19.3116 55.2971 19.6338C55.4812 19.956 55.65 20.2936 55.8188 20.6311C55.9875 20.9686 55.9262 21.3981 56.0796 21.751C56.233 22.1039 56.3557 22.4414 56.4938 22.779C56.6319 23.1165 56.3711 23.6074 56.4938 23.9603C56.6166 24.3131 57.2456 24.4819 57.3683 24.8348C57.4911 25.1877 57.5064 25.5558 57.6138 25.9241C57.7212 26.2923 57.6905 26.6605 57.7826 27.0287C57.8746 27.3969 57.9667 27.7344 58.0587 28.1026C58.1508 28.4709 58.1814 28.8237 58.2428 29.1919C58.3042 29.5601 58.6417 29.8823 58.7031 30.2505C58.7644 30.6187 58.657 31.0023 58.7031 31.3858C58.7491 31.7847 58.5803 32.1683 58.5803 32.5518C58.5803 32.9354 58.8565 33.3496 58.8105 33.7178C58.7644 34.086 58.4883 34.4543 58.3962 34.8225C58.3042 35.1907 58.2275 35.5742 58.0894 35.9271C57.9513 36.2799 57.4143 36.4487 57.2456 36.8016C57.0768 37.1544 57.3837 37.7374 57.1842 38.075C56.9848 38.4125 56.9694 38.8881 56.7546 39.1949C56.5398 39.5018 55.9262 39.5325 55.6654 39.8393C55.4045 40.1461 55.5119 40.7445 55.2511 41.036C54.9903 41.3275 54.1925 41.082 53.9164 41.3581C53.6402 41.6343 53.855 42.4321 53.5788 42.6929C53.3027 42.9537 52.6583 42.831 52.3668 43.0765C52.0753 43.3219 51.5844 43.3219 51.2775 43.5674C50.9707 43.8129 51.1241 44.6567 50.8173 44.8868C50.5104 45.117 50.0502 45.163 49.7433 45.3931C49.4365 45.6232 49.1757 45.9301 48.8535 46.1449C48.5313 46.3596 48.1784 46.5438 47.8716 46.7586C47.5648 46.9734 46.9051 46.6972 46.5829 46.912C46.2453 47.1267 46.2147 47.7865 45.8925 47.9859L45.8311 47.9399Z" fill="black"/>
<path d="M35.8435 37.077C35.46 36.9543 34.9997 37.2612 34.5855 37.1998C34.1712 37.1384 33.803 36.2639 33.3888 36.2793C32.9746 36.2946 32.5603 36.7089 32.1614 36.7856C31.7625 36.8623 31.5324 37.4606 31.1642 37.614C30.7653 37.7828 30.0442 37.3072 29.722 37.5527L30.0442 37.9669C29.7374 38.197 29.2925 38.2891 29.0317 38.5806C28.7708 38.8721 28.7862 39.363 28.5714 39.7005C28.3566 40.0381 27.7276 40.1454 27.5588 40.4983C27.3901 40.8512 27.8503 41.4188 27.7583 41.8024C27.6662 42.1859 27.6202 42.5235 27.5895 42.907C27.5588 43.2906 27.2827 43.6434 27.298 44.0423C27.3133 44.4412 27.6355 44.748 27.7276 45.1316C27.8043 45.4845 27.1753 46.0522 27.3133 46.3743C27.4514 46.6965 27.6969 47.0494 27.881 47.3562C28.0651 47.6631 28.2339 48.0773 28.464 48.3381C28.6941 48.5989 29.1084 48.8137 29.3845 49.0132C29.6607 49.2126 30.1363 49.2279 30.4585 49.366C30.7806 49.5041 31.1335 49.6268 31.5017 49.7035C31.8392 49.7803 32.2381 49.32 32.5603 49.3507C32.8825 49.3813 33.1893 49.8416 33.5269 49.8416C33.9411 49.8416 34.386 49.9337 34.7849 49.8723C35.1838 49.811 35.6594 49.8723 36.0583 49.7496C36.4572 49.6268 36.8254 49.3353 37.1936 49.1666C37.5618 48.9978 37.884 48.6756 38.2215 48.4302C38.5591 48.1847 38.8966 47.9239 39.1727 47.6324C39.4182 47.3715 39.4182 46.942 39.6023 46.6505C39.7864 46.359 40.1393 46.1442 40.262 45.822C40.3848 45.4998 40.8297 45.2083 40.891 44.8554C40.9524 44.5026 40.799 44.0884 40.799 43.7355C40.799 43.3826 40.9371 42.9837 40.8757 42.6155C40.8143 42.278 40.6302 41.9098 40.5228 41.5723C40.4154 41.2041 39.6637 41.0966 39.5103 40.7745C39.3569 40.4523 39.5103 39.946 39.3262 39.6392C39.1421 39.3323 38.8045 39.1175 38.5437 38.8567C38.2829 38.5959 38.2829 38.0129 37.9914 37.7981C37.6999 37.5833 37.2857 37.4452 36.9635 37.2765C36.6413 37.1077 36.2117 37.1537 35.8435 37.0464V37.077Z" fill="black"/>
<path d="M31.594 35.19C31.8088 35.2054 31.9775 35.2821 32.1923 35.2821C32.5605 35.2821 32.8367 35.2514 33.1589 35.19C33.5117 35.1287 34.0487 35.727 34.3555 35.6043C34.6931 35.4662 35.0153 35.1747 35.2761 34.9906C35.5829 34.7758 35.4141 34.1161 35.5982 33.8706C35.9051 33.4717 36.258 33.1802 36.2886 32.6739C36.2886 32.3978 35.9511 32.0142 35.9511 31.5386C35.9511 31.2011 36.5495 30.8176 36.5495 30.4033C36.5495 30.0505 36.1659 29.6822 36.1506 29.2833C36.1506 28.9151 36.2426 28.5469 36.2273 28.148C36.2273 27.7798 36.6722 27.3809 36.6569 26.9974C36.6415 26.6138 36.4727 26.2456 36.4574 25.862C36.4421 25.4785 36.0892 25.1257 36.0738 24.7421C36.0585 24.3586 35.8284 24.0057 35.813 23.6221C35.7977 23.2386 35.9971 22.855 35.9665 22.4715C35.9358 22.0879 36.1199 21.689 36.0892 21.3208C36.0585 20.9526 35.7517 20.5844 35.721 20.2008C35.6903 19.8173 35.9971 19.4031 35.9665 19.0349C35.9358 18.6513 36.1352 18.2371 36.1045 17.8689C36.0585 17.47 35.6289 17.1324 35.5829 16.7796C35.5369 16.3807 35.0153 16.0739 34.9539 15.7363C34.8925 15.3221 35.721 14.7697 35.6443 14.4476C35.5369 14.0026 34.6164 13.8952 34.509 13.6344C34.3709 13.3123 34.3709 13.0054 34.1408 12.7293C33.9106 12.4531 33.6191 12.3918 33.3276 12.1923C33.0361 11.9929 32.8981 11.6707 32.5605 11.5479C32.2383 11.4252 31.9622 10.9189 31.6093 10.8729C31.2565 10.8269 30.8729 11.4252 30.52 11.4405C30.1672 11.4559 29.799 11.1797 29.4461 11.2258C29.0932 11.2718 28.7864 11.5939 28.4489 11.6707C28.1113 11.7474 27.7278 11.732 27.3903 11.8241C27.0374 11.9315 26.5771 11.7013 26.2549 11.8241C25.8867 11.9622 25.6873 12.4685 25.4111 12.5912C24.8588 12.8213 24.6133 13.1895 24.552 13.2202C24.2145 13.389 23.8462 13.3583 23.6161 13.6191C23.386 13.8799 23.5241 14.2635 23.386 14.6163C23.2632 14.9385 23.1252 15.1686 23.0791 15.5522C23.0331 15.8897 22.4194 16.2119 22.4194 16.5955C22.4194 16.933 22.4501 17.3166 22.4961 17.7001C22.5268 18.053 23.2172 18.3138 23.2786 18.6973C23.3246 19.0502 22.7263 19.5105 22.7876 19.894C22.7876 19.9247 23.4473 20.2008 23.5854 20.8452C23.6468 21.1521 23.2019 21.643 23.2939 22.0419C23.3706 22.3641 23.9076 22.6095 24.015 22.9931C24.1071 23.3306 24.2451 23.6681 24.3525 24.0363C24.4446 24.3739 24.4446 24.7574 24.552 25.1257C24.6594 25.4939 24.6287 25.8621 24.7514 26.2149C24.8742 26.5678 24.6594 27.0281 24.7821 27.3656C24.9048 27.7031 25.7487 27.7798 25.8867 28.1327C26.0248 28.4856 25.81 28.9458 25.9634 29.2833C26.1169 29.6209 25.9634 30.1118 26.1169 30.434C26.2703 30.7562 26.5464 31.063 26.7152 31.3852C26.884 31.7074 26.976 32.1216 27.1601 32.4284C27.3596 32.7506 27.467 33.1649 27.6818 33.441C27.9119 33.7479 28.4642 33.7939 28.7097 34.0547C28.9705 34.3309 29.4461 34.3462 29.7222 34.561C30.0291 34.7911 30.1825 35.1747 30.52 35.3128C30.8576 35.4662 31.2565 35.144 31.6093 35.1747L31.594 35.19Z" fill="black"/>
<path d="M91.3662 0.0265163C90.9213 -0.080878 90.3844 0.164615 89.9855 0.287352C89.5866 0.410088 89.5559 1.05443 89.2644 1.36127C88.9729 1.66811 88.6047 1.79089 88.4973 2.22046C88.3746 2.78812 88.3285 2.7881 88.2058 3.35576C88.0831 3.92342 87.6842 3.83137 87.5614 4.41437C87.4387 4.99736 88.0217 5.12008 87.8989 5.68773C87.7762 6.25539 87.4694 6.19404 87.3466 6.7617C87.2239 7.32935 87.0091 7.28331 86.8864 7.85097C86.7636 8.41862 87.0091 8.47999 86.8864 9.04765C86.7636 9.6153 86.3034 9.52324 86.1653 10.0909C86.0272 10.6585 86.8097 10.8427 86.6716 11.4103C86.5335 11.978 85.7817 11.8092 85.659 12.3769C85.5363 12.9445 86.0272 13.0519 85.8891 13.6349C85.7511 14.2179 85.705 14.2026 85.5823 14.7702C85.4596 15.3379 85.659 15.3993 85.5363 15.9669C85.4135 16.5346 85.1834 16.4886 85.0453 17.0716C84.9073 17.6545 85.0453 17.6852 84.9226 18.2529C84.8305 18.6978 84.7845 19.066 84.9226 19.4649C85.0607 19.8638 84.9226 20.5695 85.2294 20.861C85.5363 21.1525 86.1346 21.3213 86.5795 21.4133C86.7636 21.4594 87.0091 20.7536 87.1779 20.7536C87.5614 20.7536 87.9603 21.2139 88.2825 21.0605C88.6047 20.9071 88.8962 20.6002 89.1263 20.3087C89.3564 20.0172 89.8167 19.7411 89.8934 19.3729C90.0161 18.8052 89.4178 18.6671 89.5559 18.0994C89.694 17.5318 89.5559 17.5011 89.694 16.9335C89.832 16.3658 90.0929 16.4272 90.2156 15.8595C90.3383 15.2919 90.6298 15.3532 90.7526 14.7702C90.8753 14.1872 90.6145 14.1412 90.7526 13.5736C90.8906 13.0059 91.3509 13.1133 91.489 12.5303C91.6271 11.9473 91.6578 11.9626 91.7805 11.395C91.9032 10.8273 91.4583 10.7199 91.581 10.1523C91.7038 9.58462 91.3202 9.49259 91.443 8.92493C91.5657 8.35727 92.3942 8.54139 92.5169 7.97373C92.6396 7.40608 92.1947 7.29864 92.3328 6.73098C92.4709 6.16333 92.6396 6.19401 92.7624 5.62635C92.8851 5.0587 92.3635 4.93598 92.4862 4.35298C92.609 3.76999 93.4374 3.96943 93.5755 3.38643C93.6676 2.94151 93.1152 2.46593 92.9925 2.06703C92.8698 1.66814 92.9005 1.08512 92.5936 0.793619C92.2868 0.50212 91.8265 0.149268 91.3969 0.0418733L91.3662 0.0265163Z" fill="black"/>
<path d="M104.529 16.9947C104.192 16.6879 103.778 16.6879 103.379 16.5959C102.98 16.5038 102.52 16.1816 102.105 16.3044C101.691 16.4271 101.277 16.7032 100.97 17.0408C100.587 17.455 100.402 17.2862 100.019 17.7158C99.6354 18.1454 99.9115 18.3755 99.528 18.7898C99.1444 19.204 99.3285 19.3728 98.9603 19.8024C98.5921 20.2319 98.2393 19.9098 97.8557 20.3393C97.4721 20.7689 97.9784 21.2138 97.5949 21.6281C97.2113 22.0423 96.613 21.49 96.2294 21.9196C95.8459 22.3491 95.9379 22.4105 95.5544 22.8401C95.1708 23.2696 95.5237 23.5765 95.1402 24.0061C94.7566 24.4356 94.9561 24.6044 94.5725 25.034C94.189 25.4636 93.652 24.9726 93.2684 25.4022C92.8849 25.8318 93.0383 25.9698 92.6547 26.3994C92.3479 26.7369 91.8416 27.0745 91.7649 27.4887C91.6882 27.9029 92.2558 28.3479 92.3939 28.7621C92.532 29.1763 92.3632 29.79 92.6854 30.0969C92.9156 30.3116 93.4372 30.0355 93.7133 30.1429C93.9895 30.2503 94.2043 30.8946 94.5111 30.8946C94.8487 30.8946 95.2015 30.4958 95.5084 30.3577C95.8152 30.2196 95.8919 29.836 96.1374 29.5752C96.5209 29.161 96.8431 29.4525 97.2267 29.0229C97.6102 28.5933 97.6562 28.6547 98.0398 28.2251C98.4233 27.7956 98.2853 27.6882 98.6688 27.2739C99.0524 26.8597 99.2978 27.0898 99.6814 26.6603C100.065 26.2307 99.8502 26.0466 100.234 25.6323C100.617 25.2181 100.709 25.3102 101.093 24.8806C101.476 24.451 101.522 24.497 101.891 24.0828C102.259 23.6686 102.29 23.6839 102.673 23.2696C103.057 22.8554 102.581 22.4258 102.965 21.9963C103.348 21.5667 103.578 21.7815 103.962 21.3672C104.345 20.953 103.977 20.6155 104.361 20.1859C104.668 19.8484 105.649 19.8637 105.726 19.4495C105.803 19.0352 105.174 18.5443 105.036 18.1301C104.898 17.7158 104.821 17.3323 104.499 17.0255L104.529 16.9947Z" fill="black"/>
<path d="M147.104 115.384C146.935 115.522 146.858 114.755 146.659 114.125C146.567 113.834 146.383 113.542 146.306 113.128C146.245 112.806 145.493 112.561 145.432 112.177C145.386 111.84 146.107 111.395 146.076 111.011C146.045 110.674 145.984 110.321 145.953 109.952C145.938 109.6 145.708 109.262 145.692 108.894C145.677 108.526 145.401 108.188 145.401 107.82C145.401 107.452 145.14 107.099 145.155 106.731C145.171 106.362 145.8 106.04 145.815 105.672C145.83 105.304 145.938 104.966 145.984 104.598C146.03 104.23 145.294 103.785 145.34 103.432C145.386 103.079 145.646 102.726 145.708 102.374C145.769 102.021 146.137 101.714 146.214 101.361C146.291 101.008 146.567 100.701 146.659 100.348C146.751 99.9955 146.95 99.6887 147.073 99.3511C147.196 99.0136 147.349 98.7067 147.487 98.3692C147.625 98.0317 147.748 97.7249 147.902 97.3874C148.055 97.0498 147.687 96.4668 147.871 96.16C148.055 95.8531 148.101 95.4082 148.301 95.1167C148.5 94.8252 148.761 94.5184 149.006 94.2422C149.267 93.9354 149.804 93.9047 150.065 93.6746C150.372 93.4137 150.817 93.4751 151.139 93.3217C151.492 93.1376 151.706 92.708 152.059 92.6466C152.443 92.5853 152.857 92.5086 153.225 92.5699C153.594 92.6313 154.131 92.5546 154.468 92.754C154.775 92.9381 155.02 93.3831 155.281 93.6746C155.527 93.9354 155.389 94.503 155.573 94.8559C155.741 95.1627 155.711 95.5463 155.833 95.9145C155.941 96.252 156.248 96.5282 156.309 96.9117C156.37 97.2646 156.969 97.5868 156.999 97.9703C157.015 98.3232 156.631 98.7221 156.601 99.121C156.585 99.4892 156.815 99.8881 156.754 100.272C156.708 100.624 156.386 100.962 156.294 101.346C156.217 101.698 156.447 102.159 156.324 102.542C156.217 102.895 155.634 103.095 155.496 103.463C155.373 103.8 155.005 104.046 154.852 104.399C154.698 104.751 154.882 105.227 154.698 105.565C154.514 105.902 154.668 106.408 154.483 106.746C154.299 107.083 153.793 107.206 153.578 107.528C153.363 107.851 153.44 108.342 153.225 108.664C153.011 108.986 152.796 109.293 152.566 109.6C152.336 109.906 152.121 110.213 151.875 110.52C151.63 110.827 151.277 110.996 151.016 111.287C150.755 111.579 150.004 111.379 149.743 111.655C149.482 111.932 149.482 112.438 149.221 112.714C148.96 112.99 148.653 113.19 148.377 113.466C148.101 113.742 147.625 113.757 147.349 114.018C147.073 114.279 147.395 115.199 147.104 115.445V115.384Z" fill="black"/>
<path d="M118.568 67.8685C122.287 67.8685 125.303 64.8531 125.303 61.1334C125.303 57.4136 122.287 54.3982 118.568 54.3982C114.848 54.3982 111.833 57.4136 111.833 61.1334C111.833 64.8531 114.848 67.8685 118.568 67.8685Z" fill="white"/>
<path d="M118.568 65.7054C121.093 65.7054 123.139 63.6585 123.139 61.1335C123.139 58.6085 121.093 56.5615 118.568 56.5615C116.043 56.5615 113.996 58.6085 113.996 61.1335C113.996 63.6585 116.043 65.7054 118.568 65.7054Z" fill="black"/>
<path d="M120.393 60.6421C121.003 60.6421 121.498 60.1476 121.498 59.5375C121.498 58.9274 121.003 58.4329 120.393 58.4329C119.783 58.4329 119.289 58.9274 119.289 59.5375C119.289 60.1476 119.783 60.6421 120.393 60.6421Z" fill="white"/>
<path d="M96.7205 72.8546C100.44 72.8546 103.456 69.8392 103.456 66.1195C103.456 62.3997 100.44 59.3843 96.7205 59.3843C93.0008 59.3843 89.9854 62.3997 89.9854 66.1195C89.9854 69.8392 93.0008 72.8546 96.7205 72.8546Z" fill="white"/>
<path d="M96.7204 70.6917C99.2454 70.6917 101.292 68.6448 101.292 66.1198C101.292 63.5948 99.2454 61.5479 96.7204 61.5479C94.1954 61.5479 92.1484 63.5948 92.1484 66.1198C92.1484 68.6448 94.1954 70.6917 96.7204 70.6917Z" fill="black"/>
<path d="M98.546 65.6284C99.1561 65.6284 99.6507 65.1339 99.6507 64.5238C99.6507 63.9137 99.1561 63.4192 98.546 63.4192C97.936 63.4192 97.4414 63.9137 97.4414 64.5238C97.4414 65.1339 97.936 65.6284 98.546 65.6284Z" fill="white"/>
</svg>
