<svg width="140" height="132" viewBox="0 0 140 132" fill="none" xmlns="http://www.w3.org/2000/svg">
<path d="M79.2454 2.72096C79.0078 3.07739 79.2454 3.23186 79.0196 3.60016C78.7939 3.96846 78.7821 3.95655 78.5445 4.31297C78.3068 4.66939 77.9385 4.43181 77.7009 4.78823C77.4633 5.14465 77.7366 5.32284 77.5108 5.69114C77.2851 6.05944 77.4633 6.17827 77.2257 6.53469C76.9881 6.89111 76.6079 6.64161 76.3703 7.00991C76.1327 7.37822 76.3703 7.53265 76.1445 7.88907C75.9188 8.2455 76.1564 8.41181 75.9307 8.76823C75.7049 9.12466 75.4555 8.97021 75.2179 9.32663C74.9803 9.68305 75.0753 9.74248 74.8377 10.0989C74.6001 10.4553 74.3387 10.289 74.113 10.6454C73.8872 11.0018 73.9228 11.0375 73.6971 11.3939C73.4714 11.7503 73.6496 11.881 73.412 12.2374C73.1744 12.5938 72.7823 12.3443 72.5447 12.7007C72.3071 13.0572 72.9011 13.4374 72.6635 13.8057C72.4259 14.174 71.9507 13.8532 71.7131 14.2096C71.4754 14.566 71.9507 14.8749 71.7131 15.2432C71.4754 15.6115 71.3091 15.4927 71.0715 15.8492C70.8339 16.2056 70.525 16.0036 70.2874 16.36C70.0497 16.7164 70.026 16.7046 69.7884 17.061C69.5508 17.4174 69.5745 17.4293 69.3369 17.7976C69.0993 18.1659 69.1705 18.2015 68.9329 18.558C68.6953 18.9144 69.0161 19.1282 68.7904 19.4846C68.5646 19.8411 68.6597 19.9124 68.4221 20.2688C68.1845 20.6252 68.1013 20.5777 67.8756 20.9341C67.6499 21.2905 67.638 21.2905 67.4004 21.6469C67.1627 22.0033 67.1627 22.0033 66.9251 22.3598C66.6875 22.7162 66.2955 22.4667 66.0697 22.8231C65.844 23.1795 66.1053 23.3577 65.8796 23.726C65.6539 24.0943 65.4282 23.9399 65.1906 24.2963C64.9529 24.6527 65.2024 24.8191 64.9648 25.1755C64.7272 25.5319 64.5371 25.4131 64.2995 25.7695C64.0619 26.1259 64.2519 26.2566 64.0262 26.6131C63.8005 26.9695 63.4322 26.7438 63.2064 27.1002C62.9807 27.4566 63.0402 27.5041 62.8144 27.8605C62.5887 28.2169 62.8976 28.4308 62.6719 28.7872C62.4461 29.1436 62.1016 28.9298 61.864 29.2862C61.6264 29.6426 61.864 29.7971 61.6264 30.1535C61.3887 30.5099 61.1036 30.3198 60.866 30.6762C60.6284 31.0327 61.1511 31.3772 60.9254 31.7336C60.6996 32.0901 60.4739 31.9475 60.2363 32.3158C59.9986 32.6841 59.8561 32.5772 59.6304 32.9455C59.4047 33.3138 59.2621 33.2187 59.0364 33.5751C58.8106 33.9316 59.2502 34.2286 59.0126 34.585C58.775 34.9414 58.6681 34.8701 58.4423 35.2384C58.2166 35.6067 57.8364 35.3573 57.5988 35.7137C57.3612 36.0701 57.8364 36.379 57.5988 36.7473C57.3612 37.1156 57.0641 36.9136 56.8265 37.2701C56.5889 37.6265 56.6958 37.6978 56.4582 38.0542C56.2206 38.4106 56.1375 38.3631 55.9117 38.7195C55.686 39.0759 55.6741 39.0759 55.4365 39.4323C55.1989 39.7887 55.0682 39.7056 54.8424 40.0739C54.6167 40.4422 54.6286 40.4541 54.391 40.8105C54.1534 41.1669 54.4741 41.3807 54.2365 41.7372C53.9989 42.0936 53.5594 41.8085 53.3218 42.1649C53.0841 42.5213 53.1673 42.5807 52.9416 42.9371C52.7158 43.2936 52.989 43.4837 52.7514 43.8401C52.5138 44.1965 52.3475 44.0895 52.1099 44.446C51.8723 44.8024 52.2287 45.04 52.0029 45.3964C51.7772 45.7529 51.7891 45.7647 51.5515 46.133C51.3139 46.5013 50.8624 46.1925 50.6248 46.5489C50.3872 46.9053 50.7436 47.1429 50.506 47.4993C50.2683 47.8557 49.9357 47.6419 49.6981 47.9983C49.4605 48.3547 49.5318 48.4022 49.2942 48.7587C49.0566 49.1151 49.1635 49.1864 48.9259 49.5428C48.6883 49.8992 48.7952 49.9705 48.5576 50.3269C48.32 50.6833 48.0586 50.517 47.821 50.8734C47.5834 51.2299 47.5833 51.2299 47.3457 51.5863C47.1081 51.9427 47.025 51.8833 46.7874 52.2516C46.5498 52.6199 46.8942 52.8338 46.6566 53.1902C46.419 53.5466 46.0389 53.309 45.8131 53.6654C45.5874 54.0218 45.9795 54.2832 45.7419 54.6515C45.5042 55.0198 45.6943 55.1267 45.4567 55.495C45.2191 55.8633 44.6963 55.5069 44.4587 55.8752C44.2211 56.2435 44.5894 56.4811 44.3518 56.8376C44.1142 57.194 43.7459 56.9564 43.5083 57.3128C43.2707 57.6692 43.734 57.9662 43.4964 58.3345C43.2588 58.7028 43.0449 58.5603 42.8192 58.9167C42.5935 59.2731 42.641 59.3206 42.4034 59.677C42.1658 60.0335 42.0707 59.974 41.845 60.3423C41.6192 60.7106 41.75 60.7938 41.5123 61.1502C41.2747 61.5066 41.3817 61.5779 41.144 61.9344C40.9064 62.2908 40.6569 62.1363 40.4312 62.4927C40.2054 62.8492 39.9797 62.7066 39.7421 63.0749C39.5044 63.4432 40.0272 63.7759 39.7896 64.1323C39.552 64.4887 39.3381 64.3461 39.1005 64.7144C38.8629 65.0827 38.6372 64.9283 38.4114 65.2847C38.1857 65.6411 38.6253 65.9382 38.3877 66.2946C38.1501 66.651 38.1026 66.6272 37.8768 66.9837C37.6511 67.3401 37.5204 67.2688 37.2828 67.6252C37.0452 67.9816 37.0927 68.0173 36.855 68.3737C36.6174 68.7301 36.6056 68.7182 36.368 69.0747C36.1304 69.4311 36.2611 69.5143 36.0235 69.8707C35.7858 70.2271 35.6908 70.1677 35.465 70.5241C35.2393 70.8805 34.8948 70.6667 34.669 71.0231C34.4433 71.3795 34.6334 71.5102 34.3957 71.8666C34.1581 72.2231 34.0988 72.1874 33.8612 72.5438C33.6236 72.9003 33.6354 72.9002 33.3978 73.2567C33.1602 73.6131 32.982 73.4943 32.7444 73.8507C32.5068 74.2071 32.4592 74.1834 32.2335 74.5398C32.0078 74.8962 32.3523 75.122 32.1147 75.4784C31.877 75.8348 31.6038 75.6566 31.3781 76.013C31.1523 76.3694 31.4374 76.5595 31.1998 76.9159C30.9622 77.2723 30.7959 77.1654 30.5583 77.5219C30.3207 77.8783 30.6177 78.0684 30.3801 78.4367C30.1425 78.805 29.8692 78.6149 29.6435 78.9832C29.4177 79.3515 29.2752 79.2564 29.0494 79.6247C28.8237 79.993 29.0494 80.1475 28.8237 80.5039C28.598 80.8603 28.3604 80.7178 28.1347 81.0861C27.9089 81.4544 27.8257 81.3949 27.5881 81.7632C27.3505 82.1315 27.707 82.3573 27.4693 82.7256C27.2317 83.0939 27.2317 83.0939 27.006 83.4503C26.7802 83.8067 26.6614 83.7354 26.4238 84.1037C26.1862 84.472 25.9249 84.2939 25.6872 84.6503C25.4496 85.0067 25.8892 85.2918 25.6516 85.6601C25.4139 86.0284 24.9744 85.7314 24.7368 86.0997C24.4992 86.468 24.7843 86.6462 24.5586 87.0026C24.3328 87.359 24.4754 87.466 24.2378 87.8224C24.0001 88.1788 23.7507 88.0125 23.5131 88.3808C23.2754 88.7491 23.6081 88.9511 23.3705 89.3075C23.1329 89.6639 23.1566 89.6877 22.919 90.0441C22.6814 90.4005 22.5269 90.3055 22.2893 90.6619C22.0517 91.0183 21.8141 90.8639 21.5765 91.2322C21.3389 91.6005 21.5171 91.7074 21.2795 92.0638C21.0419 92.4202 20.9349 92.3608 20.6973 92.7172C20.4597 93.0737 20.6498 93.2044 20.4122 93.5608C20.1746 93.9172 19.9251 93.7627 19.6993 94.1311C19.4736 94.4994 19.2954 94.3806 19.0578 94.7489C18.8202 95.1172 18.9865 95.2241 18.7608 95.5805C18.535 95.9369 18.535 95.9488 18.2974 96.3171C18.0598 96.6854 18.3093 96.8398 18.0717 97.2081C17.8341 97.5764 17.7152 97.4933 17.4776 97.8497C17.24 98.2061 16.9668 98.0279 16.7291 98.3962C16.4915 98.7645 16.7054 98.8952 16.4678 99.2516C16.2302 99.608 16.3609 99.7031 16.1233 100.06C15.8857 100.416 16.0401 100.523 15.8144 100.891C15.5886 101.259 15.553 101.236 15.3272 101.604C15.1015 101.972 14.9352 101.865 14.6976 102.234C14.46 102.602 14.4125 102.566 14.1748 102.923C13.9372 103.279 13.7352 103.148 13.4976 103.517C13.26 103.885 13.7471 104.194 13.5095 104.562C13.2719 104.931 12.7729 104.598 12.5353 104.966C12.2977 105.335 12.2383 105.287 12.0007 105.655C11.763 106.024 11.8106 106.047 11.573 106.416C11.3353 106.784 11.7512 107.045 11.5136 107.414C11.276 107.782 10.872 107.509 10.6343 107.877C10.3967 108.245 10.8482 108.53 10.6106 108.887C10.373 109.243 10.2898 109.184 10.0522 109.552C9.81458 109.921 9.66017 109.814 9.42256 110.17C9.18495 110.526 8.94729 110.372 8.70967 110.74C8.47206 111.109 9.01857 111.465 8.78095 111.821C8.54334 112.178 8.24637 111.988 8.00875 112.356C7.77114 112.724 7.49788 112.534 7.26026 112.903C7.02265 113.271 7.28404 113.437 7.05831 113.805C6.83258 114.174 6.93946 114.245 6.71372 114.613C6.48799 114.982 6.17914 114.78 5.94152 115.148C5.70391 115.516 5.94151 115.671 5.70389 116.027C5.46628 116.384 5.65638 116.514 5.41877 116.883C5.18116 117.251 5.12174 117.215 4.88412 117.572C4.64651 117.928 4.70587 117.976 4.46826 118.344C4.23064 118.712 4.24258 118.712 4.00496 119.081C3.76735 119.449 3.58915 119.33 3.35154 119.686C3.11393 120.043 2.81688 119.853 2.57927 120.221C2.34165 120.589 2.62675 120.768 2.38913 121.136C2.15152 121.504 1.86644 121.314 1.62882 121.682C1.39121 122.051 1.6288 122.205 1.3793 122.573C1.12981 122.942 1.03477 122.87 0.797161 123.239C0.630831 123.488 0.464495 123.75 0.345688 124.011C0.226881 124.272 0.381296 124.653 0.310011 124.926C0.238727 125.199 0.0249355 125.472 0.00117408 125.757C-0.0225873 126.043 0.321927 126.328 0.345688 126.613C0.36945 126.898 -0.0582903 127.266 0.0129939 127.551C0.084278 127.837 0.571395 127.979 0.690202 128.241C0.809009 128.502 0.963514 128.716 1.11796 128.953C1.27241 129.191 1.14173 129.666 1.3437 129.88C1.54567 130.094 2.02084 129.999 2.24657 130.177C2.4723 130.355 2.49612 130.842 2.74561 130.985C2.99511 131.128 3.31585 131.163 3.60099 131.258C3.88612 131.353 4.14751 131.555 4.43265 131.603C4.71779 131.65 5.03858 131.733 5.3356 131.733C5.7633 131.733 5.76327 131.484 6.19097 131.484C6.61868 131.484 6.61871 131.294 7.04642 131.294C7.47412 131.294 7.47409 131.769 7.90179 131.769C8.3295 131.769 8.32954 131.805 8.75724 131.805C9.18495 131.805 9.18491 131.805 9.61262 131.805C10.0403 131.805 10.0404 131.686 10.4681 131.686C10.8958 131.686 10.8957 131.817 11.3234 131.817C11.7511 131.817 11.7512 131.46 12.1789 131.46C12.6066 131.46 12.6066 131.377 13.0343 131.377C13.462 131.377 13.462 131.698 13.8897 131.698C14.3174 131.698 14.3174 131.484 14.7451 131.484C15.1728 131.484 15.1728 131.745 15.6005 131.745C16.0282 131.745 16.0282 131.258 16.4559 131.258C16.8836 131.258 16.8837 131.341 17.3114 131.341C17.7391 131.341 17.739 131.627 18.1667 131.627C18.5944 131.627 18.5944 131.52 19.0221 131.52C19.4498 131.52 19.4499 131.389 19.8776 131.389C20.3053 131.389 20.3052 131.793 20.7329 131.793C21.1606 131.793 21.1607 131.472 21.5884 131.472C22.0161 131.472 22.0161 131.591 22.4438 131.591C22.8715 131.591 22.8715 131.413 23.2992 131.413C23.7269 131.413 23.7269 131.353 24.1546 131.353C24.5823 131.353 24.5823 131.46 25.01 131.46C25.4377 131.46 25.4377 131.508 25.8654 131.508C26.2931 131.508 26.2931 131.484 26.7209 131.484C27.1486 131.484 27.1485 131.211 27.5762 131.211C28.0039 131.211 28.004 131.484 28.4317 131.484C28.8594 131.484 28.8593 131.27 29.2871 131.27C29.7148 131.27 29.7148 131.567 30.1425 131.567C30.5702 131.567 30.5702 131.567 30.9979 131.567C31.4256 131.567 31.4256 131.531 31.8533 131.531C32.281 131.531 32.281 131.27 32.7087 131.27C33.1364 131.27 33.1364 131.306 33.5641 131.306C33.9919 131.306 33.9918 131.151 34.4195 131.151C34.8472 131.151 34.8473 131.591 35.275 131.591C35.7027 131.591 35.7026 131.163 36.1303 131.163C36.5581 131.163 36.5581 131.246 36.9858 131.246C37.4135 131.246 37.4135 131.579 37.8412 131.579C38.2689 131.579 38.2689 131.413 38.6966 131.413C39.1243 131.413 39.1243 131.769 39.552 131.769C39.9797 131.769 39.9797 131.722 40.4074 131.722C40.8351 131.722 40.8351 131.698 41.2628 131.698C41.6905 131.698 41.6905 131.306 42.1182 131.306C42.5459 131.306 42.5459 131.389 42.9736 131.389C43.4013 131.389 43.4013 131.638 43.829 131.638C44.2567 131.638 44.2568 131.769 44.6845 131.769C45.1122 131.769 45.1121 131.627 45.5398 131.627C45.9675 131.627 45.9676 131.306 46.3953 131.306C46.823 131.306 46.823 131.258 47.2507 131.258C47.6784 131.258 47.6784 131.52 48.1061 131.52C48.5338 131.52 48.5338 131.484 48.9615 131.484C49.3892 131.484 49.3892 131.294 49.8169 131.294C50.2446 131.294 50.2446 131.294 50.6723 131.294C51.1 131.294 51.1001 131.65 51.5278 131.65C51.9555 131.65 51.9554 131.484 52.3831 131.484C52.8108 131.484 52.8109 131.852 53.2386 131.852C53.6663 131.852 53.6662 131.698 54.094 131.698C54.5217 131.698 54.5217 131.413 54.9494 131.413C55.3771 131.413 55.3771 131.698 55.8048 131.698C56.2325 131.698 56.2325 131.306 56.6602 131.306C57.0879 131.306 57.0879 131.686 57.5156 131.686C57.9433 131.686 57.9433 131.413 58.3711 131.413C58.7988 131.413 58.7987 131.864 59.2264 131.864C59.6541 131.864 59.6542 131.508 60.0819 131.508C60.5096 131.508 60.5095 131.52 60.9372 131.52C61.365 131.52 61.3649 131.662 61.7926 131.662C62.2203 131.662 62.2204 131.282 62.6481 131.282C63.0758 131.282 63.0757 131.627 63.5034 131.627C63.9312 131.627 63.9312 131.246 64.3589 131.246C64.7866 131.246 64.7866 131.567 65.2143 131.567C65.642 131.567 65.642 131.472 66.0697 131.472C66.4974 131.472 66.4974 131.365 66.9251 131.365C67.3528 131.365 67.3528 131.234 67.7805 131.234C68.2082 131.234 68.2082 131.781 68.6359 131.781C69.0636 131.781 69.0637 131.567 69.4914 131.567C69.9191 131.567 69.919 131.722 70.3467 131.722C70.7744 131.722 70.7745 131.531 71.2022 131.531C71.6299 131.531 71.6299 131.46 72.0576 131.46C72.4853 131.46 72.4853 131.674 72.913 131.674C73.3407 131.674 73.3407 131.436 73.7684 131.436C74.1961 131.436 74.1961 131.733 74.6238 131.733C75.0515 131.733 75.0515 131.365 75.4792 131.365C75.9069 131.365 75.907 131.698 76.3347 131.698C76.7624 131.698 76.7623 131.674 77.19 131.674C77.6177 131.674 77.6178 131.781 78.0455 131.781C78.4732 131.781 78.4732 131.615 78.9009 131.615C79.3286 131.615 79.3286 131.781 79.7563 131.781C80.184 131.781 80.184 131.603 80.6117 131.603C81.0394 131.603 81.0394 131.615 81.4671 131.615C81.8948 131.615 81.8948 131.805 82.3225 131.805C82.7502 131.805 82.7502 131.436 83.1779 131.436C83.6056 131.436 83.6056 131.508 84.0333 131.508C84.461 131.508 84.461 131.246 84.8887 131.246C85.3164 131.246 85.3165 131.199 85.7442 131.199C86.1719 131.199 86.1718 131.472 86.5995 131.472C87.0272 131.472 87.0273 131.496 87.455 131.496C87.8827 131.496 87.8827 131.638 88.3104 131.638C88.7381 131.638 88.7381 131.84 89.1658 131.84C89.5935 131.84 89.5935 131.805 90.0212 131.805C90.4489 131.805 90.4489 131.686 90.8766 131.686C91.3043 131.686 91.3043 131.579 91.732 131.579C92.1597 131.579 92.1597 131.84 92.5874 131.84C93.0152 131.84 93.0151 131.817 93.4428 131.817C93.8705 131.817 93.8706 131.484 94.2983 131.484C94.726 131.484 94.7259 131.27 95.1536 131.27C95.5814 131.27 95.5814 131.306 96.0091 131.306C96.4368 131.306 96.4368 131.246 96.8645 131.246C97.2922 131.246 97.2922 131.531 97.7199 131.531C98.1476 131.531 98.1476 131.745 98.5753 131.745C99.003 131.745 99.003 131.246 99.4307 131.246C99.8585 131.246 99.8584 131.698 100.286 131.698C100.714 131.698 100.714 131.591 101.142 131.591C101.569 131.591 101.569 131.567 101.997 131.567C102.425 131.567 102.425 131.579 102.852 131.579C103.28 131.579 103.28 131.829 103.708 131.829C104.135 131.829 104.135 131.627 104.563 131.627C104.991 131.627 104.991 131.627 105.419 131.627C105.846 131.627 105.846 131.733 106.274 131.733C106.702 131.733 106.702 131.436 107.129 131.436C107.557 131.436 107.557 131.484 107.985 131.484C108.412 131.484 108.413 131.413 108.852 131.413C109.292 131.413 109.28 131.151 109.708 131.151C110.135 131.151 110.135 131.65 110.563 131.65C110.991 131.65 110.991 131.389 111.418 131.389C111.846 131.389 111.846 131.139 112.274 131.139C112.701 131.139 112.701 131.722 113.129 131.722C113.557 131.722 113.557 131.365 113.996 131.365C114.436 131.365 114.424 131.508 114.864 131.508C115.303 131.508 115.291 131.757 115.719 131.757C116.147 131.757 116.147 131.722 116.575 131.722C117.002 131.722 117.002 131.615 117.43 131.615C117.858 131.615 117.858 131.341 118.285 131.341C118.713 131.341 118.713 131.472 119.141 131.472C119.568 131.472 119.569 131.817 119.996 131.817C120.424 131.817 120.424 131.543 120.852 131.543C121.279 131.543 121.279 131.686 121.719 131.686C122.158 131.686 122.147 131.627 122.574 131.627C123.002 131.627 123.002 131.377 123.43 131.377C123.857 131.377 123.857 131.864 124.285 131.864C124.713 131.864 124.713 131.84 125.152 131.84C125.592 131.84 125.58 131.84 126.02 131.84C126.459 131.84 126.447 131.84 126.887 131.84C127.327 131.84 127.315 131.579 127.754 131.579C128.194 131.579 128.182 131.139 128.622 131.139C129.061 131.139 129.049 131.448 129.489 131.448C129.928 131.448 129.917 131.223 130.356 131.223C130.796 131.223 130.784 131.223 131.223 131.223C131.663 131.223 131.663 131.567 132.091 131.567C132.518 131.567 132.53 131.258 132.958 131.258C133.386 131.258 133.398 131.769 133.825 131.769C134.134 131.769 134.467 131.71 134.752 131.662C135.037 131.615 135.239 131.116 135.512 131.021C135.786 130.926 135.976 130.688 136.225 130.545C136.475 130.403 136.831 130.45 137.069 130.26C137.306 130.07 137.603 129.975 137.805 129.749C138.007 129.524 138.007 129.167 138.174 128.918C138.34 128.668 138.827 128.585 138.934 128.312C139.041 128.039 138.934 127.67 138.993 127.373C139.053 127.076 139.397 126.803 139.409 126.506C139.421 126.209 139.124 125.9 139.089 125.603C139.053 125.306 139.255 124.95 139.172 124.653C139.053 124.237 138.863 124.296 138.744 123.892C138.625 123.488 138.708 123.453 138.601 123.049C138.494 122.645 138.233 122.716 138.114 122.3C137.995 121.884 138.34 121.789 138.221 121.385C138.102 120.981 137.865 121.041 137.746 120.637C137.627 120.233 137.306 120.316 137.188 119.912C137.069 119.508 137.128 119.484 137.009 119.081C136.891 118.677 137.497 118.498 137.378 118.083C137.259 117.667 137.259 117.679 137.14 117.263C137.021 116.847 136.819 116.906 136.7 116.502C136.582 116.098 136.487 116.122 136.368 115.706C136.249 115.291 136.178 115.314 136.071 114.91C135.964 114.506 136.166 114.435 136.059 114.031C135.952 113.627 135.489 113.746 135.37 113.342C135.251 112.938 135.37 112.891 135.263 112.487C135.156 112.083 135.002 112.118 134.883 111.703C134.764 111.287 135.346 111.12 135.227 110.716C135.108 110.313 135.037 110.324 134.93 109.909C134.823 109.493 134.36 109.623 134.241 109.22C134.122 108.816 134.075 108.827 133.956 108.412C133.837 107.996 133.92 107.972 133.802 107.568C133.683 107.164 134.11 107.033 133.992 106.618C133.873 106.202 133.386 106.344 133.267 105.929C133.148 105.513 133.303 105.477 133.184 105.061C133.065 104.645 133.469 104.539 133.35 104.123C133.231 103.707 132.709 103.861 132.59 103.446C132.471 103.03 132.875 102.923 132.756 102.507C132.637 102.091 132.293 102.198 132.174 101.782C132.055 101.366 132.495 101.248 132.376 100.832C132.257 100.416 132.031 100.487 131.913 100.071C131.794 99.6556 132.079 99.5843 131.96 99.1684C131.841 98.7526 131.366 98.8952 131.247 98.4794C131.128 98.0636 130.962 98.1111 130.843 97.7071C130.725 97.3032 131.295 97.1369 131.176 96.721C131.057 96.3052 130.57 96.4478 130.451 96.032C130.332 95.6161 130.309 95.628 130.19 95.2122C130.071 94.7964 130.332 94.7251 130.214 94.3092C130.095 93.8934 130.463 93.7984 130.344 93.3826C130.225 92.9667 129.572 93.1569 129.453 92.741C129.334 92.3252 129.441 92.3014 129.323 91.8856C129.204 91.4698 129.311 91.446 129.192 91.0302C129.073 90.6144 128.978 90.65 128.859 90.2342C128.74 89.8184 129.204 89.6877 129.085 89.2837C128.966 88.8798 128.42 89.0342 128.301 88.6184C128.182 88.2026 128.253 88.1907 128.134 87.7749C128.016 87.359 127.897 87.3947 127.778 86.9907C127.659 86.5868 128.182 86.4324 128.063 86.0165C127.944 85.6007 128.016 85.5888 127.897 85.173C127.778 84.7572 127.41 84.8641 127.291 84.4602C127.172 84.0562 127.647 83.9137 127.529 83.4978C127.41 83.082 126.768 83.2721 126.649 82.8563C126.531 82.4405 126.756 82.3811 126.637 81.9652C126.519 81.5494 126.293 81.6207 126.186 81.2048C126.079 80.789 126.043 80.8009 125.925 80.3851C125.806 79.9692 126.459 79.7911 126.34 79.3752C126.222 78.9594 126.055 79.0069 125.937 78.5911C125.818 78.1753 125.342 78.3178 125.224 77.902C125.105 77.4862 125.271 77.4387 125.152 77.0347C125.034 76.6308 125.129 76.5952 125.01 76.1793C124.891 75.7635 124.713 75.8229 124.594 75.4071C124.475 74.9912 124.737 74.92 124.63 74.5042C124.523 74.0883 124.475 74.1002 124.356 73.6963C124.238 73.2923 124.594 73.1854 124.475 72.7696C124.356 72.3538 123.881 72.4963 123.762 72.0805C123.644 71.6647 123.537 71.7003 123.418 71.2845C123.299 70.8687 123.394 70.8449 123.275 70.4409C123.156 70.037 123.608 69.9063 123.489 69.4905C123.37 69.0747 123.275 69.1103 123.156 68.6945C123.038 68.2786 122.871 68.3262 122.753 67.9222C122.634 67.5183 122.349 67.5896 122.23 67.1737C122.111 66.7579 122.527 66.6391 122.42 66.2233C122.313 65.8075 121.885 65.9263 121.766 65.5105C121.648 65.0946 122.206 64.9402 122.087 64.5244C121.968 64.1086 121.351 64.2867 121.232 63.8709C121.113 63.4551 121.529 63.3363 121.41 62.9205C121.291 62.5047 121.446 62.469 121.327 62.0532C121.208 61.6373 121.137 61.6611 121.018 61.2453C120.899 60.8295 120.436 60.9601 120.329 60.5562C120.222 60.1522 120.388 60.0929 120.269 59.6889C120.151 59.285 120.555 59.1662 120.436 58.7503C120.317 58.3345 119.723 58.5127 119.604 58.0969C119.485 57.6811 119.557 57.6692 119.438 57.2534C119.319 56.8375 119.307 56.8494 119.188 56.4336C119.07 56.0178 119.129 56.0059 119.022 55.5901C118.915 55.1742 119.117 55.1148 118.998 54.699C118.879 54.2832 118.535 54.3901 118.416 53.9743C118.297 53.5585 118.416 53.5228 118.309 53.107C118.202 52.6912 118.309 52.6555 118.19 52.2516C118.072 51.8477 118.072 51.8358 117.953 51.4318C117.834 51.0279 117.656 51.0635 117.537 50.6596C117.418 50.2556 117.347 50.2675 117.228 49.8517C117.109 49.4359 117.561 49.3171 117.442 48.9012C117.323 48.4854 117.501 48.4379 117.382 48.0221C117.264 47.6062 117.287 47.6062 117.169 47.1904C117.05 46.7746 116.61 46.9053 116.491 46.4894C116.373 46.0736 116.8 45.9548 116.681 45.5509C116.563 45.147 116.159 45.2539 116.04 44.8499C115.921 44.446 116.183 44.3628 116.064 43.9589C115.945 43.5549 115.505 43.6737 115.398 43.2579C115.291 42.8421 115.707 42.7233 115.6 42.3075C115.493 41.8916 115.161 41.9867 115.042 41.5709C114.923 41.155 114.757 41.2026 114.638 40.7867C114.519 40.3709 115.125 40.2046 115.006 39.7888C114.888 39.3729 114.507 39.4799 114.389 39.0759C114.27 38.672 114.484 38.6007 114.365 38.1849C114.246 37.769 113.925 37.8641 113.806 37.4483C113.688 37.0324 114.02 36.9374 113.901 36.5335C113.783 36.1295 113.379 36.2364 113.26 35.8206C113.141 35.4048 113.723 35.2384 113.604 34.8345C113.486 34.4305 112.951 34.5731 112.832 34.1573C112.713 33.7415 113.034 33.6583 112.915 33.2425C112.797 32.8267 112.511 32.9098 112.393 32.494C112.274 32.0782 112.345 32.0663 112.226 31.6505C112.107 31.2346 112.131 31.2346 112.012 30.8188C111.894 30.403 111.941 30.3911 111.822 29.9753C111.703 29.5595 111.513 29.6189 111.395 29.203C111.276 28.7872 111.668 28.6803 111.561 28.2645C111.454 27.8486 111.359 27.8724 111.24 27.4685C111.121 27.0645 111.406 26.9695 111.288 26.5536C111.169 26.1378 110.705 26.2685 110.587 25.8527C110.468 25.4369 110.313 25.4844 110.195 25.0686C110.076 24.6527 110.349 24.5696 110.23 24.1656C110.111 23.7617 110.1 23.7498 109.981 23.334C109.862 22.9182 109.696 22.9657 109.577 22.5499C109.458 22.134 109.601 22.0984 109.482 21.6826C109.363 21.2668 109.256 21.3024 109.137 20.8866C109.018 20.4707 109.042 20.4707 108.923 20.0549C108.805 19.6391 109.268 19.5084 109.149 19.1045C109.03 18.7005 108.674 18.7955 108.555 18.3797C108.436 17.9639 108.424 17.9639 108.306 17.5481C108.187 17.1323 108.009 17.1798 107.89 16.7758C107.771 16.3719 108.306 16.2056 108.199 15.7897C108.092 15.3739 107.438 15.5521 107.319 15.1482C107.201 14.7443 107.391 14.6849 107.272 14.2571C107.153 13.8294 107.569 13.7225 107.45 13.3067C107.331 12.8908 106.785 13.0453 106.666 12.6295C106.547 12.2136 106.939 12.1067 106.821 11.6909C106.702 11.2751 106.262 11.4058 106.143 10.99C106.024 10.5741 106.535 10.4316 106.417 10.0157C106.298 9.59991 105.834 9.7306 105.728 9.31477C105.621 8.89895 106.084 8.75637 105.965 8.34055C105.846 7.92472 105.834 7.92471 105.716 7.50888C105.597 7.09306 105.454 7.12872 105.335 6.7129C105.217 6.29707 104.908 6.38023 104.789 5.96441C104.706 5.66739 104.741 5.38225 104.611 5.109C104.48 4.83574 104.611 4.40802 104.432 4.17041C104.254 3.9328 104.017 3.6952 103.815 3.48135C103.613 3.26749 103.28 3.16056 103.031 2.99423C102.781 2.8279 102.413 2.89918 102.14 2.7685C101.866 2.63781 101.593 2.64967 101.308 2.56651C101.023 2.48334 100.845 1.92498 100.536 1.88934C100.108 1.84181 100.132 1.68734 99.704 1.63982C99.2763 1.59229 99.2406 2.02 98.8129 1.97247C98.3852 1.92495 98.3852 1.93686 97.9694 1.88934C97.5535 1.84181 97.5535 1.71112 97.1377 1.6636C96.7219 1.61608 96.6862 1.84181 96.2585 1.80616C95.8308 1.77052 95.819 1.87743 95.3913 1.82991C94.9636 1.78239 94.9992 1.4616 94.5715 1.41408C94.1438 1.36656 94.1675 1.17648 93.7398 1.12896C93.3121 1.08143 93.3122 1.10521 92.8845 1.06957C92.4568 1.03392 92.433 1.22402 92.0053 1.18838C91.5776 1.15274 91.6132 0.772539 91.1974 0.725016C90.7815 0.677493 90.7459 0.903209 90.3182 0.855686C89.8905 0.808163 89.8905 0.808179 89.4628 0.760656C89.0351 0.713134 89.0589 0.451773 88.6431 0.40425C88.2272 0.356727 88.1678 0.760646 87.752 0.713124C87.3362 0.665601 87.3362 0.570551 86.9084 0.523028C86.4807 0.475505 86.457 0.653724 86.0293 0.606202C85.6016 0.558679 85.6134 0.451773 85.1857 0.40425C84.758 0.356727 84.7462 0.40424 84.3185 0.356717C84.0333 0.321075 83.7482 -0.0115701 83.4749 0.000310643C83.2016 0.0121913 82.9285 0.273565 82.6552 0.332969C82.382 0.392372 82.1443 0.558689 81.8829 0.653735C81.6216 0.74878 81.3008 0.72501 81.0513 0.867578C80.8018 1.01015 80.4454 1.02203 80.2315 1.20024C80.0176 1.37845 80.2552 2.03189 80.077 2.24574C79.8988 2.4596 79.3167 2.34079 79.1623 2.5784L79.2454 2.72096Z" fill="#DD198E"/>
</svg>
