<svg width="88" height="53" viewBox="0 0 88 53" fill="none" xmlns="http://www.w3.org/2000/svg">
<path d="M0.229152 32.7909C0.644976 32.6959 0.692499 33.0167 1.1202 33.0642C1.54791 33.1117 1.57166 32.9216 1.99936 32.9691C2.42707 33.0167 2.41521 33.1355 2.84292 33.183C3.27062 33.2305 3.2587 33.3612 3.6864 33.3968C4.11411 33.4325 4.13793 33.1592 4.56564 33.2067C4.99334 33.2543 4.98141 33.3968 5.40912 33.4444C5.83682 33.4919 5.82497 33.6345 6.25267 33.682C6.68038 33.7295 6.71602 33.385 7.14373 33.4325C7.57143 33.48 7.5595 33.575 7.98721 33.6226C8.41492 33.6701 8.39117 33.9315 8.81887 33.979C9.24658 34.0265 9.28222 33.7295 9.70993 33.777C10.1376 33.8245 10.102 34.1215 10.5297 34.1691C10.9574 34.2166 10.9693 34.0859 11.397 34.1334C11.8247 34.181 11.8604 33.9077 12.2881 33.9552C12.7158 34.0028 12.692 34.2285 13.1197 34.276C13.5474 34.3236 13.5236 34.5612 13.9513 34.6087C14.379 34.6562 14.4147 34.3473 14.8424 34.3948C15.2701 34.4423 15.2464 34.6681 15.6741 34.7156C16.1018 34.7631 16.1493 34.3116 16.577 34.3592C17.0047 34.4067 16.9572 34.7988 17.3849 34.8344C17.8126 34.8701 17.8126 34.8344 18.2403 34.8938C18.668 34.9532 18.6323 35.2383 19.06 35.2859C19.4877 35.3334 19.5472 34.8225 19.9749 34.8701C20.4026 34.9176 20.3669 35.2502 20.7946 35.2978C21.2223 35.3453 21.258 35.072 21.6857 35.1077C22.1134 35.1433 22.1015 35.3096 22.5292 35.3571C22.957 35.4047 22.9807 35.1433 23.4084 35.1908C23.8361 35.2384 23.7767 35.8086 24.2044 35.8443C24.6321 35.8799 24.7034 35.2621 25.1311 35.3096C25.5588 35.3572 25.5469 35.4997 25.9746 35.5472C26.4023 35.5948 26.4142 35.5235 26.8419 35.571C27.2697 35.6185 27.2221 36.0344 27.6498 36.0819C28.0775 36.1294 28.0894 36.0106 28.5171 36.0581C28.9448 36.1057 28.9329 36.1769 29.3606 36.2244C29.7884 36.272 29.824 35.9512 30.2517 35.9869C30.6794 36.0225 30.6556 36.3076 31.0833 36.3552C31.511 36.4027 31.5466 36.0819 31.9743 36.1294C32.4021 36.1769 32.3664 36.462 32.7941 36.5096C33.2218 36.5571 33.2456 36.367 33.6615 36.4145C34.0773 36.4621 34.0416 36.866 34.4693 36.9135C34.897 36.9611 34.9565 36.4027 35.3842 36.4502C35.8119 36.4977 35.7881 36.7116 36.2158 36.7591C36.6435 36.8066 36.6078 37.1274 37.0355 37.1749C37.4632 37.2224 37.4633 37.2343 37.891 37.2818C38.3187 37.3294 38.3306 37.1868 38.7701 37.2343C39.2097 37.2818 39.1741 37.5313 39.6018 37.5789C40.0295 37.6264 40.0652 37.3056 40.4929 37.3531C40.9206 37.4006 40.9086 37.5432 41.3363 37.5907C41.764 37.6382 41.7997 37.3175 42.2274 37.365C42.6551 37.4125 42.667 37.2937 43.0947 37.3412C43.5224 37.3888 43.4868 37.6977 43.9145 37.7452C44.3422 37.7927 44.3541 37.6977 44.7818 37.7452C45.2095 37.7927 45.1738 38.1254 45.6015 38.161C46.0292 38.1966 46.0292 38.1967 46.4569 38.2442C46.8846 38.2917 46.8847 38.3036 47.3124 38.3511C47.7401 38.3986 47.7876 37.9828 48.2153 38.0303C48.643 38.0778 48.6074 38.4342 49.0351 38.4818C49.4628 38.5293 49.5222 38.0303 49.938 38.0778C50.3539 38.1254 50.33 38.4105 50.7577 38.458C51.1854 38.5055 51.1736 38.5768 51.6013 38.6243C52.029 38.6719 52.0052 38.9095 52.4329 38.957C52.8606 39.0046 52.8725 38.9333 53.3002 38.9808C53.7279 39.0283 53.7992 38.4342 54.2269 38.4818C54.6546 38.5293 54.6427 38.6243 55.0704 38.6719C55.4981 38.7194 55.4982 38.6956 55.9259 38.7431C56.3536 38.7907 56.3298 38.9689 56.7575 39.0164C57.1852 39.0639 57.209 38.8144 57.6367 38.862C58.0644 38.9095 58.0644 38.862 58.4921 38.9095C58.9198 38.957 58.9079 39.0758 59.3356 39.1233C59.7633 39.1709 59.7515 39.254 60.1792 39.3015C60.6069 39.3491 60.6069 39.4085 61.0346 39.456C61.4623 39.5035 61.4266 39.8599 61.8543 39.9075C62.282 39.955 62.2821 40.0025 62.7098 40.05C63.1375 40.0976 63.2087 39.4916 63.6364 39.5392C64.0641 39.5867 64.0641 39.551 64.5037 39.5986C64.9433 39.6461 64.9195 39.7292 65.3473 39.7768C65.775 39.8243 65.7155 40.4064 66.1432 40.454C66.5709 40.5015 66.6423 39.8362 67.07 39.8837C67.4977 39.9312 67.4739 40.1926 67.9016 40.2401C68.3293 40.2876 68.365 39.9906 68.7927 40.0381C69.2204 40.0857 69.1729 40.5253 69.6006 40.5728C70.0283 40.6203 70.0639 40.3589 70.4916 40.4064C70.9193 40.454 70.9074 40.549 71.347 40.5965C71.7866 40.6441 71.7747 40.5847 72.2024 40.6322C72.6301 40.6797 72.6301 40.7035 73.0578 40.751C73.4855 40.7985 73.4618 41.0718 73.8895 41.1193C74.3172 41.1668 74.329 41.0718 74.7568 41.1193C75.1845 41.1668 75.2082 41.0005 75.6359 41.048C76.0636 41.0955 76.0637 41.1312 76.4914 41.1787C76.9191 41.2262 76.8834 41.6183 77.3111 41.6658C77.7388 41.7133 77.8101 41.1074 78.2378 41.1549C78.6655 41.2024 78.618 41.7014 79.0457 41.749C79.4734 41.7965 79.5091 41.4757 79.9368 41.5232C80.3645 41.5707 80.3764 41.5232 80.8041 41.5708C81.2318 41.6183 81.2317 41.6302 81.6713 41.6777C82.1109 41.7252 82.0753 41.9985 82.503 42.046C82.9307 42.0935 82.9426 41.9866 83.3821 42.046C83.8217 42.1054 83.798 42.2598 84.2257 42.3074C84.6534 42.3549 84.689 42.1173 85.1168 42.1648C85.5445 42.2123 85.5563 42.141 85.9959 42.1885C86.4355 42.2361 86.4355 42.141 86.8751 42.1885C87.3147 42.2361 87.2434 42.4618 87.6473 42.64C88.0513 42.8182 87.5048 42.6519 87.0652 42.9965C86.8751 43.139 86.6018 43.2459 86.3404 43.436C86.1385 43.5786 86.0672 43.9825 85.8177 44.1607C85.6038 44.3033 85.188 44.1845 84.9266 44.3508C84.7009 44.4934 84.4039 44.5528 84.1544 44.7073C83.9168 44.8498 83.8455 45.2657 83.5841 45.4082C83.3465 45.5389 82.9426 45.4082 82.6812 45.5389C82.4436 45.6696 82.1941 45.8122 81.9446 45.9428C81.6951 46.0735 81.5525 46.3943 81.2911 46.525C81.0298 46.6557 80.911 47.024 80.6496 47.1428C80.3882 47.2616 80.0556 47.1903 79.7823 47.3092C79.5091 47.428 79.3189 47.6537 79.0576 47.7725C78.7962 47.8913 78.4279 47.7249 78.1547 47.8319C77.8814 47.9388 77.5487 47.8319 77.2755 47.9388C77.0022 48.0458 76.9072 48.5447 76.6339 48.6516C76.3607 48.7586 76.1349 48.9368 75.8616 49.0318C75.5884 49.1269 75.3033 49.1388 75.0301 49.2338C74.7568 49.3289 74.5191 49.4952 74.2459 49.5783C73.9726 49.6615 73.6162 49.4595 73.3429 49.5546C73.0697 49.6496 72.8796 49.9942 72.6063 50.0773C72.3331 50.1605 71.9173 49.7328 71.644 49.8041C71.3708 49.8754 71.1094 49.9704 70.8361 50.0417C70.5629 50.113 70.3609 50.4219 70.0758 50.4932C69.7906 50.5645 69.6005 50.9328 69.3273 51.004C69.054 51.0753 68.7451 51.004 68.4719 51.0634C68.1986 51.1228 67.9135 51.1823 67.6402 51.2417C67.367 51.3011 67.0343 51.111 66.7611 51.1704C66.4878 51.2298 66.1908 51.1466 65.9056 51.206C65.6205 51.2654 65.4304 51.7525 65.1453 51.8001C64.8602 51.8476 64.5394 51.5743 64.2542 51.6218C63.9691 51.6693 63.7196 51.907 63.4464 51.9426C63.1731 51.9783 62.888 52.0852 62.6147 52.1208C62.3415 52.1565 62.0682 52.3228 61.783 52.3466C61.4979 52.3703 61.189 52.1446 60.9039 52.1684C60.6188 52.1921 60.3218 52.0377 60.0366 52.0614C59.7515 52.0852 59.4782 52.1683 59.1931 52.1921C58.9079 52.2159 58.6465 52.4297 58.3614 52.4416C58.0763 52.4535 57.7912 52.2515 57.506 52.2753C57.2209 52.299 56.9476 52.3822 56.6625 52.3941C56.3773 52.406 56.1159 52.8455 55.8308 52.8574C55.5457 52.8693 55.2606 52.8574 54.9754 52.8574C54.6903 52.8574 54.4051 52.501 54.12 52.5129C53.8348 52.5248 53.5497 52.7268 53.2646 52.7268C52.9795 52.7268 52.6943 52.3109 52.4092 52.3109C52.124 52.3109 51.8389 52.3822 51.5538 52.3822C51.2686 52.3822 50.9835 52.4891 50.6983 52.4772C50.4132 52.4653 50.1281 52.5366 49.843 52.5248C49.5578 52.5129 49.2726 52.6674 48.9875 52.6555C48.7024 52.6436 48.4411 52.1327 48.1559 52.1208C47.8708 52.1089 47.5618 52.5842 47.2767 52.5723C46.9916 52.5604 46.7302 52.2278 46.4451 52.204C46.16 52.1802 45.8867 52.0377 45.6015 52.0139C45.3164 51.9901 45.0075 52.2159 44.7224 52.1921C44.4372 52.1683 44.1877 51.8001 43.9026 51.7644C43.6175 51.7288 43.2729 52.3228 42.9878 52.2871C42.7026 52.2515 42.4294 52.1327 42.1442 52.0971C41.8591 52.0614 41.574 52.0495 41.2888 52.0139C41.0037 51.9783 40.6948 52.0971 40.3978 52.0614C40.1008 52.0258 39.9107 51.3486 39.6255 51.3129C39.3404 51.2773 38.984 51.6931 38.6989 51.6456C38.4137 51.5981 38.1405 51.4317 37.8672 51.3961C37.5939 51.3604 37.2851 51.3842 36.9999 51.3367C36.7148 51.2892 36.4772 50.9803 36.1921 50.9328C35.9069 50.8852 35.5861 51.0516 35.301 51.004C35.0159 50.9565 34.7426 50.8615 34.4574 50.8139C34.1723 50.7664 33.9347 50.4456 33.6615 50.3981C33.3882 50.3506 32.9843 50.8377 32.711 50.7783C32.4378 50.7189 32.1882 50.4219 31.915 50.3625C31.6417 50.3031 31.3566 50.2199 31.0715 50.1605C30.7863 50.1011 30.5843 49.6972 30.2992 49.6378C30.0141 49.5784 29.7289 49.5308 29.4556 49.4596C29.1824 49.3883 28.8616 49.4833 28.5765 49.412C28.2913 49.3407 27.935 49.614 27.6498 49.5427C27.3647 49.4714 27.2102 48.9487 26.9369 48.8774C26.6637 48.8061 26.3191 48.9605 26.0459 48.8774C25.7726 48.7942 25.5469 48.521 25.2737 48.4497C25.0004 48.3784 24.6796 48.4497 24.4063 48.3546C24.1331 48.2596 23.9311 47.9507 23.6579 47.8675C23.3846 47.7844 23.0045 48.0101 22.7431 47.9269C22.4817 47.8438 22.3272 47.3686 22.054 47.2735C21.7807 47.1785 21.3174 47.6537 21.0442 47.5586C20.7709 47.4636 20.6639 46.9171 20.3907 46.822C20.1174 46.727 19.7254 46.9527 19.464 46.8577C19.2026 46.7626 18.965 46.5369 18.7036 46.4419C18.4422 46.3468 18.1809 46.1924 17.9076 46.0854C17.6344 45.9785 17.3373 45.9547 17.076 45.8478C16.8146 45.7409 16.5889 45.5152 16.3275 45.3963C16.0661 45.2775 15.8523 45.0399 15.6028 44.9211C15.3533 44.8023 14.878 45.0993 14.6286 44.9805C14.3791 44.8617 14.3078 44.3152 14.0583 44.1845C13.8088 44.0538 13.4167 44.1845 13.1554 44.0538C12.894 43.9231 12.7039 43.6736 12.4544 43.543C12.2049 43.4123 11.991 43.1984 11.7416 43.0558C11.4921 42.9133 11.1356 42.9608 10.8861 42.8183C10.6366 42.6757 10.4347 42.4381 10.1971 42.2955C9.95946 42.1529 9.86437 41.749 9.62675 41.5945C9.38914 41.4401 9.06838 41.4044 8.83077 41.25C8.59315 41.0955 8.47434 40.7629 8.23673 40.5965C7.99912 40.4302 7.42885 40.7272 7.20312 40.5609C6.97738 40.3946 7.01305 39.8481 6.78732 39.6698C6.56159 39.4916 6.32396 39.3372 6.11011 39.159C5.88438 38.9808 5.32595 39.1946 5.1121 39.0164C4.88637 38.8263 4.73192 38.5649 4.51807 38.3748C4.29233 38.1729 4.41114 37.6264 4.22105 37.4363C4.0072 37.2343 3.76961 37.068 3.57952 36.8779C3.36566 36.6641 2.91417 36.6997 2.73596 36.4977C2.53399 36.272 2.64094 35.7967 2.46273 35.5948C2.26076 35.3572 1.73801 35.4284 1.57168 35.2265C1.38159 34.977 1.16769 34.7631 1.01325 34.5612C0.823155 34.2879 0.54991 34.1097 0.431103 33.9077C0.145966 33.4444 -0.139176 32.9097 0.276648 32.8147L0.229152 32.7909Z" fill="black"/>
<path d="M87.7305 42.4143C87.8969 42.0103 87.4216 42.0697 87.077 41.8084C86.7325 41.547 86.6375 41.6777 86.2811 41.4163C85.9246 41.1549 85.8177 41.3094 85.4732 41.048C85.1286 40.7866 85.1999 40.6916 84.8435 40.4302C84.487 40.1688 84.5703 40.0738 84.2257 39.8124C83.8812 39.551 83.8811 39.551 83.5247 39.3015C83.1683 39.052 83.1208 39.1114 82.7762 38.8619C82.4317 38.6125 82.3961 38.6481 82.0515 38.3867C81.707 38.1254 81.8614 37.9115 81.5169 37.6501C81.1723 37.3888 80.9585 37.6858 80.6021 37.4244C80.2457 37.163 80.4357 36.9254 80.0912 36.664C79.7466 36.4026 79.8893 36.2126 79.5447 35.9631C79.2002 35.7136 78.9506 36.0343 78.6061 35.773C78.2616 35.5116 78.3448 35.3928 78.0002 35.1433C77.6557 34.8938 77.4655 35.1433 77.121 34.8819C76.7765 34.6205 76.8359 34.5374 76.4795 34.2879C76.1231 34.0384 76.1587 33.9909 75.8023 33.7295C75.4459 33.4681 75.6716 33.183 75.3152 32.9216C74.9588 32.6602 74.7568 32.9453 74.4123 32.684C74.0677 32.4226 74.0677 32.4226 73.7113 32.1731C73.3548 31.9236 73.4143 31.8523 73.0578 31.591C72.7014 31.3296 72.6421 31.4246 72.2856 31.1632C71.9292 30.9019 71.9886 30.8306 71.644 30.5692C71.2995 30.3078 71.3945 30.1772 71.0381 29.9158C70.6817 29.6544 70.456 29.9752 70.0996 29.7138C69.7431 29.4524 70.1115 28.9653 69.755 28.704C69.3986 28.4426 69.0184 28.9772 68.662 28.704C68.3055 28.4307 68.662 27.9674 68.3056 27.706C67.9491 27.4446 67.8066 27.6347 67.4621 27.3733C67.1175 27.112 67.0343 27.2189 66.6779 26.9575C66.3215 26.6961 66.3334 26.803 65.9175 26.6486C65.5017 26.4941 65.5849 26.5179 65.1572 26.4704C64.7295 26.4229 64.7176 26.4941 64.2899 26.4585C63.8622 26.4229 63.8503 26.506 63.4226 26.4585C62.9949 26.411 63.0424 25.912 62.6147 25.8645C62.187 25.8169 62.1989 25.6862 61.7712 25.6387C61.3435 25.5912 61.3197 25.7932 60.892 25.7575C60.4643 25.7219 60.4524 25.8407 60.0247 25.8051C59.597 25.7694 59.5851 25.8882 59.1574 25.8526C58.7297 25.8169 58.7772 25.3417 58.3376 25.2942C57.898 25.2467 57.8506 25.7813 57.4229 25.7338C56.9952 25.6863 56.9833 25.8051 56.5437 25.7575C56.1041 25.71 56.1398 25.3774 55.712 25.3299C55.2843 25.2823 55.2724 25.3299 54.8447 25.2942C54.417 25.2586 54.3932 25.4011 53.9655 25.3655C53.5378 25.3299 53.5498 25.1873 53.1221 25.1516C52.6944 25.116 52.6705 25.2942 52.2428 25.2467C51.8151 25.1992 51.8271 25.0685 51.3993 25.0209C50.9716 24.9734 50.9479 25.1873 50.5202 25.1398C50.0925 25.0922 50.0924 25.116 49.6528 25.0685C49.2133 25.021 49.2608 24.6526 48.8331 24.6051C48.4054 24.5576 48.3698 24.914 47.9302 24.8784C47.4906 24.8427 47.5262 24.5932 47.0866 24.5576C46.6471 24.5219 46.6708 24.3913 46.2312 24.3437C45.7916 24.2962 45.8154 24.1418 45.3877 24.0943C44.96 24.0467 44.9125 24.4863 44.4848 24.4388C44.0571 24.3913 44.0689 24.2487 43.6412 24.2131C43.2135 24.1774 43.2135 24.1299 42.7858 24.0943C42.3581 24.0586 42.3582 24.0349 41.9186 23.9873C41.479 23.9398 41.4671 24.1655 41.0275 24.1299C40.5879 24.0942 40.6354 23.7378 40.1959 23.6903C39.7563 23.6428 39.7562 23.7497 39.3285 23.6903C38.9008 23.6309 38.8771 23.821 38.4494 23.7734C38.0217 23.7259 38.0217 23.7259 37.5821 23.6784C37.1425 23.6309 37.1781 23.417 36.7504 23.3695C36.3227 23.322 36.2871 23.7022 35.8594 23.6547C35.4317 23.6071 35.4792 23.0963 35.0515 23.0606C34.6238 23.025 34.6 23.1438 34.1723 23.1081C33.7446 23.0725 33.7565 22.9537 33.3169 22.9062C32.8773 22.8587 32.8417 23.2864 32.414 23.2507C31.9863 23.2151 32.01 22.9656 31.5705 22.9181C31.1309 22.8706 31.1665 22.5973 30.7269 22.5616C30.2873 22.526 30.2754 22.7636 29.8358 22.7161C29.3963 22.6686 29.3963 22.7517 28.9567 22.7161C28.5171 22.6804 28.5171 22.7161 28.0894 22.6686C27.6617 22.621 27.6855 22.2765 27.2578 22.2409C26.8301 22.2052 26.7944 22.4547 26.3667 22.4072C25.939 22.3597 25.9271 22.4547 25.4994 22.4072C25.0717 22.3597 25.048 22.5379 24.6084 22.4903C24.1688 22.4428 24.2044 22.1696 23.7648 22.1339C23.3252 22.0983 23.3134 22.2409 22.8738 22.2052C22.4342 22.1696 22.4223 21.9082 21.9946 21.9913C21.5669 22.0745 21.5431 22.0983 21.163 22.3003C20.7828 22.5022 20.8659 22.6804 20.4857 22.8705C20.1056 23.0606 20.165 23.1913 19.7729 23.3814C19.3809 23.5715 19.167 23.1438 18.7749 23.3339C18.3829 23.524 18.5967 23.9517 18.2047 24.1418C17.8126 24.3319 17.8601 24.415 17.4681 24.6051C17.076 24.7952 16.9097 24.4626 16.5176 24.6526C16.1256 24.8427 16.0899 24.7596 15.6979 24.9497C15.3058 25.1398 15.3652 25.2585 14.985 25.4486C14.6048 25.6387 14.6998 25.8407 14.3197 26.0427C13.9395 26.2446 14.0226 26.4229 13.6425 26.613C13.2623 26.803 13.1791 26.6605 12.7871 26.8506C12.395 27.0407 12.3237 26.8981 11.9435 27.1001C11.5633 27.302 11.6584 27.5159 11.2782 27.706C10.898 27.8961 10.898 27.9198 10.5178 28.1218C10.1376 28.3238 9.98323 28.0149 9.59117 28.2169C9.19911 28.4188 9.13969 28.3 8.75951 28.4901C8.37932 28.6802 8.39119 28.7396 7.99912 28.9297C7.60706 29.1198 7.69027 29.2861 7.2982 29.4762C6.90614 29.6663 6.76355 29.393 6.38337 29.5831C6.00318 29.7732 6.27646 30.3435 5.8844 30.5455C5.49233 30.7474 5.19528 30.1415 4.80321 30.3435C4.41115 30.5455 4.50625 30.7118 4.11419 30.9138C3.72212 31.1157 3.91221 31.484 3.52015 31.686C3.12809 31.888 3.11617 31.8642 2.73598 32.0662C2.3558 32.2682 2.33206 32.2444 1.94 32.4464C1.54793 32.6484 1.4529 32.4464 1.06084 32.6365C0.668775 32.8266 -0.0559651 32.5889 0.00343841 33.0285C0.0628419 33.4681 0.69251 32.981 1.10833 33.0285C1.52416 33.076 1.52419 33.2186 1.95189 33.2662C2.3796 33.3137 2.37956 33.2661 2.80727 33.3255C3.23497 33.3849 3.2469 33.2424 3.67461 33.2899C4.10231 33.3374 4.07849 33.5751 4.5062 33.6107C4.9339 33.6463 4.94583 33.5394 5.37354 33.5869C5.80124 33.6344 5.8131 33.5394 6.2408 33.5869C6.66851 33.6344 6.68037 33.5275 7.10807 33.575C7.53578 33.6225 7.47643 34.1334 7.90413 34.181C8.33184 34.2285 8.34369 34.1215 8.7714 34.1691C9.1991 34.2166 9.22285 33.9671 9.65056 34.0146C10.0783 34.0622 10.102 33.8483 10.5297 33.8958C10.9574 33.9433 10.9337 34.1215 11.3733 34.1691C11.8129 34.2166 11.7891 34.3473 12.2168 34.3829C12.6445 34.4186 12.6683 34.1929 13.096 34.2404C13.5237 34.2879 13.5356 34.181 13.9633 34.2404C14.391 34.2998 14.3434 34.7275 14.7711 34.775C15.1988 34.8225 15.1989 34.775 15.6266 34.8225C16.0543 34.87 16.0899 34.5849 16.5176 34.6205C16.9453 34.6562 16.9215 34.9057 17.3492 34.9532C17.7769 35.0007 17.8008 34.7275 18.2285 34.775C18.6562 34.8225 18.6561 34.8344 19.0838 34.8819C19.5115 34.9294 19.5234 34.8463 19.9511 34.8819C20.3788 34.9176 20.3551 35.1314 20.7828 35.1789C21.2105 35.2264 21.2105 35.1789 21.6382 35.2265C22.0659 35.274 22.0897 35.1077 22.5174 35.1552C22.9451 35.2027 22.8857 35.7136 23.3134 35.7611C23.7411 35.8086 23.7529 35.6779 24.1806 35.7255C24.6083 35.773 24.6084 35.7849 25.0361 35.8324C25.4638 35.8799 25.4519 36.0343 25.8796 36.0819C26.3073 36.1294 26.3667 35.5472 26.7944 35.5948C27.2221 35.6423 27.1865 36.0106 27.6142 36.0581C28.0419 36.1056 28.03 36.2601 28.4577 36.3076C28.8854 36.3551 28.8973 36.2007 29.3369 36.2482C29.7765 36.2957 29.7646 36.3076 30.1923 36.3551C30.62 36.4027 30.6081 36.5452 31.0358 36.5927C31.4635 36.6403 31.5229 36.0581 31.9506 36.1056C32.3784 36.1531 32.3308 36.6521 32.7585 36.6997C33.1862 36.7472 33.1862 36.6997 33.6139 36.7591C34.0416 36.8185 34.0535 36.6878 34.4812 36.7353C34.9089 36.7828 34.9327 36.5808 35.3604 36.6284C35.7881 36.6759 35.7762 36.7234 36.2039 36.7709C36.6316 36.8185 36.6435 36.7353 37.0712 36.7709C37.4989 36.8066 37.4989 36.7947 37.9266 36.8422C38.3543 36.8897 38.3425 36.9967 38.7702 37.0442C39.1979 37.0917 39.186 37.1987 39.6137 37.2462C40.0414 37.2937 40.0533 37.1868 40.481 37.2462C40.9087 37.3056 40.8849 37.4957 41.3126 37.5432C41.7404 37.5907 41.776 37.2937 42.2037 37.3412C42.6314 37.3887 42.6076 37.567 43.0353 37.6145C43.463 37.662 43.4511 37.7095 43.8788 37.7571C44.3065 37.8046 44.2947 37.959 44.7105 37.9946C45.1263 38.0303 45.162 37.8283 45.5897 37.8759C46.0174 37.9234 45.9936 38.1016 46.4213 38.1491C46.849 38.1966 46.8491 38.2442 47.2649 38.2798C47.6807 38.3154 47.7044 38.2323 48.1322 38.2798C48.5599 38.3273 48.5836 38.1254 49.0113 38.1729C49.439 38.2204 49.439 38.2085 49.8667 38.256C50.2944 38.3035 50.2944 38.3392 50.7221 38.3867C51.1498 38.4342 51.138 38.5412 51.5657 38.5887C51.9934 38.6362 51.9696 38.8857 52.3973 38.9332C52.825 38.9808 52.8725 38.5293 53.3002 38.5768C53.7279 38.6243 53.7398 38.4937 54.1794 38.5412C54.619 38.5887 54.5715 38.9808 54.9992 39.0283C55.4269 39.0758 55.4269 39.0283 55.8665 39.0758C56.3061 39.1233 56.3061 39.0283 56.7338 39.0758C57.1615 39.1233 57.1733 39.0521 57.601 39.0996C58.0287 39.1471 58.005 39.3372 58.4327 39.3847C58.8604 39.4322 58.8604 39.3847 59.3 39.4322C59.7396 39.4798 59.7515 39.3015 60.1792 39.3491C60.6069 39.3966 60.5594 39.8362 60.9871 39.8837C61.4148 39.9312 61.4623 39.5273 61.89 39.5748C62.3177 39.6223 62.3296 39.4797 62.7692 39.5273C63.2088 39.5748 63.1969 39.551 63.6365 39.5985C64.076 39.6461 64.0166 40.1451 64.4443 40.1926C64.872 40.2401 64.8839 40.0857 65.3235 40.1332C65.7631 40.1807 65.7868 39.8718 66.2145 39.9193C66.6422 39.9669 66.6304 40.1094 67.0581 40.1569C67.4858 40.2045 67.4977 40.0975 67.9254 40.1569C68.3531 40.2163 68.3055 40.6916 68.7332 40.7272C69.1609 40.7629 69.1729 40.7035 69.6006 40.751C70.0283 40.7985 70.052 40.5728 70.4797 40.6203C70.9074 40.6678 70.8837 40.9529 71.3114 41.0005C71.7391 41.048 71.751 40.9529 72.1787 41.0005C72.6064 41.048 72.5945 41.1906 73.0222 41.2381C73.4499 41.2856 73.4974 40.846 73.9251 40.8935C74.3528 40.9411 74.3647 40.8817 74.7924 40.9292C75.2201 40.9767 75.2439 40.8342 75.6716 40.8817C76.0993 40.9292 76.0637 41.3094 76.4914 41.345C76.9191 41.3807 76.8953 41.6064 77.323 41.6539C77.7507 41.7014 77.8101 41.1668 78.2378 41.2143C78.6655 41.2619 78.6655 41.3213 79.0932 41.3688C79.521 41.4163 79.4734 41.844 79.913 41.8915C80.3526 41.939 80.3883 41.5113 80.816 41.5589C81.2437 41.6064 81.2555 41.5113 81.6951 41.5589C82.1347 41.6064 82.0872 41.9628 82.5149 42.0103C82.9426 42.0578 82.9426 42.0935 83.3703 42.141C83.798 42.1886 83.8098 42.0579 84.2494 42.1054C84.689 42.1529 84.7009 41.9272 85.1405 41.9747C85.5801 42.0222 85.5325 42.438 85.9603 42.4855C86.388 42.5331 86.388 42.3549 86.8038 42.5093C87.279 42.6875 87.576 42.8776 87.7424 42.4737L87.7305 42.4143Z" fill="#DD198E"/>
<path d="M66.0718 26.4942C66.4995 26.3873 65.9768 26.0427 66.0362 25.4843C66.06 25.2348 65.858 24.9259 65.8936 24.5933C65.9174 24.3319 66.2263 24.0586 66.25 23.7498C66.2738 23.4765 66.0124 23.1676 66.0362 22.8587C66.0481 22.5736 66.2738 22.3003 66.2856 22.0033C66.2975 21.7182 66.1788 21.4211 66.1906 21.1241C66.2025 20.8271 66.5352 20.5538 66.5352 20.2568C66.5352 19.9598 66.7134 19.6747 66.7134 19.3777C66.7134 19.0806 66.6896 18.7955 66.6896 18.4985C66.6896 18.2015 66.7134 17.9163 66.7134 17.6193C66.7134 17.3223 66.1906 17.049 66.1788 16.7639C66.1669 16.4788 66.7371 16.1461 66.7252 15.8491C66.7133 15.5521 66.7015 15.2551 66.6777 14.9699C66.654 14.6848 66.6183 14.3759 66.5827 14.0907C66.547 13.8056 66.4639 13.4967 66.4045 13.2116C66.3451 12.9264 65.6679 12.8076 65.5847 12.5344C65.5016 12.2611 65.6204 11.9285 65.5134 11.6671C65.4065 11.4057 65.5372 11.0255 65.4065 10.7642C65.2758 10.5028 64.8124 10.4315 64.658 10.182C64.5035 9.93252 64.4204 9.67114 64.2541 9.43353C64.0878 9.19591 64.3253 8.67317 64.1471 8.43555C63.9689 8.19794 63.3987 8.29296 63.2086 8.07911C63.0185 7.86526 63.161 7.3425 62.9591 7.14052C62.7571 6.93855 62.4125 6.86728 62.1987 6.6653C61.9848 6.46333 61.8186 6.22572 61.5928 6.03563C61.3671 5.84554 60.9394 5.94061 60.7018 5.76239C60.4642 5.58418 60.4641 5.12081 60.2265 4.95448C59.9889 4.78815 59.585 4.87134 59.3474 4.71689C59.1097 4.56244 58.789 4.53865 58.5395 4.39609C58.29 4.25352 58.1711 3.88524 57.9098 3.75455C57.6484 3.62387 57.4226 3.44566 57.1613 3.31497C56.8999 3.18429 56.6148 3.13676 56.3415 3.01796C56.0682 2.89915 55.902 2.57835 55.6406 2.47142C55.3792 2.36449 55.0347 2.43579 54.7614 2.34075C54.4882 2.2457 54.1436 2.38827 53.8585 2.30511C53.5733 2.22194 53.3951 1.87738 53.11 1.79421C52.8248 1.71105 52.5397 1.69917 52.2545 1.61601C51.9694 1.53284 51.7556 1.2596 51.4704 1.18832C51.1853 1.11704 50.9001 1.10515 50.615 1.03386C50.3299 0.962581 50.0804 0.748718 49.7952 0.689314C49.5101 0.629911 49.2131 0.606167 48.928 0.558644C48.6428 0.511121 48.3458 0.522993 48.0488 0.47547C47.7518 0.427948 47.4904 0.285388 47.1933 0.261627C46.8963 0.237865 46.5518 0.796249 46.2548 0.772488C45.9578 0.748726 45.6964 0.570513 45.3994 0.546752C45.1024 0.52299 44.841 0.249747 44.5559 0.225986C44.2707 0.202225 43.9737 0.380429 43.6886 0.368549C43.4035 0.356668 43.1183 0.130945 42.8332 0.119064C42.548 0.107183 42.251 0.119064 41.9659 0.119064C41.6807 0.119064 41.3956 0.380416 41.1104 0.392297C40.8253 0.404178 40.5164 -0.0116308 40.2313 0.000249865C39.9461 0.0121306 39.6491 0.0477582 39.364 0.0596388C39.0789 0.0715195 38.8056 0.273506 38.5205 0.297267C38.2353 0.321029 37.9502 0.368559 37.6651 0.416082C37.3799 0.463604 37.0711 0.356678 36.7859 0.416082C36.5008 0.475485 36.2869 0.938809 36.0136 0.986332C35.7404 1.03385 35.4909 1.23584 35.2058 1.29524C34.9206 1.35464 34.5761 1.11704 34.3028 1.18832C34.0296 1.2596 33.6731 1.11701 33.4118 1.20018C33.1504 1.28334 33.0316 1.90115 32.7702 1.9962C32.5089 2.09124 32.1643 1.99618 31.9029 2.09123C31.6415 2.18627 31.2257 1.96056 30.9643 2.07937C30.703 2.19818 30.4178 2.29322 30.1565 2.41203C29.8951 2.53084 29.705 2.81596 29.4674 2.95853C29.2298 3.1011 28.909 3.16053 28.6714 3.31497C28.4338 3.46942 28.2793 3.7902 28.0536 3.94465C27.8278 4.0991 27.7803 4.52679 27.5665 4.705C27.3526 4.88321 27.1269 5.04955 26.9249 5.23964C26.7229 5.42973 26.4022 5.51289 26.2121 5.71486C26.022 5.91683 25.6299 5.98812 25.4636 6.20198C25.2973 6.41583 25.4399 6.90294 25.2854 7.12867C25.131 7.3544 24.6795 7.42568 24.5369 7.67517C24.3944 7.92466 24.525 8.30485 24.4181 8.56622C24.3111 8.8276 24.026 9.02956 23.9547 9.30282C23.8834 9.57608 23.8003 9.86123 23.7528 10.1345C23.7052 10.4077 23.3964 10.6453 23.3489 10.9424C23.3013 11.2156 23.5745 11.5483 23.527 11.8453C23.4795 12.1186 23.7884 12.4631 23.7409 12.7482C23.6933 13.0334 23.2181 13.2472 23.1706 13.5323C23.1231 13.8175 23.3488 14.1383 23.3013 14.4234C23.2538 14.7085 22.7786 14.9224 22.7429 15.2075C22.7073 15.4927 22.7192 15.7897 22.6716 16.0748C22.6241 16.36 22.6479 16.657 22.6123 16.9421C22.5766 17.2272 22.8023 17.5599 22.7548 17.8332C22.7073 18.1302 22.731 18.4153 22.6954 18.6886C22.6478 18.9856 22.7429 19.2945 22.6954 19.5678C22.6478 19.8767 22.3152 20.1143 22.2796 20.3756C22.232 20.6964 22.1726 20.9815 22.137 21.2192C22.0657 21.7538 21.7093 21.6825 22.0895 21.8726C22.4697 22.0627 22.434 21.9914 22.8617 22.0271C23.2894 22.0627 23.2538 22.4785 23.6815 22.5141C24.1092 22.5498 24.1448 22.1696 24.5725 22.2171C25.0002 22.2647 24.9765 22.5379 25.4042 22.5736C25.8319 22.6092 25.8675 22.3241 26.2952 22.3597C26.7229 22.3954 26.7229 22.3835 27.1506 22.431C27.5783 22.4785 27.5308 22.9181 27.9704 22.9656C28.41 23.0131 28.41 22.8706 28.8496 22.9062C29.2892 22.9419 29.2892 22.8231 29.7169 22.8706C30.1446 22.9181 30.1802 22.5973 30.6079 22.6449C31.0356 22.6924 31 23.0369 31.4396 23.0725C31.8792 23.1082 31.903 22.8468 32.3307 22.8943C32.7584 22.9419 32.7108 23.429 33.1504 23.4646C33.59 23.5003 33.6375 22.8943 34.0771 22.93C34.5167 22.9656 34.4929 23.0963 34.9206 23.1438C35.3483 23.1913 35.3364 23.3696 35.7641 23.4052C36.1918 23.4408 36.2157 23.2626 36.6434 23.3102C37.0711 23.3577 37.0591 23.4765 37.4868 23.524C37.9145 23.5715 37.9027 23.6903 38.3304 23.7379C38.7581 23.7854 38.7937 23.5003 39.2214 23.5478C39.6492 23.5953 39.6372 23.7379 40.0649 23.7854C40.4926 23.8329 40.4808 23.9755 40.9204 24.0111C41.36 24.0468 41.3837 23.7141 41.8233 23.7498C42.2629 23.7854 42.2391 23.8923 42.6787 23.9398C43.1183 23.9874 43.0827 24.2488 43.5104 24.2844C43.9381 24.32 43.9737 24.0349 44.4014 24.0705C44.8291 24.1062 44.8054 24.4151 45.2331 24.4626C45.6608 24.5101 45.6727 24.3794 46.1122 24.4151C46.5518 24.4507 46.5756 24.1893 47.0033 24.2369C47.431 24.2844 47.4073 24.5101 47.8468 24.5458C48.2864 24.5814 48.2507 24.8309 48.6903 24.8784C49.1299 24.926 49.1537 24.6052 49.5814 24.6527C50.0091 24.7002 49.9972 24.9259 50.4249 24.9616C50.8526 24.9972 50.9002 24.5576 51.3279 24.5933C51.7556 24.6289 51.7199 25.021 52.1477 25.0685C52.5754 25.1161 52.5872 25.0685 53.0149 25.116C53.4426 25.1635 53.4189 25.4606 53.8466 25.4962C54.2743 25.5319 54.3337 25.0329 54.7614 25.0685C55.1891 25.1042 55.1653 25.4368 55.593 25.4843C56.0207 25.5318 56.0564 25.2467 56.4841 25.2943C56.9118 25.3418 56.8999 25.4962 57.3395 25.5319C57.7791 25.5675 57.8029 25.3061 58.2306 25.3537C58.6583 25.4012 58.6107 25.9596 59.0384 26.0071C59.4661 26.0546 59.5374 25.4131 59.9651 25.4606C60.3928 25.5081 60.381 25.6507 60.8205 25.6863C61.2601 25.722 61.2601 25.6507 61.6997 25.6863C62.1393 25.722 62.0918 26.1497 62.5195 26.1853C62.9472 26.221 62.9709 26.114 63.3986 26.1615C63.8263 26.2091 63.8264 26.2803 64.266 26.316C64.7056 26.3516 64.7887 25.9596 65.2164 26.0903C65.6798 26.2328 65.6322 26.613 66.0599 26.5061L66.0718 26.4942Z" fill="black"/>
<path d="M34.8257 14.3521C37.201 14.3521 39.1265 12.4266 39.1265 10.0513C39.1265 7.67602 37.201 5.75049 34.8257 5.75049C32.4504 5.75049 30.5249 7.67602 30.5249 10.0513C30.5249 12.4266 32.4504 14.3521 34.8257 14.3521Z" fill="#FFF597"/>
</svg>
