<svg width="122" height="131" viewBox="0 0 122 131" fill="none" xmlns="http://www.w3.org/2000/svg">
<path d="M56.5288 9.94839C25.7988 11.1684 0.978778 36.2084 0.0287778 66.9584C-0.411222 81.1784 4.21878 94.3184 12.2388 104.718L4.47877 112.808C0.558774 116.898 0.668777 123.438 4.82878 127.278C4.90878 127.358 4.99878 127.438 5.07878 127.508C9.14878 131.238 15.4688 130.988 19.2888 127.008L27.3988 118.548C36.5188 124.348 47.3188 127.728 58.8988 127.728C91.3788 127.728 117.809 101.298 117.809 68.8084C117.809 36.3184 90.0788 8.61839 56.5188 9.94839H56.5288ZM58.9088 112.828C49.8488 112.828 41.4188 110.068 34.4088 105.358C22.6488 97.4484 14.8988 84.0184 14.8988 68.8084C14.8988 60.0484 17.4688 51.8784 21.9088 45.0084C29.7488 32.8584 43.4088 24.7984 58.9088 24.7984C83.1788 24.7984 102.919 44.5384 102.919 68.8084C102.919 93.0784 83.1688 112.828 58.9088 112.828Z" fill="#DD198E"/>
<path d="M101.559 101.278C101.559 103.198 100.809 105.098 99.3388 106.528C96.6888 109.098 92.5488 109.288 89.6688 106.978L80.3888 99.5184L79.6288 98.9084L73.8188 94.2284L78.7888 99.3184C76.6088 100.378 74.1588 101.348 71.4388 102.188L78.0288 110.928C80.2488 113.868 79.9288 118.008 77.2788 120.578C74.6288 123.138 70.4888 123.338 67.6188 121.028L48.1388 105.368L41.4588 99.9884L46.8588 105.368H34.4088C22.6488 97.4584 14.8988 84.0284 14.8988 68.8184C14.8988 60.0584 17.4688 51.8884 21.9088 45.0184L43.0388 44.8484C42.9488 45.7984 42.8988 46.7484 42.8988 47.7184C42.8988 61.8484 52.2788 74.0784 65.8188 79.7884C71.0488 81.9984 76.8888 83.2284 83.0488 83.2284C85.2288 83.2284 87.3588 83.0684 89.4388 82.7784C91.8788 82.4384 94.2488 81.8884 96.5188 81.1684C96.1188 82.2184 95.5688 83.4484 94.8088 84.8184C94.3188 85.6984 93.7388 86.6284 93.0588 87.5884L100.069 96.8884C101.059 98.1984 101.539 99.7484 101.539 101.288L101.559 101.278Z" fill="black"/>
<path d="M111.669 24.6084L102.729 3.98839C100.309 -1.59161 92.2788 -1.22161 90.3788 4.55839L87.2988 13.9384C86.0088 13.8284 84.7088 13.7584 83.3888 13.7584C82.0688 13.7584 80.7688 13.8184 79.4788 13.9284L76.3988 4.54839C74.4988 -1.23161 66.4688 -1.59161 64.0488 3.97839L55.1088 24.5884C48.6988 30.6484 44.7888 38.7684 44.7888 47.6984C44.7888 66.4484 62.0688 81.6484 83.3888 81.6484C104.709 81.6484 121.979 66.4484 121.979 47.6984C121.979 38.7784 118.059 30.6484 111.659 24.5884L111.669 24.6084Z" fill="black"/>
<path d="M72.7087 15.0884C70.1287 15.7384 67.6487 16.6184 65.3187 17.7184C67.1787 13.4584 69.7387 8.48839 69.7387 8.48839L72.7087 15.0984V15.0884Z" fill="white"/>
<path d="M101.539 17.7384C99.2188 16.6384 96.7388 15.7584 94.1588 15.0984L97.1388 8.46839C97.1388 8.46839 99.8088 13.6384 101.539 17.7284V17.7384Z" fill="white"/>
<path d="M91.4688 36.3784C90.6688 33.0584 87.9588 32.9684 88.6188 38.7284C89.2788 44.4784 87.2288 47.2584 83.1188 49.0684C79.0088 50.8884 73.0688 52.4684 76.3688 59.5784C79.6688 66.6884 87.1388 68.4384 95.5988 65.0284C104.059 61.6184 104.479 51.9584 99.6888 47.8484C94.8988 43.7384 92.7088 41.5384 91.4788 36.3684L91.4688 36.3784Z" fill="#F9F9F9"/>
<path d="M91.3582 53.1145C93.7409 52.8544 95.5642 51.651 95.4305 50.4267C95.2969 49.2024 93.2569 48.4207 90.8742 48.6808C88.4914 48.9409 86.6682 50.1443 86.8018 51.3686C86.9355 52.5929 88.9754 53.3746 91.3582 53.1145Z" fill="black"/>
<path d="M98.7887 53.9184C98.7287 53.3984 98.2587 53.0284 97.7487 53.0884C97.2287 53.1484 96.8587 53.6084 96.9187 54.1284C96.9887 54.7184 96.8087 55.3084 96.4387 55.7784C96.0687 56.2484 95.5287 56.5384 94.9387 56.5984C94.3487 56.6684 93.7587 56.4884 93.2987 56.1184C92.8287 55.7484 92.5387 55.2084 92.4787 54.6184C92.4187 54.0984 91.9487 53.7284 91.4387 53.7884C90.9187 53.8484 90.5487 54.3084 90.6087 54.8284C90.7387 56.0584 89.8487 57.1684 88.6287 57.2984C87.3987 57.4384 86.2987 56.5384 86.1587 55.3184C86.0987 54.7984 85.6287 54.4284 85.1187 54.4884C84.5987 54.5484 84.2287 55.0084 84.2887 55.5284C84.5187 57.6384 86.3087 59.1984 88.3787 59.1984C88.5287 59.1984 88.6787 59.1984 88.8287 59.1784C90.1087 59.0384 91.1687 58.3184 91.8187 57.3084C91.9187 57.4084 92.0087 57.5184 92.1187 57.5984C92.8587 58.1884 93.7587 58.5084 94.6887 58.5084C94.8387 58.5084 94.9887 58.5084 95.1487 58.4884C96.2387 58.3684 97.2187 57.8284 97.9087 56.9784C98.5987 56.1184 98.9087 55.0484 98.7887 53.9584V53.9184Z" fill="black"/>
<path d="M102.269 42.0584C105.787 42.0584 108.639 39.2064 108.639 35.6884C108.639 32.1703 105.787 29.3184 102.269 29.3184C98.7508 29.3184 95.8988 32.1703 95.8988 35.6884C95.8988 39.2064 98.7508 42.0584 102.269 42.0584Z" fill="white"/>
<path d="M102.269 40.0084C104.655 40.0084 106.589 38.0743 106.589 35.6884C106.589 33.3025 104.655 31.3684 102.269 31.3684C99.883 31.3684 97.9489 33.3025 97.9489 35.6884C97.9489 38.0743 99.883 40.0084 102.269 40.0084Z" fill="black"/>
<path d="M104.299 36.0184C104.873 36.0184 105.339 35.5528 105.339 34.9784C105.339 34.404 104.873 33.9384 104.299 33.9384C103.724 33.9384 103.259 34.404 103.259 34.9784C103.259 35.5528 103.724 36.0184 104.299 36.0184Z" fill="white"/>
<path d="M77.6288 47.2084C81.1468 47.2084 83.9988 44.3564 83.9988 40.8384C83.9988 37.3203 81.1468 34.4684 77.6288 34.4684C74.1107 34.4684 71.2588 37.3203 71.2588 40.8384C71.2588 44.3564 74.1107 47.2084 77.6288 47.2084Z" fill="white"/>
<path d="M77.6288 45.1584C80.0147 45.1584 81.9488 43.2243 81.9488 40.8384C81.9488 38.4525 80.0147 36.5184 77.6288 36.5184C75.243 36.5184 73.3088 38.4525 73.3088 40.8384C73.3088 43.2243 75.243 45.1584 77.6288 45.1584Z" fill="black"/>
<path d="M79.6588 41.1684C80.2332 41.1684 80.6988 40.7028 80.6988 40.1284C80.6988 39.554 80.2332 39.0884 79.6588 39.0884C79.0844 39.0884 78.6188 39.554 78.6188 40.1284C78.6188 40.7028 79.0844 41.1684 79.6588 41.1684Z" fill="white"/>
</svg>
